<?xml version="1.0" encoding="UTF-8" standalone="no"?>
<svg
   xmlns:dc="http://purl.org/dc/elements/1.1/"
   xmlns:cc="http://creativecommons.org/ns#"
   xmlns:rdf="http://www.w3.org/1999/02/22-rdf-syntax-ns#"
   xmlns:svg="http://www.w3.org/2000/svg"
   xmlns="http://www.w3.org/2000/svg"
   xml:space="preserve"
   enable-background="new 0 0 576 576"
   viewBox="0 0 576 576"
   height="576px"
   width="576px"
   y="0px"
   x="0px"
   id="Layer_1"
   version="1.1"><defs
   id="defs12051">
</defs>  
<circle
   style="opacity:1;vector-effect:none;fill:#ffffff;fill-opacity:1;stroke:#000000;stroke-width:2.82842708;stroke-linecap:butt;stroke-linejoin:round;stroke-miterlimit:4;stroke-dasharray:none;stroke-dashoffset:0;stroke-opacity:0.87843137"
   id="path12059"
   cx="288"
   cy="288"
   r="286.78021" /><circle
   style="opacity:1;vector-effect:none;fill:#ff0000;fill-opacity:1;stroke:none;stroke-width:7.31780434;stroke-linecap:butt;stroke-linejoin:round;stroke-miterlimit:4;stroke-dasharray:none;stroke-dashoffset:0;stroke-opacity:0.87843137"
   id="path12059-1"
   cx="288"
   cy="288"
   r="272.80481" /><circle
   style="opacity:1;vector-effect:none;fill:#ffffff;fill-opacity:1;stroke:none;stroke-width:5.03817654;stroke-linecap:butt;stroke-linejoin:round;stroke-miterlimit:4;stroke-dasharray:none;stroke-dashoffset:0;stroke-opacity:0.87843137"
   id="path12059-1-1"
   cx="288"
   cy="288"
   r="187.8212" /><path
   d="m 201.29262,298.40597 q -13.10425,0 -20.14172,7.15881 -7.03747,7.1588 -7.03747,20.50572 0,13.34692 7.03747,20.50573 7.03747,7.03747 20.14172,7.03747 12.98291,0 19.89905,-7.03747 6.91613,-7.15881 6.91613,-20.50573 0,-13.46826 -6.91613,-20.50572 -6.91614,-7.15881 -19.89905,-7.15881 z M 167.1973,282.99634 q -16.50165,-4.97476 -24.87381,-15.28829 -8.37216,-10.31353 -8.37216,-25.72316 0,-22.93244 17.10833,-34.94467 17.10832,-12.01223 50.23296,-12.01223 32.88196,0 49.99029,12.01223 17.10833,11.8909 17.10833,34.94467 0,15.40963 -8.4935,25.72316 -8.37216,10.31353 -24.87381,15.28829 18.44302,5.0961 27.78587,16.62299 9.46418,11.40555 9.46418,28.87789 0,26.93651 -17.95768,40.76878 -17.83634,13.71092 -53.02368,13.71092 -35.30868,0 -53.38769,-13.71092 -17.95768,-13.83227 -17.95768,-40.76878 0,-17.47234 9.34285,-28.87789 9.46418,-11.52689 27.9072,-16.62299 z m 10.92021,-36.27936 q 0,10.79888 5.94545,16.62299 6.06678,5.82411 17.22966,5.82411 10.92021,0 16.86565,-5.82411 5.94545,-5.82411 5.94545,-16.62299 0,-10.79887 -5.94545,-16.50165 -5.94544,-5.82411 -16.86565,-5.82411 -11.16288,0 -17.22966,5.82411 -5.94545,5.82412 -5.94545,16.50165 z"
   style="font-style:normal;font-variant:normal;font-weight:bold;font-stretch:normal;font-size:248.49542236px;line-height:1.25;font-family:Eurostile;-inkscape-font-specification:Eurostile;letter-spacing:0px;word-spacing:0px;fill:#000000;fill-opacity:1;stroke:none;stroke-width:13.17846012"
   id="path12122" /><path
   d="m 401.86045,288.69912 q 0,-33.97398 -6.43079,-47.80625 -6.30945,-13.9536 -21.35507,-13.9536 -15.04563,0 -21.47642,13.9536 -6.43078,13.83227 -6.43078,47.80625 0,34.33799 6.43078,48.41293 6.43079,14.07493 21.47642,14.07493 14.92428,0 21.35507,-14.07493 6.43079,-14.07494 6.43079,-48.41293 z m 46.71423,0.36401 q 0,45.01553 -19.41371,69.52533 -19.4137,24.38846 -55.08638,24.38846 -35.79402,0 -55.20773,-24.38846 -19.4137,-24.5098 -19.4137,-69.52533 0,-45.13687 19.4137,-69.52533 19.41371,-24.50981 55.20773,-24.50981 35.67268,0 55.08638,24.50981 19.41371,24.38846 19.41371,69.52533 z"
   style="font-style:normal;font-variant:normal;font-weight:bold;font-stretch:normal;font-size:248.49542236px;line-height:1.25;font-family:Eurostile;-inkscape-font-specification:Eurostile;letter-spacing:0px;word-spacing:0px;fill:#000000;fill-opacity:1;stroke:none;stroke-width:13.17846012"
   id="path12124" /><metadata
   id="metadata12129"><rdf:RDF><cc:Work
       rdf:about=""><dc:title></dc:title></cc:Work></rdf:RDF></metadata></svg>