<?xml version="1.0" encoding="UTF-8" standalone="no"?>
<svg
   xmlns:dc="http://purl.org/dc/elements/1.1/"
   xmlns:cc="http://creativecommons.org/ns#"
   xmlns:rdf="http://www.w3.org/1999/02/22-rdf-syntax-ns#"
   xmlns:svg="http://www.w3.org/2000/svg"
   xmlns="http://www.w3.org/2000/svg"
   xmlns:sodipodi="http://sodipodi.sourceforge.net/DTD/sodipodi-0.dtd"
   xmlns:inkscape="http://www.inkscape.org/namespaces/inkscape"
   version="1.1"
   x="0px"
   y="0px"
   viewBox="0 0 100 125"
   style="enable-background:new 0 0 100 100;"
   xml:space="preserve"
   id="svg30"
   sodipodi:docname="noun_parking ticket_2619882.svg"
   inkscape:version="0.92.3 (2405546, 2018-03-11)"><metadata
     id="metadata36"><rdf:RDF><cc:Work
         rdf:about=""><dc:format>image/svg+xml</dc:format><dc:type
           rdf:resource="http://purl.org/dc/dcmitype/StillImage" /></cc:Work></rdf:RDF></metadata><defs
     id="defs34" /><sodipodi:namedview
     pagecolor="#ffffff"
     bordercolor="#666666"
     borderopacity="1"
     objecttolerance="10"
     gridtolerance="10"
     guidetolerance="10"
     inkscape:pageopacity="0"
     inkscape:pageshadow="2"
     inkscape:window-width="640"
     inkscape:window-height="480"
     id="namedview32"
     showgrid="false"
     inkscape:zoom="1.888"
     inkscape:cx="50"
     inkscape:cy="62.5"
     inkscape:window-x="438"
     inkscape:window-y="227"
     inkscape:window-maximized="0"
     inkscape:current-layer="svg30" /><g
     id="g24"
     transform="matrix(1.2091323,0,0,1.3259452,-9.9039287,-4.0987614)"><path
       d="M 86.9,14.2 H 13.1 c -0.7,0 -1.2,0.6 -1.2,1.2 v 16.3 c 0,0.7 0.6,1.2 1.2,1.2 h 6.1 v 45.3 c 0,3.7 3,6.8 6.8,6.8 h 8.3 c 0,0.4 0.3,0.7 0.7,0.7 0.4,0 0.7,-0.3 0.7,-0.7 h 28.8 c 0,0.4 0.3,0.7 0.7,0.7 0.4,0 0.7,-0.3 0.7,-0.7 h 7.7 c 3.8,0 6.9,-3.1 6.9,-6.9 V 33 h 6.1 c 0.7,0 1.2,-0.6 1.2,-1.2 V 15.5 c 0.3,-0.7 -0.3,-1.3 -0.9,-1.3 z M 85.6,30.5 H 80.7 V 27 h 1.4 V 20.2 H 17.9 V 27 h 1.4 v 3.5 H 14.4 V 16.7 H 85.6 Z M 26.1,82.6 c -2.4,0 -4.3,-1.9 -4.3,-4.3 V 24.2 h 56.5 v 54 c 0,2.4 -2,4.4 -4.4,4.4 H 26.1 Z"
       id="path2"
       inkscape:connector-curvature="0" /><path
       d="m 72,40.3 v 0 l -1.1,-9 C 70.8,30.5 70.3,29.9 69.5,29.6 69.2,29.5 63,27.5 55.9,27.5 c -7.7,0 -11.7,2.2 -11.9,2.3 -0.2,0.1 -0.4,0.3 -0.6,0.5 l -8.5,10 c 0,0 -4.3,1.3 -5.7,1.8 -1,0.3 -1.8,1.1 -2,2.2 l -1.7,6.9 c -0.2,0.9 0,1.8 0.6,2.6 0.6,0.8 1.4,1.1 2.4,1.1 h 1 c 0.3,1.3 1,2.5 2,3.5 1.5,1.5 3.4,2.3 5.5,2.3 3.6,0 6.6,-2.5 7.5,-5.8 h 10.6 c 0.9,3.3 3.9,5.8 7.5,5.8 3.6,0 6.6,-2.5 7.5,-5.8 h 1.2 c 1.7,0 3,-1.3 3,-3 v -8.6 c 0.1,-1.5 -0.9,-2.7 -2.3,-3 z m -4,12.6 c 0,2.9 -2.4,5.3 -5.3,5.3 -2.9,0 -5.3,-2.4 -5.3,-5.3 0,-2.9 2.4,-5.3 5.3,-5.3 2.9,0 5.3,2.4 5.3,5.3 z m -25.7,0 c 0,2.9 -2.4,5.3 -5.3,5.3 -1.4,0 -2.7,-0.5 -3.7,-1.5 -1,-1 -1.5,-2.3 -1.5,-3.7 0,-1.4 0.5,-2.7 1.5,-3.7 1,-1 2.3,-1.5 3.7,-1.5 3,-0.2 5.3,2.2 5.3,5.1 z m 24.8,-19.8 0.8,6.5 h -9.4 v -8 c 3.6,0.3 6.9,1.1 8.6,1.5 z M 55.9,31.5 v 8.1 H 40.8 l 5.5,-6.5 c 0.9,-0.3 4.2,-1.6 9.6,-1.6 z"
       id="path4"
       inkscape:connector-curvature="0" /><path
       d="m 62.7,51 c -1,0 -1.8,0.8 -1.8,1.8 0,1 0.8,1.8 1.8,1.8 1,0 1.8,-0.8 1.8,-1.8 0.1,-1 -0.8,-1.8 -1.8,-1.8 z"
       id="path6"
       inkscape:connector-curvature="0" /><path
       d="m 37.1,51 c -1,0 -1.8,0.8 -1.8,1.8 0,1 0.8,1.8 1.8,1.8 1,0 1.8,-0.8 1.8,-1.8 0,-1 -0.8,-1.8 -1.8,-1.8 z"
       id="path8"
       inkscape:connector-curvature="0" /><path
       d="m 27.6,64.8 c -0.4,0 -0.8,0.3 -0.8,0.8 v 12.2 c 0,0.4 0.3,0.8 0.8,0.8 0.5,0 0.8,-0.3 0.8,-0.8 V 65.5 c 0,-0.4 -0.4,-0.7 -0.8,-0.7 z"
       id="path10"
       inkscape:connector-curvature="0" /><path
       d="m 35.2,64.8 c -0.4,0 -0.8,0.3 -0.8,0.8 v 12.2 c 0,0.4 0.3,0.8 0.8,0.8 0.5,0 0.8,-0.3 0.8,-0.8 V 65.5 c -0.1,-0.4 -0.4,-0.7 -0.8,-0.7 z"
       id="path12"
       inkscape:connector-curvature="0" /><path
       d="m 42.7,64.8 c -0.4,0 -0.8,0.3 -0.8,0.8 v 12.2 c 0,0.4 0.3,0.8 0.8,0.8 0.5,0 0.8,-0.3 0.8,-0.8 V 65.5 c 0,-0.4 -0.4,-0.7 -0.8,-0.7 z"
       id="path14"
       inkscape:connector-curvature="0" /><path
       d="m 50.3,64.8 c -0.4,0 -0.8,0.3 -0.8,0.8 v 12.2 c 0,0.4 0.3,0.8 0.8,0.8 0.5,0 0.8,-0.3 0.8,-0.8 V 65.5 C 51,65.1 50.7,64.8 50.3,64.8 Z"
       id="path16"
       inkscape:connector-curvature="0" /><path
       d="m 57.8,64.8 c -0.4,0 -0.8,0.3 -0.8,0.8 v 12.2 c 0,0.4 0.3,0.8 0.8,0.8 0.5,0 0.8,-0.3 0.8,-0.8 V 65.5 c 0,-0.4 -0.3,-0.7 -0.8,-0.7 z"
       id="path18"
       inkscape:connector-curvature="0" /><path
       d="m 65.4,64.8 c -0.4,0 -0.8,0.3 -0.8,0.8 v 12.2 c 0,0.4 0.3,0.8 0.8,0.8 0.5,0 0.8,-0.3 0.8,-0.8 V 65.5 c 0,-0.4 -0.4,-0.7 -0.8,-0.7 z"
       id="path20"
       inkscape:connector-curvature="0" /><path
       d="m 73,64.8 c -0.4,0 -0.8,0.3 -0.8,0.8 v 12.2 c 0,0.4 0.3,0.8 0.8,0.8 0.5,0 0.8,-0.3 0.8,-0.8 V 65.5 C 73.7,65.1 73.4,64.8 73,64.8 Z"
       id="path22"
       inkscape:connector-curvature="0" /></g></svg>