<?xml version="1.0" encoding="UTF-8" standalone="no"?>
<svg
   xmlns:dc="http://purl.org/dc/elements/1.1/"
   xmlns:cc="http://creativecommons.org/ns#"
   xmlns:rdf="http://www.w3.org/1999/02/22-rdf-syntax-ns#"
   xmlns:svg="http://www.w3.org/2000/svg"
   xmlns="http://www.w3.org/2000/svg"
   xmlns:sodipodi="http://sodipodi.sourceforge.net/DTD/sodipodi-0.dtd"
   xmlns:inkscape="http://www.inkscape.org/namespaces/inkscape"
   version="1.1"
   x="0px"
   y="0px"
   viewBox="0 0 100 125"
   enable-background="new 0 0 100 100"
   xml:space="preserve"
   id="svg14"
   sodipodi:docname="noun_Sustainability_8351.svg"
   inkscape:version="0.92.3 (2405546, 2018-03-11)"><metadata
     id="metadata20"><rdf:RDF><cc:Work
         rdf:about=""><dc:format>image/svg+xml</dc:format><dc:type
           rdf:resource="http://purl.org/dc/dcmitype/StillImage" /></cc:Work></rdf:RDF></metadata><defs
     id="defs18" /><sodipodi:namedview
     pagecolor="#ffffff"
     bordercolor="#666666"
     borderopacity="1"
     objecttolerance="10"
     gridtolerance="10"
     guidetolerance="10"
     inkscape:pageopacity="0"
     inkscape:pageshadow="2"
     inkscape:window-width="640"
     inkscape:window-height="480"
     id="namedview16"
     showgrid="false"
     inkscape:zoom="1.888"
     inkscape:cx="50"
     inkscape:cy="62.5"
     inkscape:window-x="0"
     inkscape:window-y="0"
     inkscape:window-maximized="0"
     inkscape:current-layer="svg14" /><g
     id="g8"
     transform="translate(0,14)"><path
       d="M 99.602,43.375 99.217,40 h -3.076 c -18.868,0 -32.316,4.527 -40.972,13.182 -0.314,0.314 -0.592,0.741 -0.894,1.056 3.045,3.92 5.324,8.023 7.024,12.248 C 66.674,58.159 75.721,50.412 90.07,46.132 75.008,55.933 67.879,70.385 65.101,81.69 c 0.582,4.572 0.793,9.359 0.793,14.395 0,0.434 -0.038,0.864 -0.093,1.285 7.287,-2.433 13.967,-6.64 19.544,-12.221 10.991,-10.987 16.197,-26.313 14.257,-41.774 z"
       id="path2"
       inkscape:connector-curvature="0" /><path
       d="M 59,96.088 C 59,79.257 56.678,65.254 44.607,53.182 35.953,44.527 22.728,40 3.859,40 H 0.784 L 0.4,43.375 c -1.942,15.461 3.246,30.789 14.234,41.773 9.433,9.435 21.983,14.714 35.339,14.714 2.092,0 4.05,-0.094 6.126,-0.353 l 2.9,-0.345 V 96.088 Z M 21.926,78.021 C 14.639,70.736 10.586,61.296 10.323,51.157 c 12.433,0.81 21.557,4.045 27.149,9.638 7.41,7.412 10.63,15.433 11.36,28.826 -10.165,-0.278 -19.683,-4.373 -26.906,-11.6 z"
       id="path4"
       inkscape:connector-curvature="0" /><path
       d="M 96.563,27.797 88.782,9.662 C 87.869,7.543 85.872,7.426 84.349,9.406 l -2.164,2.812 C 73.465,4.818 62.201,-0.159 49.895,-0.159 28.05,-0.158 9.44,14 2.649,33 h 1.21 c 3.713,0 7.232,0.65 10.577,0.963 6.089,-13.539 19.675,-22.765 35.459,-22.765 9.757,0 18.681,3.741 25.514,9.701 l -0.036,0.108 -2.217,2.913 c -1.527,1.982 -0.902,3.894 1.384,4.229 l 19.521,2.89 c 2.291,0.338 3.416,-1.118 2.502,-3.242 z"
       id="path6"
       inkscape:connector-curvature="0" /></g></svg>