<?xml version="1.0" encoding="UTF-8" standalone="no"?>
<svg
   xmlns:dc="http://purl.org/dc/elements/1.1/"
   xmlns:cc="http://creativecommons.org/ns#"
   xmlns:rdf="http://www.w3.org/1999/02/22-rdf-syntax-ns#"
   xmlns:svg="http://www.w3.org/2000/svg"
   xmlns="http://www.w3.org/2000/svg"
   xmlns:sodipodi="http://sodipodi.sourceforge.net/DTD/sodipodi-0.dtd"
   xmlns:inkscape="http://www.inkscape.org/namespaces/inkscape"
   inkscape:version="1.0rc1 (09960d6f05, 2020-04-09)"
   sodipodi:docname="noun_Pedestrian Crossing_35167.svg"
   id="svg8"
   xml:space="preserve"
   enable-background="new 0 0 100 100"
   viewBox="0 0 100 125"
   y="0px"
   x="0px"
   version="1.0"><metadata
     id="metadata14"><rdf:RDF><cc:Work
         rdf:about=""><dc:format>image/svg+xml</dc:format><dc:type
           rdf:resource="http://purl.org/dc/dcmitype/StillImage" /></cc:Work></rdf:RDF></metadata><defs
     id="defs12" /><sodipodi:namedview
     inkscape:current-layer="svg8"
     inkscape:window-maximized="1"
     inkscape:window-y="-8"
     inkscape:window-x="-8"
     inkscape:cy="63.802781"
     inkscape:cx="53.324204"
     inkscape:zoom="3.968"
     showgrid="false"
     id="namedview10"
     inkscape:window-height="988"
     inkscape:window-width="1680"
     inkscape:pageshadow="2"
     inkscape:pageopacity="0"
     guidetolerance="10"
     gridtolerance="10"
     objecttolerance="10"
     borderopacity="1"
     bordercolor="#666666"
     pagecolor="#ffffff" /><path
     inkscape:connector-curvature="0"
     id="path2"
     d="M 50.57617,74.98633 40.50684,89.34668 c -1.25488,1.79004 -3.72363,2.22461 -5.51465,0.96875 -1.72852,-1.21191 -2.18652,-3.56641 -1.08496,-5.33789 l 8.95898,-14.34766 0.1416,-3.34375 c 0.05176,-1.41797 0.13965,-2.83203 0.16016,-4.25293 0.0059,-0.08008 0.0166,-0.16016 0.02344,-0.24023 l 7.11719,11.48535 z m 7.55664,-23.85938 2.89648,4.41797 c 0.67188,1.02539 1.79004,1.58105 2.92969,1.58105 0.6582,0 1.32422,-0.18555 1.91602,-0.57324 1.61621,-1.05957 2.06836,-3.22949 1.00781,-4.8457 l -7.25195,-11.0625 c -0.65039,3.10352 -1.24805,7.01758 -1.49805,10.48242 z M 68.76855,85.66113 62.88378,68.59668 C 62.81737,68.41016 62.72851,68.20996 62.62694,68.0332 L 62.47557,67.76855 54.4043,53.71191 c 0.0068,-0.41699 9.8e-4,-0.82129 0.01953,-1.25195 0.04199,-0.87109 0.10547,-1.75586 0.17969,-2.64746 0.16211,-1.78613 0.38867,-3.59473 0.66406,-5.3916 0.27734,-1.7959 0.60352,-3.58887 0.99023,-5.32324 0.19434,-0.86328 0.40039,-1.71973 0.62793,-2.52148 l 0.16992,-0.59863 0.14941,-0.47168 c 0.05957,-0.24121 0.27539,-0.7793 0.43555,-1.20996 l 0.03223,-0.08691 0.0059,-0.01465 c 1.02734,-2.78223 -0.39551,-5.87012 -3.17773,-6.89746 -2.42676,-0.89648 -5.08496,0.07227 -6.40723,2.17969 l -8.92285,9.65625 c -0.32129,0.34668 -0.56836,0.75488 -0.72656,1.2002 L 34.24707,52.1084 c -0.64941,1.82031 0.30078,3.82227 2.12207,4.47168 0.3877,0.13867 0.78516,0.2041 1.1748,0.2041 1.43848,0 2.78613,-0.89355 3.29688,-2.32617 l 3.58887,-10.06934 c -0.2041,1.48047 -0.3877,2.9668 -0.52344,4.47266 -0.08789,1.02734 -0.16211,2.06348 -0.21094,3.11523 -0.04688,1.05566 -0.06445,2.1377 -0.04688,3.25293 v 9.8e-4 l 0.0098,0.28125 c 0.03613,0.83691 0.29492,1.67578 0.79395,2.42383 l 9.7373,14.59668 6.62598,16.13086 c 0.85254,2.06348 3.18164,3.1416 5.31934,2.4043 2.2207,-0.76563 3.39941,-3.18653 2.63378,-5.40626 z M 52.2832,13.55273 c -3.21094,1.17871 -4.85938,4.73828 -3.67969,7.9502 1.17871,3.21289 4.73926,4.86035 7.94922,3.68164 3.21094,-1.17871 4.85938,-4.73828 3.67969,-7.95117 -1.17871,-3.21192 -4.73926,-4.85938 -7.94922,-3.68067 z M 12.00098,94 H 2 v 16 h 10.00098 z m 21.37793,0 H 23.37793 v 16 h 10.00098 z m 21.37793,0 H 44.75586 v 16 h 10.00098 z m 21.37793,0 H 66.13379 v 16 H 76.13477 Z M 97.5127,94 H 87.51172 v 16 H 97.5127 Z" /></svg>
