<?xml version="1.0" encoding="UTF-8" standalone="no"?>
<svg
   xmlns:dc="http://purl.org/dc/elements/1.1/"
   xmlns:cc="http://creativecommons.org/ns#"
   xmlns:rdf="http://www.w3.org/1999/02/22-rdf-syntax-ns#"
   xmlns:svg="http://www.w3.org/2000/svg"
   xmlns="http://www.w3.org/2000/svg"
   xmlns:sodipodi="http://sodipodi.sourceforge.net/DTD/sodipodi-0.dtd"
   xmlns:inkscape="http://www.inkscape.org/namespaces/inkscape"
   inkscape:version="1.0rc1 (09960d6f05, 2020-04-09)"
   sodipodi:docname="noun_carshare_1660030.svg"
   id="svg16"
   xml:space="preserve"
   enable-background="new 0 0 100 100"
   viewBox="0 0 100 125"
   y="0px"
   x="0px"
   version="1.1"><metadata
     id="metadata22"><rdf:RDF><cc:Work
         rdf:about=""><dc:format>image/svg+xml</dc:format><dc:type
           rdf:resource="http://purl.org/dc/dcmitype/StillImage" /></cc:Work></rdf:RDF></metadata><defs
     id="defs20" /><sodipodi:namedview
     inkscape:current-layer="svg16"
     inkscape:window-maximized="1"
     inkscape:window-y="-8"
     inkscape:window-x="-8"
     inkscape:cy="62.5"
     inkscape:cx="50"
     inkscape:zoom="1.984"
     showgrid="false"
     id="namedview18"
     inkscape:window-height="988"
     inkscape:window-width="1680"
     inkscape:pageshadow="2"
     inkscape:pageopacity="0"
     guidetolerance="10"
     gridtolerance="10"
     objecttolerance="10"
     borderopacity="1"
     bordercolor="#666666"
     pagecolor="#ffffff" /><g
     transform="matrix(1.0672043,0,0,1.105715,-3.3602151,8.7141297)"
     id="g10"><circle
       id="circle2"
       r="6.1440001"
       cy="38.66"
       cx="32.396999" /><path
       inkscape:connector-curvature="0"
       id="path4"
       d="m 50,26.372 c -3.393,0 -6.144,2.751 -6.144,6.144 0,3.393 2.751,6.144 6.144,6.144 3.393,0 6.144,-2.751 6.144,-6.144 0,-3.393 -2.751,-6.144 -6.144,-6.144 z" /><circle
       id="circle6"
       r="6.1440001"
       cy="38.057999"
       cx="67.607002" /><path
       inkscape:connector-curvature="0"
       id="path8"
       d="M 91.635,41.52 H 86.856 C 86.194,39.543 85.463,37.588 84.641,35.67 L 81.14,27.502 c -2.22,-5.18 -6.99,-8.82 -12.572,-9.594 -12.32,-1.709 -24.817,-1.709 -37.137,0 v 0 c -5.582,0.774 -10.352,4.414 -12.572,9.594 l -3.501,8.168 c -0.822,1.918 -1.553,3.873 -2.215,5.85 H 8.365 C 6.507,41.52 5,43.027 5,44.885 c 0,1.273 0.715,2.367 1.757,2.939 v 0 c 0.141,0.077 0.284,0.148 0.436,0.205 l 3.684,1.729 C 9.224,57.185 8.674,67.638 9.25,75.183 l 0.048,0.625 c 0.326,4.27 3.886,7.568 8.168,7.568 h 5.244 c 2.578,0 5.006,-1.214 6.553,-3.277 1.547,-2.063 3.975,-3.277 6.553,-3.277 H 50 64.183 c 2.578,0 5.006,1.214 6.553,3.277 v 0 c 1.547,2.063 3.975,3.277 6.553,3.277 h 5.244 c 4.282,0 7.842,-3.298 8.168,-7.568 l 0.048,-0.625 c 0.576,-7.544 0.026,-17.998 -1.627,-25.425 l 3.684,-1.729 c 0.152,-0.057 0.295,-0.127 0.436,-0.205 v 0 C 94.285,47.252 95,46.158 95,44.885 95,43.027 93.494,41.52 91.635,41.52 Z M 20.259,64.761 c -3.393,0 -6.144,-2.751 -6.144,-6.144 0,-3.393 2.751,-6.144 6.144,-6.144 3.393,0 6.144,2.751 6.144,6.144 0,3.393 -2.751,6.144 -6.144,6.144 z M 68.897,64.226 C 63.85,69.273 57.138,72.054 50,72.054 c -7.139,0 -13.85,-2.78 -18.897,-7.828 -0.713,-0.713 -0.713,-1.868 0,-2.581 0.713,-0.713 1.868,-0.713 2.581,0 4.358,4.358 10.152,6.759 16.316,6.759 6.162,0 11.958,-2.401 16.316,-6.759 0.713,-0.713 1.868,-0.713 2.581,0 0.713,0.713 0.713,1.868 0,2.581 z M 26.655,49.113 22.199,48.788 c -3.304,-0.241 -5.45,-3.562 -4.357,-6.689 0.543,-1.555 1.139,-3.09 1.786,-4.599 l 3.501,-8.169 c 1.579,-3.684 4.971,-6.273 8.941,-6.823 9.862,-1.368 25.999,-1.368 35.861,0 h 0.001 c 3.97,0.551 7.362,3.139 8.941,6.823 l 3.501,8.168 c 0.649,1.514 1.246,3.054 1.791,4.614 1.09,3.123 -1.047,6.44 -4.345,6.689 l -3.347,0.252 c -15.917,1.2 -31.9,1.22 -47.818,0.059 z m 53.086,15.648 c -3.393,0 -6.144,-2.751 -6.144,-6.144 0,-3.393 2.751,-6.144 6.144,-6.144 3.393,0 6.144,2.751 6.144,6.144 0,3.393 -2.751,6.144 -6.144,6.144 z" /></g></svg>
