<?xml version="1.0" encoding="UTF-8" standalone="no"?>
<svg
   xmlns:dc="http://purl.org/dc/elements/1.1/"
   xmlns:cc="http://creativecommons.org/ns#"
   xmlns:rdf="http://www.w3.org/1999/02/22-rdf-syntax-ns#"
   xmlns:svg="http://www.w3.org/2000/svg"
   xmlns="http://www.w3.org/2000/svg"
   xmlns:sodipodi="http://sodipodi.sourceforge.net/DTD/sodipodi-0.dtd"
   xmlns:inkscape="http://www.inkscape.org/namespaces/inkscape"
   inkscape:version="1.0rc1 (09960d6f05, 2020-04-09)"
   sodipodi:docname="noun_skateboarder_1293923.svg"
   id="svg10"
   viewBox="0 0 100 125"
   y="0px"
   x="0px"
   version="1.1">
  <metadata
     id="metadata16">
    <rdf:RDF>
      <cc:Work
         rdf:about="">
        <dc:format>image/svg+xml</dc:format>
        <dc:type
           rdf:resource="http://purl.org/dc/dcmitype/StillImage" />
      </cc:Work>
    </rdf:RDF>
  </metadata>
  <defs
     id="defs14" />
  <sodipodi:namedview
     inkscape:current-layer="svg10"
     inkscape:window-maximized="1"
     inkscape:window-y="-8"
     inkscape:window-x="-8"
     inkscape:cy="62.5"
     inkscape:cx="50"
     inkscape:zoom="1.984"
     showgrid="false"
     id="namedview12"
     inkscape:window-height="988"
     inkscape:window-width="1680"
     inkscape:pageshadow="2"
     inkscape:pageopacity="0"
     guidetolerance="10"
     gridtolerance="10"
     objecttolerance="10"
     borderopacity="1"
     bordercolor="#666666"
     pagecolor="#ffffff" />
  <g
     id="g4"
     transform="matrix(1.1620103,0,0,1.1620103,-7.3624686,-1101.9508)">
    <path
       inkscape:connector-curvature="0"
       id="path2"
       overflow="visible"
       display="inline"
       visibility="visible"
       marker="none"
       stroke="none"
       fill-opacity="1"
       fill="#000000"
       d="m 46,960.36217 c -2.20914,0 -4,1.7909 -4,4 0,2.2091 1.79086,4 4,4 2.20914,0 4,-1.7909 4,-4 0,-2.2091 -1.79086,-4 -4,-4 z m -20,3 c -2,1 -3,3 -1,5 l 13,3 -2,6 h -6 l -8.65625,7.5 5.0625,2 3.59375,-3.5 9,1 7,5 v 5 l 5,2 v -10 l -6,-5 2,-6 15,10 c 2,0 4,-1 3,-4 -12,-9 -22,-15 -39,-18 z m -10.21875,17.9688 c -0.98274,0.108 -1.80249,1.0428 -1.78125,2.0312 0.0781,1.4563 0.98979,2.4637 1.84375,3.4062 1.41906,1.3654 2.53596,2.0904 4.2499,2.7494 -1.20413,0.3901 -2.09375,1.5098 -2.09375,2.8438 0,1.6569 1.34315,3 3,3 1.65685,0 3,-1.3431 3,-3 0,-0.5304 -0.13351,-1.0363 -0.375,-1.4688 l 21.34375,8.25 c -0.5987,0.5485 -0.96875,1.34293 -0.96875,2.21883 0,1.6569 1.34315,3 3,3 1.82177,-0.034 2.98258,-1.3711 2.9688,-3.2812 1.49957,0.5624 3.12916,1.1619 4.4687,1.4685 1.37,0.3044 2.99172,0.3324 4.46875,-0.4063 0.94094,-0.4744 1.36533,-1.7623 0.89078,-2.70323 -0.47454,-0.9409 -1.76244,-1.3651 -2.70328,-0.8905 -1.24336,0.5794 -3.72116,-0.5036 -5.4687,-1.0932 l -30.7187,-11.906 c -1.42458,-0.5975 -2.45353,-1.3529 -2.9375,-2.5 -0.13888,-1.016 -1.16751,-1.8242 -2.1875,-1.7187 z M 9,995.36217 v 49.00003 h 82 v -4 c -29,-9 -46,-21 -63,-45.00003 -6.33333,0 -12.66667,0 -19,0 z"
       style="color:#000000;text-indent:0;text-transform:none;direction:ltr;baseline-shift:baseline;enable-background:accumulate" />
  </g>
</svg>
