<?xml version="1.0" encoding="UTF-8" standalone="no"?>
<svg
   xmlns:dc="http://purl.org/dc/elements/1.1/"
   xmlns:cc="http://creativecommons.org/ns#"
   xmlns:rdf="http://www.w3.org/1999/02/22-rdf-syntax-ns#"
   xmlns:svg="http://www.w3.org/2000/svg"
   xmlns="http://www.w3.org/2000/svg"
   xmlns:sodipodi="http://sodipodi.sourceforge.net/DTD/sodipodi-0.dtd"
   xmlns:inkscape="http://www.inkscape.org/namespaces/inkscape"
   inkscape:version="1.0rc1 (09960d6f05, 2020-04-09)"
   sodipodi:docname="noun_painting_3233241.svg"
   id="svg14"
   xml:space="preserve"
   style="enable-background:new 0 0 1024 1024;"
   viewBox="0 0 1024 1280"
   y="0px"
   x="0px"
   version="1.1"><metadata
     id="metadata20"><rdf:RDF><cc:Work
         rdf:about=""><dc:format>image/svg+xml</dc:format><dc:type
           rdf:resource="http://purl.org/dc/dcmitype/StillImage" /></cc:Work></rdf:RDF></metadata><defs
     id="defs18" /><sodipodi:namedview
     inkscape:current-layer="svg14"
     inkscape:window-maximized="1"
     inkscape:window-y="-8"
     inkscape:window-x="-8"
     inkscape:cy="685.29492"
     inkscape:cx="-608.3668"
     inkscape:zoom="0.19375"
     showgrid="false"
     id="namedview16"
     inkscape:window-height="988"
     inkscape:window-width="1680"
     inkscape:pageshadow="2"
     inkscape:pageopacity="0"
     guidetolerance="10"
     gridtolerance="10"
     objecttolerance="10"
     borderopacity="1"
     bordercolor="#666666"
     pagecolor="#ffffff" /><g
     transform="matrix(1.1475903,0,0,1.1475903,-78.283328,41.971889)"
     id="g8"><path
       inkscape:connector-curvature="0"
       id="path2"
       d="m 856.4,811.3 c -8.4,32.9 -29.3,60.3 -58.1,77.9 -23,14.1 -49.6,21.9 -76.1,25.6 -13.1,1.8 -26.5,3.2 -39.8,2.5 -2.9,-0.1 -5.2,-1.3 -6.8,-3 0,0 0,0 0,-0.1 -3.1,-2.7 -4.5,-7.1 -2,-11.6 0.3,-0.6 0.6,-1.2 1,-1.8 0.5,-0.9 0.9,-1.8 1.3,-2.7 0.1,-0.2 0.2,-0.4 0.3,-0.5 v 0 c 0,-0.1 0.1,-0.1 0.1,-0.2 0.1,-0.3 0.2,-0.5 0.2,-0.5 0,0 -0.1,0.1 -0.1,0.2 0.3,-0.7 0.6,-1.4 0.8,-2.1 0.9,-2.4 1.7,-4.8 2.4,-7.2 4.3,-14.1 6.3,-27.8 7.1,-42.2 0.6,-10.9 0.5,-21.8 -0.1,-32.7 -0.7,-11.3 -1.8,-22.3 -0.7,-33.6 1.8,-18.1 7.3,-35.7 18.4,-50.2 9.8,-12.9 22.7,-22 37.6,-28.2 2.3,-0.9 4.6,-0.6 6.7,0.4 24.3,5.6 48.5,11.2 72.8,16.8 3.9,0.9 7.9,1.7 11.7,2.7 7.6,2 12.4,11.2 15.8,17.8 12,22.5 13.8,48.3 7.5,72.7 z" /><path
       inkscape:connector-curvature="0"
       id="path4"
       d="m 949.7,238.5 c -0.1,0.5 -0.1,0.9 -0.2,1.4 0,0.4 -0.1,0.9 -0.1,1.3 0,0.3 -0.1,0.6 -0.1,0.9 -2.9,21 -6,42 -8.9,63.1 -5.6,39.3 -11.1,78.6 -16.7,117.9 -5.1,36.3 -10.3,72.5 -15.4,108.7 -3.4,24.2 -5.4,49.4 -14.2,72.3 -5.8,15.1 -13.1,29.8 -19.8,44.5 -5.9,13.1 -11.8,26.1 -17.7,39.2 -1.8,4.1 -7.3,5.5 -11.3,4.6 -3.8,-0.9 -7.7,-1.8 -11.5,-2.6 -27.1,-6.2 -54.1,-12.5 -81.2,-18.7 -4.3,-1 -7.3,-5.4 -7.3,-9.6 0,-1.5 0.1,-3 0.1,-4.5 0.6,-20.6 1.2,-41.3 1.7,-61.9 0.6,-20.5 2.1,-40.6 8.4,-60.3 8,-24.9 16,-49.8 24.1,-74.7 14.2,-44 28.3,-88 42.5,-131.9 10.6,-33 21.3,-65.9 31.9,-98.9 4,-12.3 7.9,-24.4 18.1,-33.4 14.3,-12.6 34.2,-16.1 51.6,-7.8 18.5,8.8 28.4,30.4 26,50.4 z" /><path
       inkscape:connector-curvature="0"
       id="path6"
       d="m 622.2,150.9 c -31.4,-22 -69,-36.5 -107.2,-40.4 -40.7,-4.2 -82.4,-1.3 -122.3,7.3 -71.3,15.3 -137.8,50.9 -190.6,101.1 -52.6,50 -91.3,114.6 -110.2,184.8 -19.8,72.8 -18.5,151.5 4.1,223.6 21.6,69.2 62.3,132.3 116.7,180.3 54.8,48.3 122.6,81.7 194.7,94.3 19,3.3 38.3,5.4 57.6,6 19.6,0.6 38.9,-0.9 57.2,-8.4 36.3,-14.8 64.5,-46.4 73.1,-84.9 5,-22.4 4,-46.5 -4,-68.2 -4.5,-12.1 -10.6,-22.7 -18.7,-32.7 -7.4,-9.2 -14.1,-15.4 -19.9,-25.4 -10.3,-18 -13.9,-37.2 -11.7,-58.8 0,-0.1 0.1,-0.6 0.1,-0.9 v -0.1 c 0,0 0,-0.1 0,-0.1 0,0 0,-0.1 0,-0.1 0,0 0,0 0,0 0,0 0,-0.1 0,-0.1 0.2,-1 0.3,-1.9 0.5,-2.8 0.4,-2.2 0.9,-4.4 1.4,-6.5 0.6,-2.4 1.3,-4.7 2.1,-7.1 0.4,-1.2 0.8,-2.3 1.2,-3.5 0.1,-0.4 1.3,-3.2 1.3,-3.2 1.7,-3.9 3.7,-7.8 5.9,-11.5 1.1,-1.9 2.3,-3.7 3.5,-5.5 0.8,-1.2 1.7,-2.4 2.5,-3.5 0.3,-0.3 0.4,-0.6 0.5,-0.7 -0.5,0.5 0.1,-0.2 0.1,-0.2 0,0 0,0.1 -0.1,0.2 0.1,-0.1 0.4,-0.4 0.7,-0.8 3,-3.5 6,-6.8 9.3,-9.9 1.6,-1.5 3.2,-2.9 4.8,-4.3 0.1,-0.1 1.9,-1.5 2.2,-1.8 0,0 0,0 0,0 0.9,-0.7 1.8,-1.3 2.7,-2 9.1,-6.4 19.5,-10.4 29,-16.1 17.1,-10.3 33.2,-22.9 47.2,-37.1 28.7,-29.1 49.8,-65.8 60.3,-105.3 5.2,-19.8 7.8,-40.4 7.9,-60.9 v -0.2 C 723.9,268 685.5,195.3 622.2,150.9 Z M 247.9,587.8 c -31.7,-11.8 -53,-41.5 -53.7,-75.3 0,-0.2 0,-0.5 0,-0.7 v -0.1 c 0,-0.3 0,-0.6 0,-1 0.8,-37.1 27.5,-71.2 64.6,-78.3 33.6,-6.4 68.1,8.3 85.8,37.8 17.8,29.7 13.7,67.4 -8,93.8 -20.7,25.4 -58,35.3 -88.7,23.8 z M 422.7,755.6 C 406,776 375.9,784 351.2,774.8 325.5,765.2 308.3,741.5 307.6,714 c 0,-0.3 0,-0.6 0,-0.9 0,-0.3 0,-0.6 0,-1 0.9,-29.8 22.1,-57.4 51.9,-63 27.3,-5.2 55.2,6.4 69.7,30.4 14.5,24.1 11.1,54.7 -6.5,76.1 z M 537.4,377.4 c -25.8,31.5 -71.7,43.9 -109.9,30 -39.7,-14.5 -66.5,-51.7 -67.2,-94 0,-0.2 0,-0.5 0,-0.7 v -0.2 c 0,-0.3 0,-0.5 0,-0.8 0.8,-46.3 34,-88.5 80,-97.4 41.4,-8.1 84,10 106.2,46.1 22.6,36.8 18,84 -9.1,117 z" /></g></svg>
