<?xml version="1.0" encoding="UTF-8" standalone="no"?>
<svg
   xmlns:dc="http://purl.org/dc/elements/1.1/"
   xmlns:cc="http://creativecommons.org/ns#"
   xmlns:rdf="http://www.w3.org/1999/02/22-rdf-syntax-ns#"
   xmlns:svg="http://www.w3.org/2000/svg"
   xmlns="http://www.w3.org/2000/svg"
   xmlns:sodipodi="http://sodipodi.sourceforge.net/DTD/sodipodi-0.dtd"
   xmlns:inkscape="http://www.inkscape.org/namespaces/inkscape"
   inkscape:version="1.0rc1 (09960d6f05, 2020-04-09)"
   sodipodi:docname="noun_jail_1486903.svg"
   id="svg8"
   xml:space="preserve"
   style="enable-background:new 0 0 52 52;"
   viewBox="0 0 52 65"
   y="0px"
   x="0px"
   version="1.1"><metadata
     id="metadata14"><rdf:RDF><cc:Work
         rdf:about=""><dc:format>image/svg+xml</dc:format><dc:type
           rdf:resource="http://purl.org/dc/dcmitype/StillImage" /></cc:Work></rdf:RDF></metadata><defs
     id="defs12" /><sodipodi:namedview
     inkscape:current-layer="svg8"
     inkscape:window-maximized="1"
     inkscape:window-y="-8"
     inkscape:window-x="-8"
     inkscape:cy="32.5"
     inkscape:cx="26"
     inkscape:zoom="3.8153846"
     showgrid="false"
     id="namedview10"
     inkscape:window-height="988"
     inkscape:window-width="1680"
     inkscape:pageshadow="2"
     inkscape:pageopacity="0"
     guidetolerance="10"
     gridtolerance="10"
     objecttolerance="10"
     borderopacity="1"
     bordercolor="#666666"
     pagecolor="#ffffff" /><path
     style="stroke-width:1.18874"
     inkscape:connector-curvature="0"
     id="path2"
     d="M 49.74788,58.655994 V 5.2346161 c 0,-0.6427034 -0.543667,-1.1637988 -1.214209,-1.1637988 -0.670542,0 -1.214208,0.5210954 -1.214208,1.1637988 V 53.840549 C 44.770099,51.054933 41.152596,49.705312 40.882467,49.60814 38.04126,48.793537 35.770622,47.89739 34.143624,46.943279 33.560828,46.594083 33.087269,46.256536 32.686559,45.89569 c -0.242857,-0.221054 -0.41279,-0.605198 -0.41279,-0.930812 v -3.223745 c 1.712002,-1.489697 2.270565,-3.293642 2.428418,-4.608883 0.03639,-0.2793 0.04854,-0.523652 0.06069,-0.756355 1.432758,-0.616848 2.294798,-1.489697 2.549809,-2.606898 C 37.652705,32.256002 36.729894,30.8595 36.086328,30.103144 38.475097,23.170927 36.833129,19.980709 34.714341,18.4984 V 5.2306382 c 0,-0.6427034 -0.543667,-1.1637988 -1.214209,-1.1637988 -0.670542,0 -1.214209,0.5210954 -1.214209,1.1637988 V 17.487747 c -0.285321,-0.05541 -0.554634,-0.0966 -0.777111,-0.116778 -0.886422,-0.802953 -3.24199,-2.630196 -6.520294,-2.630196 -1.590685,0 -3.181295,0.430742 -4.735443,1.303591 -0.2018,0.115073 -0.378181,0.259695 -0.571088,0.385565 V 5.2306382 c 0,-0.6427034 -0.543666,-1.1637988 -1.214208,-1.1637988 -0.670542,0 -1.214209,0.5210954 -1.214209,1.1637988 V 18.554373 c -1.9264,2.287251 -2.793184,5.273179 -2.355197,8.278428 0.170007,1.128851 0.473559,2.222754 0.98358,3.491397 -0.388556,0.814602 -0.947118,2.397494 -0.412863,3.910205 0.218548,0.640146 0.704261,1.454748 1.797005,2.071596 0.03646,1.373203 0.364247,4.154841 2.392029,5.562992 v 3.165499 c 0,0.337547 -0.133545,0.651796 -0.364248,0.8612 -0.412863,0.360846 -0.886422,0.698393 -1.457065,1.03594 -1.639226,0.95411 -3.90979,1.861907 -6.811693,2.699808 -0.224773,0.07984 -3.8218962,1.418949 -6.367184,4.202576 V 5.2346161 c 0,-0.6427034 -0.5436667,-1.1637988 -1.2142087,-1.1637988 -0.6705419,0 -1.2142086,0.5210954 -1.2142086,1.1637988 V 58.769362 c 0,0.07416 0.030237,0.138655 0.044021,0.208836 0.010227,0.05285 0.01497,0.103992 0.032608,0.154851 0.040019,0.115073 0.1014558,0.215087 0.1746759,0.310839 0.018898,0.02472 0.023641,0.05626 0.044836,0.07984 0.00637,0.0071 0.016378,0.0097 0.0229,0.01648 0.1067917,0.113936 0.2331482,0.206847 0.3789956,0.273334 0.006,0.0028 0.010301,0.008 0.016304,0.01051 0.1532583,0.06706 0.320375,0.109107 0.499868,0.109107 0.00363,0 0.00667,-0.002 0.010301,-0.002 H 48.52337 c 0.0036,0 0.0067,0.002 0.0103,0.002 0.0036,0 0.0067,-0.002 0.0103,-0.002 0.0031,0 0.0062,0 0.0123,0 0.667799,0 1.214208,-0.523653 1.214208,-1.163799 0,-0.04035 -0.01897,-0.07274 -0.0226,-0.111379 z" /></svg>
