<svg height='100px' width='100px'  fill="#000000" version="1.1" xmlns="http://www.w3.org/2000/svg" xmlns:xlink="http://www.w3.org/1999/xlink" x="0px" y="0px" viewBox="2.018 0 95.964 100" enable-background="new 2.018 0 95.964 100" xml:space="preserve"><g><path d="M11.181,19.759c1.766-2.412,3.741-4.673,5.904-6.727c8.878-8.38,21.303-13.428,33.58-13.008
		C63.552,0.466,75.829,5.527,84.81,14.93l-6.175,5.856c-7.959-8.365-19.531-12.914-31.06-12.208
		c-11.24,0.706-21.766,6.205-28.688,15.079l3.565,1.811l-14.201,9.26L7.337,17.825L11.181,19.759z M79.87,48.98
		c0,16.638-13.569,30.167-30.242,30.167c-16.666,0-30.211-13.529-30.211-30.167c0-2.977,0.449-5.971,1.312-8.87
		c0.154-0.511,0.662-0.831,1.183-0.767c0.353,0.058,0.627,0.273,0.782,0.574c1.736,1.78,4.055,2.751,6.55,2.751
		c2.187,0,4.183-0.72,5.808-2.075c0.385-0.521,1.268-0.565,1.701-0.067c1.644,1.414,3.696,2.142,5.918,2.142
		c2.363,0,4.535-0.853,6.184-2.407c0.309-0.309,0.759-0.397,1.157-0.235c0.19,0.091,0.345,0.235,0.455,0.397
		c1.643,1.448,3.785,2.244,6.05,2.244c2.393,0,4.683-0.918,6.314-2.532c0.31-0.318,0.773-0.406,1.172-0.242
		c0.199,0.087,0.363,0.224,0.474,0.392c1.647,1.543,3.843,2.382,6.174,2.382c2.329,0,4.593-0.897,6.251-2.471
		c0.42-0.379,1.061-0.379,1.466-0.017c0.146,0.132,0.3,0.362,0.367,0.552C79.487,43.429,79.87,46.211,79.87,48.98z M45.706,100
		l-0.274-4.298C25.057,93.75,7.867,78.799,3.251,58.711C1.317,50.357,1.661,41.61,4.254,33.46l8.096,2.58
		c-2.121,6.705-2.421,13.883-0.839,20.767c3.71,16.077,17.19,28.162,33.37,30.275l-0.278-3.995l15.215,7.506L45.706,100z
		 M60.768,94.687l-1.91-8.287c21.212-4.883,34.506-26.108,29.614-47.31c-0.529-2.266-1.25-4.497-2.165-6.614l-3.306,2.249
		l-1.256-16.897l15.282,7.362l-3.578,2.421c1.414,3.053,2.54,6.263,3.305,9.576C102.684,62.942,86.555,88.745,60.768,94.687z"></path></g></svg>