<?xml version="1.0" encoding="UTF-8" standalone="no"?>
<svg
   xmlns:dc="http://purl.org/dc/elements/1.1/"
   xmlns:cc="http://creativecommons.org/ns#"
   xmlns:rdf="http://www.w3.org/1999/02/22-rdf-syntax-ns#"
   xmlns:svg="http://www.w3.org/2000/svg"
   xmlns="http://www.w3.org/2000/svg"
   xmlns:sodipodi="http://sodipodi.sourceforge.net/DTD/sodipodi-0.dtd"
   xmlns:inkscape="http://www.inkscape.org/namespaces/inkscape"
   inkscape:version="1.0rc1 (09960d6f05, 2020-04-09)"
   sodipodi:docname="noun_clinic_2861240.svg"
   id="svg18"
   version="1.1"
   y="0px"
   x="0px"
   viewBox="0 0 48 60">
  <metadata
     id="metadata24">
    <rdf:RDF>
      <cc:Work
         rdf:about="">
        <dc:format>image/svg+xml</dc:format>
        <dc:type
           rdf:resource="http://purl.org/dc/dcmitype/StillImage" />
      </cc:Work>
    </rdf:RDF>
  </metadata>
  <defs
     id="defs22" />
  <sodipodi:namedview
     inkscape:current-layer="svg18"
     inkscape:window-maximized="1"
     inkscape:window-y="-8"
     inkscape:window-x="-8"
     inkscape:cy="30"
     inkscape:cx="24"
     inkscape:zoom="4.1333333"
     showgrid="false"
     id="namedview20"
     inkscape:window-height="988"
     inkscape:window-width="1680"
     inkscape:pageshadow="2"
     inkscape:pageopacity="0"
     guidetolerance="10"
     gridtolerance="10"
     objecttolerance="10"
     borderopacity="1"
     bordercolor="#666666"
     pagecolor="#ffffff" />
  <title
     id="title2">Free Medical icons</title>
  <rect
     style="stroke-width:1.22734"
     id="rect4"
     transform="rotate(-90)"
     height="12.273451"
     width="14.728141"
     y="18.160654"
     x="-55.714397" />
  <path
     style="stroke-width:1.22734"
     inkscape:connector-curvature="0"
     id="path6"
     d="M 43.934901,59.396434 H 4.6598578 A 3.6820352,3.6820352 0 0 1 0.97782256,55.714398 V 16.439356 A 3.6820352,3.6820352 0 0 1 4.6598578,12.757321 h 8.5914152 v 4.90938 H 5.8872029 V 54.487054 H 42.707556 V 17.666701 h -7.364072 v -4.90938 h 8.591417 a 3.6820352,3.6820352 0 0 1 3.682035,3.682035 v 39.275042 a 3.6820352,3.6820352 0 0 1 -3.682035,3.682036 z" />
  <rect
     style="stroke-width:1.22734"
     id="rect8"
     transform="rotate(-90)"
     height="12.273451"
     width="4.9093804"
     y="18.160654"
     x="-16.439356" />
  <rect
     style="stroke-width:1.22734"
     id="rect10"
     transform="scale(-1)"
     height="12.273451"
     width="4.9093804"
     y="-20.121393"
     x="-26.752069" />
  <path
     style="stroke-width:1.22734"
     inkscape:connector-curvature="0"
     id="path12"
     d="M 34.116139,27.485461 H 14.478619 A 3.6820352,3.6820352 0 0 1 10.796583,23.803427 V 4.1659062 a 3.6820352,3.6820352 0 0 1 3.682036,-3.68203524 h 19.63752 A 3.6820352,3.6820352 0 0 1 37.798175,4.1659062 V 23.803427 a 3.6820352,3.6820352 0 0 1 -3.682036,3.682034 z M 15.705963,22.576081 H 32.888794 V 5.3932513 H 15.705963 Z" />
</svg>
