<?xml version="1.0" encoding="UTF-8" standalone="no"?>
<svg
   xmlns:dc="http://purl.org/dc/elements/1.1/"
   xmlns:cc="http://creativecommons.org/ns#"
   xmlns:rdf="http://www.w3.org/1999/02/22-rdf-syntax-ns#"
   xmlns:svg="http://www.w3.org/2000/svg"
   xmlns="http://www.w3.org/2000/svg"
   xmlns:sodipodi="http://sodipodi.sourceforge.net/DTD/sodipodi-0.dtd"
   xmlns:inkscape="http://www.inkscape.org/namespaces/inkscape"
   inkscape:version="1.0rc1 (09960d6f05, 2020-04-09)"
   sodipodi:docname="noun_delivery_489114.svg"
   id="svg14"
   xml:space="preserve"
   enable-background="new 0 0 100 100"
   viewBox="0 0 100 125"
   y="0px"
   x="0px"
   version="1.1"><metadata
     id="metadata20"><rdf:RDF><cc:Work
         rdf:about=""><dc:format>image/svg+xml</dc:format><dc:type
           rdf:resource="http://purl.org/dc/dcmitype/StillImage" /></cc:Work></rdf:RDF></metadata><defs
     id="defs18" /><sodipodi:namedview
     inkscape:current-layer="svg14"
     inkscape:window-maximized="1"
     inkscape:window-y="-8"
     inkscape:window-x="-8"
     inkscape:cy="62.5"
     inkscape:cx="50"
     inkscape:zoom="1.984"
     showgrid="false"
     id="namedview16"
     inkscape:window-height="988"
     inkscape:window-width="1680"
     inkscape:pageshadow="2"
     inkscape:pageopacity="0"
     guidetolerance="10"
     gridtolerance="10"
     objecttolerance="10"
     borderopacity="1"
     bordercolor="#666666"
     pagecolor="#ffffff" /><g
     transform="matrix(1.0896059,0,0,1.1263564,-4.4802874,5.6822109)"
     id="g8"><path
       inkscape:connector-curvature="0"
       id="path2"
       d="m 81.091,28.381 c 3.31,0 6.002,-2.693 6.002,-6.003 0,-0.434 -0.049,-0.855 -0.137,-1.263 h 3.622 c 0.628,0 1.14,-0.511 1.14,-1.139 0,-0.628 -0.512,-1.14 -1.14,-1.14 H 87.497 V 18.7 c 0,-2.537 -2.064,-4.601 -4.602,-4.601 h -3.207 c -2.538,0 -4.602,2.064 -4.602,4.601 v 2.415 h 0.136 c -0.087,0.408 -0.136,0.83 -0.136,1.263 0.001,3.31 2.694,6.003 6.005,6.003 z" /><path
       inkscape:connector-curvature="0"
       id="path4"
       d="M 94.978,48.368 C 94.874,47.473 94.43,46.672 93.712,46.102 l -5.479,-3.789 -3.226,-7.432 c -1.26,-2.061 -3.583,-3.516 -4.734,-3.762 -0.418,-0.168 -0.814,-0.298 -1.21,-0.398 -0.525,-0.137 -1.065,-0.206 -1.604,-0.206 -0.942,0 -1.838,0.225 -2.653,0.601 -0.037,0.014 -0.076,0.02 -0.113,0.036 l -10.435,4.446 c -0.401,0.171 -0.755,0.419 -1.051,0.738 l -7.521,8.089 c -0.563,0.604 -0.855,1.39 -0.825,2.214 0.02,0.537 0.188,1.042 0.461,1.488 L 46.27,73.734 c -0.026,0 -0.051,-0.004 -0.077,-0.004 -0.596,0 -1.171,0.09 -1.716,0.25 V 55.599 c 0,-0.782 -0.637,-1.42 -1.419,-1.42 h -33.8 c -0.783,0 -1.42,0.638 -1.42,1.42 v 19.797 c 0,0.783 0.637,1.419 1.42,1.419 h 2.046 c -0.188,0.329 -0.343,0.678 -0.467,1.041 H 6.952 C 5.875,77.855 5,78.731 5,79.808 c 0,1.077 0.875,1.951 1.952,1.951 h 3.885 c 0.815,2.395 3.082,4.125 5.75,4.125 2.667,0 4.934,-1.73 5.749,-4.125 h 18.108 c 0.816,2.395 3.083,4.125 5.75,4.125 3.351,0 6.077,-2.726 6.077,-6.076 0,-1.934 -0.911,-3.655 -2.321,-4.77 l 9.06,-25.627 c 0.45,-0.166 0.866,-0.424 1.198,-0.781 l 7.075,-7.609 2.748,-1.171 -3.728,13.521 c -0.236,0.913 -0.264,1.853 -0.089,2.746 v 12.197 l -5.55,12.44 c -0.396,0.892 -0.424,1.884 -0.074,2.796 0.349,0.912 1.032,1.633 1.923,2.029 0.472,0.212 0.973,0.318 1.487,0.318 1.442,0 2.754,-0.851 3.34,-2.167 l 5.866,-13.151 c 0.21,-0.473 0.316,-0.973 0.316,-1.488 v -7.826 c 0.224,-0.038 0.45,-0.09 0.68,-0.154 l 4.415,6.682 1.426,14.801 c 0.193,2.001 1.951,3.491 3.988,3.288 0.973,-0.095 1.85,-0.561 2.47,-1.313 0.621,-0.754 0.911,-1.703 0.817,-2.676 L 85.805,66.188 C 85.747,65.596 85.544,65.02 85.216,64.523 l -6.172,-9.342 2.896,-10.51 0.464,1.135 c 0.218,0.496 0.56,0.938 0.999,1.287 l 6.128,4.297 c 0.593,0.472 1.337,0.732 2.094,0.732 1.037,0 1.999,-0.465 2.642,-1.275 0.561,-0.704 0.812,-1.585 0.711,-2.479 z M 46.193,81.981 c -1.198,0 -2.173,-0.976 -2.173,-2.174 0,-1.198 0.975,-2.173 2.173,-2.173 1.199,0 2.174,0.975 2.174,2.173 0,1.198 -0.975,2.174 -2.174,2.174 z M 40.91,76.814 c -0.187,0.329 -0.344,0.678 -0.467,1.041 H 22.335 c -0.124,-0.363 -0.28,-0.712 -0.467,-1.041 z m -24.324,0.821 c 1.198,0 2.173,0.975 2.173,2.173 0,1.198 -0.975,2.174 -2.173,2.174 -1.199,0 -2.173,-0.976 -2.173,-2.174 0,-1.198 0.974,-2.173 2.173,-2.173 z" /><path
       inkscape:connector-curvature="0"
       id="path6"
       d="m 27.328,53.163 h 15.73 c 0.782,0 1.419,-0.637 1.419,-1.42 v -9.201 c 0,-0.783 -0.637,-1.419 -1.419,-1.419 h -15.73 c -0.783,0 -1.419,0.637 -1.419,1.419 v 9.201 c 0,0.783 0.636,1.42 1.419,1.42 z" /></g></svg>
