<?xml version="1.0" encoding="UTF-8" standalone="no"?>
<svg
   xmlns:dc="http://purl.org/dc/elements/1.1/"
   xmlns:cc="http://creativecommons.org/ns#"
   xmlns:rdf="http://www.w3.org/1999/02/22-rdf-syntax-ns#"
   xmlns:svg="http://www.w3.org/2000/svg"
   xmlns="http://www.w3.org/2000/svg"
   xmlns:sodipodi="http://sodipodi.sourceforge.net/DTD/sodipodi-0.dtd"
   xmlns:inkscape="http://www.inkscape.org/namespaces/inkscape"
   inkscape:version="1.0rc1 (09960d6f05, 2020-04-09)"
   sodipodi:docname="noun_Car Radar_709497.svg"
   id="svg18"
   xml:space="preserve"
   enable-background="new -81.5 -14.5 181.5 127.5"
   viewBox="-81.5 -14.5 181.5 159.375"
   y="0px"
   x="0px"
   version="1.1"><metadata
     id="metadata24"><rdf:RDF><cc:Work
         rdf:about=""><dc:format>image/svg+xml</dc:format><dc:type
           rdf:resource="http://purl.org/dc/dcmitype/StillImage" /></cc:Work></rdf:RDF></metadata><defs
     id="defs22" /><sodipodi:namedview
     inkscape:current-layer="svg18"
     inkscape:window-maximized="1"
     inkscape:window-y="-8"
     inkscape:window-x="-8"
     inkscape:cy="79.6875"
     inkscape:cx="90.75"
     inkscape:zoom="1.3002755"
     showgrid="false"
     id="namedview20"
     inkscape:window-height="988"
     inkscape:window-width="1680"
     inkscape:pageshadow="2"
     inkscape:pageopacity="0"
     guidetolerance="10"
     gridtolerance="10"
     objecttolerance="10"
     borderopacity="1"
     bordercolor="#666666"
     pagecolor="#ffffff" /><path
     inkscape:connector-curvature="0"
     id="path2"
     d="m -35.544,52.82 c -1.406,-4.218 -3.584,-7.933 -6.527,-11.146 -1.876,-2.007 -3.715,-3.08 -5.523,-3.213 -1.807,-0.135 -3.282,0.267 -4.418,1.206 -1.139,0.934 -1.877,2.107 -2.209,3.513 -0.335,1.406 -0.034,2.642 0.904,3.716 2.541,2.677 4.418,5.624 5.622,8.836 1.205,3.213 1.809,6.458 1.809,9.741 0,3.278 -0.604,6.492 -1.809,9.64 -1.204,3.144 -3.081,5.989 -5.622,8.535 -1.074,1.069 -1.441,2.34 -1.104,3.814 0.332,1.473 1.104,2.643 2.308,3.517 1.206,0.867 2.712,1.234 4.519,1.104 1.808,-0.135 3.646,-1.275 5.523,-3.414 2.943,-2.812 5.121,-6.261 6.527,-10.342 1.406,-4.086 2.109,-8.303 2.109,-12.653 0,-4.35 -0.703,-8.635 -2.109,-12.854 z" /><path
     inkscape:connector-curvature="0"
     id="path4"
     d="m -67.776,55.53 c -2.812,10e-4 -5.157,0.971 -7.029,2.913 -1.877,1.939 -2.812,4.316 -2.812,7.128 0,2.678 0.935,4.988 2.812,6.93 1.872,1.939 4.216,2.912 7.029,2.912 2.943,0 5.387,-0.973 7.33,-2.912 1.939,-1.941 2.912,-4.252 2.912,-6.929 0,-2.812 -0.973,-5.189 -2.912,-7.129 -1.943,-1.942 -4.387,-2.913 -7.33,-2.913 z" /><path
     inkscape:connector-curvature="0"
     id="path6"
     d="m -6.123,65.373 c 0,-6.697 -1.275,-13.324 -3.816,-19.883 -2.544,-6.562 -6.36,-12.787 -11.447,-18.677 -2.409,-2.812 -4.688,-4.318 -6.828,-4.519 -2.144,-0.201 -3.785,0.366 -4.92,1.707 -1.139,1.338 -1.607,3.113 -1.405,5.322 0.2,2.209 1.371,4.383 3.513,6.526 3.881,4.148 6.793,8.802 8.737,13.958 1.938,5.152 2.912,10.41 2.912,15.765 0,5.353 -0.974,10.608 -2.912,15.766 -1.944,5.151 -4.856,9.805 -8.737,13.956 -2.143,2.274 -3.314,4.52 -3.514,6.729 -0.202,2.209 0.267,3.915 1.405,5.121 1.136,1.205 2.743,1.773 4.82,1.706 2.074,-0.068 4.317,-1.305 6.728,-3.716 5.222,-6.293 9.103,-12.82 11.647,-19.58 2.542,-6.761 3.817,-13.49 3.817,-20.181 z" /><path
     inkscape:connector-curvature="0"
     id="path8"
     d="M 6.494,94.743 C 4.571,93.652 2.872,92.321 1.413,90.814 c -2.892,6.543 -6.872,12.591 -11.954,18.137 -2.812,2.541 -4.319,5.052 -4.519,7.532 -0.2,2.474 0.301,4.383 1.506,5.723 1.205,1.337 2.912,1.907 5.121,1.706 2.208,-0.199 4.384,-1.706 6.526,-4.517 3.557,-3.623 6.674,-7.501 9.371,-11.623 -0.622,-1.235 -0.971,-2.645 -0.971,-4.192 v -8.837 z" /><path
     inkscape:connector-curvature="0"
     id="path10"
     d="m 2.914,40.168 c 1.422,3.787 2.485,7.597 3.205,11.43 1.048,-0.623 2.152,-1.179 3.319,-1.644 l 2.331,-12.916 0.022,-0.126 0.033,-0.125 C 12.315,34.971 12.94,33.272 13.665,31.672 10.009,22.828 4.832,14.84 -1.906,7.735 c -1.74,-1.742 -3.482,-2.579 -5.22,-2.51 -1.742,0.065 -3.148,0.703 -4.218,1.908 -1.074,1.206 -1.608,2.843 -1.608,4.919 0,2.075 0.803,4.25 2.411,6.528 6.023,6.558 10.508,13.757 13.455,21.588 z" /><path
     inkscape:connector-curvature="0"
     id="path12"
     d="M 83.243,51.918 80.75,38.006 C 78.664,26.246 70.578,19.5 58.568,19.5 H 36.804 c -10.203,0 -18.14,6.073 -21.55,16.335 -0.189,0.569 -0.372,1.143 -0.533,1.736 l -2.639,14.627 c -1.97,0.616 -3.8,1.505 -5.438,2.615 -4.837,3.28 -7.979,8.501 -7.979,14.382 v 7.721 c 0,4.061 1.504,7.801 4.021,10.811 1.805,2.158 4.127,3.943 6.807,5.189 v 10.664 c 0,0.284 0.021,0.557 0.052,0.823 0.417,3.513 3.5,5.478 7.247,5.478 4.031,0 7.298,-2.271 7.298,-6.301 v -8.676 h 47.151 v 8.676 c 0,4.029 3.268,6.301 7.297,6.301 4.033,0 7.301,-2.271 7.301,-6.301 V 93.334 c 6.938,-2.807 11.79,-9.102 11.79,-16.418 V 69.195 C 97.631,61 91.539,54.081 83.243,51.918 Z M 24.479,39.997 C 25.602,36.002 28.673,29.551 36.804,29.551 H 58.57 c 7.24,0 11.029,3.148 12.283,10.22 l 2.051,11.436 H 22.47 Z m -4.454,41.517 c -0.584,0 -1.153,-0.061 -1.703,-0.174 -3.811,-0.787 -6.674,-4.161 -6.674,-8.203 0,-4.627 3.75,-8.377 8.377,-8.377 0.049,0 0.096,0.006 0.145,0.008 4.557,0.078 8.23,3.791 8.23,8.369 0,4.625 -3.75,8.377 -8.375,8.377 z m 54.8,0 c -4.625,0 -8.375,-3.752 -8.375,-8.377 0,-4.627 3.75,-8.377 8.375,-8.377 4.627,0 8.377,3.75 8.377,8.377 0,4.625 -3.75,8.377 -8.377,8.377 z" /></svg>
