<?xml version="1.0" encoding="UTF-8" standalone="no"?>
<svg
   xmlns:dc="http://purl.org/dc/elements/1.1/"
   xmlns:cc="http://creativecommons.org/ns#"
   xmlns:rdf="http://www.w3.org/1999/02/22-rdf-syntax-ns#"
   xmlns:svg="http://www.w3.org/2000/svg"
   xmlns="http://www.w3.org/2000/svg"
   xmlns:sodipodi="http://sodipodi.sourceforge.net/DTD/sodipodi-0.dtd"
   xmlns:inkscape="http://www.inkscape.org/namespaces/inkscape"
   inkscape:version="1.0rc1 (09960d6f05, 2020-04-09)"
   sodipodi:docname="noun_Recycle_2741139.svg"
   id="svg14"
   clip-rule="evenodd"
   fill-rule="evenodd"
   y="0px"
   x="0px"
   viewBox="0 0 333 416.25"
   style="shape-rendering:geometricPrecision;text-rendering:geometricPrecision;image-rendering:optimizeQuality;"
   version="1.1"
   xml:space="preserve"><metadata
     id="metadata18"><rdf:RDF><cc:Work
         rdf:about=""><dc:format>image/svg+xml</dc:format><dc:type
           rdf:resource="http://purl.org/dc/dcmitype/StillImage" /></cc:Work></rdf:RDF></metadata><sodipodi:namedview
     inkscape:current-layer="svg14"
     inkscape:window-maximized="1"
     inkscape:window-y="-8"
     inkscape:window-x="-8"
     inkscape:cy="236.67352"
     inkscape:cx="187.77358"
     inkscape:zoom="0.5957958"
     showgrid="false"
     id="namedview16"
     inkscape:window-height="988"
     inkscape:window-width="1680"
     inkscape:pageshadow="2"
     inkscape:pageopacity="0"
     guidetolerance="10"
     gridtolerance="10"
     objecttolerance="10"
     borderopacity="1"
     bordercolor="#666666"
     pagecolor="#ffffff" /><defs
     id="defs4"><style
       id="style2"
       type="text/css">
   
    .fil0 {fill:black}
   
  </style></defs><g
     transform="matrix(1.1081021,0,0,1.1081021,-17.159787,27.94606)"
     id="g8"><path
       inkscape:connector-curvature="0"
       id="path6"
       d="M 138,39 H 84 C 60,39 41,58 41,82 h 97 v 19 L 184,60 138,19 Z m 157,99 V 84 C 295,60 275,41 252,41 v 97 h -20 l 41,46 41,-46 z M 195,295 h 55 c 23,0 43,-20 43,-43 h -98 v -20 l -45,41 45,41 z M 39,195 v 55 c 0,23 19,43 43,43 v -98 h 19 L 60,150 19,195 Z"
       class="fil0" /></g></svg>
