<?xml version="1.0" encoding="UTF-8" standalone="no"?>
<svg
   xmlns:dc="http://purl.org/dc/elements/1.1/"
   xmlns:cc="http://creativecommons.org/ns#"
   xmlns:rdf="http://www.w3.org/1999/02/22-rdf-syntax-ns#"
   xmlns:svg="http://www.w3.org/2000/svg"
   xmlns="http://www.w3.org/2000/svg"
   xmlns:sodipodi="http://sodipodi.sourceforge.net/DTD/sodipodi-0.dtd"
   xmlns:inkscape="http://www.inkscape.org/namespaces/inkscape"
   inkscape:version="1.0rc1 (09960d6f05, 2020-04-09)"
   sodipodi:docname="noun_bust_1781683.svg"
   id="svg12"
   xml:space="preserve"
   enable-background="new 0 0 100 100"
   viewBox="0 0 100 125"
   y="0px"
   x="0px"
   version="1.1"><metadata
     id="metadata18"><rdf:RDF><cc:Work
         rdf:about=""><dc:format>image/svg+xml</dc:format><dc:type
           rdf:resource="http://purl.org/dc/dcmitype/StillImage" /></cc:Work></rdf:RDF></metadata><defs
     id="defs16" /><sodipodi:namedview
     inkscape:current-layer="svg12"
     inkscape:window-maximized="1"
     inkscape:window-y="-8"
     inkscape:window-x="-8"
     inkscape:cy="62.5"
     inkscape:cx="50"
     inkscape:zoom="1.984"
     showgrid="false"
     id="namedview14"
     inkscape:window-height="988"
     inkscape:window-width="1680"
     inkscape:pageshadow="2"
     inkscape:pageopacity="0"
     guidetolerance="10"
     gridtolerance="10"
     objecttolerance="10"
     borderopacity="1"
     bordercolor="#666666"
     pagecolor="#ffffff" /><polygon
     transform="matrix(1.2734987,0,0,1.2734987,-13.364896,-0.84289712)"
     id="polygon2"
     points="77.071,98.913 77.071,80.974 70.252,80.974 70.252,72.693 28.487,72.693 28.487,80.974 21.669,80.974 21.669,98.913 " /><path
     style="stroke-width:1.2735"
     inkscape:connector-curvature="0"
     id="path4"
     d="m 49.496272,0.73496774 c -10.078468,0 -18.272159,8.19878446 -18.272159,18.28107326 0,10.081016 8.193691,18.302723 18.272159,18.302723 10.072101,0 18.296356,-8.214066 18.296356,-18.302723 C 67.797722,8.9337522 59.569647,0.73496774 49.496272,0.73496774 Z" /><path
     style="stroke-width:1.2735"
     inkscape:connector-curvature="0"
     id="path6"
     d="M 55.774621,39.454422 49.507734,60.171698 43.24212,39.454422 C 20.222358,41.769642 12.899741,56.40851 12.899741,56.40851 L 33.58518,86.303891 65.434108,86.302618 86.117,56.407236 c -0.0013,0.0013 -7.322617,-14.637594 -30.342379,-16.952814 z" /></svg>
