<?xml version="1.0" encoding="UTF-8" standalone="no"?>
<svg
   xmlns:dc="http://purl.org/dc/elements/1.1/"
   xmlns:cc="http://creativecommons.org/ns#"
   xmlns:rdf="http://www.w3.org/1999/02/22-rdf-syntax-ns#"
   xmlns:svg="http://www.w3.org/2000/svg"
   xmlns="http://www.w3.org/2000/svg"
   xmlns:sodipodi="http://sodipodi.sourceforge.net/DTD/sodipodi-0.dtd"
   xmlns:inkscape="http://www.inkscape.org/namespaces/inkscape"
   viewBox="0 0 24 30"
   x="0px"
   y="0px"
   version="1.1"
   id="svg12"
   sodipodi:docname="noun_Health_2186679.svg"
   inkscape:version="0.92.3 (2405546, 2018-03-11)">
  <metadata
     id="metadata18">
    <rdf:RDF>
      <cc:Work
         rdf:about="">
        <dc:format>image/svg+xml</dc:format>
        <dc:type
           rdf:resource="http://purl.org/dc/dcmitype/StillImage" />
      </cc:Work>
    </rdf:RDF>
  </metadata>
  <defs
     id="defs16" />
  <sodipodi:namedview
     pagecolor="#ffffff"
     bordercolor="#666666"
     borderopacity="1"
     objecttolerance="10"
     gridtolerance="10"
     guidetolerance="10"
     inkscape:pageopacity="0"
     inkscape:pageshadow="2"
     inkscape:window-width="640"
     inkscape:window-height="480"
     id="namedview14"
     showgrid="false"
     inkscape:zoom="7.8666667"
     inkscape:cx="12"
     inkscape:cy="15"
     inkscape:window-x="416"
     inkscape:window-y="306"
     inkscape:window-maximized="0"
     inkscape:current-layer="svg12" />
  <title
     id="title2">health, doctor, medical, life, care</title>
  <g
     data-name="16"
     id="g6"
     transform="matrix(1.1271184,0,0,1.1271186,-1.5254233,1.2372881)">
    <path
       d="m 22,7 a 2,2 0 1 0 -3,1.72 v 5.78 a 5.5,5.5 0 0 1 -11,0 V 10.9 A 5,5 0 0 0 12,6 V 3 A 1,1 0 0 0 11,2 h -1 a 1,1 0 0 0 0,2 V 6 A 3,3 0 0 1 4,6 V 4 A 1,1 0 0 0 4,2 H 3 A 1,1 0 0 0 2,3 v 3 a 5,5 0 0 0 4,4.9 v 3.6 a 7.5,7.5 0 0 0 15,0 V 8.72 A 2,2 0 0 0 22,7 Z"
       id="path4"
       inkscape:connector-curvature="0" />
  </g>
  <text
     x="0"
     y="39"
     fill="#000000"
     font-size="5px"
     font-weight="bold"
     font-family="'Helvetica Neue', Helvetica, Arial-Unicode, Arial, Sans-serif"
     id="text8">Created by Kantor Tegalsari</text>
  <text
     x="0"
     y="44"
     fill="#000000"
     font-size="5px"
     font-weight="bold"
     font-family="'Helvetica Neue', Helvetica, Arial-Unicode, Arial, Sans-serif"
     id="text10">from the Noun Project</text>
</svg>
