<?xml version="1.0" encoding="UTF-8" standalone="no"?>
<svg
   xmlns:dc="http://purl.org/dc/elements/1.1/"
   xmlns:cc="http://creativecommons.org/ns#"
   xmlns:rdf="http://www.w3.org/1999/02/22-rdf-syntax-ns#"
   xmlns:svg="http://www.w3.org/2000/svg"
   xmlns="http://www.w3.org/2000/svg"
   xmlns:sodipodi="http://sodipodi.sourceforge.net/DTD/sodipodi-0.dtd"
   xmlns:inkscape="http://www.inkscape.org/namespaces/inkscape"
   inkscape:version="1.0rc1 (09960d6f05, 2020-04-09)"
   sodipodi:docname="noun_soccer_1617960.svg"
   id="svg8"
   xml:space="preserve"
   style="enable-background:new 0 0 95 95;"
   viewBox="0 0 95 118.75"
   y="0px"
   x="0px"
   version="1.1"><metadata
     id="metadata14"><rdf:RDF><cc:Work
         rdf:about=""><dc:format>image/svg+xml</dc:format><dc:type
           rdf:resource="http://purl.org/dc/dcmitype/StillImage" /></cc:Work></rdf:RDF></metadata><defs
     id="defs12" /><sodipodi:namedview
     inkscape:current-layer="svg8"
     inkscape:window-maximized="1"
     inkscape:window-y="-8"
     inkscape:window-x="-8"
     inkscape:cy="59.375"
     inkscape:cx="47.5"
     inkscape:zoom="2.0884211"
     showgrid="false"
     id="namedview10"
     inkscape:window-height="988"
     inkscape:window-width="1680"
     inkscape:pageshadow="2"
     inkscape:pageopacity="0"
     guidetolerance="10"
     gridtolerance="10"
     objecttolerance="10"
     borderopacity="1"
     bordercolor="#666666"
     pagecolor="#ffffff" /><path
     style="stroke-width:1.07155"
     inkscape:connector-curvature="0"
     id="path2"
     d="M 47.539415,12 C 21.822229,12 0.92701615,32.895214 0.92701615,58.6124 c 0,25.717185 20.89521285,46.6124 46.61239885,46.6124 25.717185,0 46.612399,-20.895215 46.612399,-46.6124 C 94.151814,32.895214 73.2566,12 47.539415,12 Z M 83.22201,32.145129 82.900545,46.503891 64.255586,52.611722 48.07519,40.824679 V 21.215324 l 12.644283,-5.036281 c 9.001015,2.786029 16.93048,8.46524 22.502537,15.966086 z M 34.359358,16.071888 47.00364,21.10817 V 40.717524 L 30.823244,52.504567 12.178284,46.396736 11.106735,33.109523 C 16.571637,25.180058 24.822568,19.072226 34.359358,16.071888 Z M 3.070115,58.183779 11.749665,47.57544 30.394624,53.683272 36.609611,72.756851 25.036877,88.615783 11.535355,84.865359 C 6.1776083,77.471669 2.9629601,68.470653 2.9629601,58.719555 3.070115,58.505245 3.070115,58.290934 3.070115,58.183779 Z M 33.930737,100.9386 26.001271,89.151557 37.574006,73.292626 h 20.037973 l 11.465579,15.858931 -8.572396,12.001353 c -4.071887,1.28586 -8.46524,1.92879 -12.965747,1.92879 -4.821972,0 -9.32248,-0.75009 -13.608678,-2.1431 z M 83.43632,84.758204 69.934798,88.615783 58.362064,72.649697 64.577051,53.576117 83.22201,47.468285 91.90156,58.076624 c 0,0.107155 0,0.321466 0,0.428621 0.107155,9.858254 -3.107493,18.859269 -8.46524,26.252959 z" /></svg>
