<?xml version="1.0" encoding="UTF-8" standalone="no"?>
<svg
   xmlns:dc="http://purl.org/dc/elements/1.1/"
   xmlns:cc="http://creativecommons.org/ns#"
   xmlns:rdf="http://www.w3.org/1999/02/22-rdf-syntax-ns#"
   xmlns:svg="http://www.w3.org/2000/svg"
   xmlns="http://www.w3.org/2000/svg"
   xmlns:sodipodi="http://sodipodi.sourceforge.net/DTD/sodipodi-0.dtd"
   xmlns:inkscape="http://www.inkscape.org/namespaces/inkscape"
   inkscape:version="1.0rc1 (09960d6f05, 2020-04-09)"
   sodipodi:docname="noun_mural_1303818.svg"
   id="svg26"
   xml:space="preserve"
   style="enable-background:new 0 0 100 100;"
   viewBox="0 0 100 125"
   y="0px"
   x="0px"
   version="1.1"><metadata
     id="metadata32"><rdf:RDF><cc:Work
         rdf:about=""><dc:format>image/svg+xml</dc:format><dc:type
           rdf:resource="http://purl.org/dc/dcmitype/StillImage" /></cc:Work></rdf:RDF></metadata><defs
     id="defs30" /><sodipodi:namedview
     inkscape:current-layer="svg26"
     inkscape:window-maximized="1"
     inkscape:window-y="-8"
     inkscape:window-x="-8"
     inkscape:cy="62.5"
     inkscape:cx="50"
     inkscape:zoom="1.984"
     showgrid="false"
     id="namedview28"
     inkscape:window-height="988"
     inkscape:window-width="1680"
     inkscape:pageshadow="2"
     inkscape:pageopacity="0"
     guidetolerance="10"
     gridtolerance="10"
     objecttolerance="10"
     borderopacity="1"
     bordercolor="#666666"
     pagecolor="#ffffff" /><g
     transform="matrix(1.1735894,0,0,1.1735894,-8.601397,3.2882836)"
     id="g20"><g
       id="g4"><path
         inkscape:connector-curvature="0"
         id="path2"
         d="M 8.9,95.9 V 4.1 L 91.2,23.6 V 78.7 Z M 13.5,10 V 90.2 L 86.4,74.9 V 27.3 Z" /></g><g
       id="g18"><g
         id="g16"><g
           id="g14"><g
             id="g8"><path
               inkscape:connector-curvature="0"
               id="path6"
               d="m 26.3,77 c 16.5,-3.5 33,-6.9 49.6,-10.4 -6,-3.7 -11.3,-8.2 -16.5,-13 -2.5,2.9 -4.8,5.9 -7,9 C 48.6,56.1 45.1,49.5 41.7,42.7 36,53.9 31,65.3 26.3,77 Z" /></g><g
             id="g12"><path
               inkscape:connector-curvature="0"
               id="path10"
               d="m 51.6,42.4 c -0.2,0 -0.4,0 -0.7,0 -1.8,-0.2 -3.5,-1.3 -4.6,-2.9 -1,-1.5 -1.6,-3.3 -1.6,-5.2 0,-2.3 0.9,-4.2 2.4,-5.4 1.2,-1 2.7,-1.3 4.3,-0.9 3.4,0.9 6.1,4.3 6.1,8 0,1.9 -0.7,3.7 -2.1,4.9 -1.1,1 -2.4,1.5 -3.8,1.5 z M 50.1,29.9 c -0.6,0 -1.2,0.2 -1.7,0.6 -1,0.8 -1.6,2.2 -1.6,3.8 0,2.7 1.7,5.7 4.4,6 1,0.1 2,-0.2 2.8,-0.9 0.9,-0.8 1.4,-2 1.4,-3.3 v 0 c 0,-2.7 -2,-5.4 -4.5,-6 -0.3,-0.1 -0.6,-0.2 -0.8,-0.2 z" /></g></g></g></g></g></svg>
