<?xml version="1.0" encoding="UTF-8" standalone="no"?>
<svg
   xmlns:dc="http://purl.org/dc/elements/1.1/"
   xmlns:cc="http://creativecommons.org/ns#"
   xmlns:rdf="http://www.w3.org/1999/02/22-rdf-syntax-ns#"
   xmlns:svg="http://www.w3.org/2000/svg"
   xmlns="http://www.w3.org/2000/svg"
   xmlns:sodipodi="http://sodipodi.sourceforge.net/DTD/sodipodi-0.dtd"
   xmlns:inkscape="http://www.inkscape.org/namespaces/inkscape"
   inkscape:version="1.0rc1 (09960d6f05, 2020-04-09)"
   sodipodi:docname="noun_criminal_1486880.svg"
   id="svg8"
   xml:space="preserve"
   style="enable-background:new 0 0 52 52;"
   viewBox="0 0 52 65"
   y="0px"
   x="0px"
   version="1.1"><metadata
     id="metadata14"><rdf:RDF><cc:Work
         rdf:about=""><dc:format>image/svg+xml</dc:format><dc:type
           rdf:resource="http://purl.org/dc/dcmitype/StillImage" /></cc:Work></rdf:RDF></metadata><defs
     id="defs12" /><sodipodi:namedview
     inkscape:current-layer="svg8"
     inkscape:window-maximized="1"
     inkscape:window-y="-8"
     inkscape:window-x="-8"
     inkscape:cy="32.5"
     inkscape:cx="26"
     inkscape:zoom="3.8153846"
     showgrid="false"
     id="namedview10"
     inkscape:window-height="988"
     inkscape:window-width="1680"
     inkscape:pageshadow="2"
     inkscape:pageopacity="0"
     guidetolerance="10"
     gridtolerance="10"
     objecttolerance="10"
     borderopacity="1"
     bordercolor="#666666"
     pagecolor="#ffffff" /><path
     inkscape:connector-curvature="0"
     id="path2"
     d="M 49,11.48999 H 3 c -0.5499878,0 -1,0.449951 -1,1 v 43.02002 c 0,0.550048 0.4500122,1 1,1 h 46 c 0.550049,0 1,-0.449952 1,-1 V 12.48999 c 0,-0.550049 -0.449951,-1 -1,-1 z M 13.50354,47.687256 c -0.411011,0.913574 -0.633545,1.874267 -0.633545,2.862793 V 54.51001 H 4 V 13.48999 h 9.50354 z m 23,-2.60083 C 34.888245,43.69043 32.698669,42.850098 30.340027,42.850098 h -8.690003 c -2.348266,0 -4.532653,0.833007 -6.146484,2.222168 V 13.48999 h 9.5 v 11.860108 c 0,0.02979 0.01434,0.05469 0.01691,0.08374 -2.990906,0.468994 -5.270447,3.040527 -5.270447,6.16626 0,3.449951 2.790039,8.25 6.25,8.25 3.450012,0 6.25,-4.800049 6.25,-8.25 0,-3.122559 -2.282898,-5.691895 -5.263611,-6.165039 0.0026,-0.0293 0.01715,-0.05469 0.01715,-0.08496 V 13.48999 h 9.5 V 45.086426 Z M 48,54.51001 h -8.880005 v -3.959961 c 0,-0.982178 -0.212158,-1.928467 -0.616455,-2.835449 V 13.48999 H 48 Z" /></svg>
