<?xml version="1.0" encoding="UTF-8" standalone="no"?>
<svg
   xmlns:dc="http://purl.org/dc/elements/1.1/"
   xmlns:cc="http://creativecommons.org/ns#"
   xmlns:rdf="http://www.w3.org/1999/02/22-rdf-syntax-ns#"
   xmlns:svg="http://www.w3.org/2000/svg"
   xmlns="http://www.w3.org/2000/svg"
   xmlns:sodipodi="http://sodipodi.sourceforge.net/DTD/sodipodi-0.dtd"
   xmlns:inkscape="http://www.inkscape.org/namespaces/inkscape"
   inkscape:version="1.0rc1 (09960d6f05, 2020-04-09)"
   sodipodi:docname="noun_Security_1207174.svg"
   id="svg14"
   version="1.1"
   y="0px"
   x="0px"
   viewBox="0 0 100 125"
   data-name="Layer 1">
  <metadata
     id="metadata20">
    <rdf:RDF>
      <cc:Work
         rdf:about="">
        <dc:format>image/svg+xml</dc:format>
        <dc:type
           rdf:resource="http://purl.org/dc/dcmitype/StillImage" />
      </cc:Work>
    </rdf:RDF>
  </metadata>
  <defs
     id="defs18" />
  <sodipodi:namedview
     inkscape:current-layer="svg14"
     inkscape:window-maximized="1"
     inkscape:window-y="-8"
     inkscape:window-x="-8"
     inkscape:cy="62.5"
     inkscape:cx="50"
     inkscape:zoom="1.984"
     showgrid="false"
     id="namedview16"
     inkscape:window-height="988"
     inkscape:window-width="1680"
     inkscape:pageshadow="2"
     inkscape:pageopacity="0"
     guidetolerance="10"
     gridtolerance="10"
     objecttolerance="10"
     borderopacity="1"
     bordercolor="#666666"
     pagecolor="#ffffff" />
  <title
     id="title2">Security badge</title>
  <path
     style="stroke-width:1.16241"
     inkscape:connector-curvature="0"
     id="path4"
     d="m 70.488323,77.805708 a 11.497169,11.080587 0 0 1 -0.177608,1.905724 4.913826,4.7357811 0 0 1 -2.770688,2.898527 20.128926,19.399585 0 0 1 -6.370213,1.837254 76.584643,73.809716 0 0 1 -11.059068,0.730338 80.172328,77.267407 0 0 1 -10.656491,-0.639045 20.614388,19.867458 0 0 1 -6.879356,-1.905724 9.4724357,9.1292166 0 0 1 -1.906328,-1.335148 3.4811201,3.3549871 0 0 1 -1.184054,-2.62465 12.326007,11.879393 0 0 1 0.189448,-2.442065 7.1043268,6.8469124 0 0 1 2.569399,-3.423457 26.653066,25.687333 0 0 1 6.251807,-3.765801 c 1.397184,-0.639046 2.841731,-1.141153 4.274437,-1.745963 a 3.173266,3.0582876 0 0 0 1.184054,-4.884131 19.193523,18.498075 0 0 1 -4.937507,-13.111837 11.224836,10.818122 0 0 1 3.019339,-7.34902 10.265752,9.8937885 0 0 1 6.109721,-2.955584 11.52085,11.10341 0 0 1 7.222732,1.141153 10.159187,9.7910848 0 0 1 5.292724,6.949616 16.328111,15.736487 0 0 1 -0.402579,7.771245 19.951318,19.228412 0 0 1 -4.309958,7.588662 3.9547419,3.8114479 0 0 0 -0.248651,3.994032 2.6759631,2.5790037 0 0 0 1.184054,0.821629 47.895003,46.159601 0 0 1 6.808313,2.864292 19.229045,18.53231 0 0 1 5.257202,3.777213 5.3400856,5.1465958 0 0 1 1.539271,3.90274 z" />
  <path
     style="stroke-width:1.16241"
     inkscape:connector-curvature="0"
     id="path6"
     d="M 97.366359,25.016014 Q 74.253616,15.15646 51.188235,5.2056136 a 2.4865144,2.3964194 0 0 0 -2.249703,0 Q 25.742905,15.213517 2.535437,25.050248 A 1.6103141,1.5519668 0 0 0 1.3513826,26.739153 C 1.4579475,36.895407 1.339542,47.063072 1.4579475,57.230737 a 68.971173,66.472108 0 0 0 0.8406786,9.939434 67.905524,65.445071 0 0 0 12.6457019,28.859736 c 8.406787,10.920823 19.158001,18.726303 32.774628,22.674693 a 7.4595431,7.1892581 0 0 0 4.523088,0 61.772122,59.533904 0 0 0 31.555051,-21.088492 67.964726,65.502129 0 0 0 14.800681,-41.081474 c 0,-4.393436 0,-8.77546 0,-13.168895 0,-5.488942 0,-10.977883 0,-16.466824 a 1.7879222,1.7231396 0 0 0 -1.231417,-1.882901 z m -7.104326,21.522128 c 0,3.640275 0,7.291961 0,10.932237 A 56.420195,54.375896 0 0 1 78.066272,91.568002 51.29324,49.434708 0 0 1 51.863146,109.0961 a 6.1926049,5.9682253 0 0 1 -3.753452,0 A 51.944469,50.062341 0 0 1 20.876441,90.267089 56.384674,54.341662 0 0 1 10.362037,66.302896 57.272715,55.197526 0 0 1 9.7463288,58.040955 c -0.082884,-8.433114 0,-16.87764 0,-25.310753 A 1.3379815,1.2895018 0 0 1 10.705413,31.326585 Q 29.875255,23.11029 49.092459,14.836937 a 2.0602548,1.9856046 0 0 1 1.858965,0 q 19.181683,8.261941 38.410727,16.455413 a 1.4800681,1.4264401 0 0 1 1.018287,1.57479 c -0.04736,4.553197 -0.02368,9.106393 -0.02368,13.671002 z" />
  <path
     style="stroke-width:1.16241"
     inkscape:connector-curvature="0"
     id="path8"
     d="m 63.703691,70.114343 a 47.895003,46.159601 0 0 0 -6.808313,-2.864291 2.6759631,2.5790037 0 0 1 -1.184055,-0.82163 3.9547419,3.8114479 0 0 1 0.248652,-3.994032 19.951318,19.228412 0 0 0 4.309958,-7.588661 16.328111,15.736487 0 0 0 0.390738,-7.759834 10.159187,9.7910848 0 0 0 -5.328245,-7.018086 11.52085,11.10341 0 0 0 -7.222732,-1.141152 10.265752,9.8937885 0 0 0 -6.109722,2.955584 11.224836,10.818122 0 0 0 -3.019338,7.34902 19.193523,18.498075 0 0 0 4.984869,13.157483 3.173266,3.0582876 0 0 1 -1.184055,4.884131 c -1.432706,0.559164 -2.877252,1.141152 -4.274436,1.745962 a 26.653066,25.687333 0 0 0 -6.263648,3.765802 7.1043268,6.8469124 0 0 0 -2.569399,3.423457 12.326007,11.879393 0 0 0 -0.189448,2.442065 3.4811201,3.3549871 0 0 0 1.184054,2.62465 9.4724357,9.1292166 0 0 0 1.906328,1.335148 20.614388,19.867458 0 0 0 6.879356,1.905724 80.172328,77.267407 0 0 0 10.656491,0.639045 76.584643,73.809716 0 0 0 11.059068,-0.730338 20.128926,19.399585 0 0 0 6.370213,-1.837254 4.913826,4.7357811 0 0 0 2.770688,-2.898527 11.497169,11.080587 0 0 0 0.177608,-1.905724 5.3400856,5.1465958 0 0 0 -1.539271,-3.879917 19.229045,18.53231 0 0 0 -5.245361,-3.788625 z" />
</svg>
