<svg height='100px' width='100px'  fill="#000000" xmlns="http://www.w3.org/2000/svg" xmlns:xlink="http://www.w3.org/1999/xlink" version="1.1" x="0px" y="0px" viewBox="0 0 100 100" style="enable-background:new 0 0 100 100;" xml:space="preserve"><style type="text/css">
	.st0{fill:none;stroke:#000000;stroke-width:8;stroke-linecap:round;stroke-linejoin:round;stroke-miterlimit:10;}
	.st1{fill:none;stroke:#000000;stroke-width:4;stroke-linecap:round;stroke-linejoin:round;stroke-miterlimit:10;}
	.st2{fill:#000000;}
</style><path d="M78.7,15H21.3c-3.5,0-6.4,2.9-6.4,6.4v57.4c0,3.5,2.9,6.4,6.4,6.4h57.4c3.5,0,6.4-2.9,6.4-6.4V21.3C85,17.8,82.2,15,78.7,15  z M48.6,72.8c-8.8,0-15.9-7.1-15.9-15.9c0-6.6,4-12.3,9.8-14.7l0.7,3.9c-4,2-6.7,6.1-6.7,10.8c0,6.7,5.4,12.1,12.1,12.1  c5.1,0,9.5-3.2,11.2-7.7l1.2,5c0,0.1,0.1,0.2,0.1,0.3C58.2,70.4,53.7,72.8,48.6,72.8z M71.1,66.4L66,67.6c-0.2,0-0.4,0.1-0.6,0.1  c-1.1,0-2.2-0.8-2.5-1.9l-3-12.2H48.6c-1.2,0-2.3-0.9-2.5-2.1l-3.4-17.7C42,33,41.5,32,41.5,30.8c0-2.6,2.1-4.7,4.7-4.7  c2.6,0,4.7,2.1,4.7,4.7c0,1.9-1.1,3.5-2.8,4.3l1.1,5.5h8.3c1.4,0,2.5,1.1,2.5,2.5c0,1.4-1.1,2.5-2.5,2.5h-7.3l0.5,2.9h11.1  c1.2,0,2.2,0.8,2.5,1.9l2.9,11.6l2.6-0.6c1.4-0.3,2.7,0.5,3.1,1.9C73.3,64.7,72.4,66.1,71.1,66.4z"></path><path d="M78.7,9H21.3C14.5,9,9,14.5,9,21.3v57.4C9,85.5,14.5,91,21.3,91h57.4C85.5,91,91,85.5,91,78.7V21.3C91,14.5,85.5,9,78.7,9z   M87,78.7c0,4.6-3.7,8.4-8.4,8.4H21.3c-4.6,0-8.4-3.7-8.4-8.4V21.3c0-4.6,3.7-8.4,8.4-8.4h57.4c4.6,0,8.4,3.7,8.4,8.4V78.7z"></path></svg>