<?xml version="1.0" encoding="UTF-8" standalone="no"?>
<svg
   xmlns:dc="http://purl.org/dc/elements/1.1/"
   xmlns:cc="http://creativecommons.org/ns#"
   xmlns:rdf="http://www.w3.org/1999/02/22-rdf-syntax-ns#"
   xmlns:svg="http://www.w3.org/2000/svg"
   xmlns="http://www.w3.org/2000/svg"
   xmlns:sodipodi="http://sodipodi.sourceforge.net/DTD/sodipodi-0.dtd"
   xmlns:inkscape="http://www.inkscape.org/namespaces/inkscape"
   inkscape:version="1.0rc1 (09960d6f05, 2020-04-09)"
   sodipodi:docname="noun_Camera_1082335.svg"
   id="svg70"
   xml:space="preserve"
   style="enable-background:new 0 0 61.248 69.827;"
   viewBox="0 0 61.248 87.28375"
   y="0px"
   x="0px"
   version="1.1"><metadata
     id="metadata76"><rdf:RDF><cc:Work
         rdf:about=""><dc:format>image/svg+xml</dc:format><dc:type
           rdf:resource="http://purl.org/dc/dcmitype/StillImage" /></cc:Work></rdf:RDF></metadata><defs
     id="defs74" /><sodipodi:namedview
     inkscape:current-layer="svg70"
     inkscape:window-maximized="1"
     inkscape:window-y="-8"
     inkscape:window-x="-8"
     inkscape:cy="39.285363"
     inkscape:cx="44.827192"
     inkscape:zoom="5.6826154"
     showgrid="false"
     id="namedview72"
     inkscape:window-height="988"
     inkscape:window-width="1680"
     inkscape:pageshadow="2"
     inkscape:pageopacity="0"
     guidetolerance="10"
     gridtolerance="10"
     objecttolerance="10"
     borderopacity="1"
     bordercolor="#666666"
     pagecolor="#ffffff" /><g
     transform="translate(0,10)"
     id="g46"><path
       inkscape:connector-curvature="0"
       id="path44"
       d="m 30.659,69.827 h -0.071 c -0.452,0 -0.897,-0.113 -1.294,-0.33 C 28.246,68.925 3.601,55.262 3.601,36.304 h 5.401 c 0,13.574 16.827,24.792 21.622,27.712 4.792,-2.919 21.621,-14.137 21.621,-27.712 h 5.401 c 0,18.957 -24.645,32.62 -25.694,33.193 -0.396,0.216 -0.841,0.33 -1.293,0.33 z" /></g><g
     transform="translate(0,10)"
     id="g50"><path
       inkscape:connector-curvature="0"
       id="path48"
       d="m 54.964,31.067 c -1.491,0 -2.7,-1.209 -2.7,-2.7 V 15.009 C 50.29,12.739 42.953,5.4 30.606,5.4 18.268,5.4 10.957,12.729 8.985,15.006 v 13.36 c 0,1.491 -1.209,2.7 -2.7,2.7 -1.491,0 -2.7,-1.209 -2.7,-2.7 v -14.32 c 0,-0.578 0.186,-1.141 0.529,-1.606 C 4.488,11.933 13.51,0 30.606,0 c 17.093,0 26.149,11.929 26.526,12.437 0.346,0.465 0.533,1.03 0.533,1.61 v 14.32 c -10e-4,1.491 -1.21,2.7 -2.701,2.7 z" /></g><g
     transform="translate(0,10)"
     id="g54"><path
       inkscape:connector-curvature="0"
       id="path52"
       d="m 30.624,51.668 c -10.707,0 -19.417,-8.711 -19.417,-19.417 0,-10.707 8.711,-19.417 19.417,-19.417 10.707,0 19.417,8.711 19.417,19.417 0,10.706 -8.711,19.417 -19.417,19.417 z m 0,-33.434 c -7.729,0 -14.016,6.288 -14.016,14.016 0,7.729 6.288,14.017 14.016,14.017 7.729,0 14.017,-6.288 14.017,-14.017 C 44.64,24.522 38.352,18.234 30.624,18.234 Z" /></g><g
     transform="translate(0,10)"
     id="g58"><circle
       id="circle56"
       r="2.112"
       cy="13.233"
       cx="44.631001" /></g><g
     transform="translate(0,10)"
     id="g62"><path
       inkscape:connector-curvature="0"
       id="path60"
       d="m 30.624,51.668 c -15.3,0 -29.421,-17.076 -30.015,-17.803 -0.812,-0.994 -0.812,-2.422 0,-3.416 0.594,-0.727 14.714,-17.803 30.015,-17.803 15.301,0 29.422,17.076 30.016,17.803 0.812,0.994 0.812,2.422 0,3.416 -0.595,0.726 -14.716,17.803 -30.016,17.803 z M 6.309,32.157 c 3.796,4.092 14.133,14.11 24.315,14.11 10.21,0 20.528,-10.016 24.317,-14.108 C 51.146,28.068 40.808,18.047 30.624,18.047 20.441,18.046 10.105,28.064 6.309,32.157 Z" /></g><path
     inkscape:connector-curvature="0"
     id="path64"
     d="m 30.433,33.128 c -0.84,0 -1.649,0.123 -2.421,0.335 0.065,0.056 0.125,0.117 0.186,0.177 1.488,0.766 2.507,2.313 2.507,4.101 0,2.548 -2.065,4.613 -4.613,4.613 -1.969,0 -3.646,-1.236 -4.308,-2.973 -0.301,0.903 -0.473,1.865 -0.473,2.869 0,5.038 4.084,9.122 9.122,9.122 5.038,0 9.122,-4.084 9.122,-9.122 0,-5.038 -4.085,-9.122 -9.122,-9.122 z m 6.211,11.997 c -0.689,1.865 -2.236,3.318 -4.139,3.887 -0.079,0.023 -0.159,0.034 -0.237,0.034 -0.356,0 -0.684,-0.231 -0.791,-0.59 -0.131,-0.437 0.118,-0.898 0.555,-1.029 1.408,-0.421 2.553,-1.496 3.062,-2.876 0.158,-0.428 0.635,-0.647 1.061,-0.489 0.428,0.16 0.647,0.635 0.489,1.063 z" /></svg>
