<?xml version="1.0" encoding="UTF-8" standalone="no"?>
<svg
   xmlns:dc="http://purl.org/dc/elements/1.1/"
   xmlns:cc="http://creativecommons.org/ns#"
   xmlns:rdf="http://www.w3.org/1999/02/22-rdf-syntax-ns#"
   xmlns:svg="http://www.w3.org/2000/svg"
   xmlns="http://www.w3.org/2000/svg"
   xmlns:sodipodi="http://sodipodi.sourceforge.net/DTD/sodipodi-0.dtd"
   xmlns:inkscape="http://www.inkscape.org/namespaces/inkscape"
   inkscape:version="1.0rc1 (09960d6f05, 2020-04-09)"
   sodipodi:docname="noun_guidepost_2513996.svg"
   id="svg12"
   xml:space="preserve"
   enable-background="new 0 0 52 52"
   viewBox="0 0 52 65"
   y="0px"
   x="0px"
   version="1.1"><metadata
     id="metadata18"><rdf:RDF><cc:Work
         rdf:about=""><dc:format>image/svg+xml</dc:format><dc:type
           rdf:resource="http://purl.org/dc/dcmitype/StillImage" /></cc:Work></rdf:RDF></metadata><defs
     id="defs16" /><sodipodi:namedview
     inkscape:current-layer="svg12"
     inkscape:window-maximized="1"
     inkscape:window-y="-8"
     inkscape:window-x="-8"
     inkscape:cy="32.5"
     inkscape:cx="26"
     inkscape:zoom="3.8153846"
     showgrid="false"
     id="namedview14"
     inkscape:window-height="988"
     inkscape:window-width="1680"
     inkscape:pageshadow="2"
     inkscape:pageopacity="0"
     guidetolerance="10"
     gridtolerance="10"
     objecttolerance="10"
     borderopacity="1"
     bordercolor="#666666"
     pagecolor="#ffffff" /><g
     transform="matrix(1.0759736,0,0,1.0759736,-1.9149088,3.9240263)"
     id="g6"><path
       inkscape:connector-curvature="0"
       id="path2"
       d="m 49.13623,18.10004 -3.28998,-4.17999 c -0.19,-0.24005 -0.47998,-0.38 -0.78998,-0.38 h -15.81 V 2 c 0,-0.54999 -0.45001,-1 -1,-1 h -4.5 c -0.55005,0 -1,0.45001 -1,1 v 3.17999 h -15.81 c -0.31,0 -0.60004,0.14001 -0.79004,0.38 l -3.28997,4.18 c -0.28003,0.37006 -0.28003,0.88 0,1.24005 l 3.28998,4.17999 c 0.19,0.23999 0.48004,0.38 0.79004,0.38 h 15.81 v 6.35999 h -15.81 c -0.31,0 -0.60004,0.14001 -0.79004,0.39001 l -3.28998,4.17999 c -0.28003,0.35999 -0.28003,0.87 0,1.22998 l 3.28998,4.18 c 0.19,0.23999 0.48004,0.38 0.79004,0.38 h 15.81 v 10.5 h 6.5 V 23.90002 h 15.81 c 0.31,0 0.59998,-0.14001 0.78998,-0.38 l 3.28998,-4.17999 c 0.29003,-0.35999 0.29003,-0.87 -1e-5,-1.23999 z" /><path
       inkscape:connector-curvature="0"
       id="path4"
       d="m 39.59625,49.19 -4.12,-4.13 c -0.19,-0.19 -0.44,-0.29999 -0.71002,-0.29999 H 17.23627 c -0.26001,0 -0.52002,0.10999 -0.70001,0.29004 l -4.23999,4.23999 c -0.28998,0.28998 -0.38,0.71997 -0.22003,1.08997 0.15002,0.38 0.52002,0.62 0.92004,0.62 h 26 c 0.01001,0 0.01996,0 0.01996,0 0.55005,0 1,-0.44995 1,-1 0,-0.32997 -0.15998,-0.63001 -0.41999,-0.81001 z" /></g></svg>
