<?xml version="1.0" encoding="UTF-8" standalone="no"?>
<svg
   xmlns:dc="http://purl.org/dc/elements/1.1/"
   xmlns:cc="http://creativecommons.org/ns#"
   xmlns:rdf="http://www.w3.org/1999/02/22-rdf-syntax-ns#"
   xmlns:svg="http://www.w3.org/2000/svg"
   xmlns="http://www.w3.org/2000/svg"
   xmlns:sodipodi="http://sodipodi.sourceforge.net/DTD/sodipodi-0.dtd"
   xmlns:inkscape="http://www.inkscape.org/namespaces/inkscape"
   inkscape:version="1.0rc1 (09960d6f05, 2020-04-09)"
   sodipodi:docname="noun_Fire Hydrant_21949.svg"
   id="svg12"
   xml:space="preserve"
   enable-background="new 0 0 91.033 84.485"
   viewBox="0 0 91.033 105.60625"
   y="0px"
   x="0px"
   version="1.1"><metadata
     id="metadata18"><rdf:RDF><cc:Work
         rdf:about=""><dc:format>image/svg+xml</dc:format><dc:type
           rdf:resource="http://purl.org/dc/dcmitype/StillImage" /></cc:Work></rdf:RDF></metadata><defs
     id="defs16" /><sodipodi:namedview
     inkscape:current-layer="svg12"
     inkscape:window-maximized="1"
     inkscape:window-y="-8"
     inkscape:window-x="-8"
     inkscape:cy="52.803123"
     inkscape:cx="45.516499"
     inkscape:zoom="2.3483459"
     showgrid="false"
     id="namedview14"
     inkscape:window-height="988"
     inkscape:window-width="1680"
     inkscape:pageshadow="2"
     inkscape:pageopacity="0"
     guidetolerance="10"
     gridtolerance="10"
     objecttolerance="10"
     borderopacity="1"
     bordercolor="#666666"
     pagecolor="#ffffff" /><g
     transform="translate(0,10)"
     id="g6"><path
       inkscape:connector-curvature="0"
       id="path2"
       d="m 85.617,37.471 c -2.092,0.419 -4.154,0.875 -6.241,1.3 -0.444,-1.26 -0.905,-2.538 -2.02,-2.96 -1.073,-0.406 -2.571,0.405 -3.642,0.794 -2.25,0.816 -4.475,1.892 -6.762,2.635 -1.23,0.4 -2.423,0.754 -3.764,0.867 -1.404,0.118 -2.631,-0.246 -3.701,-0.867 -2.033,-1.176 -3.262,-3.074 -4.438,-5.379 -0.947,11.791 -1.857,23.144 -2.846,34.838 -0.199,2.359 -0.272,4.727 -0.581,6.932 -0.638,4.557 -2.323,7.294 -5.782,8.411 -1.694,0.547 -4.008,0.434 -6.12,0.434 -8.672,0 -17.223,0 -25.855,0 -1.139,0 -2.229,0.073 -3.09,-0.181 C 8.278,83.56 6.836,81.156 6.032,78.482 5.458,76.574 5.227,74.501 5.022,72.056 4.239,62.704 3.522,53.483 2.788,44.15 2.059,34.878 1.229,25.568 0.555,16.28 0.38,13.874 0.072,11.57 0.004,9.276 -0.069,6.776 0.476,4.752 1.32,3.212 2.21,1.588 3.493,0.763 5.359,0.36 c 1.773,-0.384 4,-0.253 6.242,-0.253 6.404,0 12.888,-0.036 19.368,-0.036 2.132,0 4.292,0.119 6.456,0 1.76,-0.097 4.04,-0.036 5.936,-0.036 1.988,0 4.016,-0.099 5.813,0.036 3.746,0.281 6.479,1.539 7.467,4.945 0.527,1.825 0.438,4.034 0.275,6.21 -0.392,5.244 -0.865,10.388 -1.285,15.668 -0.084,1.043 -0.217,2.101 -0.245,3.141 -0.009,0.299 0.489,0.687 0.765,0.866 0.984,0.64 2.516,0.27 3.58,-0.036 4.619,-1.327 8.338,-3.856 13.096,-4.802 5.947,-1.181 9.346,2.084 11.29,6.427 0.657,1.466 1.173,2.99 1.5,4.981 z m -48.129,2.853 c -0.191,0.543 -0.397,1.102 -0.765,1.407 C 37.326,33.764 35.74,27.433 33.572,22.345 33.025,21.061 32.366,19.851 31.797,18.59 30.079,14.786 28.249,10.965 27.911,5.63 c -2.348,2.64 -3.768,6.733 -4.406,11.624 -0.312,2.393 -0.385,5.22 -0.551,7.798 -0.168,2.618 -0.352,5.153 -1.408,6.751 0.032,-1.864 -0.394,-3.416 -0.887,-4.765 -0.247,-0.675 -0.506,-1.346 -0.857,-1.914 -0.256,-0.416 -0.585,-0.803 -0.856,-1.155 -0.082,-0.105 -0.121,-0.325 -0.275,-0.289 0.341,5.393 -0.988,9.153 -2.876,12.203 -1.891,3.054 -3.574,6.321 -4.13,10.902 -0.3,2.473 -0.348,5.124 0.031,7.256 0.373,2.104 1.089,4.015 1.897,5.668 1.491,3.053 3.679,5.668 6.242,7.401 0.175,0.118 0.392,0.288 0.52,0.252 -0.773,-6.185 0.698,-11.141 2.631,-14.693 2.023,-3.718 4.518,-6.931 4.834,-12.526 0.937,2.675 1.2,6.033 0.795,9.313 -0.377,3.063 -1.223,5.838 -2.111,8.304 -0.887,2.465 -1.723,5.526 -1.56,8.881 0.166,3.416 1.134,5.702 2.479,7.87 1.061,-3.483 3.904,-4.843 6.517,-6.426 0.881,-0.534 1.704,-1.137 2.509,-1.77 1.622,-1.275 2.868,-2.826 3.978,-4.729 1.105,-1.896 2.083,-3.856 2.723,-6.245 1.325,-4.94 0.96,-11.771 -0.03,-16.715 -1.014,-5.059 -2.829,-9.353 -4.988,-12.996 0,-0.02 -0.024,-0.041 -0.03,0 0.989,4.5 0.684,10.995 -0.614,14.694 z"
       clip-rule="evenodd"
       fill-rule="evenodd" /><path
       inkscape:connector-curvature="0"
       id="path4"
       d="m 82.405,46.316 c 0.026,-0.007 0.028,0.014 0.03,0.036 0.4,4.572 1.373,8.115 2.754,11.408 1.365,3.258 3.301,5.956 4.619,9.17 0.684,1.665 1.225,3.602 1.225,5.884 0,4.768 -1.725,7.668 -4.314,9.531 -1.338,0.962 -2.909,1.54 -4.957,1.444 -1.879,-0.089 -3.348,-0.923 -4.559,-1.95 -2.322,-1.97 -4.365,-4.957 -4.039,-9.783 0.152,-2.24 0.77,-3.839 1.592,-5.415 1.563,-2.996 3.365,-5.77 4.803,-8.953 1.455,-3.221 2.469,-6.814 2.846,-11.372 z"
       clip-rule="evenodd"
       fill-rule="evenodd" /></g></svg>
