<?xml version="1.0" encoding="UTF-8" standalone="no"?>
<svg
   xmlns:dc="http://purl.org/dc/elements/1.1/"
   xmlns:cc="http://creativecommons.org/ns#"
   xmlns:rdf="http://www.w3.org/1999/02/22-rdf-syntax-ns#"
   xmlns:svg="http://www.w3.org/2000/svg"
   xmlns="http://www.w3.org/2000/svg"
   xmlns:sodipodi="http://sodipodi.sourceforge.net/DTD/sodipodi-0.dtd"
   xmlns:inkscape="http://www.inkscape.org/namespaces/inkscape"
   inkscape:version="1.0rc1 (09960d6f05, 2020-04-09)"
   sodipodi:docname="noun_Swimming_2431151.svg"
   id="svg16"
   y="0px"
   x="0px"
   version="1.1"
   viewBox="0 0 12.7 15.875">
  <metadata
     id="metadata22">
    <rdf:RDF>
      <cc:Work
         rdf:about="">
        <dc:format>image/svg+xml</dc:format>
        <dc:type
           rdf:resource="http://purl.org/dc/dcmitype/StillImage" />
      </cc:Work>
    </rdf:RDF>
  </metadata>
  <defs
     id="defs20" />
  <sodipodi:namedview
     inkscape:current-layer="svg16"
     inkscape:window-maximized="1"
     inkscape:window-y="-8"
     inkscape:window-x="-8"
     inkscape:cy="11.254611"
     inkscape:cx="11.939543"
     inkscape:zoom="22.092911"
     showgrid="false"
     id="namedview18"
     inkscape:window-height="988"
     inkscape:window-width="1680"
     inkscape:pageshadow="2"
     inkscape:pageopacity="0"
     guidetolerance="10"
     gridtolerance="10"
     objecttolerance="10"
     borderopacity="1"
     bordercolor="#666666"
     pagecolor="#ffffff" />
  <g
     id="g10"
     transform="translate(0,-282.29998)">
    <path
       inkscape:connector-curvature="0"
       id="path2"
       stroke="none"
       fill="#000000"
       d="m 12.1712,289.5312 a 1.36735,1.36735 0 1 0 -2.7347,0 1.36735,1.36735 0 1 0 2.7347,0 z" />
    <path
       inkscape:connector-curvature="0"
       id="path4"
       stroke="none"
       fill="#000000"
       d="m 0.5361,292.8717 a 0.03229622,0.03229622 0 0 0 0.046,0.045 3.6673951,3.6673951 0 0 1 2.6422,-0.7876 0.64592465,0.64592465 0 0 1 0.2488,0.077 6.5113397,6.5113397 0 0 0 4.6985,0.6099 6.757334,6.757334 0 0 1 3.3061,-0.3144 0.03229622,0.03229622 0 0 0 0.017,-0.062 4.3576767,4.3576767 0 0 0 -3.4585,0.083 6.2339201,6.2339201 0 0 1 -4.481,-0.6403 0.64592465,0.64592465 0 0 0 -0.1851,-0.07 2.830517,2.830517 0 0 0 -2.834,1.0596 z" />
    <path
       inkscape:connector-curvature="0"
       id="path6"
       stroke="none"
       fill="#000000"
       d="m 3.6637,289.5596 a 0.52751369,0.52751369 0 0 1 -0.6026,-0.866 l 2.0172,-1.4037 a 0.35166602,0.35166602 0 0 1 0.4186,0.012 l 2.8546,2.2505 a 1.0549981,1.0549981 0 0 1 0.2552,0.2919 l 1.0557,1.7871 a 4.7093426,4.7093426 0 0 0 -1.7399,0.4134 5.882254,5.882254 0 0 1 -4.1945,-0.6119 0.99759069,0.99759069 0 0 0 -0.1291,-0.061 l 2.845,-1.9798 -1.1908,-0.9388 z" />
    <path
       inkscape:connector-curvature="0"
       id="path8"
       stroke="none"
       fill="#000000"
       d="m 0.5361,293.9372 a 0.03229622,0.03229622 0 0 0 0.046,0.045 3.6673951,3.6673951 0 0 1 2.6422,-0.7876 0.64592465,0.64592465 0 0 1 0.2488,0.077 6.5113397,6.5113397 0 0 0 4.6985,0.6099 6.757334,6.757334 0 0 1 3.3061,-0.3145 0.03229622,0.03229622 0 0 0 0.017,-0.062 4.3576767,4.3576767 0 0 0 -3.4585,0.083 6.2339201,6.2339201 0 0 1 -4.481,-0.6403 0.64592465,0.64592465 0 0 0 -0.1851,-0.07 2.830517,2.830517 0 0 0 -2.834,1.0597 z" />
  </g>
</svg>
