<?xml version="1.0" encoding="UTF-8" standalone="no"?>
<svg
   xmlns:dc="http://purl.org/dc/elements/1.1/"
   xmlns:cc="http://creativecommons.org/ns#"
   xmlns:rdf="http://www.w3.org/1999/02/22-rdf-syntax-ns#"
   xmlns:svg="http://www.w3.org/2000/svg"
   xmlns="http://www.w3.org/2000/svg"
   xmlns:sodipodi="http://sodipodi.sourceforge.net/DTD/sodipodi-0.dtd"
   xmlns:inkscape="http://www.inkscape.org/namespaces/inkscape"
   inkscape:version="1.0rc1 (09960d6f05, 2020-04-09)"
   sodipodi:docname="noun_Car Wash_1572949.svg"
   id="svg14"
   xml:space="preserve"
   enable-background="new 0 0 100 100"
   viewBox="0 0 100 125"
   y="0px"
   x="0px"
   version="1.1"><metadata
     id="metadata20"><rdf:RDF><cc:Work
         rdf:about=""><dc:format>image/svg+xml</dc:format><dc:type
           rdf:resource="http://purl.org/dc/dcmitype/StillImage" /></cc:Work></rdf:RDF></metadata><defs
     id="defs18" /><sodipodi:namedview
     inkscape:current-layer="svg14"
     inkscape:window-maximized="1"
     inkscape:window-y="-8"
     inkscape:window-x="-8"
     inkscape:cy="62.5"
     inkscape:cx="50"
     inkscape:zoom="1.984"
     showgrid="false"
     id="namedview16"
     inkscape:window-height="988"
     inkscape:window-width="1680"
     inkscape:pageshadow="2"
     inkscape:pageopacity="0"
     guidetolerance="10"
     gridtolerance="10"
     objecttolerance="10"
     borderopacity="1"
     bordercolor="#666666"
     pagecolor="#ffffff" /><path
     style="stroke-width:1.156"
     inkscape:connector-curvature="0"
     id="path2"
     d="m 51.13867,10.600009 c 1.968685,2.735119 5.79739,8.609963 5.79739,12.923035 0,4.024072 -3.105043,7.285176 -6.93606,7.285176 -3.831017,0 -6.93606,-3.261104 -6.93606,-7.285176 0,-4.391682 3.819457,-10.216816 5.789298,-12.928815 0.578005,-0.795335 1.712051,-0.791867 2.285432,0.0058 z" /><path
     style="stroke-width:1.156"
     inkscape:connector-curvature="0"
     id="path4"
     d="m 23.39443,10.600009 c 1.968685,2.735119 5.79739,8.609963 5.79739,12.923035 0,4.024072 -3.105043,7.285176 -6.936059,7.285176 -3.831018,0 -6.93606,-3.261104 -6.93606,-7.285176 0,-4.391682 3.819456,-10.216816 5.789298,-12.928815 0.578004,-0.795335 1.71205,-0.791867 2.285431,0.0058 z" /><path
     style="stroke-width:1.156"
     inkscape:connector-curvature="0"
     id="path6"
     d="m 78.882909,10.600009 c 1.968686,2.735119 5.79739,8.609963 5.79739,12.923035 0,4.024072 -3.105042,7.285176 -6.93606,7.285176 -3.831016,0 -6.936059,-3.261104 -6.936059,-7.285176 0,-4.391682 3.819457,-10.216816 5.789298,-12.928815 0.578005,-0.795335 1.712051,-0.791867 2.285431,0.0058 z" /><path
     style="stroke-width:1.156"
     inkscape:connector-curvature="0"
     id="path8"
     d="M 91.153955,61.386996 83.634111,43.83992 C 81.445783,38.732668 76.440261,35.43226 70.884477,35.43226 H 29.115523 c -5.555784,0 -10.561306,3.300408 -12.749634,8.40766 L 8.8460446,61.386996 c -4.3778099,2.33514 -7.398464,6.894444 -7.398464,12.193592 v 6.93606 c 0,5.11072 2.8102603,9.535928 6.93606,11.94274 v 12.333472 c 0,3.82524 3.1108224,6.93606 6.9360604,6.93606 H 25.72379 c 3.825237,0 6.93606,-3.11082 6.93606,-6.93606 V 94.388768 h 34.6803 v 10.404092 c 0,3.82524 3.110823,6.93606 6.93606,6.93606 h 10.404089 c 3.825238,0 6.93606,-3.11082 6.93606,-6.93606 V 92.459388 c 4.1258,-2.406812 6.93606,-6.830864 6.93606,-11.94274 v -6.93606 c 0,-5.299148 -3.020654,-9.858452 -7.398464,-12.193592 z m -70.63221,24.331698 c -4.788193,0 -8.670074,-3.881882 -8.670074,-8.670076 0,-4.788192 3.881881,-8.670074 8.670074,-8.670074 4.788194,0 8.670075,3.881882 8.670075,8.670074 0,4.788194 -3.881881,8.670076 -8.670075,8.670076 z M 60.40409,80.516648 H 39.59591 c -1.915509,0 -3.46803,-1.55252 -3.46803,-3.46803 0,-1.915508 1.552521,-3.46803 3.46803,-3.46803 h 20.80818 c 1.915509,0 3.46803,1.552522 3.46803,3.46803 0,1.91551 -1.552521,3.46803 -3.46803,3.46803 z M 20.668559,59.70847 25.927248,47.939132 c 0.547949,-1.276236 1.799907,-2.102782 3.188275,-2.102782 h 41.768954 c 1.388368,0 2.640326,0.826546 3.209083,2.15249 l 5.237881,11.71963 z m 58.809696,26.010224 c -4.788194,0 -8.670075,-3.881882 -8.670075,-8.670076 0,-4.788192 3.881881,-8.670074 8.670075,-8.670074 4.788193,0 8.670074,3.881882 8.670074,8.670074 0,4.788194 -3.881881,8.670076 -8.670074,8.670076 z" /></svg>
