<?xml version="1.0" encoding="UTF-8" standalone="no"?>
<svg
   xmlns:dc="http://purl.org/dc/elements/1.1/"
   xmlns:cc="http://creativecommons.org/ns#"
   xmlns:rdf="http://www.w3.org/1999/02/22-rdf-syntax-ns#"
   xmlns:svg="http://www.w3.org/2000/svg"
   xmlns="http://www.w3.org/2000/svg"
   xmlns:sodipodi="http://sodipodi.sourceforge.net/DTD/sodipodi-0.dtd"
   xmlns:inkscape="http://www.inkscape.org/namespaces/inkscape"
   inkscape:version="1.0rc1 (09960d6f05, 2020-04-09)"
   sodipodi:docname="noun_pot_2678977.svg"
   id="svg8"
   y="0px"
   x="0px"
   viewBox="0 0 48 60"
   version="1.1">
  <metadata
     id="metadata14">
    <rdf:RDF>
      <cc:Work
         rdf:about="">
        <dc:format>image/svg+xml</dc:format>
        <dc:type
           rdf:resource="http://purl.org/dc/dcmitype/StillImage" />
      </cc:Work>
    </rdf:RDF>
  </metadata>
  <defs
     id="defs12" />
  <sodipodi:namedview
     inkscape:current-layer="svg8"
     inkscape:window-maximized="1"
     inkscape:window-y="-8"
     inkscape:window-x="-8"
     inkscape:cy="30"
     inkscape:cx="24"
     inkscape:zoom="4.1333333"
     showgrid="false"
     id="namedview10"
     inkscape:window-height="988"
     inkscape:window-width="1680"
     inkscape:pageshadow="2"
     inkscape:pageopacity="0"
     guidetolerance="10"
     gridtolerance="10"
     objecttolerance="10"
     borderopacity="1"
     bordercolor="#666666"
     pagecolor="#ffffff" />
  <path
     inkscape:connector-curvature="0"
     id="path2"
     fill="#000000"
     style="stroke-width:1.34091;paint-order:markers stroke fill"
     d="M 22.568915,0.79032258 A 4.0227273,4.0227273 0 0 0 18.546188,4.8130499 4.0227273,4.0227273 0 0 0 21.228005,8.6000705 V 23.219121 L 19.97876,20.738964 c -0.358667,-0.712403 -0.84981,-1.351197 -1.435191,-1.890891 -0.585378,-0.539696 -1.265924,-0.983514 -1.993031,-1.312101 -0.727108,-0.328575 -1.502488,-0.541594 -2.286355,-0.620693 -0.78386,-0.07908 -1.575253,-0.02289 -2.330878,0.185945 l -5.4552992,1.508522 2.5901552,5.143645 c 0.358669,0.712402 0.852427,1.345959 1.43781,1.885653 0.585378,0.539709 1.263304,0.986133 1.990412,1.31472 0.727108,0.328601 1.502492,0.541593 2.286354,0.620693 0.783852,0.07908 1.575253,0.02551 2.330878,-0.183326 L 21.228005,26.2545 V 38.335777 H 7.818915 v 5.363636 h 2.681818 l 2.584917,16.090909 h 18.96653 l 2.584917,-16.090909 h 2.681818 V 38.335777 H 23.909824 v -4.035822 l 4.11439,1.13663 c 0.755626,0.208843 1.547026,0.262407 2.330879,0.183327 0.783862,-0.0791 1.559246,-0.292092 2.286354,-0.620694 0.727108,-0.328587 1.405035,-0.77501 1.990413,-1.31472 0.585383,-0.539694 1.07914,-1.173251 1.437809,-1.885652 l 2.590155,-5.143645 -5.4553,-1.508523 c -0.755624,-0.208827 -1.547018,-0.265025 -2.330878,-0.185945 -0.783866,0.0791 -1.559246,0.292118 -2.286354,0.620694 -0.727107,0.328587 -1.407653,0.772404 -1.993031,1.312101 -0.585382,0.539694 -1.076524,1.178488 -1.435191,1.890891 l -1.249246,2.480157 V 18.209045 l 4.11439,1.136631 c 0.755626,0.208843 1.547026,0.262406 2.330879,0.183327 0.783862,-0.0791 1.559246,-0.292092 2.286354,-0.620694 0.727108,-0.328587 1.405035,-0.77501 1.990413,-1.31472 0.585383,-0.539694 1.07914,-1.173251 1.437809,-1.885653 l 2.590155,-5.143644 -5.4553,-1.5085219 C 32.4489,8.8469417 31.657506,8.7907435 30.873646,8.8698233 30.08978,8.9489303 29.3144,9.161944 28.587292,9.4905177 27.860185,9.8191048 27.179639,10.262923 26.594261,10.802618 26.008879,11.342313 25.517737,11.981107 25.15907,12.69351 l -1.249246,2.480156 V 8.6026892 A 4.0227273,4.0227273 0 0 0 26.591642,4.8130496 4.0227273,4.0227273 0 0 0 22.568915,0.79032258 Z" />
</svg>
