<?xml version="1.0" encoding="UTF-8" standalone="no"?>
<svg
   xmlns:dc="http://purl.org/dc/elements/1.1/"
   xmlns:cc="http://creativecommons.org/ns#"
   xmlns:rdf="http://www.w3.org/1999/02/22-rdf-syntax-ns#"
   xmlns:svg="http://www.w3.org/2000/svg"
   xmlns="http://www.w3.org/2000/svg"
   xmlns:sodipodi="http://sodipodi.sourceforge.net/DTD/sodipodi-0.dtd"
   xmlns:inkscape="http://www.inkscape.org/namespaces/inkscape"
   xml:space="preserve"
   version="1.1"
   style="shape-rendering:geometricPrecision;text-rendering:geometricPrecision;image-rendering:optimizeQuality;"
   viewBox="0 0 11703 18710"
   x="0px"
   y="0px"
   fill-rule="evenodd"
   clip-rule="evenodd"
   id="svg14"
   sodipodi:docname="noun_traffic signal_2469651.svg"
   inkscape:version="0.92.3 (2405546, 2018-03-11)"><metadata
     id="metadata18"><rdf:RDF><cc:Work
         rdf:about=""><dc:format>image/svg+xml</dc:format><dc:type
           rdf:resource="http://purl.org/dc/dcmitype/StillImage" /></cc:Work></rdf:RDF></metadata><sodipodi:namedview
     pagecolor="#ffffff"
     bordercolor="#666666"
     borderopacity="1"
     objecttolerance="10"
     gridtolerance="10"
     guidetolerance="10"
     inkscape:pageopacity="0"
     inkscape:pageshadow="2"
     inkscape:window-width="1680"
     inkscape:window-height="988"
     id="namedview16"
     showgrid="false"
     inkscape:zoom="0.01783829"
     inkscape:cx="5536.2836"
     inkscape:cy="6745.5723"
     inkscape:window-x="-8"
     inkscape:window-y="-8"
     inkscape:window-maximized="1"
     inkscape:current-layer="svg14" /><defs
     id="defs4"><style
       type="text/css"
       id="style2">
   
    .fil0 {fill:black}
   
  </style></defs><g
     id="g8"
     transform="translate(0,1550)"><path
       class="fil0"
       d="m 4352,12797 h 2924 v 714 h -598 v 1457 H 4950 V 13511 H 4352 Z M 4187,0 h 3329 c 930,0 1691,761 1691,1691 v 9239 c 0,931 -761,1692 -1691,1692 H 4187 c -930,0 -1691,-761 -1691,-1692 V 1691 C 2496,761 3257,0 4187,0 Z m 1664,8838 c 770,0 1394,624 1394,1393 0,770 -624,1394 -1394,1394 -769,0 -1393,-624 -1393,-1394 0,-769 624,-1393 1393,-1393 z m 0,-3920 c 770,0 1394,623 1394,1393 0,769 -624,1393 -1394,1393 -769,0 -1393,-624 -1393,-1393 0,-770 624,-1393 1393,-1393 z m 0,-3921 c 770,0 1394,624 1394,1394 0,769 -624,1393 -1394,1393 -769,0 -1393,-624 -1393,-1393 0,-770 624,-1394 1393,-1394 z M 0,1268 H 2202 V 3697 H 1295 C 674,3002 53,2206 0,1268 Z m 11703,0 H 9500 v 2429 h 907 c 621,-695 1242,-1491 1296,-2429 z m 0,6033 H 9500 v 2429 h 907 c 621,-694 1242,-1491 1296,-2429 z m 0,-3017 H 9500 v 2430 h 907 c 621,-695 1242,-1492 1296,-2430 z M 0,7301 H 2202 V 9730 H 1295 C 674,9036 53,8239 0,7301 Z M 0,4284 H 2202 V 6714 H 1295 C 674,6019 53,5222 0,4284 Z"
       id="path6"
       inkscape:connector-curvature="0"
       style="fill:#000000" /></g><text
     x="0"
     y="15021"
     font-size="5px"
     font-weight="bold"
     id="text10"
     style="font-weight:bold;font-size:5px;font-family:'Helvetica Neue', Helvetica, Arial-Unicode, Arial, Sans-serif;fill:#000000">Created by popcornarts</text>
<text
     x="0"
     y="15026"
     font-size="5px"
     font-weight="bold"
     id="text12"
     style="font-weight:bold;font-size:5px;font-family:'Helvetica Neue', Helvetica, Arial-Unicode, Arial, Sans-serif;fill:#000000">from the Noun Project</text>
</svg>