<?xml version="1.0" encoding="UTF-8" standalone="no"?>
<svg
   xmlns:dc="http://purl.org/dc/elements/1.1/"
   xmlns:cc="http://creativecommons.org/ns#"
   xmlns:rdf="http://www.w3.org/1999/02/22-rdf-syntax-ns#"
   xmlns:svg="http://www.w3.org/2000/svg"
   xmlns="http://www.w3.org/2000/svg"
   xmlns:sodipodi="http://sodipodi.sourceforge.net/DTD/sodipodi-0.dtd"
   xmlns:inkscape="http://www.inkscape.org/namespaces/inkscape"
   inkscape:version="1.0rc1 (09960d6f05, 2020-04-09)"
   sodipodi:docname="noun_Parking-meter_132823.svg"
   id="svg28"
   xml:space="preserve"
   enable-background="new 0 0 100 100"
   viewBox="0 0 100 125"
   y="0px"
   x="0px"
   version="1.1"><metadata
     id="metadata34"><rdf:RDF><cc:Work
         rdf:about=""><dc:format>image/svg+xml</dc:format><dc:type
           rdf:resource="http://purl.org/dc/dcmitype/StillImage" /></cc:Work></rdf:RDF></metadata><defs
     id="defs32" /><sodipodi:namedview
     inkscape:current-layer="svg28"
     inkscape:window-maximized="1"
     inkscape:window-y="-8"
     inkscape:window-x="-8"
     inkscape:cy="62.5"
     inkscape:cx="50"
     inkscape:zoom="1.984"
     showgrid="false"
     id="namedview30"
     inkscape:window-height="988"
     inkscape:window-width="1680"
     inkscape:pageshadow="2"
     inkscape:pageopacity="0"
     guidetolerance="10"
     gridtolerance="10"
     objecttolerance="10"
     borderopacity="1"
     bordercolor="#666666"
     pagecolor="#ffffff" /><g
     transform="matrix(1.1963627,0,0,1.3637107,-9.8180347,-2.185351)"
     id="g22"><g
       id="g4"><path
         inkscape:connector-curvature="0"
         id="path2"
         d="m 71.881,30.811 c -6.465,0 -12.183,3.225 -15.66,8.14 0.981,1.58 1.757,3.304 2.293,5.129 2.277,-5.123 7.407,-8.711 13.367,-8.711 8.067,0 14.63,6.563 14.63,14.633 0,8.066 -6.562,14.63 -14.63,14.63 -5.958,0 -11.087,-3.585 -13.366,-8.707 -0.534,1.826 -1.309,3.55 -2.291,5.132 3.48,4.91 9.195,8.133 15.657,8.133 10.58,0 19.188,-8.607 19.188,-19.188 0,-10.584 -8.608,-19.191 -19.188,-19.191 z" /></g><g
       id="g10"><g
         id="g8"><path
           inkscape:connector-curvature="0"
           id="path6"
           d="m 72.836,48.166 v -3.014 c 0.751,0.175 1.301,0.521 1.954,0.521 0.913,0 1.494,-0.779 1.494,-1.65 0,-1.438 -2.057,-2.016 -3.448,-2.153 V 40.1 h -1.805 v 1.76 c -2.585,0.343 -4.646,2.196 -4.646,4.997 0,3.115 2.553,3.739 4.646,4.347 v 3.745 c -1.23,-0.17 -2.299,-0.825 -3.219,-0.825 -0.914,0 -1.494,0.713 -1.494,1.584 0,1.869 2.893,2.379 4.713,2.448 V 59.9 h 1.805 v -1.818 c 2.576,-0.386 4.608,-2.249 4.608,-5.053 0,-3.341 -2.515,-4.249 -4.608,-4.863 z m -1.805,-0.592 c -0.631,-0.259 -1.035,-0.581 -1.035,-1.122 0,-0.657 0.439,-1.104 1.035,-1.31 z m 1.805,7.141 V 51.81 c 0.599,0.282 0.994,0.671 0.994,1.265 0,0.715 -0.35,1.32 -0.994,1.64 z" /></g></g><g
       id="g16"><g
         id="g14"><path
           inkscape:connector-curvature="0"
           id="path12"
           d="m 34.915,35.788 h -6.941 c -1.961,0 -3.06,1.217 -3.06,3.06 v 10.431 5.167 6.706 c 0,1.96 1.254,3.06 2.941,3.06 1.687,0 2.941,-1.1 2.941,-3.06 v -6.693 h 4.354 c 5.373,0 9.806,-3.567 9.806,-9.293 0,-5.609 -4.274,-9.378 -10.041,-9.378 z m -0.117,13.493 h -1.263 v -0.003 h -2.738 v -8.311 h 4.001 c 2.469,0 4.04,1.803 4.04,4.156 0,2.356 -1.571,4.158 -4.04,4.158 z" /></g></g><g
       id="g20"><path
         inkscape:connector-curvature="0"
         id="path18"
         d="M 51.842,74.944 H 15.908 C 12.06,74.944 8.93,71.815 8.93,67.966 V 32.034 c 0,-3.85 3.13,-6.979 6.978,-6.979 h 35.934 c 3.849,0 6.979,3.13 6.979,6.979 v 35.933 c -10e-4,3.848 -3.131,6.977 -6.979,6.977 z M 15.908,30.254 c -0.98,0 -1.777,0.799 -1.777,1.78 v 35.933 c 0,0.98 0.797,1.777 1.777,1.777 h 35.934 c 0.981,0 1.779,-0.797 1.779,-1.777 V 32.034 c 0,-0.981 -0.798,-1.78 -1.779,-1.78 H 15.908 Z" /></g></g></svg>
