<?xml version="1.0" encoding="UTF-8" standalone="no"?>
<svg
   xmlns:dc="http://purl.org/dc/elements/1.1/"
   xmlns:cc="http://creativecommons.org/ns#"
   xmlns:rdf="http://www.w3.org/1999/02/22-rdf-syntax-ns#"
   xmlns:svg="http://www.w3.org/2000/svg"
   xmlns="http://www.w3.org/2000/svg"
   xmlns:sodipodi="http://sodipodi.sourceforge.net/DTD/sodipodi-0.dtd"
   xmlns:inkscape="http://www.inkscape.org/namespaces/inkscape"
   inkscape:version="1.0rc1 (09960d6f05, 2020-04-09)"
   sodipodi:docname="noun_street billboard ad_1050981.svg"
   id="svg10"
   xml:space="preserve"
   style="enable-background:new 0 0 100 100;"
   viewBox="0 0 100 125"
   y="0px"
   x="0px"
   version="1.1"><metadata
     id="metadata16"><rdf:RDF><cc:Work
         rdf:about=""><dc:format>image/svg+xml</dc:format><dc:type
           rdf:resource="http://purl.org/dc/dcmitype/StillImage" /></cc:Work></rdf:RDF></metadata><defs
     id="defs14" /><sodipodi:namedview
     inkscape:current-layer="svg10"
     inkscape:window-maximized="1"
     inkscape:window-y="-8"
     inkscape:window-x="-8"
     inkscape:cy="62.5"
     inkscape:cx="50"
     inkscape:zoom="1.984"
     showgrid="false"
     id="namedview12"
     inkscape:window-height="988"
     inkscape:window-width="1680"
     inkscape:pageshadow="2"
     inkscape:pageopacity="0"
     guidetolerance="10"
     gridtolerance="10"
     objecttolerance="10"
     borderopacity="1"
     bordercolor="#666666"
     pagecolor="#ffffff" /><g
     transform="matrix(1.2570565,0,0,1.2570565,-13.124128,0)"
     id="g4"><path
       inkscape:connector-curvature="0"
       id="path2"
       d="M 79.248,0 H 20.752 c -1.618,0 -2.93,1.312 -2.93,2.93 v 74.541 c 0,1.618 1.312,2.93 2.93,2.93 h 20.752 v 11.097 h -7.678 c -0.895,0 -1.62,0.726 -1.62,1.62 V 100 h 35.587 v -6.883 c 0,-0.895 -0.726,-1.62 -1.62,-1.62 H 58.495 V 80.4 h 20.752 c 1.618,0 2.93,-1.312 2.93,-2.93 V 2.93 C 82.178,1.312 80.866,0 79.248,0 Z M 74.365,72.588 H 25.635 V 7.813 h 48.73 z m -4.144,-32.929 -5.143,-4.672 0.527,-6.928 -6.906,-0.756 -3.646,-5.915 -6.033,3.447 -6.426,-2.643 -2.854,6.335 -6.752,1.64 1.415,6.803 -4.5,5.295 5.143,4.672 -0.527,6.929 6.907,0.756 3.646,5.916 6.032,-3.448 6.426,2.643 2.855,-6.335 6.752,-1.639 -1.414,-6.803 z" /></g></svg>
