<?xml version="1.0" encoding="UTF-8" standalone="no"?>
<svg
   xmlns:dc="http://purl.org/dc/elements/1.1/"
   xmlns:cc="http://creativecommons.org/ns#"
   xmlns:rdf="http://www.w3.org/1999/02/22-rdf-syntax-ns#"
   xmlns:svg="http://www.w3.org/2000/svg"
   xmlns="http://www.w3.org/2000/svg"
   xmlns:sodipodi="http://sodipodi.sourceforge.net/DTD/sodipodi-0.dtd"
   xmlns:inkscape="http://www.inkscape.org/namespaces/inkscape"
   version="1.1"
   viewBox="0 0 256 320"
   x="0px"
   y="0px"
   id="svg3841"
   sodipodi:docname="noun_Empty_333558.svg"
   inkscape:version="0.92.3 (2405546, 2018-03-11)">
  <metadata
     id="metadata3847">
    <rdf:RDF>
      <cc:Work
         rdf:about="">
        <dc:format>image/svg+xml</dc:format>
        <dc:type
           rdf:resource="http://purl.org/dc/dcmitype/StillImage" />
        <dc:title></dc:title>
      </cc:Work>
    </rdf:RDF>
  </metadata>
  <defs
     id="defs3845" />
  <sodipodi:namedview
     pagecolor="#ffffff"
     bordercolor="#666666"
     borderopacity="1"
     objecttolerance="10"
     gridtolerance="10"
     guidetolerance="10"
     inkscape:pageopacity="0"
     inkscape:pageshadow="2"
     inkscape:window-width="1680"
     inkscape:window-height="988"
     id="namedview3843"
     showgrid="false"
     inkscape:zoom="2.471875"
     inkscape:cx="128"
     inkscape:cy="150.22495"
     inkscape:window-x="-8"
     inkscape:window-y="-8"
     inkscape:window-maximized="1"
     inkscape:current-layer="svg3841" />
  <path
     d="m 15.36,59.847686 v -15.36 H 25.6 v -10.24 H 12.8 c -4.224,0 -7.68,3.456 -7.68,7.68 v 17.92 z"
     id="path3781"
     inkscape:connector-curvature="0"
     style="fill:#000000" />
  <path
     d="m 225.28,44.487686 h 15.36 v 10.24 h 10.24 v -12.8 c 0,-4.224 -3.456,-7.68 -7.68,-7.68 h -17.92 z"
     id="path3783"
     inkscape:connector-curvature="0"
     style="fill:#000000" />
  <path
     d="m 40.96,34.247686 h 15.36 v 10.24 H 40.96 Z"
     id="path3785"
     inkscape:connector-curvature="0"
     style="fill:#000000" />
  <path
     d="m 71.68,34.247686 h 15.36 v 10.24 H 71.68 Z"
     id="path3787"
     inkscape:connector-curvature="0"
     style="fill:#000000" />
  <path
     d="m 102.4,34.247686 h 15.36 v 10.24 H 102.4 Z"
     id="path3789"
     inkscape:connector-curvature="0"
     style="fill:#000000" />
  <path
     d="m 133.12,34.247686 h 15.36 v 10.24 h -15.36 z"
     id="path3791"
     inkscape:connector-curvature="0"
     style="fill:#000000" />
  <path
     d="m 163.84,34.247686 h 15.36 v 10.24 h -15.36 z"
     id="path3793"
     inkscape:connector-curvature="0"
     style="fill:#000000" />
  <path
     d="m 194.56,34.247686 h 15.36 v 10.24 h -15.36 z"
     id="path3795"
     inkscape:connector-curvature="0"
     style="fill:#000000" />
  <path
     d="m 240.64,70.087686 h 10.24 v 15.36 h -10.24 z"
     id="path3797"
     inkscape:connector-curvature="0"
     style="fill:#000000" />
  <path
     d="m 240.64,100.80769 h 10.24 v 15.36 h -10.24 z"
     id="path3799"
     inkscape:connector-curvature="0"
     style="fill:#000000" />
  <path
     d="m 240.64,131.52769 h 10.24 v 15.36 h -10.24 z"
     id="path3801"
     inkscape:connector-curvature="0"
     style="fill:#000000" />
  <path
     d="m 240.64,162.24769 h 10.24 v 15.36 h -10.24 z"
     id="path3803"
     inkscape:connector-curvature="0"
     style="fill:#000000" />
  <path
     d="m 240.64,192.96769 h 10.24 v 15.36 h -10.24 z"
     id="path3805"
     inkscape:connector-curvature="0"
     style="fill:#000000" />
  <path
     d="m 240.64,223.68769 h 10.24 v 15.36 h -10.24 z"
     id="path3807"
     inkscape:connector-curvature="0"
     style="fill:#000000" />
  <path
     d="m 5.12,228.80769 h 10.24 v 15.36 H 5.12 Z"
     id="path3809"
     inkscape:connector-curvature="0"
     style="fill:#000000" />
  <path
     d="m 5.12,198.08769 h 10.24 v 15.36 H 5.12 Z"
     id="path3811"
     inkscape:connector-curvature="0"
     style="fill:#000000" />
  <path
     d="m 5.12,167.36769 h 10.24 v 15.36 H 5.12 Z"
     id="path3813"
     inkscape:connector-curvature="0"
     style="fill:#000000" />
  <path
     d="m 5.12,136.64769 h 10.24 v 15.36 H 5.12 Z"
     id="path3815"
     inkscape:connector-curvature="0"
     style="fill:#000000" />
  <path
     d="m 5.12,105.92769 h 10.24 v 15.36 H 5.12 Z"
     id="path3817"
     inkscape:connector-curvature="0"
     style="fill:#000000" />
  <path
     d="m 5.12,75.207686 h 10.24 v 15.36 H 5.12 Z"
     id="path3819"
     inkscape:connector-curvature="0"
     style="fill:#000000" />
  <path
     d="m 240.64,254.40769 v 15.36 H 230.4 v 10.24 h 12.8 c 4.224,0 7.68,-3.456 7.68,-7.68 v -17.92 z"
     id="path3821"
     inkscape:connector-curvature="0"
     style="fill:#000000" />
  <path
     d="M 30.72,269.76769 H 15.36 v -10.24 H 5.12 v 12.8 c 0,4.224 3.456,7.68 7.68,7.68 h 17.92 z"
     id="path3823"
     inkscape:connector-curvature="0"
     style="fill:#000000" />
  <path
     d="m 199.68,269.76769 h 15.36 v 10.24 h -15.36 z"
     id="path3825"
     inkscape:connector-curvature="0"
     style="fill:#000000" />
  <path
     d="m 168.96,269.76769 h 15.36 v 10.24 h -15.36 z"
     id="path3827"
     inkscape:connector-curvature="0"
     style="fill:#000000" />
  <path
     d="m 138.24,269.76769 h 15.36 v 10.24 h -15.36 z"
     id="path3829"
     inkscape:connector-curvature="0"
     style="fill:#000000" />
  <path
     d="m 107.52,269.76769 h 15.36 v 10.24 h -15.36 z"
     id="path3831"
     inkscape:connector-curvature="0"
     style="fill:#000000" />
  <path
     d="m 76.8,269.76769 h 15.36 v 10.24 H 76.8 Z"
     id="path3833"
     inkscape:connector-curvature="0"
     style="fill:#000000" />
  <path
     d="m 46.08,269.76769 h 15.36 v 10.24 H 46.08 Z"
     id="path3835"
     inkscape:connector-curvature="0"
     style="fill:#000000" />
</svg>
