<?xml version="1.0" encoding="UTF-8" standalone="no"?>
<svg
   xmlns:dc="http://purl.org/dc/elements/1.1/"
   xmlns:cc="http://creativecommons.org/ns#"
   xmlns:rdf="http://www.w3.org/1999/02/22-rdf-syntax-ns#"
   xmlns:svg="http://www.w3.org/2000/svg"
   xmlns="http://www.w3.org/2000/svg"
   xmlns:sodipodi="http://sodipodi.sourceforge.net/DTD/sodipodi-0.dtd"
   xmlns:inkscape="http://www.inkscape.org/namespaces/inkscape"
   inkscape:version="1.0rc1 (09960d6f05, 2020-04-09)"
   sodipodi:docname="noun_Urban_2777206.svg"
   id="svg16"
   xml:space="preserve"
   style="enable-background:new -55 147 500 500;"
   viewBox="-55 147 500 625"
   y="0px"
   x="0px"
   version="1.1"><metadata
     id="metadata22"><rdf:RDF><cc:Work
         rdf:about=""><dc:format>image/svg+xml</dc:format><dc:type
           rdf:resource="http://purl.org/dc/dcmitype/StillImage" /></cc:Work></rdf:RDF></metadata><defs
     id="defs20" /><sodipodi:namedview
     inkscape:current-layer="svg16"
     inkscape:window-maximized="1"
     inkscape:window-y="-8"
     inkscape:window-x="-8"
     inkscape:cy="220.41721"
     inkscape:cx="-16.752306"
     inkscape:zoom="0.28057997"
     showgrid="false"
     id="namedview18"
     inkscape:window-height="988"
     inkscape:window-width="1680"
     inkscape:pageshadow="2"
     inkscape:pageopacity="0"
     guidetolerance="10"
     gridtolerance="10"
     objecttolerance="10"
     borderopacity="1"
     bordercolor="#666666"
     pagecolor="#ffffff" /><path
     inkscape:connector-curvature="0"
     id="path2"
     d="m 165.9,550.5 v 62.4 c 0,6.7 5.4,12.1 12.1,12.1 6.7,0 12.1,-5.4 12.1,-12.1 v -62.4 c 0,-6.7 -5.4,-12.1 -12.1,-12.1 -6.7,0 -12.1,5.4 -12.1,12.1 z" /><path
     inkscape:connector-curvature="0"
     id="path4"
     d="m 213.6,625 c 6.7,0 12.1,-5.4 12.1,-12.1 v -62.4 c 0,-6.7 -5.4,-12.1 -12.1,-12.1 -6.7,0 -12.1,5.4 -12.1,12.1 v 62.4 c 0,6.7 5.4,12.1 12.1,12.1 z" /><path
     inkscape:connector-curvature="0"
     id="path6"
     d="m 249.3,625 c 6.7,0 12.1,-5.4 12.1,-12.1 v -62.4 c 0,-6.7 -5.4,-12.1 -12.1,-12.1 -6.7,0 -12.1,5.4 -12.1,12.1 v 62.4 c -0.1,6.7 5.4,12.1 12.1,12.1 z" /><path
     inkscape:connector-curvature="0"
     id="path8"
     d="m 284.9,625 c 6.7,0 12.1,-5.4 12.1,-12.1 v -62.4 c 0,-6.7 -5.4,-12.1 -12.1,-12.1 -6.7,0 -12.1,5.4 -12.1,12.1 v 62.4 c 0,6.7 5.4,12.1 12.1,12.1 z" /><path
     inkscape:connector-curvature="0"
     id="path10"
     d="m 432.9,663.3 h -14.5 v -98.2 c 0,-6.7 -5.4,-12.1 -12.1,-12.1 h -4.8 V 413.6 h 8.3 c 6.3,0 11.6,-4.9 12.1,-11.2 l 4.2,-54.7 4.4,0.9 c 0.8,0.2 1.6,0.2 2.5,0.2 5.6,0 10.7,-3.9 11.9,-9.7 1.3,-6.5 -2.9,-12.9 -9.4,-14.3 L 392,315.9 c -1.6,-0.3 -3.3,-0.3 -4.9,0 l -43.5,8.9 c -6.6,1.3 -10.8,7.7 -9.4,14.3 1.3,6.5 7.8,10.8 14.3,9.4 l 4.6,-0.9 5.1,54.9 c 0.6,6.2 5.8,11 12.1,11 h 7.2 V 553 h -4.8 c -6.7,0 -12.1,5.4 -12.1,12.1 v 98.2 h -29.7 v -83.7 c 0,-6.7 -5.4,-12.1 -12.1,-12.1 -6.7,0 -12.1,5.4 -12.1,12.1 v 47.7 H 156.5 v -47.7 c 0,-6.7 -5.4,-12.1 -12.1,-12.1 -6.7,0 -12.1,5.4 -12.1,12.1 v 83.7 H 73.5 V 533.1 c 50.1,-3.5 104.2,-30.6 104.2,-131.4 0,-46.9 -11.5,-91.1 -32.3,-124.5 -22,-35.2 -51.8,-54.6 -83.9,-54.6 -32.1,0 -62,19.4 -83.9,54.6 -21.1,33.4 -32.6,77.6 -32.6,124.5 0,100.7 54.1,127.9 104.2,131.4 v 130.2 h -92 c -6.7,0 -12.1,5.4 -12.1,12.1 0,6.7 5.4,12.1 12.1,12.1 h 475.7 c 6.7,0 12.1,-5.4 12.1,-12.1 0,-6.7 -5.4,-12.1 -12.1,-12.1 z m -43.6,-323 12.7,2.6 -3.6,46.6 H 381 l -4.4,-46.6 z M -3.9,487.5 c -17.8,-17.4 -26.9,-46.3 -26.9,-85.8 0,-42.4 10.2,-82.1 28.7,-111.8 17.4,-27.9 39.9,-43.2 63.4,-43.2 23.5,0 46,15.4 63.4,43.2 18.5,29.7 28.7,69.4 28.7,111.8 0,39.6 -9,68.4 -26.9,85.8 -12.6,12.3 -30.5,19.5 -53,21.3 v -23 L 115.4,444 c 4.7,-4.7 4.7,-12.4 0,-17.1 -4.7,-4.7 -12.4,-4.7 -17.1,0 l -24.8,24.7 v -23.6 0 -91.2 c 0,-6.7 -5.4,-12.1 -12.1,-12.1 -6.7,0 -12.1,5.4 -12.1,12.1 v 62.1 L 27,376.6 c -4.7,-4.7 -12.4,-4.7 -17.1,0 -4.7,4.7 -4.7,12.4 0,17.1 l 39.5,39.4 v 47.7 0 28 C 26.6,507 8.7,499.8 -3.9,487.5 Z m 388.5,89.7 h 4.8 v 0 0 h 4.8 v 86.1 h -9.6 z m -228.1,74.2 h 149.9 v 11.9 H 156.5 Z" /></svg>
