<?xml version="1.0" encoding="utf-8"?>
<!-- Generator: Adobe Illustrator 15.1.0, SVG Export Plug-In . SVG Version: 6.00 Build 0)  -->
<!DOCTYPE svg PUBLIC "-//W3C//DTD SVG 1.1//EN" "http://www.w3.org/Graphics/SVG/1.1/DTD/svg11.dtd">
<svg version="1.1" xmlns="http://www.w3.org/2000/svg" xmlns:xlink="http://www.w3.org/1999/xlink" x="0px" y="0px" width="300px"
	 height="300px" viewBox="0 0 300 300" enable-background="new 0 0 300 300" xml:space="preserve">
<g id="Calque_2">
</g>
<g id="Calque_1">
	<path fill-rule="evenodd" clip-rule="evenodd" fill="#4BAF75" d="M151.359,197.555c11.722-3.571,22.768-7.821,34.286-11.597
		c-1.402-1.842,1.087-5.053-1.009-5.545C173.938,186.52,162.06,191.448,151.359,197.555z"/>
	<path fill-rule="evenodd" clip-rule="evenodd" fill="#4BAF75" d="M185.839,205.848c0.03-2.216,0.486-4.855-2.016-4.537
		c-2.688,2.389-0.453,7.749-0.506,9.578c1.303,0.399,3.14-2.404,6.051-2.016c6.5-3.251-1.682-15.807,5.042-18.151
		c1.182,1.332,0.085,3.438,0,5.042c1.254-0.077,1.562,0.793,2.521,1.009c1.596-2.856,1.596-6.22,0-9.076
		C183.566,183.133,192.645,202.938,185.839,205.848z"/>
	<path fill-rule="evenodd" clip-rule="evenodd" fill="#4BAF75" d="M214.074,174.082c-0.06,2.244,2.155,2.215,3.529,3.026
		c0.746-1.103,0.982-2.714,2.018-3.528c0.055,1.286,1.687,0.999,3.025,1.008c-0.367-1.146,0.907-3.934-1.009-3.531
		C218.024,171.344,217.719,175.176,214.074,174.082z"/>
	<g>
		<g>
			<defs>
				<rect id="SVGID_1_" x="9.707" y="35.542" width="287.301" height="237.424"/>
			</defs>
			<clipPath id="SVGID_2_">
				<use xlink:href="#SVGID_1_"  overflow="visible"/>
			</clipPath>
			<g clip-path="url(#SVGID_2_)">
				<defs>
					
						<rect id="SVGID_3_" x="19.586" y="72.585" transform="matrix(-0.7071 0.7071 -0.7071 -0.7071 352.5891 154.4741)" width="249.432" height="155.351"/>
				</defs>
				<clipPath id="SVGID_4_">
					<use xlink:href="#SVGID_3_"  overflow="visible"/>
				</clipPath>
				<g clip-path="url(#SVGID_4_)">
					<path fill-rule="evenodd" clip-rule="evenodd" fill="#FFFFFF" d="M178.339,62.386c6.056-0.577,6.634-9.704,10.701-9.878
						c4.2-0.179,6.246,8.098,10.702,10.702c3.468,0.292,3.79-5.487,6.585-3.293c16.88,17.164,40.155,40.978,60.094,60.918
						c1.939,1.938,9.023,7.443,9.057,8.232c0.094,2.208-8.844,9.668-9.878,10.702c-3.814,3.815-7.328,6.104-9.879,9.879
						c11.531-3.011,21.897-7.188,33.752-9.879c0.752,6.109,3.911,9.809,4.116,16.464c-12.453,2.367-22.384,7.252-34.575,9.88
						c-18.564,40.158-35.57,81.874-53.51,122.657c-53.509,0-107.017,0-160.526,0c0-5.488,0-10.976,0-16.463
						c15.092-0.001,30.184-0.001,45.276-0.001c-20.238-23.942-48.363-47.129-69.973-72.443
						c49.461-48.774,98.58-97.893,147.355-147.354C172.354,54.652,174.99,58.874,178.339,62.386z M168.46,64.033
						c-36.432,37.63-81.001,81.002-120.189,120.188c-4.051,4.051-16.541,15.491-16.464,17.287
						c0.082,1.901,15.205,15.205,16.464,16.465c14.83,14.83,27.462,27.753,41.16,41.16c1.91,1.868,5.566,7.348,9.056,4.117
						c3.16-3.356-2.567-5.793-4.116-7.41c-17.497-18.253-36.782-36.73-53.509-54.332c32.966-33.274,66.848-67.67,99.609-100.431
						c11.122-11.122,23.609-21.035,32.106-33.751C170.664,66.769,170.372,64.59,168.46,64.033z M189.04,64.856
						c-44.933,45.618-90.21,90.896-135.83,135.83c9.811,12.415,21.745,22.708,32.928,33.751
						c5.005,6.246,11.459,11.042,16.464,17.287c3.089,2.4,5.833,5.144,8.232,8.232c4.395,3.457,6.12,7.424,9.056,3.294
						c3.466-4.88-9.08-10.191-11.525-15.642c-5.697-4.456-9.944-10.362-15.641-14.818c-4.885-5.21-8.962-9.786-14.817-15.641
						c-2.731-2.73-15.797-11.998-15.641-15.642c0.078-1.83,13.954-13.954,16.464-16.465c38.421-38.42,81.171-79.3,115.251-116.072
						C191.813,68.121,191.206,65.708,189.04,64.856z M169.282,199.862c44.824-1.013,42.313-72.479-4.116-67.502
						C122.769,136.903,126.958,200.82,169.282,199.862z M138.825,265.721c-1.539,1.571-4.884,3.878-4.117,6.585
						c19.758,0,39.515,0,59.272,0.001c15.326-35.438,32.685-73.236,46.1-107.842C208.009,198.262,171.077,232.762,138.825,265.721z
						 M101.78,272.306c2.771-0.521,7.646,1.061,9.056-0.823C108.017,267.643,103.228,266.016,101.78,272.306z M123.183,272.306
						c2.745,0,5.489,0,8.233,0C130.507,266.558,124.091,266.558,123.183,272.306z"/>
					<path fill-rule="evenodd" clip-rule="evenodd" fill="#FFFFFF" d="M155.289,148c-2.269-2.667-4.319-2.667-6.585,0
						c-0.446,2.916,2.913,2.024,2.468,4.939c-11.607,6.038-5.889,26.462,9.879,23.874c3.075-2.138,5.313-5.115,9.055-6.585
						c4.265,4.782,12.479,10.305,1.646,13.17c-2.636-0.381-2.901-3.135-5.762-3.293c-14.321,10.054,12.158,14.233,17.287,4.116
						c2.167,0.405,2.773,4.538,4.939,2.47c3.389-2.603,0.016-4.568-0.824-7.408c9.99-5.428,7.026-22.265-3.292-24.697
						c-7.563-1.783-10.227,3.755-16.465,6.586c-8.138-5.12-8.402-14.784,2.47-9.055c1.138-2.43,3.803-3.334,4.94-5.763
						C169.877,138.806,159.9,142.364,155.289,148z"/>
					<path fill-rule="evenodd" clip-rule="evenodd" d="M175.046,146.354c-1.138,2.429-3.803,3.333-4.94,5.763
						c-10.872-5.729-10.607,3.935-2.47,9.055c6.238-2.831,8.901-8.369,16.465-6.586c10.318,2.433,13.282,19.27,3.292,24.697
						c0.84,2.84,4.213,4.806,0.824,7.408c-2.166,2.068-2.772-2.064-4.939-2.47c-5.129,10.117-31.608,5.938-17.287-4.116
						c2.86,0.158,3.126,2.912,5.762,3.293c10.832-2.865,2.618-8.388-1.646-13.17c-3.741,1.47-5.979,4.447-9.055,6.585
						c-15.768,2.588-21.486-17.836-9.879-23.874c0.444-2.915-2.914-2.023-2.468-4.939c2.267-2.667,4.317-2.667,6.585,0
						C159.9,142.364,169.877,138.806,175.046,146.354z M164.344,164.465c0.138-1.813-6.775-4.85-8.231-7.408
						C144.599,164.805,163.614,174.033,164.344,164.465z M173.399,166.936c3.509,2.252,5.545,5.979,9.056,8.232
						C191.286,168.248,178.005,156.256,173.399,166.936z"/>
					<path fill-rule="evenodd" clip-rule="evenodd" fill="#FFFFFF" d="M156.112,157.057c1.456,2.559,8.369,5.595,8.231,7.408
						C163.614,174.033,144.599,164.805,156.112,157.057z"/>
					<path fill-rule="evenodd" clip-rule="evenodd" fill="#FFFFFF" d="M182.455,175.168c-3.511-2.254-5.547-5.98-9.056-8.232
						C178.005,156.256,191.286,168.248,182.455,175.168z"/>
					<path fill-rule="evenodd" clip-rule="evenodd" fill="#FFFFFF" d="M110.835,271.482c-1.41,1.884-6.284,0.302-9.056,0.823
						C103.228,266.016,108.017,267.643,110.835,271.482z"/>
					<path fill-rule="evenodd" clip-rule="evenodd" fill="#FFFFFF" d="M131.416,272.306c-2.744,0-5.488,0-8.233,0
						C124.091,266.558,130.507,266.558,131.416,272.306z"/>
					<path fill-rule="evenodd" clip-rule="evenodd" fill="#FFFFFF" d="M240.08,164.465c-13.415,34.605-30.773,72.403-46.1,107.842
						c-19.758-0.001-39.515-0.001-59.272-0.001c-0.768-2.707,2.578-5.014,4.117-6.585
						C171.077,232.762,208.009,198.262,240.08,164.465z"/>
				</g>
				
					<rect x="113.512" y="124.011" transform="matrix(0.7071 -0.7071 0.7071 0.7071 -68.9726 166.7873)" clip-path="url(#SVGID_4_)" fill-rule="evenodd" clip-rule="evenodd" fill="#FFFFFF" width="106.663" height="85.28"/>
			</g>
		</g>
		<g>
			<path fill="#FFFFFF" stroke="#878787" stroke-width="2" stroke-miterlimit="10" d="M142.7,193.789l4.285,16.487
				c0.258,0.956,0.025,1.797-0.701,2.524c-0.546,0.547-1.209,0.815-1.99,0.807c-0.78-0.007-1.405-0.247-1.875-0.717
				c-0.364-0.364-0.622-0.851-0.775-1.458l-4.989-19.233l-18.954-4.982c-0.741-0.195-1.309-0.49-1.705-0.884
				c-0.484-0.486-0.723-1.103-0.717-1.853c0.007-0.748,0.259-1.373,0.757-1.873c0.741-0.738,1.59-0.978,2.548-0.714l16.484,4.176
				l-4.235-16.356c-0.254-1.013-0.032-1.869,0.668-2.567c0.53-0.532,1.178-0.811,1.94-0.839c0.762-0.027,1.403,0.219,1.923,0.738
				c0.353,0.353,0.597,0.794,0.734,1.325l5.036,19.386l19.361,5.104c0.484,0.121,0.9,0.353,1.243,0.699
				c0.542,0.539,0.807,1.177,0.796,1.908c-0.012,0.733-0.283,1.365-0.814,1.895c-0.742,0.744-1.6,0.995-2.568,0.754L142.7,193.789z"
				/>
			<path fill="#FFFFFF" stroke="#878787" stroke-width="2" stroke-miterlimit="10" d="M169.612,184.148l-18.447-33.829
				c-0.64-1.252-0.47-2.37,0.512-3.35c0.951-0.951,1.951-1.147,2.998-0.589l34.153,18.919c0.257,0.137,0.477,0.295,0.659,0.478
				c0.53,0.532,0.799,1.163,0.808,1.898c0.008,0.736-0.223,1.338-0.693,1.808c-1,0.999-2.1,1.174-3.298,0.522l-6.693-3.676
				l-8.747,8.748l3.891,7.219c0.195,0.286,0.234,0.706,0.118,1.259c-0.117,0.555-0.373,1.03-0.769,1.426
				c-0.564,0.564-1.219,0.841-1.964,0.826c-0.744-0.013-1.39-0.293-1.935-0.838C169.977,184.74,169.779,184.468,169.612,184.148z
				 M160.496,155.84l7.66,14.215l6.463-6.464L160.496,155.84z"/>
			<path fill="#FFFFFF" stroke="#878787" stroke-width="2" stroke-miterlimit="10" d="M198.378,156.886l-28.31-28.309l17.327-17.326
				c0.5-0.501,1.133-0.754,1.897-0.763c0.767-0.007,1.407,0.247,1.923,0.763c0.529,0.531,0.799,1.179,0.806,1.943
				c0.007,0.766-0.247,1.407-0.761,1.921l-13.507,13.507l6.002,6.003l9.688-9.687c0.53-0.53,1.166-0.795,1.909-0.796
				c0.745,0.001,1.38,0.266,1.911,0.796c0.531,0.531,0.796,1.167,0.794,1.91c0,0.744-0.264,1.379-0.796,1.91l-9.685,9.687
				l14.619,14.62c0.532,0.531,0.796,1.168,0.796,1.91c0,0.745-0.264,1.38-0.796,1.91c-0.53,0.531-1.166,0.796-1.91,0.796
				C199.544,157.682,198.909,157.417,198.378,156.886z"/>
		</g>
	</g>
</g>
</svg>
