<?xml version="1.0" encoding="utf-8"?>
<!-- Generator: Adobe Illustrator 15.1.0, SVG Export Plug-In . SVG Version: 6.00 Build 0)  -->
<!DOCTYPE svg PUBLIC "-//W3C//DTD SVG 1.1//EN" "http://www.w3.org/Graphics/SVG/1.1/DTD/svg11.dtd">
<svg version="1.1" xmlns="http://www.w3.org/2000/svg" xmlns:xlink="http://www.w3.org/1999/xlink" x="0px" y="0px" width="300px"
	 height="300px" viewBox="0 0 300 300" enable-background="new 0 0 300 300" xml:space="preserve">
<g id="Calque_2">
</g>
<g id="Calque_1">
	<g>
		<path fill-rule="evenodd" clip-rule="evenodd" fill="#FFFFFF" d="M296.662,191.885c-42.504,26.694-103.621,34.775-137.139,70.456
			c-34.672-50.884-84.681-86.43-153.495-103.168c22.671-13.816,51.269-21.704,79.264-30.196
			c10.428-15.573,17.078-34.926,25.163-52.842c-1.538-2.236-7.292-0.258-5.032-6.291c-1.94-5.295,6.51-0.199,6.29-3.774
			c0.462-7.202-14.521-5.567-17.614-5.033c-0.51-7.374,6.486-6.963,13.84-7.548c4.96-0.492,2.613-8.292,6.291-10.066
			c8.081-1.792,5.095,7.488,8.807,10.066c8.496,1.314,9.643-0.354,15.097,1.258c1.441,10.667-16.025,2.428-17.614,10.065
			c-1.939,5.295,6.511,0.199,6.291,3.774c0,1.679,0,3.355,0,5.033c0.38,5.141-1.742-0.212-5.032,1.258
			c4.687,16.282,12.744,29.195,18.872,44.035c4.603-1.688,9.043-3.538,13.839-5.032c-2.143,4.568-8.038,5.381-11.323,8.807
			c3.005,13.351,12.979,19.732,11.323,37.745c-4.477-6.847-8.249-14.397-11.323-22.647c-8.055,2.849-16.258,5.548-23.905,8.807
			c0,4.195,0,8.387,0,12.582c25.21,11.073,53.417,3.71,69.199-10.065c-0.966,8.025-19.189,9.478-18.872,15.098
			c0.444,7.895,27.232,10.178,39.003,8.808c6.169,7.632,17.975,7.563,32.712,12.581c14.044,4.782,21.455,13.109,35.229,5.033
			c-15.868-14.749-45.09-22.85-61.65-32.713C246.239,165.14,271.881,178.082,296.662,191.885z M95.357,126.46
			c6.659,0.369,10.398-2.183,16.356-2.516c-0.828-9.237,1.664-21.794-1.258-28.938C106.268,106.336,100.245,115.831,95.357,126.46z
			 M121.779,122.686c2.285-2.748,9.81-0.256,11.323-3.775c-4.449-7.713-7.459-16.865-12.582-23.905
			C121.347,103.826,118.858,115.96,121.779,122.686z M120.52,127.718c1.715,6.385-2.982,12.88,0,16.356
			c5.713-4.352,14.806-5.325,21.389-8.807c-3.783-2.089-2.391-9.353-7.549-10.065C129.735,126.03,125.901,127.647,120.52,127.718z
			 M90.325,135.268c-1.071,6.057-5.219,9.041-6.291,15.098c10.24,3.353,21.866,2.801,28.938-3.774
			c-2.031-3.537,1.182-9.962-1.259-16.356C103.733,131.063,98.022,134.157,90.325,135.268z M38.74,159.173
			c14.193,3.841,25.612,10.455,37.745,16.355c3.128-8.615,13.286-10.2,16.356-18.872c-3.476-1.557-6.392-3.674-11.323-3.774
			c-1.107,3.086-1.132,7.255-5.033,7.549c-0.276-4.051,2.225-5.324,1.258-10.065C62.981,143.062,46.915,149.522,38.74,159.173z
			 M79.001,176.786c19.447,4.409,30.62,18.953,52.842,21.389c21.269,2.33,47.042-11.757,60.392-2.516
			c0.092,6.358-1.593,7.197,0,12.581c9.06,4.426,18.671,0.977,26.421-2.516c-9.114-41.061-59.525-33.557-99.394-42.778
			c-1.745,2.031-1.064,6.485-3.774,7.55c-1.589-3.024-1.618-7.608-3.775-10.065C95.839,157.272,84.891,166.179,79.001,176.786z
			 M211.107,181.818c-1.105,7.23,7.752,14.709,10.065,22.648c13.328-2.19,26.478-4.557,36.486-10.066
			C242.754,190.37,226.575,181.116,211.107,181.818z M158.266,237.179c4.92-3.889,10.231-7.383,15.098-11.324
			c-13.603-4.438-24.455-18.314-42.777-13.84C141.6,218.615,148.191,229.638,158.266,237.179z"/>
		<rect x="130.469" y="178.045" fill-rule="evenodd" clip-rule="evenodd" fill="none" width="27.168" height="15.727"/>
		<text transform="matrix(1 0 0 1 130.4688 185.9375)" fill="#FFFFFF" font-family="'PoorRichard-Regular'" font-size="11.3234">237</text>
		<rect x="189.602" y="156.656" fill-rule="evenodd" clip-rule="evenodd" fill="none" width="27.169" height="15.728"/>
		<text transform="matrix(1 0 0 1 189.6016 164.5488)" fill="#FFFFFF" font-family="'PoorRichard-Regular'" font-size="11.3234">33</text>
		<rect x="54.979" y="153.511" fill-rule="evenodd" clip-rule="evenodd" fill="none" width="27.168" height="15.727"/>
		<text transform="matrix(1 0 0 1 54.9795 161.4033)" fill="#FFFFFF" font-family="'PoorRichard-Regular'" font-size="11.3234">5</text>
	</g>
</g>
</svg>
