<?xml version="1.0" encoding="utf-8"?>
<!-- Generator: Adobe Illustrator 15.1.0, SVG Export Plug-In . SVG Version: 6.00 Build 0)  -->
<!DOCTYPE svg PUBLIC "-//W3C//DTD SVG 1.1//EN" "http://www.w3.org/Graphics/SVG/1.1/DTD/svg11.dtd">
<svg version="1.1" xmlns="http://www.w3.org/2000/svg" xmlns:xlink="http://www.w3.org/1999/xlink" x="0px" y="0px" width="300px"
	 height="300px" viewBox="0 0 300 300" enable-background="new 0 0 300 300" xml:space="preserve">
<g id="Calque_2">
</g>
<g id="Calque_1">
	<g>
		<path fill-rule="evenodd" clip-rule="evenodd" fill="#FFFFFF" d="M146.314,7.632c30.959,20.888,28.561,70.224,4.27,96.07
			C119.424,85.02,120.436,31.209,146.314,7.632z"/>
		<path fill-rule="evenodd" clip-rule="evenodd" fill="#FFFFFF" d="M82.268,71.678c32.607,14.645,70.371,34.565,57.642,87.531
			C102.063,148.664,74.085,128.255,82.268,71.678z"/>
		<path fill-rule="evenodd" clip-rule="evenodd" fill="#FFFFFF" d="M156.989,159.209c-13.326-52.163,24.839-70.22,53.372-87.531
			C228.777,120.062,193.852,151.894,156.989,159.209z"/>
		<path fill-rule="evenodd" clip-rule="evenodd" fill="#FFFFFF" d="M82.268,139.995c32.277,14.974,70.257,34.677,57.642,87.53
			C101.576,217.468,73.935,196.72,82.268,139.995z"/>
		<path fill-rule="evenodd" clip-rule="evenodd" fill="#FFFFFF" d="M214.631,142.13c7.767,55.444-20.3,75.061-57.642,85.396
			C145.461,176.461,179.454,153.498,214.631,142.13z"/>
		<path fill-rule="evenodd" clip-rule="evenodd" fill="#FFFFFF" d="M82.268,208.312c34.377,13.044,69.82,34.877,57.642,87.53
			C103.74,283.622,73.301,265.67,82.268,208.312z"/>
		<path fill-rule="evenodd" clip-rule="evenodd" fill="#FFFFFF" d="M159.125,295.842c-18.093-47.917,21.346-73.539,51.236-87.53
			C229.49,256.698,192.515,285.762,159.125,295.842z"/>
	</g>
</g>
</svg>
