<?xml version="1.0" encoding="utf-8"?>
<!-- Generator: Adobe Illustrator 15.1.0, SVG Export Plug-In . SVG Version: 6.00 Build 0)  -->
<!DOCTYPE svg PUBLIC "-//W3C//DTD SVG 1.1//EN" "http://www.w3.org/Graphics/SVG/1.1/DTD/svg11.dtd">
<svg version="1.1" xmlns="http://www.w3.org/2000/svg" xmlns:xlink="http://www.w3.org/1999/xlink" x="0px" y="0px" width="300px"
	 height="300px" viewBox="0 0 300 300" enable-background="new 0 0 300 300" xml:space="preserve">
<g id="Calque_2">
</g>
<g id="Calque_1">
	<g>
		<path fill-rule="evenodd" clip-rule="evenodd" fill="#FFFFFF" d="M295.985,278.821c0,0.435,0,0.869,0,1.304
			c-42.563,0-85.124,0-127.688,0c0-23.886,0-47.773,0-71.66c-9.998-3.032-25.616-0.441-37.784-1.304c0,24.322,0,48.642,0,72.964
			c-42.562,0-85.126,0-127.688,0c0-0.435,0-0.869,0-1.304C28.644,194.76,51.034,107.27,77.093,23.448c17.807,0,35.614,0,53.42,0
			c0,18.242,0,36.483,0,54.723c12.594,0,25.19,0,37.784,0c0.865-17.809-1.732-39.083,1.302-54.723c17.809,0,35.615,0,53.422,0
			C246.619,109.297,270.939,194.423,295.985,278.821z M131.816,170.68c11.726,0,23.454,0,35.179,0
			c2.985-16.125,0.476-37.744,1.303-56.025c-12.594,0-25.19,0-37.784,0C131.339,132.936,128.832,154.555,131.816,170.68z"/>
	</g>
</g>
</svg>
