<?xml version="1.0" encoding="utf-8"?>
<!-- Generator: Adobe Illustrator 15.1.0, SVG Export Plug-In . SVG Version: 6.00 Build 0)  -->
<!DOCTYPE svg PUBLIC "-//W3C//DTD SVG 1.1//EN" "http://www.w3.org/Graphics/SVG/1.1/DTD/svg11.dtd">
<svg version="1.1" xmlns="http://www.w3.org/2000/svg" xmlns:xlink="http://www.w3.org/1999/xlink" x="0px" y="0px" width="300px"
	 height="300px" viewBox="0 0 300 300" enable-background="new 0 0 300 300" xml:space="preserve">
<g id="Calque_2">
</g>
<g id="Calque_1">
	<g>
		<path fill="#FFFFFF" d="M293.216,134.353c0-12.455,2.099-29.508-1.165-39.299c-2.395-7.186-7.644-12.363-14.786-14.397
			c-8.406-2.392-20.432-0.778-31.517-0.778c-11.031,0-22.066,0.32-31.906-0.389c1.503-28.377,0.072-51.187-20.62-56.807
			c-10.714-2.909-27.452-0.779-40.079-0.779c-13.629,0-28.581-1.159-41.243,0c-12.993,1.19-23.061,11.927-25.29,23.735
			c-1.883,9.977,0.913,21.835-0.778,34.24c-11.078,0-21.103,0-31.517,0c-10.541,0-22.167-1.83-31.127,0.39
			C16.292,81.976,9.768,88.6,7.624,95.832c-1.513,5.11-0.778,12.181-0.778,19.066c0,35.19,0,65.731,0,100.382
			c0,11.152-1.94,30.124,0.778,39.302c1.716,5.791,8.173,13.731,15.564,15.561c7.961,1.974,20.899,0.392,31.127,0.392
			c64.697,0,127.489,0,191.043,0c11.473,0,23.396,1.622,31.517-0.392c7.113-1.76,13.675-9.187,15.564-15.561
			c2.861-9.658,0.776-28.501,0.776-39.302C293.216,187.011,293.216,162.519,293.216,134.353z M113.846,39.803
			c10.571-1.703,24.636,0,38.13,0c5.499,0,12.391,0,19.066,0c5.601,0,13.365-1.139,17.898,0.778
			c12.025,5.083,4.386,25.167,6.614,39.297c-30.479,0-60.958,0-91.436,0C105.905,65.27,98.531,42.269,113.846,39.803z
			 M225.126,199.33c-16.989,0-33.983,0-50.972,0c-0.907,16.602-0.128,34.887-0.387,52.136c-16.215,0-32.424,0-48.637,0
			c0-17.249,0-34.496,0-51.745c-17.25,0-34.5,0-51.75,0c0-16.214,0-32.427,0-48.639c17.121,0,34.241,0,51.361,0
			c0.908-16.213,0.129-34.11,0.389-50.97c-0.034-0.552-0.064-1.103,0.389-1.167c15.953,0,31.906,0,47.857,0
			c0,17.249,0,34.501,0,51.75c16.474,0.905,34.628,0.13,51.75,0.388C225.126,167.166,225.126,183.248,225.126,199.33z"/>
	</g>
</g>
</svg>
