<?xml version="1.0" encoding="UTF-8" standalone="no"?>
<!-- Created with Inkscape (http://www.inkscape.org/) -->

<svg
   xmlns:dc="http://purl.org/dc/elements/1.1/"
   xmlns:cc="http://creativecommons.org/ns#"
   xmlns:rdf="http://www.w3.org/1999/02/22-rdf-syntax-ns#"
   xmlns:svg="http://www.w3.org/2000/svg"
   xmlns="http://www.w3.org/2000/svg"
   xmlns:sodipodi="http://sodipodi.sourceforge.net/DTD/sodipodi-0.dtd"
   xmlns:inkscape="http://www.inkscape.org/namespaces/inkscape"
   width="42.333mm"
   height="42.333mm"
   viewBox="0 0 42.333 42.333"
   version="1.1"
   id="svg8"
   inkscape:version="0.92.4 (5da689c313, 2019-01-14)">
  <defs
     id="defs2" />
  <sodipodi:namedview
     id="base"
     pagecolor="#ffffff"
     bordercolor="#666666"
     borderopacity="1.0"
     inkscape:pageopacity="0.0"
     inkscape:pageshadow="2"
     inkscape:zoom="11.331339"
     inkscape:cx="93.370048"
     inkscape:cy="96.209939"
     inkscape:document-units="mm"
     inkscape:current-layer="layer1"
     showgrid="false"
     inkscape:window-width="3840"
     inkscape:window-height="2109"
     inkscape:window-x="-14"
     inkscape:window-y="-14"
     inkscape:window-maximized="1" />
  <metadata
     id="metadata5">
    <rdf:RDF>
      <cc:Work
         rdf:about="">
        <dc:format>image/svg+xml</dc:format>
        <dc:type
           rdf:resource="http://purl.org/dc/dcmitype/StillImage" />
        <dc:title></dc:title>
      </cc:Work>
    </rdf:RDF>
  </metadata>
  <g
     inkscape:label="Layer 1"
     inkscape:groupmode="layer"
     id="layer1"
     transform="translate(0,-254.667)">
    <g
       id="g1265"
       transform="matrix(0.42333,0,0,0.42402616,0.03346124,254.60237)"
       style="stroke-width:0.62449163">
      <rect
         id="rect1242"
         ry="6.2397881"
         rx="6.2500491"
         height="100"
         width="100"
         x="0"
         y="0"
         style="fill:#3838b2;stroke-width:0.62449163" />
      <svg
         height="60"
         width="60"
         version="1.1"
         x="20"
         y="16"
         viewBox="0 0 100 125"
         enable-background="new 0 0 100 100"
         xml:space="preserve"
         id="SvgjsSvg1160"
         sodipodi:docname="noun_Architecture_1437933.svg"
         inkscape:version="1.0rc1 (09960d6f05, 2020-04-09)"
         style="fill:#3838b2;stroke-width:0.62449163"><metadata
           id="SvgjsMetadata1159"><rdf:RDF><cc:Work
               rdf:about=""><dc:format>image/svg+xml</dc:format><dc:type
                 rdf:resource="http://purl.org/dc/dcmitype/StillImage" /></cc:Work></rdf:RDF></metadata><defs
           fill="#ffffff"
           id="SvgjsDefs1158" /><sodipodi:namedview
           pagecolor="#ffffff"
           bordercolor="#666666"
           borderopacity="1"
           objecttolerance="10"
           gridtolerance="10"
           guidetolerance="10"
           inkscape:pageopacity="0"
           inkscape:pageshadow="2"
           inkscape:window-width="1680"
           inkscape:window-height="988"
           id="SvgjsSodipodi:namedview1157"
           showgrid="false"
           inkscape:zoom="1.984"
           inkscape:cx="50"
           inkscape:cy="62.5"
           inkscape:window-x="-8"
           inkscape:window-y="-8"
           inkscape:window-maximized="1"
           inkscape:current-layer="svg10" /><path
           d="m 61.508823,114.09313 h 20.124401 c 1.925039,0 3.484864,-1.55983 3.484864,-3.48487 V 5.4517569 c 0,-1.9250395 -1.559825,-3.4848653 -3.484864,-3.4848653 H 17.03358 c -0.115698,-0.00558 -0.23279,-0.00558 -0.348487,0 -1.787039,0.179819 -3.144743,1.6880687 -3.136379,3.4848653 V 110.60826 c 0,1.92504 1.559826,3.48487 3.484866,3.48487 h 20.125793 c 1.925041,0 3.484866,-1.55983 3.484866,-3.48487 v -9.45234 c 0,-4.788211 3.879352,-8.668956 8.66895,-8.668956 4.788205,0 8.712163,3.879351 8.712163,8.668956 v 9.45234 c 0,1.92364 1.559825,3.48487 3.483471,3.48487 z M 41.210181,80.289935 c 0,1.925038 -1.559826,3.484866 -3.484866,3.484866 h -6.707668 c -1.925039,0 -3.484865,-1.559828 -3.484865,-3.484866 v -6.709062 c -0.0083,-1.796797 1.349339,-3.305047 3.136378,-3.484866 0.115697,-0.0055 0.23279,-0.0055 0.348487,0 h 6.707668 c 1.92504,0 3.484866,1.559826 3.484866,3.484866 z m 0,-27.922135 c 0,1.92504 -1.559826,3.484865 -3.484866,3.484865 h -6.707668 c -1.925039,0 -3.484865,-1.559825 -3.484865,-3.484865 v -6.664456 c -0.0083,-1.796797 1.349339,-3.305045 3.136378,-3.484865 0.115697,-0.0055 0.23279,-0.0055 0.348487,0 h 6.707668 c 1.92504,0 3.484866,1.559825 3.484866,3.484865 z m 0,-27.923528 c 0,1.92504 -1.559826,3.484866 -3.484866,3.484866 h -6.707668 c -1.925039,0 -3.484865,-1.559826 -3.484865,-3.484866 v -6.664455 c -0.0083,-1.796797 1.349339,-3.305047 3.136378,-3.484866 0.115697,-0.0055 0.23279,-0.0055 0.348487,0 h 6.707668 c 1.92504,0 3.484866,1.559825 3.484866,3.484866 z m 16.204623,-6.664455 c -0.0083,-1.796797 1.34934,-3.305047 3.136379,-3.484866 0.115698,-0.0055 0.232789,-0.0055 0.348486,0 h 6.709063 c 1.92504,0 3.484866,1.559825 3.484866,3.484866 v 6.664455 c 0,1.92504 -1.559826,3.484866 -3.484866,3.484866 h -6.709063 c -1.925039,0 -3.484865,-1.559826 -3.484865,-3.484866 z m 0,27.922133 c -0.0083,-1.796796 1.34934,-3.305045 3.136379,-3.484864 0.115698,-0.0055 0.232789,-0.0055 0.348486,0 h 6.709063 c 1.92504,0 3.484866,1.559824 3.484866,3.484864 v 6.664457 c 0,1.925039 -1.559826,3.484865 -3.484866,3.484865 h -6.709063 c -1.925039,0 -3.484865,-1.559826 -3.484865,-3.484865 z m 0,34.587985 v -6.709062 c -0.0083,-1.796797 1.34934,-3.305047 3.136379,-3.484866 0.115698,-0.0055 0.232789,-0.0055 0.348486,0 h 6.709063 c 1.92504,0 3.484866,1.559826 3.484866,3.484866 v 6.709062 c 0,1.925038 -1.559826,3.484866 -3.484866,3.484866 h -6.709063 c -1.925039,0 -3.484865,-1.561221 -3.484865,-3.484866 z"
           id="SvgjsPath1156"
           inkscape:connector-curvature="0"
           style="fill:#ffffff;stroke-width:0.87051016" /><path
           d="m 93.766131,119.80272 c 0.02788,-1.92502 -1.511038,-3.50716 -3.436077,-3.53364 -0.03346,0 -0.06551,0 -0.09897,0 H 8.3925084 c -1.9250396,-0.0278 -3.5071684,1.51103 -3.5336535,3.43607 -0.027879,1.92505 1.5110377,3.50717 3.4360773,3.53366 0.032061,0 0.065516,0 0.09897,0 H 90.232477 c 1.92504,0.0264 3.507169,-1.51104 3.533654,-3.43609 z"
           id="SvgjsPath1155"
           inkscape:connector-curvature="0"
           style="fill:#ffffff;stroke-width:0.87051016" /></svg>    </g>
  </g>
</svg>
