<?xml version="1.0" encoding="UTF-8" standalone="no"?>
<!-- Created with Inkscape (http://www.inkscape.org/) -->

<svg
   xmlns:dc="http://purl.org/dc/elements/1.1/"
   xmlns:cc="http://creativecommons.org/ns#"
   xmlns:rdf="http://www.w3.org/1999/02/22-rdf-syntax-ns#"
   xmlns:svg="http://www.w3.org/2000/svg"
   xmlns="http://www.w3.org/2000/svg"
   xmlns:sodipodi="http://sodipodi.sourceforge.net/DTD/sodipodi-0.dtd"
   xmlns:inkscape="http://www.inkscape.org/namespaces/inkscape"
   width="42.333mm"
   height="42.333mm"
   viewBox="0 0 42.333 42.333"
   version="1.1"
   id="svg8"
   inkscape:version="0.92.4 (5da689c313, 2019-01-14)">
  <defs
     id="defs2">
    <inkscape:perspective
       id="perspective2441"
       inkscape:persp3d-origin="290 : 193.33333 : 1"
       inkscape:vp_z="580 : 290 : 1"
       inkscape:vp_y="0 : 1000 : 0"
       inkscape:vp_x="0 : 290 : 1"
       sodipodi:type="inkscape:persp3d" />
    <inkscape:perspective
       sodipodi:type="inkscape:persp3d"
       inkscape:vp_x="0 : 30 : 1"
       inkscape:vp_y="0 : 1000 : 0"
       inkscape:vp_z="60 : 30 : 1"
       inkscape:persp3d-origin="30 : 20 : 1"
       id="perspective3452" />
    <symbol
       id="symbol-university"
       viewBox="244.5 110 489 219.9">
      <path
         d="M79,43l57,119c0,0,21-96,104-96s124,106,124,106l43-133l82-17L0,17L79,43z"
         id="path4460" />
      <path
         fill="none"
         stroke="#000000"
         stroke-width="20"
         d="M94,176l-21,39"
         id="path4462" />
      <path
         d="M300,19c0,10.5-22.6,19-50.5,19S199,29.5,199,19s22.6-19,50.5-19S300,8.5,300,19z"
         id="path4464" />
      <path
         ill="none"
         stroke="#000000"
         stroke-width="20"
         d="M112,216l-16-38L64,88c0,0-9-8-4-35s16-24,16-24"
         id="path4466" />
    </symbol>
    <inkscape:perspective
       sodipodi:type="inkscape:persp3d"
       inkscape:vp_x="0 : 526.18109 : 1"
       inkscape:vp_y="0 : 1000 : 0"
       inkscape:vp_z="744.09448 : 526.18109 : 1"
       inkscape:persp3d-origin="372.04724 : 350.78739 : 1"
       id="perspective4471" />
    <inkscape:perspective
       sodipodi:type="inkscape:persp3d"
       inkscape:vp_x="0 : 6 : 1"
       inkscape:vp_y="0 : 1000 : 0"
       inkscape:vp_z="12 : 6 : 1"
       inkscape:persp3d-origin="6 : 4 : 1"
       id="perspective4668" />
  </defs>
  <sodipodi:namedview
     id="base"
     pagecolor="#ffffff"
     bordercolor="#666666"
     borderopacity="1.0"
     inkscape:pageopacity="0.0"
     inkscape:pageshadow="2"
     inkscape:zoom="11.48759"
     inkscape:cx="79.99937"
     inkscape:cy="80.135824"
     inkscape:document-units="mm"
     inkscape:current-layer="layer1"
     showgrid="false"
     inkscape:window-width="3840"
     inkscape:window-height="2115"
     inkscape:window-x="-13"
     inkscape:window-y="-13"
     inkscape:window-maximized="1" />
  <metadata
     id="metadata5">
    <rdf:RDF>
      <cc:Work
         rdf:about="">
        <dc:format>image/svg+xml</dc:format>
        <dc:type
           rdf:resource="http://purl.org/dc/dcmitype/StillImage" />
        <dc:title></dc:title>
      </cc:Work>
    </rdf:RDF>
  </metadata>
  <g
     inkscape:label="Layer 1"
     inkscape:groupmode="layer"
     id="layer1"
     transform="translate(0,-254.667)">
    <g
       id="g1106">
      <g
         style="fill:#d8c200;fill-opacity:1"
         transform="matrix(0.42333,0,0,0.42333,18.218391,256.57867)"
         id="g1062">
        <rect
           ry="10.000079"
           y="-4.6245914"
           x="-42.981503"
           height="100"
           width="100"
           id="rect1074"
           style="fill:#d8c200;fill-opacity:1;fill-rule:evenodd;stroke-width:1.5663991" />
      </g>
      <path
         style="fill:#ffffff;stroke-width:0.22723176;fill-opacity:1"
         inkscape:connector-curvature="0"
         id="path2"
         d="m 32.170382,283.49822 c -0.262385,0 -0.475073,-0.3042 -0.475073,-0.67929 v -15.62897 c 0,-0.37509 0.212688,-0.67951 0.475073,-0.67951 0.262385,0 0.474845,0.30442 0.474845,0.67951 v 15.62897 c 0,0.37509 -0.21246,0.67929 -0.474845,0.67929 z m -1.424765,-0.67929 v -15.62897 c 0,-0.37532 -0.212688,-0.67951 -0.475073,-0.67951 -0.262385,0 -0.474845,0.30419 -0.474845,0.67951 v 15.62897 c 0,0.37509 0.21246,0.67929 0.474845,0.67929 0.262385,0 0.475073,-0.3042 0.475073,-0.67929 z M 19.347503,270.75739 c -0.262385,0 -0.474845,0.21133 -0.474845,0.47181 0,0.26047 0.21246,0.4718 0.474845,0.4718 0.262613,0 0.474846,-0.21133 0.474846,-0.4718 0,-0.26048 -0.212462,-0.47181 -0.474846,-0.47181 z m -1.899838,0 c -0.262613,0 -0.474845,0.21133 -0.474845,0.47181 0,0.26047 0.212461,0.4718 0.474845,0.4718 0.262384,0 0.474845,-0.21133 0.474845,-0.4718 2.29e-4,-0.26048 -0.212232,-0.47181 -0.474845,-0.47181 z m -1.89961,0 c -0.262384,0 -0.474845,0.21133 -0.474845,0.47181 0,0.26047 0.212461,0.4718 0.474845,0.4718 0.262384,0 0.474845,-0.21133 0.474845,-0.4718 0,-0.26048 -0.212461,-0.47181 -0.474845,-0.47181 z m -1.89961,0 c -0.262384,0 -0.474845,0.21133 -0.474845,0.47181 0,0.26047 0.212461,0.4718 0.474845,0.4718 0.262613,0 0.474846,-0.21133 0.474846,-0.4718 0,-0.26048 -0.212461,-0.47181 -0.474846,-0.47181 z m -1.899837,0 c -0.262613,0 -0.474845,0.21133 -0.474845,0.47181 0,0.26047 0.21246,0.4718 0.474845,0.4718 0.262384,0 0.474845,-0.21133 0.474845,-0.4718 2.28e-4,-0.26048 -0.212233,-0.47181 -0.474845,-0.47181 z m 0.949918,-1.41565 c -0.262384,0 -0.474845,0.21133 -0.474845,0.47181 0,0.26048 0.212461,0.4718 0.474845,0.4718 0.262385,0 0.474846,-0.21132 0.474846,-0.4718 0,-0.26048 -0.212461,-0.47181 -0.474846,-0.47181 z m 1.89961,0 c -0.262613,0 -0.474845,0.21133 -0.474845,0.47181 0,0.26048 0.212461,0.4718 0.474845,0.4718 0.262385,0 0.474845,-0.21132 0.474845,-0.4718 2.29e-4,-0.26048 -0.212232,-0.47181 -0.474845,-0.47181 z m 1.899838,0 c -0.262385,0 -0.474845,0.21133 -0.474845,0.47181 0,0.26048 0.21246,0.4718 0.474845,0.4718 0.262613,0 0.474846,-0.21132 0.474846,-0.4718 0,-0.26048 -0.212462,-0.47181 -0.474846,-0.47181 z m 1.89961,0 c -0.262385,0 -0.474845,0.21133 -0.474845,0.47181 0,0.26048 0.21246,0.4718 0.474845,0.4718 0.262384,0 0.474845,-0.21132 0.474845,-0.4718 0,-0.26048 -0.212461,-0.47181 -0.474845,-0.47181 z m 1.89961,0 c -0.262613,0 -0.474845,0.21133 -0.474845,0.47181 0,0.26048 0.21246,0.4718 0.474845,0.4718 0.262384,0 0.474845,-0.21132 0.474845,-0.4718 2.29e-4,-0.26048 -0.212233,-0.47181 -0.474845,-0.47181 z m 1.899837,0 c -0.262384,0 -0.475073,0.21133 -0.475073,0.47181 0,0.26048 0.212689,0.4718 0.475073,0.4718 0.262385,0 0.474846,-0.21132 0.474846,-0.4718 0,-0.26048 -0.212461,-0.47181 -0.474846,-0.47181 z m 1.89961,0 c -0.262157,0 -0.474845,0.21133 -0.474845,0.47181 0,0.26048 0.212688,0.4718 0.474845,0.4718 0.262157,0 0.474845,-0.21132 0.474845,-0.4718 0,-0.26048 -0.212688,-0.47181 -0.474845,-0.47181 z m 1.89961,0 c -0.262384,0 -0.474845,0.21133 -0.474845,0.47181 0,0.26048 0.212461,0.4718 0.474845,0.4718 0.262385,0 0.475074,-0.21132 0.475074,-0.4718 0,-0.26048 -0.212689,-0.47181 -0.475074,-0.47181 z m -0.949691,-1.41565 c -0.262384,0 -0.475074,0.21133 -0.475074,0.47181 0,0.26048 0.21269,0.47181 0.475074,0.47181 0.262384,0 0.474846,-0.21133 0.474846,-0.47181 0,-0.26048 -0.212462,-0.47181 -0.474846,-0.47181 z m -1.899837,0 c -0.262385,0 -0.474846,0.21133 -0.474846,0.47181 0,0.26048 0.212461,0.47181 0.474846,0.47181 0.262384,0 0.475073,-0.21133 0.475073,-0.47181 0,-0.26048 -0.212689,-0.47181 -0.475073,-0.47181 z m -1.89961,0 c -0.262385,0 -0.474845,0.21133 -0.474845,0.47181 0,0.26048 0.21246,0.47181 0.474845,0.47181 0.262156,0 0.474845,-0.21133 0.474845,-0.47181 0,-0.26048 -0.212689,-0.47181 -0.474845,-0.47181 z m -1.89961,0 c -0.262385,0 -0.474845,0.21133 -0.474845,0.47181 0,0.26048 0.21246,0.47181 0.474845,0.47181 0.262613,0 0.474846,-0.21133 0.474846,-0.47181 0,-0.26048 -0.212462,-0.47181 -0.474846,-0.47181 z m -1.899838,0 c -0.262613,0 -0.474845,0.21133 -0.474845,0.47181 0,0.26048 0.212461,0.47181 0.474845,0.47181 0.262384,0 0.474845,-0.21133 0.474845,-0.47181 2.29e-4,-0.26048 -0.212232,-0.47181 -0.474845,-0.47181 z m -1.89961,0 c -0.262384,0 -0.474845,0.21133 -0.474845,0.47181 0,0.26048 0.212461,0.47181 0.474845,0.47181 0.262384,0 0.474845,-0.21133 0.474845,-0.47181 0,-0.26048 -0.212461,-0.47181 -0.474845,-0.47181 z m 0.949919,-1.41564 c -0.262385,0 -0.474845,0.21132 -0.474845,0.4718 0,0.26048 0.21246,0.47181 0.474845,0.47181 0.262613,0 0.474846,-0.21133 0.474846,-0.47181 0,-0.26048 -0.212462,-0.4718 -0.474846,-0.4718 z m 1.89961,0 c -0.262385,0 -0.474845,0.21132 -0.474845,0.4718 0,0.26048 0.21246,0.47181 0.474845,0.47181 0.262384,0 0.474845,-0.21133 0.474845,-0.47181 0,-0.26048 -0.212461,-0.4718 -0.474845,-0.4718 z m 1.89961,0 c -0.262613,0 -0.474845,0.21132 -0.474845,0.4718 0,0.26048 0.21246,0.47181 0.474845,0.47181 0.262384,0 0.474845,-0.21133 0.474845,-0.47181 2.29e-4,-0.26048 -0.212233,-0.4718 -0.474845,-0.4718 z m 1.899837,0 c -0.262384,0 -0.475073,0.21132 -0.475073,0.4718 0,0.26048 0.212689,0.47181 0.475073,0.47181 0.262385,0 0.474846,-0.21133 0.474846,-0.47181 0,-0.26048 -0.212461,-0.4718 -0.474846,-0.4718 z m -8.548586,1.41564 c -0.262384,0 -0.474845,0.21133 -0.474845,0.47181 0,0.26048 0.212461,0.47181 0.474845,0.47181 0.262613,0 0.474846,-0.21133 0.474846,-0.47181 0,-0.26048 -0.212461,-0.47181 -0.474846,-0.47181 z m 7.598668,2.8313 c -0.262385,0 -0.474845,0.21133 -0.474845,0.47181 0,0.26047 0.21246,0.4718 0.474845,0.4718 0.262156,0 0.474845,-0.21133 0.474845,-0.4718 0,-0.26048 -0.212689,-0.47181 -0.474845,-0.47181 z m 1.89961,0 c -0.262385,0 -0.474846,0.21133 -0.474846,0.47181 0,0.26047 0.212461,0.4718 0.474846,0.4718 0.262384,0 0.475073,-0.21133 0.475073,-0.4718 0,-0.26048 -0.212689,-0.47181 -0.475073,-0.47181 z m 1.899837,0 c -0.262384,0 -0.475074,0.21133 -0.475074,0.47181 0,0.26047 0.21269,0.4718 0.475074,0.4718 0.262384,0 0.474846,-0.21133 0.474846,-0.4718 0,-0.26048 -0.212462,-0.47181 -0.474846,-0.47181 z m 1.89961,0 c -0.262157,0 -0.474845,0.21133 -0.474845,0.47181 0,0.26047 0.212688,0.4718 0.474845,0.4718 0.262157,0 0.474845,-0.21133 0.474845,-0.4718 0,-0.26048 -0.212688,-0.47181 -0.474845,-0.47181 z m 1.89961,1.41565 v 1.41565 c 0,3.51239 -2.15698,6.53417 -5.223984,7.82524 v 2.08429 H 15.07321 v -2.08429 c -3.067233,-1.29107 -5.2242118,-4.31285 -5.2242118,-7.82524 v -1.41565 z m -6.173903,9.56932 4.56e-4,-4.5e-4 c -0.755011,0.21767 -1.550372,0.34066 -2.374912,0.34066 h -1.899837 c -0.82454,0 -1.6199,-0.12254 -2.375139,-0.34066 l 4.55e-4,4.5e-4 v 0.81202 h 6.648977 z m 5.224212,-8.62571 H 10.798917 v 0.47204 c 0,4.16313 3.408948,7.55004 7.598667,7.55004 h 1.89961 c 4.189719,0 7.598667,-3.38691 7.598667,-7.55004 z" />
    </g>
  </g>
</svg>
