<?xml version="1.0" encoding="UTF-8" standalone="no"?>
<!-- Created with Inkscape (http://www.inkscape.org/) -->

<svg
   xmlns:dc="http://purl.org/dc/elements/1.1/"
   xmlns:cc="http://creativecommons.org/ns#"
   xmlns:rdf="http://www.w3.org/1999/02/22-rdf-syntax-ns#"
   xmlns:svg="http://www.w3.org/2000/svg"
   xmlns="http://www.w3.org/2000/svg"
   xmlns:sodipodi="http://sodipodi.sourceforge.net/DTD/sodipodi-0.dtd"
   xmlns:inkscape="http://www.inkscape.org/namespaces/inkscape"
   width="42.333mm"
   height="42.333mm"
   viewBox="0 0 42.333 42.333"
   version="1.1"
   id="svg8"
   inkscape:version="0.92.4 (5da689c313, 2019-01-14)">
  <defs
     id="defs2">
    <inkscape:perspective
       id="perspective3380"
       inkscape:persp3d-origin="300.5 : 200.33333 : 1"
       inkscape:vp_z="601 : 300.5 : 1"
       inkscape:vp_y="0 : 1000 : 0"
       inkscape:vp_x="0 : 300.5 : 1"
       sodipodi:type="inkscape:persp3d" />
    <inkscape:perspective
       sodipodi:type="inkscape:persp3d"
       inkscape:vp_x="0 : 375 : 1"
       inkscape:vp_y="0 : 1000 : 0"
       inkscape:vp_z="750 : 375 : 1"
       inkscape:persp3d-origin="375 : 250 : 1"
       id="perspective3990" />
    <inkscape:perspective
       sodipodi:type="inkscape:persp3d"
       inkscape:vp_x="0 : 300.5 : 1"
       inkscape:vp_y="0 : 1000 : 0"
       inkscape:vp_z="601 : 300.5 : 1"
       inkscape:persp3d-origin="300.5 : 200.33333 : 1"
       id="perspective3380-7" />
    <inkscape:perspective
       id="perspective3990-0"
       inkscape:persp3d-origin="375 : 250 : 1"
       inkscape:vp_z="750 : 375 : 1"
       inkscape:vp_y="0 : 1000 : 0"
       inkscape:vp_x="0 : 375 : 1"
       sodipodi:type="inkscape:persp3d" />
  </defs>
  <sodipodi:namedview
     id="base"
     pagecolor="#ffffff"
     bordercolor="#666666"
     borderopacity="1.0"
     inkscape:pageopacity="0.0"
     inkscape:pageshadow="2"
     inkscape:zoom="11.48759"
     inkscape:cx="66.027087"
     inkscape:cy="80.135824"
     inkscape:document-units="mm"
     inkscape:current-layer="layer1"
     showgrid="false"
     inkscape:window-width="3840"
     inkscape:window-height="2115"
     inkscape:window-x="-13"
     inkscape:window-y="-13"
     inkscape:window-maximized="1" />
  <metadata
     id="metadata5">
    <rdf:RDF>
      <cc:Work
         rdf:about="">
        <dc:format>image/svg+xml</dc:format>
        <dc:type
           rdf:resource="http://purl.org/dc/dcmitype/StillImage" />
        <dc:title></dc:title>
      </cc:Work>
    </rdf:RDF>
  </metadata>
  <g
     inkscape:label="Layer 1"
     inkscape:groupmode="layer"
     id="layer1"
     transform="translate(0,-254.667)">
    <g
       id="g6"
       transform="matrix(0.38084177,0,0,0.39017168,11.483418,265.00959)"
       style="fill:#ffffff;fill-opacity:1" />
    <g
       id="g1134"
       transform="matrix(0.42333,0,0,0.42333,0,254.667)"
       style="stroke-width:0.62500489" />
    <g
       id="g1179"
       transform="matrix(0.42333,0,0,0.42333,0,254.667)"
       style="stroke-width:0.62500489">
      <rect
         id="rect1138"
         ry="10"
         rx="10"
         height="100"
         width="100"
         x="0"
         y="0"
         style="fill:#0d320d;stroke-width:0.62500489;fill-opacity:1" />
      <svg
         height="60"
         width="60"
         version="1.1"
         x="20"
         y="16"
         viewBox="0 0 61.248 87.28375"
         style="fill:#0d0d0d;stroke-width:0.62500489"
         xml:space="preserve"
         id="SvgjsSvg1282"
         sodipodi:docname="noun_Camera_1082335.svg"
         inkscape:version="1.0rc1 (09960d6f05, 2020-04-09)"><metadata
           id="SvgjsMetadata1281"><rdf:RDF><cc:Work
               rdf:about=""><dc:format>image/svg+xml</dc:format><dc:type
                 rdf:resource="http://purl.org/dc/dcmitype/StillImage" /></cc:Work></rdf:RDF></metadata><defs
           fill="#ffffff"
           id="SvgjsDefs1280" /><sodipodi:namedview
           pagecolor="#ffffff"
           bordercolor="#666666"
           borderopacity="1"
           objecttolerance="10"
           gridtolerance="10"
           guidetolerance="10"
           inkscape:pageopacity="0"
           inkscape:pageshadow="2"
           inkscape:window-width="1680"
           inkscape:window-height="988"
           id="SvgjsSodipodi:namedview1279"
           showgrid="false"
           inkscape:zoom="5.6826154"
           inkscape:cx="44.827192"
           inkscape:cy="39.285363"
           inkscape:window-x="-8"
           inkscape:window-y="-8"
           inkscape:window-maximized="1"
           inkscape:current-layer="svg70" /><g
           id="SvgjsG1278"
           transform="translate(0,10)"
           style="fill:#ffffff;stroke-width:0.62500489"><path
             d="m 30.659,69.827 h -0.071 c -0.452,0 -0.897,-0.113 -1.294,-0.33 C 28.246,68.925 3.601,55.262 3.601,36.304 h 5.401 c 0,13.574 16.827,24.792 21.622,27.712 4.792,-2.919 21.621,-14.137 21.621,-27.712 h 5.401 c 0,18.957 -24.645,32.62 -25.694,33.193 -0.396,0.216 -0.841,0.33 -1.293,0.33 z"
             id="SvgjsPath1277"
             inkscape:connector-curvature="0"
             style="fill:#ffffff;stroke-width:0.62500489" /></g><g
           id="SvgjsG1276"
           transform="translate(0,10)"
           style="fill:#ffffff;stroke-width:0.62500489"><path
             d="m 54.964,31.067 c -1.491,0 -2.7,-1.209 -2.7,-2.7 V 15.009 C 50.29,12.739 42.953,5.4 30.606,5.4 18.268,5.4 10.957,12.729 8.985,15.006 v 13.36 c 0,1.491 -1.209,2.7 -2.7,2.7 -1.491,0 -2.7,-1.209 -2.7,-2.7 v -14.32 c 0,-0.578 0.186,-1.141 0.529,-1.606 C 4.488,11.933 13.51,0 30.606,0 c 17.093,0 26.149,11.929 26.526,12.437 0.346,0.465 0.533,1.03 0.533,1.61 v 14.32 c -10e-4,1.491 -1.21,2.7 -2.701,2.7 z"
             id="SvgjsPath1275"
             inkscape:connector-curvature="0"
             style="fill:#ffffff;stroke-width:0.62500489" /></g><g
           id="SvgjsG1274"
           transform="translate(0,10)"
           style="fill:#ffffff;stroke-width:0.62500489"><path
             d="m 30.624,51.668 c -10.707,0 -19.417,-8.711 -19.417,-19.417 0,-10.707 8.711,-19.417 19.417,-19.417 10.707,0 19.417,8.711 19.417,19.417 0,10.706 -8.711,19.417 -19.417,19.417 z m 0,-33.434 c -7.729,0 -14.016,6.288 -14.016,14.016 0,7.729 6.288,14.017 14.016,14.017 7.729,0 14.017,-6.288 14.017,-14.017 C 44.64,24.522 38.352,18.234 30.624,18.234 Z"
             id="SvgjsPath1273"
             inkscape:connector-curvature="0"
             style="fill:#ffffff;stroke-width:0.62500489" /></g><g
           id="SvgjsG1272"
           transform="translate(0,10)"
           style="fill:#ffffff;stroke-width:0.62500489"><circle
             cx="44.631001"
             cy="13.233"
             r="2.112"
             id="SvgjsCircle1271"
             style="fill:#ffffff;stroke-width:0.62500489" /></g><g
           id="SvgjsG1270"
           transform="translate(0,10)"
           style="fill:#ffffff;stroke-width:0.62500489"><path
             d="m 30.624,51.668 c -15.3,0 -29.421,-17.076 -30.015,-17.803 -0.812,-0.994 -0.812,-2.422 0,-3.416 0.594,-0.727 14.714,-17.803 30.015,-17.803 15.301,0 29.422,17.076 30.016,17.803 0.812,0.994 0.812,2.422 0,3.416 -0.595,0.726 -14.716,17.803 -30.016,17.803 z M 6.309,32.157 c 3.796,4.092 14.133,14.11 24.315,14.11 10.21,0 20.528,-10.016 24.317,-14.108 C 51.146,28.068 40.808,18.047 30.624,18.047 20.441,18.046 10.105,28.064 6.309,32.157 Z"
             id="SvgjsPath1269"
             inkscape:connector-curvature="0"
             style="fill:#ffffff;stroke-width:0.62500489" /></g><path
           d="m 30.433,33.128 c -0.84,0 -1.649,0.123 -2.421,0.335 0.065,0.056 0.125,0.117 0.186,0.177 1.488,0.766 2.507,2.313 2.507,4.101 0,2.548 -2.065,4.613 -4.613,4.613 -1.969,0 -3.646,-1.236 -4.308,-2.973 -0.301,0.903 -0.473,1.865 -0.473,2.869 0,5.038 4.084,9.122 9.122,9.122 5.038,0 9.122,-4.084 9.122,-9.122 0,-5.038 -4.085,-9.122 -9.122,-9.122 z m 6.211,11.997 c -0.689,1.865 -2.236,3.318 -4.139,3.887 -0.079,0.023 -0.159,0.034 -0.237,0.034 -0.356,0 -0.684,-0.231 -0.791,-0.59 -0.131,-0.437 0.118,-0.898 0.555,-1.029 1.408,-0.421 2.553,-1.496 3.062,-2.876 0.158,-0.428 0.635,-0.647 1.061,-0.489 0.428,0.16 0.647,0.635 0.489,1.063 z"
           id="SvgjsPath1268"
           inkscape:connector-curvature="0"
           style="fill:#ffffff;stroke-width:0.62500489" /></svg>    </g>
  </g>
</svg>
