<?xml version="1.0" encoding="UTF-8" standalone="no"?>
<!-- Created with Inkscape (http://www.inkscape.org/) -->

<svg
   xmlns:dc="http://purl.org/dc/elements/1.1/"
   xmlns:cc="http://creativecommons.org/ns#"
   xmlns:rdf="http://www.w3.org/1999/02/22-rdf-syntax-ns#"
   xmlns:svg="http://www.w3.org/2000/svg"
   xmlns="http://www.w3.org/2000/svg"
   xmlns:sodipodi="http://sodipodi.sourceforge.net/DTD/sodipodi-0.dtd"
   xmlns:inkscape="http://www.inkscape.org/namespaces/inkscape"
   width="42.333mm"
   height="42.333mm"
   viewBox="0 0 42.333 42.333"
   version="1.1"
   id="svg8"
   inkscape:version="0.92.4 (5da689c313, 2019-01-14)">
  <defs
     id="defs2" />
  <sodipodi:namedview
     id="base"
     pagecolor="#ffffff"
     bordercolor="#666666"
     borderopacity="1.0"
     inkscape:pageopacity="0.0"
     inkscape:pageshadow="2"
     inkscape:zoom="11.48759"
     inkscape:cx="79.99937"
     inkscape:cy="79.99937"
     inkscape:document-units="mm"
     inkscape:current-layer="layer1"
     showgrid="false"
     inkscape:window-width="3840"
     inkscape:window-height="2115"
     inkscape:window-x="-13"
     inkscape:window-y="-13"
     inkscape:window-maximized="1" />
  <metadata
     id="metadata5">
    <rdf:RDF>
      <cc:Work
         rdf:about="">
        <dc:format>image/svg+xml</dc:format>
        <dc:type
           rdf:resource="http://purl.org/dc/dcmitype/StillImage" />
        <dc:title></dc:title>
      </cc:Work>
    </rdf:RDF>
  </metadata>
  <g
     inkscape:label="Layer 1"
     inkscape:groupmode="layer"
     id="layer1"
     transform="translate(0,-254.667)">
    <rect
       style="fill:#fdd315;fill-rule:evenodd;stroke-width:0.38625991;fill-opacity:1"
       id="rect826"
       width="42.333"
       height="42.333"
       x="0"
       y="254.66701"
       ry="5.9395924" />
    <g
       id="g854"
       transform="matrix(0.38014109,0,0,0.39828959,12.344646,263.14858)"
       style="fill:#ffffff;fill-opacity:1">
      <rect
         x="-55.714397"
         y="18.160654"
         width="14.728141"
         height="12.273451"
         transform="rotate(-90)"
         id="rect4"
         style="stroke-width:1.22733998;fill:#ffffff;fill-opacity:1" />
      <path
         d="M 43.934901,59.396434 H 4.6598578 A 3.6820352,3.6820352 0 0 1 0.97782256,55.714398 V 16.439356 A 3.6820352,3.6820352 0 0 1 4.6598578,12.757321 h 8.5914152 v 4.90938 H 5.8872029 V 54.487054 H 42.707556 V 17.666701 h -7.364072 v -4.90938 h 8.591417 a 3.6820352,3.6820352 0 0 1 3.682035,3.682035 v 39.275042 a 3.6820352,3.6820352 0 0 1 -3.682035,3.682036 z"
         id="path6"
         inkscape:connector-curvature="0"
         style="stroke-width:1.22733998;fill:#ffffff;fill-opacity:1" />
      <rect
         x="-16.439356"
         y="18.160654"
         width="4.9093804"
         height="12.273451"
         transform="rotate(-90)"
         id="rect8"
         style="stroke-width:1.22733998;fill:#ffffff;fill-opacity:1" />
      <rect
         x="-26.752069"
         y="-20.121393"
         width="4.9093804"
         height="12.273451"
         transform="scale(-1)"
         id="rect10"
         style="stroke-width:1.22733998;fill:#ffffff;fill-opacity:1" />
      <path
         d="M 34.116139,27.485461 H 14.478619 A 3.6820352,3.6820352 0 0 1 10.796583,23.803427 V 4.1659062 a 3.6820352,3.6820352 0 0 1 3.682036,-3.68203524 h 19.63752 A 3.6820352,3.6820352 0 0 1 37.798175,4.1659062 V 23.803427 a 3.6820352,3.6820352 0 0 1 -3.682036,3.682034 z M 15.705963,22.576081 H 32.888794 V 5.3932513 H 15.705963 Z"
         id="path12"
         inkscape:connector-curvature="0"
         style="stroke-width:1.22733998;fill:#ffffff;fill-opacity:1" />
    </g>
  </g>
</svg>
