<svg xmlns="http://www.w3.org/2000/svg" version="1.1" xmlns:xlink="http://www.w3.org/1999/xlink" xmlns:svgjs="http://svgjs.com/svgjs" width="100" height="100"><rect width="100" height="100" rx="10" ry="10" fill="#121212"></rect><svg xmlns="http://www.w3.org/2000/svg" xmlns:xlink="http://www.w3.org/1999/xlink" version="1.1" x="20" y="16" width="60" height="60" viewBox="0 0 15 15" xmlns:svgjs="http://svgjs.com/svgjs" fill="#121212">
<path d="M9,1 C6.5,1 5,3 5,5 C5,5 5,14.5 5,14.5 C5,15 7,15 7,14.5 C7,14.5 7,12 7,12 L11,12 C11,12 11,14.5 11,14.5 C11,15 13,15 13,14.5 C13,14.5 13,5 13,5 C13,3 11.5,1 9,1 z M1.5,1 L3.5,5 C3.5,3 4,1.5 6,1 L1.5,1 z" fill="#ffffff"></path>
</svg></svg>