<?xml version="1.0" encoding="UTF-8" standalone="no"?>
<!-- Created with Inkscape (http://www.inkscape.org/) -->

<svg
   xmlns:dc="http://purl.org/dc/elements/1.1/"
   xmlns:cc="http://creativecommons.org/ns#"
   xmlns:rdf="http://www.w3.org/1999/02/22-rdf-syntax-ns#"
   xmlns:svg="http://www.w3.org/2000/svg"
   xmlns="http://www.w3.org/2000/svg"
   xmlns:sodipodi="http://sodipodi.sourceforge.net/DTD/sodipodi-0.dtd"
   xmlns:inkscape="http://www.inkscape.org/namespaces/inkscape"
   width="42.333mm"
   height="42.333mm"
   viewBox="0 0 42.333 42.333"
   version="1.1"
   id="svg8"
   inkscape:version="0.92.4 (5da689c313, 2019-01-14)">
  <defs
     id="defs2" />
  <sodipodi:namedview
     id="base"
     pagecolor="#ffffff"
     bordercolor="#666666"
     borderopacity="1.0"
     inkscape:pageopacity="0.0"
     inkscape:pageshadow="2"
     inkscape:zoom="11.48759"
     inkscape:cx="79.99937"
     inkscape:cy="79.99937"
     inkscape:document-units="mm"
     inkscape:current-layer="layer1"
     showgrid="false"
     inkscape:window-width="3840"
     inkscape:window-height="2115"
     inkscape:window-x="-13"
     inkscape:window-y="-13"
     inkscape:window-maximized="1" />
  <metadata
     id="metadata5">
    <rdf:RDF>
      <cc:Work
         rdf:about="">
        <dc:format>image/svg+xml</dc:format>
        <dc:type
           rdf:resource="http://purl.org/dc/dcmitype/StillImage" />
        <dc:title></dc:title>
      </cc:Work>
    </rdf:RDF>
  </metadata>
  <g
     inkscape:label="Layer 1"
     inkscape:groupmode="layer"
     id="layer1"
     transform="translate(0,-254.667)">
    <rect
       style="fill:#c832ff;fill-opacity:1;fill-rule:evenodd;stroke-width:0.8939656;paint-order:stroke markers fill"
       id="rect836"
       width="42.333"
       height="42.333"
       x="0"
       y="254.66701"
       ry="4.2333331" />
    <g
       id="g6"
       transform="matrix(0.38084177,0,0,0.39017168,11.483418,265.00959)"
       style="fill:#ffffff;fill-opacity:1" />
    <path
       id="path934"
       d="m 25.070286,269.62198 v 12.5 c 0,5.00002 -8,5.00002 -8,0 v -12.5 c 0,-4.99998 8,-4.99998 8,0 z m -4,-2.5 c -1.46666,0 -2.66666,1.12502 -2.66666,2.5 0,1.375 1.2,2.50002 2.66666,2.50002 1.46667,0 2.66667,-1.12502 2.66667,-2.50002 0,-1.37498 -1.2,-2.5 -2.66667,-2.5 z m 0,6.25 c -1.46666,0 -2.66666,1.12498 -2.66666,2.50002 0,1.375 1.2,2.49998 2.66666,2.49998 1.46667,0 2.66667,-1.12498 2.66667,-2.49998 0,-1.37504 -1.2,-2.50002 -2.66667,-2.50002 z m 0,6.25002 c -1.46666,0 -2.66666,1.12498 -2.66666,2.49998 0,1.37498 1.2,2.50002 2.66666,2.50002 1.46667,0 2.66667,-1.12504 2.66667,-2.50002 0,-1.375 -1.2,-2.49998 -2.66667,-2.49998 z"
       inkscape:connector-curvature="0"
       style="fill:#ffffff;fill-opacity:1;stroke-width:0.26458332" />
  </g>
</svg>
