<svg xmlns="http://www.w3.org/2000/svg" version="1.1" xmlns:xlink="http://www.w3.org/1999/xlink" xmlns:svgjs="http://svgjs.com/svgjs" width="100" height="100"><rect width="100" height="100" rx="10" ry="10" fill="#32d8b1"></rect><svg xmlns:dc="http://purl.org/dc/elements/1.1/" xmlns:cc="http://creativecommons.org/ns#" xmlns:rdf="http://www.w3.org/1999/02/22-rdf-syntax-ns#" xmlns:svg="http://www.w3.org/2000/svg" xmlns="http://www.w3.org/2000/svg" xmlns:sodipodi="http://sodipodi.sourceforge.net/DTD/sodipodi-0.dtd" xmlns:inkscape="http://www.inkscape.org/namespaces/inkscape" inkscape:version="1.0rc1 (09960d6f05, 2020-04-09)" sodipodi:docname="noun_Fitness_111448.svg" id="SvgjsSvg1233" xml:space="preserve" enable-background="new 0 0 100 100" viewBox="0 0 100 125" y="16" x="20" version="1.1" xmlns:xlink="http://www.w3.org/1999/xlink" xmlns:svgjs="http://svgjs.com/svgjs" width="60" height="60" fill="#32d8b1"><metadata id="SvgjsMetadata1232"><rdf:RDF><cc:Work rdf:about=""><dc:format>image/svg+xml</dc:format><dc:type rdf:resource="http://purl.org/dc/dcmitype/StillImage"></dc:type></cc:Work></rdf:RDF></metadata><defs id="SvgjsDefs1231" fill="#ffffff"></defs><sodipodi:namedview inkscape:current-layer="svg12" inkscape:window-maximized="1" inkscape:window-y="-8" inkscape:window-x="-8" inkscape:cy="81.669645" inkscape:cx="44.207484" inkscape:zoom="3.968" showgrid="false" id="SvgjsSodipodi:namedview1230" inkscape:window-height="988" inkscape:window-width="1680" inkscape:pageshadow="2" inkscape:pageopacity="0" guidetolerance="10" gridtolerance="10" objecttolerance="10" borderopacity="1" bordercolor="#666666" pagecolor="#ffffff"></sodipodi:namedview><g transform="matrix(1.1639761,0,0,1.188355,-8.0763983,0.5486289)" id="SvgjsG1229" fill="#ffffff"><circle id="SvgjsCircle1228" r="6.7199998" cy="12.745" cx="59.221001" fill="#ffffff" clip-rule="evenodd" fill-rule="evenodd"></circle><path inkscape:connector-curvature="0" id="SvgjsPath1227" d="M 85.945,84.721 H 79.143 C 70.1,67.702 73.481,51.185 76.61,42.305 l 1.6,0.36 1.665,-7.388 c 0.104,-0.293 0.168,-0.599 0.205,-0.911 l 1.461,-6.484 -7.005,-1.579 -0.868,3.855 -9.683,2.213 -5.819,-9.438 c -0.58,-0.939 -1.475,-1.558 -2.464,-1.822 -0.554,-0.302 -1.141,-0.553 -1.79,-0.683 -3.46,-0.703 -6.843,1.542 -7.544,5.01 l -3.898,19.29 -2.804,12.5 -14.129,-0.622 c -2.66,-0.113 -4.895,1.939 -5.011,4.59 -0.117,2.65 1.938,4.895 4.589,5.012 l 18.148,0.797 c 2.362,0.112 4.391,-1.478 4.898,-3.749 l 1.695,-7.557 3.622,7.803 -8.501,16.658 c -0.764,1.497 -0.664,3.202 0.108,4.562 H 12.562 c -2.653,0 -4.805,2.151 -4.805,4.805 0,2.652 2.151,4.805 4.805,4.805 h 73.383 c 2.652,0 4.805,-2.152 4.805,-4.805 0,-2.655 -2.152,-4.806 -4.805,-4.806 z M 53.532,84.529 63.103,65.786 c 0.672,-1.316 0.7,-2.87 0.078,-4.212 l -7.702,-16.566 1.617,-8.001 1.386,2.248 c 0.767,1.244 2.113,1.972 3.531,1.972 0.306,0 0.616,-0.035 0.925,-0.105 l 8.709,-1.991 -0.44,1.958 1.89,0.425 c -3.204,9.324 -6.439,25.908 2.01,43.208 h -21.69 c 0.037,-0.067 0.081,-0.124 0.115,-0.193 z" fill="#ffffff" clip-rule="evenodd" fill-rule="evenodd"></path></g></svg></svg>