<svg xmlns="http://www.w3.org/2000/svg" version="1.1" xmlns:xlink="http://www.w3.org/1999/xlink" xmlns:svgjs="http://svgjs.com/svgjs" width="100" height="100"><rect width="100" height="100" rx="10" ry="10" fill="#3838b2"></rect><svg xmlns:dc="http://purl.org/dc/elements/1.1/" xmlns:cc="http://creativecommons.org/ns#" xmlns:rdf="http://www.w3.org/1999/02/22-rdf-syntax-ns#" xmlns:svg="http://www.w3.org/2000/svg" xmlns="http://www.w3.org/2000/svg" xmlns:sodipodi="http://sodipodi.sourceforge.net/DTD/sodipodi-0.dtd" xmlns:inkscape="http://www.inkscape.org/namespaces/inkscape" inkscape:version="1.0rc1 (09960d6f05, 2020-04-09)" sodipodi:docname="noun_graffiti wall_477951.svg" id="SvgjsSvg1154" xml:space="preserve" enable-background="new 0 0 100 100" viewBox="0 0 100 125" y="16" x="20" version="1.1" xmlns:xlink="http://www.w3.org/1999/xlink" xmlns:svgjs="http://svgjs.com/svgjs" width="60" height="60" fill="#3838b2"><metadata id="SvgjsMetadata1153"><rdf:RDF><cc:Work rdf:about=""><dc:format>image/svg+xml</dc:format><dc:type rdf:resource="http://purl.org/dc/dcmitype/StillImage"></dc:type></cc:Work></rdf:RDF></metadata><defs id="SvgjsDefs1152" fill="#ffffff"></defs><sodipodi:namedview inkscape:current-layer="svg36" inkscape:window-maximized="1" inkscape:window-y="-8" inkscape:window-x="-8" inkscape:cy="62.5" inkscape:cx="50" inkscape:zoom="1.984" showgrid="false" id="SvgjsSodipodi:namedview1151" inkscape:window-height="988" inkscape:window-width="1680" inkscape:pageshadow="2" inkscape:pageopacity="0" guidetolerance="10" gridtolerance="10" objecttolerance="10" borderopacity="1" bordercolor="#666666" pagecolor="#ffffff"></sodipodi:namedview><g transform="matrix(1.4429374,0,0,1.4429374,-22.146871,-8.8587488)" id="SvgjsG1150" fill="#ffffff"><rect id="SvgjsRect1149" height="12" width="24" fill="#ffffff" y="20" x="17"></rect><rect id="SvgjsRect1148" height="12" width="24" fill="#ffffff" y="20" x="45"></rect><rect id="SvgjsRect1147" height="12" width="10" fill="#ffffff" y="20" x="73"></rect><rect id="SvgjsRect1146" height="12" width="10" fill="#ffffff" y="36" x="17"></rect><polygon id="SvgjsPolygon1145" points="42.699,48 47.289,48 46.961,44.723 " fill="#ffffff"></polygon><path inkscape:connector-curvature="0" id="SvgjsPath1144" d="m 49.992,37.705 c 0.832,0.359 1.406,1.143 1.496,2.047 L 52.312,48 H 55 V 36 H 31 v 12 h 3.498 l 12.979,-9.982 c 0.718,-0.553 1.683,-0.67 2.515,-0.313 z" fill="#ffffff"></path><path inkscape:connector-curvature="0" id="SvgjsPath1143" d="m 59,48 h 1.598 l 8.73,-7.857 c 1.027,-0.928 2.605,-0.842 3.531,0.186 0.922,1.025 0.84,2.607 -0.188,3.529 L 68.07,48 H 83 V 36 H 59 Z" fill="#ffffff"></path><path inkscape:connector-curvature="0" id="SvgjsPath1142" d="M 41,52 H 37.5 L 32,56.23 V 62 c 0,0.553 -0.447,1 -1,1 -0.553,0 -1,-0.447 -1,-1 v -4.23 l -5.477,4.213 C 24.07,62.33 23.535,62.5 23.002,62.5 c -0.75,0 -1.49,-0.336 -1.982,-0.977 -0.844,-1.094 -0.639,-2.664 0.457,-3.506 L 29.299,52 H 17 v 12 h 24 z" fill="#ffffff"></path><path inkscape:connector-curvature="0" id="SvgjsPath1141" d="m 69,52 h -5.375 l -10.953,9.857 c -0.701,0.631 -1.697,0.812 -2.574,0.475 -0.879,-0.34 -1.492,-1.146 -1.586,-2.084 L 47.688,52 H 45 v 12 h 24 z" fill="#ffffff"></path><polygon id="SvgjsPolygon1140" points="56.152,52 52.711,52 52.996,54.84 " fill="#ffffff"></polygon><rect id="SvgjsRect1139" height="12" width="10" fill="#ffffff" y="52" x="73"></rect><rect id="SvgjsRect1138" height="12" width="10" fill="#ffffff" y="68" x="17"></rect><rect id="SvgjsRect1137" height="12" width="24" fill="#ffffff" y="68" x="31"></rect><rect id="SvgjsRect1136" height="12" width="24" fill="#ffffff" y="68" x="59"></rect></g></svg></svg>