<?xml version="1.0" encoding="UTF-8" standalone="no"?>
<!-- Created with Inkscape (http://www.inkscape.org/) -->

<svg
   xmlns:dc="http://purl.org/dc/elements/1.1/"
   xmlns:cc="http://creativecommons.org/ns#"
   xmlns:rdf="http://www.w3.org/1999/02/22-rdf-syntax-ns#"
   xmlns:svg="http://www.w3.org/2000/svg"
   xmlns="http://www.w3.org/2000/svg"
   xmlns:sodipodi="http://sodipodi.sourceforge.net/DTD/sodipodi-0.dtd"
   xmlns:inkscape="http://www.inkscape.org/namespaces/inkscape"
   width="42.333mm"
   height="42.333mm"
   viewBox="0 0 42.333 42.333"
   version="1.1"
   id="svg8"
   inkscape:version="0.92.4 (5da689c313, 2019-01-14)">
  <defs
     id="defs2" />
  <sodipodi:namedview
     id="base"
     pagecolor="#ffffff"
     bordercolor="#666666"
     borderopacity="1.0"
     inkscape:pageopacity="0.0"
     inkscape:pageshadow="2"
     inkscape:zoom="11.48759"
     inkscape:cx="79.99937"
     inkscape:cy="79.99937"
     inkscape:document-units="mm"
     inkscape:current-layer="layer1"
     showgrid="false"
     inkscape:window-width="3840"
     inkscape:window-height="2115"
     inkscape:window-x="-13"
     inkscape:window-y="-13"
     inkscape:window-maximized="1" />
  <metadata
     id="metadata5">
    <rdf:RDF>
      <cc:Work
         rdf:about="">
        <dc:format>image/svg+xml</dc:format>
        <dc:type
           rdf:resource="http://purl.org/dc/dcmitype/StillImage" />
        <dc:title></dc:title>
      </cc:Work>
    </rdf:RDF>
  </metadata>
  <g
     inkscape:label="Layer 1"
     inkscape:groupmode="layer"
     id="layer1"
     transform="translate(0,-254.667)">
    <g
       id="g875"
       transform="matrix(0.42057368,0,0.00344177,0.39796775,-0.03427244,254.667)">
      <rect
         id="rect846"
         ry="10"
         rx="10"
         height="100"
         width="100"
         x="0"
         y="0"
         style="fill:#3838b2" />
      <svg
         height="60"
         width="60"
         version="1.1"
         x="20"
         y="16"
         viewBox="0 0 100 125"
         enable-background="new 0 0 100 100"
         xml:space="preserve"
         id="SvgjsSvg1620"
         sodipodi:docname="noun_Billboard_1144238.svg"
         inkscape:version="1.0rc1 (09960d6f05, 2020-04-09)"
         style="fill:#3838b2"><metadata
           id="SvgjsMetadata1619"><rdf:RDF><cc:Work
               rdf:about=""><dc:format>image/svg+xml</dc:format><dc:type
                 rdf:resource="http://purl.org/dc/dcmitype/StillImage" /></cc:Work></rdf:RDF></metadata><defs
           fill="#ffffff"
           id="SvgjsDefs1618" /><sodipodi:namedview
           pagecolor="#ffffff"
           bordercolor="#666666"
           borderopacity="1"
           objecttolerance="10"
           gridtolerance="10"
           guidetolerance="10"
           inkscape:pageopacity="0"
           inkscape:pageshadow="2"
           inkscape:window-width="1680"
           inkscape:window-height="988"
           id="SvgjsSodipodi:namedview1617"
           showgrid="false"
           inkscape:zoom="1.984"
           inkscape:cx="50"
           inkscape:cy="62.5"
           inkscape:window-x="-8"
           inkscape:window-y="-8"
           inkscape:window-maximized="1"
           inkscape:current-layer="svg16" /><path
           d="M 95.942344,75.855349 H 4.3895795 c -0.6016324,0 -1.0899139,-0.488281 -1.0899139,-1.089914 V 32.258794 c 0,-1.204355 0.9754729,-2.179827 2.1798277,-2.179827 H 94.852431 c 1.204354,0 2.179827,0.975472 2.179827,2.179827 v 42.506641 c 0,0.601633 -0.488281,1.089914 -1.089914,1.089914 z"
           id="SvgjsPath1616"
           inkscape:connector-curvature="0"
           style="fill:#ffffff;stroke-width:1.08992004" /><path
           d="M 4.3895795,80.215004 H 95.942344 c 0.601633,0 1.089914,0.488282 1.089914,1.089914 v 3.269742 c 0,1.204355 -0.975473,2.179827 -2.179827,2.179827 H 60.520144 c -0.300817,0 -0.544957,0.244141 -0.544957,0.544958 v 17.983575 c 0,0.60164 -0.488282,1.08992 -1.089914,1.08992 H 41.446651 c -0.601632,0 -1.089913,-0.48828 -1.089913,-1.08992 V 87.299445 c 0,-0.300817 -0.244142,-0.544958 -0.544958,-0.544958 H 5.4794933 c -1.2043548,0 -2.1798277,-0.975472 -2.1798277,-2.179827 v -3.269742 c 0,-0.601632 0.4882815,-1.089914 1.0899139,-1.089914 z"
           id="SvgjsPath1615"
           inkscape:connector-curvature="0"
           style="fill:#ffffff;stroke-width:1.08992004" /><path
           d="M 58.885273,25.719311 H 41.446651 c -0.601632,0 -1.089913,-0.488281 -1.089913,-1.089914 V 21.359656 C 40.356738,18.952036 42.308773,17 44.716392,17 h 10.89914 c 2.407618,0 4.359655,1.952036 4.359655,4.359656 v 3.269741 c 0,0.601633 -0.488282,1.089914 -1.089914,1.089914 z"
           id="SvgjsPath1614"
           inkscape:connector-curvature="0"
           style="fill:#ffffff;stroke-width:1.08992004" /><path
           d="M 30.547512,25.719311 H 13.10889 c -0.601632,0 -1.089913,-0.488281 -1.089913,-1.089914 V 21.359656 C 12.018977,18.952036 13.971012,17 16.378632,17 h 10.899139 c 2.40762,0 4.359655,1.952036 4.359655,4.359656 v 3.269741 c 0,0.601633 -0.488281,1.089914 -1.089914,1.089914 z"
           id="SvgjsPath1613"
           inkscape:connector-curvature="0"
           style="fill:#ffffff;stroke-width:1.08992004" /><path
           d="M 87.223034,25.719311 H 69.784411 c -0.601632,0 -1.089914,-0.488281 -1.089914,-1.089914 V 21.359656 C 68.694497,18.952036 70.646533,17 73.054153,17 h 10.899138 c 2.40762,0 4.359656,1.952036 4.359656,4.359656 v 3.269741 c 0,0.601633 -0.488281,1.089914 -1.089913,1.089914 z"
           id="SvgjsPath1612"
           inkscape:connector-curvature="0"
           style="fill:#ffffff;stroke-width:1.08992004" /></svg>    </g>
  </g>
</svg>
