<?xml version="1.0" encoding="UTF-8" standalone="no"?>
<!-- Created with Inkscape (http://www.inkscape.org/) -->

<svg
   xmlns:i="http://ns.adobe.com/AdobeIllustrator/10.0/"
   xmlns:dc="http://purl.org/dc/elements/1.1/"
   xmlns:cc="http://creativecommons.org/ns#"
   xmlns:rdf="http://www.w3.org/1999/02/22-rdf-syntax-ns#"
   xmlns:svg="http://www.w3.org/2000/svg"
   xmlns="http://www.w3.org/2000/svg"
   xmlns:sodipodi="http://sodipodi.sourceforge.net/DTD/sodipodi-0.dtd"
   xmlns:inkscape="http://www.inkscape.org/namespaces/inkscape"
   width="42.333mm"
   height="42.333mm"
   viewBox="0 0 42.333 42.333"
   version="1.1"
   id="svg8"
   inkscape:version="0.92.4 (5da689c313, 2019-01-14)">
  <defs
     id="defs2">
    <inkscape:perspective
       id="perspective3380"
       inkscape:persp3d-origin="300.5 : 200.33333 : 1"
       inkscape:vp_z="601 : 300.5 : 1"
       inkscape:vp_y="0 : 1000 : 0"
       inkscape:vp_x="0 : 300.5 : 1"
       sodipodi:type="inkscape:persp3d" />
    <inkscape:perspective
       sodipodi:type="inkscape:persp3d"
       inkscape:vp_x="0 : 375 : 1"
       inkscape:vp_y="0 : 1000 : 0"
       inkscape:vp_z="750 : 375 : 1"
       inkscape:persp3d-origin="375 : 250 : 1"
       id="perspective3990" />
    <inkscape:perspective
       sodipodi:type="inkscape:persp3d"
       inkscape:vp_x="0 : 300.5 : 1"
       inkscape:vp_y="0 : 1000 : 0"
       inkscape:vp_z="601 : 300.5 : 1"
       inkscape:persp3d-origin="300.5 : 200.33333 : 1"
       id="perspective3380-7" />
    <inkscape:perspective
       id="perspective3990-0"
       inkscape:persp3d-origin="375 : 250 : 1"
       inkscape:vp_z="750 : 375 : 1"
       inkscape:vp_y="0 : 1000 : 0"
       inkscape:vp_x="0 : 375 : 1"
       sodipodi:type="inkscape:persp3d" />
  </defs>
  <sodipodi:namedview
     id="base"
     pagecolor="#ffffff"
     bordercolor="#666666"
     borderopacity="1.0"
     inkscape:pageopacity="0.0"
     inkscape:pageshadow="2"
     inkscape:zoom="11.48759"
     inkscape:cx="79.99937"
     inkscape:cy="79.99937"
     inkscape:document-units="mm"
     inkscape:current-layer="layer1"
     showgrid="false"
     inkscape:window-width="3840"
     inkscape:window-height="2115"
     inkscape:window-x="-13"
     inkscape:window-y="-13"
     inkscape:window-maximized="1" />
  <metadata
     id="metadata5">
    <rdf:RDF>
      <cc:Work
         rdf:about="">
        <dc:format>image/svg+xml</dc:format>
        <dc:type
           rdf:resource="http://purl.org/dc/dcmitype/StillImage" />
        <dc:title></dc:title>
      </cc:Work>
    </rdf:RDF>
  </metadata>
  <g
     inkscape:label="Layer 1"
     inkscape:groupmode="layer"
     id="layer1"
     transform="translate(0,-254.667)"
     style="display:inline">
    <g
       id="g6"
       transform="matrix(0.38084177,0,0,0.39017168,11.483418,265.00959)"
       style="fill:#ffffff;fill-opacity:1" />
    <g
       id="g1179"
       transform="matrix(0.42333,0,0,0.42333,16.122469,255.72681)"
       style="fill:#108040;fill-opacity:1;stroke-width:0.62500489">
      <rect
         style="fill:#108040;fill-opacity:1;fill-rule:evenodd;stroke-width:0.39063111"
         id="rect1276"
         width="100"
         height="100"
         x="-38.084873"
         y="-2.5035133"
         ry="10.000079" />
    </g>
    <g
       id="g1134"
       transform="matrix(0.42333,0,0,0.42333,0,254.667)"
       style="stroke-width:0.62500489" />
    <g
       id="g18"
       i:extraneous="self"
       transform="matrix(0.30967776,0,0,0.32475729,-789.95641,-117.83392)"
       style="stroke-width:0.83431107;fill:#ffffff;fill-opacity:1">
      <g
         id="g16"
         transform="translate(2570.4938,1162.1389)"
         style="stroke-width:0.83431107;fill:#ffffff;fill-opacity:1">
        <path
           inkscape:connector-curvature="0"
           id="path12"
           d="M 74.2,28.6 63,27.4 61.1,23.2 C 59.3,19.3 55.3,16.7 51,16.7 h -8.8 c -4.5,0 -8.6,2.7 -10.3,7 l -0.8,2 -6.1,3 c -0.8,0.4 -1.3,1.2 -1.3,2.1 v 7.9 c 0,1.3 1,2.3 2.3,2.3 h 2.8 c 0.8,2.8 3.4,4.9 6.4,4.9 3,0 5.6,-2.1 6.4,-4.9 h 16.6 c 0.8,2.8 3.3,4.9 6.4,4.9 3,0 5.6,-2.1 6.4,-4.9 h 2.9 c 1.3,0 2.3,-1 2.3,-2.3 v -7.6 c 0,-1.3 -0.8,-2.3 -2,-2.5 z M 35.3,42.3 c -1.7,0 -3.2,-1.4 -3.2,-3.2 0,-1.8 1.4,-3.2 3.2,-3.2 1.8,0 3.2,1.4 3.2,3.2 0,1.7 -1.5,3.2 -3.2,3.2 z M 44,26.9 c 0,0.2 -0.2,0.4 -0.4,0.4 H 36 c -0.3,0 -0.5,-0.3 -0.4,-0.5 l 0.6,-1.4 c 1,-2.4 3.4,-4 6,-4 h 1.4 c 0.2,0 0.4,0.2 0.4,0.4 z m 13.3,0.4 h -8.2 c -0.2,0 -0.4,-0.1 -0.4,-0.4 v -5.2 c 0,-0.2 0.2,-0.4 0.4,-0.4 h 2 c 2.5,0 4.8,1.5 5.9,3.7 l 0.7,1.7 c 0.1,0.3 -0.1,0.6 -0.4,0.6 z m 7.4,15 c -1.8,0 -3.2,-1.4 -3.2,-3.2 0,-1.8 1.4,-3.2 3.2,-3.2 1.7,0 3.2,1.4 3.2,3.2 0,1.7 -1.5,3.2 -3.2,3.2 z"
           style="stroke-width:0.83431107;fill:#ffffff;fill-opacity:1" />
        <path
           inkscape:connector-curvature="0"
           id="path14"
           d="m 97.5,58.4 v 21.2 c 0,2 -1.7,3.7 -3.7,3.7 H 77 c -1,0 -1.8,-0.6 -2.1,-1.6 C 72.1,71.3 62.6,63.5 51.3,63.5 h -2.6 c -6.7,0 -12.8,2.7 -17.3,7.2 -3,3 -5.2,6.8 -6.4,11 -0.3,0.9 -1.1,1.6 -2.1,1.6 H 6.2 c -2,0 -3.7,-1.7 -3.7,-3.7 V 58.4 c 0,-1.6 1,-3 2.6,-3.5 14,-4.6 28.6,-7 43.4,-7 h 3.1 c 14.8,0 29.4,2.4 43.4,7 1.5,0.5 2.5,1.9 2.5,3.5 z"
           style="stroke-width:0.83431107;fill:#ffffff;fill-opacity:1" />
      </g>
    </g>
  </g>
</svg>
