<?xml version="1.0" encoding="UTF-8" standalone="no"?>
<!-- Created with Inkscape (http://www.inkscape.org/) -->

<svg
   xmlns:i="http://ns.adobe.com/AdobeIllustrator/10.0/"
   xmlns:dc="http://purl.org/dc/elements/1.1/"
   xmlns:cc="http://creativecommons.org/ns#"
   xmlns:rdf="http://www.w3.org/1999/02/22-rdf-syntax-ns#"
   xmlns:svg="http://www.w3.org/2000/svg"
   xmlns="http://www.w3.org/2000/svg"
   xmlns:sodipodi="http://sodipodi.sourceforge.net/DTD/sodipodi-0.dtd"
   xmlns:inkscape="http://www.inkscape.org/namespaces/inkscape"
   width="42.333mm"
   height="42.333mm"
   viewBox="0 0 42.333 42.333"
   version="1.1"
   id="svg8"
   inkscape:version="0.92.4 (5da689c313, 2019-01-14)">
  <defs
     id="defs2">
    <inkscape:perspective
       sodipodi:type="inkscape:persp3d"
       inkscape:vp_x="0 : 300.5 : 1"
       inkscape:vp_y="0 : 1000 : 0"
       inkscape:vp_z="601.00004 : 300.5 : 1"
       inkscape:persp3d-origin="300.50002 : 200.33333 : 1"
       id="perspective3380" />
    <inkscape:perspective
       id="perspective3990"
       inkscape:persp3d-origin="375.00002 : 250 : 1"
       inkscape:vp_z="750.00005 : 375 : 1"
       inkscape:vp_y="0 : 1000 : 0"
       inkscape:vp_x="0 : 375 : 1"
       sodipodi:type="inkscape:persp3d" />
    <inkscape:perspective
       id="perspective3380-7"
       inkscape:persp3d-origin="300.50002 : 200.33333 : 1"
       inkscape:vp_z="601.00004 : 300.5 : 1"
       inkscape:vp_y="0 : 1000 : 0"
       inkscape:vp_x="0 : 300.5 : 1"
       sodipodi:type="inkscape:persp3d" />
    <inkscape:perspective
       sodipodi:type="inkscape:persp3d"
       inkscape:vp_x="0 : 375 : 1"
       inkscape:vp_y="0 : 1000 : 0"
       inkscape:vp_z="750.00005 : 375 : 1"
       inkscape:persp3d-origin="375.00002 : 250 : 1"
       id="perspective3990-0" />
    <inkscape:perspective
       sodipodi:type="inkscape:persp3d"
       inkscape:vp_x="0 : 300.5 : 1"
       inkscape:vp_y="0 : 1000 : 0"
       inkscape:vp_z="601 : 300.5 : 1"
       inkscape:persp3d-origin="300.5 : 200.33333 : 1"
       id="perspective3380-1" />
    <inkscape:perspective
       id="perspective3990-5"
       inkscape:persp3d-origin="375 : 250 : 1"
       inkscape:vp_z="750 : 375 : 1"
       inkscape:vp_y="0 : 1000 : 0"
       inkscape:vp_x="0 : 375 : 1"
       sodipodi:type="inkscape:persp3d" />
    <inkscape:perspective
       id="perspective3380-7-1"
       inkscape:persp3d-origin="300.5 : 200.33333 : 1"
       inkscape:vp_z="601 : 300.5 : 1"
       inkscape:vp_y="0 : 1000 : 0"
       inkscape:vp_x="0 : 300.5 : 1"
       sodipodi:type="inkscape:persp3d" />
    <inkscape:perspective
       sodipodi:type="inkscape:persp3d"
       inkscape:vp_x="0 : 375 : 1"
       inkscape:vp_y="0 : 1000 : 0"
       inkscape:vp_z="750 : 375 : 1"
       inkscape:persp3d-origin="375 : 250 : 1"
       id="perspective3990-0-0" />
    <inkscape:perspective
       sodipodi:type="inkscape:persp3d"
       inkscape:vp_x="0 : 300.5 : 1"
       inkscape:vp_y="0 : 1000 : 0"
       inkscape:vp_z="601 : 300.5 : 1"
       inkscape:persp3d-origin="300.5 : 200.33333 : 1"
       id="perspective3380-8" />
    <inkscape:perspective
       id="perspective3990-2"
       inkscape:persp3d-origin="375 : 250 : 1"
       inkscape:vp_z="750 : 375 : 1"
       inkscape:vp_y="0 : 1000 : 0"
       inkscape:vp_x="0 : 375 : 1"
       sodipodi:type="inkscape:persp3d" />
    <inkscape:perspective
       id="perspective3380-7-17"
       inkscape:persp3d-origin="300.5 : 200.33333 : 1"
       inkscape:vp_z="601 : 300.5 : 1"
       inkscape:vp_y="0 : 1000 : 0"
       inkscape:vp_x="0 : 300.5 : 1"
       sodipodi:type="inkscape:persp3d" />
    <inkscape:perspective
       sodipodi:type="inkscape:persp3d"
       inkscape:vp_x="0 : 375 : 1"
       inkscape:vp_y="0 : 1000 : 0"
       inkscape:vp_z="750 : 375 : 1"
       inkscape:persp3d-origin="375 : 250 : 1"
       id="perspective3990-0-5" />
    <inkscape:perspective
       id="perspective3380-88"
       inkscape:persp3d-origin="300.50002 : 200.33333 : 1"
       inkscape:vp_z="601.00004 : 300.5 : 1"
       inkscape:vp_y="0 : 1000 : 0"
       inkscape:vp_x="0 : 300.5 : 1"
       sodipodi:type="inkscape:persp3d" />
    <inkscape:perspective
       sodipodi:type="inkscape:persp3d"
       inkscape:vp_x="0 : 375 : 1"
       inkscape:vp_y="0 : 1000 : 0"
       inkscape:vp_z="750.00005 : 375 : 1"
       inkscape:persp3d-origin="375.00002 : 250 : 1"
       id="perspective3990-23" />
    <inkscape:perspective
       sodipodi:type="inkscape:persp3d"
       inkscape:vp_x="0 : 300.5 : 1"
       inkscape:vp_y="0 : 1000 : 0"
       inkscape:vp_z="601.00004 : 300.5 : 1"
       inkscape:persp3d-origin="300.50002 : 200.33333 : 1"
       id="perspective3380-7-6" />
    <inkscape:perspective
       id="perspective3990-0-3"
       inkscape:persp3d-origin="375.00002 : 250 : 1"
       inkscape:vp_z="750.00005 : 375 : 1"
       inkscape:vp_y="0 : 1000 : 0"
       inkscape:vp_x="0 : 375 : 1"
       sodipodi:type="inkscape:persp3d" />
    <inkscape:perspective
       id="perspective3380-1-9"
       inkscape:persp3d-origin="300.5 : 200.33333 : 1"
       inkscape:vp_z="601 : 300.5 : 1"
       inkscape:vp_y="0 : 1000 : 0"
       inkscape:vp_x="0 : 300.5 : 1"
       sodipodi:type="inkscape:persp3d" />
    <inkscape:perspective
       sodipodi:type="inkscape:persp3d"
       inkscape:vp_x="0 : 375 : 1"
       inkscape:vp_y="0 : 1000 : 0"
       inkscape:vp_z="750 : 375 : 1"
       inkscape:persp3d-origin="375 : 250 : 1"
       id="perspective3990-5-6" />
    <inkscape:perspective
       sodipodi:type="inkscape:persp3d"
       inkscape:vp_x="0 : 300.5 : 1"
       inkscape:vp_y="0 : 1000 : 0"
       inkscape:vp_z="601 : 300.5 : 1"
       inkscape:persp3d-origin="300.5 : 200.33333 : 1"
       id="perspective3380-7-1-8" />
    <inkscape:perspective
       id="perspective3990-0-0-6"
       inkscape:persp3d-origin="375 : 250 : 1"
       inkscape:vp_z="750 : 375 : 1"
       inkscape:vp_y="0 : 1000 : 0"
       inkscape:vp_x="0 : 375 : 1"
       sodipodi:type="inkscape:persp3d" />
  </defs>
  <sodipodi:namedview
     id="base"
     pagecolor="#ffffff"
     bordercolor="#666666"
     borderopacity="1.0"
     inkscape:pageopacity="0.0"
     inkscape:pageshadow="2"
     inkscape:zoom="11.48759"
     inkscape:cx="79.99937"
     inkscape:cy="79.99937"
     inkscape:document-units="mm"
     inkscape:current-layer="SvgjsSvg1001"
     showgrid="false"
     inkscape:window-width="3840"
     inkscape:window-height="2115"
     inkscape:window-x="-13"
     inkscape:window-y="-13"
     inkscape:window-maximized="1" />
  <metadata
     id="metadata5">
    <rdf:RDF>
      <cc:Work
         rdf:about="">
        <dc:format>image/svg+xml</dc:format>
        <dc:type
           rdf:resource="http://purl.org/dc/dcmitype/StillImage" />
        <dc:title></dc:title>
      </cc:Work>
    </rdf:RDF>
  </metadata>
  <g
     inkscape:label="Layer 1"
     inkscape:groupmode="layer"
     id="layer1"
     transform="translate(0,-254.667)">
    <g
       style="display:inline"
       id="layer1-9"
       inkscape:label="Layer 1">
      <g
         style="fill:#ffffff;fill-opacity:1"
         transform="matrix(0.38084177,0,0,0.39017168,11.483418,265.00959)"
         id="g6" />
      <g
         style="fill:#108040;fill-opacity:1;stroke-width:0.62500489"
         transform="matrix(0.42333,0,0,0.42333,16.122469,255.72681)"
         id="g1179" />
      <g
         style="stroke-width:0.62500489"
         transform="matrix(0.42333,0,0,0.42333,0,254.667)"
         id="g1134" />
      <g
         style="fill:#ffffff;fill-opacity:1;stroke-width:0.83431107"
         transform="matrix(0.30967776,0,0,0.32475729,-789.95641,-117.83392)"
         i:extraneous="self"
         id="g18">
        <g
           style="fill:#ffffff;fill-opacity:1;stroke-width:0.83431107"
           transform="translate(2570.4938,1162.1389)"
           id="g16">
          <path
             style="fill:#ffffff;fill-opacity:1;stroke-width:0.83431107"
             d="M 74.2,28.6 63,27.4 61.1,23.2 C 59.3,19.3 55.3,16.7 51,16.7 h -8.8 c -4.5,0 -8.6,2.7 -10.3,7 l -0.8,2 -6.1,3 c -0.8,0.4 -1.3,1.2 -1.3,2.1 v 7.9 c 0,1.3 1,2.3 2.3,2.3 h 2.8 c 0.8,2.8 3.4,4.9 6.4,4.9 3,0 5.6,-2.1 6.4,-4.9 h 16.6 c 0.8,2.8 3.3,4.9 6.4,4.9 3,0 5.6,-2.1 6.4,-4.9 h 2.9 c 1.3,0 2.3,-1 2.3,-2.3 v -7.6 c 0,-1.3 -0.8,-2.3 -2,-2.5 z M 35.3,42.3 c -1.7,0 -3.2,-1.4 -3.2,-3.2 0,-1.8 1.4,-3.2 3.2,-3.2 1.8,0 3.2,1.4 3.2,3.2 0,1.7 -1.5,3.2 -3.2,3.2 z M 44,26.9 c 0,0.2 -0.2,0.4 -0.4,0.4 H 36 c -0.3,0 -0.5,-0.3 -0.4,-0.5 l 0.6,-1.4 c 1,-2.4 3.4,-4 6,-4 h 1.4 c 0.2,0 0.4,0.2 0.4,0.4 z m 13.3,0.4 h -8.2 c -0.2,0 -0.4,-0.1 -0.4,-0.4 v -5.2 c 0,-0.2 0.2,-0.4 0.4,-0.4 h 2 c 2.5,0 4.8,1.5 5.9,3.7 l 0.7,1.7 c 0.1,0.3 -0.1,0.6 -0.4,0.6 z m 7.4,15 c -1.8,0 -3.2,-1.4 -3.2,-3.2 0,-1.8 1.4,-3.2 3.2,-3.2 1.7,0 3.2,1.4 3.2,3.2 0,1.7 -1.5,3.2 -3.2,3.2 z"
             id="path12"
             inkscape:connector-curvature="0" />
          <path
             style="fill:#ffffff;fill-opacity:1;stroke-width:0.83431107"
             d="m 97.5,58.4 v 21.2 c 0,2 -1.7,3.7 -3.7,3.7 H 77 c -1,0 -1.8,-0.6 -2.1,-1.6 C 72.1,71.3 62.6,63.5 51.3,63.5 h -2.6 c -6.7,0 -12.8,2.7 -17.3,7.2 -3,3 -5.2,6.8 -6.4,11 -0.3,0.9 -1.1,1.6 -2.1,1.6 H 6.2 c -2,0 -3.7,-1.7 -3.7,-3.7 V 58.4 c 0,-1.6 1,-3 2.6,-3.5 14,-4.6 28.6,-7 43.4,-7 h 3.1 c 14.8,0 29.4,2.4 43.4,7 1.5,0.5 2.5,1.9 2.5,3.5 z"
             id="path14"
             inkscape:connector-curvature="0" />
        </g>
      </g>
      <g
         style="stroke-width:0.62500489"
         transform="matrix(0.42333,0,0,0.42333,0,254.667)"
         id="g1395">
        <g
           transform="matrix(2.3622233,0,0,2.3622233,0,-601.58032)"
           id="layer1-2"
           inkscape:label="Layer 1">
          <g
             transform="matrix(0.42333,0,0,0.42333,0,254.667)"
             id="g866">
            <rect
               style="fill:#ff0000;fill-opacity:1"
               y="0"
               x="0"
               width="100"
               height="100"
               rx="10"
               ry="10"
               id="rect851" />
            <svg
               style="fill:#1c0000"
               version="1.1"
               id="SvgjsSvg1001"
               width="80"
               height="80"
               viewBox="0 0 15 15"
               x="10"
               y="7">
              <path
                 style="fill:#ffffff;stroke-width:0.4561263"
                 inkscape:connector-curvature="0"
                 id="SvgjsPath1000"
                 d="M 4.2242927,3.3258297 V 12.184168 H 10.868046 V 3.3258297 Z M 8.9140008,4.0072402 H 10.086428 V 6.3921773 H 8.9140008 Z m -3.9080901,0.037273 h 1.172427 v 3.3697798 h -1.172427 z m 1.9540451,0 h 1.172427 v 3.3697798 h -1.172427 z m 2.5402585,3.0290745 c 0.3237462,0 0.5862137,0.2288176 0.5862137,0.5110579 0,0.2822403 -0.2624675,0.5110579 -0.5862137,0.5110579 v 0 c -0.3237461,0 -0.5862135,-0.2288176 -0.5862135,-0.5110579 v 0 c 0,-0.2822403 0.2624674,-0.5110579 0.5862135,-0.5110579 z M 6.9599558,8.0957037 h 1.1510888 l 0.021338,3.4070533 H 6.9812939 Z M 5.0059107,8.2088175 h 1.172427 v 3.2939395 h -1.172427 z m 3.9080901,0.568297 H 10.086428 V 11.502757 H 8.9140008 Z" />
            </svg>
          </g>
        </g>
      </g>
    </g>
  </g>
</svg>
