<?xml version="1.0" encoding="UTF-8" standalone="no"?>
<svg
   xmlns:dc="http://purl.org/dc/elements/1.1/"
   xmlns:cc="http://creativecommons.org/ns#"
   xmlns:rdf="http://www.w3.org/1999/02/22-rdf-syntax-ns#"
   xmlns:svg="http://www.w3.org/2000/svg"
   xmlns="http://www.w3.org/2000/svg"
   xmlns:sodipodi="http://sodipodi.sourceforge.net/DTD/sodipodi-0.dtd"
   xmlns:inkscape="http://www.inkscape.org/namespaces/inkscape"
   inkscape:version="1.0rc1 (09960d6f05, 2020-04-09)"
   sodipodi:docname="AB_agriculture-bio_simplifie.svg"
   xml:space="preserve"
   enable-background="new 0 0 133.266 187.086"
   viewBox="0 0 133.266 187.086"
   height="187.086px"
   width="133.266px"
   y="0px"
   x="0px"
   id="Layer_1"
   version="1.1"><metadata
   id="metadata79"><rdf:RDF><cc:Work
       rdf:about=""><dc:format>image/svg+xml</dc:format><dc:type
         rdf:resource="http://purl.org/dc/dcmitype/StillImage" /><dc:title></dc:title></cc:Work></rdf:RDF></metadata><defs
   id="defs77" /><sodipodi:namedview
   inkscape:current-layer="g72"
   inkscape:window-maximized="1"
   inkscape:window-y="-8"
   inkscape:window-x="-8"
   inkscape:cy="112.54491"
   inkscape:cx="60.152846"
   inkscape:zoom="1.8746724"
   showgrid="false"
   id="namedview75"
   inkscape:window-height="988"
   inkscape:window-width="1680"
   inkscape:pageshadow="2"
   inkscape:pageopacity="0"
   guidetolerance="10"
   gridtolerance="10"
   objecttolerance="10"
   borderopacity="1"
   bordercolor="#666666"
   pagecolor="#ffffff" />
<g
   id="g72">
	<polygon
   id="polygon2"
   points="133.595,143.859 133.595,26.784 0.329,26.784    0.329,143.859 133.595,143.859  "
   fill="#169A3B"
   clip-rule="evenodd"
   fill-rule="evenodd" />
	
	
	
	
	
	
	
	
	
	
	
	
	
	
	
	
	
	
	
	
	
	
	
	
	
	
	
	
	
	
	
	<path
   id="path66"
   d="M79.756,63.132c16.521,0,25.893,7.148,25.893,19.062   c0,11.914-7.625,15.568-7.625,15.568s14.139,3.336,14.139,20.015c0,19.381-22.398,19.593-22.398,19.593H70.383V63.132H79.756   L79.756,63.132z M79.756,71.868v24.145c0,0,4.288,0,7.148-0.317c2.859-0.317,10.325-1.906,10.166-12.072   c-0.158-10.167-7.148-11.438-12.231-11.914L79.756,71.868L79.756,71.868z M79.756,103.797v25.099c0,0,7.307,0,9.531,0   c2.224,0,13.661-1.43,13.819-12.391c0.159-10.961-12.391-13.025-15.249-13.025C84.999,103.48,79.756,103.797,79.756,103.797   L79.756,103.797z"
   fill="#FFFFFF"
   clip-rule="evenodd"
   fill-rule="evenodd" />
	<path
   id="path68"
   d="M63.236,137.369h-9.373v-17.687H21.934   c0,0-2.542,6.672-2.542,17.315h-9.055c0-19.062,10.528-52.512,39.236-71.96c10.802-5.56,13.662,2.383,13.662,4.766   S63.236,137.369,63.236,137.369L63.236,137.369z M53.863,72.821c-25.099,20.492-28.435,37.648-28.435,37.648h28.435V72.821   L53.863,72.821z"
   fill="#FFFFFF"
   clip-rule="evenodd"
   fill-rule="evenodd" />
	<path
   id="path70"
   d="M83.569,31.282c0,0,16.759,7.148,13.661,27.72   c0,0,9.531-12.708,24.939-9.531c0,0-6.783,19.192-26.925,12.867C76.023,56.301,80.63,34.379,83.569,31.282L83.569,31.282z"
   fill="#FFFFFF"
   clip-rule="evenodd"
   fill-rule="evenodd" />
</g>
</svg>
