<svg xmlns="http://www.w3.org/2000/svg" version="1.1" xmlns:xlink="http://www.w3.org/1999/xlink" xmlns:svgjs="http://svgjs.com/svgjs" width="100" height="100"><rect width="100" height="100" rx="10" ry="10" fill="#3838b2"></rect><svg xmlns:dc="http://purl.org/dc/elements/1.1/" xmlns:cc="http://creativecommons.org/ns#" xmlns:rdf="http://www.w3.org/1999/02/22-rdf-syntax-ns#" xmlns:svg="http://www.w3.org/2000/svg" xmlns="http://www.w3.org/2000/svg" xmlns:sodipodi="http://sodipodi.sourceforge.net/DTD/sodipodi-0.dtd" xmlns:inkscape="http://www.inkscape.org/namespaces/inkscape" inkscape:version="1.0rc1 (09960d6f05, 2020-04-09)" sodipodi:docname="noun_statue_1230134.svg" id="SvgjsSvg1114" xml:space="preserve" enable-background="new 0 0 100 100" viewBox="0 0 100 125" y="16" x="20" version="1.1" xmlns:xlink="http://www.w3.org/1999/xlink" xmlns:svgjs="http://svgjs.com/svgjs" width="60" height="60" fill="#3838b2"><metadata id="SvgjsMetadata1113"><rdf:RDF><cc:Work rdf:about=""><dc:format>image/svg+xml</dc:format><dc:type rdf:resource="http://purl.org/dc/dcmitype/StillImage"></dc:type></cc:Work></rdf:RDF></metadata><defs id="SvgjsDefs1112" fill="#ffffff"></defs><sodipodi:namedview inkscape:current-layer="svg16" inkscape:window-maximized="1" inkscape:window-y="-8" inkscape:window-x="-8" inkscape:cy="62.5" inkscape:cx="50" inkscape:zoom="1.984" showgrid="false" id="SvgjsSodipodi:namedview1111" inkscape:window-height="988" inkscape:window-width="1680" inkscape:pageshadow="2" inkscape:pageopacity="0" guidetolerance="10" gridtolerance="10" objecttolerance="10" borderopacity="1" bordercolor="#666666" pagecolor="#ffffff"></sodipodi:namedview><path style="stroke-width:1.26039" inkscape:connector-curvature="0" id="SvgjsPath1110" d="m 47.730395,0.449 c -3.420711,0 -6.201142,2.7816911 -6.201142,6.2036628 0,3.4207112 2.780431,6.2112252 6.201142,6.2112252 3.41693,0 6.208705,-2.786733 6.208705,-6.2112252 C 53.94036,3.2306911 51.148586,0.449 47.730395,0.449 Z" fill="#ffffff"></path><g transform="matrix(1.2603947,0,0,1.2603947,-15.323371,-0.11691723)" id="SvgjsG1109" fill="#ffffff"><rect id="SvgjsRect1108" height="9.0500002" width="30.243" y="51.859001" x="34.891998" fill="#ffffff"></rect><rect id="SvgjsRect1107" height="35.838001" width="48.389" y="63.328999" x="25.819" fill="#ffffff"></rect><path inkscape:connector-curvature="0" id="SvgjsPath1106" d="m 44.308,33.361 v 16.08 h 11.484 v -16.08 h 4.3 L 60.093,16.85 c 0,-2.726 -2.209,-4.934 -4.934,-4.934 H 44.872 c -2.724,0 -4.933,2.208 -4.933,4.934 l 0.021,16.511 z" fill="#ffffff"></path></g></svg></svg>