<?xml version="1.0" encoding="UTF-8" standalone="no"?>
<!-- Created with Inkscape (http://www.inkscape.org/) -->

<svg
   xmlns:dc="http://purl.org/dc/elements/1.1/"
   xmlns:cc="http://creativecommons.org/ns#"
   xmlns:rdf="http://www.w3.org/1999/02/22-rdf-syntax-ns#"
   xmlns:svg="http://www.w3.org/2000/svg"
   xmlns="http://www.w3.org/2000/svg"
   xmlns:sodipodi="http://sodipodi.sourceforge.net/DTD/sodipodi-0.dtd"
   xmlns:inkscape="http://www.inkscape.org/namespaces/inkscape"
   width="42.333mm"
   height="42.333mm"
   viewBox="0 0 42.333 42.333"
   version="1.1"
   id="svg8"
   inkscape:version="0.92.4 (5da689c313, 2019-01-14)">
  <defs
     id="defs2">
    <inkscape:perspective
       id="perspective2441"
       inkscape:persp3d-origin="290 : 193.33333 : 1"
       inkscape:vp_z="580 : 290 : 1"
       inkscape:vp_y="0 : 1000 : 0"
       inkscape:vp_x="0 : 290 : 1"
       sodipodi:type="inkscape:persp3d" />
    <inkscape:perspective
       sodipodi:type="inkscape:persp3d"
       inkscape:vp_x="0 : 30 : 1"
       inkscape:vp_y="0 : 1000 : 0"
       inkscape:vp_z="60 : 30 : 1"
       inkscape:persp3d-origin="30 : 20 : 1"
       id="perspective3452" />
    <symbol
       id="symbol-university"
       viewBox="244.5 110 489 219.9">
      <path
         d="M79,43l57,119c0,0,21-96,104-96s124,106,124,106l43-133l82-17L0,17L79,43z"
         id="path4460" />
      <path
         fill="none"
         stroke="#000000"
         stroke-width="20"
         d="M94,176l-21,39"
         id="path4462" />
      <path
         d="M300,19c0,10.5-22.6,19-50.5,19S199,29.5,199,19s22.6-19,50.5-19S300,8.5,300,19z"
         id="path4464" />
      <path
         ill="none"
         stroke="#000000"
         stroke-width="20"
         d="M112,216l-16-38L64,88c0,0-9-8-4-35s16-24,16-24"
         id="path4466" />
    </symbol>
    <inkscape:perspective
       sodipodi:type="inkscape:persp3d"
       inkscape:vp_x="0 : 526.18109 : 1"
       inkscape:vp_y="0 : 1000 : 0"
       inkscape:vp_z="744.09448 : 526.18109 : 1"
       inkscape:persp3d-origin="372.04724 : 350.78739 : 1"
       id="perspective4471" />
    <inkscape:perspective
       sodipodi:type="inkscape:persp3d"
       inkscape:vp_x="0 : 6 : 1"
       inkscape:vp_y="0 : 1000 : 0"
       inkscape:vp_z="12 : 6 : 1"
       inkscape:persp3d-origin="6 : 4 : 1"
       id="perspective4668" />
  </defs>
  <sodipodi:namedview
     id="base"
     pagecolor="#ffffff"
     bordercolor="#666666"
     borderopacity="1.0"
     inkscape:pageopacity="0.0"
     inkscape:pageshadow="2"
     inkscape:zoom="11.48759"
     inkscape:cx="79.99937"
     inkscape:cy="79.99937"
     inkscape:document-units="mm"
     inkscape:current-layer="layer1"
     showgrid="false"
     inkscape:window-width="3840"
     inkscape:window-height="2115"
     inkscape:window-x="-13"
     inkscape:window-y="-13"
     inkscape:window-maximized="1" />
  <metadata
     id="metadata5">
    <rdf:RDF>
      <cc:Work
         rdf:about="">
        <dc:format>image/svg+xml</dc:format>
        <dc:type
           rdf:resource="http://purl.org/dc/dcmitype/StillImage" />
        <dc:title></dc:title>
      </cc:Work>
    </rdf:RDF>
  </metadata>
  <g
     inkscape:label="Layer 1"
     inkscape:groupmode="layer"
     id="layer1"
     transform="translate(0,-254.667)">
    <g
       id="g985"
       transform="matrix(0.42333,0,0,0.42333,0,254.667)">
      <rect
         id="rect969"
         ry="10"
         rx="10"
         height="100"
         width="100"
         x="0"
         y="0"
         style="fill:#0000a0" />
      <svg
         y="7"
         x="10"
         viewBox="0 0 15 15"
         height="80"
         width="80"
         id="SvgjsSvg1001"
         version="1.1"
         style="fill:#0000a0">
        <path
           id="path971"
           d="m 14,7.5 v 2 C 14,9.7761 13.7761,10 13.5,10 13.2239,10 13,9.7761 13,9.5 13,9.5 13.06,9 12,9 h -1 v 2.5 c 0,0.2761 -0.2239,0.5 -0.5,0.5 h -8 C 2.2239,12 2,11.7761 2,11.5 v -4 C 2,7.2239 2.2239,7 2.5,7 h 8 C 10.7761,7 11,7.2239 11,7.5 V 8 h 1 C 13.06,8 13,7.5 13,7.5 13,7.2239 13.2239,7 13.5,7 13.7761,7 14,7.2239 14,7.5 Z M 4,3 C 2.8954,3 2,3.8954 2,5 2,6.1046 2.8954,7 4,7 5.1046,7 6,6.1046 6,5 6,3.8954 5.1046,3 4,3 Z M 4,6 C 3.4477,6 3,5.5523 3,5 3,4.4477 3.4477,4 4,4 4.5523,4 5,4.4477 5,5 5,5.5523 4.5523,6 4,6 Z M 8.5,2 C 7.1193,2 6,3.1193 6,4.5 6,5.8807 7.1193,7 8.5,7 9.8807,7 11,5.8807 11,4.5 11,3.1193 9.8807,2 8.5,2 Z m 0,4 C 7.6716,6 7,5.3284 7,4.5 7,3.6716 7.6716,3 8.5,3 9.3284,3 10,3.6716 10,4.5 10,5.3284 9.3284,6 8.5,6 Z"
           inkscape:connector-curvature="0"
           style="fill:#ffffff" />
      </svg>
    </g>
  </g>
</svg>
