<svg xmlns="http://www.w3.org/2000/svg" version="1.1" xmlns:xlink="http://www.w3.org/1999/xlink" xmlns:svgjs="http://svgjs.com/svgjs" width="100" height="100"><circle r="50" cx="50" cy="50" fill="#3838b2"></circle><svg xmlns:dc="http://purl.org/dc/elements/1.1/" xmlns:cc="http://creativecommons.org/ns#" xmlns:rdf="http://www.w3.org/1999/02/22-rdf-syntax-ns#" xmlns:svg="http://www.w3.org/2000/svg" xmlns="http://www.w3.org/2000/svg" xmlns:sodipodi="http://sodipodi.sourceforge.net/DTD/sodipodi-0.dtd" xmlns:inkscape="http://www.inkscape.org/namespaces/inkscape" inkscape:version="1.0rc1 (09960d6f05, 2020-04-09)" sodipodi:docname="noun_Architecture_1437933.svg" id="svg10" xml:space="preserve" enable-background="new 0 0 100 100" viewBox="0 0 100 125" y="16" x="20" version="1.1" xmlns:xlink="http://www.w3.org/1999/xlink" xmlns:svgjs="http://svgjs.com/svgjs" width="60" height="60" fill="#3838b2"><metadata id="metadata16"><rdf:RDF><cc:Work rdf:about=""><dc:format>image/svg+xml</dc:format><dc:type rdf:resource="http://purl.org/dc/dcmitype/StillImage"></dc:type></cc:Work></rdf:RDF></metadata><defs id="defs14" fill="#ffffff"></defs><sodipodi:namedview inkscape:current-layer="svg10" inkscape:window-maximized="1" inkscape:window-y="-8" inkscape:window-x="-8" inkscape:cy="62.5" inkscape:cx="50" inkscape:zoom="1.984" showgrid="false" id="namedview12" inkscape:window-height="988" inkscape:window-width="1680" inkscape:pageshadow="2" inkscape:pageopacity="0" guidetolerance="10" gridtolerance="10" objecttolerance="10" borderopacity="1" bordercolor="#666666" pagecolor="#ffffff"></sodipodi:namedview><path style="stroke-width:1.39395" inkscape:connector-curvature="0" id="path2" d="m 61.508823,114.09313 h 20.124401 c 1.925039,0 3.484864,-1.55983 3.484864,-3.48487 V 5.4517569 c 0,-1.9250395 -1.559825,-3.4848653 -3.484864,-3.4848653 H 17.03358 c -0.115698,-0.00558 -0.23279,-0.00558 -0.348487,0 -1.787039,0.179819 -3.144743,1.6880687 -3.136379,3.4848653 V 110.60826 c 0,1.92504 1.559826,3.48487 3.484866,3.48487 h 20.125793 c 1.925041,0 3.484866,-1.55983 3.484866,-3.48487 v -9.45234 c 0,-4.788211 3.879352,-8.668956 8.66895,-8.668956 4.788205,0 8.712163,3.879351 8.712163,8.668956 v 9.45234 c 0,1.92364 1.559825,3.48487 3.483471,3.48487 z M 41.210181,80.289935 c 0,1.925038 -1.559826,3.484866 -3.484866,3.484866 h -6.707668 c -1.925039,0 -3.484865,-1.559828 -3.484865,-3.484866 v -6.709062 c -0.0083,-1.796797 1.349339,-3.305047 3.136378,-3.484866 0.115697,-0.0055 0.23279,-0.0055 0.348487,0 h 6.707668 c 1.92504,0 3.484866,1.559826 3.484866,3.484866 z m 0,-27.922135 c 0,1.92504 -1.559826,3.484865 -3.484866,3.484865 h -6.707668 c -1.925039,0 -3.484865,-1.559825 -3.484865,-3.484865 v -6.664456 c -0.0083,-1.796797 1.349339,-3.305045 3.136378,-3.484865 0.115697,-0.0055 0.23279,-0.0055 0.348487,0 h 6.707668 c 1.92504,0 3.484866,1.559825 3.484866,3.484865 z m 0,-27.923528 c 0,1.92504 -1.559826,3.484866 -3.484866,3.484866 h -6.707668 c -1.925039,0 -3.484865,-1.559826 -3.484865,-3.484866 v -6.664455 c -0.0083,-1.796797 1.349339,-3.305047 3.136378,-3.484866 0.115697,-0.0055 0.23279,-0.0055 0.348487,0 h 6.707668 c 1.92504,0 3.484866,1.559825 3.484866,3.484866 z m 16.204623,-6.664455 c -0.0083,-1.796797 1.34934,-3.305047 3.136379,-3.484866 0.115698,-0.0055 0.232789,-0.0055 0.348486,0 h 6.709063 c 1.92504,0 3.484866,1.559825 3.484866,3.484866 v 6.664455 c 0,1.92504 -1.559826,3.484866 -3.484866,3.484866 h -6.709063 c -1.925039,0 -3.484865,-1.559826 -3.484865,-3.484866 z m 0,27.922133 c -0.0083,-1.796796 1.34934,-3.305045 3.136379,-3.484864 0.115698,-0.0055 0.232789,-0.0055 0.348486,0 h 6.709063 c 1.92504,0 3.484866,1.559824 3.484866,3.484864 v 6.664457 c 0,1.925039 -1.559826,3.484865 -3.484866,3.484865 h -6.709063 c -1.925039,0 -3.484865,-1.559826 -3.484865,-3.484865 z m 0,34.587985 v -6.709062 c -0.0083,-1.796797 1.34934,-3.305047 3.136379,-3.484866 0.115698,-0.0055 0.232789,-0.0055 0.348486,0 h 6.709063 c 1.92504,0 3.484866,1.559826 3.484866,3.484866 v 6.709062 c 0,1.925038 -1.559826,3.484866 -3.484866,3.484866 h -6.709063 c -1.925039,0 -3.484865,-1.561221 -3.484865,-3.484866 z" fill="#ffffff"></path><path style="stroke-width:1.39395" inkscape:connector-curvature="0" id="path4" d="m 93.766131,119.80272 c 0.02788,-1.92502 -1.511038,-3.50716 -3.436077,-3.53364 -0.03346,0 -0.06551,0 -0.09897,0 H 8.3925084 c -1.9250396,-0.0278 -3.5071684,1.51103 -3.5336535,3.43607 -0.027879,1.92505 1.5110377,3.50717 3.4360773,3.53366 0.032061,0 0.065516,0 0.09897,0 H 90.232477 c 1.92504,0.0264 3.507169,-1.51104 3.533654,-3.43609 z" fill="#ffffff"></path></svg></svg>