<?xml version="1.0" encoding="UTF-8" standalone="no"?>
<!-- Created with Inkscape (http://www.inkscape.org/) -->

<svg
   xmlns:dc="http://purl.org/dc/elements/1.1/"
   xmlns:cc="http://creativecommons.org/ns#"
   xmlns:rdf="http://www.w3.org/1999/02/22-rdf-syntax-ns#"
   xmlns:svg="http://www.w3.org/2000/svg"
   xmlns="http://www.w3.org/2000/svg"
   xmlns:sodipodi="http://sodipodi.sourceforge.net/DTD/sodipodi-0.dtd"
   xmlns:inkscape="http://www.inkscape.org/namespaces/inkscape"
   width="42.333mm"
   height="42.333mm"
   viewBox="0 0 42.333 42.333"
   version="1.1"
   id="svg8"
   inkscape:version="0.92.4 (5da689c313, 2019-01-14)">
  <defs
     id="defs2">
    <inkscape:perspective
       id="perspective2441"
       inkscape:persp3d-origin="290 : 193.33333 : 1"
       inkscape:vp_z="580 : 290 : 1"
       inkscape:vp_y="0 : 1000 : 0"
       inkscape:vp_x="0 : 290 : 1"
       sodipodi:type="inkscape:persp3d" />
    <inkscape:perspective
       sodipodi:type="inkscape:persp3d"
       inkscape:vp_x="0 : 30 : 1"
       inkscape:vp_y="0 : 1000 : 0"
       inkscape:vp_z="60 : 30 : 1"
       inkscape:persp3d-origin="30 : 20 : 1"
       id="perspective3452" />
    <symbol
       id="symbol-university"
       viewBox="244.5 110 489 219.9">
      <path
         d="M79,43l57,119c0,0,21-96,104-96s124,106,124,106l43-133l82-17L0,17L79,43z"
         id="path4460" />
      <path
         fill="none"
         stroke="#000000"
         stroke-width="20"
         d="M94,176l-21,39"
         id="path4462" />
      <path
         d="M300,19c0,10.5-22.6,19-50.5,19S199,29.5,199,19s22.6-19,50.5-19S300,8.5,300,19z"
         id="path4464" />
      <path
         ill="none"
         stroke="#000000"
         stroke-width="20"
         d="M112,216l-16-38L64,88c0,0-9-8-4-35s16-24,16-24"
         id="path4466" />
    </symbol>
    <inkscape:perspective
       sodipodi:type="inkscape:persp3d"
       inkscape:vp_x="0 : 526.18109 : 1"
       inkscape:vp_y="0 : 1000 : 0"
       inkscape:vp_z="744.09448 : 526.18109 : 1"
       inkscape:persp3d-origin="372.04724 : 350.78739 : 1"
       id="perspective4471" />
    <inkscape:perspective
       sodipodi:type="inkscape:persp3d"
       inkscape:vp_x="0 : 6 : 1"
       inkscape:vp_y="0 : 1000 : 0"
       inkscape:vp_z="12 : 6 : 1"
       inkscape:persp3d-origin="6 : 4 : 1"
       id="perspective4668" />
  </defs>
  <sodipodi:namedview
     id="base"
     pagecolor="#ffffff"
     bordercolor="#666666"
     borderopacity="1.0"
     inkscape:pageopacity="0.0"
     inkscape:pageshadow="2"
     inkscape:zoom="11.48759"
     inkscape:cx="79.99937"
     inkscape:cy="79.99937"
     inkscape:document-units="mm"
     inkscape:current-layer="layer1"
     showgrid="false"
     inkscape:window-width="3840"
     inkscape:window-height="2115"
     inkscape:window-x="-13"
     inkscape:window-y="-13"
     inkscape:window-maximized="1" />
  <metadata
     id="metadata5">
    <rdf:RDF>
      <cc:Work
         rdf:about="">
        <dc:format>image/svg+xml</dc:format>
        <dc:type
           rdf:resource="http://purl.org/dc/dcmitype/StillImage" />
        <dc:title></dc:title>
      </cc:Work>
    </rdf:RDF>
  </metadata>
  <g
     inkscape:label="Layer 1"
     inkscape:groupmode="layer"
     id="layer1"
     transform="translate(0,-254.667)">
    <rect
       style="fill:#0000ff;fill-rule:evenodd;stroke-width:0.33267054"
       id="rect1031"
       width="42.333"
       height="42.333"
       x="0"
       y="254.66701"
       ry="26.458334" />
    <g
       id="g1045"
       transform="matrix(0.24108812,0,0,0.22538548,9.2862247,260.95691)"
       style="fill:#ffffff;fill-opacity:1">
      <path
         d="M 81.551291,106.02477 H 18.532714 c -5.791874,0 -10.5030961,-4.71122 -10.5030961,-10.503097 V 88.519609 H 92.054387 v 7.002064 c 0,5.791877 -4.711221,10.503097 -10.503096,10.503097 z"
         id="path2"
         inkscape:connector-curvature="0"
         style="fill:#ffffff;fill-opacity:1;stroke-width:1.16700995" />
      <path
         d="M 60.545099,22 H 39.538907 C 22.165618,22 8.0296179,36.136001 8.0296179,53.509289 v 3.501032 H 92.054387 V 53.509289 C 92.054387,36.136001 77.918388,22 60.545099,22 Z M 30.786327,43.006193 c -2.900022,0 -5.251548,-2.351527 -5.251548,-5.251548 0,-2.900023 2.351526,-5.251549 5.251548,-5.251549 2.900021,0 5.251548,2.351526 5.251548,5.251549 0,2.900021 -2.351527,5.251548 -5.251548,5.251548 z m 19.255676,7.002063 c -2.900021,0 -5.251548,-2.351526 -5.251548,-5.251548 0,-2.900021 2.351527,-5.251548 5.251548,-5.251548 2.900021,0 5.251548,2.351527 5.251548,5.251548 0,2.900022 -2.351527,5.251548 -5.251548,5.251548 z m 19.255676,-7.002063 c -2.900021,0 -5.251548,-2.351527 -5.251548,-5.251548 0,-2.900023 2.351527,-5.251549 5.251548,-5.251549 2.900022,0 5.251549,2.351526 5.251549,5.251549 0,2.900021 -2.351527,5.251548 -5.251549,5.251548 z"
         id="path4"
         inkscape:connector-curvature="0"
         style="fill:#ffffff;fill-opacity:1;stroke-width:1.16700995" />
      <path
         d="m 99.056452,71.014449 v 3.501032 c 0,3.861638 -3.140426,7.002064 -7.002065,7.002064 H 8.0296179 c -3.8616384,0 -7.0020642,-3.140426 -7.0020642,-7.002064 v -3.501032 c 0,-3.861638 3.1404258,-7.002065 7.0020642,-7.002065 h 5.8350531 l 13.07052,9.801724 c 0.618516,0.463303 1.357234,0.701373 2.100619,0.701373 0.533325,0 1.07015,-0.121369 1.566129,-0.368776 L 50.869414,64.012384 h 41.184973 c 3.861639,0 7.002065,3.140427 7.002065,7.002065 z"
         id="path6"
         inkscape:connector-curvature="0"
         style="fill:#ffffff;fill-opacity:1;stroke-width:1.16700995" />
    </g>
  </g>
</svg>
