<?xml version="1.0" encoding="UTF-8" standalone="no"?>
<!-- Created with Inkscape (http://www.inkscape.org/) -->

<svg
   xmlns:dc="http://purl.org/dc/elements/1.1/"
   xmlns:cc="http://creativecommons.org/ns#"
   xmlns:rdf="http://www.w3.org/1999/02/22-rdf-syntax-ns#"
   xmlns:svg="http://www.w3.org/2000/svg"
   xmlns="http://www.w3.org/2000/svg"
   xmlns:sodipodi="http://sodipodi.sourceforge.net/DTD/sodipodi-0.dtd"
   xmlns:inkscape="http://www.inkscape.org/namespaces/inkscape"
   width="42.333mm"
   height="42.333mm"
   viewBox="0 0 42.333 42.333"
   version="1.1"
   id="svg8"
   inkscape:version="0.92.4 (5da689c313, 2019-01-14)">
  <defs
     id="defs2" />
  <sodipodi:namedview
     id="base"
     pagecolor="#ffffff"
     bordercolor="#666666"
     borderopacity="1.0"
     inkscape:pageopacity="0.0"
     inkscape:pageshadow="2"
     inkscape:zoom="11.48759"
     inkscape:cx="79.99937"
     inkscape:cy="79.99937"
     inkscape:document-units="mm"
     inkscape:current-layer="layer1"
     showgrid="false"
     inkscape:window-width="3840"
     inkscape:window-height="2115"
     inkscape:window-x="-13"
     inkscape:window-y="-13"
     inkscape:window-maximized="1" />
  <metadata
     id="metadata5">
    <rdf:RDF>
      <cc:Work
         rdf:about="">
        <dc:format>image/svg+xml</dc:format>
        <dc:type
           rdf:resource="http://purl.org/dc/dcmitype/StillImage" />
        <dc:title></dc:title>
      </cc:Work>
    </rdf:RDF>
  </metadata>
  <g
     inkscape:label="Layer 1"
     inkscape:groupmode="layer"
     id="layer1"
     transform="translate(0,-254.667)">
    <rect
       style="fill:#c83264;fill-opacity:1;fill-rule:evenodd;stroke-width:0.8939656;paint-order:stroke markers fill"
       id="rect836"
       width="42.333"
       height="42.333"
       x="0"
       y="254.66701"
       ry="26.458334" />
    <g
       id="g6"
       transform="matrix(0.38084177,0,0,0.39017168,11.483418,265.00959)"
       style="fill:#ffffff;fill-opacity:1" />
    <g
       id="g991"
       transform="matrix(0.38159097,0,0,0.44097908,30.821042,277.22778)"
       style="stroke-width:6.44992161">
      <path
         sodipodi:nodetypes="scccccss"
         inkscape:connector-curvature="0"
         id="path37759"
         d="m -2.5715637,-29.850003 c 2.10285065,0 3.38462265,2.26687 2.36562465,4.05625 L -22.480936,12.815626 c -0.532571,0.915464 -1.45303,1.367516 -2.36875,1.3625 -0.91572,0.005 -1.836179,-0.447036 -2.36875,-1.3625 l -22.275003,-38.609379 c -1.018998,-1.78938 0.262774,-4.05625 2.365625,-4.05625 z"
         style="fill:#ffffff;fill-opacity:1;stroke:#ffffff;stroke-width:1.2899847;stroke-miterlimit:4;stroke-dasharray:none;stroke-opacity:1" />
      <path
         sodipodi:nodetypes="cccccccc"
         inkscape:connector-curvature="0"
         id="path37763"
         d="m -2.5684457,-28.800131 c 1.269022,0.0052 2.09296165,1.222161 1.403125,2.425 L -23.452818,12.243623 c -0.357662,0.624542 -0.879931,0.894339 -1.396875,0.884375 -0.516944,0.01 -1.039213,-0.259833 -1.396875,-0.884375 l -22.287503,-38.618754 c -0.689837,-1.202839 0.134103,-2.4198 1.403125,-2.425 z"
         style="fill:#ffffff;fill-opacity:1;fill-rule:evenodd;stroke:none;stroke-width:6.44992161" />
      <path
         sodipodi:nodetypes="cccccc"
         id="path37771"
         style="fill:#c83264;fill-opacity:1;fill-rule:evenodd;stroke:none;stroke-width:6.44992161"
         d="m -24.849698,1.6706576 13.923502,-23.9986116 -27.847003,0.0052 13.923501,23.9933586 v 2.7e-5 z"
         inkscape:connector-curvature="0" />
      <path
         sodipodi:nodetypes="ssssssccsss"
         inkscape:connector-curvature="0"
         id="rect3154"
         d="m -38.349692,22.540189 c 2e-6,1.457403 1.18056,2.63797 2.637979,2.63797 h 21.724032 c 1.457417,0 2.637976,-1.180567 2.637975,-2.63797 l -4e-6,-5.524042 c -10e-7,-1.45742 -1.180554,-2.637971 -2.637976,-2.637972 l -3.742625,-1e-6 -4.086636,-2e-6 -13.894783,-5e-6 c -1.457411,-10e-7 -2.637971,1.18056 -2.637969,2.637972 z"
         style="fill:#c83264;fill-opacity:1;stroke:#ffffff;stroke-width:1.2899847;stroke-miterlimit:4;stroke-dasharray:none;stroke-opacity:1" />
      <path
         inkscape:connector-curvature="0"
         d="m -33.139032,24.219759 0.866763,-3.396732 h 0.840428 l 0.866622,3.396732 h -0.668841 l -0.145394,-0.598806 h -0.943661 l -0.145395,0.598806 h -0.670522 m 0.97882,-1.244955 h 0.617995 l -0.309838,-1.29566 z"
         style="fill:#ffffff;fill-opacity:1;fill-rule:evenodd;stroke:none;stroke-width:6.44992161"
         id="path89802" />
      <path
         inkscape:connector-curvature="0"
         d="m -23.068598,24.219759 0.866762,-3.396732 h 0.840428 l 0.866762,3.396732 h -0.668841 l -0.145394,-0.598806 h -0.943661 l -0.145394,0.598806 h -0.670522 m 0.978819,-1.244955 h 0.617995 l -0.309838,-1.29566 z"
         style="fill:#ffffff;fill-opacity:1;fill-rule:evenodd;stroke:none;stroke-width:6.44992161"
         id="path89804" />
      <path
         inkscape:connector-curvature="0"
         d="M -15.891691,24.218358 V 20.82863 h 2.069555 v 0.646009 h -1.421724 v 0.712544 h 1.047033 v 0.642647 h -1.047033 v 0.740698 h 1.470749 v 0.64783 z"
         style="fill:#ffffff;fill-opacity:1;fill-rule:evenodd;stroke:none;stroke-width:6.44992161"
         id="path89806" />
      <path
         inkscape:connector-curvature="0"
         d="m -19.348484,21.375609 0.119061,-0.203104 0.164584,-0.169766 0.197781,-0.127465 0.222433,-0.08965 0.229297,-0.03642 0.239941,0.0105 0.222434,0.06443 0.208426,0.113458 0.185595,0.145254 0.13867,0.190917 0.05743,0.100851 -0.007,-0.01233 0.127465,0.311659 -0.6285,0.150577 -0.07564,-0.189097 v 0.01233 l -0.08264,-0.120462 -0.127465,-0.08965 -0.147075,-0.04622 -0.145393,0.0088 -0.145254,0.05603 -0.116259,0.09665 -0.06163,0.09525 0.0053,-0.01233 -0.100852,0.273139 -0.05043,0.285325 -0.007,0.152398 -0.007,0.266136 h 0.007 l 0.02661,0.292469 0.07564,0.273139 0.05743,0.145254 -0.0053,-0.01219 0.08824,0.120461 0.120461,0.08965 0.147075,0.04342 0.150576,-0.007 0.140071,-0.05603 0.120462,-0.09665 0.05743,-0.09525 v 0.01219 l 0.07984,-0.21529 -0.493751,-0.01219 v -0.637325 h 1.21862 v 0.154079 h -0.0053 l -0.02661,0.343175 -0.07704,0.329168 -0.120462,0.311658 0.007,-0.01219 -0.126064,0.204785 -0.159402,0.168085 -0.1961,0.127465 -0.222433,0.08965 -0.236301,0.03922 -0.232797,-0.01219 -0.229437,-0.06443 -0.203104,-0.113458 -0.183913,-0.145254 -0.145254,-0.190917 -0.05043,-0.100852 0.0053,0.01219 -0.126065,-0.318663 -0.07704,-0.327347 -0.02521,-0.337992 -0.007,-0.266136 h 0.007 l 0.02521,-0.343175 0.07704,-0.329167 0.126065,-0.311659 -0.0053,0.01233 z"
         style="fill:#ffffff;fill-opacity:1;fill-rule:evenodd;stroke:none;stroke-width:6.44992161"
         id="path89808" />
      <path
         inkscape:connector-curvature="0"
         d="m -35.926299,24.219759 v -3.396732 h 1.124073 l 0.248627,0.02661 0.222433,0.07704 0.21529,0.119061 0.187415,0.171587 0.147075,0.189097 0.103653,0.224114 0.05043,0.239942 v 0.248627 l -0.04342,0.239942 -0.09525,0.222434 -0.135869,0.19778 -0.178591,0.171588 -0.206606,0.127465 -0.232798,0.08544 -0.239942,0.03642 h -0.514763 v 1.019019 h -0.651332 m 0.651332,-1.663348 h 0.472741 l 0.161082,-0.02661 0.147075,-0.07004 0.119061,-0.11906 0.08684,-0.145255 0.02521,-0.162903 -0.01681,-0.162763 -0.06723,-0.147075 -0.113458,-0.127464 -0.134468,-0.08544 -0.164584,-0.03502 h -0.514763 v 1.082052 z"
         style="fill:#ffffff;fill-opacity:1;fill-rule:evenodd;stroke:none;stroke-width:6.44992161"
         id="path89810" />
      <path
         inkscape:connector-curvature="0"
         d="m -29.786604,23.482983 0.113457,0.203104 0.157581,0.178591 0.133068,0.102252 -0.0053,-0.007 0.253809,0.134469 0.266136,0.08124 0.280143,0.03782 0.285465,-0.01219 0.273139,-0.07004 0.08965,-0.03222 h 0.0053 l 0.1961,-0.102252 0.166265,-0.152258 0.133067,-0.178591 0.08264,-0.210107 0.03782,-0.21529 -0.01961,-0.220612 -0.06303,-0.217111 -0.109256,-0.190917 -0.152258,-0.162763 -0.183913,-0.127465 -0.126065,-0.05743 -0.896457,-0.309978 h -0.0052 l -0.100852,-0.06443 -0.06303,-0.09525 -0.01401,-0.116259 0.03082,-0.113458 0.08264,-0.08124 0.03362,-0.02661 v 0.0052 l 0.1961,-0.07004 0.203104,-0.01961 0.203103,0.03222 0.171588,0.06443 h -0.01233 l 0.119061,0.09525 0.07704,0.113458 0.551461,-0.23462 -0.100851,-0.203103 -0.145254,-0.171588 -0.183914,-0.133067 -0.08965,-0.05043 h 0.01219 l -0.259132,-0.09525 -0.267817,-0.04342 -0.271458,0.01219 -0.267817,0.05743 -0.21543,0.08264 v 0.0052 l -0.178591,0.11626 -0.13867,0.159401 -0.109256,0.182093 -0.05743,0.203103 -0.0053,0.217111 0.03642,0.208286 0.09805,0.190917 0.131668,0.164584 0.164583,0.134469 0.145255,0.06864 0.908783,0.316841 v 0.007 l 0.116259,0.06303 0.07564,0.109256 0.03081,0.120461 -0.01219,0.133068 -0.06303,0.116259 -0.100851,0.07564 -0.03222,0.01219 h -0.007 l -0.210108,0.05743 -0.215289,0.0052 -0.210107,-0.04342 -0.189097,-0.08404 -0.127465,-0.09945 -0.03081,-0.05042 -0.630322,0.189096 0.0087,0.007 z"
         style="fill:#ffffff;fill-opacity:1;fill-rule:evenodd;stroke:none;stroke-width:6.44992161"
         id="path89812" />
      <path
         inkscape:connector-curvature="0"
         d="m -26.424008,23.482983 0.113457,0.203104 0.157581,0.178591 0.133068,0.102252 -0.0053,-0.007 0.252128,0.134469 0.267957,0.08124 0.280143,0.03782 0.285465,-0.01219 0.27314,-0.07004 0.08965,-0.03222 h 0.0053 l 0.1961,-0.102252 0.166265,-0.152258 0.133068,-0.178591 0.08264,-0.210107 0.03782,-0.21529 -0.01961,-0.220612 -0.06303,-0.217111 -0.109256,-0.190917 -0.152258,-0.162763 -0.183773,-0.127465 -0.126064,-0.05743 -0.896457,-0.309978 h -0.0053 l -0.102252,-0.06443 -0.06303,-0.09525 -0.01401,-0.116259 0.03222,-0.113458 0.08264,-0.08124 0.03362,-0.02661 v 0.0052 l 0.1961,-0.07004 0.203104,-0.01961 0.203103,0.03222 0.171588,0.06443 h -0.01233 l 0.119061,0.09525 0.07704,0.113458 0.551461,-0.23462 -0.100851,-0.203103 -0.145394,-0.171588 -0.183774,-0.133067 -0.08965,-0.05043 h 0.01219 l -0.259132,-0.09525 -0.266136,-0.04342 -0.27496,0.01219 -0.266136,0.05743 -0.21529,0.08264 v 0.0052 l -0.178591,0.11626 -0.140071,0.159401 -0.106454,0.182093 -0.05743,0.203103 -0.0053,0.217111 0.03642,0.208286 0.09805,0.190917 0.131667,0.164584 0.164584,0.134469 0.145394,0.06864 0.908784,0.316841 v 0.007 l 0.114858,0.06303 0.07564,0.109256 0.03222,0.120461 -0.01233,0.133068 -0.06303,0.116259 -0.100852,0.07564 -0.03222,0.01219 h -0.007 l -0.210107,0.05743 -0.215289,0.0052 -0.210108,-0.04342 -0.190917,-0.08404 -0.127465,-0.09945 -0.02942,-0.05042 -0.630321,0.189096 0.0088,0.007 z"
         style="fill:#ffffff;fill-opacity:1;fill-rule:evenodd;stroke:none;stroke-width:6.44992161"
         id="path89814" />
      <path
         inkscape:connector-curvature="0"
         d="m -33.307857,19.149659 v -3.396731 h 2.067805 v 0.651332 h -1.423476 v 0.712683 h 1.054037 v 0.635504 h -1.054037 v 0.74588 h 1.474252 v 0.651332 h -2.118581 m 0.505938,-3.559564 0.257312,-0.677666 h 0.763389 l -0.343175,0.677666 h -0.677666 z"
         style="fill:#ffffff;fill-opacity:1;fill-rule:evenodd;stroke:none;stroke-width:6.44992161"
         id="path89816" />
      <path
         inkscape:connector-curvature="0"
         d="m -36.432514,16.306196 0.120461,-0.201423 0.162763,-0.173268 0.199602,-0.126065 0.21543,-0.08965 0.234619,-0.03642 0.23462,0.01051 0.227616,0.06443 0.210107,0.113458 0.17677,0.147075 0.147075,0.189097 0.05043,0.100851 v -0.01401 l 0.120461,0.31348 -0.6285,0.150576 -0.07704,-0.190917 0.0087,0.01401 -0.08965,-0.120461 -0.120461,-0.08684 -0.145254,-0.04763 -0.154079,0.0088 -0.140071,0.05603 -0.113458,0.09665 -0.06303,0.09525 0.007,-0.01401 -0.100852,0.27482 -0.05043,0.285466 -0.01401,0.152257 -0.0053,0.267957 h 0.0053 l 0.02661,0.290648 0.07564,0.273139 0.06443,0.145254 -0.007,-0.01219 0.08825,0.120461 0.120461,0.08965 0.147075,0.04342 0.152258,-0.007 0.140071,-0.05603 0.113458,-0.09525 0.06443,-0.09665 -0.0087,0.01219 0.07704,-0.190918 0.6285,0.147075 v 0.0053 l -0.120461,0.311659 v -0.01219 l -0.120462,0.203103 -0.164584,0.171588 -0.197781,0.127464 -0.215289,0.08825 -0.232939,0.03782 -0.2363,-0.01401 -0.227617,-0.06163 -0.210107,-0.116259 -0.178591,-0.147075 -0.145254,-0.189096 -0.05043,-0.100852 v 0.01219 l -0.120462,-0.316981 -0.07704,-0.330849 -0.02521,-0.33449 -0.0053,-0.267817 h 0.0053 l 0.02521,-0.343175 0.07704,-0.329168 0.120462,-0.313479 v 0.01401 z"
         style="fill:#ffffff;fill-opacity:1;fill-rule:evenodd;stroke:none;stroke-width:6.44992161"
         id="path89818" />
      <path
         inkscape:connector-curvature="0"
         d="m -29.927415,19.149659 v -3.396731 h 1.115388 l 0.239943,0.02381 0.239942,0.07844 0.206605,0.11906 0.180412,0.171588 0.145254,0.189096 0.103653,0.224115 0.05043,0.238121 0.02661,0.560286 -0.01681,0.563787 -0.0087,0.180272 v -0.007 l -0.05043,0.238122 -0.09525,0.225935 -0.147075,0.1961 -0.178591,0.162763 -0.21529,0.120461 -0.231117,0.07704 -0.241624,0.03362 h -1.122252 m 0.642508,-0.651332 h 0.472741 l 0.162763,-0.02661 0.145394,-0.06864 0.112057,-0.112057 0.07704,-0.145254 0.02661,-0.119061 V 18.041 l 0.03362,-0.53045 -0.02521,-0.540956 -0.0087,-0.112057 v 0.01681 l -0.04342,-0.162763 -0.08544,-0.13727 -0.127465,-0.103652 -0.145394,-0.06163 -0.120461,-0.0088 h -0.472741 v 2.094067 z"
         style="fill:#ffffff;fill-opacity:1;fill-rule:evenodd;stroke:none;stroke-width:6.44992161"
         id="path89820" />
      <path
         inkscape:connector-curvature="0"
         d="m -26.337904,19.148959 v -3.389728 h 2.069555 v 0.646009 h -1.421724 v 0.712543 h 1.047033 v 0.640827 h -1.047033 v 0.742378 h 1.4725 v 0.647831 h -2.120331 z"
         style="fill:#ffffff;fill-opacity:1;fill-rule:evenodd;stroke:none;stroke-width:6.44992161"
         id="path89822" />
      <path
         inkscape:connector-curvature="0"
         d="m -15.160739,19.148959 v -3.389728 h 2.069555 v 0.646009 h -1.421725 v 0.712543 h 1.047034 v 0.640827 h -1.047034 v 0.742378 h 1.472501 v 0.647831 h -2.120331 z"
         style="fill:#ffffff;fill-opacity:1;fill-rule:evenodd;stroke:none;stroke-width:6.44992161"
         id="path89824" />
      <path
         inkscape:connector-curvature="0"
         d="m -18.082278,19.148959 v -3.389728 h 0.649511 v 2.741898 h 1.267646 v 0.64783 h -1.917227 z"
         style="fill:#ffffff;fill-opacity:1;fill-rule:evenodd;stroke:none;stroke-width:6.44992161"
         id="path89826" />
      <path
         inkscape:connector-curvature="0"
         d="m -23.080025,19.148959 v -0.64783 l 1.390209,-2.095819 h -1.390209 v -0.646009 h 2.202623 v 0.646009 l -1.388528,2.095819 h 1.49001 v 0.64783 h -2.304175 z"
         style="fill:#ffffff;fill-opacity:1;fill-rule:evenodd;stroke:none;stroke-width:6.44992161"
         id="path89828" />
    </g>
  </g>
</svg>
