<?xml version="1.0" encoding="UTF-8" standalone="no"?>
<!-- Created with Inkscape (http://www.inkscape.org/) -->

<svg
   xmlns:dc="http://purl.org/dc/elements/1.1/"
   xmlns:cc="http://creativecommons.org/ns#"
   xmlns:rdf="http://www.w3.org/1999/02/22-rdf-syntax-ns#"
   xmlns:svg="http://www.w3.org/2000/svg"
   xmlns="http://www.w3.org/2000/svg"
   xmlns:sodipodi="http://sodipodi.sourceforge.net/DTD/sodipodi-0.dtd"
   xmlns:inkscape="http://www.inkscape.org/namespaces/inkscape"
   width="160"
   height="160"
   viewBox="0 0 42.333332 42.333335"
   version="1.1"
   id="svg8"
   inkscape:version="0.92.4 (5da689c313, 2019-01-14)"
   sodipodi:docname="Centre_formation.svg">
  <defs
     id="defs2">
    <style
       id="style817">
            .cls-1{fill:#fff}
        </style>
    <style
       id="style841">
            .cls-1{fill:#fff}
        </style>
    <style
       id="style854">
            .cls-1{fill:#fff}
        </style>
    <style
       id="style867">
            .cls-1{fill:#fff}
        </style>
    <style
       id="style880">
            .cls-1{fill:#fff}
        </style>
    <style
       id="style898">
            .cls-1{fill:#fff}
        </style>
    <style
       id="style915">
            .cls-1{fill:#fff}
        </style>
    <style
       id="style928">
            .cls-1{fill:#fff}
        </style>
    <style
       id="style941">
            .cls-1{fill:#fff}
        </style>
    <style
       id="style957">
            .cls-1{fill:#fff}
        </style>
    <style
       id="style970">
            .cls-1{fill:#fff}
        </style>
    <style
       id="style987">
            .cls-1{fill:#fff}
        </style>
    <style
       id="style1000">
            .cls-1{fill:#fff}
        </style>
    <style
       id="style1013">
            .cls-1{fill:#fff}
        </style>
    <style
       id="style1032">
            .cls-1{fill:#fff;fill-rule:evenodd}
        </style>
    <style
       id="style1053">
            .cls-1{fill:#fff}
        </style>
    <style
       id="style1073">
            .cls-1{fill:#fff}
        </style>
    <style
       id="style1103">
            .cls-1{fill:#fff}
        </style>
    <style
       id="style1135">
            .cls-1{fill:#fff}
        </style>
    <style
       id="style1154">
            .cls-1{fill:#fff}
        </style>
    <style
       id="style1173">
            .cls-1{fill:#fff}
        </style>
    <style
       id="style1196">
            .cls-1{fill:#fff}
        </style>
    <style
       id="style1209">
            .cls-1{fill:#fff}
        </style>
    <style
       id="style1222">
            .cls-1{fill:#fff}
        </style>
    <style
       id="style1240">
            .cls-1{fill:#fff}
        </style>
    <style
       id="style1273">
            .cls-1{fill:#fff}
        </style>
    <style
       id="style1297">
            .cls-1{fill:#fff}
        </style>
    <style
       id="style1315">
            .cls-1{fill:#fff}
        </style>
  </defs>
  <sodipodi:namedview
     id="base"
     pagecolor="#ffffff"
     bordercolor="#666666"
     borderopacity="1.0"
     inkscape:pageopacity="0.0"
     inkscape:pageshadow="2"
     inkscape:zoom="7.4"
     inkscape:cx="80"
     inkscape:cy="80"
     inkscape:document-units="mm"
     inkscape:current-layer="layer1"
     showgrid="false"
     units="px"
     inkscape:window-width="1916"
     inkscape:window-height="2093"
     inkscape:window-x="-12"
     inkscape:window-y="0"
     inkscape:window-maximized="0" />
  <metadata
     id="metadata5">
    <rdf:RDF>
      <cc:Work
         rdf:about="">
        <dc:format>image/svg+xml</dc:format>
        <dc:type
           rdf:resource="http://purl.org/dc/dcmitype/StillImage" />
        <dc:title></dc:title>
      </cc:Work>
    </rdf:RDF>
  </metadata>
  <g
     inkscape:label="Layer 1"
     inkscape:groupmode="layer"
     id="layer1"
     transform="translate(0,-254.66665)">
    <rect
       style="fill:#4b6584;fill-rule:evenodd;stroke-width:0.26458332;fill-opacity:1"
       id="rect815"
       width="42.333332"
       height="42.333332"
       x="-3.9333695e-08"
       y="254.70239"
       ry="3.4999876" />
    <g
       transform="matrix(0.70907689,0,0,0.76322818,8.8374801,263.17198)"
       data-name="Centre de formation"
       id="Centre_de_formation">
      <path
         data-name="Tracé 4455"
         class="cls-1"
         d="M 30.9,7.8 A 1.884,1.884 0 0 0 30.1,7.6 h -13 c -0.4,0 -0.8,0 -0.8,0.5 0,0.6 0.5,0.5 0.8,0.5 H 30.2 A 1.445,1.445 0 0 0 30.9,8.4 0.756,0.756 0 0 0 31,8 C 31,7.9 30.9,7.9 30.9,7.8 Z"
         id="Tracé_4455"
         inkscape:connector-curvature="0"
         style="fill:#ffffff" />
      <path
         data-name="Tracé 4456"
         class="cls-1"
         d="m 30.5,10 a 0.637,0.637 0 0 0 -0.6,0 H 17 c -0.3,0 -0.7,0 -0.7,0.3 v 0.3 A 1.012,1.012 0 0 0 17,11 h 13.5 c 0.1,0 0.3,-0.2 0.4,-0.3 V 10.5 A 0.887,0.887 0 0 0 30.5,10 Z"
         id="Tracé_4456"
         inkscape:connector-curvature="0"
         style="fill:#ffffff" />
      <path
         data-name="Tracé 4457"
         class="cls-1"
         d="M 37.2,21.7 A 0.462,0.462 0 0 0 36.7,21.4 C 36.3,21.3 36.1,21.2 36,20.9 A 1.949,1.949 0 0 1 35.9,20.1 V 2.8 A 3.425,3.425 0 0 0 35.5,1 2.5,2.5 0 0 0 33.1,0 H 5.9 A 2.49,2.49 0 0 0 3.8,1.7 C 3.8,1.8 3.7,2 3.7,2.1 V 5.9 C 3.8,6.2 4.1,6.2 5.2,6.2 5.7,6.1 6,6 5.9,5.5 V 3.9 C 5.9,2.4 6.1,2.2 7.6,2.2 H 33 a 0.349,0.349 0 0 1 0.2,0.1 l 0.1,0.1 c 0.1,0.1 0.1,0.1 0.1,0.2 l 0.1,0.1 c 0,0.1 0,0.1 0.1,0.2 v 17.6 c 0,0.5 -0.2,0.8 -0.7,0.8 H 31 c -0.8,0 -1.1,0 -1.2,-0.3 a 2.22,2.22 0 0 1 -0.1,-0.9 c 0,-0.2 -0.1,-0.5 -0.1,-0.6 -0.2,-0.5 -0.5,-0.7 -1.2,-0.7 h -3.3 c -0.9,0 -1.3,0.4 -1.3,1.3 0,1.2 0,1.2 -1.3,1.2 H 11 c -0.3,0 -0.8,0.1 -0.8,0.2 a 4.845,4.845 0 0 0 0,1.7 l 0.1,0.1 a 2.483,2.483 0 0 0 0.9,0.1 h 24.6 c 0.3,0 0.6,0.1 0.8,0 a 1.779,1.779 0 0 0 0.7,-0.8 3.085,3.085 0 0 0 -0.1,-0.9 z"
         id="Tracé_4457"
         inkscape:connector-curvature="0"
         style="fill:#ffffff" />
      <path
         data-name="Tracé 4458"
         class="cls-1"
         d="m 12.7,15.3 c 0.3,-1.7 0.5,-3.4 0.7,-5.2 V 9.6 c 0,-0.1 -0.1,-0.1 -0.1,-0.2 0,-0.1 0,-0.1 -0.1,-0.2 A 0.1,0.1 0 0 0 13.1,9.1 C 13,9.1 13,9.1 12.9,9 12.8,9 12.8,8.9 12.7,8.9 12.6,8.9 12.6,8.8 12.5,8.8 h -0.7 c -0.1,0 -0.2,0.1 -0.3,0.1 L 11.4,9 C 11.3,9.1 11.2,9.1 11.2,9.2 A 0.1,0.1 0 0 1 11.1,9.3 0.349,0.349 0 0 1 11,9.5 c -0.1,0.2 -0.1,0.5 -0.2,0.7 -0.1,1.1 -0.2,2.1 -0.3,3.2 0,0.2 -0.2,0.6 -0.4,0.6 A 9.239,9.239 0 0 1 7.4,14.8 C 5.6,14.9 3.8,14.8 2,14.9 H 1.4 A 0.349,0.349 0 0 0 1.2,15 0.1,0.1 0 0 0 1.1,15.1 C 1,15.1 1,15.2 0.9,15.2 L 0.8,15.3 0.6,15.5 0.5,15.6 C 0.4,15.9 0.4,16 0.3,16 a 0.1,0.1 0 0 1 -0.1,0.1 0.349,0.349 0 0 1 -0.1,0.2 v 0.1 c 0,0.1 0,0.2 -0.1,0.2 v 7.5 a 1.731,1.731 0 0 0 0.7,1.6 2.935,2.935 0 0 0 1,0.3 1.072,1.072 0 0 1 0.6,0.2 0.908,0.908 0 0 1 0.3,0.7 C 2.8,29 3,31.1 3.2,33.3 a 1.268,1.268 0 0 0 0.4,0.9 1.489,1.489 0 0 0 0.9,0.4 5.652,5.652 0 0 0 1.3,0 C 7.3,34.6 7.9,34 7.9,32.5 8,29.9 8.1,27.2 8.2,24.6 l 0.3,-6.3 a 1.381,1.381 0 0 1 1,-1.3 8.488,8.488 0 0 0 2.2,-0.9 0.988,0.988 0 0 0 1,-0.8 z"
         id="Tracé_4458"
         inkscape:connector-curvature="0"
         style="fill:#ffffff" />
      <path
         data-name="Tracé 4459"
         class="cls-1"
         d="m 5.5,13.6 a 3.226,3.226 0 0 0 3,-3 3.031,3.031 0 0 0 -3.1,-3 3.148,3.148 0 0 0 -3,3 3.241,3.241 0 0 0 3.1,3 z"
         id="Tracé_4459"
         inkscape:connector-curvature="0"
         style="fill:#ffffff" />
      <path
         data-name="Tracé 4460"
         class="cls-1"
         d="m 11.7,6 h 18.9 a 0.215,0.215 0 0 0 0.2,-0.2 0.367,0.367 0 0 0 0.1,-0.3 c 0,-0.1 -0.2,-0.3 -0.4,-0.4 -0.2,0 -0.4,-0.1 -0.6,0 H 11.7 a 1.756,1.756 0 0 0 -0.5,0.4 c 0.2,0.2 0.3,0.4 0.5,0.5 z"
         id="Tracé_4460"
         inkscape:connector-curvature="0"
         style="fill:#ffffff" />
    </g>
  </g>
</svg>
