<svg xmlns="http://www.w3.org/2000/svg" id="Groupe_1969" width="63.85" height="63.85" viewBox="0 0 63.85 63.85">
    <defs>
        <style>
            .cls-1{fill:none}.cls-2{fill:#3ae374}
        </style>
    </defs>
    <g id="Rectangle_71">
        <path id="Tracé_4120" d="M8.59 0h46.67a8.792 8.792 0 0 1 8.59 9.05V54.8a8.792 8.792 0 0 1-8.59 9.05H8.59A8.792 8.792 0 0 1 0 54.8V9.05A8.792 8.792 0 0 1 8.59 0z" class="cls-1" data-name="Tracé 4120"/>
        <path id="Tracé_4121" d="M55.26 0H8.59A8.792 8.792 0 0 0 0 9.05V54.8a8.792 8.792 0 0 0 8.59 9.05h49.915l-.1-.6a9.137 9.137 0 0 0 5.445-8.45V9.05A8.792 8.792 0 0 0 55.26 0zM8.59 3.017h32.354l3.818 27.45L2.863 40.723V9.05A5.9 5.9 0 0 1 8.59 3.017zM2.863 54.8v-5.63l43.044-10.458 3.054 22.121H8.59A5.9 5.9 0 0 1 2.863 54.8zm58.124 0a6.32 6.32 0 0 1-2.959 5.329L50.107 3.017h5.249a5.9 5.9 0 0 1 5.726 6.033V54.8z" class="cls-2" data-name="Tracé 4121"/>
    </g>
</svg>
