<?xml version="1.0" encoding="UTF-8" standalone="no"?>
<!-- Created with Inkscape (http://www.inkscape.org/) -->

<svg
   xmlns:dc="http://purl.org/dc/elements/1.1/"
   xmlns:cc="http://creativecommons.org/ns#"
   xmlns:rdf="http://www.w3.org/1999/02/22-rdf-syntax-ns#"
   xmlns:svg="http://www.w3.org/2000/svg"
   xmlns="http://www.w3.org/2000/svg"
   xmlns:sodipodi="http://sodipodi.sourceforge.net/DTD/sodipodi-0.dtd"
   xmlns:inkscape="http://www.inkscape.org/namespaces/inkscape"
   width="160"
   height="160"
   viewBox="0 0 42.333332 42.333335"
   version="1.1"
   id="svg8"
   inkscape:version="0.92.4 (5da689c313, 2019-01-14)"
   sodipodi:docname="Enseignement_base.svg">
  <defs
     id="defs2">
    <style
       id="style817">
            .cls-1{fill:#fff}
        </style>
    <style
       id="style841">
            .cls-1{fill:#fff}
        </style>
    <style
       id="style854">
            .cls-1{fill:#fff}
        </style>
    <style
       id="style867">
            .cls-1{fill:#fff}
        </style>
    <style
       id="style880">
            .cls-1{fill:#fff}
        </style>
    <style
       id="style898">
            .cls-1{fill:#fff}
        </style>
    <style
       id="style915">
            .cls-1{fill:#fff}
        </style>
    <style
       id="style928">
            .cls-1{fill:#fff}
        </style>
    <style
       id="style941">
            .cls-1{fill:#fff}
        </style>
    <style
       id="style957">
            .cls-1{fill:#fff}
        </style>
    <style
       id="style970">
            .cls-1{fill:#fff}
        </style>
    <style
       id="style987">
            .cls-1{fill:#fff}
        </style>
    <style
       id="style1000">
            .cls-1{fill:#fff}
        </style>
    <style
       id="style1013">
            .cls-1{fill:#fff}
        </style>
    <style
       id="style1032">
            .cls-1{fill:#fff;fill-rule:evenodd}
        </style>
    <style
       id="style1053">
            .cls-1{fill:#fff}
        </style>
    <style
       id="style1073">
            .cls-1{fill:#fff}
        </style>
    <style
       id="style1103">
            .cls-1{fill:#fff}
        </style>
    <style
       id="style1135">
            .cls-1{fill:#fff}
        </style>
    <style
       id="style1154">
            .cls-1{fill:#fff}
        </style>
    <style
       id="style1173">
            .cls-1{fill:#fff}
        </style>
    <style
       id="style1196">
            .cls-1{fill:#fff}
        </style>
    <style
       id="style1209">
            .cls-1{fill:#fff}
        </style>
    <style
       id="style1222">
            .cls-1{fill:#fff}
        </style>
    <style
       id="style1240">
            .cls-1{fill:#fff}
        </style>
    <style
       id="style1273">
            .cls-1{fill:#fff}
        </style>
    <style
       id="style1297">
            .cls-1{fill:#fff}
        </style>
  </defs>
  <sodipodi:namedview
     id="base"
     pagecolor="#ffffff"
     bordercolor="#666666"
     borderopacity="1.0"
     inkscape:pageopacity="0.0"
     inkscape:pageshadow="2"
     inkscape:zoom="7.4"
     inkscape:cx="80"
     inkscape:cy="80"
     inkscape:document-units="mm"
     inkscape:current-layer="layer1"
     showgrid="false"
     units="px"
     inkscape:window-width="1916"
     inkscape:window-height="2093"
     inkscape:window-x="-12"
     inkscape:window-y="0"
     inkscape:window-maximized="0" />
  <metadata
     id="metadata5">
    <rdf:RDF>
      <cc:Work
         rdf:about="">
        <dc:format>image/svg+xml</dc:format>
        <dc:type
           rdf:resource="http://purl.org/dc/dcmitype/StillImage" />
        <dc:title></dc:title>
      </cc:Work>
    </rdf:RDF>
  </metadata>
  <g
     inkscape:label="Layer 1"
     inkscape:groupmode="layer"
     id="layer1"
     transform="translate(0,-254.66665)">
    <rect
       style="fill:#26de81;fill-rule:evenodd;stroke-width:0.26458332;fill-opacity:1"
       id="rect815"
       width="42.333332"
       height="42.333332"
       x="-3.9333695e-08"
       y="254.70239"
       ry="3.4999876" />
    <g
       id="g1313"
       transform="matrix(0.51474668,0,0,0.76333247,8.1458539,265.70043)">
      <path
         data-name="Tracé 4461"
         class="cls-1"
         d="M 6,6.9 A 3.021,3.021 0 0 0 9.9,5.3 3.027,3.027 0 0 0 4.3,3 2.984,2.984 0 0 0 6,6.9 Z"
         id="Tracé_4461"
         inkscape:connector-curvature="0"
         style="fill:#ffffff" />
      <path
         data-name="Tracé 4462"
         class="cls-1"
         d="M 14.1,14.2 A 7.3,7.3 0 0 0 11.6,8.7 0.471,0.471 0 0 0 11,8.6 H 2.9 A 0.52,0.52 0 0 0 2.5,8.8 6.936,6.936 0 0 0 0,14.2 v 3.9 a 0.972,0.972 0 0 0 1.1,1 1,1 0 0 0 1,-1 l 0.1,-4.6 a 1.612,1.612 0 0 1 0.6,-1.3 v 8 l 0.4,5.9 A 1.651,1.651 0 1 0 6.5,26 v -5.4 a 0.43,0.43 0 0 1 0.4,-0.4 h 0.3 a 0.43,0.43 0 0 1 0.4,0.4 V 26 A 1.7,1.7 0 1 0 11,26 V 12 a 0.1,0.1 0 0 1 0.1,0.1 1.6,1.6 0 0 1 0.8,1.4 l 0.1,4.8 a 1.028,1.028 0 0 0 1.1,1 1,1 0 0 0 1,-1 z M 3.1,15 v -1.8 c 0,0 0.9,-0.5 1,-4.4 h 0.8 c 0,0 0.1,4.9 -1.8,6.2 z m 7.8,0 C 9,13.7 9,8.8 9,8.8 h 0.8 c 0.1,3.9 1,4.4 1,4.4 V 15 Z"
         id="Tracé_4462"
         inkscape:connector-curvature="0"
         style="fill:#ffffff" />
      <path
         data-name="Tracé 4463"
         class="cls-1"
         d="M 49.2,6.1 H 35.9 L 29.9,0 24,6.1 H 12.7 v 2.4 a 8.433,8.433 0 0 1 2.1,3.8 1.231,1.231 0 0 1 0.5,1 v 2.9 H 15 v 2.1 a 1.9,1.9 0 0 1 -0.8,1.5 h 9.4 v -10 h 0.7 V 20 H 35.1 V 9.8 h 1.1 V 20 H 48.8 V 9.8 h 2.6 z M 18.7,16.2 H 16 v -2.9 a 1.216,1.216 0 0 1 1.2,-1.2 h 0.2 a 1.216,1.216 0 0 1 1.2,1.2 v 2.9 z m 3.6,0 h -2.7 v -2.9 a 1.216,1.216 0 0 1 1.2,-1.2 H 21 a 1.216,1.216 0 0 1 1.2,1.2 z m 4,-2.7 V 9.8 a 1.3,1.3 0 0 1 1.3,-1.2 h 0.6 a 1.3,1.3 0 0 1 1.3,1.2 v 3.7 z m 4.1,0 V 9.8 h 0.1 a 1.3,1.3 0 0 1 1.3,-1.2 h 0.8 a 1.278,1.278 0 0 1 1.1,1.2 v 3.6 h -3.3 z m 5.4,-4.4 -5.9,-6 -5.9,6 -0.8,-0.8 6.7,-6.8 6.7,6.8 z m 4.3,7.1 h -2.7 v -2.9 a 1.216,1.216 0 0 1 1.2,-1.2 h 0.2 a 1.216,1.216 0 0 1 1.2,1.2 v 2.9 z m 3.5,0 H 41 v -2.9 a 1.216,1.216 0 0 1 1.2,-1.2 h 0.2 a 1.216,1.216 0 0 1 1.2,1.2 z m 3.5,0 h -2.7 v -2.9 a 1.216,1.216 0 0 1 1.2,-1.2 h 0.2 a 1.216,1.216 0 0 1 1.2,1.2 v 2.9 z"
         id="Tracé_4463"
         inkscape:connector-curvature="0"
         style="fill:#ffffff" />
    </g>
  </g>
</svg>
