<?xml version="1.0" encoding="UTF-8" standalone="no"?>
<!-- Created with Inkscape (http://www.inkscape.org/) -->

<svg
   xmlns:dc="http://purl.org/dc/elements/1.1/"
   xmlns:cc="http://creativecommons.org/ns#"
   xmlns:rdf="http://www.w3.org/1999/02/22-rdf-syntax-ns#"
   xmlns:svg="http://www.w3.org/2000/svg"
   xmlns="http://www.w3.org/2000/svg"
   xmlns:sodipodi="http://sodipodi.sourceforge.net/DTD/sodipodi-0.dtd"
   xmlns:inkscape="http://www.inkscape.org/namespaces/inkscape"
   width="160"
   height="160"
   viewBox="0 0 42.333332 42.333335"
   version="1.1"
   id="svg8"
   inkscape:version="0.92.4 (5da689c313, 2019-01-14)"
   sodipodi:docname="Enseignement_sup.svg">
  <defs
     id="defs2">
    <style
       id="style817">
            .cls-1{fill:#fff}
        </style>
    <style
       id="style841">
            .cls-1{fill:#fff}
        </style>
    <style
       id="style854">
            .cls-1{fill:#fff}
        </style>
    <style
       id="style867">
            .cls-1{fill:#fff}
        </style>
    <style
       id="style880">
            .cls-1{fill:#fff}
        </style>
    <style
       id="style898">
            .cls-1{fill:#fff}
        </style>
    <style
       id="style915">
            .cls-1{fill:#fff}
        </style>
    <style
       id="style928">
            .cls-1{fill:#fff}
        </style>
    <style
       id="style941">
            .cls-1{fill:#fff}
        </style>
    <style
       id="style957">
            .cls-1{fill:#fff}
        </style>
    <style
       id="style970">
            .cls-1{fill:#fff}
        </style>
    <style
       id="style987">
            .cls-1{fill:#fff}
        </style>
    <style
       id="style1000">
            .cls-1{fill:#fff}
        </style>
    <style
       id="style1013">
            .cls-1{fill:#fff}
        </style>
    <style
       id="style1032">
            .cls-1{fill:#fff;fill-rule:evenodd}
        </style>
    <style
       id="style1053">
            .cls-1{fill:#fff}
        </style>
    <style
       id="style1073">
            .cls-1{fill:#fff}
        </style>
    <style
       id="style1103">
            .cls-1{fill:#fff}
        </style>
    <style
       id="style1135">
            .cls-1{fill:#fff}
        </style>
    <style
       id="style1154">
            .cls-1{fill:#fff}
        </style>
    <style
       id="style1173">
            .cls-1{fill:#fff}
        </style>
    <style
       id="style1196">
            .cls-1{fill:#fff}
        </style>
    <style
       id="style1209">
            .cls-1{fill:#fff}
        </style>
    <style
       id="style1222">
            .cls-1{fill:#fff}
        </style>
    <style
       id="style1240">
            .cls-1{fill:#fff}
        </style>
  </defs>
  <sodipodi:namedview
     id="base"
     pagecolor="#ffffff"
     bordercolor="#666666"
     borderopacity="1.0"
     inkscape:pageopacity="0.0"
     inkscape:pageshadow="2"
     inkscape:zoom="7.4"
     inkscape:cx="80"
     inkscape:cy="80"
     inkscape:document-units="mm"
     inkscape:current-layer="layer1"
     showgrid="false"
     units="px"
     inkscape:window-width="1916"
     inkscape:window-height="2093"
     inkscape:window-x="-12"
     inkscape:window-y="0"
     inkscape:window-maximized="0" />
  <metadata
     id="metadata5">
    <rdf:RDF>
      <cc:Work
         rdf:about="">
        <dc:format>image/svg+xml</dc:format>
        <dc:type
           rdf:resource="http://purl.org/dc/dcmitype/StillImage" />
        <dc:title></dc:title>
      </cc:Work>
    </rdf:RDF>
  </metadata>
  <g
     inkscape:label="Layer 1"
     inkscape:groupmode="layer"
     id="layer1"
     transform="translate(0,-254.66665)">
    <rect
       style="fill:#4b7bec;fill-rule:evenodd;stroke-width:0.26458332;fill-opacity:1"
       id="rect815"
       width="42.333332"
       height="42.333332"
       x="-3.9333695e-08"
       y="254.70239"
       ry="3.4999876" />
    <g
       transform="matrix(0.52940196,0,0,0.62190972,7.3566028,264.55548)"
       data-name="Enseignement suprieur"
       id="Enseignement_suprieur">
      <path
         data-name="Tracé 4470"
         class="cls-1"
         d="M 10.7,6.6 A 3.181,3.181 0 0 0 13,2.9 3.181,3.181 0 0 0 9.3,0.6 3.181,3.181 0 0 0 7,4.3 3.118,3.118 0 0 0 10.7,6.6 Z"
         id="Tracé_4470"
         inkscape:connector-curvature="0"
         style="fill:#ffffff" />
      <path
         data-name="Tracé 4471"
         class="cls-1"
         d="m 16,20.6 a 1.11,1.11 0 0 0 1.1,-1.1 V 13.7 A 7.3,7.3 0 0 0 14.6,8.2 0.592,0.592 0 0 0 13.9,8.1 H 5.8 A 0.52,0.52 0 0 0 5.4,8.3 7.3,7.3 0 0 0 2.9,13.8 v 5.8 a 1.11,1.11 0 0 0 1.1,1.1 1.175,1.175 0 0 0 1.1,-1 L 5.2,13.3 A 1.612,1.612 0 0 1 5.8,12 v 8.1 L 6.2,33 A 1.651,1.651 0 0 0 9.5,32.9 V 20.3 a 0.43,0.43 0 0 1 0.4,-0.4 h 0.3 a 0.43,0.43 0 0 1 0.4,0.4 v 12.4 a 1.752,1.752 0 0 0 1.7,1.7 1.752,1.752 0 0 0 1.7,-1.7 v -21 a 0.1,0.1 0 0 1 0.1,0.1 1.6,1.6 0 0 1 0.8,1.4 l 0.1,6.4 a 0.942,0.942 0 0 0 1,1 z"
         id="Tracé_4471"
         inkscape:connector-curvature="0"
         style="fill:#ffffff" />
      <path
         data-name="Tracé 4472"
         class="cls-1"
         d="M 1.9,14 A 11,11 0 0 1 5.2,7.4 c 0,0 -3.4,0.3 -4.2,3.1 0,0 -2.2,6.8 0,9.4 A 4.44,4.44 0 0 0 2.1,20.7 30.235,30.235 0 0 1 1.9,14 Z"
         id="Tracé_4472"
         inkscape:connector-curvature="0"
         style="fill:#ffffff" />
      <path
         transform="translate(15.1,29)"
         data-name="Rectangle 565"
         class="cls-1"
         d="M 0,0 H 34.6 V 1.9 H 0 Z"
         id="Rectangle_565"
         inkscape:connector-curvature="0"
         style="fill:#ffffff" />
      <path
         transform="translate(37.5,14.4)"
         data-name="Rectangle 566"
         class="cls-1"
         d="M 0,0 H 5.1 V 1.7 H 0 Z"
         id="Rectangle_566"
         inkscape:connector-curvature="0"
         style="fill:#ffffff" />
      <path
         data-name="Tracé 4473"
         class="cls-1"
         d="m 27.6,14.4 v -2.6 h -7.3 v 4.3 h 7.3 z"
         id="Tracé_4473"
         inkscape:connector-curvature="0"
         style="fill:#ffffff" />
      <path
         transform="translate(28,14)"
         data-name="Rectangle 567"
         class="cls-1"
         d="M 0,0 H 0.7 V 2.1 H 0 Z"
         id="Rectangle_567"
         inkscape:connector-curvature="0"
         style="fill:#ffffff" />
      <path
         data-name="Tracé 4474"
         class="cls-1"
         d="m 28.3,11.3 h 3.1 V 12 h -2.9 v 1 h 0.3 a 0.637,0.637 0 0 0 0.6,0 h 2.9 V 6 H 24 v 4.9 h 3.6 a 1.012,1.012 0 0 1 0.7,0.4 z M 24.9,7.8 h 6.5 v 0.7 h -6.5 z m 0,1.7 h 6.5 v 0.7 h -6.5 z"
         id="Tracé_4474"
         inkscape:connector-curvature="0"
         style="fill:#ffffff" />
      <path
         transform="translate(29.4,14)"
         data-name="Rectangle 568"
         class="cls-1"
         d="M 0,0 H 7.1 V 2.1 H 0 Z"
         id="Rectangle_568"
         inkscape:connector-curvature="0"
         style="fill:#ffffff" />
      <path
         data-name="Tracé 4475"
         class="cls-1"
         d="m 17.4,16.9 v 2.6 A 1.5,1.5 0 0 1 16,21.2 1.489,1.489 0 0 1 15.1,20.8 V 28 H 50 V 16.9 Z"
         id="Tracé_4475"
         inkscape:connector-curvature="0"
         style="fill:#ffffff" />
    </g>
  </g>
</svg>
