<?xml version="1.0" encoding="UTF-8" standalone="no"?>
<!-- Created with Inkscape (http://www.inkscape.org/) -->

<svg
   xmlns:dc="http://purl.org/dc/elements/1.1/"
   xmlns:cc="http://creativecommons.org/ns#"
   xmlns:rdf="http://www.w3.org/1999/02/22-rdf-syntax-ns#"
   xmlns:svg="http://www.w3.org/2000/svg"
   xmlns="http://www.w3.org/2000/svg"
   xmlns:sodipodi="http://sodipodi.sourceforge.net/DTD/sodipodi-0.dtd"
   xmlns:inkscape="http://www.inkscape.org/namespaces/inkscape"
   width="160"
   height="160"
   viewBox="0 0 42.333332 42.333335"
   version="1.1"
   id="svg8"
   inkscape:version="0.92.4 (5da689c313, 2019-01-14)"
   sodipodi:docname="Enseigenement_sec.svg">
  <defs
     id="defs2">
    <style
       id="style817">
            .cls-1{fill:#fff}
        </style>
    <style
       id="style841">
            .cls-1{fill:#fff}
        </style>
    <style
       id="style854">
            .cls-1{fill:#fff}
        </style>
    <style
       id="style867">
            .cls-1{fill:#fff}
        </style>
    <style
       id="style880">
            .cls-1{fill:#fff}
        </style>
    <style
       id="style898">
            .cls-1{fill:#fff}
        </style>
    <style
       id="style915">
            .cls-1{fill:#fff}
        </style>
    <style
       id="style928">
            .cls-1{fill:#fff}
        </style>
    <style
       id="style941">
            .cls-1{fill:#fff}
        </style>
    <style
       id="style957">
            .cls-1{fill:#fff}
        </style>
    <style
       id="style970">
            .cls-1{fill:#fff}
        </style>
    <style
       id="style987">
            .cls-1{fill:#fff}
        </style>
    <style
       id="style1000">
            .cls-1{fill:#fff}
        </style>
    <style
       id="style1013">
            .cls-1{fill:#fff}
        </style>
    <style
       id="style1032">
            .cls-1{fill:#fff;fill-rule:evenodd}
        </style>
    <style
       id="style1053">
            .cls-1{fill:#fff}
        </style>
    <style
       id="style1073">
            .cls-1{fill:#fff}
        </style>
    <style
       id="style1103">
            .cls-1{fill:#fff}
        </style>
    <style
       id="style1135">
            .cls-1{fill:#fff}
        </style>
    <style
       id="style1154">
            .cls-1{fill:#fff}
        </style>
    <style
       id="style1173">
            .cls-1{fill:#fff}
        </style>
    <style
       id="style1196">
            .cls-1{fill:#fff}
        </style>
    <style
       id="style1209">
            .cls-1{fill:#fff}
        </style>
    <style
       id="style1222">
            .cls-1{fill:#fff}
        </style>
    <style
       id="style1240">
            .cls-1{fill:#fff}
        </style>
    <style
       id="style1273">
            .cls-1{fill:#fff}
        </style>
  </defs>
  <sodipodi:namedview
     id="base"
     pagecolor="#ffffff"
     bordercolor="#666666"
     borderopacity="1.0"
     inkscape:pageopacity="0.0"
     inkscape:pageshadow="2"
     inkscape:zoom="7.4"
     inkscape:cx="80"
     inkscape:cy="80"
     inkscape:document-units="mm"
     inkscape:current-layer="layer1"
     showgrid="false"
     units="px"
     inkscape:window-width="1916"
     inkscape:window-height="2093"
     inkscape:window-x="-12"
     inkscape:window-y="0"
     inkscape:window-maximized="0" />
  <metadata
     id="metadata5">
    <rdf:RDF>
      <cc:Work
         rdf:about="">
        <dc:format>image/svg+xml</dc:format>
        <dc:type
           rdf:resource="http://purl.org/dc/dcmitype/StillImage" />
        <dc:title></dc:title>
      </cc:Work>
    </rdf:RDF>
  </metadata>
  <g
     inkscape:label="Layer 1"
     inkscape:groupmode="layer"
     id="layer1"
     transform="translate(0,-254.66665)">
    <rect
       style="fill:#f7b731;fill-rule:evenodd;stroke-width:0.26458332;fill-opacity:1"
       id="rect815"
       width="42.333332"
       height="42.333332"
       x="-3.9333695e-08"
       y="254.70239"
       ry="3.4999876" />
    <g
       id="g1295"
       transform="matrix(0.5049234,0,0,0.63373253,8.4783639,265.55676)">
      <path
         data-name="Tracé 4464"
         class="cls-1"
         d="M 6,7.9 A 3.021,3.021 0 0 0 9.9,6.3 3.021,3.021 0 0 0 8.3,2.4 3.137,3.137 0 0 0 4.3,4 2.95,2.95 0 0 0 6,7.9 Z"
         id="Tracé_4464"
         inkscape:connector-curvature="0"
         style="fill:#ffffff" />
      <path
         data-name="Tracé 4465"
         class="cls-1"
         d="m 13,21.9 a 1,1 0 0 0 1,-1 V 15.2 A 7.3,7.3 0 0 0 11.5,9.7 0.471,0.471 0 0 0 10.9,9.6 h -8 A 0.52,0.52 0 0 0 2.5,9.8 7.087,7.087 0 0 0 0,15.2 v 5.7 a 0.972,0.972 0 0 0 1.1,1 1,1 0 0 0 1,-1 l 0.1,-6.4 a 1.612,1.612 0 0 1 0.6,-1.3 v 8 l 0.4,10.5 a 1.651,1.651 0 0 0 3.3,-0.1 v -10 a 0.43,0.43 0 0 1 0.4,-0.4 h 0.3 a 0.43,0.43 0 0 1 0.4,0.4 v 10.1 a 1.7,1.7 0 1 0 3.4,0 V 13.1 a 0.1,0.1 0 0 1 0.1,0.1 1.6,1.6 0 0 1 0.8,1.4 L 12,21 a 0.987,0.987 0 0 0 1,0.9 z M 3.1,16 v -1.8 c 0,0 0.9,-0.5 1,-4.4 h 0.8 c 0,0 0.1,4.9 -1.8,6.2 z m 7.8,0 C 9,14.7 9,9.8 9,9.8 h 0.8 c 0.1,3.9 1,4.4 1,4.4 V 16 Z"
         id="Tracé_4465"
         inkscape:connector-curvature="0"
         style="fill:#ffffff" />
      <path
         data-name="Tracé 4466"
         class="cls-1"
         d="M 35.6,0 H 21.9 v 1.3 h 1.3 V 24.2 H 25 V 19 a 2.8,2.8 0 0 1 2.8,-2.8 h 2.1 a 2.8,2.8 0 0 1 2.8,2.8 v 5.2 h 1.7 V 1.3 h 1.3 V 0 Z m -6.8,9.3 a 3.1,3.1 0 1 1 3.1,-3.1 3.116,3.116 0 0 1 -3.1,3.1 z"
         id="Tracé_4466"
         inkscape:connector-curvature="0"
         style="fill:#ffffff" />
      <path
         data-name="Tracé 4467"
         class="cls-1"
         d="M 28.6,6.3 H 27 v 0.4 h 2 V 3.9 h -0.4 z"
         id="Tracé_4467"
         inkscape:connector-curvature="0"
         style="fill:#ffffff" />
      <path
         data-name="Tracé 4468"
         class="cls-1"
         d="M 35.1,9.6 V 24.2 H 51.2 V 10.8 h 1.2 V 9.6 Z M 49.5,22.3 H 36.9 v -2.2 h 12.6 z m 0,-3.8 H 36.9 v -2.2 h 12.6 z m 0,-3.8 H 36.9 v -2.2 h 12.6 z"
         id="Tracé_4468"
         inkscape:connector-curvature="0"
         style="fill:#ffffff" />
      <path
         data-name="Tracé 4469"
         class="cls-1"
         d="m 13.5,10.1 c 0.1,0.1 0.1,0.2 0.2,0.3 0.1,0.1 0.2,0.3 0.3,0.4 a 0.1,0.1 0 0 0 0.1,0.1 c 0.1,0.1 0.1,0.2 0.2,0.3 0,0.1 0.1,0.2 0.1,0.3 0,0.1 0.1,0.1 0.1,0.2 0.1,0.2 0.1,0.3 0.2,0.5 a 0.349,0.349 0 0 0 0.1,0.2 H 20 v 2.3 h -4.7 v 1.4 H 20 v 2.2 h -4.7 v 1.4 H 20 v 2.4 h -5.2 c 0,0.1 -0.1,0.1 -0.2,0.2 -0.1,0 -0.1,0.1 -0.2,0.1 -0.1,0 -0.1,0.1 -0.2,0.1 a 1.421,1.421 0 0 1 -0.6,0.2 h -1.1 c -0.1,0 -0.2,-0.1 -0.3,-0.1 -0.1,0 -0.1,-0.1 -0.2,-0.1 a 0.1,0.1 0 0 1 -0.1,-0.1 v 1.1 H 22.6 V 9.6 h -9 v 0.5 z"
         id="Tracé_4469"
         inkscape:connector-curvature="0"
         style="fill:#ffffff" />
    </g>
  </g>
</svg>
