<?xml version="1.0" encoding="UTF-8" standalone="no"?>
<!-- Created with Inkscape (http://www.inkscape.org/) -->

<svg
   xmlns:dc="http://purl.org/dc/elements/1.1/"
   xmlns:cc="http://creativecommons.org/ns#"
   xmlns:rdf="http://www.w3.org/1999/02/22-rdf-syntax-ns#"
   xmlns:svg="http://www.w3.org/2000/svg"
   xmlns="http://www.w3.org/2000/svg"
   xmlns:sodipodi="http://sodipodi.sourceforge.net/DTD/sodipodi-0.dtd"
   xmlns:inkscape="http://www.inkscape.org/namespaces/inkscape"
   width="160"
   height="160"
   viewBox="0 0 42.333332 42.333335"
   version="1.1"
   id="svg8"
   inkscape:version="0.92.4 (5da689c313, 2019-01-14)"
   sodipodi:docname="Délégation.svg">
  <defs
     id="defs2">
    <inkscape:perspective
       sodipodi:type="inkscape:persp3d"
       inkscape:vp_x="0 : 148.5 : 1"
       inkscape:vp_y="0 : 1000 : 0"
       inkscape:vp_z="210 : 148.5 : 1"
       inkscape:persp3d-origin="105 : 99.000001 : 1"
       id="perspective817" />
    <style
       id="style839">
            .cls-1{fill:#fff}
        </style>
    <inkscape:perspective
       id="perspective817-0"
       inkscape:persp3d-origin="105 : 99.000001 : 1"
       inkscape:vp_z="210 : 148.5 : 1"
       inkscape:vp_y="0 : 1000 : 0"
       inkscape:vp_x="0 : 148.5 : 1"
       sodipodi:type="inkscape:persp3d" />
    <style
       id="style839-8">
            .cls-1{fill:#fff}
        </style>
    <style
       id="style920">
            .cls-1{fill:#fff}
        </style>
  </defs>
  <sodipodi:namedview
     id="base"
     pagecolor="#ffffff"
     bordercolor="#666666"
     borderopacity="1.0"
     inkscape:pageopacity="0.0"
     inkscape:pageshadow="2"
     inkscape:zoom="11.33125"
     inkscape:cx="75.146167"
     inkscape:cy="88.923077"
     inkscape:document-units="mm"
     inkscape:current-layer="layer1"
     showgrid="false"
     inkscape:window-width="3840"
     inkscape:window-height="2109"
     inkscape:window-x="-14"
     inkscape:window-y="-14"
     inkscape:window-maximized="1"
     units="px" />
  <metadata
     id="metadata5">
    <rdf:RDF>
      <cc:Work
         rdf:about="">
        <dc:format>image/svg+xml</dc:format>
        <dc:type
           rdf:resource="http://purl.org/dc/dcmitype/StillImage" />
        <dc:title></dc:title>
      </cc:Work>
    </rdf:RDF>
  </metadata>
  <g
     inkscape:label="Layer 1"
     inkscape:groupmode="layer"
     id="layer1"
     transform="translate(0,-254.66665)">
    <rect
       style="fill:#fd7272;fill-opacity:1;fill-rule:evenodd;stroke-width:0.08547086;paint-order:fill markers stroke"
       id="rect837"
       width="42.333332"
       height="42.333332"
       x="0.0033843855"
       y="254.70079"
       ry="3.5" />
    <g
       transform="matrix(0.8326049,0,0,0.74126821,9.2557959,262.33011)"
       id="Delegation">
      <path
         data-name="Tracé 4187"
         class="cls-1"
         d="M 0.5,20.1 V 32.6 L 9.7,32.5 V 11.6 H 0.5 Z m 4.3,7.7 H 3.4 v -2.5 h 1.4 z m 2,0 H 5.4 v -2.5 h 1.4 z m 0,-8.3 H 5.4 V 17 H 6.8 Z M 5.4,13.9 h 1.4 v 2.5 H 5.4 Z m 0,8.3 h 1.4 v 2.5 H 5.4 Z M 4.8,19.5 H 3.4 V 17 H 4.8 Z M 3.4,13.9 h 1.4 v 2.5 H 3.4 Z m 0,8.3 h 1.4 v 2.5 H 3.4 Z"
         id="Tracé_4187"
         inkscape:connector-curvature="0"
         style="fill:#ffffff" />
      <path
         data-name="Tracé 4188"
         class="cls-1"
         d="m 10.3,17.3 v 15.3 l 4.4,-0.1 h -2 v -6.1 h 2 v 6.1 h 0.5 v -6.1 h 2 v 6.1 h 2.2 v -25 h -9.1 z"
         id="Tracé_4188"
         inkscape:connector-curvature="0"
         style="fill:#ffffff" />
      <path
         data-name="Tracé 4189"
         class="cls-1"
         d="m 19.4,6.6 c 0,-0.1 0,-0.2 -0.1,-0.2 C 17.9,5.7 16.4,5.1 15,4.4 V 3.6 a 1.907,1.907 0 0 0 1.3,-0.2 1.6,1.6 0 0 1 1.5,-0.2 c 0.1,0 0.2,0 0.2,-0.1 V 0.8 C 18,0.7 18,0.7 17.9,0.7 17.3,0.3 16.8,0.5 16.2,0.8 A 1.6,1.6 0 0 1 14.7,1 V 0.7 c 0,-0.1 -0.1,-0.2 -0.3,-0.2 -0.1,0 -0.2,0.1 -0.2,0.3 v 3.7 c -0.7,0.3 -1.3,0.6 -2,0.9 -0.7,0.3 -1.3,0.6 -2,0.9 l -0.1,0.1 v 0.3 h 9.1 c 0.2,0 0.2,0 0.2,-0.1 z"
         id="Tracé_4189"
         inkscape:connector-curvature="0"
         style="fill:#ffffff" />
      <path
         data-name="Tracé 4190"
         class="cls-1"
         d="m 19.9,19.9 v 12.7 l 9.2,-0.1 V 19.9 Z m 2.9,2.3 h 1.4 v 2.5 h -1.4 z m 1.4,5.6 h -1.4 v -2.5 h 1.4 z m 0.6,-5.6 h 1.4 v 2.5 h -1.4 z m 1.4,5.6 h -1.4 v -2.5 h 1.4 z"
         id="Tracé_4190"
         inkscape:connector-curvature="0"
         style="fill:#ffffff" />
    </g>
  </g>
  <g
     inkscape:groupmode="layer"
     id="layer2"
     inkscape:label="Layer 2" />
</svg>
