<?xml version="1.0" encoding="UTF-8" standalone="no"?>
<!-- Created with Inkscape (http://www.inkscape.org/) -->

<svg
   xmlns:dc="http://purl.org/dc/elements/1.1/"
   xmlns:cc="http://creativecommons.org/ns#"
   xmlns:rdf="http://www.w3.org/1999/02/22-rdf-syntax-ns#"
   xmlns:svg="http://www.w3.org/2000/svg"
   xmlns="http://www.w3.org/2000/svg"
   xmlns:sodipodi="http://sodipodi.sourceforge.net/DTD/sodipodi-0.dtd"
   xmlns:inkscape="http://www.inkscape.org/namespaces/inkscape"
   width="160"
   height="160"
   viewBox="0 0 42.333332 42.333335"
   version="1.1"
   id="svg8"
   inkscape:version="0.92.4 (5da689c313, 2019-01-14)"
   sodipodi:docname="Institution_culturelle.svg">
  <defs
     id="defs2">
    <style
       id="style817">
            .cls-1{fill:#fff}
        </style>
    <style
       id="style844">
            .cls-1{fill:#fff}
        </style>
    <style
       id="style884">
            .cls-1{fill:#fff}
        </style>
    <style
       id="style901">
            .cls-1{fill:#fff}
        </style>
    <style
       id="style928">
            .cls-1{fill:#fff}
        </style>
    <style
       id="style951">
            .cls-1{fill:#fff}
        </style>
    <style
       id="style964">
            .cls-1{fill:#fff}
        </style>
    <style
       id="style977">
            .cls-1{fill:#fff}
        </style>
    <style
       id="style990">
            .cls-1{fill:#fff}
        </style>
    <style
       id="style1007">
            .cls-1{fill:#fff}
        </style>
    <style
       id="style1024">
            .cls-1{fill:#fff}
        </style>
    <style
       id="style1080">
            .cls-1{fill:#fff}
        </style>
    <style
       id="style1093">
            .cls-1{fill:none}.cls-2{fill:#44bd32}
        </style>
    <style
       id="style1111">
            .cls-1{fill:none}.cls-2{fill:#8c7ae6}
        </style>
    <style
       id="style1129">
            .cls-1{fill:none}.cls-2{fill:#273c75}
        </style>
    <style
       id="style1145">
            .cls-1{fill:none}.cls-2{fill:#fbc531}
        </style>
    <style
       id="style1161">
            .cls-1{fill:none}.cls-2{fill:#4cd137}
        </style>
    <style
       id="style1177">
            .cls-1{fill:none}.cls-2{fill:#e84118}
        </style>
    <style
       id="style1193">
            .cls-1{fill:none}.cls-2{fill:#4cd137}
        </style>
    <style
       id="style1209">
            .cls-1{fill:none}.cls-2{fill:#8c7ae6}
        </style>
    <style
       id="style1227">
            .cls-1{fill:none}.cls-2{fill:#273c75}
        </style>
    <style
       id="style1243">
            .cls-1{fill:none}.cls-2{fill:#fbc531}
        </style>
    <style
       id="style1259">
            .cls-1{fill:none}.cls-2{fill:#8c7ae6}
        </style>
    <style
       id="style1277">
            .cls-1{fill:#fff}
        </style>
    <style
       id="style1293">
            .cls-1{fill:#fff}
        </style>
  </defs>
  <sodipodi:namedview
     id="base"
     pagecolor="#ffffff"
     bordercolor="#666666"
     borderopacity="1.0"
     inkscape:pageopacity="0.0"
     inkscape:pageshadow="2"
     inkscape:zoom="7.425"
     inkscape:cx="80"
     inkscape:cy="80"
     inkscape:document-units="mm"
     inkscape:current-layer="layer1"
     showgrid="false"
     units="px"
     inkscape:window-width="1916"
     inkscape:window-height="2093"
     inkscape:window-x="-12"
     inkscape:window-y="0"
     inkscape:window-maximized="0" />
  <metadata
     id="metadata5">
    <rdf:RDF>
      <cc:Work
         rdf:about="">
        <dc:format>image/svg+xml</dc:format>
        <dc:type
           rdf:resource="http://purl.org/dc/dcmitype/StillImage" />
        <dc:title></dc:title>
      </cc:Work>
    </rdf:RDF>
  </metadata>
  <g
     inkscape:label="Layer 1"
     inkscape:groupmode="layer"
     id="layer1"
     transform="translate(0,-254.66665)">
    <rect
       style="fill:#2c2c54;fill-opacity:1;fill-rule:evenodd;stroke-width:0.26458332"
       id="rect815"
       width="42.333332"
       height="42.333332"
       x="-8.9641112e-09"
       y="254.70229"
       ry="3.4999876" />
    <g
       id="g1315"
       transform="matrix(1.0668678,0,0,1.1654286,7.3737668,262.07392)">
      <path
         data-name="Tracé 4273"
         class="cls-1"
         d="m 21.1,15.3 a 3.691,3.691 0 0 0 -3.7,3.7 1.268,1.268 0 0 0 0.1,0.6 H 7.3 C 7.3,19.4 7.4,19.2 7.4,19 A 3.7,3.7 0 1 0 3.7,22.7 H 21.1 A 3.691,3.691 0 0 0 24.8,19 3.757,3.757 0 0 0 21.1,15.3 Z"
         id="Tracé_4273"
         inkscape:connector-curvature="0"
         style="fill:#ffffff" />
      <path
         data-name="Tracé 4274"
         class="cls-1"
         d="m 12.4,18.4 a 0.684,0.684 0 0 0 0.7,-0.7 v -17 a 0.7,0.7 0 1 0 -1.4,0 v 17 a 0.684,0.684 0 0 0 0.7,0.7 z"
         id="Tracé_4274"
         inkscape:connector-curvature="0"
         style="fill:#ffffff" />
      <path
         data-name="Tracé 4275"
         class="cls-1"
         d="m 10.2,18.4 a 0.684,0.684 0 0 0 0.7,-0.7 V 0.7 A 0.563,0.563 0 0 0 10.3,0 0.773,0.773 0 0 0 9.5,0.7 v 17.1 a 0.669,0.669 0 0 0 0.7,0.6 z"
         id="Tracé_4275"
         inkscape:connector-curvature="0"
         style="fill:#ffffff" />
      <path
         data-name="Tracé 4276"
         class="cls-1"
         d="m 8.1,18.4 a 0.684,0.684 0 0 0 0.7,-0.7 v -17 a 0.7,0.7 0 0 0 -1.4,0 v 17 a 0.684,0.684 0 0 0 0.7,0.7 z"
         id="Tracé_4276"
         inkscape:connector-curvature="0"
         style="fill:#ffffff" />
      <path
         data-name="Tracé 4277"
         class="cls-1"
         d="m 14.5,18.4 a 0.684,0.684 0 0 0 0.7,-0.7 V 0.7 A 0.563,0.563 0 0 0 14.6,0 0.684,0.684 0 0 0 13.9,0.7 v 17.1 c -0.1,0.3 0.2,0.6 0.6,0.6 z"
         id="Tracé_4277"
         inkscape:connector-curvature="0"
         style="fill:#ffffff" />
      <path
         data-name="Tracé 4278"
         class="cls-1"
         d="m 16.7,18.4 a 0.684,0.684 0 0 0 0.7,-0.7 v -17 a 0.7,0.7 0 0 0 -1.4,0 v 17 a 0.684,0.684 0 0 0 0.7,0.7 z"
         id="Tracé_4278"
         inkscape:connector-curvature="0"
         style="fill:#ffffff" />
    </g>
  </g>
</svg>
