<svg xmlns="http://www.w3.org/2000/svg" version="1.1" xmlns:xlink="http://www.w3.org/1999/xlink" xmlns:svgjs="http://svgjs.com/svgjs" width="100" height="100"><circle r="50" cx="50" cy="50" fill="#009f50"></circle><svg xmlns:dc="http://purl.org/dc/elements/1.1/" xmlns:cc="http://creativecommons.org/ns#" xmlns:rdf="http://www.w3.org/1999/02/22-rdf-syntax-ns#" xmlns:svg="http://www.w3.org/2000/svg" xmlns="http://www.w3.org/2000/svg" height="60" width="60" fill="#009f50" viewBox="0 0 15.999999 15.999999" version="1.1" x="20" y="16" xmlns:xlink="http://www.w3.org/1999/xlink" xmlns:svgjs="http://svgjs.com/svgjs"><path d="M 15.650975,0.08445273 C 9.5919479,-0.10107309 8.1956174,7.1882332 8.1956174,7.1882332 c 0,0 -1.9734043,-6.67843029 -8.19561783146,-3.7813904 C 0.52985853,4.8375188 1.355483,5.8801933 2.2598491,6.6530579 2.2085746,6.7588012 2.1736248,6.8644445 2.1465646,6.9655692 L 0.17188024,14.342797 c -0.12534945,0.4684 0.0927311,0.93306 0.3652479,1.185592 0.27251683,0.252532 0.60632636,0.390639 0.99222516,0.390639 l 13.0786127,0 c 0.385899,0 0.719707,-0.138107 0.992224,-0.390639 0.272518,-0.252532 0.488647,-0.717191 0.363296,-1.185592 L 13.990755,6.9655692 C 13.939651,6.7746062 13.852939,6.5694573 13.68801,6.3717964 14.881271,5.0884243 15.802789,3.1188459 15.650975,0.08445273 Z m -3.209106,7.34988297 0.136724,0 1.873117,7.0002623 -12.7661017,0 1.8418652,-6.885022 C 5.433654,8.6475861 7.2795672,8.7820427 7.2795672,8.7820427 l 0,3.4805993 1.8399132,0 0,-3.545055 c 0,0 1.6690836,-0.1736598 3.3223886,-1.2832513 z" fill="#ffffff"></path></svg></svg>