<?xml version="1.0" encoding="UTF-8" standalone="no"?>
<!-- Created with Inkscape (http://www.inkscape.org/) -->

<svg
   xmlns:dc="http://purl.org/dc/elements/1.1/"
   xmlns:cc="http://creativecommons.org/ns#"
   xmlns:rdf="http://www.w3.org/1999/02/22-rdf-syntax-ns#"
   xmlns:svg="http://www.w3.org/2000/svg"
   xmlns="http://www.w3.org/2000/svg"
   xmlns:sodipodi="http://sodipodi.sourceforge.net/DTD/sodipodi-0.dtd"
   xmlns:inkscape="http://www.inkscape.org/namespaces/inkscape"
   width="160"
   height="160"
   viewBox="0 0 42.333332 42.333335"
   version="1.1"
   id="svg8"
   inkscape:version="0.92.4 (5da689c313, 2019-01-14)"
   sodipodi:docname="Monuments.svg">
  <defs
     id="defs2">
    <style
       id="style817">
            .cls-1{fill:#fff}
        </style>
    <style
       id="style844">
            .cls-1{fill:#fff}
        </style>
    <style
       id="style884">
            .cls-1{fill:#fff}
        </style>
    <style
       id="style901">
            .cls-1{fill:#fff}
        </style>
    <style
       id="style928">
            .cls-1{fill:#fff}
        </style>
    <style
       id="style951">
            .cls-1{fill:#fff}
        </style>
    <style
       id="style964">
            .cls-1{fill:#fff}
        </style>
    <style
       id="style977">
            .cls-1{fill:#fff}
        </style>
    <style
       id="style990">
            .cls-1{fill:#fff}
        </style>
    <style
       id="style1007">
            .cls-1{fill:#fff}
        </style>
    <style
       id="style1024">
            .cls-1{fill:#fff}
        </style>
    <style
       id="style1080">
            .cls-1{fill:#fff}
        </style>
    <style
       id="style1093">
            .cls-1{fill:none}.cls-2{fill:#44bd32}
        </style>
    <style
       id="style1111">
            .cls-1{fill:none}.cls-2{fill:#8c7ae6}
        </style>
    <style
       id="style1129">
            .cls-1{fill:none}.cls-2{fill:#273c75}
        </style>
    <style
       id="style1145">
            .cls-1{fill:none}.cls-2{fill:#fbc531}
        </style>
    <style
       id="style1161">
            .cls-1{fill:none}.cls-2{fill:#4cd137}
        </style>
    <style
       id="style1177">
            .cls-1{fill:none}.cls-2{fill:#e84118}
        </style>
    <style
       id="style1193">
            .cls-1{fill:none}.cls-2{fill:#4cd137}
        </style>
    <style
       id="style1209">
            .cls-1{fill:none}.cls-2{fill:#8c7ae6}
        </style>
    <style
       id="style1227">
            .cls-1{fill:none}.cls-2{fill:#273c75}
        </style>
    <style
       id="style1243">
            .cls-1{fill:none}.cls-2{fill:#fbc531}
        </style>
    <style
       id="style1259">
            .cls-1{fill:none}.cls-2{fill:#8c7ae6}
        </style>
    <style
       id="style1277">
            .cls-1{fill:#fff}
        </style>
    <style
       id="style1293">
            .cls-1{fill:#fff}
        </style>
    <style
       id="style1317">
            .cls-1{fill:#fff}
        </style>
    <style
       id="style1337">
            .cls-1{fill:#fff}
        </style>
    <style
       id="style1375">
            .cls-1{fill:#fff}
        </style>
  </defs>
  <sodipodi:namedview
     id="base"
     pagecolor="#ffffff"
     bordercolor="#666666"
     borderopacity="1.0"
     inkscape:pageopacity="0.0"
     inkscape:pageshadow="2"
     inkscape:zoom="7.425"
     inkscape:cx="80"
     inkscape:cy="80"
     inkscape:document-units="mm"
     inkscape:current-layer="layer1"
     showgrid="false"
     units="px"
     inkscape:window-width="1916"
     inkscape:window-height="2093"
     inkscape:window-x="-12"
     inkscape:window-y="0"
     inkscape:window-maximized="0" />
  <metadata
     id="metadata5">
    <rdf:RDF>
      <cc:Work
         rdf:about="">
        <dc:format>image/svg+xml</dc:format>
        <dc:type
           rdf:resource="http://purl.org/dc/dcmitype/StillImage" />
        <dc:title></dc:title>
      </cc:Work>
    </rdf:RDF>
  </metadata>
  <g
     inkscape:label="Layer 1"
     inkscape:groupmode="layer"
     id="layer1"
     transform="translate(0,-254.66665)">
    <rect
       style="fill:#aaa69d;fill-opacity:1;fill-rule:evenodd;stroke-width:0.26458332"
       id="rect815"
       width="42.333332"
       height="42.333332"
       x="-8.9641112e-09"
       y="254.70229"
       ry="3.4999876" />
    <path
       class="cls-1"
       d="M 33.635432,281.74869 H 31.00656 c -0.169615,0 -0.424012,0 -0.424012,-0.32541 -0.254391,-2.38558 -0.508815,-4.66275 -0.763222,-7.04832 l -0.763221,-7.15677 c 0,-0.32541 -0.08481,-0.54217 -0.424013,-0.65062 a 2.1700921,2.7748734 0 0 1 -1.950451,-2.49389 l -0.254424,-2.27717 H 14.724493 c -0.08481,0.65061 -0.08481,1.19278 -0.169615,1.73496 -0.169616,1.84344 -0.67842,2.7109 -1.865654,3.03623 a 0.48846154,0.62459049 0 0 0 -0.508814,0.65061 c -0.339209,2.71086 -0.593616,5.42177 -0.848023,8.02423 -0.254391,2.16873 -0.424012,4.22902 -0.67842,6.50615 H 7.3466785 v 6.50615 H 33.805012 v -6.50615 z m -10.51549,-18.86784 h 0.508814 v 1.735 h -0.508814 z m -1.865654,0 h 0.508814 v 1.735 h -0.508814 z m -1.865651,0 h 0.508814 v 1.735 h -0.508814 z m -1.780849,0 h 0.508814 v 1.735 h -0.508814 z m -1.865651,0 h 0.508814 v 1.735 h -0.508814 z m 5.766558,20.81968 h -1.865651 v -3.90369 h 1.865651 z M 25.24,279.14623 h -0.932827 v -5.96394 a 3.1800881,4.0663443 0 0 0 -2.968081,-4.4459 H 20.91508 a 5.4934962,7.0244741 0 0 0 -1.696048,0.2168 3.1953526,4.0858628 0 0 0 -2.459266,4.12058 v 6.07238 h -0.932827 v -6.39771 a 3.9857106,5.096485 0 0 1 3.816105,-5.31336 6.6094952,8.45149 0 0 1 3.392093,0.54217 3.757592,4.8047922 0 0 1 2.204863,4.12057 c 0.08481,2.27718 0,4.66275 0,7.04833 z m 0.254423,-14.53038 h -0.508815 v -1.735 h 0.508815 z"
       id="Monuments"
       inkscape:connector-curvature="0"
       style="fill:#ffffff;stroke-width:0.95893764" />
  </g>
</svg>
