<?xml version="1.0" encoding="UTF-8" standalone="no"?>
<!-- Created with Inkscape (http://www.inkscape.org/) -->

<svg
   xmlns:dc="http://purl.org/dc/elements/1.1/"
   xmlns:cc="http://creativecommons.org/ns#"
   xmlns:rdf="http://www.w3.org/1999/02/22-rdf-syntax-ns#"
   xmlns:svg="http://www.w3.org/2000/svg"
   xmlns="http://www.w3.org/2000/svg"
   xmlns:sodipodi="http://sodipodi.sourceforge.net/DTD/sodipodi-0.dtd"
   xmlns:inkscape="http://www.inkscape.org/namespaces/inkscape"
   width="160"
   height="160"
   viewBox="0 0 42.333332 42.333335"
   version="1.1"
   id="svg8"
   inkscape:version="0.92.4 (5da689c313, 2019-01-14)"
   sodipodi:docname="Musées.svg">
  <defs
     id="defs2">
    <style
       id="style817">
            .cls-1{fill:#fff}
        </style>
    <style
       id="style844">
            .cls-1{fill:#fff}
        </style>
    <style
       id="style884">
            .cls-1{fill:#fff}
        </style>
    <style
       id="style901">
            .cls-1{fill:#fff}
        </style>
    <style
       id="style928">
            .cls-1{fill:#fff}
        </style>
    <style
       id="style951">
            .cls-1{fill:#fff}
        </style>
    <style
       id="style964">
            .cls-1{fill:#fff}
        </style>
    <style
       id="style977">
            .cls-1{fill:#fff}
        </style>
    <style
       id="style990">
            .cls-1{fill:#fff}
        </style>
    <style
       id="style1007">
            .cls-1{fill:#fff}
        </style>
    <style
       id="style1024">
            .cls-1{fill:#fff}
        </style>
    <style
       id="style1080">
            .cls-1{fill:#fff}
        </style>
    <style
       id="style1093">
            .cls-1{fill:none}.cls-2{fill:#44bd32}
        </style>
    <style
       id="style1111">
            .cls-1{fill:none}.cls-2{fill:#8c7ae6}
        </style>
    <style
       id="style1129">
            .cls-1{fill:none}.cls-2{fill:#273c75}
        </style>
    <style
       id="style1145">
            .cls-1{fill:none}.cls-2{fill:#fbc531}
        </style>
    <style
       id="style1161">
            .cls-1{fill:none}.cls-2{fill:#4cd137}
        </style>
    <style
       id="style1177">
            .cls-1{fill:none}.cls-2{fill:#e84118}
        </style>
    <style
       id="style1193">
            .cls-1{fill:none}.cls-2{fill:#4cd137}
        </style>
    <style
       id="style1209">
            .cls-1{fill:none}.cls-2{fill:#8c7ae6}
        </style>
    <style
       id="style1227">
            .cls-1{fill:none}.cls-2{fill:#273c75}
        </style>
    <style
       id="style1243">
            .cls-1{fill:none}.cls-2{fill:#fbc531}
        </style>
    <style
       id="style1259">
            .cls-1{fill:none}.cls-2{fill:#8c7ae6}
        </style>
    <style
       id="style1277">
            .cls-1{fill:#fff}
        </style>
    <style
       id="style1293">
            .cls-1{fill:#fff}
        </style>
    <style
       id="style1317">
            .cls-1{fill:#fff}
        </style>
    <style
       id="style1337">
            .cls-1{fill:#fff}
        </style>
  </defs>
  <sodipodi:namedview
     id="base"
     pagecolor="#ffffff"
     bordercolor="#666666"
     borderopacity="1.0"
     inkscape:pageopacity="0.0"
     inkscape:pageshadow="2"
     inkscape:zoom="7.425"
     inkscape:cx="80"
     inkscape:cy="80"
     inkscape:document-units="mm"
     inkscape:current-layer="layer1"
     showgrid="false"
     units="px"
     inkscape:window-width="1916"
     inkscape:window-height="2093"
     inkscape:window-x="-12"
     inkscape:window-y="0"
     inkscape:window-maximized="0" />
  <metadata
     id="metadata5">
    <rdf:RDF>
      <cc:Work
         rdf:about="">
        <dc:format>image/svg+xml</dc:format>
        <dc:type
           rdf:resource="http://purl.org/dc/dcmitype/StillImage" />
        <dc:title></dc:title>
      </cc:Work>
    </rdf:RDF>
  </metadata>
  <g
     inkscape:label="Layer 1"
     inkscape:groupmode="layer"
     id="layer1"
     transform="translate(0,-254.66665)">
    <rect
       style="fill:#706fd3;fill-opacity:1;fill-rule:evenodd;stroke-width:0.26458332"
       id="rect815"
       width="42.333332"
       height="42.333332"
       x="-8.9641112e-09"
       y="254.70229"
       ry="3.4999876" />
    <g
       id="g1373"
       transform="matrix(1.1918168,0,0,0.83202306,7.1832148,262.31222)">
      <path
         data-name="Tracé 4281"
         class="cls-1"
         d="m 11.2,11.1 c 0.2,0.2 0.4,0.5 0.7,0.6 0,-0.2 -0.1,-0.4 -0.1,-0.6 a 1.268,1.268 0 0 1 0.1,-0.6 4.349,4.349 0 0 0 -0.7,0.6 z"
         id="Tracé_4281"
         inkscape:connector-curvature="0"
         style="fill:#ffffff" />
      <path
         data-name="Tracé 4282"
         class="cls-1"
         d="m 17.8,11.1 c -0.2,-0.2 -0.4,-0.5 -0.7,-0.6 0,0.2 0.1,0.4 0.1,0.6 a 1.268,1.268 0 0 1 -0.1,0.6 1.344,1.344 0 0 0 0.7,-0.6 z"
         id="Tracé_4282"
         inkscape:connector-curvature="0"
         style="fill:#ffffff" />
      <path
         data-name="Tracé 4283"
         class="cls-1"
         d="m 13.1,11.1 a 1.4,1.4 0 1 0 1.4,-1.4 1.367,1.367 0 0 0 -1.4,1.4 z"
         id="Tracé_4283"
         inkscape:connector-curvature="0"
         style="fill:#ffffff" />
      <path
         data-name="Tracé 4284"
         class="cls-1"
         d="m 14.5,8.4 a 5.822,5.822 0 0 1 1.9,0.3 C 16.3,8.5 16.1,8.4 16,8.2 A 14.724,14.724 0 0 0 8.6,3.4 l 1.7,6.8 a 5.6,5.6 0 0 1 4.2,-1.8 z"
         id="Tracé_4284"
         inkscape:connector-curvature="0"
         style="fill:#ffffff" />
      <path
         data-name="Tracé 4285"
         class="cls-1"
         d="M 19.4,29.1 V 24 A 17.5,17.5 0 0 1 16,29.1 Z"
         id="Tracé_4285"
         inkscape:connector-curvature="0"
         style="fill:#ffffff" />
      <path
         data-name="Tracé 4286"
         class="cls-1"
         d="m 11.8,21.4 -1.3,1.1 1.7,0.3 z"
         id="Tracé_4286"
         inkscape:connector-curvature="0"
         style="fill:#ffffff" />
      <path
         data-name="Tracé 4287"
         class="cls-1"
         d="m 9,26.9 a 2.694,2.694 0 0 0 -2.7,2.2 h 5.5 A 2.8,2.8 0 0 0 9,26.9 Z"
         id="Tracé_4287"
         inkscape:connector-curvature="0"
         style="fill:#ffffff" />
      <path
         data-name="Tracé 4288"
         class="cls-1"
         d="m 5.7,16.5 a 1.872,1.872 0 0 0 2.6,0 L 8.6,16.2 A 0.618,0.618 0 0 1 9.3,16 0.675,0.675 0 0 1 9.7,16.6 v 2.1 h 1.5 l -2,-8 A 1.6,1.6 0 0 1 8.4,11 1.2,1.2 0 0 1 8.4,8.6 H 8.6 L 7.7,4.8 5.2,14.7 a 1.734,1.734 0 0 0 0.5,1.8 z"
         id="Tracé_4288"
         inkscape:connector-curvature="0"
         style="fill:#ffffff" />
      <path
         data-name="Tracé 4289"
         class="cls-1"
         d="M 8.4,22.8 A 0.764,0.764 0 0 1 8.6,22.3 L 11.4,20 H 9 A 0.576,0.576 0 0 1 8.4,19.4 V 18 A 3.033,3.033 0 0 1 4.8,17.4 3.032,3.032 0 0 1 4,14.4 L 6.8,2.8 h -4 V 29.1 H 5 a 4.139,4.139 0 0 1 3.4,-3.5 z"
         id="Tracé_4289"
         inkscape:connector-curvature="0"
         style="fill:#ffffff" />
      <path
         data-name="Tracé 4290"
         class="cls-1"
         d="m 17,7.4 a 14.676,14.676 0 0 1 2.4,4 V 2.8 H 10.9 A 15.439,15.439 0 0 1 17,7.4 Z"
         id="Tracé_4290"
         inkscape:connector-curvature="0"
         style="fill:#ffffff" />
      <path
         data-name="Tracé 4291"
         class="cls-1"
         d="M 20.3,0 H 1.9 A 1.967,1.967 0 0 0 0,1.9 v 28 a 1.9,1.9 0 0 0 1.9,1.9 h 18.4 a 1.9,1.9 0 0 0 1.9,-1.9 V 1.9 A 1.9,1.9 0 0 0 20.3,0 Z m 0.4,29.7 a 0.576,0.576 0 0 1 -0.6,0.6 H 2.2 A 0.576,0.576 0 0 1 1.6,29.7 V 2.2 A 0.576,0.576 0 0 1 2.2,1.6 h 17.9 a 0.576,0.576 0 0 1 0.6,0.6 z"
         id="Tracé_4291"
         inkscape:connector-curvature="0"
         style="fill:#ffffff" />
      <path
         data-name="Tracé 4292"
         class="cls-1"
         d="m 9.7,23.6 v 2 a 4.139,4.139 0 0 1 3.4,3.5 h 0.6 l -1.2,-4.9 z"
         id="Tracé_4292"
         inkscape:connector-curvature="0"
         style="fill:#ffffff" />
      <path
         data-name="Tracé 4293"
         class="cls-1"
         d="m 18.4,12.3 a 5.785,5.785 0 0 1 -3.9,1.5 5.991,5.991 0 0 1 -3.6,-1.2 l 1.5,6.1 h 0.7 a 0.675,0.675 0 0 1 0.6,0.4 0.618,0.618 0 0 1 -0.2,0.7 l -0.7,0.6 2,7.9 a 14.9,14.9 0 0 0 4.5,-10.7 12.111,12.111 0 0 0 -0.9,-5.3 z"
         id="Tracé_4293"
         inkscape:connector-curvature="0"
         style="fill:#ffffff" />
    </g>
  </g>
</svg>
