<?xml version="1.0" encoding="UTF-8" standalone="no"?>
<!-- Created with Inkscape (http://www.inkscape.org/) -->

<svg
   xmlns:dc="http://purl.org/dc/elements/1.1/"
   xmlns:cc="http://creativecommons.org/ns#"
   xmlns:rdf="http://www.w3.org/1999/02/22-rdf-syntax-ns#"
   xmlns:svg="http://www.w3.org/2000/svg"
   xmlns="http://www.w3.org/2000/svg"
   xmlns:sodipodi="http://sodipodi.sourceforge.net/DTD/sodipodi-0.dtd"
   xmlns:inkscape="http://www.inkscape.org/namespaces/inkscape"
   width="42.333mm"
   height="42.333mm"
   viewBox="0 0 42.333 42.333"
   version="1.1"
   id="svg8"
   inkscape:version="0.92.4 (5da689c313, 2019-01-14)">
  <defs
     id="defs2">
    <inkscape:perspective
       id="perspective2441"
       inkscape:persp3d-origin="290 : 193.33333 : 1"
       inkscape:vp_z="580 : 290 : 1"
       inkscape:vp_y="0 : 1000 : 0"
       inkscape:vp_x="0 : 290 : 1"
       sodipodi:type="inkscape:persp3d" />
    <inkscape:perspective
       sodipodi:type="inkscape:persp3d"
       inkscape:vp_x="0 : 30 : 1"
       inkscape:vp_y="0 : 1000 : 0"
       inkscape:vp_z="60 : 30 : 1"
       inkscape:persp3d-origin="30 : 20 : 1"
       id="perspective3452" />
    <symbol
       id="symbol-university"
       viewBox="244.5 110 489 219.9">
      <path
         d="M79,43l57,119c0,0,21-96,104-96s124,106,124,106l43-133l82-17L0,17L79,43z"
         id="path4460" />
      <path
         fill="none"
         stroke="#000000"
         stroke-width="20"
         d="M94,176l-21,39"
         id="path4462" />
      <path
         d="M300,19c0,10.5-22.6,19-50.5,19S199,29.5,199,19s22.6-19,50.5-19S300,8.5,300,19z"
         id="path4464" />
      <path
         ill="none"
         stroke="#000000"
         stroke-width="20"
         d="M112,216l-16-38L64,88c0,0-9-8-4-35s16-24,16-24"
         id="path4466" />
    </symbol>
    <inkscape:perspective
       sodipodi:type="inkscape:persp3d"
       inkscape:vp_x="0 : 526.18109 : 1"
       inkscape:vp_y="0 : 1000 : 0"
       inkscape:vp_z="744.09448 : 526.18109 : 1"
       inkscape:persp3d-origin="372.04724 : 350.78739 : 1"
       id="perspective4471" />
    <inkscape:perspective
       sodipodi:type="inkscape:persp3d"
       inkscape:vp_x="0 : 6 : 1"
       inkscape:vp_y="0 : 1000 : 0"
       inkscape:vp_z="12 : 6 : 1"
       inkscape:persp3d-origin="6 : 4 : 1"
       id="perspective4668" />
  </defs>
  <sodipodi:namedview
     id="base"
     pagecolor="#ffffff"
     bordercolor="#666666"
     borderopacity="1.0"
     inkscape:pageopacity="0.0"
     inkscape:pageshadow="2"
     inkscape:zoom="11.48759"
     inkscape:cx="79.99937"
     inkscape:cy="79.99937"
     inkscape:document-units="mm"
     inkscape:current-layer="layer1"
     showgrid="false"
     inkscape:window-width="3840"
     inkscape:window-height="2115"
     inkscape:window-x="-13"
     inkscape:window-y="-13"
     inkscape:window-maximized="1" />
  <metadata
     id="metadata5">
    <rdf:RDF>
      <cc:Work
         rdf:about="">
        <dc:format>image/svg+xml</dc:format>
        <dc:type
           rdf:resource="http://purl.org/dc/dcmitype/StillImage" />
        <dc:title></dc:title>
      </cc:Work>
    </rdf:RDF>
  </metadata>
  <g
     inkscape:label="Layer 1"
     inkscape:groupmode="layer"
     id="layer1"
     transform="translate(0,-254.667)">
    <g
       id="g985"
       transform="matrix(0.42333,0,0,0.42333,0,254.667)">
      <rect
         id="rect969"
         height="100"
         width="100"
         x="0"
         y="0"
         style="fill:#0000a0"
         ry="236.22234" />
    </g>
    <g
       id="g1017"
       transform="matrix(0.20702522,0,0,0.21115442,10.665515,262.2542)"
       style="fill:#ffffff;fill-opacity:1">
      <path
         d="m 35.792,94.078 v 19.894 c 0,0.669 0.383,0.956 0.956,0.956 h 7.269 c 0.669,0 0.957,-0.287 0.957,-0.956 v -92.96 c 0,-0.957 -0.382,-1.148 -1.147,-0.288 L 13.891,55.345 c -0.383,0.669 -0.096,1.148 0.669,1.148 h 6.408 c 0.861,0 1.052,0.478 0.669,1.147 L 7.961,73.421 C 7.483,73.995 7.77,74.568 8.63,74.568 h 8.034 c 0.765,0 1.052,0.574 0.669,1.147 L 3.658,91.975 c -0.573,0.669 -0.191,1.148 0.574,1.148 h 30.604 c 0.669,0 0.956,0.286 0.956,0.955 z"
         id="path2"
         inkscape:connector-curvature="0"
         style="fill:#ffffff;fill-opacity:1" />
      <path
         d="m 95.565,18.62 -24.196,5.069 c -0.573,0.096 -0.859,0.479 -0.859,1.052 v 26.301 c 0,0.669 0.382,0.956 1.051,0.86 l 24.196,-5.069 c 0.574,-0.095 0.861,-0.478 0.861,-1.052 v -26.3 c 0,-0.669 -0.382,-0.957 -1.053,-0.861 z"
         id="path4"
         inkscape:connector-curvature="0"
         style="fill:#ffffff;fill-opacity:1" />
      <path
         d="m 54.06,50.181 23.431,-4.877 c 0.574,-0.095 0.861,-0.478 0.861,-1.052 v -26.3 c 0,-0.669 -0.383,-0.957 -1.053,-0.861 L 54.06,21.968 v -1.435 c 0,-0.669 -0.288,-0.957 -0.957,-0.957 h -4.304 c -0.573,0 -0.956,0.287 -0.956,0.957 v 93.438 c 0,0.669 0.383,0.956 0.956,0.956 h 4.304 c 0.669,0 0.957,-0.287 0.957,-0.956 z"
         id="path6"
         inkscape:connector-curvature="0"
         style="fill:#ffffff;fill-opacity:1" />
    </g>
  </g>
</svg>
