<?xml version="1.0" encoding="UTF-8" standalone="no"?>
<!-- Created with Inkscape (http://www.inkscape.org/) -->

<svg
   xmlns:dc="http://purl.org/dc/elements/1.1/"
   xmlns:cc="http://creativecommons.org/ns#"
   xmlns:rdf="http://www.w3.org/1999/02/22-rdf-syntax-ns#"
   xmlns:svg="http://www.w3.org/2000/svg"
   xmlns="http://www.w3.org/2000/svg"
   xmlns:sodipodi="http://sodipodi.sourceforge.net/DTD/sodipodi-0.dtd"
   xmlns:inkscape="http://www.inkscape.org/namespaces/inkscape"
   width="42.333mm"
   height="42.333mm"
   viewBox="0 0 42.333 42.333"
   version="1.1"
   id="svg8"
   inkscape:version="0.92.4 (5da689c313, 2019-01-14)">
  <defs
     id="defs2" />
  <sodipodi:namedview
     id="base"
     pagecolor="#ffffff"
     bordercolor="#666666"
     borderopacity="1.0"
     inkscape:pageopacity="0.0"
     inkscape:pageshadow="2"
     inkscape:zoom="11.48759"
     inkscape:cx="79.99937"
     inkscape:cy="79.99937"
     inkscape:document-units="mm"
     inkscape:current-layer="layer1"
     showgrid="false"
     inkscape:window-width="3840"
     inkscape:window-height="2115"
     inkscape:window-x="-13"
     inkscape:window-y="-13"
     inkscape:window-maximized="1" />
  <metadata
     id="metadata5">
    <rdf:RDF>
      <cc:Work
         rdf:about="">
        <dc:format>image/svg+xml</dc:format>
        <dc:type
           rdf:resource="http://purl.org/dc/dcmitype/StillImage" />
        <dc:title></dc:title>
      </cc:Work>
    </rdf:RDF>
  </metadata>
  <g
     inkscape:label="Layer 1"
     inkscape:groupmode="layer"
     id="layer1"
     transform="translate(0,-254.667)">
    <rect
       style="fill:#c83264;fill-opacity:1;fill-rule:evenodd;stroke-width:0.8939656;paint-order:stroke markers fill"
       id="rect836"
       width="42.333"
       height="42.333"
       x="0"
       y="254.66701"
       ry="26.458334" />
    <g
       id="g6"
       transform="matrix(0.38084177,0,0,0.39017168,11.483418,265.00959)"
       style="fill:#ffffff;fill-opacity:1" />
    <path
       d="m 21.498571,278.27349 -2.664177,3.79951 c -0.332021,0.47362 -0.98521,0.5886 -1.459084,0.25632 -0.457338,-0.32065 -0.578517,-0.94362 -0.287063,-1.41232 l 2.370397,-3.79615 0.03746,-0.8847 c 0.0137,-0.37517 0.03695,-0.74931 0.04238,-1.12526 0.0016,-0.0212 0.0044,-0.0424 0.0062,-0.0636 l 1.88309,3.03884 z m 1.999361,-6.31279 0.76636,1.16892 c 0.177768,0.2713 0.473615,0.41832 0.775147,0.41832 0.174149,0 0.350367,-0.0491 0.506947,-0.15167 0.427622,-0.28034 0.547254,-0.85447 0.26665,-1.28209 l -1.918745,-2.92695 c -0.172083,0.82113 -0.330214,1.85673 -0.396359,2.77347 z m 2.814039,9.13717 -1.557012,-4.51497 c -0.01757,-0.0493 -0.04108,-0.10232 -0.06796,-0.14909 l -0.04005,-0.07 -2.135524,-3.71915 c 0.0018,-0.11033 2.59e-4,-0.2173 0.0052,-0.33125 0.01111,-0.23047 0.02791,-0.46457 0.04754,-0.70047 0.04289,-0.47258 0.102836,-0.95111 0.1757,-1.42653 0.07338,-0.47517 0.159681,-0.94956 0.261998,-1.40844 0.05142,-0.22841 0.105936,-0.45501 0.16614,-0.66714 l 0.04496,-0.15839 0.03953,-0.1248 c 0.01576,-0.0638 0.07286,-0.20619 0.115239,-0.32013 l 0.0085,-0.023 0.0016,-0.004 c 0.271817,-0.73614 -0.104645,-1.55314 -0.840774,-1.82496 -0.642081,-0.23719 -1.345396,0.0191 -1.695247,0.57671 l -2.360837,2.55488 c -0.08501,0.0917 -0.150379,0.19973 -0.192236,0.31756 l -1.110538,3.11556 c -0.171823,0.48163 0.07958,1.01131 0.561465,1.18314 0.102579,0.0367 0.20774,0.054 0.310832,0.054 0.380598,0 0.737163,-0.23642 0.872299,-0.61547 l 0.949555,-2.66418 c -0.054,0.39171 -0.102578,0.78497 -0.138493,1.18339 -0.02325,0.27182 -0.04289,0.54597 -0.05581,0.82424 -0.0124,0.27931 -0.01705,0.5656 -0.0124,0.86067 v 2.6e-4 l 0.0026,0.0744 c 0.0096,0.22143 0.07803,0.44338 0.210066,0.6413 l 2.576327,3.86204 1.753124,4.26796 c 0.225568,0.54596 0.841809,0.83121 1.407409,0.63613 0.58756,-0.20257 0.899427,-0.8431 0.696854,-1.4304 z m -4.361749,-19.07868 c -0.849561,0.31186 -1.285711,1.25367 -0.973584,2.10349 0.311867,0.85007 1.253929,1.28596 2.103231,0.9741 0.849561,-0.31187 1.285711,-1.25367 0.973584,-2.10375 -0.311867,-0.84982 -1.253929,-1.28571 -2.103231,-0.97384 z m -10.658003,21.285 H 8.6461264 v 4.23334 h 2.6460926 z m 5.656244,0 H 14.30237 v 4.23334 h 2.646093 z m 5.656243,0 h -2.646092 v 4.23334 h 2.646092 z m 5.656244,0 h -2.646092 v 4.23334 h 2.646092 z m 5.656244,0 h -2.646092 v 4.23334 h 2.646092 z"
       id="path2"
       inkscape:connector-curvature="0"
       style="stroke-width:0.26458332;fill:#ffffff;fill-opacity:1"
       inkscape:transform-center-x="3.4778471"
       inkscape:transform-center-y="-0.11515856" />
  </g>
</svg>
