<?xml version="1.0" encoding="UTF-8" standalone="no"?>
<!-- Created with Inkscape (http://www.inkscape.org/) -->

<svg
   xmlns:dc="http://purl.org/dc/elements/1.1/"
   xmlns:cc="http://creativecommons.org/ns#"
   xmlns:rdf="http://www.w3.org/1999/02/22-rdf-syntax-ns#"
   xmlns:svg="http://www.w3.org/2000/svg"
   xmlns="http://www.w3.org/2000/svg"
   xmlns:sodipodi="http://sodipodi.sourceforge.net/DTD/sodipodi-0.dtd"
   xmlns:inkscape="http://www.inkscape.org/namespaces/inkscape"
   width="42.333mm"
   height="42.333mm"
   viewBox="0 0 42.333 42.333"
   version="1.1"
   id="svg8"
   inkscape:version="0.92.4 (5da689c313, 2019-01-14)">
  <defs
     id="defs2">
    <inkscape:perspective
       id="perspective2441"
       inkscape:persp3d-origin="290 : 193.33333 : 1"
       inkscape:vp_z="580 : 290 : 1"
       inkscape:vp_y="0 : 1000 : 0"
       inkscape:vp_x="0 : 290 : 1"
       sodipodi:type="inkscape:persp3d" />
    <inkscape:perspective
       sodipodi:type="inkscape:persp3d"
       inkscape:vp_x="0 : 30 : 1"
       inkscape:vp_y="0 : 1000 : 0"
       inkscape:vp_z="60 : 30 : 1"
       inkscape:persp3d-origin="30 : 20 : 1"
       id="perspective3452" />
    <symbol
       id="symbol-university"
       viewBox="244.5 110 489 219.9">
      <path
         d="M79,43l57,119c0,0,21-96,104-96s124,106,124,106l43-133l82-17L0,17L79,43z"
         id="path4460" />
      <path
         fill="none"
         stroke="#000000"
         stroke-width="20"
         d="M94,176l-21,39"
         id="path4462" />
      <path
         d="M300,19c0,10.5-22.6,19-50.5,19S199,29.5,199,19s22.6-19,50.5-19S300,8.5,300,19z"
         id="path4464" />
      <path
         ill="none"
         stroke="#000000"
         stroke-width="20"
         d="M112,216l-16-38L64,88c0,0-9-8-4-35s16-24,16-24"
         id="path4466" />
    </symbol>
    <inkscape:perspective
       sodipodi:type="inkscape:persp3d"
       inkscape:vp_x="0 : 526.18109 : 1"
       inkscape:vp_y="0 : 1000 : 0"
       inkscape:vp_z="744.09448 : 526.18109 : 1"
       inkscape:persp3d-origin="372.04724 : 350.78739 : 1"
       id="perspective4471" />
    <inkscape:perspective
       sodipodi:type="inkscape:persp3d"
       inkscape:vp_x="0 : 6 : 1"
       inkscape:vp_y="0 : 1000 : 0"
       inkscape:vp_z="12 : 6 : 1"
       inkscape:persp3d-origin="6 : 4 : 1"
       id="perspective4668" />
  </defs>
  <sodipodi:namedview
     id="base"
     pagecolor="#ffffff"
     bordercolor="#666666"
     borderopacity="1.0"
     inkscape:pageopacity="0.0"
     inkscape:pageshadow="2"
     inkscape:zoom="11.48759"
     inkscape:cx="79.99937"
     inkscape:cy="79.99937"
     inkscape:document-units="mm"
     inkscape:current-layer="layer1"
     showgrid="false"
     inkscape:window-width="3840"
     inkscape:window-height="2115"
     inkscape:window-x="-13"
     inkscape:window-y="-13"
     inkscape:window-maximized="1" />
  <metadata
     id="metadata5">
    <rdf:RDF>
      <cc:Work
         rdf:about="">
        <dc:format>image/svg+xml</dc:format>
        <dc:type
           rdf:resource="http://purl.org/dc/dcmitype/StillImage" />
        <dc:title></dc:title>
      </cc:Work>
    </rdf:RDF>
  </metadata>
  <g
     inkscape:label="Layer 1"
     inkscape:groupmode="layer"
     id="layer1"
     transform="translate(0,-254.667)">
    <g
       id="g985"
       transform="matrix(0.42333,0,0,0.42333,0,254.667)">
      <rect
         id="rect969"
         height="100"
         width="100"
         x="0"
         y="0"
         style="fill:#0000a0"
         ry="236.22234" />
      <svg
         y="7"
         x="10"
         viewBox="0 0 15 15"
         height="80"
         width="80"
         id="SvgjsSvg1001"
         version="1.1"
         style="fill:#0000a0">
        <path
           id="path971"
           d="m 12.990071,8.2253126 v 1.4736126 c 0,0.203432 -0.194397,0.3684028 -0.434117,0.3684028 -0.239719,0 -0.434116,-0.1649708 -0.434116,-0.3684028 0,0 0.05209,-0.3684032 -0.868233,-0.3684032 h -0.868233 v 1.842016 c 0,0.203432 -0.194398,0.368403 -0.4341173,0.368403 h -6.945865 c -0.2397192,0 -0.4341166,-0.164971 -0.4341166,-0.368403 V 8.2253126 c 0,-0.2034322 0.1943974,-0.3684032 0.4341166,-0.3684032 h 6.945865 c 0.2397193,0 0.4341173,0.164971 0.4341173,0.3684032 v 0.3684031 h 0.868233 c 0.920327,0 0.868233,-0.3684031 0.868233,-0.3684031 0,-0.2034322 0.194397,-0.3684032 0.434116,-0.3684032 0.23972,0 0.434117,0.164971 0.434117,0.3684032 z M 4.3077394,4.9096842 c -0.9590504,0 -1.7364663,0.6597364 -1.7364663,1.4736126 0,0.8138763 0.7774159,1.4736126 1.7364663,1.4736126 0.9590503,0 1.7364662,-0.6597363 1.7364662,-1.4736126 0,-0.8138762 -0.7774159,-1.4736126 -1.7364662,-1.4736126 z m 0,2.2104189 c -0.4795252,0 -0.8682332,-0.3298682 -0.8682332,-0.7368063 0,-0.4069381 0.388708,-0.7368063 0.8682332,-0.7368063 0.4795251,0 0.8682331,0.3298682 0.8682331,0.7368063 0,0.4069381 -0.388708,0.7368063 -0.8682331,0.7368063 z M 8.2147885,4.1728779 c -1.1987695,0 -2.1705829,0.8247073 -2.1705829,1.8420157 0,1.0173085 0.9718134,1.8420158 2.1705829,1.8420158 1.1987692,0 2.1705835,-0.8247073 2.1705835,-1.8420158 0,-1.0173084 -0.9718143,-1.8420157 -2.1705835,-1.8420157 z m 0,2.9472252 c -0.7192444,0 -1.3023497,-0.4948391 -1.3023497,-1.1052095 0,-0.6103703 0.5831053,-1.1052094 1.3023497,-1.1052094 0.7192443,0 1.3023492,0.4948391 1.3023492,1.1052094 0,0.6103704 -0.5831049,1.1052095 -1.3023492,1.1052095 z"
           inkscape:connector-curvature="0"
           style="fill:#ffffff;stroke-width:0.79982477" />
      </svg>
    </g>
  </g>
</svg>
