<?xml version="1.0" encoding="UTF-8" standalone="no"?>
<!-- Created with Inkscape (http://www.inkscape.org/) -->

<svg
   xmlns:dc="http://purl.org/dc/elements/1.1/"
   xmlns:cc="http://creativecommons.org/ns#"
   xmlns:rdf="http://www.w3.org/1999/02/22-rdf-syntax-ns#"
   xmlns:svg="http://www.w3.org/2000/svg"
   xmlns="http://www.w3.org/2000/svg"
   xmlns:sodipodi="http://sodipodi.sourceforge.net/DTD/sodipodi-0.dtd"
   xmlns:inkscape="http://www.inkscape.org/namespaces/inkscape"
   width="160"
   height="160"
   viewBox="0 0 42.333332 42.333335"
   version="1.1"
   id="svg8"
   inkscape:version="0.92.4 (5da689c313, 2019-01-14)"
   sodipodi:docname="Theatre_Cinema.svg">
  <defs
     id="defs2">
    <style
       id="style817">
            .cls-1{fill:#fff}
        </style>
    <style
       id="style844">
            .cls-1{fill:#fff}
        </style>
    <style
       id="style884">
            .cls-1{fill:#fff}
        </style>
    <style
       id="style901">
            .cls-1{fill:#fff}
        </style>
    <style
       id="style928">
            .cls-1{fill:#fff}
        </style>
    <style
       id="style951">
            .cls-1{fill:#fff}
        </style>
    <style
       id="style964">
            .cls-1{fill:#fff}
        </style>
    <style
       id="style977">
            .cls-1{fill:#fff}
        </style>
    <style
       id="style990">
            .cls-1{fill:#fff}
        </style>
    <style
       id="style1007">
            .cls-1{fill:#fff}
        </style>
    <style
       id="style1024">
            .cls-1{fill:#fff}
        </style>
    <style
       id="style1080">
            .cls-1{fill:#fff}
        </style>
    <style
       id="style1093">
            .cls-1{fill:none}.cls-2{fill:#44bd32}
        </style>
    <style
       id="style1111">
            .cls-1{fill:none}.cls-2{fill:#8c7ae6}
        </style>
    <style
       id="style1129">
            .cls-1{fill:none}.cls-2{fill:#273c75}
        </style>
    <style
       id="style1145">
            .cls-1{fill:none}.cls-2{fill:#fbc531}
        </style>
    <style
       id="style1161">
            .cls-1{fill:none}.cls-2{fill:#4cd137}
        </style>
    <style
       id="style1177">
            .cls-1{fill:none}.cls-2{fill:#e84118}
        </style>
    <style
       id="style1193">
            .cls-1{fill:none}.cls-2{fill:#4cd137}
        </style>
    <style
       id="style1209">
            .cls-1{fill:none}.cls-2{fill:#8c7ae6}
        </style>
    <style
       id="style1227">
            .cls-1{fill:none}.cls-2{fill:#273c75}
        </style>
    <style
       id="style1243">
            .cls-1{fill:none}.cls-2{fill:#fbc531}
        </style>
    <style
       id="style1259">
            .cls-1{fill:none}.cls-2{fill:#8c7ae6}
        </style>
    <style
       id="style1277">
            .cls-1{fill:#fff}
        </style>
  </defs>
  <sodipodi:namedview
     id="base"
     pagecolor="#ffffff"
     bordercolor="#666666"
     borderopacity="1.0"
     inkscape:pageopacity="0.0"
     inkscape:pageshadow="2"
     inkscape:zoom="7.425"
     inkscape:cx="80"
     inkscape:cy="80"
     inkscape:document-units="mm"
     inkscape:current-layer="layer1"
     showgrid="false"
     units="px"
     inkscape:window-width="1916"
     inkscape:window-height="2093"
     inkscape:window-x="-12"
     inkscape:window-y="0"
     inkscape:window-maximized="0" />
  <metadata
     id="metadata5">
    <rdf:RDF>
      <cc:Work
         rdf:about="">
        <dc:format>image/svg+xml</dc:format>
        <dc:type
           rdf:resource="http://purl.org/dc/dcmitype/StillImage" />
        <dc:title></dc:title>
      </cc:Work>
    </rdf:RDF>
  </metadata>
  <g
     inkscape:label="Layer 1"
     inkscape:groupmode="layer"
     id="layer1"
     transform="translate(0,-254.66665)">
    <rect
       style="fill:#ff793f;fill-opacity:1;fill-rule:evenodd;stroke-width:0.26458332"
       id="rect815"
       width="42.333332"
       height="42.333332"
       x="-8.9641112e-09"
       y="254.70229"
       ry="3.4999876" />
    <g
       id="g1291"
       transform="matrix(1.0416667,0,0,1.1655653,8.1496118,261.39344)">
      <path
         data-name="Tracé 4306"
         class="cls-1"
         d="m 17.8,0 c -7.6,0 -7.6,1.5 -7.6,1.5 v 4.2 c 1,-0.1 2,-0.3 3,-0.5 a 3.506,3.506 0 0 0 1.4,-0.6 0.55,0.55 0 0 1 0.5,-0.3 h 0.3 A 0.752,0.752 0 0 1 15.9,5 v 6.1 a 4.058,4.058 0 0 1 1.9,-0.4 1.268,1.268 0 0 1 0.6,0.1 1.854,1.854 0 0 1 0.7,0.2 5.388,5.388 0 0 1 1.3,0.7 3.544,3.544 0 0 1 1.4,2.4 0.215,0.215 0 0 1 -0.2,0.2 h -0.1 a 6.448,6.448 0 0 0 -2,-0.3 h -1.8 a 11.484,11.484 0 0 0 -1.8,0.1 11.864,11.864 0 0 1 -1,4.6 7.273,7.273 0 0 0 2.9,0.7 c 4.2,0 7.6,-4 7.6,-8.9 v -9 C 25.3,1.5 25.4,0 17.8,0 Z m 5,8.2 a 2.373,2.373 0 0 1 -3.3,-0.4 2.4,2.4 0 0 1 0,-2.8 0.3,0.3 0 0 1 0.4,0 l 2.9,2.9 c 0.1,0 0.1,0.2 0,0.3 z"
         id="Tracé_4306"
         inkscape:connector-curvature="0"
         style="fill:#ffffff" />
      <path
         data-name="Tracé 4307"
         class="cls-1"
         d="M 15.1,5 C 15.1,5 13.7,6.5 7.5,6.5 1.4,6.6 0,5 0,5 v 8.9 c 0,4.9 3.4,8.8 7.6,8.8 4.2,0 7.6,-4 7.6,-8.8 V 5 Z M 2.4,13 a 0.265,0.265 0 0 1 -0.3,-0.3 2.277,2.277 0 0 1 2.6,-2 2.443,2.443 0 0 1 2,2 C 6.7,12.9 6.6,13 6.5,13 Z m 7.8,5.4 A 4.388,4.388 0 0 1 7.5,19.3 1.952,1.952 0 0 1 6.8,19.2 1.854,1.854 0 0 1 6.1,19 5.388,5.388 0 0 1 4.8,18.3 3.534,3.534 0 0 1 3.5,16 0.215,0.215 0 0 1 3.7,15.8 h 0.1 a 6.448,6.448 0 0 0 2,0.3 h 1.8 a 11.484,11.484 0 0 0 1.8,-0.1 5.822,5.822 0 0 0 1.9,-0.3 0.367,0.367 0 0 1 0.3,0.1 v 0.1 a 3.359,3.359 0 0 1 -1.4,2.5 z M 12.8,13 H 8.7 a 0.265,0.265 0 0 1 -0.3,-0.3 2.277,2.277 0 0 1 2.6,-2 2.443,2.443 0 0 1 2,2 c 0,0.2 -0.1,0.3 -0.2,0.3 z"
         id="Tracé_4307"
         inkscape:connector-curvature="0"
         style="fill:#ffffff" />
    </g>
  </g>
</svg>
