<svg xmlns="http://www.w3.org/2000/svg" version="1.1" xmlns:xlink="http://www.w3.org/1999/xlink" xmlns:svgjs="http://svgjs.com/svgjs" width="100" height="100"><circle r="50" cx="50" cy="50" fill="#b23939"></circle><svg xmlns:dc="http://purl.org/dc/elements/1.1/" xmlns:cc="http://creativecommons.org/ns#" xmlns:rdf="http://www.w3.org/1999/02/22-rdf-syntax-ns#" xmlns:svg="http://www.w3.org/2000/svg" xmlns="http://www.w3.org/2000/svg" xmlns:sodipodi="http://sodipodi.sourceforge.net/DTD/sodipodi-0.dtd" xmlns:inkscape="http://www.inkscape.org/namespaces/inkscape" inkscape:version="1.0rc1 (09960d6f05, 2020-04-09)" sodipodi:docname="noun_footprints_3050806.svg" id="svg20" xml:space="preserve" enable-background="new 0 0 64 64" viewBox="0 0 64 80" y="16" x="20" version="1.1" xmlns:xlink="http://www.w3.org/1999/xlink" xmlns:svgjs="http://svgjs.com/svgjs" width="60" height="60" fill="#b23939"><metadata id="metadata26"><rdf:RDF><cc:Work rdf:about=""><dc:format>image/svg+xml</dc:format><dc:type rdf:resource="http://purl.org/dc/dcmitype/StillImage"></dc:type></cc:Work></rdf:RDF></metadata><defs id="defs24" fill="#ffffff"></defs><sodipodi:namedview inkscape:current-layer="svg20" inkscape:window-maximized="1" inkscape:window-y="-8" inkscape:window-x="-8" inkscape:cy="40" inkscape:cx="32" inkscape:zoom="3.1" showgrid="false" id="namedview22" inkscape:window-height="988" inkscape:window-width="1680" inkscape:pageshadow="2" inkscape:pageopacity="0" guidetolerance="10" gridtolerance="10" objecttolerance="10" borderopacity="1" bordercolor="#666666" pagecolor="#ffffff"></sodipodi:namedview><g transform="translate(0,6)" id="g14" fill="#ffffff"><g id="g12" fill="#ffffff"><path inkscape:connector-curvature="0" id="path2" d="M 49.089,38.745 C 47.755,30.37 40.618,24.203 32,24.203 c -8.618,0 -15.755,6.167 -17.089,14.542 -7.44,3.147 -11.993,10.294 -11.993,15.452 0,2.655 1.165,5.82 6.716,5.82 2.212,0 4.924,-0.441 8.063,-0.954 4.255,-0.693 9.078,-1.479 14.303,-1.479 5.225,0 10.048,0.786 14.304,1.479 3.14,0.513 5.852,0.954 8.063,0.954 0.001,0 0.001,0 0.002,0 2.054,0 3.532,-0.382 4.653,-1.203 1.367,-1 2.061,-2.554 2.061,-4.617 C 61.082,49.039 56.529,41.892 49.089,38.745 Z m 7.57,16.843 c -0.269,0.196 -0.884,0.431 -2.291,0.43 -0.001,0 -0.001,0 -0.002,0 -1.888,0 -4.451,-0.418 -7.419,-0.901 C 42.76,54.434 37.549,53.584 32,53.584 c -5.549,0 -10.759,0.85 -14.946,1.532 -2.969,0.483 -5.532,0.901 -7.42,0.901 -2.716,0 -2.716,-0.724 -2.716,-1.82 0,-3.994 4.31,-9.96 10.494,-12.133 0.741,-0.26 1.261,-0.931 1.329,-1.713 C 19.336,33.539 25.16,28.203 32,28.203 c 6.84,0 12.664,5.336 13.259,12.148 0.068,0.782 0.588,1.453 1.329,1.713 6.185,2.173 10.494,8.139 10.494,12.133 0,1.08 -0.318,1.314 -0.423,1.391 z" fill="#ffffff"></path><path inkscape:connector-curvature="0" id="path4" d="m 22.34,23.528 c 4.192,0 7.477,-4.293 7.477,-9.773 0,-5.479 -3.284,-9.772 -7.477,-9.772 -4.193,0 -7.479,4.293 -7.479,9.772 0,5.48 3.285,9.773 7.479,9.773 z m 0,-15.546 c 1.645,0 3.477,2.371 3.477,5.772 0,3.402 -1.832,5.773 -3.477,5.773 -1.646,0 -3.479,-2.371 -3.479,-5.773 0,-3.4 1.833,-5.772 3.479,-5.772 z" fill="#ffffff"></path><path inkscape:connector-curvature="0" id="path6" d="m 41.661,23.528 c 4.193,0 7.478,-4.293 7.478,-9.773 0,-5.479 -3.284,-9.772 -7.478,-9.772 -4.194,0 -7.478,4.293 -7.478,9.772 10e-4,5.48 3.285,9.773 7.478,9.773 z m 0,-15.546 c 1.645,0 3.478,2.371 3.478,5.772 0,3.402 -1.833,5.773 -3.478,5.773 -1.645,0 -3.478,-2.371 -3.478,-5.773 10e-4,-3.4 1.834,-5.772 3.478,-5.772 z" fill="#ffffff"></path><path inkscape:connector-curvature="0" id="path8" d="m 7.709,37.917 c 4.193,0 7.478,-4.293 7.478,-9.773 0,-5.48 -3.284,-9.773 -7.478,-9.773 -4.194,0 -7.478,4.293 -7.478,9.773 0,5.48 3.285,9.773 7.478,9.773 z m 0,-15.547 c 1.645,0 3.478,2.371 3.478,5.773 0,3.402 -1.833,5.773 -3.478,5.773 -1.645,0 -3.478,-2.371 -3.478,-5.773 0,-3.402 1.833,-5.773 3.478,-5.773 z" fill="#ffffff"></path><path inkscape:connector-curvature="0" id="path10" d="m 56.292,37.917 c 4.192,0 7.477,-4.293 7.477,-9.773 0,-5.48 -3.284,-9.773 -7.477,-9.773 -4.193,0 -7.479,4.293 -7.479,9.773 0,5.48 3.286,9.773 7.479,9.773 z m 0,-15.547 c 1.645,0 3.477,2.371 3.477,5.773 0,3.402 -1.832,5.773 -3.477,5.773 -1.646,0 -3.479,-2.371 -3.479,-5.773 0,-3.402 1.833,-5.773 3.479,-5.773 z" fill="#ffffff"></path></g></g></svg></svg>