<?xml version="1.0" encoding="UTF-8" standalone="no"?>
<svg
   xmlns:sketch="http://www.bohemiancoding.com/sketch/ns"
   xmlns:dc="http://purl.org/dc/elements/1.1/"
   xmlns:cc="http://creativecommons.org/ns#"
   xmlns:rdf="http://www.w3.org/1999/02/22-rdf-syntax-ns#"
   xmlns:svg="http://www.w3.org/2000/svg"
   xmlns="http://www.w3.org/2000/svg"
   xmlns:sodipodi="http://sodipodi.sourceforge.net/DTD/sodipodi-0.dtd"
   xmlns:inkscape="http://www.inkscape.org/namespaces/inkscape"
   inkscape:version="1.0rc1 (09960d6f05, 2020-04-09)"
   sodipodi:docname="noun_Party_275043.svg"
   id="svg36"
   y="0px"
   x="0px"
   version="1.1"
   viewBox="0 0 56 68.75">
  <metadata
     id="metadata42">
    <rdf:RDF>
      <cc:Work
         rdf:about="">
        <dc:format>image/svg+xml</dc:format>
        <dc:type
           rdf:resource="http://purl.org/dc/dcmitype/StillImage" />
      </cc:Work>
    </rdf:RDF>
  </metadata>
  <defs
     id="defs40" />
  <sodipodi:namedview
     inkscape:current-layer="svg36"
     inkscape:window-maximized="1"
     inkscape:window-y="-8"
     inkscape:window-x="-8"
     inkscape:cy="34.375"
     inkscape:cx="28"
     inkscape:zoom="3.6072727"
     showgrid="false"
     id="namedview38"
     inkscape:window-height="988"
     inkscape:window-width="1680"
     inkscape:pageshadow="2"
     inkscape:pageopacity="0"
     guidetolerance="10"
     gridtolerance="10"
     objecttolerance="10"
     borderopacity="1"
     bordercolor="#666666"
     pagecolor="#ffffff" />
  <title
     id="title2">3 - Party! (Solid)</title>
  <desc
     id="desc4">Created with Sketch.</desc>
  <g
     transform="translate(0,6)"
     id="g30"
     sketch:type="MSPage"
     fill-rule="evenodd"
     fill="none"
     stroke-width="1"
     stroke="none">
    <g
       id="g28"
       fill="#000000"
       sketch:type="MSLayerGroup">
      <path
         inkscape:connector-curvature="0"
         id="path6"
         sketch:type="MSShapeGroup"
         d="m 45.998,15.979 c -0.377,0.055 -0.689,0.319 -0.808,0.681 -0.117,0.361 -0.019,0.759 0.253,1.025 l 1.339,1.304 -0.316,1.842 c -0.065,0.375 0.09,0.754 0.397,0.978 0.174,0.127 0.381,0.191 0.588,0.191 0.159,0 0.32,-0.038 0.465,-0.115 l 1.655,-0.869 1.654,0.869 c 0.337,0.178 0.747,0.148 1.053,-0.076 0.308,-0.224 0.462,-0.603 0.398,-0.978 l -0.317,-1.842 1.339,-1.304 c 0.273,-0.266 0.37,-0.664 0.253,-1.025 -0.118,-0.362 -0.43,-0.626 -0.807,-0.681 l -1.849,-0.268 -0.827,-1.676 c -0.336,-0.683 -1.457,-0.683 -1.793,0 l -0.827,1.676 -1.85,0.268" />
      <path
         inkscape:connector-curvature="0"
         id="path8"
         sketch:type="MSShapeGroup"
         d="m 43.786,9.64 c -0.829,0 -1.5,0.672 -1.5,1.5 0,0.829 0.671,1.5 1.5,1.5 0.828,0 1.5,-0.671 1.5,-1.5 0,-0.828 -0.672,-1.5 -1.5,-1.5" />
      <path
         inkscape:connector-curvature="0"
         id="path10"
         sketch:type="MSShapeGroup"
         d="m 37.286,16.14 c 0,0.828 0.671,1.5 1.5,1.5 0.828,0 1.5,-0.672 1.5,-1.5 0,-0.828 -0.672,-1.5 -1.5,-1.5 -0.829,0 -1.5,0.672 -1.5,1.5" />
      <path
         inkscape:connector-curvature="0"
         id="path12"
         sketch:type="MSShapeGroup"
         d="m 39.285,10.14 c 0,-1.93 -1.57,-3.5 -3.5,-3.5 -1.929,0 -3.5,1.57 -3.5,3.5 0,1.929 1.571,3.5 3.5,3.5 1.93,0 3.5,-1.571 3.5,-3.5" />
      <path
         inkscape:connector-curvature="0"
         id="path14"
         sketch:type="MSShapeGroup"
         d="m 44.785,7.64 c 1.93,0 3.5,-1.571 3.5,-3.5 0,-1.93 -1.57,-3.5 -3.5,-3.5 -1.929,0 -3.5,1.57 -3.5,3.5 0,1.929 1.571,3.5 3.5,3.5" />
      <path
         inkscape:connector-curvature="0"
         id="path16"
         sketch:type="MSShapeGroup"
         d="m 24.577,46.995 -1.525,-1.079 0.024,-1.868 c 0.005,-0.38 -0.207,-0.731 -0.546,-0.903 -0.339,-0.173 -0.746,-0.138 -1.051,0.088 l -1.498,1.118 -1.77,-0.6 c -0.362,-0.121 -0.76,-0.029 -1.028,0.24 -0.27,0.27 -0.363,0.668 -0.241,1.029 l 0.6,1.769 -1.117,1.496 c -0.228,0.306 -0.262,0.713 -0.089,1.053 0.17,0.335 0.515,0.546 0.891,0.546 h 0.012 l 1.868,-0.024 1.08,1.526 c 0.189,0.267 0.495,0.423 0.816,0.423 0.052,0 0.104,-0.004 0.156,-0.013 0.376,-0.06 0.686,-0.327 0.799,-0.691 l 0.555,-1.784 1.784,-0.554 c 0.363,-0.114 0.631,-0.423 0.69,-0.799 0.06,-0.376 -0.098,-0.753 -0.41,-0.973" />
      <path
         inkscape:connector-curvature="0"
         id="path18"
         sketch:type="MSShapeGroup"
         d="m 2.6,48.904 c -0.662,0.66 -1.026,1.539 -1.026,2.475 0,0.934 0.364,1.813 1.026,2.474 0.661,0.662 1.54,1.026 2.475,1.026 0.935,0 1.814,-0.364 2.475,-1.026 1.364,-1.365 1.364,-3.584 0,-4.949 -1.322,-1.322 -3.629,-1.321 -4.95,0" />
      <path
         inkscape:connector-curvature="0"
         id="path20"
         sketch:type="MSShapeGroup"
         d="m 10.378,45.368 c -0.586,0.586 -0.586,1.536 0,2.121 0.586,0.586 1.535,0.586 2.121,0 0.586,-0.585 0.586,-1.535 0,-2.121 -0.586,-0.586 -1.535,-0.586 -2.121,0" />
      <path
         inkscape:connector-curvature="0"
         id="path22"
         sketch:type="MSShapeGroup"
         d="m 10.378,52.439 c -0.586,0.586 -0.586,1.536 0,2.122 0.586,0.585 1.535,0.585 2.121,0 0.586,-0.586 0.586,-1.536 0,-2.122 -0.586,-0.585 -1.535,-0.585 -2.121,0" />
      <path
         inkscape:connector-curvature="0"
         id="path24"
         sketch:type="MSShapeGroup"
         d="m 6.123,22.741 c -0.338,-1.772 0.035,-3.57 1.05,-5.061 1.014,-1.493 2.549,-2.499 4.322,-2.837 1.254,-0.239 2.545,0.028 3.6,0.746 1.061,0.722 1.777,1.813 2.017,3.073 0.162,0.852 -0.016,1.715 -0.504,2.432 -0.486,0.716 -1.223,1.199 -2.074,1.361 l -0.982,0.188 1.122,5.894 0.982,-0.187 c 2.425,-0.462 4.526,-1.841 5.914,-3.883 1.389,-2.042 1.899,-4.501 1.437,-6.926 C 22.468,14.705 20.856,12.25 18.469,10.627 16.1,9.016 13.188,8.409 10.372,8.948 7.025,9.586 4.127,11.489 2.211,14.306 0.296,17.122 -0.408,20.517 0.229,23.864 1.633,31.236 8.388,36 17.437,36 H 32 V 30 H 17.437 C 12.636,30 7.143,28.093 6.123,22.741" />
      <path
         inkscape:connector-curvature="0"
         id="path26"
         sketch:type="MSShapeGroup"
         d="m 55,32.245 h -6.498 c -0.827,0 -1.5,-0.673 -1.5,-1.5 0,-1.93 -1.57,-3.5 -3.5,-3.5 h -8.5 c -0.553,0 -1,0.447 -1,1 v 2 H 34 v 6 h 0.002 v 2 c 0,0.553 0.447,1 1,1 H 55 c 0.553,0 1,-0.447 1,-1 v -5 c 0,-0.553 -0.447,-1 -1,-1" />
    </g>
  </g>
</svg>
