<?xml version="1.0" encoding="UTF-8" standalone="no"?>
<svg
   xmlns:dc="http://purl.org/dc/elements/1.1/"
   xmlns:cc="http://creativecommons.org/ns#"
   xmlns:rdf="http://www.w3.org/1999/02/22-rdf-syntax-ns#"
   xmlns:svg="http://www.w3.org/2000/svg"
   xmlns="http://www.w3.org/2000/svg"
   xmlns:sodipodi="http://sodipodi.sourceforge.net/DTD/sodipodi-0.dtd"
   xmlns:inkscape="http://www.inkscape.org/namespaces/inkscape"
   inkscape:version="1.0rc1 (09960d6f05, 2020-04-09)"
   sodipodi:docname="noun_tree climbing_161572.svg"
   id="svg22"
   xml:space="preserve"
   enable-background="new 0 0 100 100"
   viewBox="0 0 100 125"
   y="0px"
   x="0px"
   version="1.1"><metadata
     id="metadata28"><rdf:RDF><cc:Work
         rdf:about=""><dc:format>image/svg+xml</dc:format><dc:type
           rdf:resource="http://purl.org/dc/dcmitype/StillImage" /></cc:Work></rdf:RDF></metadata><defs
     id="defs26" /><sodipodi:namedview
     inkscape:current-layer="svg22"
     inkscape:window-maximized="1"
     inkscape:window-y="-8"
     inkscape:window-x="-8"
     inkscape:cy="85.949573"
     inkscape:cx="44.416261"
     inkscape:zoom="3.968"
     showgrid="false"
     id="namedview24"
     inkscape:window-height="988"
     inkscape:window-width="1680"
     inkscape:pageshadow="2"
     inkscape:pageopacity="0"
     guidetolerance="10"
     gridtolerance="10"
     objecttolerance="10"
     borderopacity="1"
     bordercolor="#666666"
     pagecolor="#ffffff" /><g
     transform="matrix(1.0925427,0,0,1.0925427,-4.5072852,5.5119296)"
     id="g16"><path
       inkscape:connector-curvature="0"
       id="path2"
       d="m 30.765,16.833 c -1.353,0.854 -1.743,2.633 -0.9,3.971 l 12.803,16.544 v 11.898 0 H 55.457 V 38.97 37.348 L 68.26,20.804 c 0.841,-1.338 0.451,-3.117 -0.901,-3.971 -1.338,-0.842 -3.115,-0.454 -3.865,0.854 L 52.418,31.478 49.061,31.485 45.706,31.478 34.63,17.687 C 33.88,16.379 32.103,15.99 30.765,16.833 Z"
       fill="#000000" /><path
       inkscape:connector-curvature="0"
       id="path4"
       d="m 54.163,25.354 c 0,-2.813 -2.286,-5.1 -5.098,-5.1 -2.818,0 -5.105,2.286 -5.105,5.1 0,2.812 2.286,5.084 5.105,5.084 2.812,0 5.098,-2.273 5.098,-5.084 z"
       fill="#000000" /><path
       inkscape:connector-curvature="0"
       id="path6"
       d="m 31.73,78.541 c -0.769,1.735 0.073,3.942 1.864,4.951 1.791,1.012 3.852,0.425 4.599,-1.306 l 7.373,-18.624 -6.058,-4.333 z"
       fill="#000000" /><path
       inkscape:connector-curvature="0"
       id="path8"
       d="m 46.496,61.216 0.726,-1.833 c 0.424,0.093 0.867,0.143 1.315,0.143 0.175,0 0.351,-0.005 0.524,-0.015 0.175,0.01 0.35,0.015 0.525,0.015 0.448,0 0.891,-0.05 1.315,-0.143 l 0.726,1.833 6.046,-4.325 -2.217,-5.505 H 42.667 v 0 0 l -2.217,5.505 z"
       fill="#000000" /><path
       inkscape:connector-curvature="0"
       id="path10"
       d="m 52.557,63.562 7.373,18.624 c 0.748,1.73 2.809,2.317 4.6,1.306 1.791,-1.009 2.633,-3.216 1.863,-4.951 L 58.616,59.229 Z"
       fill="#000000" /><path
       inkscape:connector-curvature="0"
       id="path12"
       d="m 87.013,5.274 v 7.552 H 5 v 2.148 h 4.691 c 0.075,4.019 0.901,7.919 2.458,11.601 1.579,3.734 3.84,7.088 6.72,9.967 2.879,2.879 6.232,5.14 9.967,6.72 3.867,1.635 7.974,2.464 12.207,2.464 v -2.45 C 25.305,43.276 12.465,30.635 12.142,14.973 H 87.014 V 85.716 H 5 v 2.147 H 87.013 V 95 H 95 V 87.865 85.718 14.975 12.827 5.274 Z"
       fill="#000000" /><path
       inkscape:connector-curvature="0"
       id="path14"
       d="m 84.815,58.508 c 0.558,-3.466 -0.092,-7.143 -2.106,-10.349 -2.014,-3.207 -5.043,-5.389 -8.407,-6.392 -0.558,3.466 0.092,7.142 2.106,10.35 2.014,3.205 5.042,5.388 8.407,6.391 z"
       fill="#000000" /></g></svg>
