<?xml version="1.0" encoding="UTF-8" standalone="no"?>
<svg
   xmlns:dc="http://purl.org/dc/elements/1.1/"
   xmlns:cc="http://creativecommons.org/ns#"
   xmlns:rdf="http://www.w3.org/1999/02/22-rdf-syntax-ns#"
   xmlns:svg="http://www.w3.org/2000/svg"
   xmlns="http://www.w3.org/2000/svg"
   xmlns:sodipodi="http://sodipodi.sourceforge.net/DTD/sodipodi-0.dtd"
   xmlns:inkscape="http://www.inkscape.org/namespaces/inkscape"
   inkscape:version="1.0rc1 (09960d6f05, 2020-04-09)"
   sodipodi:docname="noun_picnic area_1087801.svg"
   id="svg28"
   xml:space="preserve"
   enable-background="new 0 0 144.083 144"
   viewBox="0 0 144.083 180"
   y="0px"
   x="0px"
   version="1.1"><metadata
     id="metadata34"><rdf:RDF><cc:Work
         rdf:about=""><dc:format>image/svg+xml</dc:format><dc:type
           rdf:resource="http://purl.org/dc/dcmitype/StillImage" /></cc:Work></rdf:RDF></metadata><defs
     id="defs32" /><sodipodi:namedview
     inkscape:current-layer="svg28"
     inkscape:window-maximized="1"
     inkscape:window-y="-8"
     inkscape:window-x="-8"
     inkscape:cy="90"
     inkscape:cx="72.041496"
     inkscape:zoom="1.3777778"
     showgrid="false"
     id="namedview30"
     inkscape:window-height="988"
     inkscape:window-width="1680"
     inkscape:pageshadow="2"
     inkscape:pageopacity="0"
     guidetolerance="10"
     gridtolerance="10"
     objecttolerance="10"
     borderopacity="1"
     bordercolor="#666666"
     pagecolor="#ffffff" /><path
     style="stroke-width:1.20565"
     inkscape:connector-curvature="0"
     id="path2"
     d="m 48.16785,110.6291 h 9.953839 v -7.23389 H 11.025422 v 7.23389 h 10.62659 l -2.996037,11.41629 H 2.5726175 v 7.23389 H 16.757078 l -3.706165,14.11695 6.997587,1.8362 4.188425,-15.95315 h 21.34722 l 4.188425,15.95315 6.997586,-1.8362 -3.704959,-14.11695 h 13.509297 v -7.23389 H 51.166299 Z M 26.135821,122.04539 29.133065,110.6291 H 40.68921 l 2.996038,11.41629 z" /><path
     style="stroke-width:1.20565"
     inkscape:connector-curvature="0"
     id="path4"
     d="m 119.48199,120.30444 h 22.86272 L 129.82284,96.211952 h 6.14157 L 121.74378,71.124809 h 4.91182 L 109.90311,42.014413 93.15182,71.124809 h 4.91181 L 83.843004,96.211952 H 89.98458 L 77.461504,120.30444 h 22.862716 l -1.59869,19.56768 h -8.698753 v 7.23389 h 12.032383 15.68549 12.03479 v -7.23389 h -8.70118 z m -13.49724,19.56889 1.59627,-19.56769 h 4.64417 l 1.59627,19.56769 z" /><circle
     style="stroke-width:1.20565"
     id="circle6"
     r="14.693245"
     cy="61.626705"
     cx="34.572952" /><path
     style="stroke-width:1.20565"
     inkscape:connector-curvature="0"
     id="path8"
     d="m 61.491478,50.356299 c -1.48536,-3.542197 -3.626592,-6.714259 -6.361005,-9.431792 l -5.098689,5.133653 c 2.060454,2.044781 3.671201,4.433171 4.788838,7.09645 z" /><path
     style="stroke-width:1.20565"
     inkscape:connector-curvature="0"
     id="path10"
     d="m 42.984765,81.902105 2.775405,6.680501 c 3.545814,-1.473304 6.726315,-3.60248 9.453493,-6.33207 l -5.116774,-5.111951 c -2.05322,2.053221 -4.446434,3.656734 -7.112124,4.76352 z" /><path
     style="stroke-width:1.20565"
     inkscape:connector-curvature="0"
     id="path12"
     d="m 63.748453,61.688193 0.0012,-0.166379 -7.233894,0.106102 c 0,2.908024 -0.559421,5.73286 -1.661385,8.392522 l 6.682913,2.769375 c 1.468481,-3.542196 2.212366,-7.297792 2.211161,-11.101615 z" /><path
     style="stroke-width:1.20565"
     inkscape:connector-curvature="0"
     id="path14"
     d="M 14.273441,53.276381 7.5845006,50.521473 C 6.1316936,54.04679 5.3962479,57.784302 5.3962479,61.629117 v 0.05304 l 7.2338941,-0.05304 c 0,-2.894764 0.552186,-5.705132 1.643299,-8.352736 z" /><path
     style="stroke-width:1.20565"
     inkscape:connector-curvature="0"
     id="path16"
     d="m 26.116531,41.373008 -2.788666,-6.675679 c -3.542197,1.480537 -6.719083,3.616948 -9.440231,6.352565 l 5.12883,5.102307 c 2.048397,-2.060454 4.436788,-3.66879 7.100067,-4.779193 z" /><path
     style="stroke-width:1.20565"
     inkscape:connector-curvature="0"
     id="path18"
     d="m 7.6291097,72.846475 c 1.4793308,3.544607 3.6121233,6.722699 6.3429193,9.445054 l 5.107129,-5.121597 c -2.055632,-2.049604 -3.661556,-4.441611 -4.773165,-7.107301 z" /><path
     style="stroke-width:1.20565"
     inkscape:connector-curvature="0"
     id="path20"
     d="m 42.902782,41.321165 2.74888,-6.692557 C 42.131167,33.18424 38.404505,32.45 34.572953,32.45 h -0.08078 l 0.07957,7.233894 c 2.885118,0 5.687046,0.550981 8.331034,1.637271 z" /><path
     style="stroke-width:1.20565"
     inkscape:connector-curvature="0"
     id="path22"
     d="m 26.198515,81.918984 -2.762142,6.685323 c 3.536169,1.461246 7.28212,2.201515 11.135374,2.201515 h 0.02531 l -0.02531,-7.233894 c -2.900791,0.0012 -5.717187,-0.554598 -8.373232,-1.652944 z" /></svg>
