<?xml version="1.0" encoding="UTF-8" standalone="no"?>
<svg
   xmlns:dc="http://purl.org/dc/elements/1.1/"
   xmlns:cc="http://creativecommons.org/ns#"
   xmlns:rdf="http://www.w3.org/1999/02/22-rdf-syntax-ns#"
   xmlns:svg="http://www.w3.org/2000/svg"
   xmlns="http://www.w3.org/2000/svg"
   xmlns:sodipodi="http://sodipodi.sourceforge.net/DTD/sodipodi-0.dtd"
   xmlns:inkscape="http://www.inkscape.org/namespaces/inkscape"
   inkscape:version="1.0rc1 (09960d6f05, 2020-04-09)"
   sodipodi:docname="noun_alcohol_917643.svg"
   id="svg8"
   xml:space="preserve"
   enable-background="new 0 0 164 164"
   viewBox="0 0 164 205"
   y="0px"
   x="0px"
   version="1.1"><metadata
     id="metadata14"><rdf:RDF><cc:Work
         rdf:about=""><dc:format>image/svg+xml</dc:format><dc:type
           rdf:resource="http://purl.org/dc/dcmitype/StillImage" /></cc:Work></rdf:RDF></metadata><defs
     id="defs12" /><sodipodi:namedview
     inkscape:current-layer="svg8"
     inkscape:window-maximized="1"
     inkscape:window-y="-8"
     inkscape:window-x="-8"
     inkscape:cy="102.5"
     inkscape:cx="82"
     inkscape:zoom="1.2097561"
     showgrid="false"
     id="namedview10"
     inkscape:window-height="988"
     inkscape:window-width="1680"
     inkscape:pageshadow="2"
     inkscape:pageopacity="0"
     guidetolerance="10"
     gridtolerance="10"
     objecttolerance="10"
     borderopacity="1"
     bordercolor="#666666"
     pagecolor="#ffffff" /><path
     style="stroke-width:1.24241"
     inkscape:connector-curvature="0"
     id="path2"
     d="m 21.832141,203.67742 h 51.71898 c 4.772091,0 8.710526,-3.9198 8.710526,-8.71301 V 96.302267 c 0,-24.128815 -21.401729,-36.246025 -21.401729,-50.29021 V 0.32 H 34.523344 v 44.870824 c 0,15.579803 -21.402972,26.937901 -21.402972,51.111443 v 98.662143 c 0,4.77333 3.939678,8.71301 8.711769,8.71301 z m 78.517729,0 h 42.55125 c 3.92477,0 7.16621,-3.22529 7.16621,-7.16745 v -81.17152 c 0,-19.852445 -17.60741,-29.820288 -17.60741,-41.373445 V 36.372209 h -21.6676 v 36.915683 c 0,12.817928 -17.60866,22.162083 -17.60866,42.050558 v 81.17152 c -0.0012,3.926 3.240201,7.16745 7.16621,7.16745 z m 45.3976,-39.79062 H 97.502272 v -29.53701 h 48.245198 z m -68.734999,-8.5751 h -58.64168 v -35.90312 h 58.64168 z"
     clip-rule="evenodd"
     fill-rule="evenodd" /></svg>
