<?xml version="1.0" encoding="UTF-8" standalone="no"?>
<svg
   xmlns:dc="http://purl.org/dc/elements/1.1/"
   xmlns:cc="http://creativecommons.org/ns#"
   xmlns:rdf="http://www.w3.org/1999/02/22-rdf-syntax-ns#"
   xmlns:svg="http://www.w3.org/2000/svg"
   xmlns="http://www.w3.org/2000/svg"
   xmlns:sodipodi="http://sodipodi.sourceforge.net/DTD/sodipodi-0.dtd"
   xmlns:inkscape="http://www.inkscape.org/namespaces/inkscape"
   inkscape:version="1.0rc1 (09960d6f05, 2020-04-09)"
   sodipodi:docname="noun_hearing aid_44794.svg"
   id="svg14"
   xml:space="preserve"
   enable-background="new 0 0 100 100"
   viewBox="0 0 100 125"
   y="0px"
   x="0px"
   version="1.1"><metadata
     id="metadata20"><rdf:RDF><cc:Work
         rdf:about=""><dc:format>image/svg+xml</dc:format><dc:type
           rdf:resource="http://purl.org/dc/dcmitype/StillImage" /></cc:Work></rdf:RDF></metadata><defs
     id="defs18" /><sodipodi:namedview
     inkscape:current-layer="svg14"
     inkscape:window-maximized="1"
     inkscape:window-y="-8"
     inkscape:window-x="-8"
     inkscape:cy="62.5"
     inkscape:cx="50"
     inkscape:zoom="1.984"
     showgrid="false"
     id="namedview16"
     inkscape:window-height="988"
     inkscape:window-width="1680"
     inkscape:pageshadow="2"
     inkscape:pageopacity="0"
     guidetolerance="10"
     gridtolerance="10"
     objecttolerance="10"
     borderopacity="1"
     bordercolor="#666666"
     pagecolor="#ffffff" /><g
     transform="matrix(1.3329872,0,0,1.3329872,-19.814303,-3.7076729)"
     id="g8"><circle
       id="circle2"
       r="7.2540002"
       cy="69.823997"
       cx="39.381001" /><path
       inkscape:connector-curvature="0"
       id="path4"
       d="M 68.999,5.515 C 66.645,4.797 62.986,2.599 60.988,4.053 59.598,5.065 58.658,7.459 58.208,8.836 54.695,7.533 50.913,6.785 46.948,6.785 29.05,6.785 18.594,21.294 18.594,39.19 c 0,6.478 0,26.785 0,32.407 0,13.424 6.832,24.303 20.252,24.303 13.421,0 20.507,-8.709 21.566,-22.432 0.154,-2 1.689,-4.445 4.361,-6.265 6.372,-6.147 13.165,-14.197 14.371,-24.722 2.719,-0.104 6.407,-0.534 6.696,-2.303 C 89.683,16.682 71.111,6.16 68.999,5.515 Z M 56.915,62.904 c -1.735,1.934 -4.184,4.886 -5.019,10.73 -1.383,9.679 -4.102,14.167 -13.05,14.167 -8.945,0 -12.15,-7.255 -12.15,-16.204 0,-6.116 0,-25.081 0,-32.407 0,-13.422 6.829,-24.303 20.252,-24.303 13.422,0 24.302,10.881 24.302,24.303 0,11.527 -13.135,22.448 -14.335,23.714 z" /><path
       inkscape:connector-curvature="0"
       id="path6"
       d="m 38.109,24.942 c -1.518,0.699 -2.179,2.491 -1.486,4.014 0.69,1.521 2.487,2.199 4.017,1.511 0.384,-0.171 9.496,-4.128 15.985,3.743 2.49,3.023 1.015,9.362 -0.438,10.763 -0.29,0.281 -0.669,0.596 -1.115,0.973 -1.473,1.24 -3.695,3.113 -6.227,6.196 -1.065,1.296 -0.877,3.211 0.419,4.277 0.566,0.463 1.248,0.689 1.927,0.689 0.878,0 1.748,-0.378 2.35,-1.109 2.178,-2.653 4.066,-4.245 5.448,-5.407 0.567,-0.479 1.044,-0.885 1.416,-1.244 3.647,-3.516 5.505,-13.428 0.908,-19.003 -7.605,-9.228 -18.502,-7.57 -23.204,-5.403 z" /></g></svg>
