<?xml version="1.0" encoding="UTF-8" standalone="no"?>
<svg
   xmlns:dc="http://purl.org/dc/elements/1.1/"
   xmlns:cc="http://creativecommons.org/ns#"
   xmlns:rdf="http://www.w3.org/1999/02/22-rdf-syntax-ns#"
   xmlns:svg="http://www.w3.org/2000/svg"
   xmlns="http://www.w3.org/2000/svg"
   xmlns:sodipodi="http://sodipodi.sourceforge.net/DTD/sodipodi-0.dtd"
   xmlns:inkscape="http://www.inkscape.org/namespaces/inkscape"
   inkscape:version="1.0rc1 (09960d6f05, 2020-04-09)"
   sodipodi:docname="noun_Camera_778937.svg"
   id="svg12"
   version="1.1"
   y="0px"
   x="0px"
   viewBox="0 0 512 640"
   data-name="Layer 1">
  <metadata
     id="metadata18">
    <rdf:RDF>
      <cc:Work
         rdf:about="">
        <dc:format>image/svg+xml</dc:format>
        <dc:type
           rdf:resource="http://purl.org/dc/dcmitype/StillImage" />
      </cc:Work>
    </rdf:RDF>
  </metadata>
  <defs
     id="defs16" />
  <sodipodi:namedview
     inkscape:current-layer="svg12"
     inkscape:window-maximized="1"
     inkscape:window-y="-8"
     inkscape:window-x="-8"
     inkscape:cy="320"
     inkscape:cx="256"
     inkscape:zoom="0.3875"
     showgrid="false"
     id="namedview14"
     inkscape:window-height="988"
     inkscape:window-width="1680"
     inkscape:pageshadow="2"
     inkscape:pageopacity="0"
     guidetolerance="10"
     gridtolerance="10"
     objecttolerance="10"
     borderopacity="1"
     bordercolor="#666666"
     pagecolor="#ffffff" />
  <title
     id="title2">p6</title>
  <path
     inkscape:connector-curvature="0"
     id="path4"
     d="M 255.46,525.05 H 52.14 C 32,525.05 16,516.87 6.44,499.18 A 55.61,55.61 0 0 1 0.32,474 C -0.14,397.15 0,320.29 0.06,243.43 c 0,-29.76 20.65,-50.89 50.69,-51.57 17.62,-0.4 35.26,-0.09 52.89,-0.1 19.91,0 25.09,-3.74 31.27,-22.35 4.17,-12.54 8.31,-25.09 12.59,-37.59 4,-11.58 11.32,-16.92 23.5,-16.93 q 84.71,-0.08 169.43,0 c 12.25,0 19.68,5.32 23.59,16.81 4.62,13.55 9,27.17 13.57,40.75 4.75,14.28 11.6,19.25 26.89,19.3 17.63,0.06 35.28,0.5 52.89,-0.08 32.71,-1.09 55.08,25.17 54.61,54.11 -1.22,75.74 -1,151.52 -0.07,227.27 0.33,25.86 -20.94,52.28 -52.33,52.12 -68.03,-0.36 -136.08,-0.12 -204.12,-0.12 z m 0.65,-307.69 a 128.24537,128.24537 0 0 0 -0.62,256.49 c 70.93,0.09 128.5,-57.18 128.59,-127.92 C 384.16,275 326.85,217.44 256.1,217.36 Z" />
  <path
     inkscape:connector-curvature="0"
     id="path6"
     d="m 255.84,422.46 a 76.86,76.86 0 1 1 76.85,-76.69 76.63,76.63 0 0 1 -76.85,76.69 z m 21.9,-80.64 a 18.24,18.24 0 0 0 18.46,-18.15 18.62,18.62 0 0 0 -18.33,-18.44 18.22,18.22 0 0 0 -18.29,18.3 17.82,17.82 0 0 0 18.16,18.29 z" />
</svg>
