<?xml version="1.0" encoding="UTF-8" standalone="no"?>
<svg
   xmlns:dc="http://purl.org/dc/elements/1.1/"
   xmlns:cc="http://creativecommons.org/ns#"
   xmlns:rdf="http://www.w3.org/1999/02/22-rdf-syntax-ns#"
   xmlns:svg="http://www.w3.org/2000/svg"
   xmlns="http://www.w3.org/2000/svg"
   xmlns:sodipodi="http://sodipodi.sourceforge.net/DTD/sodipodi-0.dtd"
   xmlns:inkscape="http://www.inkscape.org/namespaces/inkscape"
   inkscape:version="1.0rc1 (09960d6f05, 2020-04-09)"
   sodipodi:docname="noun_Architect_43457.svg"
   id="svg14"
   xml:space="preserve"
   enable-background="new 0 0 90 90"
   viewBox="0 0 90 112.5"
   y="0px"
   x="0px"
   version="1.1"><metadata
     id="metadata20"><rdf:RDF><cc:Work
         rdf:about=""><dc:format>image/svg+xml</dc:format><dc:type
           rdf:resource="http://purl.org/dc/dcmitype/StillImage" /></cc:Work></rdf:RDF></metadata><defs
     id="defs18" /><sodipodi:namedview
     inkscape:current-layer="svg14"
     inkscape:window-maximized="1"
     inkscape:window-y="-8"
     inkscape:window-x="-8"
     inkscape:cy="56.25"
     inkscape:cx="45"
     inkscape:zoom="2.2044444"
     showgrid="false"
     id="namedview16"
     inkscape:window-height="988"
     inkscape:window-width="1680"
     inkscape:pageshadow="2"
     inkscape:pageopacity="0"
     guidetolerance="10"
     gridtolerance="10"
     objecttolerance="10"
     borderopacity="1"
     bordercolor="#666666"
     pagecolor="#ffffff" /><path
     style="stroke-width:1.01047"
     inkscape:connector-curvature="0"
     id="path2"
     d="m 52.00044,76.276145 c -4.908853,4.021662 -11.175775,6.449817 -17.999465,6.449817 -0.737642,0 -1.466189,-0.03739 -2.189684,-0.09296 L 28.748562,68.886593 h 24.051159 c 0.438543,-0.962976 1.03775,-1.85522 1.809748,-2.627217 0.740673,-0.739663 1.596539,-1.322703 2.518086,-1.752151 H 41.194496 V 47.217107 l 2.156339,1.348975 c 0.360737,0.226345 0.761893,0.333454 1.159006,0.333454 0.729558,0 1.442949,-0.363768 1.857241,-1.028656 0.642657,-1.024614 0.331433,-2.3746 -0.695202,-3.016247 L 29.221461,34.555944 c -0.710359,-0.444606 -1.612707,-0.444606 -2.323066,0 L 10.445956,44.854633 c -1.0256249,0.642658 -1.336849,1.992643 -0.6952019,3.016247 0.6406369,1.026635 1.9946639,1.336849 3.0162469,0.695202 L 14.92435,47.217107 V 64.507225 H 7.4398139 C 6.2040116,61.32324 5.5199248,57.864408 5.5199248,54.246933 c 0,-15.701662 12.7753462,-28.477008 28.4790292,-28.477008 8.462669,0 16.070482,3.71549 21.292581,9.596414 0.79928,-1.012489 1.693544,-1.949193 2.67774,-2.787881 C 52.048943,26.034667 43.495332,21.916 33.997943,21.916 16.170257,21.916 1.666,36.420257 1.666,54.246933 c 0,17.827686 14.504257,32.331943 32.331943,32.331943 6.657974,0 12.852142,-2.024978 18.001487,-5.489872 V 76.276145 Z M 30.906922,51.644978 h 5.899112 v 5.536354 H 30.906922 Z M 17.195882,77.220932 C 14.139216,74.979714 11.542314,72.145352 9.5809955,68.886593 H 19.051101 Z M 27.688581,64.507225 H 20.110072 V 51.644978 h 7.578509 z" /><path
     style="stroke-width:1.01047"
     inkscape:connector-curvature="0"
     id="path4"
     d="m 80.11368,67.503262 h -0.315266 -18.57038 -0.316277 c -2.794954,0 -5.060423,2.265469 -5.058402,5.060424 v 15.196427 c 0,2.794955 2.264459,5.058403 5.059413,5.058403 h 4.658257 9.882377 4.656236 c 2.797986,0 5.061434,-2.263448 5.061434,-5.058403 V 72.563686 c 0.003,-2.794955 -2.263448,-5.060424 -5.057392,-5.060424 z" /><path
     style="stroke-width:1.01047"
     inkscape:connector-curvature="0"
     id="path6"
     d="m 55.206655,51.442884 c 0.834647,7.713913 7.367322,13.724176 15.304548,13.724176 7.938236,0 14.471922,-6.009253 15.304548,-13.724176 z" /><path
     style="stroke-width:1.01047"
     inkscape:connector-curvature="0"
     id="path8"
     d="M 87.257689,45.250737 H 86.276524 C 85.417626,39.420336 81.398995,34.619603 76.002086,32.682536 v 5.35548 c 0,0.719453 -0.584051,1.303504 -1.302493,1.303504 -0.720464,0 -1.304514,-0.584051 -1.304514,-1.303504 v -6.041588 c -0.515339,-0.08892 -1.041793,-0.153591 -1.578351,-0.191989 v 6.233577 c 0,0.719453 -0.580009,1.303504 -1.301483,1.303504 -0.720464,0 -1.303504,-0.584051 -1.303504,-1.303504 V 31.82768 c -0.534537,0.04951 -1.062002,0.124288 -1.578351,0.224324 v 5.986012 c 0,0.719453 -0.58405,1.303504 -1.302493,1.303504 -0.724505,0 -1.304514,-0.584051 -1.304514,-1.303504 v -5.233213 c -5.240287,2.009821 -9.115432,6.731737 -9.957151,12.445934 h -1.296431 c -1.095347,0 -1.985569,0.88719 -1.985569,1.984559 0,1.095347 0.890222,1.984559 1.985569,1.984559 H 87.26072 c 1.093326,0 1.982538,-0.888202 1.982538,-1.984559 -0.003,-1.097369 -0.892243,-1.984559 -1.985569,-1.984559 z" /></svg>
