<?xml version="1.0" encoding="UTF-8" standalone="no"?>
<svg
   xmlns:dc="http://purl.org/dc/elements/1.1/"
   xmlns:cc="http://creativecommons.org/ns#"
   xmlns:rdf="http://www.w3.org/1999/02/22-rdf-syntax-ns#"
   xmlns:svg="http://www.w3.org/2000/svg"
   xmlns="http://www.w3.org/2000/svg"
   xmlns:sodipodi="http://sodipodi.sourceforge.net/DTD/sodipodi-0.dtd"
   xmlns:inkscape="http://www.inkscape.org/namespaces/inkscape"
   inkscape:version="1.0rc1 (09960d6f05, 2020-04-09)"
   sodipodi:docname="noun_pocket knife_411987.svg"
   id="svg14"
   xml:space="preserve"
   style="enable-background:new 0 0 30 30;"
   viewBox="0 0 30 37.5"
   y="0px"
   x="0px"
   version="1.1"><metadata
     id="metadata20"><rdf:RDF><cc:Work
         rdf:about=""><dc:format>image/svg+xml</dc:format><dc:type
           rdf:resource="http://purl.org/dc/dcmitype/StillImage" /></cc:Work></rdf:RDF></metadata><defs
     id="defs18" /><sodipodi:namedview
     inkscape:current-layer="svg14"
     inkscape:window-maximized="1"
     inkscape:window-y="-8"
     inkscape:window-x="-8"
     inkscape:cy="18.75"
     inkscape:cx="15"
     inkscape:zoom="6.6133333"
     showgrid="false"
     id="namedview16"
     inkscape:window-height="988"
     inkscape:window-width="1680"
     inkscape:pageshadow="2"
     inkscape:pageopacity="0"
     guidetolerance="10"
     gridtolerance="10"
     objecttolerance="10"
     borderopacity="1"
     bordercolor="#666666"
     pagecolor="#ffffff" /><g
     transform="matrix(1.1302726,0,0,1.1302726,-1.9843255,2)"
     id="g8"><path
       inkscape:connector-curvature="0"
       id="path2"
       d="M 15.319,2.431 6.42,7.424 C 4.584,8.382 3.404,9.93 3.019,11.863 l -1,3.5 c -0.055,0.193 0.011,0.4 0.166,0.526 C 2.276,15.962 2.388,16 2.5,16 2.581,16 2.661,15.98 2.735,15.941 l 13,-6.934 C 15.898,8.92 16,8.75 16,8.566 V 3.5 C 16,3.353 16.021,3.212 16.041,3.071 L 16.06,2.93 C 16.084,2.742 16,2.558 15.844,2.452 15.686,2.346 15.484,2.337 15.319,2.431 Z m -0.595,4.516 -2,1 C 12.652,7.983 12.576,8 12.501,8 12.317,8 12.141,7.899 12.053,7.724 11.929,7.477 12.03,7.177 12.277,7.053 l 2,-1 c 0.247,-0.122 0.547,-0.023 0.671,0.224 0.123,0.246 0.023,0.547 -0.224,0.67 z" /><path
       inkscape:connector-curvature="0"
       id="path4"
       d="m 24.5,0 h -4 C 18.57,0 17,1.57 17,3.5 v 23 c 0,1.93 1.57,3.5 3.5,3.5 h 4 C 26.43,30 28,28.43 28,26.5 V 3.5 C 28,1.57 26.43,0 24.5,0 Z m -1,23 H 23 v 0.5 C 23,23.776 22.776,24 22.5,24 22.224,24 22,23.776 22,23.5 V 23 H 21.5 C 21.224,23 21,22.776 21,22.5 21,22.224 21.224,22 21.5,22 H 22 v -0.5 c 0,-0.276 0.224,-0.5 0.5,-0.5 0.276,0 0.5,0.224 0.5,0.5 V 22 h 0.5 c 0.276,0 0.5,0.224 0.5,0.5 0,0.276 -0.224,0.5 -0.5,0.5 z" /><path
       inkscape:connector-curvature="0"
       id="path6"
       d="m 15.732,20.192 c -0.164,-0.086 -0.364,-0.074 -0.516,0.031 -0.336,0.232 -0.529,0.593 -0.529,0.992 v 0.194 c 0,0.131 -0.118,0.212 -0.308,0.19 L 13.282,21.051 C 13.139,20.979 13.02,20.861 12.948,20.716 L 12.07,18.961 C 11.902,18.625 11.624,18.347 11.266,18.168 L 8.701,17.042 C 8.545,16.975 8.368,16.988 8.226,17.082 8.085,17.174 7.999,17.332 7.999,17.5 v 2.277 c 0,1.4 0.688,2.709 1.841,3.501 l 5.383,3.72 c 0.069,0.048 0.148,0.069 0.228,0.069 0.097,0 0.197,-0.03 0.288,-0.079 0.165,-0.088 0.263,-0.301 0.26,-0.489 V 20.634 C 16,20.45 15.897,20.279 15.732,20.192 Z" /></g></svg>
