<?xml version="1.0" encoding="UTF-8" standalone="no"?>
<svg
   xmlns:dc="http://purl.org/dc/elements/1.1/"
   xmlns:cc="http://creativecommons.org/ns#"
   xmlns:rdf="http://www.w3.org/1999/02/22-rdf-syntax-ns#"
   xmlns:svg="http://www.w3.org/2000/svg"
   xmlns="http://www.w3.org/2000/svg"
   xmlns:sodipodi="http://sodipodi.sourceforge.net/DTD/sodipodi-0.dtd"
   xmlns:inkscape="http://www.inkscape.org/namespaces/inkscape"
   inkscape:version="1.0rc1 (09960d6f05, 2020-04-09)"
   sodipodi:docname="noun_Bullfighter_9541.svg"
   id="svg16"
   xml:space="preserve"
   enable-background="new 0 0 83.216 100"
   viewBox="0 0 83.216 125"
   y="0px"
   x="0px"
   version="1.1"><metadata
     id="metadata22"><rdf:RDF><cc:Work
         rdf:about=""><dc:format>image/svg+xml</dc:format><dc:type
           rdf:resource="http://purl.org/dc/dcmitype/StillImage" /></cc:Work></rdf:RDF></metadata><defs
     id="defs20" /><sodipodi:namedview
     inkscape:current-layer="svg16"
     inkscape:window-maximized="1"
     inkscape:window-y="-8"
     inkscape:window-x="-8"
     inkscape:cy="62.5"
     inkscape:cx="41.608002"
     inkscape:zoom="1.984"
     showgrid="false"
     id="namedview18"
     inkscape:window-height="988"
     inkscape:window-width="1680"
     inkscape:pageshadow="2"
     inkscape:pageopacity="0"
     guidetolerance="10"
     gridtolerance="10"
     objecttolerance="10"
     borderopacity="1"
     bordercolor="#666666"
     pagecolor="#ffffff" /><g
     transform="translate(0,8)"
     id="g10"><path
       inkscape:connector-curvature="0"
       id="path2"
       d="m 41.003,10.062 c 0,0 -0.097,-2.568 -1.42,-4.872 C 38.039,2.5 33.56,0.247 28.426,0 h -0.907 c -5.136,0.247 -9.613,2.5 -11.157,5.19 -1.325,2.304 -1.418,4.872 -1.418,4.872 h 6.352 c -0.344,0.845 -0.54,1.764 -0.54,2.735 0,4.003 3.244,7.249 7.251,7.249 4.003,0 7.25,-3.246 7.25,-7.249 0,-0.969 -0.198,-1.89 -0.542,-2.735 z"
       fill="#010101" /><g
       id="g8"><path
         inkscape:connector-curvature="0"
         id="path4"
         d="M 60.358,46.945 44.922,26.595 c -1.18,-1.636 -3.358,-4.951 -8.205,-4.922 L 29.433,21.669 V 48.036 H 18.371 L 18.365,95.63 c 0,2.412 1.958,4.37 4.37,4.37 2.417,0 4.373,-1.958 4.373,-4.37 L 27.11,58.966 h 1.946 L 29.044,95.63 c 0,2.412 1.958,4.37 4.37,4.37 2.412,0 4.368,-1.958 4.368,-4.37 l 0.006,-22.771 c 0.865,0.12 1.783,0.305 2.692,0.616 8.033,2.723 5.586,19.526 16.026,23.71 11.568,4.635 16.083,-7.721 20.532,-9.056 3.268,-0.977 6.177,0.245 6.177,0.245 V 46.944 H 60.358 Z m -20.082,0 V 32.826 l 10.902,14.119 z"
         fill="#010101" /><path
         inkscape:connector-curvature="0"
         id="path6"
         d="M 14.899,45.855 H 27.253 V 21.669 l -8.008,-0.004 c -2.23,0 -4.116,0.746 -5.583,1.991 C 13.559,23.715 1.509,32.369 1.509,32.369 0.561,33.051 0,34.146 0,35.316 v 13.627 c 0,2.007 1.627,3.634 3.634,3.634 2.007,0 3.634,-1.625 3.634,-3.634 V 37.175 l 7.631,-5.501 z m 0.508,-14.544 0.021,0.008 h -0.033 z"
         fill="#010101" /></g></g></svg>
