<?xml version="1.0" encoding="UTF-8" standalone="no"?>
<svg
   xmlns:dc="http://purl.org/dc/elements/1.1/"
   xmlns:cc="http://creativecommons.org/ns#"
   xmlns:rdf="http://www.w3.org/1999/02/22-rdf-syntax-ns#"
   xmlns:svg="http://www.w3.org/2000/svg"
   xmlns="http://www.w3.org/2000/svg"
   xmlns:sodipodi="http://sodipodi.sourceforge.net/DTD/sodipodi-0.dtd"
   xmlns:inkscape="http://www.inkscape.org/namespaces/inkscape"
   inkscape:version="1.0rc1 (09960d6f05, 2020-04-09)"
   sodipodi:docname="noun_Lawyer_225645.svg"
   id="svg18"
   xml:space="preserve"
   enable-background="new 0.5 24.5 24 24"
   viewBox="0.5 24.5 24 30"
   y="0px"
   x="0px"
   version="1.1"><metadata
     id="metadata24"><rdf:RDF><cc:Work
         rdf:about=""><dc:format>image/svg+xml</dc:format><dc:type
           rdf:resource="http://purl.org/dc/dcmitype/StillImage" /></cc:Work></rdf:RDF></metadata><defs
     id="defs22" /><sodipodi:namedview
     inkscape:current-layer="svg18"
     inkscape:window-maximized="1"
     inkscape:window-y="-8"
     inkscape:window-x="-8"
     inkscape:cy="15"
     inkscape:cx="12"
     inkscape:zoom="8.2666667"
     showgrid="false"
     id="namedview20"
     inkscape:window-height="988"
     inkscape:window-width="1680"
     inkscape:pageshadow="2"
     inkscape:pageopacity="0"
     guidetolerance="10"
     gridtolerance="10"
     objecttolerance="10"
     borderopacity="1"
     bordercolor="#666666"
     pagecolor="#ffffff" /><g
     id="g12"><circle
       id="circle2"
       r="3"
       cy="31.5"
       cx="14.5" /><path
       id="path4"
       d="M23.5,40.5h-2v-2c0-1.657-1.342-3-3-3h-1l-2,4l-0.667-2.667L15.5,35.5h-2l0.667,1.333L13.5,39.5l-2-4h-8   c-0.553,0-1,0.447-1,1s0.447,1,1,1h7l0,8h6v1c0,0.553,0.447,1,1,1h6c0.553,0,1-0.447,1-1v-5C24.5,40.947,24.053,40.5,23.5,40.5z    M18.5,39c0-0.276,0.225-0.5,0.5-0.5c0.277,0,0.5,0.224,0.5,0.5v1.5h-1V39z M23.5,46.5h-6v-5h2v3c0,0.553,0.447,1,1,1s1-0.447,1-1   v-3h2V46.5z" /><path
       id="path6"
       d="M9,42.5H7l0.5-2l-1,2c0,0.553,0.448,1,1,1h1c0.552,0,1-0.447,1-1l-1-2L9,42.5z" /><path
       id="path8"
       d="M8.5,40c0-0.276-0.224-0.5-0.5-0.5S7.5,39.724,7.5,40l-2-0.5V39c0-0.276-0.224-0.5-0.5-0.5S4.5,38.724,4.5,39v0.5l-2,0.5   c0-0.276-0.224-0.5-0.5-0.5S1.5,39.724,1.5,40v0.5h1h2v4h-1c-0.552,0-1,0.447-1,1h5c0-0.553-0.448-1-1-1h-1v-4h2h1V40z" /><path
       id="path10"
       d="M1,42.5l0.5-2l-1,2c0,0.553,0.448,1,1,1h1c0.552,0,1-0.447,1-1l-1-2l0.5,2H1z" /></g></svg>
