<?xml version="1.0" encoding="UTF-8" standalone="no"?>
<svg
   xmlns:dc="http://purl.org/dc/elements/1.1/"
   xmlns:cc="http://creativecommons.org/ns#"
   xmlns:rdf="http://www.w3.org/1999/02/22-rdf-syntax-ns#"
   xmlns:svg="http://www.w3.org/2000/svg"
   xmlns="http://www.w3.org/2000/svg"
   xmlns:sodipodi="http://sodipodi.sourceforge.net/DTD/sodipodi-0.dtd"
   xmlns:inkscape="http://www.inkscape.org/namespaces/inkscape"
   inkscape:version="1.0rc1 (09960d6f05, 2020-04-09)"
   sodipodi:docname="noun_Church-basilica_1559760.svg"
   id="svg8"
   xml:space="preserve"
   style="enable-background:new 0 0 100 100;"
   viewBox="0 0 100 125"
   y="0px"
   x="0px"
   version="1.1"><metadata
     id="metadata14"><rdf:RDF><cc:Work
         rdf:about=""><dc:format>image/svg+xml</dc:format><dc:type
           rdf:resource="http://purl.org/dc/dcmitype/StillImage" /></cc:Work></rdf:RDF></metadata><defs
     id="defs12" /><sodipodi:namedview
     inkscape:current-layer="svg8"
     inkscape:window-maximized="1"
     inkscape:window-y="-8"
     inkscape:window-x="-8"
     inkscape:cy="62.5"
     inkscape:cx="50"
     inkscape:zoom="1.984"
     showgrid="false"
     id="namedview10"
     inkscape:window-height="988"
     inkscape:window-width="1680"
     inkscape:pageshadow="2"
     inkscape:pageopacity="0"
     guidetolerance="10"
     gridtolerance="10"
     objecttolerance="10"
     borderopacity="1"
     bordercolor="#666666"
     pagecolor="#ffffff" /><path
     style="stroke-width:1.09125"
     inkscape:connector-curvature="0"
     id="path2"
     d="M 75.168395,76.118045 V 66.212757 H 65.475901 V 38.84854 L 52.045871,20.925828 V 13.33181 H 56.43161 V 10.058056 H 52.045871 V 4.951 h -3.273754 v 5.107056 h -4.384648 v 3.273754 h 4.384648 v 7.592927 L 35.342087,38.84854 v 27.364217 h -9.692494 v 9.905288 H 1.0516972 V 112.00057 H 25.649593 29.726508 71.090389 75.167303 99.76629 V 76.118045 Z M 41.365795,42.31981 h 7.951947 v 2.746679 l -3.520377,2.123576 -0.791156,6.705739 -1.585589,2.348373 v 1.900959 h 4.307169 c 0.488881,1.05524 1.500471,1.963161 2.681205,1.963161 1.180734,0 2.192323,-0.907921 2.681204,-1.963161 h 4.307169 V 56.244177 L 55.811779,53.895804 55.020622,47.190065 51.500245,45.066489 V 42.31981 h 7.951949 V 61.386152 H 41.365795 Z m 7.406322,65.08005 H 38.176066 V 78.996766 h 10.596051 z m 13.869804,0 H 52.045871 V 78.996766 h 10.59605 z" /></svg>
