<?xml version="1.0" encoding="UTF-8" standalone="no"?>
<svg
   xmlns:dc="http://purl.org/dc/elements/1.1/"
   xmlns:cc="http://creativecommons.org/ns#"
   xmlns:rdf="http://www.w3.org/1999/02/22-rdf-syntax-ns#"
   xmlns:svg="http://www.w3.org/2000/svg"
   xmlns="http://www.w3.org/2000/svg"
   xmlns:sodipodi="http://sodipodi.sourceforge.net/DTD/sodipodi-0.dtd"
   xmlns:inkscape="http://www.inkscape.org/namespaces/inkscape"
   inkscape:version="1.0rc1 (09960d6f05, 2020-04-09)"
   sodipodi:docname="noun_Basketball_1914411.svg"
   id="svg22"
   xml:space="preserve"
   enable-background="new 0 0 100 100"
   viewBox="0 0 100 125"
   y="0px"
   x="0px"
   version="1.1"><metadata
     id="metadata28"><rdf:RDF><cc:Work
         rdf:about=""><dc:format>image/svg+xml</dc:format><dc:type
           rdf:resource="http://purl.org/dc/dcmitype/StillImage" /></cc:Work></rdf:RDF></metadata><defs
     id="defs26" /><sodipodi:namedview
     inkscape:current-layer="svg22"
     inkscape:window-maximized="1"
     inkscape:window-y="-8"
     inkscape:window-x="-8"
     inkscape:cy="62.5"
     inkscape:cx="50"
     inkscape:zoom="1.984"
     showgrid="false"
     id="namedview24"
     inkscape:window-height="988"
     inkscape:window-width="1680"
     inkscape:pageshadow="2"
     inkscape:pageopacity="0"
     guidetolerance="10"
     gridtolerance="10"
     objecttolerance="10"
     borderopacity="1"
     bordercolor="#666666"
     pagecolor="#ffffff" /><path
     style="stroke-width:1.0896"
     inkscape:connector-curvature="0"
     id="path2"
     d="M 82.244867,24.929015 C 73.884313,17.649352 63.64528,13.673377 53.235176,13 c 2.071344,10.510346 0.655944,19.608562 -4.256003,27.181329 -0.06864,0.103517 -0.140559,0.203756 -0.208115,0.30618 3.171845,2.512633 6.37311,5.283503 9.576553,8.33767 z" /><path
     style="stroke-width:1.0896"
     inkscape:connector-curvature="0"
     id="path4"
     d="m 46.21484,13.046853 c -9.374975,0.730037 -18.579973,4.141595 -26.368482,10.235766 7.12167,2.977895 15.104128,7.164164 23.420007,13.073101 4.036992,-6.279403 5.01437,-14.082077 2.948475,-23.308867 z" /><path
     style="stroke-width:1.0896"
     inkscape:connector-curvature="0"
     id="path6"
     d="M 14.223987,28.426652 C 6.9410557,36.193369 2.6589012,45.74813 1.3753444,55.619967 14.201105,54.045486 29.524245,50.310314 38.821859,41.626148 29.939385,35.378343 21.496023,31.210597 14.223987,28.426652 Z" /><path
     style="stroke-width:1.0896"
     inkscape:connector-curvature="0"
     id="path8"
     d="M 56.402663,110.65818 C 66.27777,109.37572 75.836889,105.09356 83.605786,97.80845 80.82184,90.535325 76.653005,82.093053 70.4052,73.209489 61.707958,82.510372 57.971697,97.833511 56.402663,110.65818 Z" /><path
     style="stroke-width:1.0896"
     inkscape:connector-curvature="0"
     id="path10"
     d="m 71.544929,63.26138 c 0.103516,-0.06864 0.202666,-0.14165 0.306178,-0.209205 C 79.422785,58.140227 88.521001,56.725918 99.030258,58.79835 98.356881,48.387158 94.380906,38.149213 87.102333,29.788661 L 63.207257,53.684825 c 3.055257,3.203445 5.825038,6.40471 8.337672,9.576555 z" /><path
     style="stroke-width:1.0896"
     inkscape:connector-curvature="0"
     id="path12"
     d="M 75.675627,68.766073 C 81.585654,77.083041 85.771924,85.06332 88.748729,92.18608 94.843989,84.397571 98.256637,75.192573 98.986674,65.816507 89.757705,63.751702 81.956121,64.729079 75.675627,68.766073 Z" /><path
     style="stroke-width:1.0896"
     inkscape:connector-curvature="0"
     id="path14"
     d="M 58.345433,58.546651 17.854556,99.03862 c 9.038288,7.87023 20.269955,11.8778 31.544115,12.02599 1.657293,-14.44819 5.968866,-32.489898 16.840963,-43.430638 -2.376434,-3.007315 -4.999117,-6.04405 -7.894201,-9.087321 z" /><path
     style="stroke-width:1.0896"
     inkscape:connector-curvature="0"
     id="path16"
     d="M 44.398466,45.791714 C 33.457725,56.66599 15.417106,60.977564 0.96783154,62.633766 1.1171076,73.907926 5.1235916,85.140682 12.993821,94.17897 L 53.485786,53.687005 c -3.042182,-2.895085 -6.080005,-5.517769 -9.08732,-7.895291 z" /></svg>
