<?xml version="1.0" encoding="UTF-8" standalone="no"?>
<svg
   xmlns:dc="http://purl.org/dc/elements/1.1/"
   xmlns:cc="http://creativecommons.org/ns#"
   xmlns:rdf="http://www.w3.org/1999/02/22-rdf-syntax-ns#"
   xmlns:svg="http://www.w3.org/2000/svg"
   xmlns="http://www.w3.org/2000/svg"
   xmlns:sodipodi="http://sodipodi.sourceforge.net/DTD/sodipodi-0.dtd"
   xmlns:inkscape="http://www.inkscape.org/namespaces/inkscape"
   inkscape:version="1.0rc1 (09960d6f05, 2020-04-09)"
   sodipodi:docname="noun_the basin_3146086.svg"
   id="svg16"
   version="1.1"
   y="0px"
   x="0px"
   viewBox="0 0 100 125"
   data-name="Layer 1">
  <metadata
     id="metadata22">
    <rdf:RDF>
      <cc:Work
         rdf:about="">
        <dc:format>image/svg+xml</dc:format>
        <dc:type
           rdf:resource="http://purl.org/dc/dcmitype/StillImage" />
      </cc:Work>
    </rdf:RDF>
  </metadata>
  <defs
     id="defs20" />
  <sodipodi:namedview
     inkscape:current-layer="svg16"
     inkscape:window-maximized="1"
     inkscape:window-y="-8"
     inkscape:window-x="-8"
     inkscape:cy="62.5"
     inkscape:cx="50"
     inkscape:zoom="1.984"
     showgrid="false"
     id="namedview18"
     inkscape:window-height="988"
     inkscape:window-width="1680"
     inkscape:pageshadow="2"
     inkscape:pageopacity="0"
     guidetolerance="10"
     gridtolerance="10"
     objecttolerance="10"
     borderopacity="1"
     bordercolor="#666666"
     pagecolor="#ffffff" />
  <title
     id="title2">Rainy season</title>
  <path
     style="stroke-width:1.30609"
     inkscape:connector-curvature="0"
     id="path4"
     d="m 96.981339,50.124276 h -5.132934 l -1.946073,18.846797 -0.835897,8.071543 a 8.5911844,8.5911844 0 0 1 -4.218671,1.136442 c -3.526442,0 -7.065946,-2.233518 -8.659375,-6.739423 l -0.01307,-0.01306 c -1.59343,4.51907 -5.132933,6.739423 -8.659376,6.752483 -3.539502,0 -7.092067,-2.233518 -8.672436,-6.752483 -1.60649,4.51907 -5.145993,6.739423 -8.672436,6.752483 -3.526443,0 -7.079006,-2.233518 -8.672436,-6.752483 -1.593429,4.51907 -5.132933,6.739423 -8.672436,6.752483 -3.526443,0 -7.065947,-2.233518 -8.672437,-6.739422 a 10.49835,10.49835 0 0 1 -3.604808,5.054567 8.4126549,8.4126549 0 0 1 -9.273237,0.548454 L 10.439829,68.971073 8.5068166,50.124276 H 3.3608227 a 1.9264825,1.9264825 0 0 0 0,3.852965 h 1.6717955 l 1.5411856,14.993911 0.2481574,2.468509 c 0,0.01292 0.013066,0.02599 0.013066,0.03906 l 0.6008003,5.864343 3.8399035,37.145286 H 89.0795 l 3.813782,-37.119086 0.613862,-5.877404 0.261219,-2.520662 1.541185,-14.993911 h 1.671796 a 1.9264824,1.9264824 0 0 0 0,-3.852964 z" />
  <path
     style="stroke-width:1.30609"
     inkscape:connector-curvature="0"
     id="path6"
     d="m 48.728948,33.788437 c 4.642824,0 8.54491,-3.36535 7.949582,-8.195584 -0.540487,-4.384308 -3.997941,-7.700065 -5.973951,-11.46065 -0.709964,-1.351058 -1.374006,-2.730172 -1.975631,-4.132873 -0.601624,1.402741 -1.2656,2.781815 -1.975643,4.132873 -1.975945,3.760585 -5.433451,7.076395 -5.973938,11.46065 -0.595485,4.830234 3.306837,8.195584 7.949581,8.195584 z M 41.983896,25.1611 c 0.01959,-0.121337 0.04433,-0.247922 0.07503,-0.376912 0.228944,-0.96473 0.805543,-2.164961 1.949991,-2.199873 1.291815,-0.03874 1.588283,1.477187 1.95634,2.41671 a 7.664592,7.664592 0 0 0 2.979922,3.429283 l 0.0908,0.05995 c 0.91109,0.602826 3.245634,2.264929 1.721427,3.446666 A 5.0680332,5.0680332 0 0 1 47.294953,32.61643 6.2729011,6.2729011 0 0 1 43.095874,29.954501 6.7898776,6.7898776 0 0 1 41.983896,25.1611 Z" />
  <path
     style="stroke-width:1.30609"
     inkscape:connector-curvature="0"
     id="path8"
     d="m 24.159858,56.457035 c 4.642823,0 8.544909,-3.36535 7.949581,-8.195596 -0.540407,-4.384126 -3.997941,-7.699895 -5.973859,-11.460481 -0.710042,-1.351058 -1.374097,-2.730171 -1.975722,-4.133029 -0.601545,1.402858 -1.265601,2.781971 -1.97563,4.133029 -1.975957,3.760586 -5.433465,7.076395 -5.97395,11.460481 -0.595407,4.830246 3.306875,8.195596 7.94958,8.195596 z m -6.745052,-8.627337 c 0.01959,-0.121179 0.04433,-0.247765 0.07502,-0.376742 0.228944,-0.964742 0.805544,-2.165131 1.949992,-2.200043 1.291814,-0.03858 1.588375,1.477319 1.956339,2.416867 a 7.6659504,7.6659504 0 0 0 2.979923,3.429283 l 0.09088,0.05995 c 0.91101,0.602668 3.245633,2.264759 1.721335,3.446666 a 5.0689345,5.0689345 0 0 1 -3.462444,0.679507 6.2740113,6.2740113 0 0 1 -4.199079,-2.66193 6.7903608,6.7903608 0 0 1 -1.111966,-4.793558 z" />
  <path
     style="stroke-width:1.30609"
     inkscape:connector-curvature="0"
     id="path10"
     d="m 76.182316,44.562554 c 4.642744,0 8.54491,-3.365349 7.94958,-8.195583 -0.540485,-4.384452 -3.997941,-7.700065 -5.97395,-11.46065 -0.710042,-1.350889 -1.374006,-2.730002 -1.97563,-4.13303 -0.601625,1.403028 -1.26568,2.782141 -1.975631,4.13303 -1.976035,3.760585 -5.433465,7.076198 -5.97395,11.46065 -0.595485,4.830234 3.306758,8.195583 7.949581,8.195583 z M 69.437211,35.93523 c 0.01959,-0.121323 0.0444,-0.247752 0.0751,-0.376899 0.228866,-0.964742 0.805466,-2.165117 1.949993,-2.199886 1.291723,-0.03874 1.588283,1.477188 1.956261,2.416724 a 7.6648271,7.6648271 0 0 0 2.980001,3.429282 l 0.0908,0.05994 c 0.911011,0.602825 3.245633,2.264759 1.721427,3.446771 a 5.0699662,5.0699662 0 0 1 -3.462522,0.679519 6.2744554,6.2744554 0 0 1 -4.19908,-2.662085 6.7908832,6.7908832 0 0 1 -1.111978,-4.793362 z" />
</svg>
