<?xml version="1.0" encoding="UTF-8" standalone="no"?>
<svg
   xmlns:serif="http://www.serif.com/"
   xmlns:dc="http://purl.org/dc/elements/1.1/"
   xmlns:cc="http://creativecommons.org/ns#"
   xmlns:rdf="http://www.w3.org/1999/02/22-rdf-syntax-ns#"
   xmlns:svg="http://www.w3.org/2000/svg"
   xmlns="http://www.w3.org/2000/svg"
   xmlns:sodipodi="http://sodipodi.sourceforge.net/DTD/sodipodi-0.dtd"
   xmlns:inkscape="http://www.inkscape.org/namespaces/inkscape"
   inkscape:version="1.0rc1 (09960d6f05, 2020-04-09)"
   sodipodi:docname="noun_Butcher_2532001.svg"
   id="svg10"
   stroke-miterlimit="1.41421"
   stroke-linejoin="round"
   clip-rule="evenodd"
   fill-rule="evenodd"
   y="0px"
   x="0px"
   style=""
   xml:space="preserve"
   version="1.1"
   viewBox="0 0 32 40"><metadata
     id="metadata16"><rdf:RDF><cc:Work
         rdf:about=""><dc:format>image/svg+xml</dc:format><dc:type
           rdf:resource="http://purl.org/dc/dcmitype/StillImage" /></cc:Work></rdf:RDF></metadata><defs
     id="defs14" /><sodipodi:namedview
     inkscape:current-layer="svg10"
     inkscape:window-maximized="1"
     inkscape:window-y="-8"
     inkscape:window-x="-8"
     inkscape:cy="20"
     inkscape:cx="16"
     inkscape:zoom="6.2"
     showgrid="false"
     id="namedview12"
     inkscape:window-height="988"
     inkscape:window-width="1680"
     inkscape:pageshadow="2"
     inkscape:pageopacity="0"
     guidetolerance="10"
     gridtolerance="10"
     objecttolerance="10"
     borderopacity="1"
     bordercolor="#666666"
     pagecolor="#ffffff" /><rect
     id="rect2"
     fill="none"
     style="stroke-width:1.11088"
     height="35.548386"
     width="35.548386"
     y="2"
     x="-1.6129032"
     serif:id="Butcher, Meat Knife, Knife, Meat Cleaver" /><path
     style="stroke-width:1.11088"
     inkscape:connector-curvature="0"
     id="path4"
     d="m 4.8846754,23.25127 4.6712802,4.672392 C 8.6061471,29.040103 7.6563387,30.156544 6.7031976,31.270765 6.0366653,32.046163 4.9835443,32.466078 3.9570846,32.346103 3.2638911,32.266119 2.6018024,31.945072 2.1074577,31.455172 1.8075181,31.156343 1.4853609,30.874178 1.2254133,30.547576 0.56332459,29.714412 0.40891129,28.507988 0.88659274,27.517076 1.022121,27.2338 1.2065283,26.973853 1.4264839,26.749453 l 0.00555,-0.0056 z m 1.6685524,-1.687438 0.7143005,-0.723187 0.00333,-0.0022 0.00222,-0.0022 C 11.446685,16.662599 15.612512,12.482331 19.792781,8.315393 c 0.71541,-0.7076349 1.717431,-1.1264393 2.727227,-1.1331047 0.0111,-0.00111 0.02333,-0.00111 0.03443,-0.00111 1.023127,0.00555 2.031812,0.4299134 2.747224,1.1431027 l 6.082107,6.082107 c 0.09109,0.103315 0.176631,0.212179 0.233286,0.33771 0.167744,0.374369 0.114422,0.838719 -0.142193,1.167543 -0.02777,0.03554 -0.0611,0.06776 -0.09109,0.102204 L 16.916694,30.480923 c -0.102205,0.09109 -0.212179,0.176631 -0.3366,0.232176 -0.264391,0.118864 -0.572106,0.127752 -0.844273,0.03332 z M 21.944569,9.391843 c 0.62765,0 1.137547,0.509897 1.137547,1.136437 0,0.627652 -0.509897,1.137549 -1.137547,1.137549 -0.626541,0 -1.136438,-0.509897 -1.136438,-1.137549 0,-0.62654 0.509897,-1.136437 1.136438,-1.136437 z" /></svg>
