<?xml version="1.0" encoding="UTF-8" standalone="no"?>
<svg
   xmlns:dc="http://purl.org/dc/elements/1.1/"
   xmlns:cc="http://creativecommons.org/ns#"
   xmlns:rdf="http://www.w3.org/1999/02/22-rdf-syntax-ns#"
   xmlns:svg="http://www.w3.org/2000/svg"
   xmlns="http://www.w3.org/2000/svg"
   xmlns:sodipodi="http://sodipodi.sourceforge.net/DTD/sodipodi-0.dtd"
   xmlns:inkscape="http://www.inkscape.org/namespaces/inkscape"
   inkscape:version="1.0rc1 (09960d6f05, 2020-04-09)"
   sodipodi:docname="noun_tools_326607.svg"
   id="svg10"
   xml:space="preserve"
   enable-background="new 0 0 100 100"
   viewBox="0 0 100 125"
   y="0px"
   x="0px"
   version="1.1"><metadata
     id="metadata16"><rdf:RDF><cc:Work
         rdf:about=""><dc:format>image/svg+xml</dc:format><dc:type
           rdf:resource="http://purl.org/dc/dcmitype/StillImage" /></cc:Work></rdf:RDF></metadata><defs
     id="defs14" /><sodipodi:namedview
     inkscape:current-layer="svg10"
     inkscape:window-maximized="1"
     inkscape:window-y="-8"
     inkscape:window-x="-8"
     inkscape:cy="62.5"
     inkscape:cx="50"
     inkscape:zoom="1.984"
     showgrid="false"
     id="namedview12"
     inkscape:window-height="988"
     inkscape:window-width="1680"
     inkscape:pageshadow="2"
     inkscape:pageopacity="0"
     guidetolerance="10"
     gridtolerance="10"
     objecttolerance="10"
     borderopacity="1"
     bordercolor="#666666"
     pagecolor="#ffffff" /><path
     style="stroke-width:1.66276"
     inkscape:connector-curvature="0"
     id="path2"
     d="m 63.893795,27.221329 h 9.863435 c 1.212144,0 2.194829,-0.982686 2.194829,-2.19483 V 8.0714356 c 0,-1.212146 -0.982685,-2.194831 -2.194829,-2.194831 h -9.863435 c -1.212146,0 -2.19483,0.982685 -2.19483,2.194831 v 0.862967 c -0.03159,0.128036 -0.06984,0.252738 -0.113072,0.375781 -0.02661,0.07482 -0.05654,0.146322 -0.08812,0.217821 -0.01325,0.03326 -0.02661,0.06651 -0.04157,0.0981 -0.02993,0.06651 -0.06319,0.129696 -0.09478,0.194542 -0.0183,0.03658 -0.03824,0.07482 -0.05819,0.10974 -0.03326,0.05985 -0.06817,0.1197244 -0.104748,0.1779144 -0.02327,0.03824 -0.04655,0.07482 -0.0715,0.1114 -0.03658,0.05654 -0.07482,0.111399 -0.114732,0.164611 -0.02661,0.03658 -0.05486,0.07316 -0.08313,0.10974 -0.0399,0.05154 -0.08147,0.103086 -0.124704,0.152972 -0.03159,0.03658 -0.06319,0.06984 -0.09643,0.104747 -0.04323,0.04655 -0.08646,0.09478 -0.133015,0.139671 -0.03658,0.03492 -0.07316,0.06817 -0.111399,0.103087 -0.04489,0.04157 -0.08978,0.0848 -0.136346,0.124704 -0.08147,0.06817 -0.166275,0.134683 -0.252738,0.196204 -0.0399,0.02827 -0.08313,0.05486 -0.124703,0.08313 -0.0532,0.03492 -0.10642,0.0715 -0.161286,0.104748 -0.04323,0.02661 -0.08978,0.04988 -0.134683,0.07482 -0.05488,0.02993 -0.111399,0.06151 -0.167938,0.08978 -0.04655,0.02328 -0.09312,0.04323 -0.139671,0.06485 -0.0582,0.02661 -0.118051,0.05154 -0.177915,0.07649 -0.04655,0.01828 -0.09478,0.03658 -0.142996,0.0532 -0.06319,0.02162 -0.126363,0.04323 -0.189553,0.06151 -0.04655,0.01496 -0.09478,0.02827 -0.142996,0.0399 -0.06817,0.01828 -0.136346,0.03326 -0.206182,0.04655 -0.04655,0.01004 -0.09146,0.01996 -0.138007,0.02827 -0.07815,0.01325 -0.156299,0.02328 -0.236111,0.03159 -0.0399,0.005 -0.07815,0.01004 -0.118051,0.01496 -0.119724,0.01004 -0.241099,0.01662 -0.36248,0.01662 -1.100741,0 -2.100053,-0.427327 -2.848292,-1.119031 L 54.50096,10.530556 54.49092,10.69018 c 0,0 -2.327851,-5.2692554 -5.791359,-6.1155944 -2.896489,-0.5719 -5.921031,-0.874521 -9.035362,-0.874521 -21.148521,0 -38.291476,13.9571254 -38.291476,31.1749034 0,0.167938 0.00332,0.334213 0.00665,0.502151 0.011644,0.71332 0.5902763,1.288631 1.3069217,1.288631 0.5985901,0 1.1040661,-0.402385 1.2587019,-0.951093 l 0.00499,0.0016 c 1.837339,-7.562188 8.6479644,-13.178958 16.7754874,-13.178958 8.255554,0 15.152643,5.794685 16.858624,13.53645 v 5.013192 c -0.349177,0.05986 -0.671751,0.121384 -0.951092,0.184566 -1.168914,0.264377 -1.995301,1.167249 -2.015254,2.204806 l -0.553696,29.545409 -0.04157,2.179866 -0.109739,5.899437 -0.520442,27.842745 -0.172926,9.27649 c -0.03159,1.69766 1.330201,3.08274 3.04117,3.08274 h 14.578995 c 1.710969,0 3.072761,-1.38341 3.04117,-3.08274 l -0.17293,-9.27643 -0.520442,-27.842749 -0.10974,-5.899437 -0.04157,-2.179866 -0.553696,-29.545409 c -0.01996,-1.037556 -0.846341,-1.940429 -2.015253,-2.204806 -0.292645,-0.06651 -0.630183,-0.131356 -0.997651,-0.19288 v -8.619697 h 0.01996 C 49.713863,28.082627 51.90038,24.22671 55.185973,21.74755 l 0.03159,0.02162 c 0.683389,-0.480534 1.514765,-0.766528 2.414312,-0.766528 1.960383,0 3.60318,1.345165 4.067088,3.160888 v 0.867957 c 0.0016,1.207155 0.982685,2.189841 2.19483,2.189841 z" /><path
     style="stroke-width:1.66276"
     inkscape:connector-curvature="0"
     id="path4"
     d="M 84.836135,121.30306 H 96.63501 c 1.385071,0 2.487474,-1.12069 2.46087,-2.49413 L 98.956208,111.30162 98.53387,88.769691 98.44409,83.994273 98.41083,82.230095 97.963551,58.319746 c -0.01496,-0.839688 -0.685053,-1.571298 -1.631157,-1.784131 -0.566998,-0.128036 -1.310247,-0.2544 -2.25469,-0.347515 L 93.667001,19.980051 c 1.587926,-0.583625 2.728573,-2.096728 2.728573,-3.887509 V 5.2996306 c 0,-0.877933 -0.711658,-1.587927 -1.587927,-1.587927 h -8.145814 c -0.877932,0 -1.587926,0.711658 -1.587926,1.587927 V 16.092542 c 0,1.790781 1.138984,3.303884 2.728573,3.887509 L 87.391781,56.1881 c -0.944442,0.09312 -1.687691,0.219483 -2.254689,0.347515 -0.946105,0.214495 -1.614531,0.944443 -1.631158,1.784131 l -0.447281,23.910349 -0.03326,1.764178 -0.08978,4.775418 -0.422339,22.531929 -0.139669,7.50731 c -0.02494,1.37344 1.077461,2.49413 2.462533,2.49413 z" /></svg>
