<?xml version="1.0" encoding="UTF-8" standalone="no"?>
<svg
   xmlns:dc="http://purl.org/dc/elements/1.1/"
   xmlns:cc="http://creativecommons.org/ns#"
   xmlns:rdf="http://www.w3.org/1999/02/22-rdf-syntax-ns#"
   xmlns:svg="http://www.w3.org/2000/svg"
   xmlns="http://www.w3.org/2000/svg"
   xmlns:sodipodi="http://sodipodi.sourceforge.net/DTD/sodipodi-0.dtd"
   xmlns:inkscape="http://www.inkscape.org/namespaces/inkscape"
   inkscape:version="1.0rc1 (09960d6f05, 2020-04-09)"
   sodipodi:docname="noun_news_3323819.svg"
   id="svg12"
   version="1.1"
   y="0px"
   x="0px"
   viewBox="0 0 64 80">
  <metadata
     id="metadata18">
    <rdf:RDF>
      <cc:Work
         rdf:about="">
        <dc:format>image/svg+xml</dc:format>
        <dc:type
           rdf:resource="http://purl.org/dc/dcmitype/StillImage" />
      </cc:Work>
    </rdf:RDF>
  </metadata>
  <defs
     id="defs16" />
  <sodipodi:namedview
     inkscape:current-layer="svg12"
     inkscape:window-maximized="1"
     inkscape:window-y="-8"
     inkscape:window-x="-8"
     inkscape:cy="40"
     inkscape:cx="32"
     inkscape:zoom="3.1"
     showgrid="false"
     id="namedview14"
     inkscape:window-height="988"
     inkscape:window-width="1680"
     inkscape:pageshadow="2"
     inkscape:pageopacity="0"
     guidetolerance="10"
     gridtolerance="10"
     objecttolerance="10"
     borderopacity="1"
     bordercolor="#666666"
     pagecolor="#ffffff" />
  <title
     id="title2">news, newspaper, subscribe</title>
  <g
     transform="matrix(1.0999734,0,0,1.0999734,-3.1991469,3.7040789)"
     id="g6">
    <path
       inkscape:connector-curvature="0"
       id="path4"
       d="m 21.059,14.567 a 2,2 0 0 1 2,-2 h 6.256 a 2,2 0 1 1 0,4 h -6.256 a 2,2 0 0 1 -2,-2 z m 2,10.341 h 6.256 a 2,2 0 0 0 0,-4 h -6.256 a 2,2 0 1 0 0,4 z m 27.256,4.341 H 23.059 a 2,2 0 1 0 0,4 h 27.256 a 2,2 0 0 0 0,-4 z m 0,8.341 H 23.059 a 2,2 0 1 0 0,4 h 27.256 a 2,2 0 0 0 0,-4 z m 0,8.34 H 23.059 a 2,2 0 0 0 0,4 h 27.256 a 2,2 0 0 0 0,-4 z M 60.26,11.51 v 40.98 a 8.559,8.559 0 0 1 -8.55,8.55 H 12.29 A 8.559,8.559 0 0 1 3.74,52.49 V 22.13 a 8.559,8.559 0 0 1 8.55,-8.55 h 0.84 v -2.07 a 8.553,8.553 0 0 1 8.55,-8.55 h 30.03 a 8.559,8.559 0 0 1 8.55,8.55 z m -4,0 A 4.554,4.554 0 0 0 51.71,6.96 H 21.68 a 4.554,4.554 0 0 0 -4.55,4.55 V 49.7 a 5.833,5.833 0 0 1 -5.84,5.83 0.375,0.375 0 0 1 -0.1,-0.01 0.335,0.335 0 0 1 -0.1,0 h -0.04 a 0.97,0.97 0 0 1 -0.17,0.01 5.814,5.814 0 0 1 -2.36,-0.5 4.548,4.548 0 0 0 3.77,2.01 h 39.42 a 4.554,4.554 0 0 0 4.55,-4.55 z m -5.93,1.06 H 36.58 a 2,2 0 0 0 -2,2 v 8.34 a 2.006,2.006 0 0 0 2,2 h 13.75 a 2.006,2.006 0 0 0 2,-2 v -8.34 a 2,2 0 0 0 -2,-2 z" />
  </g>
</svg>
