<?xml version="1.0" encoding="UTF-8" standalone="no"?>
<svg
   xmlns:ns="http://ns.adobe.com/Variables/1.0/"
   xmlns:i="http://ns.adobe.com/AdobeIllustrator/10.0/"
   xmlns:dc="http://purl.org/dc/elements/1.1/"
   xmlns:cc="http://creativecommons.org/ns#"
   xmlns:rdf="http://www.w3.org/1999/02/22-rdf-syntax-ns#"
   xmlns:svg="http://www.w3.org/2000/svg"
   xmlns="http://www.w3.org/2000/svg"
   xmlns:sodipodi="http://sodipodi.sourceforge.net/DTD/sodipodi-0.dtd"
   xmlns:inkscape="http://www.inkscape.org/namespaces/inkscape"
   inkscape:version="1.0rc1 (09960d6f05, 2020-04-09)"
   sodipodi:docname="noun_cathedral_2780523.svg"
   id="svg12"
   xml:space="preserve"
   enable-background="new -5.144 8.5 85.61 100"
   viewBox="-5.144 8.5 85.61 125"
   y="0px"
   x="0px"
   i:pageBounds="6.6958 92 92.3057 -8"
   i:rulerOrigin="-6.6958 8"
   i:viewOrigin="6.6958 92"
   version="1.1"><defs
     id="defs16" /><sodipodi:namedview
     inkscape:current-layer="svg12"
     inkscape:window-maximized="1"
     inkscape:window-y="-8"
     inkscape:window-x="-8"
     inkscape:cy="62.5"
     inkscape:cx="42.805"
     inkscape:zoom="1.984"
     showgrid="false"
     id="namedview14"
     inkscape:window-height="988"
     inkscape:window-width="1680"
     inkscape:pageshadow="2"
     inkscape:pageopacity="0"
     guidetolerance="10"
     gridtolerance="10"
     objecttolerance="10"
     borderopacity="1"
     bordercolor="#666666"
     pagecolor="#ffffff" /><metadata
     id="metadata2"><ns:variableSets><ns:variableSet
         varSetName="binding1"
         locked="none"><ns:variables /><ns:sampleDataSets /></ns:variableSet></ns:variableSets><rdf:RDF><cc:Work
         rdf:about=""><dc:format>image/svg+xml</dc:format><dc:type
           rdf:resource="http://purl.org/dc/dcmitype/StillImage" /></cc:Work></rdf:RDF></metadata><g
     transform="matrix(1.0914645,0,0,1.0914645,-3.3744169,6.7652293)"
     id="g6"
     i:rgbTrio="#4F008000FFFF"
     i:dimmedPercent="50"
     i:layer="yes"><path
       inkscape:connector-curvature="0"
       id="path4"
       d="M 71.216,103.5 V 88.719 c 0,-4.94 -2.837,-8.964 -7.257,-11.343 h -0.001 c -4.418,2.379 -7.585,6.426 -7.585,11.366 V 103.5 H 19.036 V 88.719 c 0,-4.94 -2.837,-8.964 -7.256,-11.343 H 11.779 C 7.361,79.755 4.195,83.802 4.195,88.742 V 103.5 h -4.319 l -0.021,-90 H 11.994 23.658 V 34.826 H 51.663 V 13.5 h 23.805 v 90 z M 47.357,60.425 c 0,-5.336 -4.325,-9.662 -9.661,-9.662 -5.336,0 -9.662,4.326 -9.662,9.662 0,5.336 4.326,9.661 9.662,9.661 5.336,0 9.661,-4.325 9.661,-9.661 z M 69.36,70.234 V 59.148 c 0,-3.704 -2.128,-6.723 -5.442,-8.507 v 0 c -3.314,1.784 -5.689,4.819 -5.689,8.525 V 70.233 H 69.36 Z m 0,-30 V 29.148 c 0,-3.705 -2.128,-6.723 -5.442,-8.506 v 0 c -3.314,1.784 -5.689,4.819 -5.689,8.524 v 11.068 z m -52.179,30 V 59.148 c 0,-3.704 -2.127,-6.723 -5.442,-8.507 H 11.738 C 8.425,52.425 6.05,55.46 6.05,59.166 v 11.067 h 11.131 z m 0,-30 V 29.148 c 0,-3.705 -2.127,-6.723 -5.442,-8.506 H 11.738 C 8.425,22.426 6.05,25.461 6.05,29.166 v 11.068 z" /></g></svg>
