<?xml version="1.0" encoding="UTF-8" standalone="no"?>
<svg
   xmlns:dc="http://purl.org/dc/elements/1.1/"
   xmlns:cc="http://creativecommons.org/ns#"
   xmlns:rdf="http://www.w3.org/1999/02/22-rdf-syntax-ns#"
   xmlns:svg="http://www.w3.org/2000/svg"
   xmlns="http://www.w3.org/2000/svg"
   xmlns:sodipodi="http://sodipodi.sourceforge.net/DTD/sodipodi-0.dtd"
   xmlns:inkscape="http://www.inkscape.org/namespaces/inkscape"
   inkscape:version="1.0rc1 (09960d6f05, 2020-04-09)"
   sodipodi:docname="noun_Barrel_149627.svg"
   id="svg14"
   xml:space="preserve"
   enable-background="new 0 0 100 100"
   viewBox="0 0 100 125"
   y="0px"
   x="0px"
   version="1.1"><metadata
     id="metadata20"><rdf:RDF><cc:Work
         rdf:about=""><dc:format>image/svg+xml</dc:format><dc:type
           rdf:resource="http://purl.org/dc/dcmitype/StillImage" /></cc:Work></rdf:RDF></metadata><defs
     id="defs18" /><sodipodi:namedview
     inkscape:current-layer="svg14"
     inkscape:window-maximized="1"
     inkscape:window-y="-8"
     inkscape:window-x="-8"
     inkscape:cy="62.5"
     inkscape:cx="50"
     inkscape:zoom="1.984"
     showgrid="false"
     id="namedview16"
     inkscape:window-height="988"
     inkscape:window-width="1680"
     inkscape:pageshadow="2"
     inkscape:pageopacity="0"
     guidetolerance="10"
     gridtolerance="10"
     objecttolerance="10"
     borderopacity="1"
     bordercolor="#666666"
     pagecolor="#ffffff" /><g
     transform="matrix(1.1688587,0,0,1.1688587,-7.9393975,3.1557063)"
     id="g8"><path
       inkscape:connector-curvature="0"
       id="path2"
       d="M 87.984,23.78 C 84.095,11.249 78.626,5 78.626,5 H 71.203 28.698 21.275 c 0,0 -5.386,6.287 -9.244,18.78 z" /><path
       inkscape:connector-curvature="0"
       id="path4"
       d="m 8.208,50.438 c 0,7.206 1.041,13.896 2.539,19.783 h 78.449 c 1.528,-5.952 2.596,-12.706 2.596,-19.977 0,-7.849 -0.889,-14.664 -2.204,-20.468 H 10.435 C 9.109,35.634 8.208,42.517 8.208,50.438" /><path
       inkscape:connector-curvature="0"
       id="path6"
       d="M 12.499,76.22 C 16.308,87.756 21.276,95 21.276,95 h 7.423 42.505 7.423 c 0,0 4.968,-7.263 8.799,-18.78 z" /></g></svg>
