<?xml version="1.0" encoding="UTF-8" standalone="no"?>
<svg
   xmlns:dc="http://purl.org/dc/elements/1.1/"
   xmlns:cc="http://creativecommons.org/ns#"
   xmlns:rdf="http://www.w3.org/1999/02/22-rdf-syntax-ns#"
   xmlns:svg="http://www.w3.org/2000/svg"
   xmlns="http://www.w3.org/2000/svg"
   xmlns:sodipodi="http://sodipodi.sourceforge.net/DTD/sodipodi-0.dtd"
   xmlns:inkscape="http://www.inkscape.org/namespaces/inkscape"
   inkscape:version="1.0rc1 (09960d6f05, 2020-04-09)"
   sodipodi:docname="noun_bed and breakfast_1485223.svg"
   id="svg10"
   xml:space="preserve"
   enable-background="new 0 0 50 50"
   viewBox="0 0 50 62.5"
   y="0px"
   x="0px"
   version="1.1"><metadata
     id="metadata16"><rdf:RDF><cc:Work
         rdf:about=""><dc:format>image/svg+xml</dc:format><dc:type
           rdf:resource="http://purl.org/dc/dcmitype/StillImage" /></cc:Work></rdf:RDF></metadata><defs
     id="defs14" /><sodipodi:namedview
     inkscape:current-layer="svg10"
     inkscape:window-maximized="1"
     inkscape:window-y="-8"
     inkscape:window-x="-8"
     inkscape:cy="31.25"
     inkscape:cx="25"
     inkscape:zoom="3.968"
     showgrid="false"
     id="namedview12"
     inkscape:window-height="988"
     inkscape:window-width="1680"
     inkscape:pageshadow="2"
     inkscape:pageopacity="0"
     guidetolerance="10"
     gridtolerance="10"
     objecttolerance="10"
     borderopacity="1"
     bordercolor="#666666"
     pagecolor="#ffffff" /><g
     transform="translate(0,6)"
     id="g4"><path
       inkscape:connector-curvature="0"
       id="path2"
       d="m 6.807,31.801 h 15.171 v 8.16 H 20.413 L 20.049,38.063 H 8.737 L 8.372,39.961 H 6.807 Z m 25.781,-2.787 4.236,-3.871 0.788,0.788 -3.107,3.107 0.435,0.434 3.17,-3.042 0.789,0.788 -3.044,3.171 0.434,0.435 3.107,-3.107 0.788,0.788 -3.871,4.236 h -1.669 l -0.474,-0.473 -0.615,0.635 5.796,5.776 -1.283,1.283 -5.734,-5.817 -5.685,5.817 -1.284,-1.283 5.24,-5.124 -5.31,-6.465 1.223,-1.223 5.909,5.91 0.632,-0.62 -0.473,-0.474 V 29.014 Z M 20.58,26.233 v 4.328 h -2.394 v -2.367 c -2.758,-0.903 -4.833,-0.937 -7.588,0.005 v 2.362 H 8.204 V 26.237 C 12.533,24.755 16.245,24.81 20.58,26.233 Z M 8.557,10.222 h 29.877 v 8.704 h -1.363 c -5.897,-7.675 -21.253,-7.675 -27.15,0 H 8.557 Z M 0,3.821 v 9.904 h 2.897 v -3.503 h 3.296 v 8.704 H 3.098 V 46.179 H 43.893 V 18.926 H 40.8 v -8.704 h 3.185 v 2.024 L 50,8.773 43.985,5.3 V 7.325 H 2.897 V 3.821 Z"
       clip-rule="evenodd"
       fill-rule="evenodd" /></g></svg>
