<?xml version="1.0" encoding="UTF-8" standalone="no"?>
<svg
   xmlns:dc="http://purl.org/dc/elements/1.1/"
   xmlns:cc="http://creativecommons.org/ns#"
   xmlns:rdf="http://www.w3.org/1999/02/22-rdf-syntax-ns#"
   xmlns:svg="http://www.w3.org/2000/svg"
   xmlns="http://www.w3.org/2000/svg"
   xmlns:sodipodi="http://sodipodi.sourceforge.net/DTD/sodipodi-0.dtd"
   xmlns:inkscape="http://www.inkscape.org/namespaces/inkscape"
   inkscape:version="1.0rc1 (09960d6f05, 2020-04-09)"
   sodipodi:docname="noun_Chapel_2650948.svg"
   id="svg8"
   xml:space="preserve"
   enable-background="new 0 0 55.01 75.29"
   viewBox="0 0 55.01 94.11250000000001"
   y="0px"
   x="0px"
   version="1.1"><metadata
     id="metadata14"><rdf:RDF><cc:Work
         rdf:about=""><dc:format>image/svg+xml</dc:format><dc:type
           rdf:resource="http://purl.org/dc/dcmitype/StillImage" /></cc:Work></rdf:RDF></metadata><defs
     id="defs12" /><sodipodi:namedview
     inkscape:current-layer="svg8"
     inkscape:window-maximized="1"
     inkscape:window-y="-8"
     inkscape:window-x="-8"
     inkscape:cy="47.056252"
     inkscape:cx="27.504999"
     inkscape:zoom="2.635144"
     showgrid="false"
     id="namedview10"
     inkscape:window-height="988"
     inkscape:window-width="1680"
     inkscape:pageshadow="2"
     inkscape:pageopacity="0"
     guidetolerance="10"
     gridtolerance="10"
     objecttolerance="10"
     borderopacity="1"
     bordercolor="#666666"
     pagecolor="#ffffff" /><path
     style="stroke-width:1.1802"
     inkscape:connector-curvature="0"
     id="path2"
     d="m 35.871292,27.013556 -7.261777,-7.252337 v -8.236624 h 4.228661 v -0.59128 h 0.0024 V 9.7531122 h -0.0024 V 9.1653727 H 28.609515 V 5.456 h -0.587741 -1.180201 -0.591281 v 3.7093727 h -4.228661 v 2.3604023 h 4.228661 v 8.242524 L 18.992054,27.019457 0.86770442,45.122563 V 81.433812 H 19.774528 V 60.171308 c 0,-3.881681 3.427305,-7.026919 7.655965,-7.026919 4.228661,0 7.653604,3.145238 7.653604,7.026919 V 81.433812 H 53.992101 V 45.122563 Z m -8.443159,17.734883 c -3.10865,0 -5.63074,-2.52209 -5.63074,-5.63074 0,-3.10865 2.52209,-5.63074 5.63074,-5.63074 3.108649,0 5.630739,2.52209 5.630739,5.63074 0,3.10865 -2.520909,5.63074 -5.630739,5.63074 z" /></svg>
