<?xml version="1.0" encoding="UTF-8" standalone="no"?>
<svg
   xmlns:dc="http://purl.org/dc/elements/1.1/"
   xmlns:cc="http://creativecommons.org/ns#"
   xmlns:rdf="http://www.w3.org/1999/02/22-rdf-syntax-ns#"
   xmlns:svg="http://www.w3.org/2000/svg"
   xmlns="http://www.w3.org/2000/svg"
   xmlns:sodipodi="http://sodipodi.sourceforge.net/DTD/sodipodi-0.dtd"
   xmlns:inkscape="http://www.inkscape.org/namespaces/inkscape"
   inkscape:version="1.0rc1 (09960d6f05, 2020-04-09)"
   sodipodi:docname="noun_Chocolate_1869238.svg"
   id="svg12"
   stroke-miterlimit="1.41421"
   stroke-linejoin="round"
   clip-rule="evenodd"
   fill-rule="evenodd"
   y="0px"
   x="0px"
   style=""
   xml:space="preserve"
   version="1.1"
   viewBox="0 0 169 128.75"><metadata
     id="metadata18"><rdf:RDF><cc:Work
         rdf:about=""><dc:format>image/svg+xml</dc:format><dc:type
           rdf:resource="http://purl.org/dc/dcmitype/StillImage" /></cc:Work></rdf:RDF></metadata><defs
     id="defs16" /><sodipodi:namedview
     inkscape:current-layer="g4"
     inkscape:window-maximized="1"
     inkscape:window-y="-8"
     inkscape:window-x="-8"
     inkscape:cy="25.089582"
     inkscape:cx="135.56606"
     inkscape:zoom="1.9748781"
     showgrid="false"
     id="namedview14"
     inkscape:window-height="988"
     inkscape:window-width="1680"
     inkscape:pageshadow="2"
     inkscape:pageopacity="0"
     guidetolerance="10"
     gridtolerance="10"
     objecttolerance="10"
     borderopacity="1"
     bordercolor="#666666"
     pagecolor="#ffffff" /><g
     transform="matrix(0.288408,0,0,0.288408,-693.477,-491.52)"
     id="g4"><path
       style="stroke-width:1.24965"
       sodipodi:nodetypes="cccccccccccccccccccccccscsssssssscssssssssscsscssccccccccccccccscccccscsscssssscsssssscsscsscssscsscsscsssssccsssscsscsscssscssssscsssssscssssscsscss"
       d="m 2918.9361,2008.9443 c -3.5865,-3.8364 -8.5351,-6.0983 -13.7711,-6.2732 -5.2485,-0.1875 -10.3471,1.712 -14.1835,5.286 -15.1332,14.1085 -38.7515,36.1273 -53.8723,50.2233 -3.8364,3.5865 -6.0982,8.5351 -6.2857,13.7711 -0.1874,5.2485 1.7245,10.3471 5.2985,14.1835 14.1085,15.1332 36.1148,38.7515 50.2233,53.8723 3.574,3.8364 8.5226,6.0982 13.7711,6.2857 5.2361,0.1874 10.3346,-1.7245 14.171,-5.2985 15.1333,-14.1085 38.7516,-36.1148 53.8848,-50.2233 3.8364,-3.574 6.0983,-8.5226 6.2732,-13.7711 0.1875,-5.2361 -1.712,-10.3346 -5.2985,-14.171 -14.096,-15.1333 -36.1148,-38.7516 -50.2108,-53.8848 z m -115.5673,77.6031 c 0.6998,-0.7998 1.787,-1.1372 2.8242,-0.8623 1.0247,0.2624 1.812,1.0997 2.0369,2.1369 1.712,8.1227 4.8736,23.1685 6.4482,30.6414 0.1999,0.9497 -0.1125,1.9369 -0.8123,2.6117 -0.7123,0.6748 -1.712,0.9248 -2.6492,0.6873 -6.8981,-1.812 -20.1943,-5.2985 -27.0924,-7.098 -0.9372,-0.2499 -1.687,-0.9622 -1.9744,-1.8994 -0.2874,-0.9248 -0.062,-1.937 0.5748,-2.6743 5.0361,-5.7359 15.1707,-17.3076 20.6442,-23.5433 z m -40.5511,-90.6619 c 0,-5.2485 -2.0869,-10.2721 -5.7983,-13.9836 -3.699,-3.7114 -8.7351,-5.7858 -13.9836,-5.7858 h -73.6542 c -5.2485,0 -10.2721,2.0744 -13.9835,5.7858 -3.7115,3.7115 -5.7859,8.7351 -5.7859,13.9836 v 73.6542 c 0,5.2485 2.0744,10.2721 5.7859,13.9835 3.7114,3.7115 8.735,5.7984 13.9835,5.7984 h 73.6542 c 5.2485,0 10.2846,-2.0869 13.9836,-5.7984 3.7114,-3.7114 5.7983,-8.735 5.7983,-13.9835 z m -149.8951,-19.7694 c 5.2485,0 10.2721,2.0744 13.9835,5.7858 3.7115,3.7115 5.7859,8.7351 5.7859,13.9836 v 73.6542 c 0,5.2485 -2.0744,10.2721 -5.7859,13.9835 -3.7114,3.7115 -8.735,5.7984 -13.9835,5.7984 h -73.6542 c -5.2485,0 -10.2846,-2.0869 -13.9835,-5.7984 -3.7115,-3.7114 -5.7984,-8.735 -5.7984,-13.9835 v -73.6542 c 0,-5.2485 2.0869,-10.2721 5.7984,-13.9836 3.6989,-3.7114 8.735,-5.7858 13.9835,-5.7858 z m 339.829,29.5166 c -0.7623,-0.7498 -1.0372,-1.8619 -0.7123,-2.8742 0.3374,-1.0122 1.1996,-1.7495 2.2618,-1.9119 8.1977,-1.2372 23.4059,-3.5365 30.9538,-4.6862 0.9622,-0.1375 1.9369,0.2249 2.5618,0.9622 0.6248,0.7498 0.8372,1.762 0.5248,2.6868 -2.1994,6.7856 -6.4357,19.8569 -8.635,26.6424 -0.3,0.9248 -1.0497,1.6246 -1.9995,1.862 -0.9497,0.225 -1.9494,-0.05 -2.6367,-0.7248 -5.4485,-5.361 -16.4079,-16.1329 -22.3187,-21.9563 z m -29.3792,-34.2653 c -0.8373,0.6498 -1.9745,0.7748 -2.9367,0.3124 -0.9497,-0.4623 -1.5746,-1.4246 -1.587,-2.4868 -0.125,-8.2976 -0.3624,-23.6683 -0.4749,-31.3036 -0.012,-0.9748 0.4749,-1.887 1.2996,-2.4118 0.8248,-0.5249 1.8495,-0.5874 2.7242,-0.1625 6.4357,3.0866 18.8197,9.0474 25.2429,12.1466 0.8748,0.4124 1.4746,1.2621 1.5746,2.2243 0.1,0.9748 -0.2999,1.9245 -1.0747,2.5243 -6.0358,4.6737 -18.1949,14.0835 -24.768,19.1571 z m -180.3366,-130.5006 c 5.2485,0 10.2846,2.0869 13.9836,5.7983 3.7114,3.699 5.7983,8.7351 5.7983,13.9836 v 73.6542 c 0,5.2485 -2.0869,10.2721 -5.7983,13.9835 -3.699,3.7115 -8.7351,5.7859 -13.9836,5.7859 h -73.6542 c -5.2485,0 -10.2721,-2.0744 -13.9835,-5.7859 -3.7115,-3.7114 -5.7859,-8.735 -5.7859,-13.9835 v -73.6542 c 0,-5.2485 2.0744,-10.2846 5.7859,-13.9836 3.7114,-3.7114 8.735,-5.7983 13.9835,-5.7983 z m 149.8952,19.7819 c 0,-5.2485 -2.0869,-10.2846 -5.7859,-13.9836 -3.7114,-3.7114 -8.7475,-5.7983 -13.9835,-5.7983 h -73.6542 c -5.2485,0 -10.2846,2.0869 -13.9836,5.7983 -3.7114,3.699 -5.7983,8.7351 -5.7983,13.9836 v 73.6542 c 0,5.2485 2.0869,10.2721 5.7983,13.9835 3.699,3.7115 8.7351,5.7859 13.9836,5.7859 h 73.6542 c 5.236,0 10.2721,-2.0744 13.9835,-5.7859 3.699,-3.7114 5.7859,-8.735 5.7859,-13.9835 z m -260.239,0 c 0,-5.2485 -2.0744,-10.2846 -5.7859,-13.9836 -3.7114,-3.7114 -8.735,-5.7983 -13.9835,-5.7983 h -73.6542 c -5.2485,0 -10.2846,2.0869 -13.9835,5.7983 -3.7115,3.699 -5.7984,8.7351 -5.7984,13.9836 v 73.6542 c 0,5.2485 2.0869,10.2721 5.7984,13.9835 3.6989,3.7115 8.735,5.7859 13.9835,5.7859 h 73.6542 c 5.2485,0 10.2721,-2.0744 13.9835,-5.7859 3.7115,-3.7114 5.7859,-8.735 5.7859,-13.9835 z m -373.4445,73.6542 c -0.3582,-153.5964 -0.1792,-76.7982 0,0 z M 2743.0358,1705.63 c 5.2485,0 10.2846,2.0869 13.9836,5.7859 3.7114,3.7114 5.7983,8.7475 5.7983,13.9835 v 73.6542 c 0,5.2485 -2.0869,10.2846 -5.7983,13.9836 -3.699,3.7114 -8.7351,5.7983 -13.9836,5.7983 h -73.6542 c -5.2485,0 -10.2721,-2.0869 -13.9835,-5.7983 -3.7115,-3.699 -5.7859,-8.7351 -5.7859,-13.9836 v -73.6542 c 0,-5.236 2.0744,-10.2721 5.7859,-13.9835 3.7114,-3.699 8.735,-5.7859 13.9835,-5.7859 z m 149.8952,19.7694 c 0,-5.236 -2.0869,-10.2721 -5.7859,-13.9835 -3.7114,-3.699 -8.7475,-5.7859 -13.9835,-5.7859 h -73.6542 c -5.2485,0 -10.2846,2.0869 -13.9836,5.7859 -3.7114,3.7114 -5.7983,8.7475 -5.7983,13.9835 v 73.6542 c 0,5.2485 2.0869,10.2846 5.7983,13.9836 3.699,3.7114 8.7351,5.7983 13.9836,5.7983 h 73.6542 c 5.236,0 10.2721,-2.0869 13.9835,-5.7983 3.699,-3.699 5.7859,-8.7351 5.7859,-13.9836 z m -260.239,0 c 0,-5.236 -2.0744,-10.2721 -5.7859,-13.9835 -3.7114,-3.699 -8.735,-5.7859 -13.9835,-5.7859 h -73.6542 c -5.2485,0 -10.2846,2.0869 -13.9835,5.7859 -3.7115,3.7114 -5.7984,8.7475 -5.7984,13.9835 v 73.6542 c 0,5.2485 2.0869,10.2846 5.7984,13.9836 3.6989,3.7114 8.735,5.7983 13.9835,5.7983 h 73.6542 c 5.2485,0 10.2721,-2.0869 13.9835,-5.7983 3.7115,-3.699 5.7859,-8.7351 5.7859,-13.9836 z"
       id="path2"
       inkscape:connector-curvature="0" /></g></svg>
