<?xml version="1.0" encoding="UTF-8" standalone="no"?>
<svg
   xmlns:dc="http://purl.org/dc/elements/1.1/"
   xmlns:cc="http://creativecommons.org/ns#"
   xmlns:rdf="http://www.w3.org/1999/02/22-rdf-syntax-ns#"
   xmlns:svg="http://www.w3.org/2000/svg"
   xmlns="http://www.w3.org/2000/svg"
   xmlns:sodipodi="http://sodipodi.sourceforge.net/DTD/sodipodi-0.dtd"
   xmlns:inkscape="http://www.inkscape.org/namespaces/inkscape"
   inkscape:version="1.0rc1 (09960d6f05, 2020-04-09)"
   sodipodi:docname="noun_Remote Control Car_1136461.svg"
   id="svg16"
   version="1.1"
   y="0px"
   x="0px"
   viewBox="0 0 60 75">
  <metadata
     id="metadata22">
    <rdf:RDF>
      <cc:Work
         rdf:about="">
        <dc:format>image/svg+xml</dc:format>
        <dc:type
           rdf:resource="http://purl.org/dc/dcmitype/StillImage" />
      </cc:Work>
    </rdf:RDF>
  </metadata>
  <defs
     id="defs20" />
  <sodipodi:namedview
     inkscape:current-layer="svg16"
     inkscape:window-maximized="1"
     inkscape:window-y="-8"
     inkscape:window-x="-8"
     inkscape:cy="37.5"
     inkscape:cx="30"
     inkscape:zoom="3.3066667"
     showgrid="false"
     id="namedview18"
     inkscape:window-height="988"
     inkscape:window-width="1680"
     inkscape:pageshadow="2"
     inkscape:pageopacity="0"
     guidetolerance="10"
     gridtolerance="10"
     objecttolerance="10"
     borderopacity="1"
     bordercolor="#666666"
     pagecolor="#ffffff" />
  <title
     id="title2">Toys - 046 - RC Racer</title>
  <path
     inkscape:connector-curvature="0"
     id="path4"
     d="M 59.42,37.29 A 1.00936,1.00936 0 0 0 59.21,37.14 L 57.74,36.28 A 2.02288,2.02288 0 0 0 56.73,36 h -5.07 a 2.00735,2.00735 0 0 0 -1.84,1.22 l -1.2,2.8 a 7.946,7.946 0 0 0 -1.88,0.31 0.94883,0.94883 0 0 0 -0.19,-0.16 L 35.06,32.52 A 2.89794,2.89794 0 0 0 33.39,32 H 31 V 17 a 1,1 0 0 0 0,-2 h -2 a 1,1 0 0 0 0,2 v 15 h -6.1 a 3.01716,3.01716 0 0 0 -2.25,1.01 L 19.3,34.53 16.07,29 h 1.92 A 2.008,2.008 0 0 0 20,27 V 25.68 A 1.98956,1.98956 0 0 0 18.74,23.82 L 9.51,20.16 A 1.86059,1.86059 0 0 0 8.72,20 H 2.01 a 1.99339,1.99339 0 0 0 -1.53,0.7 1.954,1.954 0 0 0 -0.46,1.59 l 0.72,4.99 A 2.01324,2.01324 0 0 0 2.73,29 H 5.82 L 7.77,40.7 A 7.92958,7.92958 0 0 0 5.08,42.64 L 5.02,42.59 a 1.00155,1.00155 0 0 0 -1.15,1.64 l 0.05,0.04 A 7.875,7.875 0 0 0 3.36,45.64 L 3.29,45.63 a 0.99463561,0.99463561 0 0 0 -0.34,1.96 l 0.08,0.02 C 3.02,47.74 3,47.87 3,48 a 7.87987,7.87987 0 0 0 0.08,1.09 L 3.01,49.1 a 1.00311,1.00311 0 0 0 -0.7,1.23 0.98246,0.98246 0 0 0 0.96,0.74005 1.15233,1.15233 0 0 0 0.26,-0.03 l 0.06,-0.02 a 8.58587,8.58587 0 0 0 0.69,1.31 l -0.05,0.05 a 0.9994,0.9994 0 0 0 -0.13,1.41 1.01323,1.01323 0 0 0 0.77,0.35 0.95178,0.95178 0 0 0 0.64,-0.23 l 0.06,-0.05 a 7.28143,7.28143 0 0 0 1.17,0.9 L 6.71,54.83 a 1.00528,1.00528 0 0 0 0.48,1.33 1.06991,1.06991 0 0 0 0.43,0.09 0.98959,0.98959 0 0 0 0.9,-0.58 l 0.03,-0.06 a 6.94107,6.94107 0 0 0 0.9,0.22 3.3299,3.3299 0 0 0 0.55,0.1 V 56 a 1,1 0 0 0 2,0 v -0.07 a 7.96491,7.96491 0 0 0 2.1,-0.57 l 0.03,0.07 a 1.00648,1.00648 0 0 0 0.87,0.5 1.02166,1.02166 0 0 0 0.5,-0.14 0.99623,0.99623 0 0 0 0.37,-1.36 l -0.04,-0.07 a 8.54316,8.54316 0 0 0 1.09,-0.99 l 0.06,0.04 a 1.00155,1.00155 0 0 0 1.15,-1.64 L 18.07,51.73 A 7.85729,7.85729 0 0 0 18.74,50 h 22.53 a 7.95489,7.95489 0 0 0 1.01,2.33 l -0.05,0.05 a 0.9994,0.9994 0 0 0 -0.13,1.41 1.01323,1.01323 0 0 0 0.77,0.35 0.95178,0.95178 0 0 0 0.64,-0.23 l 0.06,-0.05 a 10.1107,10.1107 0 0 0 1.17,0.9 l -0.03,0.06995 a 1.00528,1.00528 0 0 0 0.48,1.33 1.06991,1.06991 0 0 0 0.43,0.09 0.98959,0.98959 0 0 0 0.9,-0.58 l 0.03,-0.06 a 7.8058,7.8058 0 0 0 1.45,0.32 V 56 a 1,1 0 0 0 2,0 v -0.07 a 7.84879,7.84879 0 0 0 2.1,-0.56 l 0.03,0.06 a 1.00648,1.00648 0 0 0 0.87,0.5 1.02166,1.02166 0 0 0 0.5,-0.14 0.99623,0.99623 0 0 0 0.37,-1.36 l -0.04,-0.07 a 9.27746,9.27746 0 0 0 1.09,-0.99 l 0.06,0.04 a 1.00155,1.00155 0 0 0 1.15,-1.64 l -0.06,-0.04 a 7.90669,7.90669 0 0 0 0.57,-1.37 l 0.06,0.01 a 1.10078,1.10078 0 0 0 0.18,0.02 0.99762,0.99762 0 0 0 0.17,-1.98 L 56.98,48.39 C 56.99,48.26 57,48.13 57,48 A 7.88075,7.88075 0 0 0 56.92,46.91 L 56.98,46.9 A 1.003,1.003 0 0 0 56.47,44.96 L 56.4,44.98 A 8.16547,8.16547 0 0 0 55.74,43.7 l 3.68,-3.58 a 2.02226,2.02226 0 0 0 0,-2.83 z M 11,52 a 4,4 0 1 1 4,-4 3.99891,3.99891 0 0 1 -4,4 z M 14.14,40.34 A 0.76793,0.76793 0 0 0 14,40.59 c -0.14,-0.06 -0.27,-0.1 -0.4,-0.15 A 2.25267,2.25267 0 0 1 13.36,40.36 9.92893,9.92893 0 0 0 12.31,40.12 C 12.22,40.1 12.14,40.1 12.06,40.08 11.74,40.04 11.42,40.02 11.1,40.01005 h -0.19 a 7.8506,7.8506 0 0 0 -1.08,0.08 0.57,0.57 0 0 1 -0.13,0.01 L 7.85,29 h 5.9 l 0.59,1.01 3.56,6.09 z m 24.64,1.27 A 1.9742,1.9742 0 0 1 36.88,43 H 29 a 2.00591,2.00591 0 0 1 -2,-2 v -3 a 2.00587,2.00587 0 0 1 2,-2 h 3.68 a 2.00122,2.00122 0 0 1 1.16,0.37 l 4.2,3 a 1.9781,1.9781 0 0 1 0.74,2.24 z M 49,52 a 4,4 0 1 1 4,-4 3.99891,3.99891 0 0 1 -4,4 z m 5.46,-9.85 -0.15,-0.12 C 54.13,41.87 53.95,41.73 53.76,41.59 53.68,41.52 53.59,41.46 53.51,41.4 53.3,41.26 53.09,41.14005 52.88,41.02 A 2.25881,2.25881 0 0 0 52.67,40.9 7.60824,7.60824 0 0 0 51.79,40.51 C 51.72,40.48 51.65,40.47 51.58,40.44 51.34,40.36 51.1,40.29 50.85,40.23 50.81,40.22 50.76,40.2 50.72,40.19 L 51.66,38 h 5.07 l 1.24,0.73 z" />
  <polygon
     transform="translate(0,-2)"
     id="polygon6"
     points="29,43 36.88,43 32.68,40 29,40 " />
  <circle
     id="circle8"
     r="2"
     cy="48"
     cx="49" />
  <circle
     id="circle10"
     r="2"
     cy="48"
     cx="11" />
</svg>
