<?xml version="1.0" encoding="UTF-8" standalone="no"?>
<svg
   xmlns:dc="http://purl.org/dc/elements/1.1/"
   xmlns:cc="http://creativecommons.org/ns#"
   xmlns:rdf="http://www.w3.org/1999/02/22-rdf-syntax-ns#"
   xmlns:svg="http://www.w3.org/2000/svg"
   xmlns="http://www.w3.org/2000/svg"
   xmlns:sodipodi="http://sodipodi.sourceforge.net/DTD/sodipodi-0.dtd"
   xmlns:inkscape="http://www.inkscape.org/namespaces/inkscape"
   inkscape:version="1.0rc1 (09960d6f05, 2020-04-09)"
   sodipodi:docname="noun_airplane stamp_2673831.svg"
   id="svg32"
   version="1.1"
   y="0px"
   x="0px"
   viewBox="0 0 64 80">
  <metadata
     id="metadata38">
    <rdf:RDF>
      <cc:Work
         rdf:about="">
        <dc:format>image/svg+xml</dc:format>
        <dc:type
           rdf:resource="http://purl.org/dc/dcmitype/StillImage" />
      </cc:Work>
    </rdf:RDF>
  </metadata>
  <defs
     id="defs36" />
  <sodipodi:namedview
     inkscape:current-layer="svg32"
     inkscape:window-maximized="1"
     inkscape:window-y="-8"
     inkscape:window-x="-8"
     inkscape:cy="40"
     inkscape:cx="32"
     inkscape:zoom="3.1"
     showgrid="false"
     id="namedview34"
     inkscape:window-height="988"
     inkscape:window-width="1680"
     inkscape:pageshadow="2"
     inkscape:pageopacity="0"
     guidetolerance="10"
     gridtolerance="10"
     objecttolerance="10"
     borderopacity="1"
     bordercolor="#666666"
     pagecolor="#ffffff" />
  <title
     id="title2">airplane-stamp-rectangle-grunge</title>
  <path
     style="stroke-width:1.08997"
     inkscape:connector-curvature="0"
     id="path4"
     d="M 33.207225,28.365659 H 8.3266081 V 59.974626 H 54.105113 V 40.058798 A 32.862426,32.862426 0 0 1 33.207225,28.365659 Z m -12.262099,15.986509 -1.827871,3.66882 -1.951036,-0.980969 1.590258,-3.180515 -1.595708,-3.177247 1.951037,-0.975518 1.83332,3.66882 a 1.0899644,1.0899644 0 0 1 0,0.976609 z m 9.125182,12.924797 a 1.0899644,1.0899644 0 0 1 -0.92538,0.517733 h -1.836591 a 1.0899644,1.0899644 0 0 1 -1.018025,-1.481262 l 3.670999,-9.527379 -8.236861,-0.610379 0.161315,-2.173389 9.700683,0.718286 a 1.0899644,1.0899644 0 0 1 0.93628,1.477992 l -3.024651,7.856464 5.438921,-8.819993 1.85294,1.144463 z M 43.495399,41.445232 a 1.0899644,1.0899644 0 0 1 0.31173,0.04578 l 2.250776,0.670329 a 1.7286835,1.7286835 0 0 1 1.307957,1.702524 1.7526628,1.7526628 0 0 1 -1.382074,1.722144 l -2.540707,0.564601 -0.473045,-2.127611 0.980969,-0.217992 -0.614741,-0.179845 H 35.865649 A 1.0899644,1.0899644 0 0 1 34.936998,43.10743 l -5.013835,-8.126775 2.582125,6.035133 a 1.0899644,1.0899644 0 0 1 -0.881781,1.51287 l -3.269893,0.362959 -0.240882,-2.165759 1.810431,-0.201643 -3.612143,-8.459214 a 1.0899644,1.0899644 0 0 1 0.997317,-1.519411 h 1.836591 a 1.0899644,1.0899644 0 0 1 0.92756,0.517733 l 6.401361,10.381911 z" />
  <path
     style="stroke-width:1.08997"
     inkscape:connector-curvature="0"
     id="path6"
     d="m 41.596681,26.185731 a 24.980894,24.980894 0 0 1 -4.517903,-5.449822 h -2.631174 a 3.8148754,3.8148754 0 0 1 -2.009894,2.820827 30.871061,30.871061 0 0 0 1.819151,2.628995 z" />
  <path
     style="stroke-width:1.08997"
     inkscape:connector-curvature="0"
     id="path8"
     d="m 54.105113,28.365659 h -5.402954 a 22.796605,22.796605 0 0 0 5.402954,1.752664 z" />
  <path
     style="stroke-width:1.08997"
     inkscape:connector-curvature="0"
     id="path10"
     d="m 58.845367,40.346548 c -0.126435,0 -0.252871,0.0088 -0.380397,0.0088 -0.732456,0 -1.458372,-0.0327 -2.179928,-0.08174 v 20.791071 a 1.0899644,1.0899644 0 0 1 -1.089965,1.089964 H 7.2366437 A 1.0899644,1.0899644 0 0 1 6.1466793,61.064591 V 27.275695 A 1.0899644,1.0899644 0 0 1 7.2366437,26.185731 H 31.560289 q -0.750985,-1.082335 -1.416954,-2.227888 a 3.8148754,3.8148754 0 0 1 -3.249183,-3.221934 h -3.346191 a 3.8148754,3.8148754 0 0 1 -7.553453,0 h -3.346191 a 3.8148754,3.8148754 0 0 1 -7.5534533,0 H 0.69685739 v 3.309131 a 3.8148754,3.8148754 0 0 1 0,7.551274 v 3.34837 a 3.8148754,3.8148754 0 0 1 0,7.551274 v 3.34837 a 3.8148754,3.8148754 0 0 1 0,7.551273 v 3.348371 a 3.8148754,3.8148754 0 0 1 0,7.551273 v 3.309133 H 6.1466793 v -0.544983 a 2.724911,2.724911 0 0 1 2.724911,-2.724911 h 2.1908287 a 2.724911,2.724911 0 0 1 2.714011,2.724911 v 0.544983 h 3.269893 v -0.544983 a 2.724911,2.724911 0 0 1 2.724912,-2.724911 h 2.190828 a 2.724911,2.724911 0 0 1 2.714011,2.724911 v 0.544983 h 3.269893 v -0.544983 a 2.724911,2.724911 0 0 1 2.724912,-2.724911 h 2.190827 a 2.724911,2.724911 0 0 1 2.714012,2.724911 v 0.544983 h 3.269893 v -0.544983 a 2.724911,2.724911 0 0 1 2.724911,-2.724911 h 2.190828 a 2.724911,2.724911 0 0 1 2.714011,2.724911 v 0.544983 h 3.269894 v -0.544983 a 2.724911,2.724911 0 0 1 2.724911,-2.724911 h 2.190828 a 2.724911,2.724911 0 0 1 2.714011,2.724911 v 0.544983 h 4.359858 v -3.309133 a 3.8148754,3.8148754 0 0 1 0,-7.551273 v -3.348371 a 3.8148754,3.8148754 0 0 1 0,-7.551273 v -3.34837 a 3.8148754,3.8148754 0 0 1 -2.889496,-2.14941 z" />
  <path
     style="stroke-width:1.08997"
     inkscape:connector-curvature="0"
     id="path12"
     d="m 56.246892,20.735909 a 3.8148754,3.8148754 0 0 1 -7.553453,0 h -3.346191 a 3.8225051,3.8225051 0 0 1 -3.001762,3.184876 22.917591,22.917591 0 0 0 2.688943,2.264946 h 10.160648 a 1.0899644,1.0899644 0 0 1 1.089965,1.089964 v 3.160896 c 0.719376,0.06758 1.445292,0.108997 2.179928,0.108997 0.379308,0 0.762975,-0.01417 1.134653,-0.0327 a 3.7974359,3.7974359 0 0 1 2.13524,-6.467849 v -3.309131 z" />
  <path
     style="stroke-width:1.08997"
     inkscape:connector-curvature="0"
     id="path14"
     d="M 36.10108,28.365659 A 30.647619,30.647619 0 0 0 54.105113,37.85707 V 32.34294 A 24.991794,24.991794 0 0 1 44.339032,28.365659 Z" />
  <path
     style="stroke-width:1.08997"
     inkscape:connector-curvature="0"
     id="path16"
     d="m 56.285042,32.62851 v 5.460722 c 0.721556,0.05123 1.447472,0.0861 2.179928,0.0861 h 0.05014 a 3.8148754,3.8148754 0 0 1 3.219754,-3.230655 v -2.43716 a 24.928575,24.928575 0 0 1 -3.269893,0.217993 c -0.733546,0 -1.460552,-0.03488 -2.179928,-0.09701 z" />
  <path
     style="stroke-width:1.08997"
     inkscape:connector-curvature="0"
     id="path18"
     d="M 30.670879,21.825873 A 1.6349466,1.6349466 0 0 1 29.035932,20.190926 V 19.645944 A 1.0899644,1.0899644 0 0 0 27.945967,18.55598 h -0.29429 a 31.816061,31.816061 0 0 1 -1.569549,-6.387191 l 2.15813,-0.30519 a 29.835595,29.835595 0 0 0 3.128197,9.79878 1.4954312,1.4954312 0 0 1 -0.697576,0.163494 z" />
  <path
     style="stroke-width:1.08997"
     inkscape:connector-curvature="0"
     id="path20"
     d="m 64.110986,39.853884 c -0.828373,0.152595 -1.656746,0.272492 -2.506919,0.348789 a 1.6142373,1.6142373 0 0 1 -0.959168,-1.482352 1.5259501,1.5259501 0 0 1 0.130796,-0.63218 29.329852,29.329852 0 0 0 2.942903,-0.370587 z" />
  <path
     style="stroke-width:1.08997"
     inkscape:connector-curvature="0"
     id="path22"
     d="M 38.322429,18.55598 H 35.880908 A 24.721483,24.721483 0 0 1 33.820875,12.212387 L 35.957206,11.82 a 22.695238,22.695238 0 0 0 2.365223,6.73598 z" />
  <path
     style="stroke-width:1.08997"
     inkscape:connector-curvature="0"
     id="path24"
     d="m 64.165484,32.060639 a 2.0622126,2.0622126 0 0 1 -0.250692,0.0545 c -0.719376,0.163495 -1.438753,0.29429 -2.179929,0.392387 V 31.591954 A 3.7690969,3.7690969 0 0 1 59.838326,30.741782 1.6425764,1.6425764 0 0 1 59.587634,30.512889 23.090896,23.090896 0 0 0 63.6641,29.946108 l 0.250692,1.057265 z" />
  <path
     style="stroke-width:1.08997"
     inkscape:connector-curvature="0"
     id="path26"
     d="m 63.6641,29.946108 a 23.090896,23.090896 0 0 1 -4.076466,0.566781 1.6425764,1.6425764 0 0 0 0.250692,0.228893 3.7690969,3.7690969 0 0 0 1.896537,0.850172 v 0.91557 c 0.741176,-0.0981 1.460553,-0.228892 2.179929,-0.392387 v -1.111764 z" />
</svg>
