<?xml version="1.0" encoding="UTF-8" standalone="no"?>
<svg
   xmlns:dc="http://purl.org/dc/elements/1.1/"
   xmlns:cc="http://creativecommons.org/ns#"
   xmlns:rdf="http://www.w3.org/1999/02/22-rdf-syntax-ns#"
   xmlns:svg="http://www.w3.org/2000/svg"
   xmlns="http://www.w3.org/2000/svg"
   xmlns:sodipodi="http://sodipodi.sourceforge.net/DTD/sodipodi-0.dtd"
   xmlns:inkscape="http://www.inkscape.org/namespaces/inkscape"
   inkscape:version="1.0rc1 (09960d6f05, 2020-04-09)"
   sodipodi:docname="noun_building construction_1348720.svg"
   id="svg10"
   xml:space="preserve"
   enable-background="new 0 0 50 50"
   viewBox="0 0 50 62.5"
   y="0px"
   x="0px"
   version="1.1"><metadata
     id="metadata16"><rdf:RDF><cc:Work
         rdf:about=""><dc:format>image/svg+xml</dc:format><dc:type
           rdf:resource="http://purl.org/dc/dcmitype/StillImage" /></cc:Work></rdf:RDF></metadata><defs
     id="defs14" /><sodipodi:namedview
     inkscape:current-layer="svg10"
     inkscape:window-maximized="1"
     inkscape:window-y="-8"
     inkscape:window-x="-8"
     inkscape:cy="31.25"
     inkscape:cx="25"
     inkscape:zoom="3.968"
     showgrid="false"
     id="namedview12"
     inkscape:window-height="988"
     inkscape:window-width="1680"
     inkscape:pageshadow="2"
     inkscape:pageopacity="0"
     guidetolerance="10"
     gridtolerance="10"
     objecttolerance="10"
     borderopacity="1"
     bordercolor="#666666"
     pagecolor="#ffffff" /><g
     transform="translate(0,6)"
     id="g4"><path
       inkscape:connector-curvature="0"
       id="path2"
       d="M 16.077,5.49 V 8.934 L 11.857,5.49 Z m -1.306,4.877 H 10.006 V 6.478 Z m -4.765,3.375 4.765,3.888 h -4.765 z m 6.071,-1.433 v 3.889 l -4.764,-3.889 z m -6.071,8.696 4.765,3.889 h -4.765 z m 1.307,-1.433 h 4.764 v 3.889 z m -1.307,15.96 4.221,3.445 h -4.221 z m 1.307,-1.433 h 4.764 v 3.889 z m -1.307,-5.83 4.765,3.888 h -4.765 z m 6.071,-1.434 v 3.889 l -4.764,-3.889 z m 24.573,9.352 h 3.875 v 6.58 H 40.65 Z m -6.194,0 h 3.875 v 6.58 h -3.875 z m 3.875,-8.504 v 6.58 h -3.875 v -6.58 z m 2.319,0 h 3.875 v 6.58 H 40.65 Z M 38.911,16.206 v 6.679 h -9.93 V 47.34 H 50 V 16.206 Z M 0,11.09 1.079,18.146 7.177,17.214 V 38.976 H 1.105 v 8.363 H 24.978 V 38.976 H 18.907 V 15.423 l 13.079,-2 v 1.613 h -3.06 v 6.512 h 8.225 v -6.512 h -3.223 v -1.91 L 40.117,12.18 39.038,5.123 18.907,8.201 V 2.66 H 7.177 v 7.334 z"
       clip-rule="evenodd"
       fill-rule="evenodd" /></g></svg>
