<?xml version="1.0" encoding="UTF-8" standalone="no"?>
<svg
   xmlns:dc="http://purl.org/dc/elements/1.1/"
   xmlns:cc="http://creativecommons.org/ns#"
   xmlns:rdf="http://www.w3.org/1999/02/22-rdf-syntax-ns#"
   xmlns:svg="http://www.w3.org/2000/svg"
   xmlns="http://www.w3.org/2000/svg"
   xmlns:sodipodi="http://sodipodi.sourceforge.net/DTD/sodipodi-0.dtd"
   xmlns:inkscape="http://www.inkscape.org/namespaces/inkscape"
   inkscape:version="1.0rc1 (09960d6f05, 2020-04-09)"
   sodipodi:docname="noun_Key_83077.svg"
   id="svg8"
   xml:space="preserve"
   enable-background="new 0 0 100 100"
   viewBox="0 0 100 125"
   y="0px"
   x="0px"
   version="1.1"><metadata
     id="metadata14"><rdf:RDF><cc:Work
         rdf:about=""><dc:format>image/svg+xml</dc:format><dc:type
           rdf:resource="http://purl.org/dc/dcmitype/StillImage" /></cc:Work></rdf:RDF></metadata><defs
     id="defs12" /><sodipodi:namedview
     inkscape:current-layer="svg8"
     inkscape:window-maximized="1"
     inkscape:window-y="-8"
     inkscape:window-x="-8"
     inkscape:cy="62.5"
     inkscape:cx="50"
     inkscape:zoom="1.984"
     showgrid="false"
     id="namedview10"
     inkscape:window-height="988"
     inkscape:window-width="1680"
     inkscape:pageshadow="2"
     inkscape:pageopacity="0"
     guidetolerance="10"
     gridtolerance="10"
     objecttolerance="10"
     borderopacity="1"
     bordercolor="#666666"
     pagecolor="#ffffff" /><path
     style="stroke-width:1.17394"
     inkscape:connector-curvature="0"
     id="path2"
     d="m 61.337878,9 c 2.891406,0 5.778116,0 8.670695,0 0.599882,0.1326549 1.19272,0.2735271 1.801992,0.3967905 9.424362,1.8888635 16.795508,6.8217445 22.057091,14.8855125 2.705923,4.153388 4.108777,8.791611 5.026796,13.608271 0,2.754055 0,5.501067 0,8.253947 -0.112698,0.535315 -0.23831,1.07063 -0.345138,1.605945 -3.314022,17.706483 -19.151598,29.355454 -37.044737,27.178976 -1.38994,-0.167874 -2.18939,0.297005 -2.957146,1.314808 -2.279784,3.011147 -4.649961,5.965944 -6.907441,9.002918 -0.94854,1.280765 -2.076693,1.663468 -3.579331,1.328896 -1.743296,-0.387399 -3.507722,-0.68323 -5.255714,-1.080021 -1.205632,-0.271179 -2.082563,-0.0036 -2.830361,1.053021 -1.315982,1.851297 -2.914884,3.511244 -4.09469,5.436499 -1.419289,2.29622 -3.392676,3.150845 -5.9589,3.36685 -3.413808,0.289962 -4.842488,1.650554 -5.603199,4.958707 -0.535315,2.34083 -1.135196,4.68166 -1.502639,7.05888 -0.297006,1.91821 -1.301896,2.81393 -3.114453,3.29289 -4.716877,1.25611 -9.391491,2.6531 -14.0837148,3.99139 -0.4132252,0 -0.8252768,0 -1.2385031,0 -0.8898431,-0.56233 -1.161023,-1.45803 -1.4122457,-2.40893 -0.7407534,-2.77987 -1.5343344,-5.54684 -2.30208879,-8.3232 0,-0.68323 0,-1.37351 0,-2.06378 C 11.749632,87.484691 22.802242,73.078143 33.961683,58.759641 c 1.405201,-1.79847 1.595379,-3.23889 0.800624,-5.38602 C 29.787165,39.980181 34.003944,25.170974 45.089425,16.173926 49.87439,12.301109 55.417718,10.254938 61.337878,9 Z m 5.870857,21.290511 c -0.0317,4.29778 3.224803,7.58715 7.512019,7.58715 4.173343,0 7.461539,-3.245934 7.507322,-7.415756 0.04813,-4.13343 -3.424372,-7.659935 -7.56015,-7.669326 -4.092342,-0.01409 -7.427495,3.336327 -7.459191,7.497932 z" /></svg>
