<?xml version="1.0" encoding="UTF-8" standalone="no"?>
<svg
   xmlns:dc="http://purl.org/dc/elements/1.1/"
   xmlns:cc="http://creativecommons.org/ns#"
   xmlns:rdf="http://www.w3.org/1999/02/22-rdf-syntax-ns#"
   xmlns:svg="http://www.w3.org/2000/svg"
   xmlns="http://www.w3.org/2000/svg"
   xmlns:sodipodi="http://sodipodi.sourceforge.net/DTD/sodipodi-0.dtd"
   xmlns:inkscape="http://www.inkscape.org/namespaces/inkscape"
   inkscape:version="1.0rc1 (09960d6f05, 2020-04-09)"
   sodipodi:docname="noun_Shoemaker_318016.svg"
   id="svg22"
   xml:space="preserve"
   enable-background="new 0 0 100 100"
   viewBox="0 0 100 125"
   y="0px"
   x="0px"
   version="1.0"><metadata
     id="metadata28"><rdf:RDF><cc:Work
         rdf:about=""><dc:format>image/svg+xml</dc:format><dc:type
           rdf:resource="http://purl.org/dc/dcmitype/StillImage" /></cc:Work></rdf:RDF></metadata><defs
     id="defs26" /><sodipodi:namedview
     inkscape:current-layer="svg22"
     inkscape:window-maximized="1"
     inkscape:window-y="-8"
     inkscape:window-x="-8"
     inkscape:cy="62.5"
     inkscape:cx="50"
     inkscape:zoom="1.984"
     showgrid="false"
     id="namedview24"
     inkscape:window-height="988"
     inkscape:window-width="1680"
     inkscape:pageshadow="2"
     inkscape:pageopacity="0"
     guidetolerance="10"
     gridtolerance="10"
     objecttolerance="10"
     borderopacity="1"
     bordercolor="#666666"
     pagecolor="#ffffff" /><g
     transform="matrix(1.0922207,0,0,1.0922207,-4.4279196,8.2114544)"
     id="g4"><path
       inkscape:connector-curvature="0"
       id="path2"
       d="m 76.792358,52.918861 c -2.254493,-0.30772 -4.323356,-0.681396 -6.242401,-1.104866 L 57.273464,66.492371 c 8.690838,0.152435 16.590649,-0.72136 22.793522,-2.610047 2.425934,-1.236122 4.859299,-9.854889 -3.274628,-10.963463 z" /></g><g
     transform="matrix(1.0922207,0,0,1.0922207,-4.4279196,8.2114544)"
     id="g8"><path
       inkscape:connector-curvature="0"
       id="path6"
       d="M 52.038303,44.403175 C 47.331657,41.10693 44.838451,37.532665 42.472355,34.95232 33.881321,42.028122 20.07806,43.959614 10.281269,36.743603 3.1200738,42.536766 4.6986375,50.846283 6.5130687,64.155975 12.468063,64.367599 25.351879,64.547119 25.351879,64.547119 l 0.05373,-3.444973 c 0,0 2.740429,0.998287 7.485073,2.058159 z" /></g><g
     transform="matrix(1.0922207,0,0,1.0922207,-4.4279196,8.2114544)"
     id="g12"><path
       inkscape:connector-curvature="0"
       id="path10"
       d="M 94.274063,43.203529 93.105644,41.9305 c -0.849121,-0.953514 -2.542129,-1.2715 -3.604622,-0.317985 -0.955047,0 -2.227852,-0.424996 -3.182243,-1.378075 -2.013611,-2.22982 -0.63575,-6.151989 -2.013611,-7.529846 -0.635963,-0.637062 -3.182899,-3.181589 -5.617569,-5.619759 -2.653511,-2.65045 -9.969543,-11.13534 -29.37553,-6.151333 l 0.106579,2.441227 c 0,0 9.649811,-0.106794 16.5391,6.679632 0,0 2.546929,2.75659 0.105927,5.19607 -0.635971,0.74189 -0.951119,1.059437 -0.951119,1.059437 l -1.275863,1.273685 7.84848,7.738633 c 0,0 1.697815,-1.801327 2.226982,-2.226326 1.271065,-1.377858 4.560539,-1.272374 7.102013,1.378074 1.805038,1.698464 2.120399,3.60746 1.169067,4.242993 -0.533974,0.741672 -0.106575,2.332904 0.847817,3.182025 l 1.27259,1.37764 c 1.270409,1.166889 3.074577,1.166889 4.240586,0 l 5.728302,-5.83313 c 1.165145,-1.271064 1.165145,-3.072609 0.0015,-4.239933 z" /></g><g
     transform="matrix(1.0922207,0,0,1.0922207,-4.4279196,8.2114544)"
     id="g16"><polygon
       id="polygon14"
       points="25.875593,75.014603 35.73856,84.980217 69.881012,47.232929 62.245678,39.385971 " /></g></svg>
