<?xml version="1.0" encoding="UTF-8" standalone="no"?>
<svg
   xmlns:dc="http://purl.org/dc/elements/1.1/"
   xmlns:cc="http://creativecommons.org/ns#"
   xmlns:rdf="http://www.w3.org/1999/02/22-rdf-syntax-ns#"
   xmlns:svg="http://www.w3.org/2000/svg"
   xmlns="http://www.w3.org/2000/svg"
   xmlns:sodipodi="http://sodipodi.sourceforge.net/DTD/sodipodi-0.dtd"
   xmlns:inkscape="http://www.inkscape.org/namespaces/inkscape"
   inkscape:version="1.0rc1 (09960d6f05, 2020-04-09)"
   sodipodi:docname="noun_accountant_223621.svg"
   id="svg8"
   xml:space="preserve"
   enable-background="new 0 0 100 100"
   viewBox="0 0 100 125"
   y="0px"
   x="0px"
   version="1.1"><metadata
     id="metadata14"><rdf:RDF><cc:Work
         rdf:about=""><dc:format>image/svg+xml</dc:format><dc:type
           rdf:resource="http://purl.org/dc/dcmitype/StillImage" /></cc:Work></rdf:RDF></metadata><defs
     id="defs12" /><sodipodi:namedview
     inkscape:current-layer="svg8"
     inkscape:window-maximized="1"
     inkscape:window-y="-8"
     inkscape:window-x="-8"
     inkscape:cy="71.031482"
     inkscape:cx="75.635713"
     inkscape:zoom="3.968"
     showgrid="false"
     id="namedview10"
     inkscape:window-height="988"
     inkscape:window-width="1680"
     inkscape:pageshadow="2"
     inkscape:pageopacity="0"
     guidetolerance="10"
     gridtolerance="10"
     objecttolerance="10"
     borderopacity="1"
     bordercolor="#666666"
     pagecolor="#ffffff" /><path
     inkscape:connector-curvature="0"
     id="path2"
     d="m 58.1,91 c 0,9.6 7.8,17.4 17.4,17.4 9.6,0 17.4,-7.8 17.4,-17.4 0,-9.6 -7.8,-17.4 -17.4,-17.4 -9.7,0.1 -17.4,7.8 -17.4,17.4 z m 11.3,6.9 c 0.2,-0.6 0.3,-1.1 0.5,-1.7 0.2,-0.7 0.4,-0.7 1,-0.4 1,0.5 2.1,0.8 3.3,1 0.7,0.1 1.5,0 2.1,-0.3 1.3,-0.6 1.5,-2 0.4,-2.9 C 76.3,93.3 75.9,93.1 75.5,92.9 74.4,92.4 73.2,92 72.2,91.4 70.5,90.4 69.4,89 69.5,86.9 69.6,84.5 71,83.1 73.1,82.3 74,82 74,82 74,81.1 c 0,-0.3 0,-0.6 0,-0.9 0,-0.7 0.1,-0.8 0.8,-0.8 0.2,0 0.4,0 0.7,0 1.5,0 1.5,0 1.5,1.5 0,1.1 0,1.1 1.1,1.2 0.8,0.1 1.6,0.4 2.3,0.7 0.4,0.2 0.6,0.5 0.4,0.9 -0.2,0.6 -0.4,1.3 -0.6,1.9 -0.2,0.6 -0.4,0.7 -1,0.4 -1.2,-0.6 -2.4,-0.8 -3.7,-0.7 -0.3,0 -0.7,0.1 -1,0.2 -1.1,0.5 -1.3,1.7 -0.3,2.5 0.5,0.4 1,0.7 1.6,0.9 1,0.4 2,0.8 2.9,1.3 3,1.6 3.8,5.4 1.7,7.9 -0.8,0.9 -1.7,1.5 -2.9,1.9 -0.5,0.1 -0.7,0.4 -0.7,0.9 0,0.5 0,1 0,1.5 0,0.5 -0.2,0.7 -0.7,0.7 -0.6,0 -1.1,0 -1.7,0 -0.5,0 -0.7,-0.3 -0.7,-0.8 0,-0.4 0,-0.7 0,-1.1 0,-0.8 0,-0.9 -0.8,-1 -1,-0.2 -2,-0.4 -2.9,-0.8 -0.8,-0.6 -0.8,-0.7 -0.6,-1.5 z M 24.6,41.5 c -1.7,-5.9 0.1,-6.7 1.6,-6.6 -1.1,-3.1 -1.1,-6.1 -0.4,-8.9 0.8,-3.3 2.6,-6 4.6,-8 1.3,-1.3 2.7,-2.5 4.2,-3.5 1.2,-0.9 2.6,-1.6 4.1,-2.1 v 0 c 1.2,-0.4 2.4,-0.6 3.7,-0.7 4.1,-0.4 7.2,0.7 9.4,2 3.3,1.8 4.6,4.2 4.6,4.2 0,0 8.3,0.6 4.7,18 1.1,0.4 1.9,1.9 0.6,6.5 -1.6,5.6 -3,6 -3.9,5.4 -1.1,6.1 -4.4,13.9 -14.9,14.3 -10.7,-0.8 -14.1,-8.8 -15.1,-15 -0.9,-0.1 -2,-1.3 -3.2,-5.6 z m 18.6,53.1 h -36 c 0.2,-15 -0.4,-23 9.3,-26.5 8.8,-3.4 14.1,-6.8 14.1,-6.8 l 6.8,21.5 0.9,2.9 3,-8.6 c -7,-9.7 0.5,-10.2 1.8,-10.2 v 0 c 0,0 0,0 0,0 0,0 0,0 0,0 0,0 0,0 0,0 0,0 0,0 0,0 v 0 c 1.3,0 8.8,0.5 1.8,10.2 l 3,8.6 0.9,-2.9 6.8,-21.5 c 0,0 5.3,3.4 14.1,6.8 1,0.3 1.8,0.7 2.6,1.2 -4.7,0.6 -9.1,2.8 -12.6,6.2 -4.1,4.1 -6.4,9.6 -6.4,15.5 0,1.2 0.1,2.4 0.3,3.6 z" /></svg>
