<?xml version="1.0" encoding="UTF-8" standalone="no"?>
<svg
   xmlns:dc="http://purl.org/dc/elements/1.1/"
   xmlns:cc="http://creativecommons.org/ns#"
   xmlns:rdf="http://www.w3.org/1999/02/22-rdf-syntax-ns#"
   xmlns:svg="http://www.w3.org/2000/svg"
   xmlns="http://www.w3.org/2000/svg"
   xmlns:sodipodi="http://sodipodi.sourceforge.net/DTD/sodipodi-0.dtd"
   xmlns:inkscape="http://www.inkscape.org/namespaces/inkscape"
   inkscape:version="1.0rc1 (09960d6f05, 2020-04-09)"
   sodipodi:docname="noun_Kitchen_1178365.svg"
   id="svg18"
   version="1.1"
   y="0px"
   x="0px"
   viewBox="0 0 19 20">
  <metadata
     id="metadata24">
    <rdf:RDF>
      <cc:Work
         rdf:about="">
        <dc:format>image/svg+xml</dc:format>
        <dc:type
           rdf:resource="http://purl.org/dc/dcmitype/StillImage" />
      </cc:Work>
    </rdf:RDF>
  </metadata>
  <defs
     id="defs22" />
  <sodipodi:namedview
     inkscape:current-layer="svg18"
     inkscape:window-maximized="1"
     inkscape:window-y="-8"
     inkscape:window-x="-8"
     inkscape:cy="15.169544"
     inkscape:cx="39.333851"
     inkscape:zoom="12.4"
     showgrid="false"
     id="namedview20"
     inkscape:window-height="988"
     inkscape:window-width="1680"
     inkscape:pageshadow="2"
     inkscape:pageopacity="0"
     guidetolerance="10"
     gridtolerance="10"
     objecttolerance="10"
     borderopacity="1"
     bordercolor="#666666"
     pagecolor="#ffffff" />
  <title
     id="title2">Kitchen</title>
  <g
     id="g12"
     data-name="Layer 2">
    <g
       id="g10"
       data-name="Layer 1">
      <path
         id="path4"
         d="M18.5,5H12V2.5a1.5,1.5,0,0,1,3,0V3h1V2.5a2.5,2.5,0,0,0-5,0V5H10V4H7V5H5V4H2V5H.5a.5.5,0,0,0-.5.5v10a.5.5,0,0,0,.5.5h18a.5.5,0,0,0,.5-.5V5.5A.5.5,0,0,0,18.5,5ZM1,6H11V7H1ZM1,8H5V9H7V8h4v7H1Zm17,7H12V6h6Z" />
      <path
         id="path6"
         d="M9.5,10h-7a.5.5,0,0,0-.5.5v3a.5.5,0,0,0,.5.5h7a.5.5,0,0,0,.5-.5v-3A.5.5,0,0,0,9.5,10ZM9,13H3V11H9Z" />
      <rect
         id="rect8"
         height="1"
         width="2"
         y="7"
         x="13" />
    </g>
  </g>
</svg>
