<?xml version="1.0" encoding="UTF-8" standalone="no"?>
<svg
   xmlns:dc="http://purl.org/dc/elements/1.1/"
   xmlns:cc="http://creativecommons.org/ns#"
   xmlns:rdf="http://www.w3.org/1999/02/22-rdf-syntax-ns#"
   xmlns:svg="http://www.w3.org/2000/svg"
   xmlns="http://www.w3.org/2000/svg"
   xmlns:sodipodi="http://sodipodi.sourceforge.net/DTD/sodipodi-0.dtd"
   xmlns:inkscape="http://www.inkscape.org/namespaces/inkscape"
   inkscape:version="1.0rc1 (09960d6f05, 2020-04-09)"
   sodipodi:docname="noun_Greyhound_198566.svg"
   id="svg8"
   xml:space="preserve"
   enable-background="new 0 0 100 100"
   viewBox="0 0 100 125"
   y="0px"
   x="0px"
   version="1.1"><metadata
     id="metadata14"><rdf:RDF><cc:Work
         rdf:about=""><dc:format>image/svg+xml</dc:format><dc:type
           rdf:resource="http://purl.org/dc/dcmitype/StillImage" /></cc:Work></rdf:RDF></metadata><defs
     id="defs12" /><sodipodi:namedview
     inkscape:current-layer="svg8"
     inkscape:window-maximized="1"
     inkscape:window-y="-8"
     inkscape:window-x="-8"
     inkscape:cy="62.5"
     inkscape:cx="50"
     inkscape:zoom="1.984"
     showgrid="false"
     id="namedview10"
     inkscape:window-height="988"
     inkscape:window-width="1680"
     inkscape:pageshadow="2"
     inkscape:pageopacity="0"
     guidetolerance="10"
     gridtolerance="10"
     objecttolerance="10"
     borderopacity="1"
     bordercolor="#666666"
     pagecolor="#ffffff" /><path
     style="stroke-width:1.07821"
     inkscape:connector-curvature="0"
     id="path2"
     d="m 97.954049,44.5698 v 0 l -5.498864,-0.862568 -2.5877,-1.617313 c -3.234626,-1.940775 -7.870923,-1.509492 -11.21337,0.754747 h -5.06758 v 0 0 l -1.293851,1.293849 1.293851,1.293851 v 0 0 h 1.832954 l -5.283222,4.312835 c -3.126805,2.5877 -9.272593,5.498864 -12.61504,3.126805 L 54.286601,49.313918 C 50.297228,42.305561 43.612335,37.884906 36.927441,38.100548 30.673832,38.316189 25.282788,42.521202 21.940342,49.960842 17.088404,60.527287 11.69736,61.605496 9.5409429,61.605496 c -2.8033423,0 -5.1754013,-1.832955 -6.3614308,-4.744119 -0.1078209,-0.323462 -0.5391044,-0.539104 -0.9703878,-0.431283 -0.3234625,0.107821 -0.5391042,0.539104 -0.4312834,0.970387 1.4016712,3.450268 4.3128345,5.606686 7.6552812,5.606686 0,0 0.1078208,0 0.1078208,0 5.0675801,0 9.9195191,-4.528477 13.5854281,-12.3994 0.431284,-1.078208 0.970389,-2.048596 1.617313,-3.018984 v 0.107822 c 0.215642,-0.539105 0.754747,-0.862568 1.401672,-0.754747 0.431283,0.107821 0.646924,0.431283 0.754745,0.862567 0,0.107821 0,0.323463 0,0.431284 0,0 0,0 0,0.10782 v 0 c 0,0 0,0 0,0 0,4.205014 2.803343,7.763103 6.577073,9.056952 1.509492,0.862568 2.372059,2.156418 2.803343,3.558089 l 1.29385,3.558088 -0.970388,1.078209 -3.018984,-0.323462 -1.29385,1.940775 1.725134,1.401671 3.558088,-0.215641 1.186029,-0.754747 0.646926,1.617313 -7.43964,1.509492 -3.450268,-1.509492 -2.048596,1.401672 1.078209,1.940775 4.420655,1.18603 9.380415,-1.18603 2.264238,2.37206 -4.528476,7.763101 2.587701,7.008356 h 5.175401 v -1.725134 l -3.234626,-0.862566 -1.186029,-3.989372 4.312834,-4.744118 3.558088,3.665909 h 5.067581 l -0.107821,-1.509492 -4.205013,-1.617313 -2.264239,-2.803343 2.264239,-2.479879 6.253609,-1.078209 c 2.37206,0.215642 4.744118,-0.107821 6.684894,-1.293851 0.754746,-0.431283 1.401671,-0.970387 2.048597,-1.617312 v 0 L 81.349637,54.704961 c 3.77373,-4.312835 6.469251,-4.636298 10.674265,-4.636298 h 3.018984 c 1.401672,0 1.832955,-0.970388 1.832955,-1.509492 h -0.754747 -0.754745 v -0.754746 l -0.323463,0.754746 h -4.744118 c 0.215642,-0.539104 0.646925,-1.18603 1.940776,-1.18603 h 3.77373 v 0.970388 l 0.431284,-0.970388 h 1.509491 l 0.431284,-0.431283 v 0 l 0.646925,-0.646925 v 0 -1.078209 z m -51.107088,19.407754 -2.372059,2.803343 0.107821,-2.47988 2.048596,-1.186029 c 0.107821,0.215641 0.107821,0.539104 0.215642,0.862566 z" /></svg>
