<?xml version="1.0" encoding="UTF-8" standalone="no"?>
<svg
   xmlns:dc="http://purl.org/dc/elements/1.1/"
   xmlns:cc="http://creativecommons.org/ns#"
   xmlns:rdf="http://www.w3.org/1999/02/22-rdf-syntax-ns#"
   xmlns:svg="http://www.w3.org/2000/svg"
   xmlns="http://www.w3.org/2000/svg"
   xmlns:sodipodi="http://sodipodi.sourceforge.net/DTD/sodipodi-0.dtd"
   xmlns:inkscape="http://www.inkscape.org/namespaces/inkscape"
   inkscape:version="1.0rc1 (09960d6f05, 2020-04-09)"
   sodipodi:docname="noun_E-Cigarette_532798.svg"
   id="svg8"
   xml:space="preserve"
   enable-background="new 0 0 98.3 88.4"
   viewBox="0 0 98.3 110.5"
   y="0px"
   x="0px"
   version="1.1"><metadata
     id="metadata14"><rdf:RDF><cc:Work
         rdf:about=""><dc:format>image/svg+xml</dc:format><dc:type
           rdf:resource="http://purl.org/dc/dcmitype/StillImage" /></cc:Work></rdf:RDF></metadata><defs
     id="defs12" /><sodipodi:namedview
     inkscape:current-layer="svg8"
     inkscape:window-maximized="1"
     inkscape:window-y="-8"
     inkscape:window-x="-8"
     inkscape:cy="55.25"
     inkscape:cx="49.150002"
     inkscape:zoom="2.2443439"
     showgrid="false"
     id="namedview10"
     inkscape:window-height="988"
     inkscape:window-width="1680"
     inkscape:pageshadow="2"
     inkscape:pageopacity="0"
     guidetolerance="10"
     gridtolerance="10"
     objecttolerance="10"
     borderopacity="1"
     bordercolor="#666666"
     pagecolor="#ffffff" /><path
     id="path2"
     d="M97.7,68c-0.3-0.3-0.8-0.5-1.3-0.5H29.7c0,0,0,0,0,0h-7.8c-0.3,0-0.6,0.1-0.8,0.2c-5.2,2.5-12,3.9-18,4.1  c-0.3-0.3-0.8-0.5-1.3-0.5c-1,0-1.9,0.8-1.9,1.9v0.5c0,0,0,0,0,0v8.6c0,0,0,0,0,0v0.5c0,1,0.8,1.9,1.9,1.9c0.5,0,0.9-0.2,1.3-0.5  c6,0.2,12.8,1.6,18,4.1c0.3,0.1,0.5,0.2,0.8,0.2h7.8c0,0,0,0,0,0h66.7c0.5,0,1-0.2,1.3-0.5c0.3-0.3,0.5-0.8,0.5-1.3V69.3  C98.3,68.8,98.1,68.3,97.7,68z M27.8,84.7l-5.5,0c-5.6-2.6-12.4-4-18.6-4.3v-5c6.2-0.2,13-1.7,18.6-4.3h5.5L27.8,84.7z M88.9,78.9  l-12.6,3.9v-4.7l-12.7,4.5l16.1-10.3v4.2l9.2-3.8V78.9z M90.6,42.2c0,3.7-0.9,7.3-2.8,10.5c-0.6,1.1-0.2,2.5,0.9,3.2  c0.4,0.2,0.8,0.3,1.1,0.3c0.8,0,1.6-0.4,2-1.2c2.2-3.9,3.4-8.3,3.4-12.8c0-6.9-2.7-13.5-7.6-18.3c-2.6-2.6-4.1-6.2-4.1-10  c0-3.7,1.5-7.3,4.1-10c0.9-0.9,0.9-2.4,0-3.3c-0.9-0.9-2.4-0.9-3.3,0h0c-3.5,3.5-5.5,8.3-5.5,13.3c0,5,2,9.7,5.5,13.3  C88.4,31.2,90.6,36.6,90.6,42.2z M81.9,42.2c0,3.7-1.5,7.3-4.1,10c-0.9,0.9-0.9,2.4,0,3.3c0.5,0.5,1.1,0.7,1.6,0.7  c0.6,0,1.2-0.2,1.6-0.7c3.5-3.5,5.5-8.3,5.5-13.3c0-5-2-9.7-5.5-13.3c-4-4-6.2-9.4-6.2-15c0-3.7,0.9-7.3,2.8-10.5  c0.6-1.1,0.2-2.5-0.9-3.2c-1.1-0.6-2.5-0.2-3.2,0.9c-2.2,3.9-3.4,8.3-3.4,12.8c0,6.9,2.7,13.5,7.6,18.3  C80.4,34.9,81.9,38.5,81.9,42.2z" /></svg>
