<svg height='100px' width='100px'  fill="#000000" xmlns="http://www.w3.org/2000/svg" xmlns:xlink="http://www.w3.org/1999/xlink" version="1.1" x="0px" y="0px" viewBox="0 0 100 100" enable-background="new 0 0 100 100" xml:space="preserve"><g><g><path d="M28.413,51.051c-10.455,0-18.961-8.507-18.961-18.962v-1.576c0-10.455,8.506-18.961,18.961-18.961h4.26v-2.1h-4.26    c-11.613,0-21.062,9.448-21.062,21.062v1.576c0,11.613,9.448,21.062,21.062,21.062h6.384l2.11-2.1H28.413z"></path><path d="M30.487,92.648h-2.074c-10.455,0-18.961-8.505-18.961-18.961c0-0.58-0.47-1.05-1.051-1.05c-0.58,0-1.05,0.47-1.05,1.05    c0,11.613,9.448,21.062,21.062,21.062h2.074c-0.058-0.342-0.094-0.691-0.094-1.05C30.393,93.34,30.429,92.991,30.487,92.648z"></path><path d="M71.587,51.057h-7.203l-2.077,2.101h9.28c10.456,0,18.962,8.506,18.962,18.962v1.568c0,10.456-8.506,18.961-18.962,18.961    h-2.599c0.057,0.343,0.094,0.691,0.094,1.051c0,0.358-0.037,0.708-0.094,1.05h2.599c11.613,0,21.062-9.448,21.062-21.062v-1.568    C92.648,60.506,83.2,51.057,71.587,51.057z"></path><path d="M59.01,65.472c0,0-2.263,2.248-3.145,3.126c-0.881,0.872-0.132,1.631-0.132,1.631s0.501,0.498,1.25,1.256    c0.753,0.758,4.014,0.015,4.014,0.015l2.004,2.014c0,0,9.42,9.482,10.231,10.294c0.82,0.822,3.263,0.765,4.017,0.015    c0.758-0.748,2.019-2.002,2.019-2.002s1.26-1.246,2.013-2c0.751-0.752,0.825-3.197,0.012-4.015    c-0.813-0.821-10.237-10.297-10.237-10.297l-1.998-2.014c0,0,0.763-3.26,0.013-4.013c-0.749-0.761-1.254-1.262-1.254-1.262    s-0.747-0.755-1.631,0.116c-0.879,0.879-3.145,3.134-3.145,3.134l-4.487-4.517l-3.995,4.038L59.01,65.472z"></path><polygon points="34.888,33.135 31.895,28.112 27.885,24.083 20.123,19.797 18.862,21.042 17.602,22.297 21.845,30.089     25.85,34.118 30.859,37.14 40.815,47.16 44.841,43.152   "></polygon><path d="M72.107,43.248c0.136-0.136,0.245-0.297,0.326-0.473l9.354-20.618c0.282-0.621,0.149-1.343-0.328-1.826    c-0.002-0.002-0.002-0.002-0.002-0.002c-0.479-0.478-1.203-0.613-1.821-0.337c0,0-21.378,9.771-21.476,9.902L44.841,43.152    l-4.026,4.008l-3.908,3.891l-2.11,2.1L18.021,69.85c-0.637,0.632-0.64,1.666-0.007,2.303l4.019,4.043    c0.005,0.004,0.006,0.011,0.012,0.016c0.004,0.005,0.009,0.005,0.016,0.013l3.644,3.661c0.004,0.005,0.007,0.012,0.012,0.017    l0.002,0.003c0.005,0.005,0.012,0.007,0.015,0.009l3.912,3.931c0,0,0,0,0.002,0.003c0.007,0.007,0.016,0.016,0.024,0.023    c0.637,0.637,1.668,0.642,2.307,0.002c0.081-0.08,0.147-0.166,0.209-0.261l22.372-22.62l3.995-4.038l3.754-3.796l2.077-2.101    L72.107,43.248z M68.828,28.405c0.184,1.167,0.647,2.187,1.467,3.006c0.896,0.896,2.008,1.395,2.949,1.68l-3.484,7.681    l-8.674-8.902L68.828,28.405z M21.472,71.009l16.86-16.779l13.002-12.939l6.612-6.581c0.169,0.254,0.364,0.506,0.608,0.751    c0.333,0.332,0.683,0.578,1.032,0.774l-6.644,6.665l-12.95,12.993L23.199,72.741L21.472,71.009z M25.497,75.054l16.801-16.856    l12.95-12.993l6.586-6.608c0.167,0.257,0.361,0.509,0.606,0.753c0.005,0.005,0.01,0.01,0.012,0.012    c0.252,0.251,0.508,0.446,0.768,0.62l-6.587,6.607L43.681,59.58L26.873,76.439L25.497,75.054z M30.796,80.382l-1.623-1.633    l16.813-16.864l12.951-12.99l6.58-6.6c0.174,0.259,0.364,0.521,0.613,0.77c0.002,0.002,0.008,0.007,0.012,0.012    c0.282,0.283,0.575,0.503,0.87,0.689l-6.565,6.638l-12.9,13.042L30.796,80.382z"></path><path d="M68.988,92.648c-0.502-2.979-3.086-5.251-6.207-5.251h-3.417V100h3.417c3.121,0,5.705-2.271,6.207-5.251    c0.057-0.342,0.094-0.691,0.094-1.05C69.082,93.34,69.045,92.991,68.988,92.648z"></path><rect x="52.021" y="87.397" width="4.191" height="12.603"></rect><rect x="45.586" y="87.397" width="1.118" height="12.603"></rect><path d="M43.486,87.397h-6.792c-3.121,0-5.706,2.272-6.207,5.251c-0.058,0.343-0.094,0.691-0.094,1.051    c0,0.358,0.037,0.708,0.094,1.05c0.501,2.979,3.085,5.251,6.207,5.251h6.792V87.397z"></path><rect x="48.804" y="87.397" width="1.118" height="12.603"></rect><path d="M42.153,0.052c-4.961,0.493-8.907,4.438-9.399,9.399h9.399V0.052z"></path><path d="M32.753,11.552c0.493,4.961,4.438,8.907,9.399,9.399v-9.399H32.753z"></path><path d="M44.253,21.003h12.019c5.799,0,10.501-4.702,10.501-10.502C66.773,4.702,62.071,0,56.272,0H44.253V21.003z"></path></g></g></svg>