<?xml version="1.0" encoding="UTF-8" standalone="no"?>
<svg
   xmlns:dc="http://purl.org/dc/elements/1.1/"
   xmlns:cc="http://creativecommons.org/ns#"
   xmlns:rdf="http://www.w3.org/1999/02/22-rdf-syntax-ns#"
   xmlns:svg="http://www.w3.org/2000/svg"
   xmlns="http://www.w3.org/2000/svg"
   xmlns:sodipodi="http://sodipodi.sourceforge.net/DTD/sodipodi-0.dtd"
   xmlns:inkscape="http://www.inkscape.org/namespaces/inkscape"
   inkscape:version="1.0rc1 (09960d6f05, 2020-04-09)"
   sodipodi:docname="noun_Water Fountain_2708463.svg"
   id="svg10"
   version="1.1"
   y="0px"
   x="0px"
   viewBox="0 0 25 31.25">
  <metadata
     id="metadata16">
    <rdf:RDF>
      <cc:Work
         rdf:about="">
        <dc:format>image/svg+xml</dc:format>
        <dc:type
           rdf:resource="http://purl.org/dc/dcmitype/StillImage" />
      </cc:Work>
    </rdf:RDF>
  </metadata>
  <defs
     id="defs14" />
  <sodipodi:namedview
     inkscape:current-layer="svg10"
     inkscape:window-maximized="1"
     inkscape:window-y="-8"
     inkscape:window-x="-8"
     inkscape:cy="15.625"
     inkscape:cx="12.5"
     inkscape:zoom="7.936"
     showgrid="false"
     id="namedview12"
     inkscape:window-height="988"
     inkscape:window-width="1680"
     inkscape:pageshadow="2"
     inkscape:pageopacity="0"
     guidetolerance="10"
     gridtolerance="10"
     objecttolerance="10"
     borderopacity="1"
     bordercolor="#666666"
     pagecolor="#ffffff" />
  <title
     id="title2">user</title>
  <path
     style="stroke-width:1.52291"
     inkscape:connector-curvature="0"
     id="path4"
     d="M 15.740542,2.0032599 15.618707,0.48035205 v 0 a 4.5687233,4.5687233 0 0 1 3.30471,1.29447165 L 17.857383,2.8713173 A 3.0458157,3.0458157 0 0 0 15.740542,2.0032599 Z m -4.751473,2.0254673 0.944203,-0.3350397 0.944202,0.3350397 A 3.0458157,3.0458157 0 0 1 14.476527,2.2773833 L 13.836906,0.89153716 A 4.5687233,4.5687233 0 0 0 11.933272,2.5515068 4.5687233,4.5687233 0 0 0 10.029636,0.89153716 L 9.390016,2.2773833 a 3.0458157,3.0458157 0 0 1 1.599053,1.7513439 z m 0.182748,4.0661638 h 1.522909 V 5.2622825 h -1.522909 z m 7.614539,-3.0458154 v 1.5229076 h 1.522909 V 5.0490756 A 4.5687233,4.5687233 0 0 0 19.943767,3.2672734 l -1.401076,0.593934 a 3.0458157,3.0458157 0 0 1 0.243665,1.1878682 z m 0,10.6603534 h 1.522909 v -3.045815 h -1.522909 z m 1.522909,-7.614538 h -1.522909 v 3.045816 h 1.522909 z m -15.2290787,0 H 3.5572785 v 3.045816 H 5.0801863 Z M 12.694726,18.755245 V 14.04946 a 2.2843617,2.2843617 0 0 0 1.522907,-2.147298 V 11.140707 H 9.64891 v 0.761455 a 2.2843617,2.2843617 0 0 0 1.522907,2.147298 v 4.705785 H 2.0343707 v 2.284363 a 3.8072695,3.8072695 0 0 0 3.8072696,3.80727 H 18.024902 a 3.8072695,3.8072695 0 0 0 3.80727,-3.80727 V 18.755245 Z M 9.64891,26.369784 v 1.522909 h 4.568723 V 26.369784 Z M 5.0801863,12.663614 H 3.5572785 v 3.045815 H 5.0801863 Z M 8.217377,2.0032599 v 0 V 1.241806 L 8.126005,0.48035205 A 4.5687233,4.5687233 0 0 0 4.9431246,1.7748237 L 6.0091601,2.8713173 A 3.0458157,3.0458157 0 0 1 8.217377,2.0032599 Z M 5.0801863,5.0490756 A 3.0458157,3.0458157 0 0 1 5.3238515,3.8612074 L 3.9227764,3.2672734 A 4.5687233,4.5687233 0 0 0 3.5572785,5.0490756 v 1.5229076 h 1.5229078 z m 0,25.8894324 H 18.786356 V 29.4156 H 5.0801863 Z" />
</svg>
