<?xml version="1.0" encoding="UTF-8" standalone="no"?>
<svg
   xmlns:dc="http://purl.org/dc/elements/1.1/"
   xmlns:cc="http://creativecommons.org/ns#"
   xmlns:rdf="http://www.w3.org/1999/02/22-rdf-syntax-ns#"
   xmlns:svg="http://www.w3.org/2000/svg"
   xmlns="http://www.w3.org/2000/svg"
   xmlns:sodipodi="http://sodipodi.sourceforge.net/DTD/sodipodi-0.dtd"
   xmlns:inkscape="http://www.inkscape.org/namespaces/inkscape"
   inkscape:version="1.0rc1 (09960d6f05, 2020-04-09)"
   sodipodi:docname="noun_american football_2450999.svg"
   id="svg42"
   version="1.1"
   y="0px"
   x="0px"
   viewBox="0 0 64 80">
  <metadata
     id="metadata48">
    <rdf:RDF>
      <cc:Work
         rdf:about="">
        <dc:format>image/svg+xml</dc:format>
        <dc:type
           rdf:resource="http://purl.org/dc/dcmitype/StillImage" />
      </cc:Work>
    </rdf:RDF>
  </metadata>
  <defs
     id="defs46" />
  <sodipodi:namedview
     inkscape:current-layer="svg42"
     inkscape:window-maximized="1"
     inkscape:window-y="-8"
     inkscape:window-x="-8"
     inkscape:cy="40"
     inkscape:cx="32"
     inkscape:zoom="3.1"
     showgrid="false"
     id="namedview44"
     inkscape:window-height="988"
     inkscape:window-width="1680"
     inkscape:pageshadow="2"
     inkscape:pageopacity="0"
     guidetolerance="10"
     gridtolerance="10"
     objecttolerance="10"
     borderopacity="1"
     bordercolor="#666666"
     pagecolor="#ffffff" />
  <g
     transform="matrix(1.147577,0,0,1.147577,-3.3853404,3.4096917)"
     id="g36">
    <path
       inkscape:connector-curvature="0"
       id="path2"
       d="m 41.941,24.765 -0.565,-1.554 -4.432,0.554 a 1.991,1.991 0 0 0 -1.631,1.3 l -0.173,0.6 2.779,2.435 a 7.181,7.181 0 0 1 4.022,-3.335 z" />
    <path
       inkscape:connector-curvature="0"
       id="path4"
       d="M 45.279,34 H 42 A 1,1 0 0 1 41.341,33.752 L 38.992,31.7 a 9.549,9.549 0 0 1 -1.084,4.295 L 39.32,37 h 6.959 z" />
    <path
       inkscape:connector-curvature="0"
       id="path6"
       d="m 53.554,19.673 1.911,-0.239 c -0.028,-0.109 -0.055,-0.212 -0.085,-0.313 -0.013,-0.057 -0.031,-0.11 -0.045,-0.165 -0.092,-0.35 -0.182,-0.7 -0.293,-1.044 -0.044,-0.138 -0.1,-0.279 -0.146,-0.419 -0.123,-0.355 -0.26,-0.707 -0.405,-1.057 -0.049,-0.121 -0.1,-0.242 -0.152,-0.361 l -1.254,1.254 z" />
    <polygon
       id="polygon8"
       points="25.107,26.693 27.635,29.221 28.755,26.419 25.643,24.552 " />
    <path
       inkscape:connector-curvature="0"
       id="path10"
       d="m 54.276,23.281 0.282,-0.029 1.421,-0.15 V 23.048 C 55.953,22.5 55.902,21.957 55.832,21.418 v -0.014 l -1.879,0.235 z" />
    <path
       inkscape:connector-curvature="0"
       id="path12"
       d="m 39,44.448 v 9.1 c 0.119,-0.114 0.247,-0.214 0.364,-0.33 l 1.515,-1.515 a 3.829,3.829 0 0 0 0,-5.414 L 39.364,44.774 C 39.247,44.662 39.119,44.562 39,44.448 Z" />
    <path
       inkscape:connector-curvature="0"
       id="path14"
       d="m 52.162,44 h 4.918 l 0.417,-5 h -8.443 l 1.211,3.632 A 2,2 0 0 0 52.162,44 Z" />
    <path
       inkscape:connector-curvature="0"
       id="path16"
       d="M 35.525,41.691 Q 34.78,41.211 34,40.791 v 16.42 c 0.518,-0.279 1.024,-0.58 1.519,-0.9 l 0.02,-0.012 c 0.343,-0.222 0.673,-0.465 1,-0.7 0.153,-0.112 0.3,-0.224 0.456,-0.339 V 42.742 c -0.15,-0.115 -0.3,-0.227 -0.455,-0.338 -0.332,-0.24 -0.663,-0.484 -1.007,-0.706 z" />
    <polygon
       id="polygon18"
       points="43.928,24.374 52.279,23.492 51.958,21.888 43.412,22.956 " />
    <path
       inkscape:connector-curvature="0"
       id="path20"
       d="m 37.174,30.106 -2.642,-2.312 -0.987,3.445 a 2,2 0 0 0 0.76,2.178 l 1.969,1.407 A 7.585,7.585 0 0 0 37,31.58 7.149,7.149 0 0 1 37.174,30.106 Z" />
    <path
       inkscape:connector-curvature="0"
       id="path22"
       d="m 42.376,32 h 2.2 l -1.948,-5.358 a 5.168,5.168 0 0 0 -3.159,2.811 z" />
    <polygon
       id="polygon24"
       points="48.387,37 57.663,37 57.913,34 47.387,34 " />
    <path
       inkscape:connector-curvature="0"
       id="path26"
       d="m 20,35.19 a 5.138,5.138 0 0 0 -2.194,-4.2 L 14,28.322 v 5.015 l 6,2.536 z" />
    <path
       inkscape:connector-curvature="0"
       id="path28"
       d="M 32,58.184 V 39.816 a 23.21,23.21 0 0 0 -18,0 v 18.368 a 23.21,23.21 0 0 0 18,0 z M 20,50 v 2 h -2 v -2 h -2 v -2 h 2 v -2 h 2 v 2 h 2 v -2 h 2 v 2 h 2 v -2 h 2 v 2 h 2 v 2 h -2 v 2 h -2 v -2 h -2 v 2 h -2 v -2 z" />
    <path
       inkscape:connector-curvature="0"
       id="path30"
       d="m 22,35.19 v 0.834 C 22.333,36.011 22.665,36 23,36 a 25.061,25.061 0 0 1 10.226,2.167 7.789,7.789 0 0 0 1.97,-1.655 l -2.053,-1.467 a 4.006,4.006 0 0 1 -1.52,-4.357 l 1.422,-4.961 c 0.006,-0.022 0.011,-0.042 0.018,-0.064 l 0.349,-1.214 A 4,4 0 0 1 36.7,21.78 L 51.569,19.922 51.02,17.2 a 1,1 0 0 1 0.273,-0.9 l 2.118,-2.118 A 20.087,20.087 0 0 0 36,4 H 34 A 20.023,20.023 0 0 0 14,24 v 1.88 l 4.954,3.471 A 7.142,7.142 0 0 1 22,35.19 Z M 34,17 h 2 v 2 h -2 z m -8,18 h -2 v -2 h 2 z m 0.771,-27.484 0.8,1.83 a 16.13,16.13 0 0 0 -1.943,1.021 l -1.049,-1.7 a 18,18 0 0 1 2.192,-1.151 z m -2.154,14.56 a 1,1 0 0 1 0.9,0.067 l 5,3 a 1,1 0 0 1 0.414,1.229 l -2,5 A 1,1 0 0 1 28.203,31.979 0.98,0.98 0 0 1 28,32 1,1 0 0 1 27.293,31.707 l -4,-4 a 1,1 0 0 1 -0.263,-0.95 l 1,-4 a 1,1 0 0 1 0.587,-0.681 z m -8.592,0.96 A 18.017,18.017 0 0 1 22.826,9.9 l 1.243,1.566 a 16.021,16.021 0 0 0 -6.047,11.679 z" />
    <path
       inkscape:connector-curvature="0"
       id="path32"
       d="m 6.636,53.222 c 0.117,0.116 0.245,0.216 0.364,0.33 v -9.1 c -0.119,0.114 -0.247,0.214 -0.364,0.33 l -1.515,1.511 a 3.829,3.829 0 0 0 0,5.414 z" />
    <path
       inkscape:connector-curvature="0"
       id="path34"
       d="m 10.461,56.3 0.02,0.012 q 0.743,0.478 1.519,0.9 V 40.789 q -0.779,0.42 -1.524,0.9 l -0.014,0.008 C 10.118,41.919 9.787,42.163 9.455,42.403 9.302,42.514 9.155,42.626 9,42.741 v 12.517 c 0.151,0.115 0.3,0.227 0.456,0.339 0.332,0.239 0.662,0.482 1.005,0.703 z" />
  </g>
</svg>
