<?xml version="1.0" encoding="UTF-8" standalone="no"?>
<svg
   xmlns:dc="http://purl.org/dc/elements/1.1/"
   xmlns:cc="http://creativecommons.org/ns#"
   xmlns:rdf="http://www.w3.org/1999/02/22-rdf-syntax-ns#"
   xmlns:svg="http://www.w3.org/2000/svg"
   xmlns="http://www.w3.org/2000/svg"
   xmlns:sodipodi="http://sodipodi.sourceforge.net/DTD/sodipodi-0.dtd"
   xmlns:inkscape="http://www.inkscape.org/namespaces/inkscape"
   inkscape:version="1.0rc1 (09960d6f05, 2020-04-09)"
   sodipodi:docname="noun_Mental Health_2686181.svg"
   id="svg16"
   version="1.1"
   y="0px"
   x="0px"
   viewBox="0 0 128 160">
  <metadata
     id="metadata22">
    <rdf:RDF>
      <cc:Work
         rdf:about="">
        <dc:format>image/svg+xml</dc:format>
        <dc:type
           rdf:resource="http://purl.org/dc/dcmitype/StillImage" />
      </cc:Work>
    </rdf:RDF>
  </metadata>
  <defs
     id="defs20" />
  <sodipodi:namedview
     inkscape:current-layer="svg16"
     inkscape:window-maximized="1"
     inkscape:window-y="-8"
     inkscape:window-x="-8"
     inkscape:cy="80"
     inkscape:cx="64"
     inkscape:zoom="1.55"
     showgrid="false"
     id="namedview18"
     inkscape:window-height="988"
     inkscape:window-width="1680"
     inkscape:pageshadow="2"
     inkscape:pageopacity="0"
     guidetolerance="10"
     gridtolerance="10"
     objecttolerance="10"
     borderopacity="1"
     bordercolor="#666666"
     pagecolor="#ffffff" />
  <title
     id="title2">mental health, disorder, mental illness, Schizophrenia, sick, paranoia, psychosis</title>
  <g
     transform="matrix(1.2765776,0,0,1.2765776,-17.700949,-1.9785606)"
     id="g10"
     data-name="Layer 5">
    <path
       inkscape:connector-curvature="0"
       id="path4"
       d="m 95.831,98.053 c -0.273,-4.3 1.029,-10.247 3.662,-13.663 10.5,-13.626 15.158,-25.432 12.96,-39.962 C 108.891,20.88 92.26,8.407 69.266,7.227 c -25.129,-1.3 -46.65,14.84 -45.957,37.1 0.091,2.938 0.605,7.265 0.593,10.092 -0.023,10.042 -8.712,14.167 -8.879,17.363 -0.275,5.248 5.89,3.609 8.064,11.033 2.76,9.425 -1.2,20.173 11.648,19.509 5.125,-0.206 13.454,-2.195 17.023,1.124 2.276,2.116 4.109,11.352 4.824,15.439 a 2.368,2.368 0 0 0 2.337,1.958 h 38.569 a 2.369,2.369 0 0 0 2.282,-3.029 C 98.487,113.4 96.269,104.966 95.831,98.053 Z M 59.715,59.222 c -21.913,0 -29.259,-9.5 -28.623,-18.61 1.046,-15 11.56,-24.84 31.524,-26.066 a 45.644,45.644 0 0 1 37.159,15.189 c 5.7,6.645 9.943,24.265 1.329,32.086 -14.429,13.1 -24.895,-2.599 -41.389,-2.599 z" />
    <path
       inkscape:connector-curvature="0"
       id="path6"
       d="M 94.141,31.906 C 89.472,27.04 78.89,19.95 63.682,20.784 47.318,21.684 38.699,28.884 37.841,39.871 37.32,46.544 43.342,53.5 61.3,53.5 c 13.52,0 23.986,13.264 35.813,3.671 7.065,-5.728 1.697,-20.399 -2.972,-25.265 z m -3.787,18.856 c -7.765,6.3 -18.862,-2.848 -27.738,-2.848 -14.79,0 -18.089,-5.269 -17.045,-10.49 1.418,-7.092 9.183,-9.4 19.926,-9.99 9.984,-0.547 17.191,3.345 23.135,7.758 4.418,3.28 6.357,11.808 1.722,15.57 z" />
    <path
       inkscape:connector-curvature="0"
       id="path8"
       d="m 64.936,32.891 c -6.692,-0.055 -12.1,2.571 -12.1,5.34 0,3.987 4.209,3.675 10.516,4.272 8.53,0.807 18.2,5.542 21.522,3.132 1.986,-1.438 0.874,-4.791 -0.548,-5.883 -1.695,-1.298 -10.005,-6.783 -19.39,-6.861 z" />
  </g>
</svg>
