<?xml version="1.0" encoding="UTF-8" standalone="no"?>
<svg
   xmlns:dc="http://purl.org/dc/elements/1.1/"
   xmlns:cc="http://creativecommons.org/ns#"
   xmlns:rdf="http://www.w3.org/1999/02/22-rdf-syntax-ns#"
   xmlns:svg="http://www.w3.org/2000/svg"
   xmlns="http://www.w3.org/2000/svg"
   xmlns:sodipodi="http://sodipodi.sourceforge.net/DTD/sodipodi-0.dtd"
   xmlns:inkscape="http://www.inkscape.org/namespaces/inkscape"
   inkscape:version="1.0rc1 (09960d6f05, 2020-04-09)"
   sodipodi:docname="noun_Demolition_383816.svg"
   id="svg44"
   xml:space="preserve"
   enable-background="new 0 0 100 100"
   viewBox="0 0 100 125"
   y="0px"
   x="0px"
   version="1.0"><metadata
     id="metadata50"><rdf:RDF><cc:Work
         rdf:about=""><dc:format>image/svg+xml</dc:format><dc:type
           rdf:resource="http://purl.org/dc/dcmitype/StillImage" /></cc:Work></rdf:RDF></metadata><defs
     id="defs48" /><sodipodi:namedview
     inkscape:current-layer="svg44"
     inkscape:window-maximized="1"
     inkscape:window-y="-8"
     inkscape:window-x="-8"
     inkscape:cy="62.5"
     inkscape:cx="50"
     inkscape:zoom="1.984"
     showgrid="false"
     id="namedview46"
     inkscape:window-height="988"
     inkscape:window-width="1680"
     inkscape:pageshadow="2"
     inkscape:pageopacity="0"
     guidetolerance="10"
     gridtolerance="10"
     objecttolerance="10"
     borderopacity="1"
     bordercolor="#666666"
     pagecolor="#ffffff" /><g
     transform="matrix(1.189617,0,0,1.189617,-9.6156454,1.3111968)"
     id="g38"><g
       id="g36"><path
         inkscape:connector-curvature="0"
         id="path2"
         d="m 20,47.396179 c 0,9.052307 7.338318,16.390625 16.390503,16.390625 9.052307,0 16.390564,-7.338318 16.390564,-16.390625 0,-9.052185 -7.338257,-16.390503 -16.390564,-16.390503 -3.244019,0 -6.259461,0.954712 -8.804382,2.58075 C 22.949097,27.046997 19.143738,19.971375 16.375,14.180176 l -4.511719,2.157226 c 2.92334,6.113099 6.969788,13.613282 11.947754,20.557862 C 21.43396,39.739746 20,43.399353 20,47.396179 Z" /><path
         inkscape:connector-curvature="0"
         id="path4"
         d="M 45.083252,17.5 V 33.502197 L 55.333252,26 55.5,37 68.5,36.25 58,47.75 68.5,56 55,57.25 v 11.5 L 45.083252,61.289673 V 86.25 h 20.485901 v -14 h 14.766968 v 14 H 90.583252 V 17.5 Z m 35.252869,43.875 h -6 v -6 h 6 z m 0,-13.5 h -6 v -6 h 6 z m 0,-13.5 h -6 v -6 h 6 z" /><circle
         id="circle6"
         r="2"
         cy="71.416504"
         cx="17.645813" /><circle
         id="circle8"
         r="2"
         cy="71.416504"
         cx="26.354187" /><circle
         id="circle10"
         r="2"
         cy="86.499756"
         cx="35.0625" /><circle
         id="circle12"
         r="2"
         cy="71.416504"
         cx="35.0625" /><circle
         id="circle14"
         r="2"
         cy="86.499756"
         cx="26.354187" /><circle
         id="circle16"
         r="2"
         cy="18.625061"
         cx="39.416687" /><circle
         id="circle18"
         r="2"
         cy="18.625061"
         cx="30.708313" /><circle
         id="circle20"
         r="2"
         cy="26.166687"
         cx="35.145813" /><circle
         id="circle22"
         r="2"
         cy="63.874878"
         cx="22" /><circle
         id="circle24"
         r="2"
         cy="63.874878"
         cx="12.721497" /><circle
         id="circle26"
         r="2"
         cy="42.762085"
         cx="12.721497" /><circle
         id="circle28"
         r="2"
         cy="78.958191"
         cx="22" /><circle
         id="circle30"
         r="2"
         cy="78.958191"
         cx="13.291687" /><circle
         id="circle32"
         r="2"
         cy="51.875"
         cx="13.291687" /><circle
         id="circle34"
         r="2"
         cy="78.958191"
         cx="30.708313" /></g></g></svg>
