<?xml version="1.0" encoding="UTF-8" standalone="no"?>
<svg
   xmlns:dc="http://purl.org/dc/elements/1.1/"
   xmlns:cc="http://creativecommons.org/ns#"
   xmlns:rdf="http://www.w3.org/1999/02/22-rdf-syntax-ns#"
   xmlns:svg="http://www.w3.org/2000/svg"
   xmlns="http://www.w3.org/2000/svg"
   xmlns:sodipodi="http://sodipodi.sourceforge.net/DTD/sodipodi-0.dtd"
   xmlns:inkscape="http://www.inkscape.org/namespaces/inkscape"
   inkscape:version="1.0rc1 (09960d6f05, 2020-04-09)"
   sodipodi:docname="noun_Cheese_222433.svg"
   id="svg16"
   xml:space="preserve"
   style="enable-background:new 0 0 24 24;"
   viewBox="0 0 24 30"
   y="0px"
   x="0px"
   version="1.1"><metadata
     id="metadata22"><rdf:RDF><cc:Work
         rdf:about=""><dc:format>image/svg+xml</dc:format><dc:type
           rdf:resource="http://purl.org/dc/dcmitype/StillImage" /></cc:Work></rdf:RDF></metadata><defs
     id="defs20" /><sodipodi:namedview
     inkscape:current-layer="svg16"
     inkscape:window-maximized="1"
     inkscape:window-y="-8"
     inkscape:window-x="-8"
     inkscape:cy="15"
     inkscape:cx="12"
     inkscape:zoom="8.2666667"
     showgrid="false"
     id="namedview18"
     inkscape:window-height="988"
     inkscape:window-width="1680"
     inkscape:pageshadow="2"
     inkscape:pageopacity="0"
     guidetolerance="10"
     gridtolerance="10"
     objecttolerance="10"
     borderopacity="1"
     bordercolor="#666666"
     pagecolor="#ffffff" /><g
     transform="translate(0,2.6048385)"
     id="g10"><g
       id="g4"><path
         inkscape:connector-curvature="0"
         id="path2"
         d="m 0.5,11 c -0.222,0 -0.425,-0.149 -0.483,-0.374 -0.07,-0.267 0.09,-0.54 0.358,-0.61 l 23,-6 c 0.263,-0.066 0.54,0.09 0.61,0.358 0.07,0.267 -0.09,0.54 -0.358,0.61 l -23,6 C 0.584,10.995 0.542,11 0.5,11 Z" /></g><g
       id="g8"><path
         inkscape:connector-curvature="0"
         id="path6"
         d="M 0.5,24 C 0.391,24 0.283,23.964 0.194,23.896 0.072,23.801 0,23.655 0,23.5 v -5 C 0,18.224 0.224,18 0.5,18 1.327,18 2,17.327 2,16.5 2,15.673 1.327,15 0.5,15 0.224,15 0,14.776 0,14.5 v -4 C 0,10.345 0.072,10.199 0.194,10.104 0.299,10.023 10.726,1.956 13.2,0.1 13.287,0.035 13.392,0 13.5,0 22.648,0 23.931,4.187 23.981,4.365 23.994,4.409 24,4.454 24,4.5 v 13 c 0,0.228 -0.154,0.426 -0.374,0.484 l -23,6 C 0.584,23.995 0.542,24 0.5,24 Z M 1,18.95 v 3.903 L 23,17.114 V 4.586 C 22.824,4.153 21.292,1.045 13.667,1 11.185,2.869 2.419,9.647 1,10.745 v 3.305 c 1.14,0.232 2,1.242 2,2.45 0,1.208 -0.86,2.217 -2,2.45 z M 11.5,18 C 10.673,18 10,17.327 10,16.5 10,15.673 10.673,15 11.5,15 c 0.827,0 1.5,0.673 1.5,1.5 0,0.827 -0.673,1.5 -1.5,1.5 z m 0,-2 C 11.224,16 11,16.224 11,16.5 11,16.776 11.224,17 11.5,17 11.776,17 12,16.776 12,16.5 12,16.224 11.776,16 11.5,16 Z m 6.5,0 c -1.103,0 -2,-0.897 -2,-2 0,-1.103 0.897,-2 2,-2 1.103,0 2,0.897 2,2 0,1.103 -0.897,2 -2,2 z m 0,-3 c -0.551,0 -1,0.449 -1,1 0,0.551 0.449,1 1,1 0.551,0 1,-0.449 1,-1 0,-0.551 -0.449,-1 -1,-1 z M 6.5,16 C 5.122,16 4,14.878 4,13.5 4,12.122 5.122,11 6.5,11 7.878,11 9,12.122 9,13.5 9,14.878 7.878,16 6.5,16 Z m 0,-4 C 5.673,12 5,12.673 5,13.5 5,14.327 5.673,15 6.5,15 7.327,15 8,14.327 8,13.5 8,12.673 7.327,12 6.5,12 Z m 7,0 C 12.673,12 12,11.327 12,10.5 12,9.673 12.673,9 13.5,9 14.327,9 15,9.673 15,10.5 15,11.327 14.327,12 13.5,12 Z m 0,-2 C 13.224,10 13,10.224 13,10.5 13,10.776 13.224,11 13.5,11 13.776,11 14,10.776 14,10.5 14,10.224 13.776,10 13.5,10 Z" /></g></g></svg>
