<?xml version="1.0" encoding="UTF-8" standalone="no"?>
<svg
   xmlns:dc="http://purl.org/dc/elements/1.1/"
   xmlns:cc="http://creativecommons.org/ns#"
   xmlns:rdf="http://www.w3.org/1999/02/22-rdf-syntax-ns#"
   xmlns:svg="http://www.w3.org/2000/svg"
   xmlns="http://www.w3.org/2000/svg"
   xmlns:sodipodi="http://sodipodi.sourceforge.net/DTD/sodipodi-0.dtd"
   xmlns:inkscape="http://www.inkscape.org/namespaces/inkscape"
   inkscape:version="1.0rc1 (09960d6f05, 2020-04-09)"
   sodipodi:docname="noun_Golf_777261.svg"
   id="svg12"
   xml:space="preserve"
   enable-background="new 0 0 100 100"
   viewBox="0 0 100 125"
   y="0px"
   x="0px"
   version="1.1"><metadata
     id="metadata18"><rdf:RDF><cc:Work
         rdf:about=""><dc:format>image/svg+xml</dc:format><dc:type
           rdf:resource="http://purl.org/dc/dcmitype/StillImage" /></cc:Work></rdf:RDF></metadata><defs
     id="defs16" /><sodipodi:namedview
     inkscape:current-layer="svg12"
     inkscape:window-maximized="1"
     inkscape:window-y="-8"
     inkscape:window-x="-8"
     inkscape:cy="62.5"
     inkscape:cx="50"
     inkscape:zoom="1.984"
     showgrid="false"
     id="namedview14"
     inkscape:window-height="988"
     inkscape:window-width="1680"
     inkscape:pageshadow="2"
     inkscape:pageopacity="0"
     guidetolerance="10"
     gridtolerance="10"
     objecttolerance="10"
     borderopacity="1"
     bordercolor="#666666"
     pagecolor="#ffffff" /><g
     transform="matrix(1.1075588,0,0,1.1075588,-5.1258206,4.9404374)"
     id="g4"><polyline
       id="polyline2"
       points="41.138,9.851 41.138,38.525 73.064,24.186 41.138,9.851  " /></g><path
     style="stroke-width:1.10756"
     inkscape:connector-curvature="0"
     id="path6"
     d="m 0.94470968,93.022381 c 0,-1.453117 0.76643072,-2.803232 2.00911182,-3.556372 3.8587352,-2.335842 8.0464155,-4.088 12.4290255,-5.192236 4.794623,-1.200594 9.667881,-2.06006 14.574367,-2.569537 0.65346,-0.06535 1.29363,-0.129585 1.94709,-0.197146 V 15.851 h 5.803608 v 65.199777 c 4.176605,-0.265814 8.354317,-0.396506 12.540889,-0.396506 6.780475,0 13.559844,0.349988 20.298231,1.051072 4.906486,0.509478 9.779745,1.368943 14.568831,2.569537 4.38261,1.103129 8.568075,2.855287 12.427918,5.192237 1.252649,0.75314 2.013542,2.102147 2.013542,3.556371 0,1.456439 -0.762001,2.812092 -2.013542,3.569662 -3.858735,2.335842 -8.045308,4.08357 -12.427918,5.18227 -4.789086,1.20059 -9.663452,2.06892 -14.568831,2.57397 -6.738387,0.70662 -13.517756,1.05661 -20.298231,1.05661 -6.764969,0 -13.544338,-0.34999 -20.291587,-1.05661 -4.906486,-0.50505 -9.779744,-1.37338 -14.574367,-2.57397 C 11.000237,100.67672 6.8136642,98.930099 2.9538215,96.59315 1.7111404,95.834472 0.94470968,94.479927 0.94470968,93.022381 Z M 75.630728,90.733056 c 0,-0.318977 -0.1318,-0.61248 -0.365494,-0.814055 -0.512801,-0.451884 -1.096484,-0.794121 -1.732222,-1.032246 -0.696655,-0.248092 -1.416568,-0.43527 -2.146449,-0.536058 -0.97133,-0.150628 -1.951519,-0.224835 -2.932816,-0.224835 -0.981298,0 -1.961488,0.0742 -2.935032,0.224835 -0.726558,0.101898 -1.447579,0.289073 -2.144234,0.536058 -0.635739,0.238125 -1.22053,0.579254 -1.732221,1.032246 -0.233695,0.202682 -0.365495,0.495078 -0.365495,0.814055 0,0.312332 0.1318,0.615803 0.365495,0.820701 0.512799,0.439701 1.096482,0.790798 1.732221,1.020062 0.696655,0.252524 1.416569,0.434163 2.144234,0.550457 0.973544,0.14509 1.953734,0.219297 2.935032,0.219297 0.981297,0 1.961486,-0.0742 2.932816,-0.219297 0.728773,-0.116294 1.449794,-0.299041 2.146449,-0.550457 0.635738,-0.229264 1.220529,-0.579253 1.732222,-1.020062 0.233694,-0.204898 0.365494,-0.508369 0.365494,-0.820701 z" /></svg>
