<?xml version="1.0" encoding="UTF-8" standalone="no"?>
<svg
   xmlns:dc="http://purl.org/dc/elements/1.1/"
   xmlns:cc="http://creativecommons.org/ns#"
   xmlns:rdf="http://www.w3.org/1999/02/22-rdf-syntax-ns#"
   xmlns:svg="http://www.w3.org/2000/svg"
   xmlns="http://www.w3.org/2000/svg"
   xmlns:sodipodi="http://sodipodi.sourceforge.net/DTD/sodipodi-0.dtd"
   xmlns:inkscape="http://www.inkscape.org/namespaces/inkscape"
   inkscape:version="1.0rc1 (09960d6f05, 2020-04-09)"
   sodipodi:docname="noun_Surveying_16833.svg"
   id="svg12"
   xml:space="preserve"
   enable-background="new 0 0 100 92.316"
   viewBox="0 0 100 115.39500000000001"
   y="0px"
   x="0px"
   version="1.1"><metadata
     id="metadata18"><rdf:RDF><cc:Work
         rdf:about=""><dc:format>image/svg+xml</dc:format><dc:type
           rdf:resource="http://purl.org/dc/dcmitype/StillImage" /></cc:Work></rdf:RDF></metadata><defs
     id="defs16" /><sodipodi:namedview
     inkscape:current-layer="svg12"
     inkscape:window-maximized="1"
     inkscape:window-y="-8"
     inkscape:window-x="-8"
     inkscape:cy="57.697498"
     inkscape:cx="50"
     inkscape:zoom="2.14914"
     showgrid="false"
     id="namedview14"
     inkscape:window-height="988"
     inkscape:window-width="1680"
     inkscape:pageshadow="2"
     inkscape:pageopacity="0"
     guidetolerance="10"
     gridtolerance="10"
     objecttolerance="10"
     borderopacity="1"
     bordercolor="#666666"
     pagecolor="#ffffff" /><path
     style="stroke-width:1.1322"
     inkscape:connector-curvature="0"
     id="path2"
     d="m 42.535899,6.4269704 h -8.363583 c -1.784352,0 -3.231307,1.4458231 -3.231307,3.2313076 v 1.439029 h -3.760046 v 6.065211 h 3.760046 v 1.440163 c 0,1.784351 1.446955,3.231307 3.231307,3.231307 h 8.363583 c 1.783219,0 3.231306,-1.446956 3.231306,-3.231307 V 9.658278 c 0,-1.7854845 -1.448087,-3.2313076 -3.231306,-3.2313076 z" /><path
     style="stroke-width:1.1322"
     inkscape:connector-curvature="0"
     id="path4"
     d="M 55.72493,22.655967 C 50.719461,21.652835 47.46551,16.72662 48.4777,11.667938 49.493286,6.5968009 54.390063,3.3179412 59.395533,4.321073 c 5.015659,1.0053962 8.256023,5.912364 7.241569,10.982368 -1.01219,5.058683 -5.898777,8.354525 -10.912172,7.352526" /><path
     style="stroke-width:1.1322"
     inkscape:connector-curvature="0"
     id="path6"
     d="M 96.306479,40.131519 77.107715,21.218069 c -1.30543,-1.390345 -3.636636,-2.091178 -5.497977,-2.091178 -2.609728,0 -6.723021,1.55225 -7.963916,5.824051 l 0.0056,0.01472 c -0.05094,0.134732 -0.116617,0.261538 -0.155113,0.404197 l -3.788314,13.902317 -6.109367,-8.762119 c -1.446956,-2.077592 -4.305769,-2.587083 -6.379964,-1.138996 -0.372494,0.259275 -0.675925,0.576292 -0.944257,0.913688 L 44.839932,26.679816 C 44.493478,25.80802 43.668101,25.269091 42.787247,25.239654 l -7.790687,0.0091 c -0.25701,0.0091 -0.516285,0.04982 -0.768767,0.150583 -0.754046,0.300034 -1.255612,0.956711 -1.39827,1.699436 L 1.6022346,105.36339 c -0.4698642,1.17296 0.1018978,2.5067 1.2782571,2.97656 0.2785219,0.11096 0.5661015,0.16304 0.8491522,0.16304 0.9102912,0 1.7707653,-0.54346 2.1285415,-1.4413 L 18.595468,75.140365 h 4.09631 l 12.637649,-31.74697 v 62.808955 c 0,1.26467 1.024644,2.29158 2.290447,2.29158 1.265802,0 2.291578,-1.02691 2.291578,-2.29158 V 45.874052 l 11.649236,29.265181 h 3.817788 l 12.703317,31.908877 c 0.356644,0.89783 1.219383,1.44469 2.128541,1.44469 0.283051,0 0.570631,-0.0544 0.84802,-0.16418 1.175228,-0.46872 1.749254,-1.79906 1.280522,-2.97542 L 60.312617,75.138101 h 3.816656 l -12.523297,-31.460522 6.187489,8.87647 c 0.865004,1.243159 2.27686,1.96324 3.758914,1.96324 0.258142,0 0.520813,-0.02264 0.78122,-0.0668 1.75265,-0.30343 3.172433,-1.595274 3.640032,-3.311693 L 68.90264,40.381734 83.381251,54.969037 v 45.992343 c 0,2.13987 0.744989,3.92535 2.232704,5.37344 1.48545,1.43676 3.29471,2.15685 5.434574,2.15685 2.048156,0 3.812127,-0.72122 5.299842,-2.15685 1.486582,-1.44809 2.230439,-3.23357 2.230439,-5.37344 V 45.987272 c 0.01812,-2.16364 -0.999735,-4.328412 -2.272331,-5.855753 z M 51.729386,63.174113 41.593905,37.710869 h 2.703701 l 10.135481,25.463244 z" /></svg>
