<?xml version="1.0" encoding="UTF-8" standalone="no"?>
<svg
   xmlns:dc="http://purl.org/dc/elements/1.1/"
   xmlns:cc="http://creativecommons.org/ns#"
   xmlns:rdf="http://www.w3.org/1999/02/22-rdf-syntax-ns#"
   xmlns:svg="http://www.w3.org/2000/svg"
   xmlns="http://www.w3.org/2000/svg"
   xmlns:sodipodi="http://sodipodi.sourceforge.net/DTD/sodipodi-0.dtd"
   xmlns:inkscape="http://www.inkscape.org/namespaces/inkscape"
   version="1.1"
   x="0px"
   y="0px"
   viewBox="0 0 100 125"
   id="svg10"
   sodipodi:docname="noun_house bug_580644.svg"
   inkscape:version="0.92.3 (2405546, 2018-03-11)">
  <metadata
     id="metadata16">
    <rdf:RDF>
      <cc:Work
         rdf:about="">
        <dc:format>image/svg+xml</dc:format>
        <dc:type
           rdf:resource="http://purl.org/dc/dcmitype/StillImage" />
      </cc:Work>
    </rdf:RDF>
  </metadata>
  <defs
     id="defs14" />
  <sodipodi:namedview
     pagecolor="#ffffff"
     bordercolor="#666666"
     borderopacity="1"
     objecttolerance="10"
     gridtolerance="10"
     guidetolerance="10"
     inkscape:pageopacity="0"
     inkscape:pageshadow="2"
     inkscape:window-width="640"
     inkscape:window-height="480"
     id="namedview12"
     showgrid="false"
     inkscape:zoom="1.888"
     inkscape:cx="50"
     inkscape:cy="62.5"
     inkscape:window-x="451"
     inkscape:window-y="247"
     inkscape:window-maximized="0"
     inkscape:current-layer="svg10" />
  <g
     transform="matrix(1.1203774,0,0,1.0882768,-6.0170452,-1030.8475)"
     id="g4">
    <path
       style="color:#000000;text-indent:0;text-transform:none;direction:ltr;baseline-shift:baseline;display:inline;overflow:visible;visibility:visible;fill:#000000;fill-opacity:1;stroke:none;enable-background:accumulate"
       d="m 49.766182,960.37455 a 1.9995118,1.9999055 0 0 0 -1.218331,0.59366 L 6.5623013,1003.9618 a 1.9995118,1.9999055 0 0 0 1.4370054,3.4058 H 18.995522 v 34.9949 a 1.9995118,1.9999055 0 0 0 1.999312,1.9997 h 57.980045 a 1.9995118,1.9999055 0 0 0 1.999312,-1.9997 v -34.9949 h 10.996215 a 1.9995118,1.9999055 0 0 0 1.437005,-3.4058 L 51.421862,960.96821 a 1.9995118,1.9999055 0 0 0 -1.65568,-0.59366 z m 0.218674,4.84303 37.268423,38.15062 h -8.2784 a 1.9995118,1.9999055 0 0 0 -1.999312,1.9997 v 34.9949 H 59.981416 v -9.9985 c 0,-1.5451 -0.677884,-2.8587 -1.68692,-3.9683 -1.009035,-1.1094 -2.494074,-2.0309 -4.311016,-2.0309 h -7.997247 c -1.816942,0 -3.301981,0.9215 -4.311017,2.0309 -1.009035,1.1096 -1.686919,2.4232 -1.686919,3.9683 v 9.9985 H 22.994146 v -34.9949 a 1.9995118,1.9999055 0 0 0 -1.999312,-1.9997 h -8.278401 z m 0,17.15373 c -11.018213,0 -19.993119,8.97665 -19.993119,19.99709 0,11.0204 8.974906,19.997 19.993119,19.997 11.018214,0 19.993119,-8.9766 19.993119,-19.997 0,-11.02044 -8.974905,-19.99709 -19.993119,-19.99709 z m 0,3.99941 c 8.857197,0 15.994495,7.13868 15.994495,15.99768 0,8.8589 -7.137298,15.9976 -15.994495,15.9976 -8.857196,0 -15.994495,-7.1387 -15.994495,-15.9976 0,-8.859 7.137299,-15.99768 15.994495,-15.99768 z m -5.216954,3.96817 a 1.9995114,1.9999051 0 0 0 -1.187092,3.43699 l 1.905595,1.90597 c -0.690455,0.79345 -1.030896,1.70106 -1.030896,2.6871 0,0.23101 0.02517,0.46457 0.06248,0.6874 l -1.124613,-1.12483 a 1.9995114,1.9999051 0 0 0 -1.624441,-0.59367 1.9995114,1.9999051 0 0 0 -1.187091,3.43695 l 1.968072,1.9685 c -0.19432,0.5118 -0.342702,1.0675 -0.437349,1.6248 h -1.124613 a 1.9995116,1.9999053 0 0 0 -0.187436,0 2.0015072,2.0019013 0 1 0 0.187436,3.9994 h 1.374527 c 0.131357,0.4443 0.305295,0.8688 0.499828,1.281 l -1.280809,1.2811 a 1.9995114,1.9999051 0 1 0 2.811532,2.8433 l 0.999656,-0.9998 c 1.293454,0.9889 2.858763,1.5935 4.592169,1.5935 1.733407,0 3.298716,-0.6046 4.59217,-1.5935 l 0.999656,0.9998 a 1.9995114,1.9999051 0 1 0 2.811532,-2.8433 l -1.280809,-1.2811 c 0.194533,-0.4122 0.368471,-0.8367 0.499828,-1.281 h 1.374527 a 1.9995116,1.9999053 0 1 0 0,-3.9994 h -1.124613 c -0.09399,-0.5615 -0.243272,-1.108 -0.43735,-1.6248 l 1.968073,-1.9685 a 1.9995114,1.9999051 0 0 0 -1.65568,-3.43695 1.9995114,1.9999051 0 0 0 -1.155852,0.59367 l -1.124613,1.12483 c 0.03693,-0.22283 0.06248,-0.45639 0.06248,-0.6874 0,-0.98604 -0.341279,-1.89365 -1.030895,-2.6871 l 1.905594,-1.90597 a 1.9995114,1.9999051 0 0 0 -1.65568,-3.43699 1.9995114,1.9999051 0 0 0 -1.155852,0.59366 l -1.999312,1.9997 a 1.9995114,1.9999051 0 0 0 -0.562306,0.93737 c -0.325991,-0.0483 -0.673598,-0.0625 -1.030896,-0.0625 -0.368615,0 -0.726885,0.0112 -1.062134,0.0625 a 1.9995114,1.9999051 0 0 0 -0.531067,-0.93737 l -1.999312,-1.9997 a 1.9995114,1.9999051 0 0 0 -1.624441,-0.59366 z m 5.216954,6.81149 c 0.225027,0.25262 0.468589,0.68844 0.468589,1.21857 0,0.53013 -0.243562,0.96595 -0.468589,1.21857 -0.225058,-0.25259 -0.468588,-0.68836 -0.468588,-1.21857 0,-0.53021 0.24353,-0.96597 0.468588,-1.21857 z m -2.561618,5.28052 c 0.722808,0.3003 1.59158,0.4999 2.561618,0.4999 0.970038,0 1.83881,-0.1996 2.561619,-0.4999 0.84189,0.8417 1.437005,2.0144 1.437005,3.3432 0,2.6539 -1.872508,4.5931 -3.998624,4.5931 -2.126115,0 -3.998623,-1.9392 -3.998623,-4.5931 0,-1.3022 0.601145,-2.4947 1.437005,-3.3432 z m -1.437005,25.9337 h 7.997247 c 0.398297,0 0.906821,0.2386 1.343288,0.7185 0.436467,0.4799 0.656024,1.1851 0.656024,1.2812 v 9.9985 H 43.986921 v -9.9985 c 0,-0.096 0.219557,-0.8013 0.656024,-1.2812 0.436467,-0.4799 0.94499,-0.7185 1.343288,-0.7185 z"
       marker="none"
       visibility="visible"
       display="inline"
       overflow="visible"
       id="path2"
       inkscape:connector-curvature="0" />
  </g>
</svg>
