<?xml version="1.0" encoding="UTF-8" standalone="no"?>
<svg
   xmlns:dc="http://purl.org/dc/elements/1.1/"
   xmlns:cc="http://creativecommons.org/ns#"
   xmlns:rdf="http://www.w3.org/1999/02/22-rdf-syntax-ns#"
   xmlns:svg="http://www.w3.org/2000/svg"
   xmlns="http://www.w3.org/2000/svg"
   xmlns:sodipodi="http://sodipodi.sourceforge.net/DTD/sodipodi-0.dtd"
   xmlns:inkscape="http://www.inkscape.org/namespaces/inkscape"
   inkscape:version="1.0rc1 (09960d6f05, 2020-04-09)"
   sodipodi:docname="noun_Industry_2561340.svg"
   id="svg8"
   y="0px"
   x="0px"
   viewBox="0 0 100 125"
   version="1.1">
  <metadata
     id="metadata14">
    <rdf:RDF>
      <cc:Work
         rdf:about="">
        <dc:format>image/svg+xml</dc:format>
        <dc:type
           rdf:resource="http://purl.org/dc/dcmitype/StillImage" />
      </cc:Work>
    </rdf:RDF>
  </metadata>
  <defs
     id="defs12" />
  <sodipodi:namedview
     inkscape:current-layer="svg8"
     inkscape:window-maximized="1"
     inkscape:window-y="-8"
     inkscape:window-x="-8"
     inkscape:cy="41.734943"
     inkscape:cx="56.759741"
     inkscape:zoom="3.968"
     showgrid="false"
     id="namedview10"
     inkscape:window-height="988"
     inkscape:window-width="1680"
     inkscape:pageshadow="2"
     inkscape:pageopacity="0"
     guidetolerance="10"
     gridtolerance="10"
     objecttolerance="10"
     borderopacity="1"
     bordercolor="#666666"
     pagecolor="#ffffff" />
  <path
     id="path2"
     d="m74.471 3.3789c-8.4885 0.0048886-16.976 3.242-23.445 9.709l-0.88281 0.88281 1.7676 1.7676 0.88281-0.88281c11.985-11.98 31.371-11.99 43.369-0.025391l0.88477 0.88281 1.7656-1.7715-0.88477-0.88086c-6.4769-6.4591-14.969-9.6865-23.457-9.6816zm0.001953 9.0273c-6.2022 0.0036-12.404 2.3666-17.129 7.0898l-0.88281 0.88476 1.7656 1.7676 0.88477-0.88281c8.4959-8.4923 22.227-8.4996 30.732-0.017578l0.88477 0.88281 1.7656-1.7715-0.88477-0.88281c-4.7305-4.7176-10.934-7.0739-17.137-7.0703zm0.001953 9.0273c-4.0058 0.0022-8.0112 1.5281-11.061 4.5762l-0.88476 0.88281 1.7676 1.7695 0.88477-0.88476c5.144-5.1419 13.442-5.1458 18.592-0.009766l0.88476 0.88281 1.7656-1.7695-0.88477-0.88281c-3.0527-3.0446-7.0587-4.5667-11.064-4.5645zm-4.4512 11.449-2.0078 27.727h-1.5078l-10.32-9.2852-10.062-9.0566 0.013672 18.342h-1.5215l-10.318-9.2852-10.062-9.0566 0.009766 18.342h-1.5176l-10.32-9.2852-10.064-9.0566 0.013672 18.342h-0.0039063v35.543h17.959v-12.654h7.2227v12.654h28.527v-12.611h7.2227v12.611h17.961v-35.529h0.007812l-2.0117-27.74h-9.2188zm-56.436 34.984h13.947v6.5664h-13.947v-6.5664zm21.236 0h13.949v6.5664h-13.949v-6.5664zm21.238 0h13.947v6.5664h-13.947v-6.5664z" />
</svg>
