<?xml version="1.0" encoding="UTF-8" standalone="no"?>
<svg
   xmlns:dc="http://purl.org/dc/elements/1.1/"
   xmlns:cc="http://creativecommons.org/ns#"
   xmlns:rdf="http://www.w3.org/1999/02/22-rdf-syntax-ns#"
   xmlns:svg="http://www.w3.org/2000/svg"
   xmlns="http://www.w3.org/2000/svg"
   xmlns:sodipodi="http://sodipodi.sourceforge.net/DTD/sodipodi-0.dtd"
   xmlns:inkscape="http://www.inkscape.org/namespaces/inkscape"
   inkscape:version="1.0rc1 (09960d6f05, 2020-04-09)"
   sodipodi:docname="Musical_instrument-14.svg"
   version="1.1"
   id="svg2"
   x="0px"
   y="0px"
   width="14"
   height="14"
   viewBox="0 0 14 14"
   enable-background="new 0 0 580 580"
   xml:space="preserve"><sodipodi:namedview
   inkscape:current-layer="svg2"
   inkscape:window-maximized="1"
   inkscape:window-y="-8"
   inkscape:window-x="-8"
   inkscape:cy="7"
   inkscape:cx="7"
   inkscape:zoom="16.857143"
   showgrid="false"
   id="namedview6"
   inkscape:window-height="988"
   inkscape:window-width="1680"
   inkscape:pageshadow="2"
   inkscape:pageopacity="0"
   guidetolerance="10"
   gridtolerance="10"
   objecttolerance="10"
   borderopacity="1"
   bordercolor="#666666"
   pagecolor="#ffffff" /><metadata
   id="metadata13"><rdf:RDF><cc:Work
       rdf:about=""><dc:format>image/svg+xml</dc:format><dc:type
         rdf:resource="http://purl.org/dc/dcmitype/StillImage" /><dc:title /></cc:Work></rdf:RDF></metadata><defs
   id="defs11" /><path
   id="path3389"
   style="fill:#000000;fill-opacity:1;fill-rule:evenodd;stroke:none;stroke-opacity:1"
   d="m 11,6 c 1,0 2,1 2,2 l 0,2 c 0.0034,0.946601 -1,2 -2,2 L 6,12 C 5,12 4,11 4,10 L 4,8 C 4,7 5,6 6,6 L 7,6 C 5,7 5,7 5,9 5,9.558061 5.5149841,9.961494 6,10 l 5,0 c 0.605412,0 1,-0.441939 1,-1 0,-2 0,-2 -2,-3.0047349 z M 7,3 7,4.9882812 5,5 5,6 7,6 7,8 8,8 8,6 l 1,0 0,2 1,0 0,-2 3,0 c 0,1 1,1 1,1 l 0,-3 c 0,0 -1,4.76e-4 -1,0.953125 L 10,4.9707031 10,3 9,3 9,4.9765625 8,4.9824219 8,3 7,3 Z M 0,10 0,1 C 3,1 3,5 5,5 L 5,6 C 3,6 3,10 0,10 Z" />
</svg>
