<?xml version="1.0" encoding="UTF-8" standalone="no"?>
<svg
   xmlns:dc="http://purl.org/dc/elements/1.1/"
   xmlns:cc="http://creativecommons.org/ns#"
   xmlns:rdf="http://www.w3.org/1999/02/22-rdf-syntax-ns#"
   xmlns:svg="http://www.w3.org/2000/svg"
   xmlns="http://www.w3.org/2000/svg"
   xmlns:sodipodi="http://sodipodi.sourceforge.net/DTD/sodipodi-0.dtd"
   xmlns:inkscape="http://www.inkscape.org/namespaces/inkscape"
   inkscape:version="1.0rc1 (09960d6f05, 2020-04-09)"
   sodipodi:docname="noun_garden tool_3175001.svg"
   id="svg28"
   xml:space="preserve"
   enable-background="new 0 0 64 64"
   viewBox="0 0 64 80"
   y="0px"
   x="0px"
   version="1.1"><metadata
     id="metadata34"><rdf:RDF><cc:Work
         rdf:about=""><dc:format>image/svg+xml</dc:format><dc:type
           rdf:resource="http://purl.org/dc/dcmitype/StillImage" /></cc:Work></rdf:RDF></metadata><defs
     id="defs32" /><sodipodi:namedview
     inkscape:current-layer="svg28"
     inkscape:window-maximized="1"
     inkscape:window-y="-8"
     inkscape:window-x="-8"
     inkscape:cy="40"
     inkscape:cx="32"
     inkscape:zoom="3.1"
     showgrid="false"
     id="namedview30"
     inkscape:window-height="988"
     inkscape:window-width="1680"
     inkscape:pageshadow="2"
     inkscape:pageopacity="0"
     guidetolerance="10"
     gridtolerance="10"
     objecttolerance="10"
     borderopacity="1"
     bordercolor="#666666"
     pagecolor="#ffffff" /><g
     transform="matrix(1.0655242,0,0,1.0655242,-1.6129032,6)"
     id="g4"><rect
       y="0"
       x="0"
       id="rect2"
       height="64"
       width="64"
       fill="none" /></g><g
     transform="matrix(1.0655242,0,0,1.0655242,-1.6129032,6)"
     id="g22"><path
       inkscape:connector-curvature="0"
       id="path6"
       d="m 13,59 c 0,2.757 2.243,5 5,5 h 2 c 2.757,0 5,-2.243 5,-5 V 44.667 H 13 Z" /><path
       inkscape:connector-curvature="0"
       id="path8"
       d="M 25,35.333 H 13 c -1.103,0 -2,0.897 -2,2 v 3.334 c 0,1.103 0.897,2 2,2 h 12 c 1.103,0 2,-0.897 2,-2 v -3.334 c 0,-1.103 -0.897,-2 -2,-2 z" /><rect
       id="rect10"
       height="3.3329999"
       width="8"
       y="30"
       x="15" /><path
       inkscape:connector-curvature="0"
       id="path12"
       d="M 33,0 H 29 C 27.897,0 27,0.913 27,2.035 V 13.449 L 23,13.414 V 2.035 C 23,0.913 22.103,0 21,0 H 17 C 15.897,0 15,0.913 15,2.035 V 13.449 L 11,13.414 V 2.035 C 11,0.913 10.103,0 9,0 H 5 C 3.897,0 3,0.913 3,2.035 v 20.131 c 0,0.672 0.327,1.303 0.883,1.692 L 15.688,32 h 6.623 L 34.124,23.853 C 34.673,23.468 35,22.837 35,22.166 V 2.035 C 35,0.913 34.103,0 33,0 Z" /><path
       inkscape:connector-curvature="0"
       id="path14"
       d="M 51,5 C 51,2.243 48.757,0 46,0 h -2 c -2.757,0 -5,2.243 -5,5 v 14.333 h 12 z" /><path
       inkscape:connector-curvature="0"
       id="path16"
       d="M 51,21.333 H 39 c -1.103,0 -2,0.897 -2,2 v 3.333 c 0,1.103 0.897,2 2,2 h 12 c 1.103,0 2,-0.897 2,-2 v -3.333 c 0,-1.103 -0.897,-2 -2,-2 z" /><rect
       id="rect18"
       height="3.3329999"
       width="8"
       y="30.667"
       x="41" /><path
       inkscape:connector-curvature="0"
       id="path20"
       d="m 60.862,36.973 c -0.219,-0.57 -0.669,-1.004 -1.233,-1.188 L 48.161,32 h -6.322 l -11.466,3.783 c -0.566,0.186 -1.017,0.619 -1.235,1.189 -0.226,0.591 -0.174,1.242 0.142,1.787 L 43.309,63.008 C 43.667,63.63 44.299,64 45,64 c 0.701,0 1.333,-0.37 1.691,-0.991 L 60.721,38.76 c 0.315,-0.545 0.367,-1.197 0.141,-1.787 z" /></g></svg>
