<?xml version="1.0" encoding="UTF-8" standalone="no"?>
<svg
   xmlns:dc="http://purl.org/dc/elements/1.1/"
   xmlns:cc="http://creativecommons.org/ns#"
   xmlns:rdf="http://www.w3.org/1999/02/22-rdf-syntax-ns#"
   xmlns:svg="http://www.w3.org/2000/svg"
   xmlns="http://www.w3.org/2000/svg"
   xmlns:sodipodi="http://sodipodi.sourceforge.net/DTD/sodipodi-0.dtd"
   xmlns:inkscape="http://www.inkscape.org/namespaces/inkscape"
   inkscape:version="1.0rc1 (09960d6f05, 2020-04-09)"
   sodipodi:docname="noun_gamepad_569582.svg"
   id="svg10"
   viewBox="0 0 100 125"
   y="0px"
   x="0px"
   version="1.1">
  <metadata
     id="metadata16">
    <rdf:RDF>
      <cc:Work
         rdf:about="">
        <dc:format>image/svg+xml</dc:format>
        <dc:type
           rdf:resource="http://purl.org/dc/dcmitype/StillImage" />
      </cc:Work>
    </rdf:RDF>
  </metadata>
  <defs
     id="defs14" />
  <sodipodi:namedview
     inkscape:current-layer="svg10"
     inkscape:window-maximized="1"
     inkscape:window-y="-8"
     inkscape:window-x="-8"
     inkscape:cy="35.895371"
     inkscape:cx="37.007483"
     inkscape:zoom="2.8057997"
     showgrid="false"
     id="namedview12"
     inkscape:window-height="988"
     inkscape:window-width="1680"
     inkscape:pageshadow="2"
     inkscape:pageopacity="0"
     guidetolerance="10"
     gridtolerance="10"
     objecttolerance="10"
     borderopacity="1"
     bordercolor="#666666"
     pagecolor="#ffffff" />
  <g
     id="g4"
     transform="matrix(1.1680108,0,0,1.1680108,-8.25291,-1115.5615)">
    <path
       inkscape:connector-curvature="0"
       id="path2"
       transform="translate(0,952.36218)"
       d="m 50,19 c -0.942809,0 -2,1.011331 -2,2 v 14 h 4 V 21 c 0,-1.134813 -1.057191,-2 -2,-2 z M 28,39 C 17.142286,39 8,47.9888 8,59 c 0,11.0112 8.142286,20 19,20 4.736349,0 9.605953,-2.1708 13,-5 h 20 c 3.394047,2.8292 8.263651,5 13,5 C 83.857714,79 92,70.0112 92,59 92,47.9888 82.857714,39 72,39 Z m 44,9 c 1.65684,0 3,1.3432 3,3 0,1.6569 -1.34316,3 -3,3 -1.65684,0 -3,-1.3431 -3,-3 0,-1.6568 1.34316,-3 3,-3 z m -44,1 c 1.108,0 2,0.892 2,2 v 6 h 6 c 1.108,0 2,0.892 2,2 0,1.108 -0.892,2 -2,2 h -6 v 6 c 0,1.108 -0.892,2 -2,2 -1.108,0 -2,-0.892 -2,-2 v -6 h -6 c -1.108,0 -2,-0.892 -2,-2 0,-1.108 0.892,-2 2,-2 h 6 v -6 c 0,-1.108 0.892,-2 2,-2 z m 36,7 c 1.6568,0 3,1.3432 3,3 0,1.6568 -1.3432,3 -3,3 -1.6569,0 -3,-1.3432 -3,-3 0,-1.6568 1.3431,-3 3,-3 z m 16,0 c 1.6568,0 3,1.3432 3,3 0,1.6568 -1.3432,3 -3,3 -1.6569,0 -3,-1.3432 -3,-3 0,-1.6568 1.3431,-3 3,-3 z m -8,8 c 1.65684,0 3,1.3432 3,3 0,1.6569 -1.34316,3 -3,3 -1.65684,0 -3,-1.3431 -3,-3 0,-1.6568 1.34316,-3 3,-3 z"
       style="color:#000000;display:inline;overflow:visible;visibility:visible;opacity:1;fill:#000000;stroke:none;stroke-width:2;marker:none;enable-background:accumulate" />
  </g>
</svg>
