<?xml version="1.0" encoding="UTF-8" standalone="no"?>
<svg
   xmlns:dc="http://purl.org/dc/elements/1.1/"
   xmlns:cc="http://creativecommons.org/ns#"
   xmlns:rdf="http://www.w3.org/1999/02/22-rdf-syntax-ns#"
   xmlns:svg="http://www.w3.org/2000/svg"
   xmlns="http://www.w3.org/2000/svg"
   xmlns:sodipodi="http://sodipodi.sourceforge.net/DTD/sodipodi-0.dtd"
   xmlns:inkscape="http://www.inkscape.org/namespaces/inkscape"
   inkscape:version="1.0rc1 (09960d6f05, 2020-04-09)"
   sodipodi:docname="noun_toy train_809709.svg"
   id="svg16"
   y="0px"
   x="0px"
   version="1.1"
   viewBox="0 0 24 30">
  <metadata
     id="metadata22">
    <rdf:RDF>
      <cc:Work
         rdf:about="">
        <dc:format>image/svg+xml</dc:format>
        <dc:type
           rdf:resource="http://purl.org/dc/dcmitype/StillImage" />
      </cc:Work>
    </rdf:RDF>
  </metadata>
  <defs
     id="defs20" />
  <sodipodi:namedview
     inkscape:current-layer="svg16"
     inkscape:window-maximized="1"
     inkscape:window-y="-8"
     inkscape:window-x="-8"
     inkscape:cy="15"
     inkscape:cx="12"
     inkscape:zoom="8.2666667"
     showgrid="false"
     id="namedview18"
     inkscape:window-height="988"
     inkscape:window-width="1680"
     inkscape:pageshadow="2"
     inkscape:pageopacity="0"
     guidetolerance="10"
     gridtolerance="10"
     objecttolerance="10"
     borderopacity="1"
     bordercolor="#666666"
     pagecolor="#ffffff" />
  <title
     id="title2">15 -Toy Train- (Solid)</title>
  <desc
     id="desc4">Created with Sketch.</desc>
  <g
     transform="translate(0,2.6048385)"
     id="g10"
     fill-rule="evenodd"
     fill="none"
     stroke-width="1"
     stroke="none">
    <g
       id="g8"
       fill="#000000">
      <path
         inkscape:connector-curvature="0"
         id="path6"
         d="m 18,22 c -1.206,0 -2.242,-0.72 -2.718,-1.749 l 2.809,-0.255 c 0.55,-0.05 0.955,-0.537 0.905,-1.086 -0.051,-0.55 -0.527,-0.946 -1.087,-0.906 l -2.805,0.255 C 15.436,16.964 16.603,16 18,16 c 1.654,0 3,1.346 3,3 0,1.654 -1.346,3 -3,3 z M 15,7 c 0,-0.552 0.447,-1 1,-1 h 3 c 0.553,0 1,0.448 1,1 v 5 c 0,0.552 -0.447,1 -1,1 h -3 c -0.553,0 -1,-0.448 -1,-1 z M 21.612,2 21.279,3 H 13.721 L 13.388,2 Z M 7,22 c -1.103,0 -2,-0.897 -2,-2 0,-1.103 0.897,-2 2,-2 0.673,0 1.266,0.336 1.629,0.848 l -1.72,0.156 C 6.359,19.054 5.954,19.541 6.004,20.09 6.052,20.61 6.487,21 6.999,21 7.029,21 7.06,20.999 7.091,20.996 L 8.809,20.84 C 8.49,21.523 7.802,22 7,22 Z M 23.812,0.416 C 23.623,0.154 23.321,0 23,0 H 12 c -0.321,0 -0.623,0.154 -0.812,0.416 -0.187,0.26 -0.239,0.595 -0.136,0.9 L 12,4.161 V 10 H 9 V 6.161 L 9.948,3.316 C 10.051,3.011 9.999,2.676 9.812,2.416 9.623,2.154 9.321,2 9,2 H 4 C 3.679,2 3.377,2.154 3.188,2.416 3.001,2.676 2.949,3.011 3.052,3.316 L 4,6.161 V 10 H 3.986 C 1.788,10 0,11.788 0,13.986 v 3.028 c 0,1.892 1.329,3.474 3.109,3.879 C 3.516,22.668 5.102,24 7,24 c 1.985,0 3.623,-1.456 3.935,-3.353 l 2.301,-0.21 C 13.858,22.491 15.746,24 18,24 c 2.757,0 5,-2.243 5,-5 V 4.161 l 0.948,-2.845 c 0.103,-0.305 0.051,-0.64 -0.136,-0.9 z" />
    </g>
  </g>
</svg>
