<?xml version="1.0" encoding="UTF-8" standalone="no"?>
<svg
   xmlns:dc="http://purl.org/dc/elements/1.1/"
   xmlns:cc="http://creativecommons.org/ns#"
   xmlns:rdf="http://www.w3.org/1999/02/22-rdf-syntax-ns#"
   xmlns:svg="http://www.w3.org/2000/svg"
   xmlns="http://www.w3.org/2000/svg"
   xmlns:sodipodi="http://sodipodi.sourceforge.net/DTD/sodipodi-0.dtd"
   xmlns:inkscape="http://www.inkscape.org/namespaces/inkscape"
   inkscape:version="1.0rc1 (09960d6f05, 2020-04-09)"
   sodipodi:docname="noun_karting_396377.svg"
   id="svg24"
   xml:space="preserve"
   style="enable-background:new -252 375.9 90 90;"
   viewBox="-252 375.9 90 112.5"
   y="0px"
   x="0px"
   version="1.1"><metadata
     id="metadata30"><rdf:RDF><cc:Work
         rdf:about=""><dc:format>image/svg+xml</dc:format><dc:type
           rdf:resource="http://purl.org/dc/dcmitype/StillImage" /></cc:Work></rdf:RDF></metadata><defs
     id="defs28" /><sodipodi:namedview
     inkscape:current-layer="svg24"
     inkscape:window-maximized="1"
     inkscape:window-y="-8"
     inkscape:window-x="-8"
     inkscape:cy="56.25"
     inkscape:cx="45"
     inkscape:zoom="2.2044444"
     showgrid="false"
     id="namedview26"
     inkscape:window-height="988"
     inkscape:window-width="1680"
     inkscape:pageshadow="2"
     inkscape:pageopacity="0"
     guidetolerance="10"
     gridtolerance="10"
     objecttolerance="10"
     borderopacity="1"
     bordercolor="#666666"
     pagecolor="#ffffff" /><path
     style="stroke-width:1.08306"
     inkscape:connector-curvature="0"
     id="path2"
     d="m -199.87544,419.66117 20.90303,-2.38273 c 0,0 8.88108,-19.27844 -5.41529,-19.27844 -14.29637,0 -15.48774,8.23124 -15.48774,8.23124 0,0 -0.10831,0.86645 1.40798,0.75814 1.51627,-0.21661 8.23124,-1.62458 8.44785,-0.54153 0.21661,1.08306 0.97476,8.23125 -0.64984,8.44787 -1.62458,0.32492 -8.55615,0.32492 -9.3143,0.75814 -0.75814,0.43322 0.10831,4.00731 0.10831,4.00731 z" /><path
     style="stroke-width:1.08306"
     inkscape:connector-curvature="0"
     id="path4"
     d="m -190.88606,420.0944 c 4.00732,-1.84121 15.70435,-0.32492 13.32163,2.81595 -2.38273,3.14087 -14.51299,16.78741 -14.51299,16.78741 l -3.35748,-9.206 c 0,0 3.68239,-1.7329 6.17343,-2.92426 l -0.97475,-0.54153 -8.55616,3.79071 c 0,0 -3.14088,1.51627 -6.39005,0.43322 -3.24917,-1.08306 -9.63922,-4.00732 -10.72228,-4.76545 -1.08306,-0.75815 -1.51628,-2.92427 -0.86645,-4.11563 0.64984,-1.19136 1.94951,-2.38273 4.22393,-1.40797 2.27443,0.97474 10.07244,4.00731 10.07244,4.00731 0,0 6.93158,-2.70765 11.58873,-4.87376 z" /><rect
     style="stroke-width:1.08305"
     id="rect6"
     height="1.2996643"
     width="26.643116"
     transform="rotate(-40.579543)"
     y="178.46011"
     x="-465.63177" /><path
     style="stroke-width:1.08306"
     inkscape:connector-curvature="0"
     id="path8"
     d="m -212.76384,427.24258 v 0 c -0.43322,0.43322 -1.19136,0.32492 -1.51628,-0.10831 l -7.68972,-8.98938 c -0.43322,-0.43323 -0.32492,-1.19137 0.10831,-1.51629 v 0 c 0.43322,-0.43321 1.19136,-0.3249 1.51628,0.10831 l 7.68971,8.98939 c 0.43323,0.43323 0.32492,1.08306 -0.1083,1.51628 z" /><path
     style="stroke-width:1.08306"
     inkscape:connector-curvature="0"
     id="path10"
     d="m -245.58051,448.79545 c 0,-5.19868 4.22392,-9.42261 9.42261,-9.42261 0.32491,0 0.54153,0 0.86644,0 -0.75814,-1.19137 -1.62459,-2.59934 -2.70765,-4.22393 -12.34686,4.44054 -13.42992,14.07976 -13.42992,14.07976 l 0.43322,4.11562 h 6.60665 c -0.75813,-1.29966 -1.19135,-2.92425 -1.19135,-4.54884 z" /><path
     style="stroke-width:1.08306"
     inkscape:connector-curvature="0"
     id="path12"
     d="m -198.25085,432.22465 -8.55617,5.41529 -8.66446,-6.39004 c 0,0 -2.70766,-3.6824 -7.2565,0 -2.70764,2.16611 -7.25649,5.95683 -10.50567,8.77278 2.49104,0.86644 4.54884,2.92425 5.5236,5.41529 l 8.23125,-6.39005 8.98938,8.77278 c 0,0 -1.62459,-7.14819 3.14087,-8.12294 4.87376,-0.97476 11.48042,0 11.48042,0 z" /><path
     style="stroke-width:1.08306"
     inkscape:connector-curvature="0"
     id="path14"
     d="m -174.20695,434.82399 1.62459,-7.68972 -4.65715,-1.73288 -14.513,16.35418 c 0,0 -11.2638,-0.64983 -12.88839,-0.64983 -1.62459,0 -2.92426,0.21661 -3.89901,1.94949 -0.97475,1.6246 0,4.65717 0,4.65717 h -18.30369 c 0,0.3249 0.1083,0.64982 0.1083,1.08305 0,1.62459 -0.43322,3.24918 -1.19136,4.54884 h 42.5642 c -0.75814,-1.29966 -1.19136,-2.92425 -1.19136,-4.54884 0,-5.19868 4.22393,-9.42261 9.42261,-9.42261 5.19869,0 9.42261,4.22393 9.42261,9.42261 0,1.62459 -0.43322,3.24918 -1.19136,4.54884 h 5.84851 c 0,0 0,0 0.32492,-3.03256 0.64984,-14.18806 -11.48042,-15.48774 -11.48042,-15.48774 z" /><path
     style="stroke-width:1.08306"
     inkscape:connector-curvature="0"
     id="path16"
     d="m -236.48282,440.88912 c -4.33224,0 -7.90634,3.57409 -7.90634,7.90633 0,4.33224 3.5741,7.90633 7.90634,7.90633 4.33223,0 7.90632,-3.57409 7.90632,-7.90633 0,-4.33224 -3.57409,-7.90633 -7.90632,-7.90633 z m 0,10.9389 c -1.7329,0 -3.03256,-1.40798 -3.03256,-3.03257 0,-1.73289 1.40797,-3.03256 3.03256,-3.03256 1.73289,0 3.03256,1.40798 3.03256,3.03256 0,1.73289 -1.29967,3.03257 -3.03256,3.03257 z" /><path
     style="stroke-width:1.08306"
     inkscape:connector-curvature="0"
     id="path18"
     d="m -177.23951,440.88912 c -4.33225,0 -7.90634,3.57409 -7.90634,7.90633 0,4.33224 3.57409,7.90633 7.90634,7.90633 4.33223,0 7.90632,-3.57409 7.90632,-7.90633 0,-4.33224 -3.57409,-7.90633 -7.90632,-7.90633 z m 0,10.9389 c -1.7329,0 -3.03257,-1.40798 -3.03257,-3.03257 0,-1.73289 1.40798,-3.03256 3.03257,-3.03256 1.73288,0 3.03256,1.40798 3.03256,3.03256 0,1.73289 -1.29968,3.03257 -3.03256,3.03257 z" /></svg>
