<?xml version="1.0" encoding="UTF-8" standalone="no"?>
<svg
   xmlns:dc="http://purl.org/dc/elements/1.1/"
   xmlns:cc="http://creativecommons.org/ns#"
   xmlns:rdf="http://www.w3.org/1999/02/22-rdf-syntax-ns#"
   xmlns:svg="http://www.w3.org/2000/svg"
   xmlns="http://www.w3.org/2000/svg"
   xmlns:sodipodi="http://sodipodi.sourceforge.net/DTD/sodipodi-0.dtd"
   xmlns:inkscape="http://www.inkscape.org/namespaces/inkscape"
   inkscape:version="1.0rc1 (09960d6f05, 2020-04-09)"
   sodipodi:docname="noun_books_483366.svg"
   id="svg8"
   xml:space="preserve"
   enable-background="new 0 0 100 100"
   viewBox="0 0 100 125"
   y="0px"
   x="0px"
   version="1.1"><metadata
     id="metadata14"><rdf:RDF><cc:Work
         rdf:about=""><dc:format>image/svg+xml</dc:format><dc:type
           rdf:resource="http://purl.org/dc/dcmitype/StillImage" /></cc:Work></rdf:RDF></metadata><defs
     id="defs12" /><sodipodi:namedview
     inkscape:current-layer="svg8"
     inkscape:window-maximized="1"
     inkscape:window-y="-8"
     inkscape:window-x="-8"
     inkscape:cy="62.5"
     inkscape:cx="50"
     inkscape:zoom="1.984"
     showgrid="false"
     id="namedview10"
     inkscape:window-height="988"
     inkscape:window-width="1680"
     inkscape:pageshadow="2"
     inkscape:pageopacity="0"
     guidetolerance="10"
     gridtolerance="10"
     objecttolerance="10"
     borderopacity="1"
     bordercolor="#666666"
     pagecolor="#ffffff" /><path
     inkscape:connector-curvature="0"
     id="path2"
     d="M 45.1,82.6 97.7,52 V 45.4 L 45.1,76 37.2,71.5 v 0 L 8.3,54.8 V 47.1 L 45,68.3 97.6,37.7 54.9,13.1 2.4,43.6 v 0 0 0 0 14.2 0 0 0 14.2 0 0 0 14.2 0 l 31.9,18.4 v 0 l 10.9,6.3 52.5,-30.5 v -6.6 l -52.6,30.5 -7.9,-4.5 v 0 L 8.3,83.1 v -7.6 l 25.9,14.9 v 0 L 45.1,96.7 97.6,66.2 V 59.6 L 45.1,90.2 37.2,85.7 v 0 L 8.3,69 v -7.6 l 25.9,14.9 v 0 z M 51.5,23.4 79.8,39.8 74.3,43 45.9,26.6 Z M 41.4,29.3 69.7,45.7 64.1,48.9 35.8,32.5 Z" /></svg>
