<?xml version="1.0" encoding="UTF-8" standalone="no"?>
<svg
   xmlns:dc="http://purl.org/dc/elements/1.1/"
   xmlns:cc="http://creativecommons.org/ns#"
   xmlns:rdf="http://www.w3.org/1999/02/22-rdf-syntax-ns#"
   xmlns:svg="http://www.w3.org/2000/svg"
   xmlns="http://www.w3.org/2000/svg"
   xmlns:sodipodi="http://sodipodi.sourceforge.net/DTD/sodipodi-0.dtd"
   xmlns:inkscape="http://www.inkscape.org/namespaces/inkscape"
   inkscape:version="1.0rc1 (09960d6f05, 2020-04-09)"
   sodipodi:docname="noun_Bed_3327510.svg"
   id="svg14"
   version="1.1"
   y="0px"
   x="0px"
   viewBox="0 0 64 80"
   data-name="Layer 2">
  <metadata
     id="metadata20">
    <rdf:RDF>
      <cc:Work
         rdf:about="">
        <dc:format>image/svg+xml</dc:format>
        <dc:type
           rdf:resource="http://purl.org/dc/dcmitype/StillImage" />
      </cc:Work>
    </rdf:RDF>
  </metadata>
  <defs
     id="defs18" />
  <sodipodi:namedview
     inkscape:current-layer="svg14"
     inkscape:window-maximized="1"
     inkscape:window-y="-8"
     inkscape:window-x="-8"
     inkscape:cy="40"
     inkscape:cx="32"
     inkscape:zoom="3.1"
     showgrid="false"
     id="namedview16"
     inkscape:window-height="988"
     inkscape:window-width="1680"
     inkscape:pageshadow="2"
     inkscape:pageopacity="0"
     guidetolerance="10"
     gridtolerance="10"
     objecttolerance="10"
     borderopacity="1"
     bordercolor="#666666"
     pagecolor="#ffffff" />
  <title
     id="title2">21, bed, sleep, hotel, travelling, holiday, vacation,</title>
  <path
     style="stroke-width:1.09455"
     inkscape:connector-curvature="0"
     id="path4"
     d="M 55.14683,34.701891 V 22.661846 A 7.6618465,7.6618465 0 0 0 47.484984,15 H 16.837597 a 7.6618465,7.6618465 0 0 0 -7.6618462,7.661846 v 12.040045 h 5.4727472 v -1.09455 a 3.2836484,3.2836484 0 0 1 3.283649,-3.283648 h 7.661846 a 3.2836484,3.2836484 0 0 1 3.283649,3.283648 v 1.09455 h 6.567297 v -1.09455 a 3.2836484,3.2836484 0 0 1 3.283649,-3.283648 h 7.661846 a 3.2836484,3.2836484 0 0 1 3.283649,3.283648 v 1.09455 z" />
  <path
     style="stroke-width:1.09455"
     inkscape:connector-curvature="0"
     id="path6"
     d="m 2.6084538,42.363737 v 2.1891 H 61.714127 v -2.1891 A 5.4727475,5.4727475 0 0 0 56.241379,36.89099 H 8.0812013 a 5.4727475,5.4727475 0 0 0 -5.4727475,5.472747 z" />
  <path
     style="stroke-width:1.09455"
     inkscape:connector-curvature="0"
     id="path8"
     d="M 62.808676,46.741936 H 1.5139043 a 1.0945495,1.0945495 0 0 0 -1.09454946,1.094548 v 12.040045 a 1.0945495,1.0945495 0 0 0 1.09454946,1.09455 h 8.0230479 a 1.0945495,1.0945495 0 0 0 1.0398218,-0.744294 l 0.788076,-2.484627 a 3.2836484,3.2836484 0 0 1 3.10852,-2.189099 h 35.332058 a 3.2836484,3.2836484 0 0 1 3.10852,2.189099 l 0.831859,2.484627 a 1.0945495,1.0945495 0 0 0 1.094549,0.744294 h 7.96832 a 1.0945495,1.0945495 0 0 0 1.09455,-1.09455 V 47.836484 a 1.0945495,1.0945495 0 0 0 -1.09455,-1.094548 z" />
</svg>
