<?xml version="1.0" encoding="UTF-8" standalone="no"?>
<svg
   xmlns:dc="http://purl.org/dc/elements/1.1/"
   xmlns:cc="http://creativecommons.org/ns#"
   xmlns:rdf="http://www.w3.org/1999/02/22-rdf-syntax-ns#"
   xmlns:svg="http://www.w3.org/2000/svg"
   xmlns="http://www.w3.org/2000/svg"
   xmlns:sodipodi="http://sodipodi.sourceforge.net/DTD/sodipodi-0.dtd"
   xmlns:inkscape="http://www.inkscape.org/namespaces/inkscape"
   inkscape:version="1.0rc1 (09960d6f05, 2020-04-09)"
   sodipodi:docname="noun_rent bike_1839677.svg"
   id="svg14"
   xml:space="preserve"
   style="enable-background:new 0 0 100 100;"
   viewBox="0 0 100 125"
   y="0px"
   x="0px"
   version="1.1"><metadata
     id="metadata20"><rdf:RDF><cc:Work
         rdf:about=""><dc:format>image/svg+xml</dc:format><dc:type
           rdf:resource="http://purl.org/dc/dcmitype/StillImage" /></cc:Work></rdf:RDF></metadata><defs
     id="defs18" /><sodipodi:namedview
     inkscape:current-layer="svg14"
     inkscape:window-maximized="1"
     inkscape:window-y="-8"
     inkscape:window-x="-8"
     inkscape:cy="62.5"
     inkscape:cx="50"
     inkscape:zoom="1.984"
     showgrid="false"
     id="namedview16"
     inkscape:window-height="988"
     inkscape:window-width="1680"
     inkscape:pageshadow="2"
     inkscape:pageopacity="0"
     guidetolerance="10"
     gridtolerance="10"
     objecttolerance="10"
     borderopacity="1"
     bordercolor="#666666"
     pagecolor="#ffffff" /><g
     transform="matrix(1.078405,0,0,1.0959753,-3.9202509,7.2011873)"
     id="g8"><path
       inkscape:connector-curvature="0"
       id="path2"
       d="m 77.107,56.227 c -1.791,0 -3.519,0.272 -5.152,0.764 L 68.42,49.616 66.71,45.121 h 7.564 c 1.153,0 2.091,0.938 2.091,2.091 0,1.153 -0.938,2.091 -2.091,2.091 h -0.236 c -1.104,0 -2,0.896 -2,2 0,1.104 0.896,2 2,2 h 0.236 c 3.359,0 6.091,-2.732 6.091,-6.091 0,-3.359 -2.732,-6.091 -6.091,-6.091 H 63.81 c -0.658,0 -1.273,0.323 -1.646,0.865 -0.374,0.542 -0.457,1.231 -0.223,1.846 l 1.723,4.53 H 40.147 l -1.665,-5.326 h 4.519 c 1.104,0 2,-0.896 2,-2 0,-1.104 -0.896,-2 -2,-2 H 31.21 c -1.104,0 -2,0.896 -2,2 0,1.104 0.896,2 2,2 h 3.081 l 2.104,6.73 -5.473,8.386 C 28.504,56.931 25.781,56.227 22.892,56.227 13.027,56.227 5,64.254 5,74.121 c 0,9.866 8.027,17.893 17.893,17.893 9.191,0 16.779,-6.968 17.775,-15.897 h 0.69 c 0.781,1.852 2.615,3.155 4.748,3.155 2.84,0 5.151,-2.311 5.151,-5.151 0,-0.821 -0.211,-1.587 -0.554,-2.276 l 15.374,-17.859 2.2,4.59 c -5.406,3.082 -9.066,8.889 -9.066,15.545 0,9.866 8.027,17.893 17.894,17.893 C 86.973,92.014 95,83.987 95,74.121 95,64.254 86.973,56.227 77.107,56.227 Z M 62.199,52.361 47.671,69.238 C 47.329,69.128 46.974,69.056 46.606,69.02 L 41.398,52.362 h 20.801 z m -24.256,2.353 4.845,15.499 c -0.609,0.518 -1.11,1.157 -1.427,1.902 H 40.666 C 40.136,67.388 37.764,63.209 34.278,60.327 Z M 36.625,72.116 H 26.586 l 5.483,-8.401 c 2.41,2.128 4.072,5.073 4.556,8.401 z M 22.893,88.014 C 15.232,88.014 9,81.781 9,74.121 9,66.46 15.232,60.227 22.893,60.227 c 2.083,0 4.053,0.474 5.828,1.299 l -7.503,11.497 c -0.401,0.615 -0.434,1.4 -0.084,2.045 0.35,0.645 1.025,1.048 1.759,1.048 H 36.627 C 35.654,82.832 29.875,88.014 22.893,88.014 Z M 46.107,75.271 c -0.635,0 -1.151,-0.516 -1.151,-1.151 0,-0.635 0.517,-1.151 1.151,-1.151 0.634,0 1.151,0.517 1.151,1.151 0,0.634 -0.516,1.151 -1.151,1.151 z m 31,12.743 c -7.661,0 -13.894,-6.232 -13.894,-13.893 0,-5.068 2.736,-9.498 6.801,-11.925 l 6.128,12.785 c 0.344,0.717 1.06,1.136 1.805,1.136 0.29,0 0.584,-0.063 0.863,-0.197 0.996,-0.478 1.417,-1.672 0.939,-2.668 L 73.715,60.663 c 1.088,-0.274 2.22,-0.436 3.391,-0.436 7.662,0 13.894,6.232 13.894,13.894 0,7.66 -6.232,13.893 -13.893,13.893 z" /><path
       inkscape:connector-curvature="0"
       id="path4"
       d="m 39.538,33.237 c 4.371,0 8.341,-2.218 10.645,-5.858 h 1.834 c 0.551,0 1.078,-0.227 1.455,-0.628 l 2.041,-2.165 2.151,2.155 c 0.38,0.381 0.946,0.595 1.437,0.587 0.539,-0.006 1.052,-0.229 1.424,-0.618 l 2.041,-2.135 2.295,2.294 c 0.39,0.39 0.901,0.586 1.414,0.586 0.485,0 0.971,-0.175 1.354,-0.528 l 4.813,-4.43 c 0.769,-0.708 0.863,-1.889 0.216,-2.709 L 68.515,14.53 C 68.136,14.049 67.557,13.768 66.944,13.768 H 50.129 C 47.821,10.176 43.871,7.987 39.537,7.987 c -6.962,0 -12.625,5.664 -12.625,12.625 0,6.961 5.664,12.625 12.626,12.625 z m 0,-21.251 c 3.249,0 6.186,1.798 7.665,4.691 0.017,0.034 0.041,0.061 0.06,0.093 0.036,0.062 0.074,0.122 0.116,0.18 0.038,0.052 0.079,0.1 0.122,0.148 0.043,0.048 0.086,0.093 0.134,0.137 0.049,0.045 0.099,0.086 0.152,0.125 0.051,0.039 0.103,0.075 0.158,0.108 0.054,0.033 0.108,0.062 0.164,0.089 0.061,0.03 0.122,0.057 0.186,0.08 0.058,0.021 0.115,0.038 0.175,0.054 0.065,0.017 0.13,0.033 0.197,0.043 0.066,0.011 0.132,0.016 0.199,0.02 0.04,0.002 0.078,0.012 0.119,0.012 h 16.991 l 2.396,3.041 -2.038,1.876 -2.386,-2.383 c -0.38,-0.381 -0.928,-0.603 -1.437,-0.586 -0.538,0.006 -1.051,0.229 -1.423,0.618 l -2.04,2.134 -2.161,-2.165 c -0.382,-0.382 -0.87,-0.583 -1.444,-0.587 -0.541,0.008 -1.055,0.234 -1.426,0.628 l -2.863,3.037 h -2.126 c -0.042,0 -0.08,0.01 -0.121,0.012 -0.069,0.004 -0.137,0.009 -0.205,0.021 -0.067,0.011 -0.13,0.027 -0.195,0.044 -0.059,0.016 -0.118,0.033 -0.175,0.054 -0.064,0.024 -0.126,0.052 -0.187,0.082 -0.055,0.027 -0.109,0.055 -0.161,0.088 -0.056,0.034 -0.108,0.072 -0.16,0.111 -0.051,0.039 -0.101,0.079 -0.148,0.123 -0.048,0.044 -0.092,0.091 -0.135,0.14 -0.042,0.047 -0.083,0.095 -0.121,0.146 -0.042,0.058 -0.079,0.119 -0.115,0.181 -0.02,0.034 -0.045,0.063 -0.063,0.099 -1.474,2.934 -4.426,4.756 -7.703,4.756 -4.756,0 -8.625,-3.869 -8.625,-8.625 -0.002,-4.756 3.867,-8.625 8.624,-8.625 z" /><path
       inkscape:connector-curvature="0"
       id="path6"
       d="m 42.145,20.611 c 0,-2.86 -2.327,-5.187 -5.187,-5.187 -2.86,0 -5.187,2.327 -5.187,5.187 0,2.86 2.327,5.187 5.187,5.187 2.86,0 5.187,-2.326 5.187,-5.187 z m -6.374,0 c 0,-0.654 0.533,-1.187 1.187,-1.187 0.654,0 1.187,0.532 1.187,1.187 0,0.655 -0.533,1.187 -1.187,1.187 -0.654,0 -1.187,-0.532 -1.187,-1.187 z" /></g></svg>
