<?xml version="1.0" encoding="UTF-8" standalone="no"?>
<svg
   xmlns:dc="http://purl.org/dc/elements/1.1/"
   xmlns:cc="http://creativecommons.org/ns#"
   xmlns:rdf="http://www.w3.org/1999/02/22-rdf-syntax-ns#"
   xmlns:svg="http://www.w3.org/2000/svg"
   xmlns="http://www.w3.org/2000/svg"
   xmlns:sodipodi="http://sodipodi.sourceforge.net/DTD/sodipodi-0.dtd"
   xmlns:inkscape="http://www.inkscape.org/namespaces/inkscape"
   inkscape:version="1.0rc1 (09960d6f05, 2020-04-09)"
   sodipodi:docname="noun_ceiling  bulbs_2651438.svg"
   id="svg16"
   xml:space="preserve"
   enable-background="new 0 0 67 67"
   viewBox="0 0 67 83.75"
   y="0px"
   x="0px"
   version="1.1"><metadata
     id="metadata22"><rdf:RDF><cc:Work
         rdf:about=""><dc:format>image/svg+xml</dc:format><dc:type
           rdf:resource="http://purl.org/dc/dcmitype/StillImage" /></cc:Work></rdf:RDF></metadata><defs
     id="defs20" /><sodipodi:namedview
     inkscape:current-layer="svg16"
     inkscape:window-maximized="1"
     inkscape:window-y="-8"
     inkscape:window-x="-8"
     inkscape:cy="41.875"
     inkscape:cx="33.5"
     inkscape:zoom="2.961194"
     showgrid="false"
     id="namedview18"
     inkscape:window-height="988"
     inkscape:window-width="1680"
     inkscape:pageshadow="2"
     inkscape:pageopacity="0"
     guidetolerance="10"
     gridtolerance="10"
     objecttolerance="10"
     borderopacity="1"
     bordercolor="#666666"
     pagecolor="#ffffff" /><g
     transform="translate(0,10)"
     id="g10"><path
       inkscape:connector-curvature="0"
       id="path2"
       d="m 64.5,7.0449824 h -62 c -0.4099731,0 -0.75,0.3300171 -0.75,0.75 V 16.60498 c 0,0.410034 0.3400269,0.75 0.75,0.75 h 8.130005 V 27.924987 H 9.1099854 c -0.3699951,0 -0.6799927,0.26001 -0.7399902,0.609986 L 7.45813,33.568847 C 3.9854126,35.120727 1.75,38.495911 1.75,42.335022 v 0.659973 c 0,0.419983 0.3400269,0.75 0.75,0.75 h 17.770019 c 0.409974,0 0.75,-0.330017 0.75,-0.75 v -0.659973 c 0,-3.842773 -2.239318,-7.221191 -5.708984,-8.770935 l -0.911011,-5.029114 c -0.06,-0.349976 -0.369995,-0.609985 -0.740051,-0.609985 H 12.130005 V 17.35498 h 19.96997 v 20.360047 h -1.529968 c -0.359985,0 -0.669983,0.259949 -0.73999,0.609985 l -0.901794,5.02948 c -3.469117,1.549988 -5.708252,4.92804 -5.708252,8.770508 v 0.659973 c 0,0.420044 0.340026,0.75 0.75,0.75 H 41.72998 c 0.420044,0 0.75,-0.329956 0.75,-0.75 V 52.125 c 0,-3.838989 -2.226074,-7.214172 -5.69812,-8.766113 l -0.911865,-5.033875 c -0.07001,-0.350036 -0.380005,-0.609985 -0.73999,-0.609985 H 33.599976 V 17.35498 h 19.970031 v 10.570008 h -1.530029 c -0.359985,0 -0.669983,0.26001 -0.73999,0.609985 l -0.901673,5.029053 c -3.477905,1.549805 -5.708313,4.9281 -5.708313,8.770996 v 0.659973 c 0,0.419983 0.330017,0.75 0.75,0.75 h 17.76001 c 0.409973,0 0.75,-0.330017 0.75,-0.75 v -0.659973 c 0,-3.842529 -2.239136,-7.220581 -5.708252,-8.770569 l -0.901733,-5.02948 c -0.07001,-0.349975 -0.380005,-0.609985 -0.740052,-0.609985 H 55.070007 V 17.35498 H 64.5 c 0.419983,0 0.75,-0.339965 0.75,-0.75 V 7.7949824 c 0,-0.4199829 -0.330017,-0.75 -0.75,-0.75 z" /><path
       inkscape:connector-curvature="0"
       id="path4"
       d="M 28.26001,55.034973 C 28.25,55.145019 28.25,55.244995 28.25,55.344971 c 0,2.540039 2.059998,4.610046 4.599976,4.610046 2.540039,0 4.610046,-2.070007 4.610046,-4.610046 0,-0.09998 0,-0.199952 -0.01001,-0.309998 z" /><path
       inkscape:connector-curvature="0"
       id="path6"
       d="m 11.390015,49.434998 c 2.390014,0 4.369995,-1.849976 4.579956,-4.190003 H 6.7999878 c 0.210022,2.340027 2.1900024,4.190003 4.5900272,4.190003 z" /><path
       inkscape:connector-curvature="0"
       id="path8"
       d="m 54.320007,49.434998 c 2.399964,0 4.380005,-1.849976 4.589966,-4.190003 H 49.73999 c 0.210022,2.340027 2.179993,4.190003 4.580017,4.190003 z" /></g></svg>
