<?xml version="1.0" encoding="UTF-8" standalone="no"?>
<svg
   xmlns:dc="http://purl.org/dc/elements/1.1/"
   xmlns:cc="http://creativecommons.org/ns#"
   xmlns:rdf="http://www.w3.org/1999/02/22-rdf-syntax-ns#"
   xmlns:svg="http://www.w3.org/2000/svg"
   xmlns="http://www.w3.org/2000/svg"
   xmlns:sodipodi="http://sodipodi.sourceforge.net/DTD/sodipodi-0.dtd"
   xmlns:inkscape="http://www.inkscape.org/namespaces/inkscape"
   inkscape:version="1.0rc1 (09960d6f05, 2020-04-09)"
   sodipodi:docname="noun_Roller painting_1188903.svg"
   id="svg14"
   xml:space="preserve"
   style="enable-background:new 0 0 100 100;"
   viewBox="0 0 100 125"
   y="0px"
   x="0px"
   version="1.1"><metadata
     id="metadata20"><rdf:RDF><cc:Work
         rdf:about=""><dc:format>image/svg+xml</dc:format><dc:type
           rdf:resource="http://purl.org/dc/dcmitype/StillImage" /></cc:Work></rdf:RDF></metadata><defs
     id="defs18" /><sodipodi:namedview
     inkscape:current-layer="svg14"
     inkscape:window-maximized="1"
     inkscape:window-y="-8"
     inkscape:window-x="-8"
     inkscape:cy="62.5"
     inkscape:cx="50"
     inkscape:zoom="1.984"
     showgrid="false"
     id="namedview16"
     inkscape:window-height="988"
     inkscape:window-width="1680"
     inkscape:pageshadow="2"
     inkscape:pageopacity="0"
     guidetolerance="10"
     gridtolerance="10"
     objecttolerance="10"
     borderopacity="1"
     bordercolor="#666666"
     pagecolor="#ffffff" /><g
     transform="matrix(1.2419355,0,0,1.2419355,-12.570766,0)"
     id="g8"><g
       id="g6"><path
         inkscape:connector-curvature="0"
         id="path2"
         d="M 85.885,11.797 H 80.241 V 3.92 C 80.241,1.759 78.482,0 76.321,0 H 16.075 c -2.162,0 -3.92,1.759 -3.92,3.92 v 20.885 c 0,2.161 1.758,3.92 3.92,3.92 h 60.246 c 2.161,0 3.92,-1.759 3.92,-3.92 v -9.088 h 3.685 v 20.26 H 46.198 c -1.083,0 -1.96,0.878 -1.96,1.96 v 17.14 h -6.024 c -1.083,0 -1.96,0.878 -1.96,1.96 V 68.259 H 57.548 V 57.036 c 0,-1.082 -0.877,-1.96 -1.96,-1.96 h -7.431 v -15.18 h 37.727 c 1.083,0 1.961,-0.877 1.961,-1.96 v -24.18 c 0.001,-1.082 -0.877,-1.959 -1.96,-1.959 z" /><path
         inkscape:connector-curvature="0"
         id="path4"
         d="m 36.254,98.04 c 0,1.083 0.877,1.96 1.96,1.96 h 17.375 c 1.083,0 1.96,-0.877 1.96,-1.96 V 70.218 H 36.254 Z M 46.713,85.774 c 1.695,0 3.069,1.374 3.069,3.069 0,1.694 -1.374,3.068 -3.069,3.068 -1.695,0 -3.069,-1.374 -3.069,-3.068 0,-1.695 1.374,-3.069 3.069,-3.069 z" /></g></g></svg>
