<?xml version="1.0" encoding="UTF-8" standalone="no"?>
<svg
   xmlns:dc="http://purl.org/dc/elements/1.1/"
   xmlns:cc="http://creativecommons.org/ns#"
   xmlns:rdf="http://www.w3.org/1999/02/22-rdf-syntax-ns#"
   xmlns:svg="http://www.w3.org/2000/svg"
   xmlns="http://www.w3.org/2000/svg"
   xmlns:sodipodi="http://sodipodi.sourceforge.net/DTD/sodipodi-0.dtd"
   xmlns:inkscape="http://www.inkscape.org/namespaces/inkscape"
   inkscape:version="1.0rc1 (09960d6f05, 2020-04-09)"
   sodipodi:docname="noun_Art_1288668.svg"
   id="svg18"
   version="1.1"
   y="0px"
   x="0px"
   viewBox="0 0 32 40">
  <metadata
     id="metadata24">
    <rdf:RDF>
      <cc:Work
         rdf:about="">
        <dc:format>image/svg+xml</dc:format>
        <dc:type
           rdf:resource="http://purl.org/dc/dcmitype/StillImage" />
      </cc:Work>
    </rdf:RDF>
  </metadata>
  <defs
     id="defs22" />
  <sodipodi:namedview
     inkscape:current-layer="svg18"
     inkscape:window-maximized="1"
     inkscape:window-y="-8"
     inkscape:window-x="-8"
     inkscape:cy="20"
     inkscape:cx="16"
     inkscape:zoom="6.2"
     showgrid="false"
     id="namedview20"
     inkscape:window-height="988"
     inkscape:window-width="1680"
     inkscape:pageshadow="2"
     inkscape:pageopacity="0"
     guidetolerance="10"
     gridtolerance="10"
     objecttolerance="10"
     borderopacity="1"
     bordercolor="#666666"
     pagecolor="#ffffff" />
  <title
     id="title2">44-Artwork</title>
  <g
     transform="matrix(1.0988553,0,0,1.0988553,-1.508845,1.8688867)"
     id="g12"
     data-name="44-Artwork">
    <rect
       id="rect4"
       height="7"
       width="2"
       y="25"
       x="15" />
    <path
       inkscape:connector-curvature="0"
       id="path6"
       d="M 29,3 H 20 V 2 A 1,1 0 0 0 19,1 H 13 A 1,1 0 0 0 12,2 V 3 H 3 A 1,1 0 0 0 2,4 v 18 a 1,1 0 0 0 1,1 h 26 a 1,1 0 0 0 1,-1 V 4 A 1,1 0 0 0 29,3 Z m -8,4 a 2,2 0 1 1 -2,2 2,2 0 0 1 2,-2 z m 3.92,11.38 A 1,1 0 0 1 24,19 H 8 A 1,1 0 0 1 7.08,18.38 1,1 0 0 1 7.29,17.29 l 6,-6 a 1,1 0 0 1 1.42,0 l 3.29,3.3 1.29,-1.3 a 1,1 0 0 1 1.42,0 l 4,4 a 1,1 0 0 1 0.21,1.09 z" />
    <polygon
       id="polygon8"
       points="20.59,25 27.29,31.71 28.71,30.29 23.41,25 " />
    <polygon
       id="polygon10"
       points="8.59,25 3.29,30.29 4.71,31.71 11.41,25 " />
  </g>
</svg>
