<?xml version="1.0" encoding="UTF-8" standalone="no"?>
<svg
   xmlns:dc="http://purl.org/dc/elements/1.1/"
   xmlns:cc="http://creativecommons.org/ns#"
   xmlns:rdf="http://www.w3.org/1999/02/22-rdf-syntax-ns#"
   xmlns:svg="http://www.w3.org/2000/svg"
   xmlns="http://www.w3.org/2000/svg"
   xmlns:sodipodi="http://sodipodi.sourceforge.net/DTD/sodipodi-0.dtd"
   xmlns:inkscape="http://www.inkscape.org/namespaces/inkscape"
   inkscape:version="1.0rc1 (09960d6f05, 2020-04-09)"
   sodipodi:docname="noun_retirement home_1639107.svg"
   id="svg10"
   xml:space="preserve"
   style="enable-background:new 0 0 100 100;"
   viewBox="0 0 100 125"
   y="0px"
   x="0px"
   version="1.1"><metadata
     id="metadata16"><rdf:RDF><cc:Work
         rdf:about=""><dc:format>image/svg+xml</dc:format><dc:type
           rdf:resource="http://purl.org/dc/dcmitype/StillImage" /></cc:Work></rdf:RDF></metadata><defs
     id="defs14" /><sodipodi:namedview
     inkscape:current-layer="svg10"
     inkscape:window-maximized="1"
     inkscape:window-y="-8"
     inkscape:window-x="-8"
     inkscape:cy="62.5"
     inkscape:cx="50"
     inkscape:zoom="1.984"
     showgrid="false"
     id="namedview12"
     inkscape:window-height="988"
     inkscape:window-width="1680"
     inkscape:pageshadow="2"
     inkscape:pageopacity="0"
     guidetolerance="10"
     gridtolerance="10"
     objecttolerance="10"
     borderopacity="1"
     bordercolor="#666666"
     pagecolor="#ffffff" /><g
     transform="translate(0,14)"
     id="g4"><path
       inkscape:connector-curvature="0"
       id="path2"
       d="m 75.4,71.2 v 0.5 c 0,0.4 -0.3,0.7 -0.7,0.7 -0.4,0 -0.7,-0.3 -0.7,-0.7 v -0.5 c 0,-0.8 0.5,-2 1.7,-2.3 C 75.5,68.7 75.4,68.4 75.3,68 L 71.6,56.4 h -1.1 -0.8 v 37.1 h 9.6 V 71.2 c 0,-0.9 -0.7,-1.1 -1.1,-1.1 h -1.8 c -0.9,0 -1,0.8 -1,1.1 m -37.8,8.1 h -2 v 14.2 h 2 z M 41.7,56.4 47,79.3 h -4.7 v 14.2 h 14 V 56.4 H 54.6 L 51,68.2 c -0.1,0.2 -0.2,0.5 -0.3,0.7 -0.4,0.5 -1,0.8 -1.7,0.8 -0.7,0 -1.3,-0.3 -1.7,-0.8 C 47.2,68.7 47.1,68.5 47,68.3 L 43.3,56.5 Z M 64.1,73.2 H 62 v 20.3 h 2.1 z m 3.7,-29.9 c 0,2.7 -2.1,4.8 -4.8,4.8 -2.6,0 -4.8,-2.1 -4.8,-4.8 0,-2.7 2.1,-4.8 4.8,-4.8 2.7,0 4.8,2.1 4.8,4.8 m -26.4,0 c 0,2.7 -2.1,4.8 -4.8,4.8 -2.6,0 -4.8,-2.1 -4.8,-4.8 0,-2.7 2.1,-4.8 4.8,-4.8 2.6,0 4.8,2.1 4.8,4.8 M 99,51.4 78.6,33 V 13.2 H 66.8 v 9.2 L 50,7.3 1,51.4 H 12.8 V 93.5 H 30.9 V 79.3 h -4.8 l 5.4,-22.9 h -1.8 l -3.7,12 c -0.3,1 -1.4,1.5 -2.5,1.2 -1.1,-0.3 -1.8,-1.3 -1.4,-2.5 l 3.8,-12.3 c 1.5,-5.3 5.9,-5.2 5.9,-5.2 h 9.4 c 0,0 4.4,-0.2 5.9,5.2 l 1.9,6.5 1.9,-6.5 c 1.5,-5.3 5.9,-5.2 5.9,-5.2 H 69 c 0,0 3.5,-0.2 5.4,3.6 0.2,0.2 0.2,0.5 0.3,0.8 l 4.1,12.7 c 0.2,0.9 0.1,1.6 -0.3,2.1 0.9,0.2 2,0.9 2,2.4 v 22.3 h 6.6 V 51.4 Z" /></g></svg>
