<?xml version="1.0" encoding="UTF-8" standalone="no"?>
<svg
   xmlns:dc="http://purl.org/dc/elements/1.1/"
   xmlns:cc="http://creativecommons.org/ns#"
   xmlns:rdf="http://www.w3.org/1999/02/22-rdf-syntax-ns#"
   xmlns:svg="http://www.w3.org/2000/svg"
   xmlns="http://www.w3.org/2000/svg"
   xmlns:sodipodi="http://sodipodi.sourceforge.net/DTD/sodipodi-0.dtd"
   xmlns:inkscape="http://www.inkscape.org/namespaces/inkscape"
   version="1.1"
   x="0px"
   y="0px"
   viewBox="0 0 36 45"
   enable-background="new 0 0 36 36"
   xml:space="preserve"
   id="svg20"
   sodipodi:docname="noun_books_2000636.svg"
   inkscape:version="0.92.3 (2405546, 2018-03-11)"><metadata
     id="metadata26"><rdf:RDF><cc:Work
         rdf:about=""><dc:format>image/svg+xml</dc:format><dc:type
           rdf:resource="http://purl.org/dc/dcmitype/StillImage" /></cc:Work></rdf:RDF></metadata><defs
     id="defs24" /><sodipodi:namedview
     pagecolor="#ffffff"
     bordercolor="#666666"
     borderopacity="1"
     objecttolerance="10"
     gridtolerance="10"
     guidetolerance="10"
     inkscape:pageopacity="0"
     inkscape:pageshadow="2"
     inkscape:window-width="1680"
     inkscape:window-height="988"
     id="namedview22"
     showgrid="false"
     inkscape:zoom="5.2444444"
     inkscape:cx="18"
     inkscape:cy="22.5"
     inkscape:window-x="-8"
     inkscape:window-y="-8"
     inkscape:window-maximized="1"
     inkscape:current-layer="svg20" /><path
     d="M 7.6178784,11.31832 H 1.6350672 c -0.6018776,0 -1.08845703,0.493282 -1.08845703,1.102379 v 22.605219 c 0,0.609097 0.48657943,1.103452 1.08845703,1.103452 h 5.9828112 c 0.6008197,0 1.0873992,-0.494355 1.0873992,-1.103452 V 12.420699 c 0,-0.609097 -0.4865795,-1.102379 -1.0873992,-1.102379 z M 7.4348822,33.003459 H 1.8159478 v -1.285752 h 5.6189344 z m 0,-17.27562 H 1.8159478 v -1.285753 h 5.6189344 z"
     id="path2"
     inkscape:connector-curvature="0"
     style="stroke-width:1.06504261" /><path
     d="m 14.428932,12.527935 h -3.297104 c -0.643131,0 -1.1646173,0.52867 -1.1646173,1.180661 v 21.240113 c 0,0.651991 0.5204283,1.180661 1.1646173,1.180661 h 3.297104 c 0.643131,0 1.164618,-0.52867 1.164618,-1.180661 V 13.707524 c 0,-0.651991 -0.521487,-1.179589 -1.164618,-1.179589 z m -0.241174,20.354348 h -2.81264 V 15.772877 h 2.81264 z"
     id="path4"
     inkscape:connector-curvature="0"
     style="stroke-width:1.06504261" /><path
     d="m 22.481822,12.527935 h -4.531536 c -0.600819,0 -1.087399,0.493282 -1.087399,1.103452 V 32.95842 h 6.707392 V 13.630315 c 0,-0.609097 -0.48658,-1.10238 -1.088457,-1.10238 z m -0.633611,9.403471 h -3.263256 c -0.375512,0 -0.680153,-0.308838 -0.680153,-0.689524 0,-0.380686 0.303583,-0.689524 0.680153,-0.689524 h 3.263256 c 0.374454,0 0.680153,0.308838 0.680153,0.689524 0,0.380686 -0.305699,0.689524 -0.680153,0.689524 z m 0,-2.343094 h -3.263256 c -0.375512,0 -0.680153,-0.308838 -0.680153,-0.689523 0,-0.380686 0.303583,-0.689524 0.680153,-0.689524 h 3.263256 c 0.374454,0 0.680153,0.308838 0.680153,0.689524 0,0.380685 -0.305699,0.689523 -0.680153,0.689523 z m 0,-2.344165 h -3.263256 c -0.375512,0 -0.680153,-0.308838 -0.680153,-0.689524 0,-0.380685 0.303583,-0.689523 0.680153,-0.689523 h 3.263256 c 0.374454,0 0.680153,0.308838 0.680153,0.689523 0,0.380686 -0.305699,0.689524 -0.680153,0.689524 z"
     id="path6"
     inkscape:connector-curvature="0"
     style="stroke-width:1.06504261" /><path
     d="m 16.862887,35.024846 c 0,0.609097 0.48658,1.103452 1.087399,1.103452 h 4.531536 c 0.600819,0 1.087399,-0.494355 1.087399,-1.103452 v -1.10238 h -6.707392 v 1.10238 z"
     id="path8"
     inkscape:connector-curvature="0"
     style="stroke-width:1.06504261" /><path
     d="M 28.765043,8.6867633 C 28.610607,8.0991134 28.01296,7.749526 27.433296,7.907162 l -3.284411,0.8911261 c -0.578606,0.157636 -0.923443,0.7624435 -0.769007,1.3522379 l 0.423112,1.596735 5.385165,-1.462691 z"
     id="path10"
     inkscape:connector-curvature="0"
     style="stroke-width:1.06504261" /><rect
     x="20.009815"
     y="18.909998"
     transform="matrix(0.96500701,-0.26222408,0.25561411,0.96677889,0,0)"
     width="5.5796661"
     height="1.6059971"
     id="rect12"
     style="stroke-width:1.06505084" /><path
     d="m 35.416372,33.849546 -5.136586,-19.437486 -5.385165,1.462691 5.136586,19.437486 c 0.154436,0.58765 0.752082,0.937237 1.332804,0.779601 l 3.283354,-0.891126 c 0.579664,-0.156564 0.923443,-0.761371 0.769007,-1.351166 z m -4.773767,-0.927586 -0.744679,-2.814929 3.129975,-0.850376 0.744678,2.814928 z"
     id="path14"
     inkscape:connector-curvature="0"
     style="stroke-width:1.06504261" /></svg>