<?xml version="1.0" encoding="UTF-8" standalone="no"?>
<svg
   xmlns:dc="http://purl.org/dc/elements/1.1/"
   xmlns:cc="http://creativecommons.org/ns#"
   xmlns:rdf="http://www.w3.org/1999/02/22-rdf-syntax-ns#"
   xmlns:svg="http://www.w3.org/2000/svg"
   xmlns="http://www.w3.org/2000/svg"
   xmlns:sodipodi="http://sodipodi.sourceforge.net/DTD/sodipodi-0.dtd"
   xmlns:inkscape="http://www.inkscape.org/namespaces/inkscape"
   inkscape:version="1.0rc1 (09960d6f05, 2020-04-09)"
   sodipodi:docname="noun_monastery_830313.svg"
   id="svg20"
   y="0px"
   x="0px"
   version="1.1"
   viewBox="0 0 24 31.25">
  <metadata
     id="metadata26">
    <rdf:RDF>
      <cc:Work
         rdf:about="">
        <dc:format>image/svg+xml</dc:format>
        <dc:type
           rdf:resource="http://purl.org/dc/dcmitype/StillImage" />
      </cc:Work>
    </rdf:RDF>
  </metadata>
  <defs
     id="defs24" />
  <sodipodi:namedview
     inkscape:current-layer="svg20"
     inkscape:window-maximized="1"
     inkscape:window-y="-8"
     inkscape:window-x="-8"
     inkscape:cy="15.625"
     inkscape:cx="12"
     inkscape:zoom="7.936"
     showgrid="false"
     id="namedview22"
     inkscape:window-height="988"
     inkscape:window-width="1680"
     inkscape:pageshadow="2"
     inkscape:pageopacity="0"
     guidetolerance="10"
     gridtolerance="10"
     objecttolerance="10"
     borderopacity="1"
     bordercolor="#666666"
     pagecolor="#ffffff" />
  <title
     id="title2">47 - Monastery (Solid)</title>
  <desc
     id="desc4">Created with Sketch.</desc>
  <g
     transform="translate(0,2.7560486)"
     id="g14"
     fill-rule="evenodd"
     fill="none"
     stroke-width="1"
     stroke="none">
    <g
       id="g12"
       fill="#000000">
      <path
         inkscape:connector-curvature="0"
         id="path6"
         d="m 3,13.042 h 4 v -2 H 3 Z m 5,2 v 1 H 21.414 L 18.707,13.335 C 18.52,13.147 18.266,13.042 18,13.042 H 9 v -2 c 0.36,0 0.692,-0.194 0.87,-0.507 0.178,-0.314 0.173,-0.699 -0.013,-1.008 l -3,-5 C 6.677,4.226 6.352,4.042 6,4.042 v -1 c 0.553,0 1,-0.448 1,-1 0,-0.552 -0.447,-1 -1,-1 0,-0.552 -0.447,-1 -1,-1 -0.553,0 -1,0.448 -1,1 -0.553,0 -1,0.448 -1,1 0,0.552 0.447,1 1,1 v 1 c -0.352,0 -0.677,0.184 -0.857,0.485 l -3,5 c -0.186,0.309 -0.191,0.694 -0.013,1.008 0.178,0.313 0.51,0.507 0.87,0.507 v 2 c -0.553,0 -1,0.448 -1,1 v 2 h 6 v -1 z" />
      <path
         inkscape:connector-curvature="0"
         id="path8"
         d="m 0,23.042 c 0,0.552 0.447,1 1,1 h 5 v -6 H 0 Z" />
      <path
         inkscape:connector-curvature="0"
         id="path10"
         d="M 23.707,18.335 23.414,18.042 H 8 v 6 h 15 c 0.553,0 1,-0.448 1,-1 v -4 c 0,-0.265 -0.106,-0.52 -0.293,-0.707" />
    </g>
  </g>
</svg>
