<?xml version="1.0" encoding="UTF-8" standalone="no"?>
<svg
   xmlns:dc="http://purl.org/dc/elements/1.1/"
   xmlns:cc="http://creativecommons.org/ns#"
   xmlns:rdf="http://www.w3.org/1999/02/22-rdf-syntax-ns#"
   xmlns:svg="http://www.w3.org/2000/svg"
   xmlns="http://www.w3.org/2000/svg"
   xmlns:sodipodi="http://sodipodi.sourceforge.net/DTD/sodipodi-0.dtd"
   xmlns:inkscape="http://www.inkscape.org/namespaces/inkscape"
   inkscape:version="1.0rc1 (09960d6f05, 2020-04-09)"
   sodipodi:docname="noun_heritage_875461.svg"
   id="svg14"
   xml:space="preserve"
   enable-background="new 0 0 64 64"
   viewBox="0 0 64 80"
   y="0px"
   x="0px"
   version="1.1"><metadata
     id="metadata20"><rdf:RDF><cc:Work
         rdf:about=""><dc:format>image/svg+xml</dc:format><dc:type
           rdf:resource="http://purl.org/dc/dcmitype/StillImage" /></cc:Work></rdf:RDF></metadata><defs
     id="defs18" /><sodipodi:namedview
     inkscape:current-layer="svg14"
     inkscape:window-maximized="1"
     inkscape:window-y="-8"
     inkscape:window-x="-8"
     inkscape:cy="40"
     inkscape:cx="32"
     inkscape:zoom="3.1"
     showgrid="false"
     id="namedview16"
     inkscape:window-height="988"
     inkscape:window-width="1680"
     inkscape:pageshadow="2"
     inkscape:pageopacity="0"
     guidetolerance="10"
     gridtolerance="10"
     objecttolerance="10"
     borderopacity="1"
     bordercolor="#666666"
     pagecolor="#ffffff" /><g
     transform="matrix(1.3442854,0,0,1.3442854,-10.87118,-3.787053)"
     id="g8"><g
       id="g6"><path
         inkscape:connector-curvature="0"
         id="path2"
         d="m 51,37 c -0.666,0 -1.774,0.429 -4.017,1.319 C 44.136,39.45 40.236,41 38,41 37.771,41 37.554,40.906 37.086,40.693 35.75,40.086 33.549,39.086 26.875,39.005 26.349,36.93 24.149,35 20,35 19.787,35 19.576,34.983 19.369,34.969 19.25,34.96 19.126,34.951 19,34.944 V 34 c 0,-0.553 -0.448,-1 -1,-1 h -8 c -0.552,0 -1,0.447 -1,1 v 16 c 0,0.553 0.448,1 1,1 h 8 c 0.552,0 1,-0.447 1,-1 V 49.727 C 21.34,50.953 26.12,53 32,53 40.208,53 52.055,45.166 52.635,44.772 53.03,44.448 55,42.741 55,41 55,38.794 53.206,37 51,37 Z M 17,49 H 11 V 35 h 6 V 43.768 48 Z M 51.402,43.196 C 50.616,43.712 39.37,51 32,51 25.622,51 20.5,48.314 19,47.439 v -3.672 -6.816 c 0.076,0.005 0.144,0.007 0.224,0.013 C 19.479,36.982 19.737,37 20,37 c 3.283,0 5,1.509 5,3 0,0.553 0.448,1 1,1 6.928,0 9.095,0.985 10.259,1.515 C 36.832,42.774 37.327,43 38,43 40.619,43 44.558,41.436 47.722,40.178 49.015,39.665 50.623,39.025 51,39 c 1.103,0 2,0.897 2,2 0,0.562 -0.915,1.621 -1.598,2.196 z" /><path
         inkscape:connector-curvature="0"
         id="path4"
         d="m 26,31 h 16 c 0.553,0 1,-0.448 1,-1 V 20 c 0,-0.265 -0.105,-0.52 -0.293,-0.707 L 41,17.586 V 14 c 0,-0.552 -0.447,-1 -1,-1 -0.553,0 -1,0.448 -1,1 v 1.586 l -4.293,-4.293 c -0.391,-0.391 -1.023,-0.391 -1.414,0 l -8,8 C 25.105,19.48 25,19.735 25,20 v 10 c 0,0.552 0.448,1 1,1 z m 1,-10.586 7,-7 5.292,5.292 c 10e-4,0 10e-4,0.001 0.002,0.001 L 41,20.414 V 29 H 27 Z" /></g></g></svg>
