<?xml version="1.0" encoding="UTF-8" standalone="no"?>
<svg
   xmlns:dc="http://purl.org/dc/elements/1.1/"
   xmlns:cc="http://creativecommons.org/ns#"
   xmlns:rdf="http://www.w3.org/1999/02/22-rdf-syntax-ns#"
   xmlns:svg="http://www.w3.org/2000/svg"
   xmlns="http://www.w3.org/2000/svg"
   xmlns:sodipodi="http://sodipodi.sourceforge.net/DTD/sodipodi-0.dtd"
   xmlns:inkscape="http://www.inkscape.org/namespaces/inkscape"
   inkscape:version="1.0rc1 (09960d6f05, 2020-04-09)"
   sodipodi:docname="noun_heritage_2404425.svg"
   id="svg26"
   xml:space="preserve"
   style="enable-background:new 0 0 100 100;"
   viewBox="0 0 100 125"
   y="0px"
   x="0px"
   version="1.1"><metadata
     id="metadata32"><rdf:RDF><cc:Work
         rdf:about=""><dc:format>image/svg+xml</dc:format><dc:type
           rdf:resource="http://purl.org/dc/dcmitype/StillImage" /></cc:Work></rdf:RDF></metadata><defs
     id="defs30" /><sodipodi:namedview
     inkscape:current-layer="svg26"
     inkscape:window-maximized="1"
     inkscape:window-y="-8"
     inkscape:window-x="-8"
     inkscape:cy="62.5"
     inkscape:cx="50"
     inkscape:zoom="1.984"
     showgrid="false"
     id="namedview28"
     inkscape:window-height="988"
     inkscape:window-width="1680"
     inkscape:pageshadow="2"
     inkscape:pageopacity="0"
     guidetolerance="10"
     gridtolerance="10"
     objecttolerance="10"
     borderopacity="1"
     bordercolor="#666666"
     pagecolor="#ffffff" /><g
     transform="matrix(1.0008343,0,0,1.0008343,1.6484342,8.0624095)"
     id="g10"><path
       inkscape:connector-curvature="0"
       id="path2"
       d="m 5273.1,2400.1 v -2 c 0,-2.8 -5,-4 -9.7,-4 -4.7,0 -9.7,1.3 -9.7,4 v 2 c 0,1.8 0.7,3.6 2,4.9 l 5,4.9 c 0.3,0.3 0.4,0.6 0.4,1 v 6.4 c 0,0.4 0.2,0.7 0.6,0.8 l 2.9,0.9 c 0.5,0.1 1,-0.2 1,-0.8 v -7.2 c 0,-0.4 0.2,-0.7 0.4,-1 l 5.1,-5 c 1.3,-1.3 2,-3.1 2,-4.9 z m -9.7,-0.1 c -4.8,0 -7.4,-1.3 -7.5,-1.8 v 0 c 0.1,-0.5 2.7,-1.8 7.5,-1.8 4.8,0 7.3,1.3 7.5,1.8 -0.2,0.5 -2.7,1.8 -7.5,1.8 z" /><path
       inkscape:connector-curvature="0"
       id="path4"
       d="m 5268.4,2410.3 c -0.6,0 -1,0.4 -1,1 0,0.6 0.4,1 1,1 h 4.3 c 0.6,0 1,-0.4 1,-1 0,-0.6 -0.4,-1 -1,-1 z" /><path
       inkscape:connector-curvature="0"
       id="path6"
       d="m 5272.7,2413.7 h -4.3 c -0.6,0 -1,0.4 -1,1 0,0.6 0.4,1 1,1 h 4.3 c 0.6,0 1,-0.4 1,-1 0,-0.6 -0.4,-1 -1,-1 z" /><path
       inkscape:connector-curvature="0"
       id="path8"
       d="m 5272.7,2417 h -4.3 c -0.6,0 -1,0.4 -1,1 0,0.6 0.4,1 1,1 h 4.3 c 0.6,0 1,-0.4 1,-1 0,-0.5 -0.4,-1 -1,-1 z" /></g><g
     transform="matrix(1.1332423,0,0,1.1332423,-6.9921288,3.7280792)"
     id="g16"><path
       inkscape:connector-curvature="0"
       id="path12"
       d="m 84,70.4 c -2.3,0.9 -6.2,1.9 -10.4,2.8 -1.5,2.5 -4.3,4.5 -8.6,5.3 -1,0.2 -2.1,0.3 -3.4,0.3 -3,0.1 -6.5,-0.2 -10.4,-0.6 -0.3,0 -0.5,0 -0.8,-0.1 -0.9,-0.1 -1.8,-0.8 -1.9,-1.7 -0.1,-1.2 0.9,-2.2 2.1,-2.1 0.3,0 0.6,0.1 0.9,0.1 5,0.4 9.8,0.8 12.8,0.3 5.5,-1 7.1,-4.4 6.8,-7.3 -0.3,-2.3 -2,-4.5 -4.7,-4.3 -3.9,0.3 -8.5,0 -12.9,-0.3 -5.1,-0.4 -10.4,-0.5 -14.1,-0.1 -4.1,0.5 -12.6,3.5 -20,8.6 -3.6,2.5 -7.7,5.4 -10.1,7.2 -1.2,0.9 -1.5,2.7 -0.5,3.9 l 10.8,14 c 0.9,1.2 2.6,1.4 3.8,0.5 l 4,-3.1 c 0.9,-0.7 2.2,-0.9 3.3,-0.6 7.3,2.3 15,3.8 20.1,4.1 C 61.7,97.9 83,84.8 89,80.6 95.1,76.4 90.7,67.9 84,70.4 Z" /><path
       inkscape:connector-curvature="0"
       id="path14"
       d="m 39.4,29.7 h 3.7 v 21.4 c 0,1.3 1,2.3 2.3,2.3 H 55 c 1.3,0 2.3,-1 2.3,-3.1 v -7.5 c 0,-2.4 1.6,-4.5 3.9,-4.9 1.6,-0.3 3.2,0.3 4.2,1.3 0.9,0.9 1.4,2.1 1.4,3.4 v 8.5 c 0,1.3 1,2.3 2.3,2.3 h 9.6 c 1.3,0 2.3,-1 2.3,-2.3 V 29.7 h 3.7 c 2.1,0 3.1,-2.5 1.6,-3.9 L 63.7,3.2 C 62.8,2.3 61.3,2.3 60.4,3.2 L 37.8,25.8 c -1.5,1.5 -0.4,3.9 1.6,3.9 z" /></g></svg>
