<?xml version="1.0" encoding="UTF-8" standalone="no"?>
<svg
   xmlns:dc="http://purl.org/dc/elements/1.1/"
   xmlns:cc="http://creativecommons.org/ns#"
   xmlns:rdf="http://www.w3.org/1999/02/22-rdf-syntax-ns#"
   xmlns:svg="http://www.w3.org/2000/svg"
   xmlns="http://www.w3.org/2000/svg"
   xmlns:sodipodi="http://sodipodi.sourceforge.net/DTD/sodipodi-0.dtd"
   xmlns:inkscape="http://www.inkscape.org/namespaces/inkscape"
   inkscape:version="1.0rc1 (09960d6f05, 2020-04-09)"
   sodipodi:docname="noun_Mosque_2131277.svg"
   id="svg8"
   xml:space="preserve"
   enable-background="new 0 0 96 96"
   viewBox="0 0 96 120"
   y="0px"
   x="0px"
   version="1.1"><metadata
     id="metadata14"><rdf:RDF><cc:Work
         rdf:about=""><dc:format>image/svg+xml</dc:format><dc:type
           rdf:resource="http://purl.org/dc/dcmitype/StillImage" /></cc:Work></rdf:RDF></metadata><defs
     id="defs12" /><sodipodi:namedview
     inkscape:current-layer="svg8"
     inkscape:window-maximized="1"
     inkscape:window-y="-8"
     inkscape:window-x="-8"
     inkscape:cy="60"
     inkscape:cx="48"
     inkscape:zoom="2.0666667"
     showgrid="false"
     id="namedview10"
     inkscape:window-height="988"
     inkscape:window-width="1680"
     inkscape:pageshadow="2"
     inkscape:pageopacity="0"
     guidetolerance="10"
     gridtolerance="10"
     objecttolerance="10"
     borderopacity="1"
     bordercolor="#666666"
     pagecolor="#ffffff" /><path
     style="stroke-width:1.35987"
     inkscape:connector-curvature="0"
     id="path2"
     d="M 70.629888,67.805828 C 58.508066,60.812051 50.117709,49.858352 48.832638,48.121806 v -7.801537 c 0.815918,0.103348 1.641355,0.175423 2.484471,0.175423 3.123606,0 6.123464,-0.728886 8.919343,-2.166263 L 62.001555,37.4224 60.236452,36.515372 C 54.352323,33.492395 50.69701,27.521235 50.69701,20.928617 50.69701,14.336 54.352323,8.3648392 60.236452,5.3418634 L 62.002914,4.4348346 60.236452,3.5278057 C 57.437853,2.09179 54.436635,1.3629032 51.315748,1.3629032 c -10.789156,0 -19.567074,8.7779188 -19.567074,19.5670728 0,9.229393 6.430793,16.968376 15.042809,19.016331 v 8.176859 C 45.515931,49.851552 37.16501,60.784853 24.994234,67.807188 11.479911,75.601925 4.3283888,84.130988 3.7382086,93.155041 3.1833842,101.61747 8.553485,110.23901 19.696205,118.78302 l 0.274693,0.20943 h 55.680965 l 0.274693,-0.20943 C 87.070636,110.23901 92.439377,101.61747 91.884553,93.155041 91.295732,84.129629 84.142851,75.601925 70.629888,67.805828 Z" /></svg>
