<?xml version="1.0" encoding="UTF-8" standalone="no"?>
<svg
   xmlns:dc="http://purl.org/dc/elements/1.1/"
   xmlns:cc="http://creativecommons.org/ns#"
   xmlns:rdf="http://www.w3.org/1999/02/22-rdf-syntax-ns#"
   xmlns:svg="http://www.w3.org/2000/svg"
   xmlns="http://www.w3.org/2000/svg"
   xmlns:sodipodi="http://sodipodi.sourceforge.net/DTD/sodipodi-0.dtd"
   xmlns:inkscape="http://www.inkscape.org/namespaces/inkscape"
   inkscape:version="1.0rc1 (09960d6f05, 2020-04-09)"
   sodipodi:docname="noun_Watermill_381135.svg"
   id="svg12"
   xml:space="preserve"
   enable-background="new 0 0 512 512"
   viewBox="0 0 512 640"
   y="0px"
   x="0px"
   version="1.1"><metadata
     id="metadata18"><rdf:RDF><cc:Work
         rdf:about=""><dc:format>image/svg+xml</dc:format><dc:type
           rdf:resource="http://purl.org/dc/dcmitype/StillImage" /></cc:Work></rdf:RDF></metadata><defs
     id="defs16" /><sodipodi:namedview
     inkscape:current-layer="svg12"
     inkscape:window-maximized="1"
     inkscape:window-y="-8"
     inkscape:window-x="-8"
     inkscape:cy="429.9069"
     inkscape:cx="146.17195"
     inkscape:zoom="0.775"
     showgrid="false"
     id="namedview14"
     inkscape:window-height="988"
     inkscape:window-width="1680"
     inkscape:pageshadow="2"
     inkscape:pageopacity="0"
     guidetolerance="10"
     gridtolerance="10"
     objecttolerance="10"
     borderopacity="1"
     bordercolor="#666666"
     pagecolor="#ffffff" /><g
     transform="matrix(1.3406002,0,0,1.3406002,-86.574126,-23.331114)"
     id="g6"><path
       inkscape:connector-curvature="0"
       id="path2"
       d="m 434.1,359.1 c -7.9,6.2 -18,9.2 -28.1,9.2 -10.1,0 -20.3,-3 -28.1,-9.2 -1,-0.8 -2.1,-1.4 -3.1,-2 l 13.8,-13.9 -40.9,-40.9 c 9.6,-13.7 16.3,-29.4 19.1,-46.3 h 57.9 v -37.5 h -57.9 c -2.8,-17.1 -9.6,-32.8 -19.3,-46.3 l 41.1,-41.1 -26.4,-26.6 -41.1,41.1 C 307.6,136 291.8,129.3 274.8,126.5 v -58 h -37.5 v 57.9 c -17.1,2.8 -32.8,9.6 -46.3,19.1 l -41.1,-41.1 -26.4,26.6 41.1,41.1 c -9.8,13.5 -16.5,29.3 -19.3,46.3 h -58 V 256 h 57.9 c 2.8,16.9 9.6,32.6 19.1,46.3 l -40.9,40.9 7,7 c -1.9,-0.2 -3.8,-0.4 -5.6,-0.4 -10.1,0 -20.3,3.2 -28.1,9.4 -7.8,6.2 -18,9.2 -28.1,9.2 v 75.2 h 375 v -89.8 c -3.5,1.2 -6.7,3.1 -9.5,5.3 z m -196.8,-9.3 c -10.1,0 -20.3,3.2 -28.1,9.4 -7.8,6.2 -18,9.2 -28.1,9.2 -8.2,0 -16.4,-2.1 -23.4,-6.2 l 33.4,-33.4 c 13.5,9.8 29.3,16.5 46.3,19.3 v 1.7 z M 181,237.2 c 0,-41.4 33.6,-75 75,-75 41.4,0 75,33.6 75,75 0,41.4 -33.6,75 -75,75 -41.4,0 -75,-33.6 -75,-75 z m 140.6,121.9 c -7.9,6.2 -18,9.2 -28.1,9.2 -6.5,0 -12.9,-1.4 -18.8,-3.9 V 348 c 17.1,-2.8 32.8,-9.6 46.3,-19.3 l 21.6,21.6 c -7.6,1.2 -15,4.1 -21,8.8 z" /><circle
       id="circle4"
       r="37.5"
       cy="237.2"
       cx="256" /></g></svg>
