<?xml version="1.0" encoding="UTF-8" standalone="no"?>
<svg
   xmlns:dc="http://purl.org/dc/elements/1.1/"
   xmlns:cc="http://creativecommons.org/ns#"
   xmlns:rdf="http://www.w3.org/1999/02/22-rdf-syntax-ns#"
   xmlns:svg="http://www.w3.org/2000/svg"
   xmlns="http://www.w3.org/2000/svg"
   xmlns:sodipodi="http://sodipodi.sourceforge.net/DTD/sodipodi-0.dtd"
   xmlns:inkscape="http://www.inkscape.org/namespaces/inkscape"
   inkscape:version="1.0rc1 (09960d6f05, 2020-04-09)"
   sodipodi:docname="noun_Art_2752074.svg"
   id="svg14"
   xml:space="preserve"
   style="enable-background:new 0 0 100 100;"
   viewBox="0 0 100 125"
   y="0px"
   x="0px"
   version="1.1"><metadata
     id="metadata20"><rdf:RDF><cc:Work
         rdf:about=""><dc:format>image/svg+xml</dc:format><dc:type
           rdf:resource="http://purl.org/dc/dcmitype/StillImage" /></cc:Work></rdf:RDF></metadata><defs
     id="defs18" /><sodipodi:namedview
     inkscape:current-layer="svg14"
     inkscape:window-maximized="1"
     inkscape:window-y="-8"
     inkscape:window-x="-8"
     inkscape:cy="62.5"
     inkscape:cx="50"
     inkscape:zoom="1.984"
     showgrid="false"
     id="namedview16"
     inkscape:window-height="988"
     inkscape:window-width="1680"
     inkscape:pageshadow="2"
     inkscape:pageopacity="0"
     guidetolerance="10"
     gridtolerance="10"
     objecttolerance="10"
     borderopacity="1"
     bordercolor="#666666"
     pagecolor="#ffffff" /><g
     transform="matrix(1.3882608,0,0,1.3500224,-19.41413,-5.50112)"
     id="g8"><path
       inkscape:connector-curvature="0"
       id="path2"
       d="M 48.836845,78.380859 C 47.219658,77.564453 46.356377,76.701172 45.53997,75.082031 45.223564,74.456055 44.589775,74.066406 43.88665,74.066406 h -9.76e-4 c -0.703125,9.77e-4 -1.335938,0.390625 -1.651368,1.016602 -0.816406,1.618164 -1.679687,2.481445 -3.297851,3.297852 -0.625977,0.315429 -1.015625,0.948242 -1.016602,1.651367 0,0.703125 0.388672,1.336914 1.016602,1.654297 1.618164,0.816406 2.481445,1.679687 3.297851,3.296875 0.31543,0.625976 0.948243,1.015624 1.651368,1.016601 h 9.76e-4 c 0.703125,0 1.336914,-0.389648 1.65332,-1.016602 0.816407,-1.617187 1.679688,-2.480468 3.296875,-3.296875 9.77e-4,0 9.77e-4,0 9.77e-4,0 0.626953,-0.317382 1.015625,-0.951172 1.015625,-1.654297 -9.77e-4,-0.703124 -0.390625,-1.335937 -1.016602,-1.651367 z m -4.950195,5.446289 c -0.935547,-1.762695 -2.03125,-2.858398 -3.792969,-3.793945 1.761719,-0.935547 2.857422,-2.03125 3.792969,-3.792969 0.936523,1.761719 2.032227,2.857422 3.793945,3.792969 -1.761718,0.936524 -2.857421,2.032227 -3.793945,3.793945 z" /><path
       inkscape:connector-curvature="0"
       id="path4"
       d="m 51.089775,22.61084 c 1.618164,0.817383 2.481445,1.680176 3.297852,3.297851 0.315429,0.626465 0.948242,1.015625 1.651367,1.016114 h 9.77e-4 c 0.703125,0 1.335937,-0.388672 1.65332,-1.015625 0.816406,-1.617676 1.679687,-2.480957 3.297851,-3.29834 0.625977,-0.315918 1.015625,-0.948731 1.015625,-1.651856 0,-0.704101 -0.389648,-1.337402 -1.016601,-1.653808 -1.617188,-0.816895 -2.480469,-1.679688 -3.296875,-3.29834 -0.316406,-0.626465 -0.950195,-1.015137 -1.65332,-1.015137 h -9.77e-4 c -0.703125,0 -1.335938,0.389649 -1.651367,1.015625 -0.816407,1.618164 -1.679688,2.480957 -3.297852,3.297852 -0.626953,0.316406 -1.016602,0.949707 -1.016602,1.653809 1e-6,0.703124 0.389649,1.336425 1.016602,1.651855 z m 4.950195,-5.446289 c 0.936524,1.761719 2.032227,2.857422 3.793946,3.793457 -1.762696,0.936523 -2.858399,2.032715 -3.793946,3.793945 -0.93457,-1.76123 -2.03125,-2.857422 -3.793945,-3.793945 1.762695,-0.935547 2.858399,-2.03125 3.793945,-3.793457 z" /><path
       inkscape:connector-curvature="0"
       id="path6"
       d="M 83.898369,63.785156 65.940361,45.827637 72.85247,38.915527 c 0.08594,-0.08594 0.170899,-0.172851 0.213868,-0.224609 1.444335,-1.500977 2.55664,-3.352051 3.216797,-5.354981 l 1.46875,-4.507812 c 0.0029,-0.0078 0.0083,-0.01416 0.01074,-0.02197 l 1.444336,-4.441894 c 0.296875,-0.904785 0.06348,-1.884278 -0.609375,-2.556641 -0.670899,-0.672363 -1.650391,-0.908203 -2.555665,-0.61084 l -4.444335,1.446289 c -0.0044,0.0015 -0.0078,0.0043 -0.01221,0.0057 l -4.52002,1.472778 c -2,0.65918 -3.850586,1.771484 -5.308594,3.177246 -0.0083,0.0071 -0.0166,0.01611 -0.0249,0.02344 -0.0059,0.0055 -0.01221,0.01001 -0.01807,0.01563 -0.0015,0.0013 -0.002,0.0034 -0.0034,0.0048 -0.07373,0.06592 -0.145507,0.133179 -0.221191,0.209595 L 54.57708,34.464355 35.267509,15.155273 C 34.528252,14.412109 33.543877,14.001465 32.495049,14 c -0.002,0 -0.0039,0 -0.0068,0 -1.050784,0 -2.039065,0.410156 -2.784182,1.155273 l -2.224609,2.224121 -11.386719,11.385743 c -1.521483,1.532226 -1.521483,4.026367 0.0029,5.562011 l 7.507812,7.504761 0.459961,0.460083 c 0,2.44e-4 4.88e-4,2.44e-4 4.88e-4,3.66e-4 l 6.301758,6.299317 c 0.0024,0.0028 0.0034,0.0067 0.0063,0.0094 l 2.488283,2.48877 c 0.0039,0.004 0.0093,0.0051 0.01367,0.009 l 2.534668,2.533691 -13.50049,13.500244 c -1.044922,1.044922 -1.044922,2.744141 0,3.789063 l 7.574218,7.574219 c 0.522461,0.522461 1.208008,0.783203 1.894532,0.783203 0.686525,0 1.372072,-0.260742 1.894533,-0.783203 l 13.500488,-13.500489 1.185059,1.185059 c 0.0039,0.0043 0.0054,0.01038 0.0098,0.01465 L 50.455,68.683564 c 0.0044,0.0043 0.01025,0.0054 0.01465,0.0096 l 6.285156,6.285401 c 0.0044,0.0043 0.0054,0.01025 0.0098,0.01453 l 2.488281,2.488281 c 0.0044,0.0043 0.01025,0.0056 0.01465,0.0098 l 5.463868,5.463867 c 0.741211,0.746094 1.728515,1.157227 2.780273,1.157227 0,0 0,0 9.77e-4,0 1.050781,0 2.039062,-0.411133 2.77832,-1.155274 l 11.382812,-11.382812 2.22461,-2.224609 c 0.743164,-0.739258 1.15332,-1.723633 1.155273,-2.772461 0.002,-1.053712 -0.408203,-2.045899 -1.155273,-2.791993 z M 64.013603,27.995727 c 0.109864,-0.08594 0.224121,-0.165893 0.337402,-0.247924 0.22461,-0.163452 0.453614,-0.320313 0.689454,-0.468262 0.125976,-0.07898 0.252441,-0.15625 0.381347,-0.230469 0.247559,-0.143066 0.501465,-0.275146 0.758789,-0.400513 0.117676,-0.05749 0.233399,-0.118774 0.353028,-0.172485 0.377929,-0.169189 0.762207,-0.324463 1.155761,-0.454102 l 3.945801,-1.285888 4.032715,4.03186 -1.285156,3.944458 c -0.130371,0.395264 -0.286133,0.781738 -0.456543,1.161743 -0.05029,0.111329 -0.107422,0.218873 -0.160645,0.328736 -0.132812,0.273437 -0.273437,0.543335 -0.426758,0.806885 -0.06396,0.109863 -0.129882,0.218139 -0.196777,0.325927 -0.168945,0.270142 -0.349121,0.533692 -0.539062,0.791016 -0.06201,0.08386 -0.121094,0.169922 -0.185059,0.252075 -0.04004,0.05139 -0.08691,0.09778 -0.12793,0.148682 l -8.414062,-8.413697 c 0.04687,-0.03809 0.08984,-0.08069 0.137695,-0.118042 z m -29.030762,22.385377 6.982911,-6.982667 c 1.075195,-1.076171 1.075195,-2.826171 0,-3.902832 -1.074219,-1.072753 -2.824219,-1.075195 -3.902344,4.89e-4 l -6.9834,6.98291 -4.895508,-4.894043 6.9834,-6.983887 c 0.521484,-0.520996 0.808594,-1.213867 0.808594,-1.951172 0,-0.737304 -0.28711,-1.430175 -0.808594,-1.951172 -1.040039,-1.041503 -2.8584,-1.043457 -3.902346,0 l -6.983886,6.984375 -4.769043,-4.767578 c -0.750977,-0.755859 -0.750977,-1.985351 -0.0029,-2.738769 L 28.186453,19.500488 48.863701,40.177734 38.536064,50.505127 36.82122,52.21875 Z m 4.344239,2.161132 11.661133,-11.653564 c 4.88e-4,-4.89e-4 4.88e-4,-9.77e-4 9.76e-4,-0.0015 l 4.297852,-4.298828 c 0.0054,-0.0052 0.0068,-0.01245 0.01172,-0.0177 l 7.103027,-7.10315 3.560547,3.560669 -33.339844,33.339234 -3.560549,-3.560303 z m -4.449219,21.509522 -8.524416,-8.525391 1.299805,-1.299804 8.525392,8.524414 z m 2.719727,-2.709961 -3.561036,-3.560303 33.339844,-33.339233 3.560547,3.560669 z m 31.277343,10.203125 c -0.363281,0.366211 -0.847656,0.567383 -1.362304,0.567383 h -9.77e-4 c -0.514648,0 -0.998047,-0.201172 -1.363281,-0.569336 l -4.771973,-4.771485 6.980957,-6.981445 c 0.521484,-0.520508 0.808594,-1.213867 0.808594,-1.951172 0,-0.736328 -0.28711,-1.429687 -0.808594,-1.951172 -1.075195,-1.077148 -2.827148,-1.075195 -3.902344,0 l -6.980957,6.98169 -4.895508,-4.895264 6.981934,-6.980957 c 0,0 0,0 9.77e-4,0 1.073242,-1.076172 1.073242,-2.826172 -9.77e-4,-3.902344 -1.076172,-1.076172 -2.826172,-1.076172 -3.902344,0 l -6.981933,6.980957 -0.489746,-0.489746 12.044921,-12.037109 9.660645,9.661133 9.660644,9.661132 z" /></g></svg>
