<?xml version="1.0" encoding="UTF-8" standalone="no"?>
<svg
   xmlns:dc="http://purl.org/dc/elements/1.1/"
   xmlns:cc="http://creativecommons.org/ns#"
   xmlns:rdf="http://www.w3.org/1999/02/22-rdf-syntax-ns#"
   xmlns:svg="http://www.w3.org/2000/svg"
   xmlns="http://www.w3.org/2000/svg"
   xmlns:sodipodi="http://sodipodi.sourceforge.net/DTD/sodipodi-0.dtd"
   xmlns:inkscape="http://www.inkscape.org/namespaces/inkscape"
   inkscape:version="1.0rc1 (09960d6f05, 2020-04-09)"
   sodipodi:docname="noun_eyeglasses_2283935.svg"
   id="svg10"
   viewBox="0 0 100 125"
   y="0px"
   x="0px"
   version="1.1">
  <metadata
     id="metadata16">
    <rdf:RDF>
      <cc:Work
         rdf:about="">
        <dc:format>image/svg+xml</dc:format>
        <dc:type
           rdf:resource="http://purl.org/dc/dcmitype/StillImage" />
      </cc:Work>
    </rdf:RDF>
  </metadata>
  <defs
     id="defs14" />
  <sodipodi:namedview
     inkscape:current-layer="svg10"
     inkscape:window-maximized="1"
     inkscape:window-y="-8"
     inkscape:window-x="-8"
     inkscape:cy="62.5"
     inkscape:cx="50"
     inkscape:zoom="1.984"
     showgrid="false"
     id="namedview12"
     inkscape:window-height="988"
     inkscape:window-width="1680"
     inkscape:pageshadow="2"
     inkscape:pageopacity="0"
     guidetolerance="10"
     gridtolerance="10"
     objecttolerance="10"
     borderopacity="1"
     bordercolor="#666666"
     pagecolor="#ffffff" />
  <g
     id="g4"
     transform="matrix(1.2028423,0,0,1.2028423,-9.8900963,-1147.5983)">
    <path
       inkscape:connector-curvature="0"
       id="path2"
       transform="translate(0,952.36218)"
       d="m 31,20 c -3.141849,0 -7.349444,1.66648 -8.84375,6 l -10,29 a 3.0093118,3.0093118 0 0 0 -0.09375,0.28125 3.0093118,3.0093118 0 0 0 0,0.03125 C 10.149118,57.710726 9,60.725941 9,64 v 2 c 0,7.667 6.279367,14 14,14 H 34 C 41.605461,80 47.816511,73.856076 48,66.34375 48.43857,66.116752 48.694707,66 49,66 h 2 c 0.305293,0 0.56143,0.116768 1,0.34375 C 52.183489,73.856076 58.39454,80 66,80 h 11 c 7.720632,0 14,-6.333 14,-14 v -2 c 0,-3.2896 -1.163961,-6.315183 -3.09375,-8.71875 A 3.0093118,3.0093118 0 0 0 87.84375,55 l -10,-29 C 76.349446,21.66648 72.141874,20 69,20 c -1.549799,0 -2.824948,0.37533 -3.71875,0.84375 -0.893802,0.46842 -1.59375,1.25 -1.59375,1.25 a 3.0003,3.0003 0 0 0 4.375,4.0625 C 68.12276,26.12465 68.366063,26 69,26 c 1.357862,0 2.583983,0.30916 3.15625,1.96875 L 79.875,50.3125 C 78.945972,50.11628 77.98613,50 77,50 H 66 C 59.613669,50 54.206996,54.350281 52.53125,60.1875 52.055907,60.083813 51.54719,60 51,60 h -2 c -0.54719,0 -1.055907,0.08381 -1.53125,0.1875 C 45.793011,54.350281 40.386358,50 34,50 H 23 c -0.986134,0 -1.94597,0.11628 -2.875,0.3125 L 27.84375,27.96875 C 28.41601,26.30919 29.642113,26 31,26 c 0.613395,0 0.836914,0.12001 0.90625,0.15625 0.0023,0.001 0.0293,-0.001 0.03125,0 a 3.0003,3.0003 0 0 0 4.375,-4.0625 c 0,0 -0.699953,-0.7816 -1.59375,-1.25 C 33.824953,20.37535 32.549781,20 31,20 Z m -8,36 h 11 c 4.467294,0 8,3.5799 8,8 v 2 c 0,4.42 -3.532785,8 -8,8 H 23 c -4.467215,0 -8,-3.58 -8,-8 v -2 c 0,-4.4201 3.532706,-8 8,-8 z m 43,0 h 11 c 4.467325,0 8,3.5799 8,8 v 2 c 0,4.42 -3.532786,8 -8,8 H 66 c -4.467214,0 -8,-3.58 -8,-8 v -2 c 0,-4.4201 3.532675,-8 8,-8 z m -29.125,1.96875 a 3.0003,3.0003 0 0 0 -2.25,1.1875 l -7,9 a 3.0066964,3.0066964 0 0 0 4.75,3.6875 l 7,-9 a 3.0003,3.0003 0 0 0 -2.5,-4.875 z m -9.90625,0.96875 a 3.0003,3.0003 0 0 0 -0.375,0.03125 3.0003,3.0003 0 0 0 -1.9375,1.15625 l -4,5 a 3.0014645,3.0014645 0 1 0 4.6875,3.75 l 4,-5 a 3.0003,3.0003 0 0 0 -2.375,-4.9375 z"
       style="color:#000000;font-style:normal;font-variant:normal;font-weight:normal;font-stretch:normal;font-size:medium;line-height:normal;font-family:Sans;-inkscape-font-specification:Sans;text-indent:0;text-align:start;text-decoration:none;text-decoration-line:none;letter-spacing:normal;word-spacing:normal;text-transform:none;writing-mode:lr-tb;direction:ltr;baseline-shift:baseline;text-anchor:start;display:inline;overflow:visible;visibility:visible;opacity:1;fill:#000000;fill-opacity:1;fill-rule:nonzero;stroke:none;stroke-width:6;marker:none;enable-background:accumulate" />
  </g>
</svg>
