<?xml version="1.0" encoding="UTF-8" standalone="no"?>
<svg
   xmlns:dc="http://purl.org/dc/elements/1.1/"
   xmlns:cc="http://creativecommons.org/ns#"
   xmlns:rdf="http://www.w3.org/1999/02/22-rdf-syntax-ns#"
   xmlns:svg="http://www.w3.org/2000/svg"
   xmlns="http://www.w3.org/2000/svg"
   xmlns:sodipodi="http://sodipodi.sourceforge.net/DTD/sodipodi-0.dtd"
   xmlns:inkscape="http://www.inkscape.org/namespaces/inkscape"
   inkscape:version="1.0rc1 (09960d6f05, 2020-04-09)"
   sodipodi:docname="noun_Laptop_1638365.svg"
   id="svg10"
   xml:space="preserve"
   style="enable-background:new 0 0 100 100;"
   viewBox="0 0 100 125"
   y="0px"
   x="0px"
   version="1.1"><metadata
     id="metadata16"><rdf:RDF><cc:Work
         rdf:about=""><dc:format>image/svg+xml</dc:format><dc:type
           rdf:resource="http://purl.org/dc/dcmitype/StillImage" /></cc:Work></rdf:RDF></metadata><defs
     id="defs14" /><sodipodi:namedview
     inkscape:current-layer="svg10"
     inkscape:window-maximized="1"
     inkscape:window-y="-8"
     inkscape:window-x="-8"
     inkscape:cy="62.5"
     inkscape:cx="50"
     inkscape:zoom="1.984"
     showgrid="false"
     id="namedview12"
     inkscape:window-height="988"
     inkscape:window-width="1680"
     inkscape:pageshadow="2"
     inkscape:pageopacity="0"
     guidetolerance="10"
     gridtolerance="10"
     objecttolerance="10"
     borderopacity="1"
     bordercolor="#666666"
     pagecolor="#ffffff" /><style
     id="style2"
     type="text/css">
	.st0{fill:none;stroke:#237853;stroke-width:0.1;stroke-miterlimit:10;}
	.st1{fill:#236853;}
	.st2{fill:#907853;}
	.st3{fill:#513E32;}
	.st4{fill:#435C4B;}
	.st5{fill:none;stroke:#000000;stroke-miterlimit:10;}
</style><path
     style="stroke-width:1.09285"
     inkscape:connector-curvature="0"
     id="path4"
     d="M 93.217954,72.828098 V 20.371392 C 93.217954,17.967127 91.250827,16 88.846562,16 H 12.347198 c -2.4042651,0 -4.3713915,1.967127 -4.3713915,4.371392 v 52.456706 c -2.6228354,8.742785 -3.934253,13.114177 -6.5570883,21.856961 0,2.404266 1.9671264,4.371393 4.3713921,4.371393 H 95.40365 c 2.404266,0 4.371392,-1.967127 4.371392,-4.371393 C 97.152207,85.942275 95.84079,81.570883 93.217954,72.828098 Z M 12.347198,21.46424 c 0,-0.655708 0.43714,-1.092848 1.092848,-1.092848 h 74.313668 c 0.655709,0 1.092848,0.43714 1.092848,1.092848 v 45.899618 c 0,0.655709 -0.437139,1.092848 -1.092848,1.092848 H 13.440046 c -0.655708,0 -1.092848,-0.437139 -1.092848,-1.092848 z m 46.555327,73.220819 h -16.61129 c -1.202132,0 -2.076411,-0.983562 -2.076411,-2.185696 0.109285,-1.748557 0.218569,-3.169259 0.327854,-4.808531 0.109285,-1.202133 1.092849,-2.185697 2.294981,-2.185697 5.90138,0 9.617063,0 15.518442,0 1.202134,0 2.294982,0.983564 2.294982,2.185697 0.109284,1.748557 0.218569,3.169259 0.327853,4.808531 0.109285,1.202134 -0.874277,2.185696 -2.076411,2.185696 z" /></svg>
