<?xml version="1.0" encoding="UTF-8" standalone="no"?>
<svg
   xmlns:dc="http://purl.org/dc/elements/1.1/"
   xmlns:cc="http://creativecommons.org/ns#"
   xmlns:rdf="http://www.w3.org/1999/02/22-rdf-syntax-ns#"
   xmlns:svg="http://www.w3.org/2000/svg"
   xmlns="http://www.w3.org/2000/svg"
   xmlns:sodipodi="http://sodipodi.sourceforge.net/DTD/sodipodi-0.dtd"
   xmlns:inkscape="http://www.inkscape.org/namespaces/inkscape"
   inkscape:version="1.0rc1 (09960d6f05, 2020-04-09)"
   sodipodi:docname="noun_Pagoda_446665.svg"
   id="svg18"
   y="0px"
   x="0px"
   version="1.1"
   viewBox="0 0 40 50">
  <metadata
     id="metadata24">
    <rdf:RDF>
      <cc:Work
         rdf:about="">
        <dc:format>image/svg+xml</dc:format>
        <dc:type
           rdf:resource="http://purl.org/dc/dcmitype/StillImage" />
      </cc:Work>
    </rdf:RDF>
  </metadata>
  <defs
     id="defs22" />
  <sodipodi:namedview
     inkscape:current-layer="svg18"
     inkscape:window-maximized="1"
     inkscape:window-y="-8"
     inkscape:window-x="-8"
     inkscape:cy="25"
     inkscape:cx="20"
     inkscape:zoom="4.96"
     showgrid="false"
     id="namedview20"
     inkscape:window-height="988"
     inkscape:window-width="1680"
     inkscape:pageshadow="2"
     inkscape:pageopacity="0"
     guidetolerance="10"
     gridtolerance="10"
     objecttolerance="10"
     borderopacity="1"
     bordercolor="#666666"
     pagecolor="#ffffff" />
  <title
     id="title2">007-pagoda-temple-building-attraction-saigon</title>
  <desc
     id="desc4">Created with Sketch.</desc>
  <g
     transform="matrix(1.5117866,0,0,1.5117866,-10.034119,-4.0942928)"
     id="g12"
     fill-rule="evenodd"
     fill="none"
     stroke-width="1"
     stroke="none">
    <g
       id="g10"
       fill="#000000"
       transform="translate(-680,-40)">
      <g
         id="g8"
         transform="translate(687,48)">
        <path
           inkscape:connector-curvature="0"
           id="path6"
           d="m 16,7 h -6 v 4 h 6 z m 1,0 h 2 v 4 H 17 Z M 9,7 H 7 v 4 h 2 z m 17,5.563721 c -2.697156,0.229373 -5.182381,-0.712133 -6,-1.798514 V 7.1818367 C 21.163239,7.8229299 23,6.3065799 23,5.5637207 18.406494,7.2924805 13,0 13,0 13,0 7.5935059,7.2924805 3,5.5637207 3,6.3065799 4.8367609,7.8229299 6,7.1818367 v 3.5833703 c -0.8176195,1.086381 -3.302844,2.027887 -6,1.798514 0,1.329713 2.3476643,3.144877 4,2.644602 V 21 H 3 v 1 h 20 v -1 h -1 v -5.791677 c 1.652336,0.500275 4,-1.314889 4,-2.644602 z M 9,15 h 8 v 6 H 9 Z" />
      </g>
    </g>
  </g>
</svg>
