<?xml version="1.0" encoding="UTF-8" standalone="no"?>
<svg
   xmlns:dc="http://purl.org/dc/elements/1.1/"
   xmlns:cc="http://creativecommons.org/ns#"
   xmlns:rdf="http://www.w3.org/1999/02/22-rdf-syntax-ns#"
   xmlns:svg="http://www.w3.org/2000/svg"
   xmlns="http://www.w3.org/2000/svg"
   xmlns:sodipodi="http://sodipodi.sourceforge.net/DTD/sodipodi-0.dtd"
   xmlns:inkscape="http://www.inkscape.org/namespaces/inkscape"
   inkscape:version="1.0rc1 (09960d6f05, 2020-04-09)"
   sodipodi:docname="noun_Billboard_1144238.svg"
   id="svg16"
   xml:space="preserve"
   enable-background="new 0 0 100 100"
   viewBox="0 0 100 125"
   y="0px"
   x="0px"
   version="1.1"><metadata
     id="metadata22"><rdf:RDF><cc:Work
         rdf:about=""><dc:format>image/svg+xml</dc:format><dc:type
           rdf:resource="http://purl.org/dc/dcmitype/StillImage" /></cc:Work></rdf:RDF></metadata><defs
     id="defs20" /><sodipodi:namedview
     inkscape:current-layer="svg16"
     inkscape:window-maximized="1"
     inkscape:window-y="-8"
     inkscape:window-x="-8"
     inkscape:cy="62.5"
     inkscape:cx="50"
     inkscape:zoom="1.984"
     showgrid="false"
     id="namedview18"
     inkscape:window-height="988"
     inkscape:window-width="1680"
     inkscape:pageshadow="2"
     inkscape:pageopacity="0"
     guidetolerance="10"
     gridtolerance="10"
     objecttolerance="10"
     borderopacity="1"
     bordercolor="#666666"
     pagecolor="#ffffff" /><path
     style="stroke-width:1.08992"
     inkscape:connector-curvature="0"
     id="path2"
     d="M 95.942344,75.855349 H 4.3895795 c -0.6016324,0 -1.0899139,-0.488281 -1.0899139,-1.089914 V 32.258794 c 0,-1.204355 0.9754729,-2.179827 2.1798277,-2.179827 H 94.852431 c 1.204354,0 2.179827,0.975472 2.179827,2.179827 v 42.506641 c 0,0.601633 -0.488281,1.089914 -1.089914,1.089914 z" /><path
     style="stroke-width:1.08992"
     inkscape:connector-curvature="0"
     id="path4"
     d="M 4.3895795,80.215004 H 95.942344 c 0.601633,0 1.089914,0.488282 1.089914,1.089914 v 3.269742 c 0,1.204355 -0.975473,2.179827 -2.179827,2.179827 H 60.520144 c -0.300817,0 -0.544957,0.244141 -0.544957,0.544958 v 17.983575 c 0,0.60164 -0.488282,1.08992 -1.089914,1.08992 H 41.446651 c -0.601632,0 -1.089913,-0.48828 -1.089913,-1.08992 V 87.299445 c 0,-0.300817 -0.244142,-0.544958 -0.544958,-0.544958 H 5.4794933 c -1.2043548,0 -2.1798277,-0.975472 -2.1798277,-2.179827 v -3.269742 c 0,-0.601632 0.4882815,-1.089914 1.0899139,-1.089914 z" /><path
     style="stroke-width:1.08992"
     inkscape:connector-curvature="0"
     id="path6"
     d="M 58.885273,25.719311 H 41.446651 c -0.601632,0 -1.089913,-0.488281 -1.089913,-1.089914 V 21.359656 C 40.356738,18.952036 42.308773,17 44.716392,17 h 10.89914 c 2.407618,0 4.359655,1.952036 4.359655,4.359656 v 3.269741 c 0,0.601633 -0.488282,1.089914 -1.089914,1.089914 z" /><path
     style="stroke-width:1.08992"
     inkscape:connector-curvature="0"
     id="path8"
     d="M 30.547512,25.719311 H 13.10889 c -0.601632,0 -1.089913,-0.488281 -1.089913,-1.089914 V 21.359656 C 12.018977,18.952036 13.971012,17 16.378632,17 h 10.899139 c 2.40762,0 4.359655,1.952036 4.359655,4.359656 v 3.269741 c 0,0.601633 -0.488281,1.089914 -1.089914,1.089914 z" /><path
     style="stroke-width:1.08992"
     inkscape:connector-curvature="0"
     id="path10"
     d="M 87.223034,25.719311 H 69.784411 c -0.601632,0 -1.089914,-0.488281 -1.089914,-1.089914 V 21.359656 C 68.694497,18.952036 70.646533,17 73.054153,17 h 10.899138 c 2.40762,0 4.359656,1.952036 4.359656,4.359656 v 3.269741 c 0,0.601633 -0.488281,1.089914 -1.089913,1.089914 z" /></svg>
