<?xml version="1.0" encoding="UTF-8" standalone="no"?>
<svg
   xmlns:dc="http://purl.org/dc/elements/1.1/"
   xmlns:cc="http://creativecommons.org/ns#"
   xmlns:rdf="http://www.w3.org/1999/02/22-rdf-syntax-ns#"
   xmlns:svg="http://www.w3.org/2000/svg"
   xmlns="http://www.w3.org/2000/svg"
   xmlns:sodipodi="http://sodipodi.sourceforge.net/DTD/sodipodi-0.dtd"
   xmlns:inkscape="http://www.inkscape.org/namespaces/inkscape"
   inkscape:version="1.0rc1 (09960d6f05, 2020-04-09)"
   sodipodi:docname="Stationery-14.svg"
   id="svg2"
   viewBox="0 0 14 14"
   height="14"
   width="14"
   version="1.1">
  <sodipodi:namedview
     inkscape:current-layer="svg2"
     inkscape:window-maximized="1"
     inkscape:window-y="-8"
     inkscape:window-x="-8"
     inkscape:cy="7"
     inkscape:cx="7"
     inkscape:zoom="16.857143"
     showgrid="false"
     id="namedview6"
     inkscape:window-height="988"
     inkscape:window-width="1680"
     inkscape:pageshadow="2"
     inkscape:pageopacity="0"
     guidetolerance="10"
     gridtolerance="10"
     objecttolerance="10"
     borderopacity="1"
     bordercolor="#666666"
     pagecolor="#ffffff" />
  <defs
     id="defs3053" />
  <metadata
     id="metadata8">
    <rdf:RDF>
      <cc:Work
         rdf:about="">
        <dc:format>image/svg+xml</dc:format>
        <dc:type
           rdf:resource="http://purl.org/dc/dcmitype/StillImage" />
        <dc:title />
      </cc:Work>
    </rdf:RDF>
  </metadata>
  <path
     style="fill:#000000;fill-opacity:1;stroke:none"
     id="stationery"
     d="M 5,10 C 5,9.2808818 5,4.6666667 5,2 5,1 5,1 6,1 l 1,0 c 1,0 1,0 1,1 l -0.010634,7.0084269 -1,0 L 7,3 6,3 C 6,4.6666667 5.9893664,7.3417602 5.9893664,9.0084269 5.9893664,10.008427 5.9893679,9.991392 7,10 l 0.9893664,0.0084 c 1,0 1,0 1,-1.0000001 L 9,2 C 9.0030345,2.3020714e-6 9,0 7,0 6,0 7,0 6,0 4,0 4,0 4,2 4,5 4,7 4,10 4,11 4,11 6.654504,13.668971 6.8617369,13.968351 7,14 7.5370581,14 8,14 8.195636,14.016316 8.5031967,13.68551 11,11 11,11 11,10 11,6.6666667 11,5.3333333 11,2 l -1,0 0,8 C 10,10.489168 8,13.223489 7.5628142,13 7,13.159635 5,10.648803 5,10 z" />
</svg>
