<?xml version="1.0" encoding="UTF-8" standalone="no"?>
<svg
   xmlns:dc="http://purl.org/dc/elements/1.1/"
   xmlns:cc="http://creativecommons.org/ns#"
   xmlns:rdf="http://www.w3.org/1999/02/22-rdf-syntax-ns#"
   xmlns:svg="http://www.w3.org/2000/svg"
   xmlns="http://www.w3.org/2000/svg"
   xmlns:sodipodi="http://sodipodi.sourceforge.net/DTD/sodipodi-0.dtd"
   xmlns:inkscape="http://www.inkscape.org/namespaces/inkscape"
   inkscape:version="1.0rc1 (09960d6f05, 2020-04-09)"
   sodipodi:docname="noun_Perfume_1841588.svg"
   id="svg10"
   xml:space="preserve"
   enable-background="new 0 0 100 100"
   viewBox="0 0 100 125"
   y="0px"
   x="0px"
   version="1.1"><metadata
     id="metadata16"><rdf:RDF><cc:Work
         rdf:about=""><dc:format>image/svg+xml</dc:format><dc:type
           rdf:resource="http://purl.org/dc/dcmitype/StillImage" /></cc:Work></rdf:RDF></metadata><defs
     id="defs14" /><sodipodi:namedview
     inkscape:current-layer="svg10"
     inkscape:window-maximized="1"
     inkscape:window-y="-8"
     inkscape:window-x="-8"
     inkscape:cy="62.5"
     inkscape:cx="50"
     inkscape:zoom="1.984"
     showgrid="false"
     id="namedview12"
     inkscape:window-height="988"
     inkscape:window-width="1680"
     inkscape:pageshadow="2"
     inkscape:pageopacity="0"
     guidetolerance="10"
     gridtolerance="10"
     objecttolerance="10"
     borderopacity="1"
     bordercolor="#666666"
     pagecolor="#ffffff" /><path
     style="stroke-width:1.15606"
     inkscape:connector-curvature="0"
     id="path2"
     d="M 9.1739253,109.10858 H 91.834139 c 1.565298,0 2.939847,-1.04969 3.346778,-2.56181 5.151383,-19.012476 5.151383,-38.290842 0,-57.30216 -0.406931,-1.513276 -1.782636,-2.562972 -3.346778,-2.562972 H 9.1739253 c -1.5652979,0 -2.9398469,1.049696 -3.346778,2.561816 -5.1513792,19.012474 -5.1513792,38.29084 0,57.302156 0.4069311,1.51328 1.7826361,2.56297 3.346778,2.56297 z M 22.758723,60.554292 H 78.249342 V 95.235929 H 22.758723 Z" /><path
     style="stroke-width:1.15606"
     inkscape:connector-curvature="0"
     id="path4"
     d="M 67.844851,15.468164 C 67.844851,13.552581 66.293425,12 64.376687,12 h -27.74531 c -1.916739,0 -3.468163,1.552581 -3.468163,3.468164 V 39.745309 H 67.844851 Z M 50.504032,31.074901 c -2.872795,0 -5.202245,-2.32945 -5.202245,-5.202246 0,-2.872795 2.32945,-5.202246 5.202245,-5.202246 2.872796,0 5.202246,2.329451 5.202246,5.202246 0,2.872796 -2.32945,5.202246 -5.202246,5.202246 z" /></svg>
