<?xml version="1.0" encoding="UTF-8" standalone="no"?>
<svg
   xmlns:dc="http://purl.org/dc/elements/1.1/"
   xmlns:cc="http://creativecommons.org/ns#"
   xmlns:rdf="http://www.w3.org/1999/02/22-rdf-syntax-ns#"
   xmlns:svg="http://www.w3.org/2000/svg"
   xmlns="http://www.w3.org/2000/svg"
   xmlns:sodipodi="http://sodipodi.sourceforge.net/DTD/sodipodi-0.dtd"
   xmlns:inkscape="http://www.inkscape.org/namespaces/inkscape"
   inkscape:version="1.0rc1 (09960d6f05, 2020-04-09)"
   sodipodi:docname="noun_Bicycle Parking_132844.svg"
   id="svg50"
   xml:space="preserve"
   enable-background="new 0 0 100 100"
   viewBox="0 0 100 125"
   y="0px"
   x="0px"
   version="1.1"><metadata
     id="metadata56"><rdf:RDF><cc:Work
         rdf:about=""><dc:format>image/svg+xml</dc:format><dc:type
           rdf:resource="http://purl.org/dc/dcmitype/StillImage" /></cc:Work></rdf:RDF></metadata><defs
     id="defs54" /><sodipodi:namedview
     inkscape:current-layer="svg50"
     inkscape:window-maximized="1"
     inkscape:window-y="-8"
     inkscape:window-x="-8"
     inkscape:cy="62.5"
     inkscape:cx="50"
     inkscape:zoom="1.984"
     showgrid="false"
     id="namedview52"
     inkscape:window-height="988"
     inkscape:window-width="1680"
     inkscape:pageshadow="2"
     inkscape:pageopacity="0"
     guidetolerance="10"
     gridtolerance="10"
     objecttolerance="10"
     borderopacity="1"
     bordercolor="#666666"
     pagecolor="#ffffff" /><g
     transform="matrix(1.423239,0,0,1.4686,-21.161948,-11.430002)"
     id="g44"><g
       id="g4"><path
         inkscape:connector-curvature="0"
         id="path2"
         d="M 41.935,27.232 H 31.208 c -2.246,0 -3.48,1.236 -3.48,3.482 v 34.447 c 0,2.18 1.234,3.482 3.295,3.482 2.066,0 3.301,-1.303 3.301,-3.482 V 53.578 h 7.971 c 8.184,0 13.896,-5.389 13.896,-13.107 C 56.19,32.676 50.327,27.232 41.935,27.232 Z M 41.745,48.074 34.323,48.07 V 32.74 h 7.422 c 4.34,0 7.49,3.225 7.49,7.67 0,4.442 -3.15,7.664 -7.49,7.664 z" /></g><g
       id="g8"><path
         inkscape:connector-curvature="0"
         id="path6"
         d="M 70.958,83.344 H 29.042 c -6.83,0 -12.387,-5.557 -12.387,-12.387 V 29.041 c 0,-6.83 5.557,-12.385 12.387,-12.385 h 41.916 c 6.83,0 12.387,5.555 12.387,12.385 v 41.916 c 0,6.83 -5.557,12.387 -12.387,12.387 z M 29.042,22.055 c -3.852,0 -6.986,3.135 -6.986,6.986 v 41.916 c 0,3.852 3.135,6.986 6.986,6.986 h 41.916 c 3.852,0 6.986,-3.135 6.986,-6.986 V 29.041 c 0,-3.852 -3.135,-6.986 -6.986,-6.986 z" /></g><g
       id="g42"><g
         id="g12"><path
           inkscape:connector-curvature="0"
           id="path10"
           d="m 46.71,72.878 c -3.589,0 -6.509,-2.92 -6.509,-6.509 0,-3.589 2.92,-6.509 6.509,-6.509 3.59,0 6.51,2.92 6.51,6.509 0,3.589 -2.92,6.509 -6.51,6.509 z m 0,-10.955 c -2.451,0 -4.445,1.995 -4.445,4.446 0,2.45 1.994,4.446 4.445,4.446 2.451,0 4.447,-1.996 4.447,-4.446 0,-2.451 -1.996,-4.446 -4.447,-4.446 z" /></g><g
         id="g16"><path
           inkscape:connector-curvature="0"
           id="path14"
           d="m 67.066,72.878 c -3.589,0 -6.509,-2.92 -6.509,-6.509 0,-3.589 2.92,-6.509 6.509,-6.509 3.589,0 6.509,2.92 6.509,6.509 0,3.589 -2.92,6.509 -6.509,6.509 z m 0,-10.955 c -2.451,0 -4.446,1.995 -4.446,4.446 0,2.45 1.995,4.446 4.446,4.446 2.45,0 4.445,-1.996 4.445,-4.446 0.001,-2.451 -1.994,-4.446 -4.445,-4.446 z" /></g><g
         id="g20"><circle
           id="circle18"
           r="1.1849999"
           cy="66.369003"
           cx="67.066002" /></g><g
         id="g24"><circle
           id="circle22"
           r="1.184"
           cy="66.369003"
           cx="46.709999" /></g><g
         id="g28"><path
           inkscape:connector-curvature="0"
           id="path26"
           d="m 67.066,67.134 c -0.312,0 -0.604,-0.191 -0.718,-0.5 l -3.303,-8.979 -6.674,9.164 c -0.144,0.197 -0.374,0.314 -0.617,0.314 H 46.71 c -0.292,0 -0.559,-0.167 -0.686,-0.43 -0.129,-0.263 -0.097,-0.576 0.084,-0.806 l 5.478,-7.009 c 0.098,-0.125 0.23,-0.216 0.384,-0.262 l 11.072,-3.308 c 0.017,-0.005 0.032,-0.009 0.047,-0.013 0.093,-0.022 0.187,-0.026 0.279,-0.016 0.108,0.014 0.214,0.052 0.311,0.113 0.061,0.038 0.114,0.084 0.162,0.138 v 0 c 0,10e-4 10e-4,10e-4 10e-4,10e-4 0.066,0.075 0.116,0.161 0.149,0.252 l 3.792,10.309 c 0.146,0.396 -0.058,0.836 -0.452,0.981 -0.088,0.035 -0.177,0.051 -0.265,0.051 z m -18.788,-1.53 h 7.087 l 5.953,-8.174 -8.678,2.593 z" /></g><g
         id="g32"><path
           inkscape:connector-curvature="0"
           id="path30"
           d="m 55.755,67.134 c -0.288,0 -0.563,-0.163 -0.693,-0.441 l -4.193,-8.98 c -0.179,-0.383 -0.014,-0.838 0.369,-1.016 0.384,-0.179 0.838,-0.014 1.016,0.369 l 4.193,8.98 c 0.18,0.382 0.014,0.837 -0.369,1.016 -0.105,0.048 -0.215,0.072 -0.323,0.072 z" /></g><g
         id="g36"><path
           inkscape:connector-curvature="0"
           id="path34"
           d="m 49.841,58.152 c -0.302,0 -0.587,-0.179 -0.708,-0.476 -0.159,-0.391 0.028,-0.837 0.42,-0.996 l 3.44,-1.401 c 0.389,-0.16 0.836,0.027 0.995,0.42 0.16,0.39 -0.028,0.837 -0.419,0.995 l -3.44,1.402 c -0.095,0.039 -0.192,0.056 -0.288,0.056 z" /></g><g
         id="g40"><path
           inkscape:connector-curvature="0"
           id="path38"
           d="m 63.084,56.935 c -0.14,0 -0.281,-0.038 -0.407,-0.119 -0.357,-0.227 -0.464,-0.697 -0.237,-1.055 l 0.966,-1.524 -0.238,-1.033 -2.354,0.247 c -0.416,0.039 -0.796,-0.26 -0.84,-0.68 -0.045,-0.419 0.26,-0.795 0.68,-0.839 l 3.027,-0.319 c 0.383,-0.045 0.738,0.212 0.824,0.588 l 0.463,2.005 c 0.045,0.198 0.01,0.407 -0.1,0.58 l -1.137,1.794 c -0.146,0.229 -0.394,0.355 -0.647,0.355 z" /></g></g></g></svg>
