<?xml version="1.0" encoding="UTF-8" standalone="no"?>
<svg
   xmlns:dc="http://purl.org/dc/elements/1.1/"
   xmlns:cc="http://creativecommons.org/ns#"
   xmlns:rdf="http://www.w3.org/1999/02/22-rdf-syntax-ns#"
   xmlns:svg="http://www.w3.org/2000/svg"
   xmlns="http://www.w3.org/2000/svg"
   xmlns:sodipodi="http://sodipodi.sourceforge.net/DTD/sodipodi-0.dtd"
   xmlns:inkscape="http://www.inkscape.org/namespaces/inkscape"
   inkscape:version="1.0rc1 (09960d6f05, 2020-04-09)"
   sodipodi:docname="noun_pastry_2832225.svg"
   id="svg8"
   y="0px"
   x="0px"
   viewBox="1 -23 75.147 93.75"
   version="1.1">
  <metadata
     id="metadata14">
    <rdf:RDF>
      <cc:Work
         rdf:about="">
        <dc:format>image/svg+xml</dc:format>
        <dc:type
           rdf:resource="http://purl.org/dc/dcmitype/StillImage" />
      </cc:Work>
    </rdf:RDF>
  </metadata>
  <defs
     id="defs12" />
  <sodipodi:namedview
     inkscape:current-layer="svg8"
     inkscape:window-maximized="1"
     inkscape:window-y="-8"
     inkscape:window-x="-8"
     inkscape:cy="46.875"
     inkscape:cx="37.573502"
     inkscape:zoom="2.6453333"
     showgrid="false"
     id="namedview10"
     inkscape:window-height="988"
     inkscape:window-width="1680"
     inkscape:pageshadow="2"
     inkscape:pageopacity="0"
     guidetolerance="10"
     gridtolerance="10"
     objecttolerance="10"
     borderopacity="1"
     bordercolor="#666666"
     pagecolor="#ffffff" />
  <path
     inkscape:connector-curvature="0"
     id="path2"
     stroke-width="0.15595"
     d="m 38.263,-8.787 c -3.9688,0 -6.8852,1.7221 -6.8883,5.675 -0.0018,1.9762 0.59751,4.0741 1.6203,5.7281 h 10.611 c 1.5193,-1.7496 2.4487,-3.902 2.45,-5.7156 0.0037,-3.9243 -3.9063,-5.6843 -7.7819,-5.6875 z m 15.399,0.747 c -1.7538,0.31555 -3.8838,0.84401 -5.9635,1.7279 0.52694,1.1032 0.74168,2.3267 0.6893,3.5463 z m -17.173,1.3069 c 1.1947,-0.05169 1.7274,1.7987 0.41015,2.2784 -0.97165,0.35393 -1.4435,1.0521 -1.4441,2.1334 -0.0012,1.5639 -2.3404,1.5448 -2.3393,-0.0031 0.0018,-2.0603 1.0878,-3.6368 2.9818,-4.3276 0.13644,-0.04962 0.26785,-0.07578 0.39144,-0.08109 z m 18.769,0.40547 c -9.7774,9.9491 -7.83,7.5579 -8.7285,8.9438 h 5.4255 c 1.9165,-2.8686 2.8535,-6.4224 3.303,-8.9438 z m -38.537,11.283 c -2.3021,0 -4.1748,1.8727 -4.1748,4.1748 v 4.1592 c 1.554,0.90159 2.7488,2.0461 4.9078,2.0461 3.3395,0 3.4893,-2.9646 7.0396,-2.9646 3.5211,0 3.7384,2.9646 7.0396,2.9646 3.3395,0 3.4893,-2.9646 7.0396,-2.9646 3.5497,0 3.712,2.9646 7.0412,2.9646 3.3395,0 3.4893,-2.9646 7.0396,-2.9646 3.5497,0 3.7126,2.9646 7.0412,2.9646 2.2229,0 3.3507,-1.1773 4.9078,-2.0819 v -4.1233 c 0,-2.3021 -1.8733,-4.1748 -4.1748,-4.1748 h -35.37 z m 7.7726,9.7563 c -2.257,0 -2.8165,2.9631 -7.0412,2.9631 -2.1882,0 -3.6951,-0.85066 -4.9062,-1.6219 v 7.4872 h 42.166 c 1.5485,0 1.5461,2.3393 0,2.3393 h -42.32 c -2.8863,0 -5.2343,2.3464 -5.2337,5.2321 l -0.00156,5.1198 c 1.9165,1.0862 3.3847,2.5482 6.1101,2.5482 4.1309,0 4.2762,-3.551 8.4369,-3.551 4.1443,0 4.3267,3.551 8.4338,3.551 4.1357,0 4.271,-3.551 8.4354,-3.551 4.1784,0 4.2947,3.551 8.4354,3.551 4.1303,0 4.2753,-3.551 8.4354,-3.551 4.1784,0 4.2963,3.551 8.4369,3.551 2.8065,0 4.1897,-1.5055 6.1117,-2.5935 v -5.0746 c 0,-2.8857 -2.348,-5.2321 -5.2337,-5.2321 h -5.2898 c -1.5485,0 -1.5467,-2.3393 0,-2.3393 h 5.1339 l -0.0016,-7.5106 c -1.1866,0.77731 -2.668,1.6453 -4.9062,1.6453 -4.2466,0 -4.7604,-2.9631 -7.0412,-2.9631 -2.2729,0 -2.8046,2.9631 -7.0396,2.9631 -4.246,0 -4.7604,-2.9631 -7.0412,-2.9631 -2.2722,0 -2.8046,2.9631 -7.0396,2.9631 -4.2174,0 -4.7795,-2.9631 -7.0396,-2.9631 z m -2.7915,22.856 c -2.8784,0 -3.4151,3.551 -8.4354,3.551 -2.7736,0 -4.6237,-1.1777 -6.1101,-2.1365 v 9.9278 h 62.836 v -9.9605 c -0.0043,0.0032 -0.0089,0.0046 -0.01248,0.0078 -1.4547,0.96311 -3.2653,2.1615 -6.0992,2.1615 -4.9959,0 -5.5829,-3.551 -8.4369,-3.551 -2.8784,0 -3.4151,3.551 -8.4354,3.551 -4.9959,0 -5.5807,-3.551 -8.4354,-3.551 -2.8778,0 -3.4157,3.551 -8.4354,3.551 -4.963,0 -5.6057,-3.551 -8.4354,-3.551 z m -19.442,13.682 c -1.6771,0 -1.6795,2.5373 0,2.5373 h 72.629 c 1.6771,0 1.6795,-2.5373 0,-2.5373 z" />
</svg>
