<svg height='100px' width='100px'  fill="#000000" xmlns="http://www.w3.org/2000/svg" xmlns:xlink="http://www.w3.org/1999/xlink" version="1.1" x="0px" y="0px" viewBox="0 0 100 100" enable-background="new 0 0 100 100" xml:space="preserve"><path fill-rule="evenodd" clip-rule="evenodd" fill="#000000" d="M39.463,87.658V74.644L15.327,50.326l34.599-34.34l34.34,34.598  L60.119,74.551v13.11c18.673-5.164,30.656-23.333,28.052-42.532c-2.605-19.198-18.996-33.516-38.37-33.518  c-19.375-0.002-35.769,14.313-38.377,33.511S20.791,82.49,39.463,87.658L39.463,87.658z M47.431,91.104  c0.001,1.616-0.717,3.137-1.961,4.168c-1.244,1.03-2.882,1.451-4.469,1.149C17.297,91.886,0.932,70.067,3.212,46.042  C5.491,22.016,25.668,3.664,49.802,3.667s44.307,18.358,46.581,42.385c2.273,24.026-14.098,45.841-37.803,50.371  c-1.586,0.305-3.215-0.116-4.46-1.144c-1.245-1.028-1.968-2.559-1.969-4.173V71.232l20.846-20.69L49.884,27.254L26.596,50.369  L47.431,71.36V91.104z"></path><path fill-rule="evenodd" clip-rule="evenodd" fill="#000000" stroke="#000000" stroke-width="0.216" stroke-linejoin="bevel" stroke-miterlimit="22.9256" d="  M39.463,87.658V74.644L15.327,50.326l34.599-34.34l34.34,34.598L60.119,74.551v13.11c18.673-5.164,30.656-23.333,28.052-42.532  c-2.605-19.198-18.996-33.516-38.37-33.518c-19.375-0.002-35.769,14.313-38.377,33.511S20.791,82.49,39.463,87.658L39.463,87.658z   M47.431,91.104V71.36L26.596,50.369l23.288-23.115l23.113,23.288l-20.846,20.69v19.874c0.001,1.614,0.724,3.145,1.969,4.173  c1.245,1.027,2.874,1.448,4.46,1.144c23.705-4.53,40.076-26.345,37.803-50.371C94.108,22.025,73.936,3.67,49.802,3.667  S5.491,22.016,3.212,46.042c-2.28,24.025,14.085,45.844,37.789,50.379c1.586,0.302,3.225-0.119,4.469-1.149  C46.714,94.24,47.433,92.72,47.431,91.104z"></path></svg>