<?xml version="1.0" encoding="UTF-8" standalone="no"?>
<svg
   xmlns:dc="http://purl.org/dc/elements/1.1/"
   xmlns:cc="http://creativecommons.org/ns#"
   xmlns:rdf="http://www.w3.org/1999/02/22-rdf-syntax-ns#"
   xmlns:svg="http://www.w3.org/2000/svg"
   xmlns="http://www.w3.org/2000/svg"
   xmlns:sodipodi="http://sodipodi.sourceforge.net/DTD/sodipodi-0.dtd"
   xmlns:inkscape="http://www.inkscape.org/namespaces/inkscape"
   inkscape:version="1.0rc1 (09960d6f05, 2020-04-09)"
   sodipodi:docname="noun_Dam-weir_687616.svg"
   id="svg8"
   xml:space="preserve"
   viewBox="0 0 100 125"
   y="0px"
   x="0px"
   version="1.2"><metadata
     id="metadata14"><rdf:RDF><cc:Work
         rdf:about=""><dc:format>image/svg+xml</dc:format><dc:type
           rdf:resource="http://purl.org/dc/dcmitype/StillImage" /></cc:Work></rdf:RDF></metadata><defs
     id="defs12" /><sodipodi:namedview
     inkscape:current-layer="svg8"
     inkscape:window-maximized="1"
     inkscape:window-y="-8"
     inkscape:window-x="-8"
     inkscape:cy="62.5"
     inkscape:cx="50"
     inkscape:zoom="1.984"
     showgrid="false"
     id="namedview10"
     inkscape:window-height="988"
     inkscape:window-width="1680"
     inkscape:pageshadow="2"
     inkscape:pageopacity="0"
     guidetolerance="10"
     gridtolerance="10"
     objecttolerance="10"
     borderopacity="1"
     bordercolor="#666666"
     pagecolor="#ffffff" /><path
     inkscape:connector-curvature="0"
     id="path2"
     d="M 98,62.9 H 72.2 V 39.4 c 0,-0.7 -0.6,-1.2 -1.2,-1.2 H 56.2 v -4.4 c 0,-0.7 -0.6,-1.2 -1.2,-1.2 h -3.8 v -2.8 h 6.2 c 2.1,0 3.8,-1.7 3.8,-3.8 0,-2.1 -1.7,-3.8 -3.8,-3.8 h -6.2 v -2.1 c 0,-0.7 -0.6,-1.2 -1.2,-1.2 -0.6,0 -1.2,0.6 -1.2,1.2 v 2.1 h -6.2 c -2.1,0 -3.8,1.7 -3.8,3.8 0,2.1 1.7,3.8 3.8,3.8 h 6.2 v 2.8 H 45 c -0.7,0 -1.2,0.6 -1.2,1.2 v 4.4 H 29 c -0.7,0 -1.2,0.6 -1.2,1.2 V 62.8 H 2 c -0.7,0 -1.2,0.6 -1.2,1.2 0,0.6 0.6,1.2 1.2,1.2 H 33.8 V 100 c -1.5,-1.6 -2.5,-3.7 -2.5,-6 v -0.1 0 c 0,-0.7 -0.6,-1.2 -1.2,-1.2 -0.6,0 -1.2,0.6 -1.2,1.2 0,4.8 -3.9,8.8 -8.8,8.8 -4.8,0 -8.8,-3.9 -8.8,-8.8 0,-0.7 -0.6,-1.2 -1.2,-1.2 -0.7,0 -1.2,0.6 -1.2,1.2 0,6.2 5,11.2 11.3,11.2 4.3,0 8.1,-2.5 10,-6.1 1.9,3.6 5.7,6.1 10,6.1 4.3,0 8.1,-2.5 10,-6.1 1.9,3.6 5.7,6.1 10,6.1 4.3,0 8.1,-2.5 10,-6.1 1.9,3.6 5.7,6.1 10,6.1 6.2,0 11.2,-5 11.2,-11.2 0,-0.7 -0.6,-1.2 -1.2,-1.2 -0.6,0 -1.2,0.6 -1.2,1.2 0,4.8 -3.9,8.8 -8.8,8.8 -4.8,0 -8.7,-3.9 -8.8,-8.7 v -0.1 0 c 0,-0.7 -0.6,-1.2 -1.2,-1.2 -0.6,0 -1.2,0.6 -1.2,1.2 0,2.4 -1,4.5 -2.5,6.1 V 65.4 H 98 c 0.7,0 1.2,-0.6 1.2,-1.2 0,-0.6 -0.5,-1.3 -1.2,-1.3 z M 41.2,26 c 0,-0.7 0.6,-1.2 1.2,-1.2 h 15 c 0.7,0 1.2,0.6 1.2,1.2 0,0.6 -0.6,1.2 -1.2,1.2 h -15 C 41.8,27.3 41.2,26.7 41.2,26 Z m 7.6,14.7 V 72.9 H 36.2 V 40.7 Z m 15,34.7 v 4.5 H 36.2 v -4.5 z m -27.6,7 h 27.5 v 5.5 H 36.2 Z M 63.8,72.9 H 51.2 V 40.7 H 63.7 Z M 46.2,35 h 7.5 v 3.1 h -7.5 z m -16,27.9 V 40.7 h 3.5 V 62.9 Z M 60,102.6 c -4.8,0 -8.7,-3.9 -8.8,-8.7 v -0.1 0 c 0,-0.7 -0.6,-1.2 -1.2,-1.2 -0.6,0 -1.2,0.6 -1.2,1.2 0,4.8 -3.9,8.8 -8.8,8.8 -1.3,0 -2.6,-0.3 -3.7,-0.9 V 90.4 h 27.5 v 11.4 c -1.2,0.5 -2.5,0.8 -3.8,0.8 z m 6.2,-61.9 h 3.5 v 22.2 h -3.5 z" /></svg>
