<?xml version="1.0" encoding="UTF-8" standalone="no"?>
<svg
   xmlns:dc="http://purl.org/dc/elements/1.1/"
   xmlns:cc="http://creativecommons.org/ns#"
   xmlns:rdf="http://www.w3.org/1999/02/22-rdf-syntax-ns#"
   xmlns:svg="http://www.w3.org/2000/svg"
   xmlns="http://www.w3.org/2000/svg"
   xmlns:sodipodi="http://sodipodi.sourceforge.net/DTD/sodipodi-0.dtd"
   xmlns:inkscape="http://www.inkscape.org/namespaces/inkscape"
   inkscape:version="1.0rc1 (09960d6f05, 2020-04-09)"
   sodipodi:docname="Variety_store-14.svg"
   version="1.1"
   height="14"
   width="14"
   viewBox="0 0 14 14"
   id="svg2">
  <sodipodi:namedview
     inkscape:current-layer="svg2"
     inkscape:window-maximized="1"
     inkscape:window-y="-8"
     inkscape:window-x="-8"
     inkscape:cy="7"
     inkscape:cx="7"
     inkscape:zoom="16.857143"
     showgrid="false"
     id="namedview7"
     inkscape:window-height="988"
     inkscape:window-width="1680"
     inkscape:pageshadow="2"
     inkscape:pageopacity="0"
     guidetolerance="10"
     gridtolerance="10"
     objecttolerance="10"
     borderopacity="1"
     bordercolor="#666666"
     pagecolor="#ffffff" />
  <defs
     id="defs3053" />
  <metadata
     id="metadata8">
    <rdf:RDF>
      <cc:Work
         rdf:about="">
        <dc:format>image/svg+xml</dc:format>
        <dc:type
           rdf:resource="http://purl.org/dc/dcmitype/StillImage" />
        <dc:title />
      </cc:Work>
    </rdf:RDF>
  </metadata>
  <g
     id="text4134"
     style="font-size:7.5px;font-style:normal;font-weight:normal;line-height:125%;letter-spacing:0px;word-spacing:0px;fill:#000000;fill-opacity:1;stroke:none;display:inline;font-family:Bitstream Vera Sans">
    <path
       style="font-weight:bold;font-size:8.75px;fill:#000000"
       d="M 5,0 C 4,0 4,0 4,1 L 4.0097656,4 1,4 1,13 c 0,1 0,1 1,1 l 10,0 c 1,0 1,0 1,-1 L 13,4 10.039062,4 10,1 C 10,0 10,0 9,0 Z M 9,1 9,4 5,4 5,1 Z M 5,5 8,5 8,12 5,12 5,11 7,11 7,9 5,9 Z m 4,0 3,0 0,7 -3,0 0,-1 2,0 0,-2 -2,0 z M 6,6 6,8 7,8 7,6 Z m 4,0 0,2 1,0 0,-2 z m -8,5 2,0 0,2.48929 -1,0 L 3,12 2,12 Z"
       id="variety_store" />
  </g>
</svg>
