<?xml version="1.0" encoding="UTF-8" standalone="no"?>
<svg
   xmlns:dc="http://purl.org/dc/elements/1.1/"
   xmlns:cc="http://creativecommons.org/ns#"
   xmlns:rdf="http://www.w3.org/1999/02/22-rdf-syntax-ns#"
   xmlns:svg="http://www.w3.org/2000/svg"
   xmlns="http://www.w3.org/2000/svg"
   xmlns:sodipodi="http://sodipodi.sourceforge.net/DTD/sodipodi-0.dtd"
   xmlns:inkscape="http://www.inkscape.org/namespaces/inkscape"
   inkscape:version="1.0rc1 (09960d6f05, 2020-04-09)"
   sodipodi:docname="noun_photographer_1783316.svg"
   id="svg8"
   xml:space="preserve"
   enable-background="new 0 0 100 100"
   viewBox="0 0 100 125"
   y="0px"
   x="0px"
   version="1.1"><metadata
     id="metadata14"><rdf:RDF><cc:Work
         rdf:about=""><dc:format>image/svg+xml</dc:format><dc:type
           rdf:resource="http://purl.org/dc/dcmitype/StillImage" /></cc:Work></rdf:RDF></metadata><defs
     id="defs12" /><sodipodi:namedview
     inkscape:current-layer="svg8"
     inkscape:window-maximized="1"
     inkscape:window-y="-8"
     inkscape:window-x="-8"
     inkscape:cy="62.5"
     inkscape:cx="50"
     inkscape:zoom="1.984"
     showgrid="false"
     id="namedview10"
     inkscape:window-height="988"
     inkscape:window-width="1680"
     inkscape:pageshadow="2"
     inkscape:pageopacity="0"
     guidetolerance="10"
     gridtolerance="10"
     objecttolerance="10"
     borderopacity="1"
     bordercolor="#666666"
     pagecolor="#ffffff" /><path
     style="stroke-width:1.21425"
     inkscape:connector-curvature="0"
     id="path2"
     d="m 32.961235,27.070259 c 0,8.363709 -6.780336,15.146474 -15.144045,15.146474 -8.364923,0 -15.1440444,-6.782765 -15.1440444,-15.146474 0,-8.364924 6.7791214,-15.145259 15.1440444,-15.145259 8.363709,0.0012 15.144045,6.78155 15.144045,15.145259 z m 66.046346,50.291536 v 27.604615 c 0,2.26456 -1.835936,4.09807 -4.099287,4.09807 H 46.745326 c -2.264564,0 -4.099285,-1.83351 -4.099285,-4.09807 V 77.361795 c 0,-2.265777 1.834721,-4.1005 4.099285,-4.1005 h 9.410387 l 0.781974,-1.6028 c 1.573659,-3.51645 1.573659,-3.51645 3.516448,-3.51645 h 0.530625 14.848984 0.530624 c 1.94279,0 1.94279,0 3.516449,3.51645 l 0.783187,1.6028 h 5.943723 v -2.659193 c 0,-0.535481 0.434698,-0.968966 0.968965,-0.968966 h 4.243782 c 0.536695,0 0.97018,0.43227 0.97018,0.968966 v 2.659193 h 2.121284 c 2.259707,0 4.095643,1.834723 4.095643,4.1005 z m -18.57064,13.344536 c 0,-5.307458 -4.302065,-9.607094 -9.611952,-9.607094 -5.307458,0 -9.609523,4.299636 -9.609523,9.607094 0,5.308673 4.302065,9.611949 9.609523,9.611949 5.308673,0 9.611952,-4.303276 9.611952,-9.611949 z M 36.4279,50.30238 H 1.8936008 v 58.62246 H 33.164013 V 70.898378 c 0,-3.585662 2.375061,-6.488918 5.303816,-6.488918 h 8.59563 v -3.470308 c 0,-5.873296 -4.762263,-10.636772 -10.635559,-10.636772 z M 79.731466,38.299583 c 0,-1.635586 -1.840794,-2.960326 -4.111429,-2.960326 H 61.20211 c -2.270636,0 -4.111429,1.325954 -4.111429,2.960326 v 20.663995 c 0,1.635586 1.840793,2.960326 4.111429,2.960326 h 14.417927 c 2.270635,0 4.111429,-1.32474 4.111429,-2.960326 z" /></svg>
