<?xml version="1.0" encoding="UTF-8" standalone="no"?>
<svg
   xmlns:dc="http://purl.org/dc/elements/1.1/"
   xmlns:cc="http://creativecommons.org/ns#"
   xmlns:rdf="http://www.w3.org/1999/02/22-rdf-syntax-ns#"
   xmlns:svg="http://www.w3.org/2000/svg"
   xmlns="http://www.w3.org/2000/svg"
   xmlns:sodipodi="http://sodipodi.sourceforge.net/DTD/sodipodi-0.dtd"
   xmlns:inkscape="http://www.inkscape.org/namespaces/inkscape"
   inkscape:version="1.0rc1 (09960d6f05, 2020-04-09)"
   sodipodi:docname="Tyres.svg"
   version="1.1"
   width="14"
   height="14"
   id="svg2">
  <sodipodi:namedview
     inkscape:current-layer="svg2"
     inkscape:window-maximized="1"
     inkscape:window-y="-8"
     inkscape:window-x="-8"
     inkscape:cy="7"
     inkscape:cx="7"
     inkscape:zoom="16.857143"
     showgrid="false"
     id="namedview7"
     inkscape:window-height="988"
     inkscape:window-width="1680"
     inkscape:pageshadow="2"
     inkscape:pageopacity="0"
     guidetolerance="10"
     gridtolerance="10"
     objecttolerance="10"
     borderopacity="1"
     bordercolor="#666666"
     pagecolor="#ffffff" />
  <metadata
     id="metadata8">
    <rdf:RDF>
      <cc:Work
         rdf:about="">
        <dc:format>image/svg+xml</dc:format>
        <dc:type
           rdf:resource="http://purl.org/dc/dcmitype/StillImage" />
        <dc:title />
      </cc:Work>
    </rdf:RDF>
  </metadata>
  <defs
     id="defs6" />
  <rect
     width="14.830508"
     height="14.830508"
     x="0"
     y="-0.87500006"
     id="canvas"
     style="visibility:hidden;fill:none;stroke:none;stroke-width:1.05932" />
  <path
     inkscape:connector-curvature="0"
     style="fill:#000000;fill-opacity:1;fill-rule:nonzero;stroke:none;stroke-width:5.95868;stroke-linejoin:round;stroke-miterlimit:4;stroke-dasharray:none;stroke-opacity:1"
     d="M 4.7835012,0.2505296 C 2.7426493,0.50622261 1.059322,3.164334 1.059322,7.0037075 c 0,3.8393775 1.6690154,6.7206285 3.7241792,6.8028295 l 3.724179,0.148971 c -1.2036448,0 -2.2090914,-0.884626 -2.8901184,-2.145283 C 4.9365353,10.549572 4.5352225,8.8625052 4.5352225,7.0037075 4.5352225,5.14491 4.9365353,3.4578449 5.6175618,2.1971889 6.2985887,0.93653341 7.3040354,0.05190678 8.5076802,0.05190678 H 7.5766355 c -0.9333961,0 -1.8931246,0.08586272 -2.7931343,0.19862282 z m 3.724179,-0.19862282 c 1.2036445,0 2.2090888,0.88462663 2.8901168,2.14528212 0.51077,0.9454921 0.863777,2.1309846 1.008632,3.4487453 C 12.077127,2.5743442 10.687984,0.29326583 9.0139359,0.07518287 L 9.0042765,0.05190682 H 8.7559589 Z m 0,13.90360122 h 0.2482787 0.2482786 l 0.00582,-0.01744 C 10.960238,13.689101 12.475425,10.668043 12.48014,7.0192233 12.47784,8.8717479 12.076885,10.553163 11.3978,11.810223 10.716773,13.070878 9.711329,13.955504 8.5076845,13.955504 Z m 0,-12.97643581 c -0.7321745,0 -1.4781821,0.56881981 -2.0657555,1.65648351 -0.5875739,1.0876644 -0.9717785,2.6435341 -0.9717785,4.3681518 0,1.7246179 0.3842046,3.2824275 0.9717785,4.3700915 0.5875734,1.087663 1.333581,1.654546 2.0657555,1.654546 0.7321738,0 1.4781802,-0.566883 2.0657578,-1.654546 0.587573,-1.087664 0.971774,-2.6454736 0.971774,-4.3700915 0,-1.7246177 -0.384201,-3.2804874 -0.971774,-4.3681518 C 9.9858604,1.547892 9.239854,0.97907219 8.5076802,0.97907219 Z M 8.7404411,3.5278071 c 0.3303926,0 0.6328948,0.1495819 0.8631565,0.3588401 0.2302611,0.2092582 0.4069954,0.4800357 0.5528074,0.7933278 0.291621,0.6265844 0.453883,1.434068 0.453883,2.3237325 0,0.8896646 -0.162262,1.6971482 -0.453883,2.3237325 -0.145812,0.3132918 -0.3225463,0.5840684 -0.5528074,0.793327 -0.2302617,0.209259 -0.5327639,0.358841 -0.8631565,0.358841 -0.3303924,0 -0.6309549,-0.149582 -0.8612159,-0.358841 C 7.6489636,9.9115084 7.4722286,9.6407318 7.3264173,9.32744 7.0347938,8.7008557 6.8725327,7.8933721 6.8725327,7.0037075 6.8725327,6.114043 7.0347938,5.3065593 7.3264173,4.679975 7.4722286,4.3666829 7.6489636,4.0959054 7.8792252,3.8866472 8.1094862,3.677389 8.4100487,3.5278071 8.7404411,3.5278071 Z M 8.1442233,4.4549726 c -0.05677,0 -0.1236664,0.020764 -0.2288817,0.1163804 -0.1052149,0.095619 -0.2295948,0.2647041 -0.3375035,0.4965573 -0.2158172,0.4637068 -0.366599,1.1617335 -0.366599,1.9357972 0,0.7740638 0.1507818,1.4740298 0.366599,1.9377368 0.1079087,0.2318538 0.2322887,0.400939 0.3375035,0.4965574 0.1052151,0.095619 0.1721114,0.1144407 0.2288817,0.1144407 0.05677,0 0.1256069,-0.018822 0.2308216,-0.1144407 C 8.4802602,9.3423836 8.6046403,9.173298 8.7125488,8.9414443 8.9283662,8.4777373 9.079148,7.7777713 9.079148,7.0037075 9.079148,6.2296438 8.9283662,5.5316171 8.7125488,5.0679103 8.6046403,4.836057 8.4802602,4.6669714 8.3750449,4.571353 8.2698303,4.4757355 8.2009948,4.4549726 8.1442233,4.4549726 Z m 4.2622057,1.1929011 c 0.04815,0.4386696 0.07369,0.891796 0.07369,1.3558338 -7.16e-4,-0.4553604 -0.0254,-0.9094864 -0.07369,-1.3558338 z"
     id="tyres" />
</svg>
