<svg height='100px' width='100px'  fill="#000000" xmlns="http://www.w3.org/2000/svg" xmlns:xlink="http://www.w3.org/1999/xlink" version="1.1" x="0px" y="0px" viewBox="0 0 80 80" enable-background="new 0 0 80 80" xml:space="preserve"><path d="M54.335,56.375c-0.554-0.957-1.776-1.287-2.732-0.732c-0.957,0.552-1.284,1.775-0.732,2.732L53.541,63l-10.709,0  l0.586-0.586c0.781-0.781,0.781-2.047,0-2.828c-0.781-0.781-2.047-0.781-2.828,0l-3.999,3.999c-0.093,0.093-0.177,0.196-0.251,0.306  c-0.033,0.049-0.055,0.102-0.083,0.153c-0.035,0.063-0.073,0.124-0.101,0.192c-0.027,0.066-0.043,0.134-0.063,0.202  c-0.017,0.057-0.039,0.112-0.051,0.171c-0.051,0.259-0.051,0.525,0,0.783c0.012,0.059,0.034,0.114,0.051,0.171  c0.02,0.068,0.036,0.136,0.063,0.202c0.028,0.067,0.066,0.128,0.101,0.192c0.028,0.051,0.05,0.104,0.083,0.153  c0.074,0.11,0.157,0.213,0.251,0.306l3.999,3.999C40.98,70.805,41.492,71,42.004,71s1.023-0.195,1.414-0.586  c0.781-0.781,0.781-2.047,0-2.828L42.832,67l11.665,0c1.246,0,2.363-0.645,2.986-1.725c0.623-1.08,0.623-2.369,0-3.448  L54.335,56.375z"></path><path d="M34.607,44.898c0.959,0.553,2.179,0.224,2.732-0.732l2.67-4.626l5.355,9.275l-0.8-0.214  c-1.071-0.289-2.163,0.348-2.449,1.414c-0.286,1.067,0.347,2.164,1.414,2.449l5.464,1.464c0.001,0,0.002,0,0.003,0  c0.155,0.041,0.315,0.06,0.477,0.063c0.013,0,0.026,0.005,0.039,0.005c0,0,0,0,0,0c0,0,0,0,0.001,0c0.195,0,0.39-0.037,0.582-0.096  c0.063-0.019,0.119-0.049,0.18-0.074c0.079-0.033,0.16-0.054,0.236-0.098c0.053-0.031,0.097-0.071,0.146-0.105  c0.033-0.023,0.065-0.044,0.097-0.07c0.15-0.12,0.281-0.255,0.387-0.407c0.017-0.025,0.031-0.051,0.047-0.076  c0.112-0.175,0.203-0.361,0.255-0.56l1.463-5.46c0.286-1.067-0.347-2.164-1.414-2.449c-1.072-0.287-2.164,0.348-2.449,1.414  l-0.214,0.799l-5.832-10.102c-0.624-1.08-1.74-1.724-2.987-1.724c-1.246,0-2.362,0.645-2.986,1.724l-3.148,5.453  C33.323,43.123,33.65,44.346,34.607,44.898z"></path><path d="M34.429,48.019c-0.034-0.128-0.081-0.253-0.14-0.372c-0.03-0.061-0.07-0.115-0.105-0.172  c-0.033-0.052-0.06-0.107-0.098-0.156c-0.07-0.092-0.15-0.175-0.234-0.253c-0.01-0.009-0.018-0.021-0.028-0.03  c-0.202-0.18-0.439-0.317-0.696-0.402c-0.002-0.001-0.005-0.001-0.007-0.002c-0.12-0.039-0.243-0.068-0.369-0.084  c-0.044-0.006-0.088-0.002-0.133-0.005c-0.084-0.005-0.167-0.013-0.252-0.007c-0.134,0.009-0.266,0.031-0.395,0.066l-5.457,1.462  c-1.067,0.286-1.7,1.382-1.414,2.449c0.285,1.066,1.376,1.703,2.449,1.414l0.8-0.214l-5.833,10.102c-0.623,1.08-0.623,2.369,0,3.449  c0.624,1.08,1.74,1.724,2.986,1.724H31.8c1.104,0,2-0.896,2-2s-0.896-2-2-2h-5.341l5.355-9.274l0.214,0.8  c0.239,0.894,1.047,1.483,1.931,1.483c0.171,0,0.345-0.022,0.519-0.069c1.067-0.286,1.7-1.382,1.414-2.449L34.429,48.019z"></path><path d="M18,77h44c5.514,0,10-4.486,10-10V9c0-3.309-2.691-6-6-6H14c-3.309,0-6,2.691-6,6v58C8,72.514,12.486,77,18,77z M62,73H18  c-3.309,0-6-2.691-6-6V33h56v34C68,70.309,65.309,73,62,73z M68,9v20H42V7h24C67.103,7,68,7.897,68,9z M14,7h24v22H12V9  C12,7.897,12.897,7,14,7z"></path><path d="M17.205,22.5c0.017,0.029,0.041,0.049,0.059,0.076C18.834,25.219,21.709,27,25,27s6.166-1.781,7.736-4.424  c0.018-0.028,0.043-0.048,0.059-0.076c0.015-0.026,0.022-0.054,0.036-0.08C33.572,21.113,34,19.607,34,18c0-4.962-4.037-9-9-9  s-9,4.038-9,9c0,1.607,0.428,3.113,1.169,4.42C17.183,22.446,17.19,22.474,17.205,22.5z M22.048,22.014L25,20.309l2.952,1.704  C27.123,22.626,26.108,23,25,23S22.877,22.626,22.048,22.014z M30,18c0,0.187-0.035,0.364-0.055,0.546L27,16.845v-3.422  C28.763,14.198,30,15.955,30,18z M23,13.424v3.422l-2.945,1.7C20.035,18.364,20,18.187,20,18C20,15.955,21.237,14.198,23,13.424z"></path><path d="M47.169,22.42c0.014,0.026,0.021,0.054,0.036,0.08c0.017,0.029,0.041,0.049,0.059,0.076C48.834,25.219,51.709,27,55,27  s6.166-1.781,7.736-4.424c0.018-0.028,0.043-0.048,0.059-0.076c0.015-0.026,0.022-0.054,0.036-0.08C63.572,21.113,64,19.607,64,18  c0-4.962-4.037-9-9-9s-9,4.038-9,9C46,19.607,46.428,21.113,47.169,22.42z M52.048,22.014L55,20.309l2.952,1.704  C57.123,22.626,56.108,23,55,23S52.877,22.626,52.048,22.014z M60,18c0,0.187-0.035,0.364-0.055,0.546L57,16.845v-3.422  C58.763,14.198,60,15.955,60,18z M53,13.424v3.422l-2.945,1.7C50.035,18.364,50,18.187,50,18C50,15.955,51.237,14.198,53,13.424z"></path></svg>