<?xml version="1.0" encoding="UTF-8" standalone="no"?>
<svg
   xmlns:dc="http://purl.org/dc/elements/1.1/"
   xmlns:cc="http://creativecommons.org/ns#"
   xmlns:rdf="http://www.w3.org/1999/02/22-rdf-syntax-ns#"
   xmlns:svg="http://www.w3.org/2000/svg"
   xmlns="http://www.w3.org/2000/svg"
   xmlns:sodipodi="http://sodipodi.sourceforge.net/DTD/sodipodi-0.dtd"
   xmlns:inkscape="http://www.inkscape.org/namespaces/inkscape"
   inkscape:version="1.0rc1 (09960d6f05, 2020-04-09)"
   sodipodi:docname="noun_Fruit Basket_50738.svg"
   id="svg24"
   xml:space="preserve"
   enable-background="new 0 0 100 100"
   viewBox="0 0 100 125"
   y="0px"
   x="0px"
   version="1.1"><metadata
     id="metadata30"><rdf:RDF><cc:Work
         rdf:about=""><dc:format>image/svg+xml</dc:format><dc:type
           rdf:resource="http://purl.org/dc/dcmitype/StillImage" /></cc:Work></rdf:RDF></metadata><defs
     id="defs28" /><sodipodi:namedview
     inkscape:current-layer="svg24"
     inkscape:window-maximized="1"
     inkscape:window-y="-8"
     inkscape:window-x="-8"
     inkscape:cy="62.5"
     inkscape:cx="50"
     inkscape:zoom="1.984"
     showgrid="false"
     id="namedview26"
     inkscape:window-height="988"
     inkscape:window-width="1680"
     inkscape:pageshadow="2"
     inkscape:pageopacity="0"
     guidetolerance="10"
     gridtolerance="10"
     objecttolerance="10"
     borderopacity="1"
     bordercolor="#666666"
     pagecolor="#ffffff" /><polygon
     transform="matrix(1.1820638,0,0,1.1820638,-8.5253141,3.0896813)"
     id="polygon2"
     points="8.879,58.292 91.121,58.292 84.08,95 15.92,95 " /><g
     transform="matrix(1.1820638,0,0,1.1820638,-8.5253141,3.0896813)"
     id="g6"><path
       inkscape:connector-curvature="0"
       id="path4"
       d="M 90.232,55.468 H 84.6 v -10.06 c 0,-19.175 -15.601,-34.775 -34.775,-34.775 -19.176,0 -34.775,15.6 -34.775,34.775 v 10.06 H 9.416 V 45.408 C 9.416,23.127 27.543,5 49.824,5 72.104,5 90.232,23.127 90.232,45.408 Z" /></g><circle
     style="stroke-width:1.18207"
     id="circle8"
     r="5.4150338"
     cy="52.601604"
     cx="59.640759" /><circle
     style="stroke-width:1.18207"
     id="circle10"
     r="6.2554808"
     cy="40.492542"
     cx="68.052322" /><path
     style="stroke-width:1.18207"
     inkscape:connector-curvature="0"
     id="path12"
     d="m 42.301062,44.129753 c 2.990622,-2.282566 3.669126,-6.417424 3.669126,-6.417424 0,0 -4.166774,-0.431454 -7.158578,1.851111 -2.988257,2.283747 -3.667943,6.419788 -3.667943,6.419788 0,0 4.169139,0.430271 7.157395,-1.853475 z" /><g
     transform="matrix(1.1820638,0,0,1.1820638,-8.5253141,3.0896813)"
     id="g18"><path
       inkscape:connector-curvature="0"
       id="path14"
       d="m 78.604,34.954 c -3.949,-2.582 -12.115,2.92 -18.234,12.287 -1.818,2.78 -3.24,5.585 -4.252,8.228 h 19.261 c 5.538,-9.008 7.02,-18.037 3.225,-20.515 z" /><path
       inkscape:connector-curvature="0"
       id="path16"
       d="m 51.705,52.818 c 0.872,-1.508 1.381,-3.254 1.381,-5.122 0,-5.657 -4.585,-10.244 -10.242,-10.244 -2.28,0 -4.379,0.753 -6.081,2.013 v -7.823 h -2.998 v 7.574 c -1.64,-1.113 -3.617,-1.764 -5.745,-1.764 -5.658,0 -10.245,4.586 -10.245,10.244 0,1.851 0.497,3.582 1.355,5.08 h -0.003 l 1.643,2.692 h 29.324 l 1.62,-2.65 z" /></g></svg>
