<?xml version="1.0" encoding="UTF-8" standalone="no"?>
<svg
   xmlns:dc="http://purl.org/dc/elements/1.1/"
   xmlns:cc="http://creativecommons.org/ns#"
   xmlns:rdf="http://www.w3.org/1999/02/22-rdf-syntax-ns#"
   xmlns:svg="http://www.w3.org/2000/svg"
   xmlns="http://www.w3.org/2000/svg"
   xmlns:sodipodi="http://sodipodi.sourceforge.net/DTD/sodipodi-0.dtd"
   xmlns:inkscape="http://www.inkscape.org/namespaces/inkscape"
   inkscape:version="1.0rc1 (09960d6f05, 2020-04-09)"
   sodipodi:docname="noun_buggy_2663030.svg"
   id="svg8"
   y="0px"
   x="0px"
   xml:space="preserve"
   viewBox="0 0 100 125"
   version="1.1"><metadata
     id="metadata14"><rdf:RDF><cc:Work
         rdf:about=""><dc:format>image/svg+xml</dc:format><dc:type
           rdf:resource="http://purl.org/dc/dcmitype/StillImage" /></cc:Work></rdf:RDF></metadata><defs
     id="defs12" /><sodipodi:namedview
     inkscape:current-layer="svg8"
     inkscape:window-maximized="1"
     inkscape:window-y="-8"
     inkscape:window-x="-8"
     inkscape:cy="62.5"
     inkscape:cx="50"
     inkscape:zoom="1.984"
     showgrid="false"
     id="namedview10"
     inkscape:window-height="988"
     inkscape:window-width="1680"
     inkscape:pageshadow="2"
     inkscape:pageopacity="0"
     guidetolerance="10"
     gridtolerance="10"
     objecttolerance="10"
     borderopacity="1"
     bordercolor="#666666"
     pagecolor="#ffffff" /><path
     inkscape:connector-curvature="0"
     id="path2"
     stroke-width="0.23205"
     d="m 7.9727,16.4062 c -2.1293,0 -4.1312,0.82842 -5.6367,2.334 -1.5056,1.5058 -2.3359,3.5074 -2.3359,5.6367 0,2.1293 0.83037,4.1312 2.3359,5.6367 l 2.5312,2.5332 c 0.67969,0.67968 1.7815,0.67968 2.4609,0 0.67969,-0.67969 0.67969,-1.7815 0,-2.4609 L 4.7969,27.5527 C 3.94874,26.70454 3.4805,25.5764 3.4805,24.3769 c 0,-1.1995 0.46825,-2.3257 1.3164,-3.1738 0.84816,-0.84816 1.9743,-1.3164 3.1738,-1.3164 1.1995,0 2.3274,0.46825 3.1758,1.3164 l 16.133,16.133 c -10.568,11.836 -10.293,29.996 0.82031,41.504 l -5.7773,10.234 c -0.96767,-0.3323 -2.0049,-0.51562 -3.084,-0.51562 -5.2481,0 -9.5156,4.2694 -9.5156,9.5176 0,5.2482 4.2675,9.5176 9.5156,9.5176 5.2481,0 9.5195,-4.2694 9.5195,-9.5176 0,-2.9227 -1.3261,-5.5419 -3.4062,-7.2891 l 5.373,-9.5195 c 5.4394,4.4675 12.199,6.8965 19.33,6.8965 7.5685,0 14.714,-2.739 20.311,-7.7441 l 12.273,12.273 c -1.0547,1.532 -1.6738,3.3862 -1.6738,5.3828 0,5.2481 4.2694,9.5176 9.5176,9.5176 5.2481,0 9.5176,-4.2694 9.5176,-9.5176 0,-5.2482 -4.2697,-9.5176 -9.5176,-9.5176 -1.9964,0 -3.8508,0.61914 -5.3828,1.6738 l -33.305,-33.305 v -28.057 c 0,-0.96117 -0.77883,-1.7402 -1.7402,-1.7402 -4.1494,0 -8.1803,0.82098 -11.979,2.4414 -0.0012,4.7e-4 -0.0025,0.0019 -0.0039,0.002 -3.0545,1.3021 -5.848,3.0811 -8.3301,5.2988 l -16.133,-16.133 c -1.5056,-1.5058 -3.5074,-2.334 -5.6367,-2.334 z m 40.342,14.26 v 18.471 l -7.2539,-16.992 c 2.3396,-0.82588 4.7686,-1.3214 7.2539,-1.4785 z M 37.8597,33.51 44.9202,50.053 32.2092,37.342 c 1.7242,-1.5186 3.6139,-2.8038 5.6504,-3.832 z m -8.1133,6.291 13.031,13.031 -12.885,22.828 C 20.7933,65.489 20.7459,50.03 29.74592,39.801 Z" /></svg>
