<?xml version="1.0" encoding="UTF-8" standalone="no"?>
<svg
   xmlns:dc="http://purl.org/dc/elements/1.1/"
   xmlns:cc="http://creativecommons.org/ns#"
   xmlns:rdf="http://www.w3.org/1999/02/22-rdf-syntax-ns#"
   xmlns:svg="http://www.w3.org/2000/svg"
   xmlns="http://www.w3.org/2000/svg"
   xmlns:sodipodi="http://sodipodi.sourceforge.net/DTD/sodipodi-0.dtd"
   xmlns:inkscape="http://www.inkscape.org/namespaces/inkscape"
   inkscape:version="1.0rc1 (09960d6f05, 2020-04-09)"
   sodipodi:docname="noun_waste disposal_2379632.svg"
   id="svg22"
   xml:space="preserve"
   enable-background="new 0 0 50 50"
   viewBox="0 0 50 62.5"
   y="0px"
   x="0px"
   version="1.1"><metadata
     id="metadata28"><rdf:RDF><cc:Work
         rdf:about=""><dc:format>image/svg+xml</dc:format><dc:type
           rdf:resource="http://purl.org/dc/dcmitype/StillImage" /></cc:Work></rdf:RDF></metadata><defs
     id="defs26" /><sodipodi:namedview
     inkscape:current-layer="svg22"
     inkscape:window-maximized="1"
     inkscape:window-y="-8"
     inkscape:window-x="-8"
     inkscape:cy="31.25"
     inkscape:cx="25"
     inkscape:zoom="3.968"
     showgrid="false"
     id="namedview24"
     inkscape:window-height="988"
     inkscape:window-width="1680"
     inkscape:pageshadow="2"
     inkscape:pageopacity="0"
     guidetolerance="10"
     gridtolerance="10"
     objecttolerance="10"
     borderopacity="1"
     bordercolor="#666666"
     pagecolor="#ffffff" /><g
     transform="translate(0,6)"
     id="g16"><path
       inkscape:connector-curvature="0"
       id="path2"
       d="M 42.1763,12.3732 C 42.103,12.3651 42.0314,12.351 41.9559,12.351 h -6.0377 c -0.0362,0 -0.0701,0.0088 -0.1059,0.0107 -0.6544,-0.0608 -1.3249,0.1977 -1.7632,0.7505 l -5.1405,6.4716 h -5.7577 c -1.1114,0 -2.0126,0.9011 -2.0126,2.0126 0,1.1115 0.9011,2.0126 2.0126,2.0126 h 6.7296 c 0.6137,0 1.194,-0.2801 1.5758,-0.7611 l 2.4493,-3.0839 v 9.6941 h 1e-4 v 16.1006 c 0,1.1114 0.9011,2.0126 2.0126,2.0126 1.1115,0 2.0126,-0.9011 2.0126,-2.0126 V 29.458 h 2.0126 v 16.1006 c 0,1.1114 0.9011,2.0126 2.0126,2.0126 1.1114,0 2.0126,-0.9011 2.0126,-2.0126 V 27.384 l -10e-5,-6e-4 V 16.9257 c 0.6077,0.4722 1.0063,1.2017 1.0063,2.0292 v 7.1069 c 0,1.1114 0.9011,2.0126 2.0126,2.0126 1.1115,0 2.0125,-0.9012 2.0125,-2.0126 v -7.1069 c 0,-4.1404 -3.7605,-6.9186 -6.8237,-6.5817 z" /><path
       inkscape:connector-curvature="0"
       id="path4"
       d="M 5.4952,23.0596 17.7593,8.4055 C 18.1155,7.9795 18.0595,7.3447 17.633,6.9879 17.2075,6.6317 16.5727,6.6867 16.2154,7.1142 L 3.9514,21.7683 c -0.3562,0.426 -0.3002,1.0608 0.1263,1.4176 0.4262,0.3561 1.059,0.301 1.4175,-0.1263 z" /><path
       inkscape:connector-curvature="0"
       id="path6"
       d="m 3.9686,37.5284 c 5.0965,-1.6679 9.5243,4.0731 6.561,8.5938 h 7.9496 L 24.5169,29.77 V 24.1448 H 3.9686 Z" /><path
       inkscape:connector-curvature="0"
       id="path8"
       d="M 5.7296,38.2529 C 3.1132,38.2529 1,40.3661 1,42.9825 c 0,2.6163 2.1132,4.7296 4.7296,4.7296 2.6164,0 4.7296,-2.1132 4.7296,-4.7296 -10e-5,-2.6164 -2.1133,-4.7296 -4.7296,-4.7296 z m 0,7.4969 c -1.5296,0 -2.7673,-1.2378 -2.7673,-2.7673 0,-1.5296 1.2377,-2.7673 2.7673,-2.7673 1.5296,0 2.7673,1.2377 2.7673,2.7673 0,1.5295 -1.2377,2.7673 -2.7673,2.7673 z" /><circle
       id="circle10"
       r="4.0251999"
       cy="6.3133001"
       cx="38.937" /><rect
       id="rect12"
       height="4.0251999"
       width="4.0251999"
       y="13.3574"
       x="17.805" /><rect
       id="rect14"
       height="4.0251999"
       width="4.0251002"
       transform="matrix(-0.2668,-0.9637,0.9637,-0.2668,0.3785,40.9648)"
       y="18.3258"
       x="13.7589" /></g></svg>
