<?xml version="1.0" encoding="UTF-8" standalone="no"?>
<svg
   xmlns:dc="http://purl.org/dc/elements/1.1/"
   xmlns:cc="http://creativecommons.org/ns#"
   xmlns:rdf="http://www.w3.org/1999/02/22-rdf-syntax-ns#"
   xmlns:svg="http://www.w3.org/2000/svg"
   xmlns="http://www.w3.org/2000/svg"
   xmlns:sodipodi="http://sodipodi.sourceforge.net/DTD/sodipodi-0.dtd"
   xmlns:inkscape="http://www.inkscape.org/namespaces/inkscape"
   inkscape:version="1.0rc1 (09960d6f05, 2020-04-09)"
   sodipodi:docname="Copyshop-14.svg"
   id="svg2"
   viewBox="0 0 14 14"
   height="14"
   width="14"
   version="1.1">
  <sodipodi:namedview
     inkscape:current-layer="svg2"
     inkscape:window-maximized="1"
     inkscape:window-y="-8"
     inkscape:window-x="-8"
     inkscape:cy="7"
     inkscape:cx="7"
     inkscape:zoom="16.857143"
     showgrid="false"
     id="namedview7"
     inkscape:window-height="988"
     inkscape:window-width="1680"
     inkscape:pageshadow="2"
     inkscape:pageopacity="0"
     guidetolerance="10"
     gridtolerance="10"
     objecttolerance="10"
     borderopacity="1"
     bordercolor="#666666"
     pagecolor="#ffffff" />
  <metadata
     id="metadata8">
    <rdf:RDF>
      <cc:Work
         rdf:about="">
        <dc:format>image/svg+xml</dc:format>
        <dc:type
           rdf:resource="http://purl.org/dc/dcmitype/StillImage" />
        <dc:title />
      </cc:Work>
    </rdf:RDF>
  </metadata>
  <defs
     id="defs6" />
  <rect
     style="fill:none;stroke:none;visibility:hidden"
     id="canvas"
     y="0"
     x="0"
     height="14"
     width="14" />
  <path
     style="fill:#000000;fill-opacity:1"
     id="copyshop"
     d="M 9.03125,-0.03125 1,0 1,10 4,10 4,9 2,9 2,1 l 6,0 0,2 1.03125,0 0,-3.03125 z M 3,2 3,2.5 7,2.5 7,2 3,2 z M 3,3 3,3.5 4,3.5 4,3 3,3 z M 3,4 3,4.5 4,4.5 4,4 3,4 z M 5,4 5,14 13,14 13,7.28125 9.71875,4 5,4 z M 3,5 3,5.5 4,5.5 4,5 3,5 z m 3,0 3,0 0,3 3,0 0,5 -6,0 0,-8 z M 10,5.6875 11.3125,7 10,7 10,5.6875 z M 3,6 3,6.5 4,6.5 4,6 3,6 z M 7,6 7,6.5 8,6.5 8,6 7,6 z M 3,7 3,7.5 4,7.5 4,7 3,7 z M 7,7 7,7.5 8,7.5 8,7 7,7 z M 7,8 7,8.5 8,8.5 8,8 7,8 z m 0,1 0,0.5 4,0 L 11,9 7,9 z m 0,1 0,0.5 4,0 0,-0.5 -4,0 z m 0,1 0,0.5 4,0 0,-0.5 -4,0 z" />
</svg>
