<?xml version="1.0" encoding="UTF-8" standalone="no"?>
<svg
   xmlns:dc="http://purl.org/dc/elements/1.1/"
   xmlns:cc="http://creativecommons.org/ns#"
   xmlns:rdf="http://www.w3.org/1999/02/22-rdf-syntax-ns#"
   xmlns:svg="http://www.w3.org/2000/svg"
   xmlns="http://www.w3.org/2000/svg"
   xmlns:sodipodi="http://sodipodi.sourceforge.net/DTD/sodipodi-0.dtd"
   xmlns:inkscape="http://www.inkscape.org/namespaces/inkscape"
   inkscape:version="1.0rc1 (09960d6f05, 2020-04-09)"
   sodipodi:docname="noun_Bulldozer_519617.svg"
   id="svg14"
   xml:space="preserve"
   enable-background="new 0 0 101 101"
   viewBox="0 0 101 126.25"
   y="0px"
   x="0px"
   version="1.1"><metadata
     id="metadata20"><rdf:RDF><cc:Work
         rdf:about=""><dc:format>image/svg+xml</dc:format><dc:type
           rdf:resource="http://purl.org/dc/dcmitype/StillImage" /></cc:Work></rdf:RDF></metadata><defs
     id="defs18" /><sodipodi:namedview
     inkscape:current-layer="svg14"
     inkscape:window-maximized="1"
     inkscape:window-y="-8"
     inkscape:window-x="-8"
     inkscape:cy="63.125"
     inkscape:cx="50.5"
     inkscape:zoom="1.9643564"
     showgrid="false"
     id="namedview16"
     inkscape:window-height="988"
     inkscape:window-width="1680"
     inkscape:pageshadow="2"
     inkscape:pageopacity="0"
     guidetolerance="10"
     gridtolerance="10"
     objecttolerance="10"
     borderopacity="1"
     bordercolor="#666666"
     pagecolor="#ffffff" /><g
     transform="matrix(1.3696401,0,0,1.3696401,-19.522434,-13.945042)"
     id="g8"><path
       inkscape:connector-curvature="0"
       id="path2"
       d="m 32.426,73.095 c 0,-4.631 -3.767,-8.398 -8.398,-8.398 -4.631,0 -8.398,3.768 -8.398,8.398 0,4.63 3.767,8.397 8.398,8.397 4.631,0 8.398,-3.766 8.398,-8.397 z m -8.398,4.647 c -2.563,0 -4.648,-2.085 -4.648,-4.647 0,-2.563 2.085,-4.648 4.648,-4.648 2.563,0 4.648,2.085 4.648,4.648 0,2.562 -2.085,4.647 -4.648,4.647 z" /><circle
       id="circle4"
       r="2.4460001"
       cy="73.095001"
       cx="24.028" /><path
       inkscape:connector-curvature="0"
       id="path6"
       d="m 83.665,60.469 c -1.734,-8.457 -9.22,-14.843 -18.181,-14.843 -5.171,0 -9.851,2.128 -13.221,5.55 l -1.749,-9.712 c 0.979,-0.062 1.759,-0.868 1.759,-1.863 0,-1.035 -0.84,-1.875 -1.875,-1.875 h -2.125 -9.199 -2.125 c -1.036,0 -1.875,0.84 -1.875,1.875 v 11.824 h -3.323 v -5.811 c 0,-2.773 -1.08,-5.381 -3.042,-7.34 l -2.65,2.652 c 1.252,1.251 1.942,2.916 1.942,4.688 v 5.811 h -0.785 c -1.788,0 -3.327,1.262 -3.677,3.015 l -1.527,7.636 c 0.655,-0.12 1.327,-0.191 2.016,-0.191 6.182,0 11.21,5.029 11.21,11.211 0,0.604 -0.062,1.194 -0.154,1.773 h 14.085 c -1.356,-2.068 -2.333,-4.405 -2.824,-6.917 h 2.883 c 1.708,7.404 8.341,12.948 16.257,12.948 7.916,0 14.549,-5.544 16.257,-12.948 h 1.753 c 0.408,0 0.793,-0.082 1.161,-0.202 1.499,-0.491 2.589,-1.885 2.589,-3.548 -0.001,-2.014 -1.59,-3.642 -3.58,-3.733 z m -18.181,16.68 c -5.835,0 -10.776,-3.882 -12.389,-9.198 h 7.311 c 1.153,1.557 2.997,2.571 5.078,2.571 2.081,0 3.925,-1.015 5.078,-2.571 h 7.311 c -1.612,5.317 -6.554,9.198 -12.389,9.198 z M 38.824,41.476 h 7.882 l 2.488,13.817 c -0.024,0.044 -0.048,0.088 -0.071,0.132 H 38.824 Z m 26.66,25.296 c -1.418,0 -2.572,-1.154 -2.572,-2.572 0,-1.418 1.154,-2.571 2.572,-2.571 1.418,0 2.572,1.153 2.572,2.571 0,1.418 -1.154,2.572 -2.572,2.572 z" /></g></svg>
