<?xml version="1.0" encoding="UTF-8" standalone="no"?>
<svg
   xmlns:dc="http://purl.org/dc/elements/1.1/"
   xmlns:cc="http://creativecommons.org/ns#"
   xmlns:rdf="http://www.w3.org/1999/02/22-rdf-syntax-ns#"
   xmlns:svg="http://www.w3.org/2000/svg"
   xmlns="http://www.w3.org/2000/svg"
   xmlns:sodipodi="http://sodipodi.sourceforge.net/DTD/sodipodi-0.dtd"
   xmlns:inkscape="http://www.inkscape.org/namespaces/inkscape"
   inkscape:version="1.0rc1 (09960d6f05, 2020-04-09)"
   sodipodi:docname="noun_Bathroom_2526151.svg"
   id="svg34"
   xml:space="preserve"
   style="enable-background:new 0 0 100 100;"
   viewBox="0 0 100 125"
   y="0px"
   x="0px"
   version="1.1"><metadata
     id="metadata40"><rdf:RDF><cc:Work
         rdf:about=""><dc:format>image/svg+xml</dc:format><dc:type
           rdf:resource="http://purl.org/dc/dcmitype/StillImage" /></cc:Work></rdf:RDF></metadata><defs
     id="defs38" /><sodipodi:namedview
     inkscape:current-layer="svg34"
     inkscape:window-maximized="1"
     inkscape:window-y="-8"
     inkscape:window-x="-8"
     inkscape:cy="180.20852"
     inkscape:cx="82.22247"
     inkscape:zoom="1.4028999"
     showgrid="false"
     id="namedview36"
     inkscape:window-height="988"
     inkscape:window-width="1680"
     inkscape:pageshadow="2"
     inkscape:pageopacity="0"
     guidetolerance="10"
     gridtolerance="10"
     objecttolerance="10"
     borderopacity="1"
     bordercolor="#666666"
     pagecolor="#ffffff" /><g
     transform="matrix(1.0041296,0,0,1.0064659,-21.778279,-15.641165)"
     id="g10"><path
       inkscape:connector-curvature="0"
       id="path2"
       d="m 5273.1,2400.1 v -2 c 0,-2.8 -5,-4 -9.7,-4 -4.7,0 -9.7,1.3 -9.7,4 v 2 c 0,1.8 0.7,3.6 2,4.9 l 5,4.9 c 0.3,0.3 0.4,0.6 0.4,1 v 6.4 c 0,0.4 0.2,0.7 0.6,0.8 l 2.9,0.9 c 0.5,0.1 1,-0.2 1,-0.8 v -7.2 c 0,-0.4 0.2,-0.7 0.4,-1 l 5.1,-5 c 1.3,-1.3 2,-3.1 2,-4.9 z m -9.7,-0.1 c -4.8,0 -7.4,-1.3 -7.5,-1.8 v 0 c 0.1,-0.5 2.7,-1.8 7.5,-1.8 4.8,0 7.3,1.3 7.5,1.8 -0.2,0.5 -2.7,1.8 -7.5,1.8 z" /><path
       inkscape:connector-curvature="0"
       id="path4"
       d="m 5268.4,2410.3 c -0.6,0 -1,0.4 -1,1 0,0.6 0.4,1 1,1 h 4.3 c 0.6,0 1,-0.4 1,-1 0,-0.6 -0.4,-1 -1,-1 z" /><path
       inkscape:connector-curvature="0"
       id="path6"
       d="m 5272.7,2413.7 h -4.3 c -0.6,0 -1,0.4 -1,1 0,0.6 0.4,1 1,1 h 4.3 c 0.6,0 1,-0.4 1,-1 0,-0.6 -0.4,-1 -1,-1 z" /><path
       inkscape:connector-curvature="0"
       id="path8"
       d="m 5272.7,2417 h -4.3 c -0.6,0 -1,0.4 -1,1 0,0.6 0.4,1 1,1 h 4.3 c 0.6,0 1,-0.4 1,-1 0,-0.5 -0.4,-1 -1,-1 z" /></g><g
     transform="matrix(1.2761852,0,0,1.2791544,-16.688489,-1.4390694)"
     id="g24"><path
       inkscape:connector-curvature="0"
       id="path12"
       d="M 72.2,2.5 H 27.8 c -1.3,0 -2.4,1.1 -2.4,2.4 v 29.4 c 0,1.3 1.1,2.4 2.4,2.4 h 44.5 c 1.3,0 2.4,-1.1 2.4,-2.4 V 4.9 C 74.6,3.6 73.6,2.5 72.2,2.5 Z M 69.9,31.9 H 30.1 V 7.3 h 39.7 v 24.6 z" /><path
       inkscape:connector-curvature="0"
       id="path14"
       d="m 35.5,17.1 c 0.5,0 1.1,-0.2 1.5,-0.6 L 39.5,14 c 0.8,-0.8 0.8,-2.1 0,-2.9 -0.8,-0.8 -2.1,-0.8 -2.9,0 L 34,13.6 c -0.8,0.8 -0.8,2.1 0,2.9 0.4,0.4 0.9,0.6 1.5,0.6 z" /><path
       inkscape:connector-curvature="0"
       id="path16"
       d="m 36,23.8 c 0.4,0.4 0.9,0.6 1.5,0.6 0.5,0 1.1,-0.2 1.5,-0.6 l 7.7,-7.7 c 0.8,-0.8 0.8,-2.1 0,-2.9 -0.8,-0.8 -2.1,-0.8 -2.9,0 L 36,20.8 c -0.8,0.8 -0.8,2.2 0,3 z" /><path
       inkscape:connector-curvature="0"
       id="path18"
       d="m 33.3,51.6 c -1,0 -1.8,1 -1.5,2 l 1.3,4.8 c 0.9,3.4 4,5.8 7.5,5.8 h 18.8 c 3.5,0 6.6,-2.4 7.5,-5.8 l 1.3,-4.8 c 0.3,-1 -0.5,-2 -1.5,-2 H 52.1 v -6.1 c 0,-3.2 -2.6,-5.8 -5.8,-5.8 -3.2,0 -5.8,2.6 -5.8,5.8 0,1.2 0.9,2.1 2.1,2.1 1.2,0 2.1,-0.9 2.1,-2.1 0,-0.9 0.7,-1.6 1.6,-1.6 0.9,0 1.6,0.7 1.6,1.6 v 6.1 z" /><path
       inkscape:connector-curvature="0"
       id="path20"
       d="M 70.8,67.4 H 51.5 v 30.1 h 19.3 c 1.3,0 2.4,-1.1 2.4,-2.4 V 69.8 c 0,-1.3 -1.1,-2.4 -2.4,-2.4 z M 60.6,77.8 h -2.9 c -0.8,0 -1.5,-0.7 -1.5,-1.5 0,-0.8 0.7,-1.5 1.5,-1.5 h 2.9 c 0.8,0 1.5,0.7 1.5,1.5 0,0.9 -0.7,1.5 -1.5,1.5 z" /><path
       inkscape:connector-curvature="0"
       id="path22"
       d="m 26.8,69.8 v 25.3 c 0,1.3 1.1,2.4 2.4,2.4 H 48.5 V 67.4 H 29.2 c -1.3,0 -2.4,1.1 -2.4,2.4 z m 12.6,5 h 2.9 c 0.8,0 1.5,0.7 1.5,1.5 0,0.8 -0.7,1.5 -1.5,1.5 h -2.9 c -0.8,0 -1.5,-0.7 -1.5,-1.5 0,-0.8 0.7,-1.5 1.5,-1.5 z" /></g></svg>
