<?xml version="1.0" encoding="UTF-8" standalone="no"?>
<svg
   xmlns:dc="http://purl.org/dc/elements/1.1/"
   xmlns:cc="http://creativecommons.org/ns#"
   xmlns:rdf="http://www.w3.org/1999/02/22-rdf-syntax-ns#"
   xmlns:svg="http://www.w3.org/2000/svg"
   xmlns="http://www.w3.org/2000/svg"
   xmlns:sodipodi="http://sodipodi.sourceforge.net/DTD/sodipodi-0.dtd"
   xmlns:inkscape="http://www.inkscape.org/namespaces/inkscape"
   inkscape:version="1.0rc1 (09960d6f05, 2020-04-09)"
   sodipodi:docname="noun_Community_2429148.svg"
   id="svg14"
   clip-rule="evenodd"
   fill-rule="evenodd"
   y="0px"
   x="0px"
   viewBox="0 0 846.66 1058.325"
   style="shape-rendering:geometricPrecision;text-rendering:geometricPrecision;image-rendering:optimizeQuality;"
   version="1.1"
   xml:space="preserve"><metadata
     id="metadata18"><rdf:RDF><cc:Work
         rdf:about=""><dc:format>image/svg+xml</dc:format><dc:type
           rdf:resource="http://purl.org/dc/dcmitype/StillImage" /></cc:Work></rdf:RDF></metadata><sodipodi:namedview
     inkscape:current-layer="svg14"
     inkscape:window-maximized="1"
     inkscape:window-y="-8"
     inkscape:window-x="-8"
     inkscape:cy="547.88132"
     inkscape:cx="686.11102"
     inkscape:zoom="0.46866513"
     showgrid="false"
     id="namedview16"
     inkscape:window-height="988"
     inkscape:window-width="1680"
     inkscape:pageshadow="2"
     inkscape:pageopacity="0"
     guidetolerance="10"
     gridtolerance="10"
     objecttolerance="10"
     borderopacity="1"
     bordercolor="#666666"
     pagecolor="#ffffff" /><defs
     id="defs4"><style
       id="style2"
       type="text/css">
   
    .fil0 {fill:black}
   
  </style></defs><g
     transform="matrix(1.0650062,0,0,1.0650062,-27.519068,82.085568)"
     id="g8"><path
       inkscape:connector-curvature="0"
       id="path6"
       d="m 423.33,240.12 c 101.18,0 183.21,82.03 183.21,183.21 0,101.18 -82.03,183.21 -183.21,183.21 -101.18,0 -183.21,-82.03 -183.21,-183.21 0,-101.18 82.03,-183.21 183.21,-183.21 z m 278.52,-95.31 c 29.96,29.97 29.96,78.55 0,108.52 -23.78,23.78 -59.27,28.69 -87.89,14.73 l -26.36,26.36 c -5,-6.57 -10.48,-12.89 -16.48,-18.88 -5.99,-6 -12.31,-11.48 -18.88,-16.48 L 578.6,232.7 c -13.96,-28.62 -9.05,-64.11 14.73,-87.89 29.97,-29.96 78.55,-29.96 108.52,0 z m 115.36,278.52 c 0,42.38 -34.35,76.73 -76.73,76.73 -33.63,0 -62.2,-21.62 -72.56,-51.73 h -37.28 c 1.11,-8.18 1.7,-16.52 1.7,-25 0,-8.48 -0.59,-16.82 -1.7,-25 h 37.28 c 10.36,-30.11 38.93,-51.73 72.56,-51.73 42.38,0 76.73,34.35 76.73,76.73 z M 701.85,701.85 c -29.97,29.96 -78.55,29.96 -108.52,0 -23.78,-23.78 -28.69,-59.27 -14.73,-87.89 L 552.24,587.6 c 6.57,-5 12.89,-10.48 18.88,-16.48 6,-5.99 11.48,-12.31 16.48,-18.88 l 26.36,26.36 c 28.62,-13.96 64.11,-9.05 87.89,14.73 29.96,29.97 29.96,78.55 0,108.52 z M 423.33,817.21 c -42.38,0 -76.73,-34.35 -76.73,-76.73 0,-33.63 21.62,-62.2 51.73,-72.56 v -37.28 c 8.18,1.11 16.52,1.7 25,1.7 8.48,0 16.82,-0.59 25,-1.7 v 37.28 c 30.11,10.36 51.73,38.93 51.73,72.56 0,42.38 -34.35,76.73 -76.73,76.73 z M 144.81,701.85 c -29.96,-29.97 -29.96,-78.55 0,-108.52 23.78,-23.78 59.27,-28.69 87.89,-14.73 l 26.36,-26.36 c 5,6.57 10.48,12.89 16.48,18.88 5.99,6 12.31,11.48 18.88,16.48 l -26.36,26.36 c 13.96,28.62 9.05,64.11 -14.73,87.89 -29.97,29.96 -78.55,29.96 -108.52,0 z M 29.45,423.33 c 0,-42.38 34.35,-76.73 76.73,-76.73 33.63,0 62.2,21.62 72.56,51.73 h 37.28 c -1.11,8.18 -1.7,16.52 -1.7,25 0,8.48 0.59,16.82 1.7,25 h -37.28 c -10.36,30.11 -38.93,51.73 -72.56,51.73 -42.38,0 -76.73,-34.35 -76.73,-76.73 z M 144.81,144.81 c 29.97,-29.96 78.55,-29.96 108.52,0 23.78,23.78 28.69,59.27 14.73,87.89 l 26.36,26.36 c -6.57,5 -12.89,10.48 -18.88,16.48 -6,5.99 -11.48,12.31 -16.48,18.88 L 232.7,268.06 c -28.62,13.96 -64.11,9.05 -87.89,-14.73 -29.96,-29.97 -29.96,-78.55 0,-108.52 z M 423.33,29.45 c 42.38,0 76.73,34.35 76.73,76.73 0,33.63 -21.62,62.2 -51.73,72.56 v 37.28 c -8.18,-1.11 -16.52,-1.7 -25,-1.7 -8.48,0 -16.82,0.59 -25,1.7 v -37.28 c -30.11,-10.36 -51.73,-38.93 -51.73,-72.56 0,-42.38 34.35,-76.73 76.73,-76.73 z"
       class="fil0" /></g></svg>
