<?xml version="1.0" encoding="UTF-8" standalone="no"?>
<svg
   xmlns:dc="http://purl.org/dc/elements/1.1/"
   xmlns:cc="http://creativecommons.org/ns#"
   xmlns:rdf="http://www.w3.org/1999/02/22-rdf-syntax-ns#"
   xmlns:svg="http://www.w3.org/2000/svg"
   xmlns="http://www.w3.org/2000/svg"
   xmlns:sodipodi="http://sodipodi.sourceforge.net/DTD/sodipodi-0.dtd"
   xmlns:inkscape="http://www.inkscape.org/namespaces/inkscape"
   inkscape:version="1.0rc1 (09960d6f05, 2020-04-09)"
   sodipodi:docname="noun_statue_1230134.svg"
   id="svg16"
   xml:space="preserve"
   enable-background="new 0 0 100 100"
   viewBox="0 0 100 125"
   y="0px"
   x="0px"
   version="1.1"><metadata
     id="metadata22"><rdf:RDF><cc:Work
         rdf:about=""><dc:format>image/svg+xml</dc:format><dc:type
           rdf:resource="http://purl.org/dc/dcmitype/StillImage" /></cc:Work></rdf:RDF></metadata><defs
     id="defs20" /><sodipodi:namedview
     inkscape:current-layer="svg16"
     inkscape:window-maximized="1"
     inkscape:window-y="-8"
     inkscape:window-x="-8"
     inkscape:cy="62.5"
     inkscape:cx="50"
     inkscape:zoom="1.984"
     showgrid="false"
     id="namedview18"
     inkscape:window-height="988"
     inkscape:window-width="1680"
     inkscape:pageshadow="2"
     inkscape:pageopacity="0"
     guidetolerance="10"
     gridtolerance="10"
     objecttolerance="10"
     borderopacity="1"
     bordercolor="#666666"
     pagecolor="#ffffff" /><path
     style="stroke-width:1.26039"
     inkscape:connector-curvature="0"
     id="path2"
     d="m 47.730395,0.449 c -3.420711,0 -6.201142,2.7816911 -6.201142,6.2036628 0,3.4207112 2.780431,6.2112252 6.201142,6.2112252 3.41693,0 6.208705,-2.786733 6.208705,-6.2112252 C 53.94036,3.2306911 51.148586,0.449 47.730395,0.449 Z" /><g
     transform="matrix(1.2603947,0,0,1.2603947,-15.323371,-0.11691723)"
     id="g10"><rect
       id="rect4"
       height="9.0500002"
       width="30.243"
       y="51.859001"
       x="34.891998" /><rect
       id="rect6"
       height="35.838001"
       width="48.389"
       y="63.328999"
       x="25.819" /><path
       inkscape:connector-curvature="0"
       id="path8"
       d="m 44.308,33.361 v 16.08 h 11.484 v -16.08 h 4.3 L 60.093,16.85 c 0,-2.726 -2.209,-4.934 -4.934,-4.934 H 44.872 c -2.724,0 -4.933,2.208 -4.933,4.934 l 0.021,16.511 z" /></g></svg>
