<?xml version="1.0" encoding="UTF-8" standalone="no"?>
<svg
   xmlns:dc="http://purl.org/dc/elements/1.1/"
   xmlns:cc="http://creativecommons.org/ns#"
   xmlns:rdf="http://www.w3.org/1999/02/22-rdf-syntax-ns#"
   xmlns:svg="http://www.w3.org/2000/svg"
   xmlns="http://www.w3.org/2000/svg"
   xmlns:sodipodi="http://sodipodi.sourceforge.net/DTD/sodipodi-0.dtd"
   xmlns:inkscape="http://www.inkscape.org/namespaces/inkscape"
   inkscape:version="1.0rc1 (09960d6f05, 2020-04-09)"
   sodipodi:docname="noun_ancient shell fossil_2087415.svg"
   id="svg20"
   version="1.1"
   y="0px"
   x="0px"
   viewBox="0 0 512 640">
  <metadata
     id="metadata26">
    <rdf:RDF>
      <cc:Work
         rdf:about="">
        <dc:format>image/svg+xml</dc:format>
        <dc:type
           rdf:resource="http://purl.org/dc/dcmitype/StillImage" />
      </cc:Work>
    </rdf:RDF>
  </metadata>
  <defs
     id="defs24" />
  <sodipodi:namedview
     inkscape:current-layer="svg20"
     inkscape:window-maximized="1"
     inkscape:window-y="-8"
     inkscape:window-x="-8"
     inkscape:cy="337.15662"
     inkscape:cx="289.17553"
     inkscape:zoom="0.3875"
     showgrid="false"
     id="namedview22"
     inkscape:window-height="988"
     inkscape:window-width="1680"
     inkscape:pageshadow="2"
     inkscape:pageopacity="0"
     guidetolerance="10"
     gridtolerance="10"
     objecttolerance="10"
     borderopacity="1"
     bordercolor="#666666"
     pagecolor="#ffffff" />
  <title
     id="title2">Glyph Ancient shell fossil</title>
  <path
     style="stroke-width:1.14016"
     inkscape:connector-curvature="0"
     id="path4"
     d="m 441.46956,512.22093 a 27.842555,27.842555 0 0 0 8.32313,-19.94129 c -0.27364,-30.97798 14.822,-43.49687 26.7366,-48.55914 a 28.435435,28.435435 0 0 0 17.10231,-21.66293 c 9.70271,-61.20346 10.55782,-100.47035 9.83952,-121.30096 a 45.047475,45.047475 0 0 0 -13.49941,-30.52192 c -8.71079,-8.56255 -17.41015,-16.65764 -25.94991,-24.26247 a 24.84395,24.84395 0 0 0 -36.09727,3.02141 l -5.95159,7.47941 a 8.163501,8.163501 0 0 1 -11.61818,1.14015 8.4257364,8.4257364 0 0 1 -0.94632,-11.67517 l 4.36679,-5.49554 a 27.796949,27.796949 0 0 0 -5.1649,-39.59755 C 389.86621,186.93506 374.58814,176.8561 365.55812,171.15532 a 35.344766,35.344766 0 0 0 -18.96075,-5.51834 h -31.092 a 113.08045,113.08045 0 0 0 -44.13534,8.93881 v 0 a 77.439244,77.439244 0 0 0 -15.60872,8.92741 l -23.29334,17.1023 a 84.702023,84.702023 0 0 0 -32.23214,48.33112 479.66269,479.66269 0 0 0 -12.38207,81.84024 77.291025,77.291025 0 0 0 10.17016,43.54248 c 8.40295,14.60536 19.85009,30.56752 38.00134,39.68875 a 6.7725134,6.7725134 0 0 1 0.76389,0.37625 74.315223,74.315223 0 0 0 33.24689,7.30838 h 0.28504 c 16.34981,0 38.76523,-8.88179 63.03911,-24.86675 a 43.0066,43.0066 0 0 0 19.50802,-32.66541 c 1.64182,-20.69379 -4.19577,-39.50633 -9.38347,-51.63756 a 33.50912,33.50912 0 0 0 -23.63538,-19.64486 55.867535,55.867535 0 0 0 -30.31669,1.72164 21.571709,21.571709 0 0 0 -12.45048,29.47297 l 0.12541,0.26224 a 14.890409,14.890409 0 0 0 12.35927,8.72217 14.707984,14.707984 0 0 0 13.47662,-6.25944 42.801373,42.801373 0 0 0 3.18104,-5.30172 8.1838932,8.1838932 0 0 1 14.822,6.94354 56.939279,56.939279 0 0 1 -4.56063,7.71885 31.354229,31.354229 0 0 1 -54.08889,-4.86846 c -5.46134,-11.77779 -8.09509,-21.85675 -7.82145,-29.94044 a 8.1977057,8.1977057 0 0 1 2.2119,-5.32452 67.679528,67.679528 0 0 1 15.12984,-11.28752 15.79113,15.79113 0 0 0 7.92407,-16.3156 l -3.19243,-19.53083 a 8.4371379,8.4371379 0 0 1 5.89459,-9.5773 8.1977057,8.1977057 0 0 1 10.19298,6.59009 l 2.65655,16.22439 a 15.631509,15.631509 0 0 0 14.75359,13.18018 75.865832,75.865832 0 0 1 13.18018,1.65322 49.847523,49.847523 0 0 1 35.23075,29.19934 c 5.906,13.83006 12.5417,35.34477 10.64904,59.3564 a 59.287996,59.287996 0 0 1 -0.94633,6.84093 11.526955,11.526955 0 0 0 4.56061,11.40153 l 13.68185,10.19298 a 8.5055471,8.5055471 0 0 1 1.94966,11.73218 8.1863041,8.1863041 0 0 1 -11.40154,1.63042 l -8.96161,-6.6585 a 11.800591,11.800591 0 0 0 -15.51748,1.4138 60.758795,60.758795 0 0 1 -10.26139,8.43713 c -19.04057,12.54169 -46.99714,27.47771 -71.97791,27.55751 h -0.33065 a 92.580486,92.580486 0 0 1 -34.28441,-6.21383 l -16.03057,22.57505 a 8.1863041,8.1863041 0 0 1 -11.77779,1.65321 8.4029334,8.4029334 0 0 1 -1.36818,-11.40153 l 14.50275,-20.40875 c -17.72939,-11.40154 -29.13092,-27.87676 -37.18041,-41.75243 a 93.686436,93.686436 0 0 1 -12.33646,-52.72072 c 0.63848,-10.53502 1.63041,-20.63678 2.82757,-30.14566 l -36.65594,-10.53502 a 8.4029334,8.4029334 0 0 1 -6.12263,-9.42907 8.1749025,8.1749025 0 0 1 10.26139,-6.38486 l 34.8089,9.99915 c 2.40572,-15.11845 5.1763,-28.1504 7.59342,-38.17236 a 101.10884,101.10884 0 0 1 38.45738,-57.68037 v 0 a 35.607002,35.607002 0 0 0 10.14737,-45.78858 L 190.25948,63.901064 A 30.784152,30.784152 0 0 0 147.83436,51.997859 C 129.03322,62.90913 109.78742,75.849876 95.056633,86.202473 l -0.125413,0.07981 a 13.750255,13.750255 0 0 0 -3.22664,19.268597 l 20.39736,28.27582 a 8.4257364,8.4257364 0 0 1 -1.29977,11.40153 8.1863041,8.1863041 0 0 1 -11.755,-1.58481 l -7.88986,-10.93408 a 17.250527,17.250527 0 0 0 -29.643997,2.82759 l -0.125418,0.26223 C 12.04204,241.84486 20.04592,339.89809 30.615145,393.25729 a 32.311957,32.311957 0 0 0 47.168163,22.11898 l 16.076164,-8.73358 a 8.1863041,8.1863041 0 0 1 11.401538,3.99054 8.3915318,8.3915318 0 0 1 -3.91072,10.52361 l -24.593122,13.45382 a 29.461573,29.461573 0 0 0 -7.63903,45.85698 c 32.300562,34.7747 80.472052,65.9465 91.748182,70.56413 1.72163,0.69548 3.42046,1.42519 5.10789,2.2803 12.67851,6.29365 29.57559,11.00248 43.7819,14.19491 a 215.67148,215.67148 0 0 0 47.4532,5.19911 h 9.95354 a 43.884518,43.884518 0 0 0 43.6565,-48.47934 v 0 a 8.4257364,8.4257364 0 0 1 5.57534,-9.00721 8.1863041,8.1863041 0 0 1 10.64904,6.92073 l 3.83092,36.39371 a 15.836736,15.836736 0 0 0 15.75692,14.17211 h 0.057 a 82.205087,82.205087 0 0 0 57.97682,-23.94323 z" />
  <path
     style="stroke-width:1.14016"
     inkscape:connector-curvature="0"
     id="path6"
     d="m 8.0172982,127.62426 2.1776928,6.07702 a 7.8328564,7.8328564 0 0 0 12.678511,3.13542 l 7.525014,-6.89793 a 21.12705,21.12705 0 0 0 4.29838,-25.61925 l -1.026139,-1.89266 A 7.8556595,7.8556595 0 0 0 23.409373,99.0064 l -4.343985,2.01807 A 21.366482,21.366482 0 0 0 8.0172982,127.62426 Z" />
  <path
     style="stroke-width:1.14016"
     inkscape:connector-curvature="0"
     id="path8"
     d="m 18.757546,549.61798 0.136818,0.31924 a 14.924613,14.924613 0 0 0 14.958818,8.99581 l 9.030018,-0.7525 a 14.924613,14.924613 0 0 0 10.956877,-23.46437 l -3.819514,-5.42713 a 14.924613,14.924613 0 0 0 -23.213531,-1.45939 l -5.347321,5.89459 a 14.913211,14.913211 0 0 0 -2.702165,15.89375 z" />
  <path
     style="stroke-width:1.14016"
     inkscape:connector-curvature="0"
     id="path10"
     d="m 400.56085,122.98383 a 39.369509,39.369509 0 0 0 32.39177,-11.40153 l 0.19382,-0.19383 a 18.926552,18.926552 0 0 0 -0.23943,-26.884827 l -1.80145,-1.767238 a 19.074773,19.074773 0 0 0 -6.41906,-4.104553 l -4.83426,-1.858451 a 47.954868,47.954868 0 0 0 -32.81362,-0.581478 l -2.2119,0.763902 a 18.926552,18.926552 0 0 0 -11.82339,12.108434 l -2.46273,7.525014 A 18.937954,18.937954 0 0 0 385.95547,121.228 c 4.75445,0.60428 9.88513,1.21996 14.60538,1.75583 z" />
  <path
     style="stroke-width:1.14016"
     inkscape:connector-curvature="0"
     id="path12"
     d="m 474.59103,173.23041 a 9.3606625,9.3606625 0 0 0 6.84093,0.83231 l 10.11316,-2.65656 a 9.3606625,9.3606625 0 0 0 0.7981,-17.8548 l -9.83953,-3.53448 a 9.3606625,9.3606625 0 0 0 -8.67657,1.23137 l -4.98247,3.62568 a 9.3492609,9.3492609 0 0 0 1.01474,15.77973 z" />
  <path
     style="stroke-width:1.14016"
     inkscape:connector-curvature="0"
     id="path14"
     d="m 483.45003,547.07543 a 85.796571,85.796571 0 0 0 16.55503,0.99193 14.365938,14.365938 0 0 0 13.43101,-17.88901 52.732112,52.732112 0 0 0 -6.08842,-14.25192 14.548362,14.548362 0 0 0 -17.91182,-6.00861 c -4.66323,1.93827 -10.13596,6.24804 -15.74552,14.98162 a 14.479953,14.479953 0 0 0 9.75972,22.17599 z" />
</svg>
