<?xml version="1.0" encoding="UTF-8" standalone="no"?>
<svg
   xmlns:dc="http://purl.org/dc/elements/1.1/"
   xmlns:cc="http://creativecommons.org/ns#"
   xmlns:rdf="http://www.w3.org/1999/02/22-rdf-syntax-ns#"
   xmlns:svg="http://www.w3.org/2000/svg"
   xmlns="http://www.w3.org/2000/svg"
   xmlns:sodipodi="http://sodipodi.sourceforge.net/DTD/sodipodi-0.dtd"
   xmlns:inkscape="http://www.inkscape.org/namespaces/inkscape"
   inkscape:version="1.0rc1 (09960d6f05, 2020-04-09)"
   sodipodi:docname="noun_gun shooting game_2693526.svg"
   id="svg44"
   xml:space="preserve"
   enable-background="new 0 0 68 68"
   viewBox="0 0 68 85"
   y="0px"
   x="0px"
   version="1.1"><metadata
     id="metadata50"><rdf:RDF><cc:Work
         rdf:about=""><dc:format>image/svg+xml</dc:format><dc:type
           rdf:resource="http://purl.org/dc/dcmitype/StillImage" /></cc:Work></rdf:RDF></metadata><defs
     id="defs48" /><sodipodi:namedview
     inkscape:current-layer="svg44"
     inkscape:window-maximized="1"
     inkscape:window-y="-8"
     inkscape:window-x="-8"
     inkscape:cy="42.5"
     inkscape:cx="34"
     inkscape:zoom="2.9176471"
     showgrid="false"
     id="namedview46"
     inkscape:window-height="988"
     inkscape:window-width="1680"
     inkscape:pageshadow="2"
     inkscape:pageopacity="0"
     guidetolerance="10"
     gridtolerance="10"
     objecttolerance="10"
     borderopacity="1"
     bordercolor="#666666"
     pagecolor="#ffffff" /><g
     transform="translate(0,10)"
     id="g38"><g
       id="g8"><path
         inkscape:connector-curvature="0"
         id="path2"
         d="m 63.650024,6.1006141 c 0.08997,0.3699951 0.130005,0.7299805 0.119995,1.0599976 V 11.980618 H 67 V 6.1006141 Z" /><rect
         id="rect4"
         height="3.3099976"
         width="10.190002"
         y="6.1006165"
         x="30.200012" /><path
         inkscape:connector-curvature="0"
         id="path6"
         d="m 58.049988,4.0906043 -0.630005,-0.02002 -0.529968,1.0200195 -1.910035,0.02002 -0.190002,0.75 c 0,0 -0.01996,0.089966 -0.07996,0.2399902 H 42.390015 v 5.309997 H 28.200012 V 5.4206214 H 17.190002 L 16.700012,4.2906165 H 12.25 L 11.919983,5.5005774 H 10.76001 L 9.5900269,6.4505897 C 9.1199952,6.8305946 5.0599976,10.170621 4.8800049,13.180631 4.7700195,13.580594 4.2000122,15.230619 2.2000122,15.230619 h -1 v 3.169983 l 0.6799927,0.229981 c 0.9799805,0.320007 3.9199829,1.570007 4.6400146,3.040039 0.1599731,0.329956 0.1799927,0.640015 0.070007,0.940002 L 1,37.350613 v 7.399963 h 16.22998 l 0.200013,-0.73999 c 1.299987,-4.829956 3.600036,-12.899962 4.25,-13.959959 l 0.150024,-0.23999 v -2.400025 h 5.440002 c 3.959961,0 7.869996,-2.51001 9.239991,-6.770019 0,-0.01996 0.01001,-0.03998 0.02002,-0.04999 0.179993,-0.599976 0.309998,-1.229981 0.379944,-1.869995 H 56.969972 V 17.890591 H 61.77002 V 7.1206336 C 61.789978,6.1106238 61.039978,4.1706214 58.049988,4.0906043 Z M 5.1300049,41.6506 c -0.7800293,0 -1.4100342,-0.640014 -1.4100342,-1.429992 0,-0.78003 0.6300049,-1.409973 1.4100342,-1.409973 0.789978,0 1.4299927,0.629943 1.4299927,1.409973 0,0.789978 -0.6400147,1.429992 -1.4299927,1.429992 z M 10.229981,27.070585 c -0.7799688,0 -1.4199834,-0.639953 -1.4199834,-1.429992 0,-0.779969 0.6400146,-1.409973 1.4199834,-1.409973 0.790039,0 1.429992,0.630004 1.429992,1.409973 0,0.790039 -0.639953,1.429992 -1.429992,1.429992 z M 13.950012,41.6506 c -0.780029,0 -1.419983,-0.640014 -1.419983,-1.429992 0,-0.78003 0.639954,-1.409973 1.419983,-1.409973 0.779969,0 1.419983,0.629943 1.419983,1.409973 0,0.789978 -0.640014,1.429992 -1.419983,1.429992 z m 3.359986,-13.739988 c -0.789978,0 -1.419983,-0.640015 -1.419983,-1.419983 0,-0.780029 0.630005,-1.420044 1.419983,-1.420044 0.780029,0 1.419982,0.640015 1.419982,1.420044 0,0.779968 -0.639953,1.419983 -1.419982,1.419983 z m 4.059997,-10.280029 h -9.200012 v -2.000001 h 9.200012 z m 0,-2.989991 h -9.200012 v -2 h 9.200012 z m 0,-2.979981 H 12.169983 V 9.6606112 h 9.200012 z m 13.220032,8.419984 c -0.01001,0.01001 -0.01001,0.02002 -0.01001,0.03003 -1.040039,3.130005 -3.970032,5.289978 -7.309998,5.289978 h -5.440002 v -2.770019 c 0,-2.159973 1.75,-3.919983 3.909973,-3.919983 l 0.573792,6.1e-4 c 0.01227,2.299134 1.884704,4.166443 4.186706,4.166443 v -2 c -1.19873,0 -2.173157,-0.968628 -2.186523,-2.164245 l 6.57605,0.0072 c -0.03003,0.190002 -0.100037,0.710022 -0.299988,1.359986 z" /></g><g
       id="g12"><path
         inkscape:connector-curvature="0"
         id="path10"
         d="m 46.679993,27.500578 v 2.030029 c 5.97998,1.200012 10.700012,5.919981 11.900024,11.900023 h 2.029968 C 59.369995,34.350613 53.770019,28.750578 46.679993,27.500578 Z M 26.75,41.43063 h 2.030029 C 29.97998,35.450588 34.700012,30.730619 40.679993,29.530607 V 27.500578 C 33.590027,28.750578 27.98999,34.350613 26.75,41.43063 Z m 31.830017,6 c -1.200012,5.97998 -5.920044,10.690002 -11.900024,11.889953 v 2.03003 C 53.76001,60.110622 59.359985,54.510586 60.609985,47.43063 Z m -29.799988,0 H 26.75 c 1.23999,7.079956 6.840027,12.679992 13.929993,13.919983 v -2.03003 C 34.700012,58.120632 29.97998,53.41061 28.780029,47.43063 Z" /></g><g
       id="g16"><path
         inkscape:connector-curvature="0"
         id="path14"
         d="m 43.677734,55.623745 c -6.174316,0 -11.197754,-5.023438 -11.197754,-11.197266 0,-6.173828 5.023438,-11.197265 11.197754,-11.197265 6.173828,0 11.197266,5.023437 11.197266,11.197265 0,6.173828 -5.023438,11.197266 -11.197266,11.197266 z m 0,-20.394531 c -5.071289,0 -9.197754,4.125976 -9.197754,9.197265 0,5.071289 4.126465,9.197266 9.197754,9.197266 5.071289,0 9.197266,-4.125977 9.197266,-9.197266 0,-5.071289 -4.125977,-9.197265 -9.197266,-9.197265 z" /></g><g
       id="g20"><path
         inkscape:connector-curvature="0"
         id="path18"
         d="m 48.880005,44.43063 c 0,2.859985 -2.340027,5.190002 -5.200012,5.190002 -2.869995,0 -5.200013,-2.330017 -5.200013,-5.190002 0,-2.869995 2.330018,-5.200013 5.200013,-5.200013 2.859985,0 5.200012,2.330018 5.200012,5.200013 z" /></g><g
       id="g24"><rect
         id="rect22"
         height="6.6113281"
         width="2"
         y="24.923553"
         x="42.677734" /></g><g
       id="g28"><rect
         id="rect26"
         height="6.6103516"
         width="2"
         y="57.319061"
         x="42.677734" /></g><g
       id="g32"><rect
         id="rect30"
         height="2"
         width="6.6108398"
         y="43.426483"
         x="24.174805" /></g><g
       id="g36"><rect
         id="rect34"
         height="2"
         width="6.6113281"
         y="43.426483"
         x="56.569336" /></g></g></svg>
