<?xml version="1.0" encoding="UTF-8" standalone="no"?>
<svg
   xmlns:dc="http://purl.org/dc/elements/1.1/"
   xmlns:cc="http://creativecommons.org/ns#"
   xmlns:rdf="http://www.w3.org/1999/02/22-rdf-syntax-ns#"
   xmlns:svg="http://www.w3.org/2000/svg"
   xmlns="http://www.w3.org/2000/svg"
   xmlns:sodipodi="http://sodipodi.sourceforge.net/DTD/sodipodi-0.dtd"
   xmlns:inkscape="http://www.inkscape.org/namespaces/inkscape"
   inkscape:version="1.0rc1 (09960d6f05, 2020-04-09)"
   sodipodi:docname="noun_Virgin Mary_166953.svg"
   id="svg14"
   xml:space="preserve"
   enable-background="new 0 0 5 5"
   viewBox="0 0 5 6.25"
   y="0px"
   x="0px"
   version="1.1"><metadata
     id="metadata20"><rdf:RDF><cc:Work
         rdf:about=""><dc:format>image/svg+xml</dc:format><dc:type
           rdf:resource="http://purl.org/dc/dcmitype/StillImage" /><dc:title></dc:title></cc:Work></rdf:RDF></metadata><defs
     id="defs18" /><sodipodi:namedview
     inkscape:current-layer="svg14"
     inkscape:window-maximized="1"
     inkscape:window-y="-8"
     inkscape:window-x="-8"
     inkscape:cy="3.2755006"
     inkscape:cx="4.2289054"
     inkscape:zoom="56.115994"
     showgrid="false"
     id="namedview16"
     inkscape:window-height="988"
     inkscape:window-width="1680"
     inkscape:pageshadow="2"
     inkscape:pageopacity="0"
     guidetolerance="10"
     gridtolerance="10"
     objecttolerance="10"
     borderopacity="1"
     bordercolor="#666666"
     pagecolor="#ffffff" /><g
     transform="matrix(1.212275,0,0,1.212275,-0.53413239,-6.3682495e-4)"
     id="g6"><path
       inkscape:connector-curvature="0"
       id="path2"
       d="M 3.199,4.287 C 3.199,4.014 2.944,3.941 2.852,3.939 2.799,3.939 2.655,3.94 2.569,4.056 V 3.821 H 2.744 V 3.727 3.705 H 2.564 V 3.589 H 2.45 V 3.705 H 2.269 V 3.723 3.822 H 2.444 V 4.057 C 2.358,3.94 2.213,3.939 2.162,3.939 2.07,3.941 1.815,4.014 1.815,4.287 1.815,4.69 2.507,5 2.507,5 c 0,0 0.692,-0.31 0.692,-0.713 z"
       fill="none" /><path
       inkscape:connector-curvature="0"
       id="path4"
       d="m 1.815,4.287 c 0,-0.273 0.255,-0.346 0.347,-0.348 0.051,0 0.197,10e-4 0.282,0.117 V 3.821 H 2.269 V 3.723 3.705 H 2.45 V 3.589 h 0.114 v 0.116 h 0.18 V 3.726 3.821 H 2.569 V 4.056 C 2.655,3.94 2.8,3.939 2.853,3.939 2.944,3.941 3.2,4.013 3.2,4.287 3.199,4.69 2.507,5 2.507,5 H 4.531 C 4.32,4.298 3.865,3.736 3.293,3.463 3.439,3.338 3.557,3.18 3.631,2.997 3.692,2.852 3.723,2.695 3.723,2.529 3.723,2.299 3.661,2.083 3.551,1.9 3.34,1.546 2.956,1.31 2.517,1.31 1.85,1.31 1.31,1.856 1.31,2.53 c 0,0.344 0.142,0.655 0.368,0.876 L 1.675,3.417 C 1.69,3.431 1.705,3.443 1.72,3.457 1.586,3.519 1.458,3.597 1.339,3.688 0.941,3.996 0.633,4.456 0.469,5 h 2.038 c 0,0 -0.692,-0.31 -0.692,-0.713 z" /></g><path
     style="stroke-width:1.21228"
     inkscape:connector-curvature="0"
     id="path8"
     d="m 2.5171637,0.82977154 c 0.934664,0 1.7881057,0.49582046 2.023287,2.58820706 0.0097,-0.020609 0.020609,-0.041218 0.032732,-0.060613 C 4.7210796,3.0482348 4.8047266,2.7015241 4.8047266,2.3354171 4.8047266,1.0673774 3.8045997,0.03573142 2.5559566,0.003 H 2.434729 C 1.2006331,0.03451914 0.20535535,1.047981 0.18838349,2.3014734 0.19686942,2.7027364 0.3047619,3.0809662 0.49023997,3.4094927 0.7217845,1.4637913 1.5958348,0.82977154 2.5171637,0.82977154 Z" /></svg>
