<?xml version="1.0" encoding="UTF-8" standalone="no"?>
<svg
   xmlns:dc="http://purl.org/dc/elements/1.1/"
   xmlns:cc="http://creativecommons.org/ns#"
   xmlns:rdf="http://www.w3.org/1999/02/22-rdf-syntax-ns#"
   xmlns:svg="http://www.w3.org/2000/svg"
   xmlns="http://www.w3.org/2000/svg"
   xmlns:sodipodi="http://sodipodi.sourceforge.net/DTD/sodipodi-0.dtd"
   xmlns:inkscape="http://www.inkscape.org/namespaces/inkscape"
   inkscape:version="1.0rc1 (09960d6f05, 2020-04-09)"
   sodipodi:docname="noun_Refrigerator_130857.svg"
   id="svg8"
   xml:space="preserve"
   enable-background="new 0 0 100 100"
   viewBox="0 0 100 125"
   y="0px"
   x="0px"
   version="1.0"><metadata
     id="metadata14"><rdf:RDF><cc:Work
         rdf:about=""><dc:format>image/svg+xml</dc:format><dc:type
           rdf:resource="http://purl.org/dc/dcmitype/StillImage" /></cc:Work></rdf:RDF></metadata><defs
     id="defs12" /><sodipodi:namedview
     inkscape:current-layer="svg8"
     inkscape:window-maximized="1"
     inkscape:window-y="-8"
     inkscape:window-x="-8"
     inkscape:cy="62.5"
     inkscape:cx="50"
     inkscape:zoom="1.984"
     showgrid="false"
     id="namedview10"
     inkscape:window-height="988"
     inkscape:window-width="1680"
     inkscape:pageshadow="2"
     inkscape:pageopacity="0"
     guidetolerance="10"
     gridtolerance="10"
     objecttolerance="10"
     borderopacity="1"
     bordercolor="#666666"
     pagecolor="#ffffff" /><path
     style="stroke-width:1.38392"
     inkscape:connector-curvature="0"
     id="path2"
     d="m 7.1638598,1.2021789 v 11.0097641 102.728627 9.80925 h 9.8109962 66.20478 9.811001 V 114.94057 12.211943 1.2021789 Z M 81.653395,66.251949 H 69.220877 L 79.367681,76.398752 74.94558,80.819121 60.379802,66.251949 h -6.104264 v 6.312974 L 68.84132,87.132096 64.422339,91.551069 54.275538,81.405999 V 95.723831 H 48.025417 V 81.404267 L 37.878615,91.551069 33.456509,87.132096 48.025417,72.564923 V 66.251949 H 41.504082 L 26.938652,80.819121 22.516198,76.398752 32.663007,66.251949 H 18.494149 V 60.000097 H 32.663007 L 22.516198,49.85329 l 4.422454,-4.418627 14.56543,14.565434 h 6.521336 V 53.687122 L 33.456509,39.121688 37.878615,34.701323 48.025417,44.847779 V 31.426938 h 6.250121 V 44.847779 L 64.422339,34.701323 68.84132,39.121688 54.275538,53.687123 v 6.312974 h 6.104264 L 74.94558,45.434663 79.367681,49.85329 69.220877,60.000097 h 12.432518 z" /></svg>
