<?xml version="1.0" encoding="UTF-8" standalone="no"?>
<svg
   xmlns:dc="http://purl.org/dc/elements/1.1/"
   xmlns:cc="http://creativecommons.org/ns#"
   xmlns:rdf="http://www.w3.org/1999/02/22-rdf-syntax-ns#"
   xmlns:svg="http://www.w3.org/2000/svg"
   xmlns="http://www.w3.org/2000/svg"
   xmlns:sodipodi="http://sodipodi.sourceforge.net/DTD/sodipodi-0.dtd"
   xmlns:inkscape="http://www.inkscape.org/namespaces/inkscape"
   inkscape:version="1.0rc1 (09960d6f05, 2020-04-09)"
   sodipodi:docname="noun_synagogue_2061081.svg"
   id="svg20"
   xml:space="preserve"
   viewBox="0 0 25 31.25"
   y="0px"
   x="0px"
   version="1.2"><metadata
     id="metadata26"><rdf:RDF><cc:Work
         rdf:about=""><dc:format>image/svg+xml</dc:format><dc:type
           rdf:resource="http://purl.org/dc/dcmitype/StillImage" /></cc:Work></rdf:RDF></metadata><defs
     id="defs24" /><sodipodi:namedview
     inkscape:current-layer="svg20"
     inkscape:window-maximized="1"
     inkscape:window-y="-8"
     inkscape:window-x="-8"
     inkscape:cy="15.625"
     inkscape:cx="12.5"
     inkscape:zoom="7.936"
     showgrid="false"
     id="namedview22"
     inkscape:window-height="988"
     inkscape:window-width="1680"
     inkscape:pageshadow="2"
     inkscape:pageopacity="0"
     guidetolerance="10"
     gridtolerance="10"
     objecttolerance="10"
     borderopacity="1"
     bordercolor="#666666"
     pagecolor="#ffffff" /><path
     style="stroke-width:1.28802"
     inkscape:connector-curvature="0"
     id="path2"
     d="m 12.056296,11.982052 c 0.114634,0.199644 0.327158,0.322006 0.557714,0.322006 0.230557,0 0.443081,-0.122362 0.557715,-0.322006 l 0.557715,-0.966019 h 1.11543 c 0.230556,0 0.443081,-0.122362 0.557715,-0.322006 0.115922,-0.199644 0.115922,-0.445657 0,-0.644013 L 14.843582,9.0839951 15.402585,8.1179762 c 0.115922,-0.1996439 0.115922,-0.4456568 0,-0.6440127 C 15.287951,7.2743196 15.075426,7.1519572 14.84487,7.1519572 h -1.11543 l -0.559003,-0.966019 c -0.229268,-0.3992879 -0.886161,-0.3992879 -1.114141,0 l -0.557716,0.966019 h -1.11543 c -0.230556,0 -0.4430805,0.1223624 -0.5577148,0.3220063 -0.1159223,0.1996439 -0.1159223,0.4456568 0,0.6440127 L 10.384438,9.0839951 9.8254352,10.050014 c -0.1159223,0.199644 -0.1159223,0.445657 0,0.644013 0.1146343,0.199644 0.3271588,0.322006 0.5577148,0.322006 h 1.11543 z M 11.684056,8.7619888 11.49858,8.4399825 h 0.37224 c 0.230556,0 0.44308,-0.1223625 0.557714,-0.3220063 l 0.185476,-0.3220064 0.186764,0.3220064 c 0.113346,0.1996438 0.32587,0.3220063 0.556427,0.3220063 h 0.372239 l -0.186763,0.3220063 c -0.115922,0.1996439 -0.115922,0.4456567 0,0.6453007 l 0.186763,0.3207183 h -0.372239 c -0.230557,0 -0.443081,0.1223624 -0.557715,0.3220062 L 12.61401,10.37202 12.427246,10.050014 C 12.3139,9.8503702 12.101376,9.7280078 11.87082,9.7280078 h -0.37224 l 0.186764,-0.3220063 c 0.114634,-0.199644 0.114634,-0.4443688 -0.0012,-0.6440127 z" /><path
     style="stroke-width:1.28802"
     inkscape:connector-curvature="0"
     id="path4"
     d="M 1.0217824,29.048387 H 24.206238 c 0.355494,0 0.644012,-0.288517 0.644012,-0.644013 0,-0.355495 -0.288518,-0.644013 -0.644012,-0.644013 H 22.2742 V 7.1519572 c 0,-0.2434368 -0.13782,-0.4662652 -0.355496,-0.5757473 L 12.902528,2.0681213 c -0.181612,-0.090162 -0.395424,-0.090162 -0.575748,0 L 3.3106033,6.5762099 C 3.0916391,6.685692 2.9538204,6.9085204 2.9538204,7.1519572 V 27.760361 h -1.932038 c -0.35549499,0 -0.64401265,0.288518 -0.64401265,0.644013 0,0.355496 0.28851766,0.644013 0.64401265,0.644013 z M 4.2418456,7.549957 12.61401,3.3638748 20.986175,7.549957 v 17.634354 h -6.440127 v -3.220063 c 0,-1.065197 -0.866841,-1.932037 -1.932038,-1.932037 -1.065197,0 -1.932038,0.86684 -1.932038,1.932037 v 3.220063 H 4.2418456 Z m 9.0161774,14.414291 v 3.220063 h -1.288025 v -3.220063 c 0,-0.355495 0.289806,-0.644012 0.644012,-0.644012 0.354207,0 0.644013,0.288517 0.644013,0.644012 z M 4.2418456,26.472336 H 20.986175 v 1.288025 H 4.2418456 Z" /><path
     style="stroke-width:1.28802"
     inkscape:connector-curvature="0"
     id="path6"
     d="M 8.7499341,20.032211 H 6.1738836 c -0.3554951,0 -0.6440127,0.288516 -0.6440127,0.644012 v 2.57605 c 0,0.355495 0.2885176,0.644013 0.6440127,0.644013 h 2.5760505 c 0.3554951,0 0.6440127,-0.288518 0.6440127,-0.644013 v -2.57605 c 0,-0.355496 -0.2885176,-0.644012 -0.6440127,-0.644012 z m -0.6440125,2.57605 H 6.8178962 v -1.288025 h 1.2880254 z" /><path
     style="stroke-width:1.28802"
     inkscape:connector-curvature="0"
     id="path8"
     d="m 16.478086,23.896286 h 2.57605 c 0.355496,0 0.644014,-0.288518 0.644014,-0.644013 v -2.57605 c 0,-0.355496 -0.288518,-0.644012 -0.644014,-0.644012 h -2.57605 c -0.355495,0 -0.644013,0.288516 -0.644013,0.644012 v 2.57605 c 0,0.355495 0.288518,0.644013 0.644013,0.644013 z m 0.644012,-2.57605 h 1.288025 v 1.288025 h -1.288025 z" /><path
     style="stroke-width:1.28802"
     inkscape:connector-curvature="0"
     id="path10"
     d="M 8.7499341,14.880109 H 6.1738836 c -0.3554951,0 -0.6440127,0.288518 -0.6440127,0.644012 v 2.576051 c 0,0.355495 0.2885176,0.644013 0.6440127,0.644013 h 2.5760505 c 0.3554951,0 0.6440127,-0.288518 0.6440127,-0.644013 v -2.576051 c 0,-0.355494 -0.2885176,-0.644012 -0.6440127,-0.644012 z m -0.6440125,2.57605 H 6.8178962 v -1.288025 h 1.2880254 z" /><path
     style="stroke-width:1.28802"
     inkscape:connector-curvature="0"
     id="path12"
     d="m 13.902035,14.880109 h -2.57605 c -0.355495,0 -0.644013,0.288518 -0.644013,0.644012 v 2.576051 c 0,0.355495 0.288518,0.644013 0.644013,0.644013 h 2.57605 c 0.355495,0 0.644013,-0.288518 0.644013,-0.644013 v -2.576051 c 0,-0.355494 -0.288518,-0.644012 -0.644013,-0.644012 z m -0.644012,2.57605 h -1.288025 v -1.288025 h 1.288025 z" /><path
     style="stroke-width:1.28802"
     inkscape:connector-curvature="0"
     id="path14"
     d="m 16.478086,18.744185 h 2.57605 c 0.355496,0 0.644014,-0.288518 0.644014,-0.644013 v -2.576051 c 0,-0.355494 -0.288518,-0.644012 -0.644014,-0.644012 h -2.57605 c -0.355495,0 -0.644013,0.288518 -0.644013,0.644012 v 2.576051 c 0,0.355495 0.288518,0.644013 0.644013,0.644013 z m 0.644012,-2.576051 h 1.288025 v 1.288025 h -1.288025 z" /></svg>
