<?xml version="1.0" encoding="UTF-8" standalone="no"?>
<svg
   xmlns:dc="http://purl.org/dc/elements/1.1/"
   xmlns:cc="http://creativecommons.org/ns#"
   xmlns:rdf="http://www.w3.org/1999/02/22-rdf-syntax-ns#"
   xmlns:svg="http://www.w3.org/2000/svg"
   xmlns="http://www.w3.org/2000/svg"
   xmlns:sodipodi="http://sodipodi.sourceforge.net/DTD/sodipodi-0.dtd"
   xmlns:inkscape="http://www.inkscape.org/namespaces/inkscape"
   inkscape:version="1.0rc1 (09960d6f05, 2020-04-09)"
   sodipodi:docname="noun_carpet_1023402.svg"
   id="svg36"
   y="0px"
   x="0px"
   version="1.1"
   viewBox="0 0 38 75">
  <metadata
     id="metadata42">
    <rdf:RDF>
      <cc:Work
         rdf:about="">
        <dc:format>image/svg+xml</dc:format>
        <dc:type
           rdf:resource="http://purl.org/dc/dcmitype/StillImage" />
      </cc:Work>
    </rdf:RDF>
  </metadata>
  <defs
     id="defs40" />
  <sodipodi:namedview
     inkscape:current-layer="svg36"
     inkscape:window-maximized="1"
     inkscape:window-y="-8"
     inkscape:window-x="-8"
     inkscape:cy="37.5"
     inkscape:cx="19"
     inkscape:zoom="3.3066667"
     showgrid="false"
     id="namedview38"
     inkscape:window-height="988"
     inkscape:window-width="1680"
     inkscape:pageshadow="2"
     inkscape:pageopacity="0"
     guidetolerance="10"
     gridtolerance="10"
     objecttolerance="10"
     borderopacity="1"
     bordercolor="#666666"
     pagecolor="#ffffff" />
  <title
     id="title2">37 -Carpet- (Solid)</title>
  <desc
     id="desc4">Created with Sketch.</desc>
  <g
     transform="translate(0,8)"
     id="g30"
     fill-rule="evenodd"
     fill="none"
     stroke-width="1"
     stroke="none">
    <g
       id="g28"
       fill="#000000"
       transform="translate(-851,-690)">
      <g
         id="g26"
         transform="translate(851,690)">
        <path
           inkscape:connector-curvature="0"
           id="path6"
           d="m 34,52 c 0,0.552 -0.447,1 -1,1 H 5 C 4.447,53 4,52.552 4,52 V 8 C 4,7.448 4.447,7 5,7 h 28 c 0.553,0 1,0.448 1,1 z M 37,0 C 36.447,0 36,0.448 36,1 V 3 H 34 V 1 C 34,0.448 33.553,0 33,0 32.447,0 32,0.448 32,1 V 3 H 30 V 1 C 30,0.448 29.553,0 29,0 28.447,0 28,0.448 28,1 V 3 H 26 V 1 C 26,0.448 25.553,0 25,0 24.447,0 24,0.448 24,1 V 3 H 22 V 1 C 22,0.448 21.553,0 21,0 20.447,0 20,0.448 20,1 V 3 H 18 V 1 C 18,0.448 17.553,0 17,0 16.447,0 16,0.448 16,1 V 3 H 14 V 1 C 14,0.448 13.553,0 13,0 12.447,0 12,0.448 12,1 V 3 H 10 V 1 C 10,0.448 9.553,0 9,0 8.447,0 8,0.448 8,1 V 3 H 6 V 1 C 6,0.448 5.553,0 5,0 4.447,0 4,0.448 4,1 V 3 H 2 V 1 C 2,0.448 1.553,0 1,0 0.447,0 0,0.448 0,1 v 3 52 3 c 0,0.552 0.447,1 1,1 0.553,0 1,-0.448 1,-1 v -2 h 2 v 2 c 0,0.552 0.447,1 1,1 0.553,0 1,-0.448 1,-1 v -2 h 2 v 2 c 0,0.552 0.447,1 1,1 0.553,0 1,-0.448 1,-1 v -2 h 2 v 2 c 0,0.552 0.447,1 1,1 0.553,0 1,-0.448 1,-1 v -2 h 2 v 2 c 0,0.552 0.447,1 1,1 0.553,0 1,-0.448 1,-1 v -2 h 2 v 2 c 0,0.552 0.447,1 1,1 0.553,0 1,-0.448 1,-1 v -2 h 2 v 2 c 0,0.552 0.447,1 1,1 0.553,0 1,-0.448 1,-1 v -2 h 2 v 2 c 0,0.552 0.447,1 1,1 0.553,0 1,-0.448 1,-1 v -2 h 2 v 2 c 0,0.552 0.447,1 1,1 0.553,0 1,-0.448 1,-1 v -2 h 2 v 2 c 0,0.552 0.447,1 1,1 0.553,0 1,-0.448 1,-1 V 56 4 1 C 38,0.448 37.553,0 37,0 Z" />
        <path
           inkscape:connector-curvature="0"
           id="path8"
           d="m 23.707,20.707 -4,4 C 19.512,24.902 19.256,25 19,25 18.744,25 18.488,24.902 18.293,24.707 l -4,-4 c -0.391,-0.391 -0.391,-1.023 0,-1.414 l 4,-4 c 0.391,-0.391 1.023,-0.391 1.414,0 l 4,4 c 0.391,0.391 0.391,1.023 0,1.414 z m 0,20 -4,4 C 19.512,44.902 19.256,45 19,45 18.744,45 18.488,44.902 18.293,44.707 l -4,-4 c -0.391,-0.391 -0.391,-1.023 0,-1.414 l 4,-4 c 0.391,-0.391 1.023,-0.391 1.414,0 l 4,4 c 0.391,0.391 0.391,1.023 0,1.414 z m 6,-29.414 c 0.391,0.391 0.391,1.023 0,1.414 l -4,4 C 25.512,16.902 25.256,17 25,17 24.744,17 24.488,16.902 24.293,16.707 l -4,-4 c -0.391,-0.391 -0.391,-1.023 0,-1.414 L 22.586,9 h -7.172 l 2.293,2.293 c 0.391,0.391 0.391,1.023 0,1.414 l -4,4 C 13.512,16.902 13.256,17 13,17 12.744,17 12.488,16.902 12.293,16.707 l -4,-4 c -0.391,-0.391 -0.391,-1.023 0,-1.414 L 10.586,9 H 6 v 18.586 l 2.293,-2.293 c 0.391,-0.391 1.023,-0.391 1.414,0 l 4,4 c 0.391,0.391 0.391,1.023 0,1.414 l -4,4 C 9.512,34.902 9.256,35 9,35 8.744,35 8.488,34.902 8.293,34.707 L 6,32.414 V 51 h 4.586 L 8.293,48.707 c -0.391,-0.391 -0.391,-1.023 0,-1.414 l 4,-4 c 0.391,-0.391 1.023,-0.391 1.414,0 l 4,4 c 0.391,0.391 0.391,1.023 0,1.414 L 15.414,51 h 7.172 l -2.293,-2.293 c -0.391,-0.391 -0.391,-1.023 0,-1.414 l 4,-4 c 0.391,-0.391 1.023,-0.391 1.414,0 l 4,4 c 0.391,0.391 0.391,1.023 0,1.414 L 27.414,51 H 32 V 32.414 l -2.293,2.293 C 29.512,34.902 29.256,35 29,35 28.744,35 28.488,34.902 28.293,34.707 l -4,-4 c -0.391,-0.391 -0.391,-1.023 0,-1.414 l 4,-4 c 0.391,-0.391 1.023,-0.391 1.414,0 L 32,27.586 V 9 h -4.586 z" />
        <polygon
           id="polygon10"
           points="25,45.4141 22.414,48.0001 25,50.5861 27.586,48.0001 " />
        <polygon
           id="polygon12"
           points="13,45.4141 10.414,48.0001 13,50.5861 15.586,48.0001 " />
        <polygon
           id="polygon14"
           points="16.4141,40 19.0001,42.586 21.5861,40 19.0001,37.414 " />
        <polygon
           id="polygon16"
           points="16.4141,20 19.0001,22.586 21.5861,20 19.0001,17.414 " />
        <polygon
           id="polygon18"
           points="25,14.5859 27.586,11.9999 25,9.4139 22.414,11.9999 " />
        <polygon
           id="polygon20"
           points="26.4141,30 29.0001,32.586 31.5861,30 29.0001,27.414 " />
        <polygon
           id="polygon22"
           points="11.5859,30 8.9999,27.414 6.4139,30 8.9999,32.586 " />
        <polygon
           id="polygon24"
           points="13,14.5859 15.586,11.9999 13,9.4139 10.414,11.9999 " />
      </g>
    </g>
  </g>
</svg>
