<?xml version="1.0" encoding="UTF-8" standalone="no"?>
<svg
   xmlns:dc="http://purl.org/dc/elements/1.1/"
   xmlns:cc="http://creativecommons.org/ns#"
   xmlns:rdf="http://www.w3.org/1999/02/22-rdf-syntax-ns#"
   xmlns:svg="http://www.w3.org/2000/svg"
   xmlns="http://www.w3.org/2000/svg"
   xmlns:sodipodi="http://sodipodi.sourceforge.net/DTD/sodipodi-0.dtd"
   xmlns:inkscape="http://www.inkscape.org/namespaces/inkscape"
   inkscape:version="1.0rc1 (09960d6f05, 2020-04-09)"
   sodipodi:docname="noun_Tennis_1922615.svg"
   id="svg12"
   xml:space="preserve"
   enable-background="new 0 0 512 512"
   viewBox="0 0 512 640"
   y="0px"
   x="0px"
   version="1.1"><metadata
     id="metadata18"><rdf:RDF><cc:Work
         rdf:about=""><dc:format>image/svg+xml</dc:format><dc:type
           rdf:resource="http://purl.org/dc/dcmitype/StillImage" /></cc:Work></rdf:RDF></metadata><defs
     id="defs16" /><sodipodi:namedview
     inkscape:current-layer="svg12"
     inkscape:window-maximized="1"
     inkscape:window-y="-8"
     inkscape:window-x="-8"
     inkscape:cy="158.0031"
     inkscape:cx="-283.33525"
     inkscape:zoom="0.27400388"
     showgrid="false"
     id="namedview14"
     inkscape:window-height="988"
     inkscape:window-width="1680"
     inkscape:pageshadow="2"
     inkscape:pageopacity="0"
     guidetolerance="10"
     gridtolerance="10"
     objecttolerance="10"
     borderopacity="1"
     bordercolor="#666666"
     pagecolor="#ffffff" /><g
     transform="translate(0,60)"
     id="g6"><path
       inkscape:connector-curvature="0"
       id="path2"
       d="M 437.023,74.98 C 385.479,23.436 317.42,-1.548 249.876,0.077 l 104.323,104.278 v 0 c 68.528,69.029 68.403,180.549 -0.438,249.39 -68.84,68.841 -180.382,68.997 -249.378,0.405 v 0.031 L 0.075,249.88 c -1.593,67.521 23.374,135.613 74.903,187.143 99.964,99.966 262.097,99.966 362.045,0 99.964,-99.997 99.964,-262.077 0,-362.043 z" /><path
       inkscape:connector-curvature="0"
       id="path4"
       d="m 132.038,326.308 c 25.938,25.813 60.403,39.967 97.026,39.938 36.592,-0.063 71.044,-14.344 96.918,-40.248 25.904,-25.874 40.186,-60.318 40.248,-96.927 0.062,-36.608 -14.094,-71.091 -39.904,-97.027 L 324.857,130.575 200.379,6.077 C 154.412,16.233 110.727,39.201 74.979,74.981 39.261,110.729 16.262,154.384 6.107,200.367 l 124.556,124.597 z" /></g></svg>
