<?xml version="1.0" encoding="UTF-8" standalone="no"?>
<svg
   xmlns:dc="http://purl.org/dc/elements/1.1/"
   xmlns:cc="http://creativecommons.org/ns#"
   xmlns:rdf="http://www.w3.org/1999/02/22-rdf-syntax-ns#"
   xmlns:svg="http://www.w3.org/2000/svg"
   xmlns="http://www.w3.org/2000/svg"
   xmlns:sodipodi="http://sodipodi.sourceforge.net/DTD/sodipodi-0.dtd"
   xmlns:inkscape="http://www.inkscape.org/namespaces/inkscape"
   inkscape:version="1.0rc1 (09960d6f05, 2020-04-09)"
   sodipodi:docname="noun_bmx_1978.svg"
   id="svg10"
   xml:space="preserve"
   enable-background="new -2.341 -0.166 100 95.143"
   viewBox="-2.341 -0.166 100 118.92875000000001"
   y="0px"
   x="0px"
   version="1.1"><metadata
     id="metadata16"><rdf:RDF><cc:Work
         rdf:about=""><dc:format>image/svg+xml</dc:format><dc:type
           rdf:resource="http://purl.org/dc/dcmitype/StillImage" /></cc:Work></rdf:RDF></metadata><defs
     id="defs14" /><sodipodi:namedview
     inkscape:current-layer="svg10"
     inkscape:window-maximized="1"
     inkscape:window-y="-8"
     inkscape:window-x="-8"
     inkscape:cy="59.464375"
     inkscape:cx="50"
     inkscape:zoom="2.0852822"
     showgrid="false"
     id="namedview12"
     inkscape:window-height="988"
     inkscape:window-width="1680"
     inkscape:pageshadow="2"
     inkscape:pageopacity="0"
     guidetolerance="10"
     gridtolerance="10"
     objecttolerance="10"
     borderopacity="1"
     bordercolor="#666666"
     pagecolor="#ffffff" /><path
     inkscape:connector-curvature="0"
     id="path2"
     d="m -1.698,80.828 c 2.469,8.418 11.29,13.245 19.72,10.774 8.417,-2.468 13.239,-11.296 10.769,-19.713 -1.008,-3.453 -3.114,-6.29 -5.804,-8.288 l 1.751,-3.367 17.467,16.429 c -1.396,3.442 0.223,7.379 3.655,8.824 0.653,0.273 1.316,0.44 1.988,0.504 l 8.829,2.214 c -0.107,1.759 0.073,3.566 0.6,5.356 2.47,8.419 11.293,13.239 19.718,10.768 C 85.408,101.868 90.233,93.035 87.769,84.625 85.301,76.2 76.476,71.378 68.054,73.841 67.805,73.913 67.57,74.017 67.327,74.1 67.313,73.682 67.264,73.281 67.196,72.898 67.01,71.987 66.41,69.141 65.778,66.128 l 10.729,2.047 0.282,0.057 c 0.742,0.134 1.462,-0.345 1.597,-1.087 0.127,-0.642 -0.222,-1.263 -0.809,-1.505 L 65.166,60.38 64.61,60.141 c -0.04,-0.017 -0.082,-0.024 -0.123,-0.039 -0.112,-0.504 -0.208,-0.971 -0.291,-1.365 0.111,0.023 0.219,0.051 0.317,0.093 l 18.401,6.732 C 92.888,69.591 106.91,56.895 89.157,38.42 82.977,31.993 75.759,24.959 75.759,24.959 73.187,23.32 63.738,28.112 59.651,30.084 c -2.606,0.917 -4.22,4.032 -9.869,4.032 -3.925,0 -12.359,-0.183 -17.607,-0.29 l -4.709,-0.2 c -0.838,-0.037 -1.546,0.618 -1.585,1.459 0,0 0,9.477 0,13.28 0,2.123 0.823,2.824 1.486,3.386 0.719,0.604 2.819,2.364 3.574,2.936 0.743,0.56 1.8,0.419 2.358,-0.324 0.517,-0.683 0.444,-1.635 -0.153,-2.218 -0.67,-0.665 -1.365,-1.291 -2.053,-1.93 -0.222,-0.209 -0.453,-0.414 -0.681,-0.619 1.408,-1.501 2.79,-3.021 4.152,-4.562 0.021,-0.004 0.032,-0.004 0.039,-0.004 1.248,0.823 3.051,1.352 5.385,0.797 2.977,-0.714 14.333,-3.224 19.081,-4.423 2.206,-0.555 4.297,-1.755 6.097,-2.745 2.062,2.646 4.53,5.216 7.099,6.569 0.777,0.409 6.055,4.528 7.29,4.893 1.456,0.42 1.571,0.338 1.404,1.259 -0.221,1.159 -0.197,1.124 -2.026,0.536 L 58.665,43.798 c -1.989,-0.687 -4.016,0.425 -4.511,2.471 l -5.447,26.179 c -1.04,-0.033 -2.057,0.176 -2.994,0.592 L 25.763,54.267 c -1.015,-0.96 -2.617,-0.913 -3.569,0.107 -0.144,0.149 -0.251,0.311 -0.349,0.48 -0.019,0.027 -0.043,0.056 -0.058,0.09 l -3.274,6.33 C 15.554,60.299 12.29,60.171 9.075,61.113 0.668,63.587 -4.162,72.411 -1.698,80.828 Z M 43.516,39.466 c -8.035,1.842 -11.083,2.887 -14.109,5.935 l -0.132,-8.573 c 1.208,1.267 2.826,2.443 4.238,2.443 1.549,0 5.674,0.095 10.003,0.195 z m 18.205,37.998 c -0.39,0.359 -0.751,0.726 -1.094,1.11 L 54.65,75.041 c 0.297,-0.479 0.517,-0.968 0.675,-1.456 0.429,-1.263 1.676,-5.537 2.622,-8.791 z m -1.329,11.671 11.503,2.884 0.004,-0.023 c 1.376,0.296 2.805,-0.406 3.374,-1.751 0.558,-1.336 0.066,-2.854 -1.109,-3.638 L 74.18,86.59 63.929,80.521 c 0.085,-0.077 0.169,-0.161 0.253,-0.237 1.347,-1.288 3.014,-2.287 4.929,-2.85 6.432,-1.877 13.179,1.803 15.061,8.236 1.892,6.434 -1.799,13.182 -8.234,15.062 -6.436,1.886 -13.173,-1.791 -15.062,-8.234 -0.337,-1.118 -0.484,-2.243 -0.484,-3.363 z M 10.131,64.712 c 2.243,-0.664 4.531,-0.622 6.626,-0.049 l -5.494,10.624 c -0.646,1.24 -0.161,2.759 1.075,3.397 0.378,0.202 0.77,0.287 1.159,0.287 0.917,0 1.803,-0.494 2.239,-1.364 l 5.507,-10.634 c 1.828,1.497 3.242,3.535 3.962,5.973 1.878,6.436 -1.808,13.175 -8.238,15.06 C 10.529,89.894 3.777,86.208 1.899,79.775 0.012,73.346 3.694,66.6 10.131,64.712 Z" /><path
     inkscape:connector-curvature="0"
     id="path4"
     d="m 52.657,30.049 c -1.179,-0.736 -2.967,-3.226 -2.742,-5.718 1.907,0.27 3.271,0.188 3.271,0.188 l 2.066,-1.277 C 54.886,21.746 54.874,18.761 55.008,16.966 53.977,16.504 53.019,16.08 53.019,16.08 l 0.886,-2.142 c 0,0 -6.296,-0.685 -6.884,-3.484 4.619,1.06 9.096,-0.099 10.771,-0.332 1.672,-0.244 10.557,-1.538 13.394,4.378 1.343,2.786 -1.391,6.848 -1.233,8.483 z" /></svg>
