<?xml version="1.0" encoding="UTF-8" standalone="no"?>
<svg
   xmlns:dc="http://purl.org/dc/elements/1.1/"
   xmlns:cc="http://creativecommons.org/ns#"
   xmlns:rdf="http://www.w3.org/1999/02/22-rdf-syntax-ns#"
   xmlns:svg="http://www.w3.org/2000/svg"
   xmlns="http://www.w3.org/2000/svg"
   xmlns:sodipodi="http://sodipodi.sourceforge.net/DTD/sodipodi-0.dtd"
   xmlns:inkscape="http://www.inkscape.org/namespaces/inkscape"
   inkscape:version="1.0rc1 (09960d6f05, 2020-04-09)"
   sodipodi:docname="noun_Petanque_377122.svg"
   id="svg12"
   xml:space="preserve"
   enable-background="new 0 0 100 100"
   viewBox="0 0 100 125"
   y="0px"
   x="0px"
   version="1.1"><metadata
     id="metadata18"><rdf:RDF><cc:Work
         rdf:about=""><dc:format>image/svg+xml</dc:format><dc:type
           rdf:resource="http://purl.org/dc/dcmitype/StillImage" /></cc:Work></rdf:RDF></metadata><defs
     id="defs16" /><sodipodi:namedview
     inkscape:current-layer="svg12"
     inkscape:window-maximized="1"
     inkscape:window-y="-8"
     inkscape:window-x="-8"
     inkscape:cy="62.5"
     inkscape:cx="50"
     inkscape:zoom="1.984"
     showgrid="false"
     id="namedview14"
     inkscape:window-height="988"
     inkscape:window-width="1680"
     inkscape:pageshadow="2"
     inkscape:pageopacity="0"
     guidetolerance="10"
     gridtolerance="10"
     objecttolerance="10"
     borderopacity="1"
     bordercolor="#666666"
     pagecolor="#ffffff" /><g
     transform="matrix(1.5603129,0,0,1.5603129,-28.224211,-16.701523)"
     id="g6"><path
       inkscape:connector-curvature="0"
       id="path2"
       d="M 69.135,63.019 C 79.376,58.144 83.742,45.846 78.868,35.603 76.51,30.649 72.356,26.907 67.172,25.067 61.988,23.228 56.404,23.514 51.451,25.872 c -3.607,1.717 -6.579,4.41 -8.657,7.798 -0.934,-0.13 -1.879,-0.203 -2.835,-0.203 -7.871,0 -15.157,4.57 -18.563,11.644 -2.381,4.944 -2.692,10.526 -0.875,15.717 1.816,5.192 5.539,9.362 10.482,11.743 2.806,1.351 5.799,2.036 8.896,2.036 7.165,0 13.836,-3.796 17.547,-9.812 0.962,0.136 1.926,0.224 2.886,0.224 3.03,-0.001 6.021,-0.675 8.803,-2 z m 7.747,-26.47 c 2.354,4.948 2.277,10.425 0.278,15.108 C 71.536,50.496 66.727,46.745 64.261,41.561 61.993,36.799 61.897,31.32 63.959,26.471 c 0.833,0.172 1.661,0.381 2.478,0.67 4.629,1.643 8.339,4.984 10.445,9.408 z M 35.58,51.953 c -2.41,5.009 -6.877,8.589 -12.275,9.883 -0.263,-0.562 -0.5,-1.141 -0.708,-1.734 -0.084,-0.239 -0.141,-0.483 -0.215,-0.725 4.368,-1.507 7.943,-4.668 9.978,-8.894 2.05,-4.26 2.275,-9.066 0.689,-13.447 0.846,-0.344 1.718,-0.627 2.612,-0.844 2.353,5.025 2.331,10.751 -0.081,15.761 z M 32.053,37.474 c 0.327,-0.156 0.659,-0.301 0.995,-0.438 -0.336,0.137 -0.668,0.283 -0.995,0.438 z m -8.675,8.591 c 1.829,-3.799 4.917,-6.78 8.614,-8.561 -0.318,0.152 -0.633,0.312 -0.94,0.483 1.304,3.772 1.084,7.886 -0.675,11.542 -1.745,3.625 -4.793,6.346 -8.518,7.689 0.13,0.724 0.305,1.442 0.521,2.154 -1.351,-4.427 -1.019,-9.122 0.998,-13.307 z m 8.58,24.523 c -3.15,-1.517 -5.731,-3.859 -7.55,-6.756 5.779,-1.562 10.543,-5.5 13.154,-10.925 2.615,-5.432 2.721,-11.616 0.333,-17.112 0.682,-0.078 1.369,-0.129 2.063,-0.129 2.764,0 5.436,0.611 7.94,1.818 2.999,1.444 5.413,3.609 7.168,6.179 -5.425,1.699 -9.907,5.554 -12.386,10.699 -2.707,5.62 -2.69,12.215 -0.006,17.825 -0.912,0.141 -1.839,0.219 -2.776,0.219 -2.763,10e-4 -5.435,-0.611 -7.94,-1.818 z m 15.766,0.051 c -0.912,0.43 -1.857,0.789 -2.833,1.066 -2.626,-5.111 -2.719,-11.212 -0.227,-16.388 2.289,-4.752 6.496,-8.263 11.564,-9.695 0.487,0.947 0.893,1.931 1.21,2.945 -4.263,1.288 -7.796,4.277 -9.733,8.301 -2.091,4.344 -2.057,9.434 0.019,13.771 z m 1.934,-1.047 c -1.742,-3.717 -1.757,-8.059 0.029,-11.768 1.653,-3.436 4.655,-5.992 8.281,-7.119 0.689,3.707 0.271,7.652 -1.487,11.303 -1.526,3.168 -3.924,5.774 -6.823,7.584 z m 8.904,-6.861 C 63.309,52.555 58.998,40.387 48.855,35.502 47.637,34.916 46.382,34.463 45.1,34.129 c 1.827,-2.702 4.323,-4.855 7.297,-6.271 2.944,-1.401 6.136,-1.963 9.308,-1.711 -2.078,5.293 -1.885,11.204 0.57,16.359 2.68,5.632 7.827,9.754 13.884,11.182 -1.796,3.092 -4.504,5.695 -7.969,7.345 -3.026,1.441 -6.325,2.018 -9.628,1.698 z"
       fill="#000000" /><path
       inkscape:connector-curvature="0"
       id="path4"
       d="m 67.98,65.53 c -4.024,0 -7.298,3.273 -7.298,7.297 0,4.024 3.273,7.298 7.298,7.298 4.025,0 7.298,-3.273 7.298,-7.298 0,-4.024 -3.273,-7.297 -7.298,-7.297 z m 0,12.395 c -2.812,0 -5.099,-2.287 -5.099,-5.099 0,-2.811 2.287,-5.098 5.099,-5.098 2.812,0 5.099,2.287 5.099,5.098 0,2.812 -2.287,5.099 -5.099,5.099 z"
       fill="#000000" /></g></svg>
