<?xml version="1.0" encoding="UTF-8" standalone="no"?>
<svg
   xmlns:dc="http://purl.org/dc/elements/1.1/"
   xmlns:cc="http://creativecommons.org/ns#"
   xmlns:rdf="http://www.w3.org/1999/02/22-rdf-syntax-ns#"
   xmlns:svg="http://www.w3.org/2000/svg"
   xmlns="http://www.w3.org/2000/svg"
   xmlns:sodipodi="http://sodipodi.sourceforge.net/DTD/sodipodi-0.dtd"
   xmlns:inkscape="http://www.inkscape.org/namespaces/inkscape"
   inkscape:version="1.0rc1 (09960d6f05, 2020-04-09)"
   sodipodi:docname="noun_Bulldozer_770766.svg"
   id="svg26"
   version="1.1"
   clip-rule="evenodd"
   fill-rule="evenodd"
   y="0px"
   x="0px"
   viewBox="0 0 6827 8533.75"
   style="shape-rendering:geometricPrecision;text-rendering:geometricPrecision;image-rendering:optimizeQuality;"
   xml:space="preserve"><metadata
     id="metadata30"><rdf:RDF><cc:Work
         rdf:about=""><dc:format>image/svg+xml</dc:format><dc:type
           rdf:resource="http://purl.org/dc/dcmitype/StillImage" /></cc:Work></rdf:RDF></metadata><sodipodi:namedview
     inkscape:current-layer="svg26"
     inkscape:window-maximized="1"
     inkscape:window-y="-8"
     inkscape:window-x="-8"
     inkscape:cy="4266.875"
     inkscape:cx="3413.5"
     inkscape:zoom="0.029061081"
     showgrid="false"
     id="namedview28"
     inkscape:window-height="988"
     inkscape:window-width="1680"
     inkscape:pageshadow="2"
     inkscape:pageopacity="0"
     guidetolerance="10"
     gridtolerance="10"
     objecttolerance="10"
     borderopacity="1"
     bordercolor="#666666"
     pagecolor="#ffffff" /><defs
     id="defs4"><style
       id="style2"
       type="text/css">
   
    .fil2 {fill:none}
    .fil1 {fill:black}
    .fil0 {fill:black;fill-rule:nonzero}
   
  </style></defs><g
     transform="matrix(1.2767839,0,0,1.2767839,-960.52595,0)"
     id="g18"><g
       id="g16"><path
         inkscape:connector-curvature="0"
         id="path6"
         d="m 4917,3024 1044,1696 -67,41 67,-41 c 23,37 11,85 -26,108 -13,8 -28,12 -42,12 H 4846 c -43,0 -79,-35 -79,-79 V 3059 c 0,-43 35,-79 79,-79 31,0 57,18 70,43 z"
         class="fil0" /><polygon
         id="polygon8"
         points="3705,3479 3705,3772 4641,3772 4641,3479 "
         class="fil0" /><path
         inkscape:connector-curvature="0"
         id="path10"
         d="m 2588,2136 h -667 v 670 h 1019 v -294 z m 880,1163 V 2568 L 2777,1830 H 1306 v 1469 z"
         class="fil1" /><path
         inkscape:connector-curvature="0"
         id="path12"
         d="M 4099,3929 H 1387 c -147,0 -280,60 -377,157 -97,97 -157,230 -157,377 0,147 60,280 157,377 97,97 230,157 377,157 h 2712 c 147,0 280,-60 377,-157 97,-97 157,-230 157,-377 0,-147 -60,-280 -157,-377 -97,-97 -230,-157 -377,-157 z m -2378,242 c 80,0 153,33 206,85 53,53 85,125 85,206 0,80 -33,153 -85,206 -53,53 -125,85 -206,85 -80,0 -153,-33 -206,-85 -53,-53 -85,-125 -85,-206 0,-80 33,-153 85,-206 53,-53 125,-85 206,-85 z m 1839,85 c 53,-53 125,-85 206,-85 80,0 153,33 206,85 53,53 85,125 85,206 0,80 -33,153 -85,206 -53,53 -125,85 -206,85 -80,0 -153,-33 -206,-85 -53,-53 -85,-125 -85,-206 0,-80 33,-153 85,-206 z"
         class="fil1" /><polygon
         id="polygon14"
         points="1079,3283 1079,3772 4214,3772 4214,3283 "
         class="fil0" /></g></g><rect
     style="stroke-width:1.27679"
     y="0"
     x="-960.526"
     id="rect20"
     height="8716.6035"
     width="8716.6035"
     class="fil2" /><text
     style="stroke-width:1.27679"
     id="text22"
     font-family="'Helvetica Neue', Helvetica, Arial-Unicode, Arial, Sans-serif"
     font-weight="bold"
     font-size="6.38392px"
     fill="#000000"
     y="8735.7549"
     x="-960.526">Created by IYIKON</text><text
     style="stroke-width:1.27679"
     id="text24"
     font-family="'Helvetica Neue', Helvetica, Arial-Unicode, Arial, Sans-serif"
     font-weight="bold"
     font-size="6.38392px"
     fill="#000000"
     y="8742.1396"
     x="-960.526">from the Noun Project</text></svg>
