<?xml version="1.0" encoding="UTF-8" standalone="no"?>
<svg
   xmlns:dc="http://purl.org/dc/elements/1.1/"
   xmlns:cc="http://creativecommons.org/ns#"
   xmlns:rdf="http://www.w3.org/1999/02/22-rdf-syntax-ns#"
   xmlns:svg="http://www.w3.org/2000/svg"
   xmlns="http://www.w3.org/2000/svg"
   xmlns:sodipodi="http://sodipodi.sourceforge.net/DTD/sodipodi-0.dtd"
   xmlns:inkscape="http://www.inkscape.org/namespaces/inkscape"
   inkscape:version="1.0rc1 (09960d6f05, 2020-04-09)"
   sodipodi:docname="noun_Archery_213836.svg"
   id="svg8"
   xml:space="preserve"
   style="enable-background:new 0 0 24 24;"
   viewBox="0 0 24 30"
   y="0px"
   x="0px"
   version="1.1"><metadata
     id="metadata14"><rdf:RDF><cc:Work
         rdf:about=""><dc:format>image/svg+xml</dc:format><dc:type
           rdf:resource="http://purl.org/dc/dcmitype/StillImage" /></cc:Work></rdf:RDF></metadata><defs
     id="defs12" /><sodipodi:namedview
     inkscape:current-layer="svg8"
     inkscape:window-maximized="1"
     inkscape:window-y="-8"
     inkscape:window-x="-8"
     inkscape:cy="15"
     inkscape:cx="12"
     inkscape:zoom="8.2666667"
     showgrid="false"
     id="namedview10"
     inkscape:window-height="988"
     inkscape:window-width="1680"
     inkscape:pageshadow="2"
     inkscape:pageopacity="0"
     guidetolerance="10"
     gridtolerance="10"
     objecttolerance="10"
     borderopacity="1"
     bordercolor="#666666"
     pagecolor="#ffffff" /><path
     inkscape:connector-curvature="0"
     id="path2"
     d="m 23.724,14.706224 -4,-2 c -0.155,-0.077 -0.339,-0.07 -0.486,0.022 -0.148,0.091 -0.238,0.252 -0.238,0.425 v 1.5 H 17.5 16.972 13.958 13.5 7.133 l -1.984,-1.134 4.067,-7.2309979 c 0.193,0.223 0.4,0.454 0.624,0.702 1.496,1.659 3.432,3.8549979 3.976,6.6629979 h 2.996 c -0.734,-3.225 -3.669,-5.6829979 -5.711,-7.3819979 -0.935,-0.779 -2.101,-1.748 -2.101,-2.118 0,-0.276 -0.224,-0.5 -0.5,-0.5 -0.276,0 -0.5,0.224 -0.5,0.5 0,0.406 0.202,0.827 0.54,1.299 l -4.259,7.5709979 -0.533,-0.304 c -0.076,-0.043 -0.161,-0.066 -0.248,-0.066 h -3 c -0.202,0 -0.385,0.122 -0.462,0.309 -0.078,0.187 -0.035,0.402 0.108,0.545 l 1.647,1.646 -1.646,1.646 c -0.143,0.143 -0.186,0.358 -0.108,0.545 0.076,0.187 0.259,0.309 0.461,0.309 h 3 c 0.087,0 0.172,-0.023 0.248,-0.066 l 0.503,-0.288 3.796,8.066 c 0.017,0.036 0.051,0.054 0.075,0.084 -0.073,0.232 -0.122,0.465 -0.122,0.704 0,0.276 0.224,0.5 0.5,0.5 0.276,0 0.5,-0.224 0.5,-0.5 0,-0.37 1.166,-1.339 2.102,-2.118 2.249,-1.87 5.589,-4.659 5.87,-8.382 H 19 v 1.5 c 0,0.173 0.09,0.334 0.237,0.425 0.08,0.05 0.171,0.075 0.263,0.075 0.077,0 0.153,-0.018 0.224,-0.053 l 4,-2 c 0.169,-0.085 0.276,-0.258 0.276,-0.447 0,-0.189 -0.107,-0.362 -0.276,-0.447 z m -13.528,7.93 c -0.577,0.606 -1.114,1.171 -1.513,1.732 l -3.561,-7.567 2.01,-1.149 h 6.83 c -0.194,3.198 -2.156,5.294 -3.766,6.984 z" /></svg>
