<?xml version="1.0" encoding="UTF-8" standalone="no"?>
<svg
   xmlns:dc="http://purl.org/dc/elements/1.1/"
   xmlns:cc="http://creativecommons.org/ns#"
   xmlns:rdf="http://www.w3.org/1999/02/22-rdf-syntax-ns#"
   xmlns:svg="http://www.w3.org/2000/svg"
   xmlns="http://www.w3.org/2000/svg"
   xmlns:sodipodi="http://sodipodi.sourceforge.net/DTD/sodipodi-0.dtd"
   xmlns:inkscape="http://www.inkscape.org/namespaces/inkscape"
   inkscape:version="1.0rc1 (09960d6f05, 2020-04-09)"
   sodipodi:docname="Mobile-phone-16.svg"
   version="1.1"
   width="16"
   height="16"
   viewBox="0 0 16 16"
   id="svg2">
  <sodipodi:namedview
     inkscape:current-layer="svg2"
     inkscape:window-maximized="1"
     inkscape:window-y="-8"
     inkscape:window-x="-8"
     inkscape:cy="8"
     inkscape:cx="8"
     inkscape:zoom="14.75"
     showgrid="false"
     id="namedview7"
     inkscape:window-height="988"
     inkscape:window-width="1680"
     inkscape:pageshadow="2"
     inkscape:pageopacity="0"
     guidetolerance="10"
     gridtolerance="10"
     objecttolerance="10"
     borderopacity="1"
     bordercolor="#666666"
     pagecolor="#ffffff" />
  <metadata
     id="metadata8">
    <rdf:RDF>
      <cc:Work
         rdf:about="">
        <dc:format>image/svg+xml</dc:format>
        <dc:type
           rdf:resource="http://purl.org/dc/dcmitype/StillImage" />
        <dc:title />
      </cc:Work>
    </rdf:RDF>
  </metadata>
  <defs
     id="defs6" />
  <rect
     style="visibility:hidden;fill:none;stroke:none;stroke-width:1.12288"
     id="canvas"
     y="-1.0169492"
     x="-1.0169492"
     height="17.966101"
     width="17.966101" />
  <path
     inkscape:connector-curvature="0"
     style="fill:#000000;fill-opacity:1;stroke-width:1.12288"
     id="mobile-phone"
     d="m 6.8432203,0.10593217 c -0.5421675,0 -1.1228813,0.43525402 -1.1228813,1.12288143 V 2.3516949 C 4.4643962,2.4435466 3.4745762,3.368217 3.4745762,4.5974577 v 8.9830503 c 0,1.289967 0.9020477,2.245764 2.2457628,2.245764 h 4.491525 c 1.343715,0 2.245763,-0.955797 2.245763,-2.245764 V 4.5974577 c 0,-1.2899662 -0.902048,-2.2457628 -2.245763,-2.2457628 H 7.9661017 V 1.2288136 c 0,-0.71407462 -0.5807138,-1.12288143 -1.1228814,-1.12288143 z M 4.5974577,4.5974577 H 11.334745 V 12.457627 H 4.5974577 Z m 2.2457626,8.9830503 h 2.2457628 v 1.122881 H 6.8432203 Z" />
</svg>
