<?xml version="1.0" encoding="UTF-8" standalone="no"?>
<svg
   xmlns:dc="http://purl.org/dc/elements/1.1/"
   xmlns:cc="http://creativecommons.org/ns#"
   xmlns:rdf="http://www.w3.org/1999/02/22-rdf-syntax-ns#"
   xmlns:svg="http://www.w3.org/2000/svg"
   xmlns="http://www.w3.org/2000/svg"
   xmlns:sodipodi="http://sodipodi.sourceforge.net/DTD/sodipodi-0.dtd"
   xmlns:inkscape="http://www.inkscape.org/namespaces/inkscape"
   inkscape:version="1.0rc1 (09960d6f05, 2020-04-09)"
   sodipodi:docname="noun_Recycle shopping cart_710675.svg"
   id="svg18"
   xml:space="preserve"
   style="enable-background:new 0 0 100 100;"
   viewBox="0 0 100 125"
   y="0px"
   x="0px"
   version="1.1"><metadata
     id="metadata24"><rdf:RDF><cc:Work
         rdf:about=""><dc:format>image/svg+xml</dc:format><dc:type
           rdf:resource="http://purl.org/dc/dcmitype/StillImage" /></cc:Work></rdf:RDF></metadata><defs
     id="defs22" /><sodipodi:namedview
     inkscape:current-layer="svg18"
     inkscape:window-maximized="1"
     inkscape:window-y="-8"
     inkscape:window-x="-8"
     inkscape:cy="62.5"
     inkscape:cx="50"
     inkscape:zoom="1.984"
     showgrid="false"
     id="namedview20"
     inkscape:window-height="988"
     inkscape:window-width="1680"
     inkscape:pageshadow="2"
     inkscape:pageopacity="0"
     guidetolerance="10"
     gridtolerance="10"
     objecttolerance="10"
     borderopacity="1"
     bordercolor="#666666"
     pagecolor="#ffffff" /><g
     transform="matrix(1.342421,0,0,1.342421,-10.901317,-10.84842)"
     id="g8"><path
       inkscape:connector-curvature="0"
       id="path2"
       d="m 67.1,43.7 c -0.4,-0.7 -1.3,-1 -2,-0.5 -0.7,0.4 -1,1.3 -0.5,2 1.6,2.8 1.9,5.3 0.8,7.2 -1.1,1.8 -3.4,2.9 -6.6,2.9 H 55.4 L 57,53.7 c 0.6,-0.6 0.6,-1.5 0,-2.1 -0.6,-0.6 -1.5,-0.6 -2.1,0 l -4.2,4.2 c -0.1,0.1 -0.3,0.3 -0.3,0.5 0,0 0,0 0,0 -0.1,0.2 -0.1,0.4 -0.1,0.5 0,0.1 0,0.4 0.1,0.5 0,0 0,0 0,0 0.1,0.2 0.2,0.4 0.3,0.5 l 4.2,4.2 c 0.3,0.3 0.7,0.4 1.1,0.4 0.4,0 0.8,-0.1 1.1,-0.4 0.6,-0.6 0.6,-1.5 0,-2.1 l -1.6,-1.6 h 3.4 c 4.3,0 7.6,-1.5 9.2,-4.4 1.5,-2.8 1.2,-6.5 -1,-10.2 z" /><path
       inkscape:connector-curvature="0"
       id="path4"
       d="m 57.4,32.9 1.5,2.5 -2,-0.6 c -0.8,-0.2 -1.6,0.2 -1.9,1 -0.2,0.8 0.2,1.6 1,1.9 l 5.6,1.8 c 0,0 0,0 0,0 0.1,0 0.3,0.1 0.4,0.1 0,0 0,0 0,0 0,0 0,0 0,0 0,0 0,0 0,0 0.1,0 0.3,0 0.4,-0.1 0,0 0.1,0 0.1,-0.1 0.1,0 0.1,0 0.2,-0.1 0,0 0.1,0 0.1,-0.1 0,0 0.1,0 0.1,-0.1 0.1,-0.1 0.2,-0.2 0.3,-0.3 0,0 0,0 0,0 0.1,-0.1 0.1,-0.2 0.2,-0.4 0,0 0,0 0,0 l 1.8,-5.6 c 0.2,-0.8 -0.2,-1.6 -1,-1.9 -0.8,-0.2 -1.6,0.2 -1.9,1 L 61.5,34.3 60,31.4 c -2.2,-3.8 -5.1,-5.8 -8.4,-5.8 -3.2,0 -6.2,2.1 -8.4,5.8 -0.4,0.7 -0.2,1.6 0.5,2 0.7,0.4 1.6,0.2 2,-0.5 1.6,-2.8 3.7,-4.3 5.8,-4.3 2.1,0 4.3,1.5 5.9,4.3 z" /><path
       inkscape:connector-curvature="0"
       id="path6"
       d="m 44.5,55.2 c -3.2,0 -5.6,-1 -6.6,-2.9 -1.1,-1.8 -0.8,-4.4 0.8,-7.2 l 2,-3.5 0.8,2.4 c 0.2,0.6 0.8,1 1.4,1 0.1,0 0.3,0 0.5,-0.1 0.8,-0.2 1.2,-1.1 1,-1.9 l -1.8,-5.6 c 0,0 0,-0.1 0,-0.1 0,0 0,-0.1 -0.1,-0.1 0,0 -0.1,-0.1 -0.1,-0.1 0,0 0,-0.1 -0.1,-0.1 0,0 -0.1,-0.1 -0.1,-0.1 0,0 -0.1,-0.1 -0.1,-0.1 0,0 -0.1,-0.1 -0.2,-0.1 0,0 0,0 -0.1,0 0,0 0,0 0,0 -0.1,0 -0.1,-0.1 -0.2,-0.1 0,0 -0.1,0 -0.1,0 0,0 -0.1,0 -0.1,0 0,0 -0.1,0 -0.1,0 0,0 -0.1,0 -0.1,0 -0.1,0 -0.1,0 -0.2,0 0,0 -0.1,0 -0.1,0 -0.1,0 -0.1,0 -0.2,0 0,0 0,0 0,0 L 35,38.4 c -0.8,0.2 -1.2,1.1 -1,1.9 0.2,0.8 1.1,1.2 1.9,1 l 2,-0.6 -1.8,3.1 c -2.2,3.8 -2.5,7.4 -0.8,10.2 1.7,2.8 4.9,4.4 9.2,4.4 0.8,0 1.5,-0.7 1.5,-1.5 0,-0.8 -0.6,-1.7 -1.5,-1.7 z" /></g><path
     style="stroke-width:1.34242"
     inkscape:connector-curvature="0"
     id="path10"
     d="M 95.284184,34.793894 C 94.210247,34.659652 93.13631,35.330862 93.002068,36.4048 L 86.424205,76.408945 H 29.774039 L 22.659207,23.517558 C 21.853755,18.953326 18.497703,16 14.067713,16 H 3.9995558 c -1.0739365,0 -2.0136314,0.939695 -2.0136314,2.013631 0,1.073937 0.9396949,2.013632 2.0136314,2.013632 H 14.067713 c 2.416358,0 4.161506,1.610905 4.564232,4.161505 l 9.665431,72.893462 c -4.027263,1.34242 -6.846347,5.1012 -6.846347,9.53118 0,5.50393 4.564232,10.06817 10.068158,10.06817 5.503925,0 10.068156,-4.56424 10.068156,-10.06817 0,-2.28211 -0.805452,-4.29574 -2.013631,-6.04089 h 29.39902 c -1.208178,1.74515 -2.013632,3.75878 -2.013632,6.04089 0,5.50393 4.564232,10.06817 10.068158,10.06817 5.503926,0 10.068158,-4.56424 10.068158,-10.06817 0,-5.50392 -4.42999,-10.06815 -10.068158,-10.06815 H 32.458881 L 30.311008,80.436207 h 57.992587 c 0.939694,0 1.879388,-0.67121 2.013631,-1.745147 L 97.029331,37.07601 C 97.163573,36.002072 96.35812,35.062378 95.284184,34.793894 Z M 37.694322,106.61341 c 0,3.35606 -2.684841,6.04091 -6.040893,6.04091 -3.356053,0 -6.040895,-2.68485 -6.040895,-6.04091 0,-3.35604 2.684842,-6.04089 6.040895,-6.04089 3.356052,0 6.040893,2.68485 6.040893,6.04089 z m 45.37383,0 c 0,3.35606 -2.684842,6.04091 -6.040894,6.04091 -3.356052,0 -6.040895,-2.68485 -6.040895,-6.04091 0,-3.35604 2.684843,-6.04089 6.040895,-6.04089 3.356052,0 6.040894,2.68485 6.040894,6.04089 z" /><path
     style="stroke-width:1.34242"
     inkscape:connector-curvature="0"
     id="path12"
     d="M 95.284184,34.793894 C 94.210247,34.659652 93.13631,35.330862 93.002068,36.4048 L 86.424205,76.408945 H 29.774039 L 22.659207,23.517558 C 21.853755,18.953326 18.497703,16 14.067713,16 H 3.9995558 c -1.0739365,0 -2.0136314,0.939695 -2.0136314,2.013631 0,1.073937 0.9396949,2.013632 2.0136314,2.013632 H 14.067713 c 2.416358,0 4.161506,1.610905 4.564232,4.161505 l 9.665431,72.893462 c -4.027263,1.34242 -6.846347,5.1012 -6.846347,9.53118 0,5.50393 4.564232,10.06817 10.068158,10.06817 5.503925,0 10.068156,-4.56424 10.068156,-10.06817 0,-2.28211 -0.805452,-4.29574 -2.013631,-6.04089 h 29.39902 c -1.208178,1.74515 -2.013632,3.75878 -2.013632,6.04089 0,5.50393 4.564232,10.06817 10.068158,10.06817 5.503926,0 10.068158,-4.56424 10.068158,-10.06817 0,-5.50392 -4.42999,-10.06815 -10.068158,-10.06815 H 32.458881 L 30.311008,80.436207 h 57.992587 c 0.939694,0 1.879388,-0.67121 2.013631,-1.745147 L 97.029331,37.07601 C 97.163573,36.002072 96.35812,35.062378 95.284184,34.793894 Z M 37.694322,106.61341 c 0,3.35606 -2.684841,6.04091 -6.040893,6.04091 -3.356053,0 -6.040895,-2.68485 -6.040895,-6.04091 0,-3.35604 2.684842,-6.04089 6.040895,-6.04089 3.356052,0 6.040893,2.68485 6.040893,6.04089 z m 45.37383,0 c 0,3.35606 -2.684842,6.04091 -6.040894,6.04091 -3.356052,0 -6.040895,-2.68485 -6.040895,-6.04091 0,-3.35604 2.684843,-6.04089 6.040895,-6.04089 3.356052,0 6.040894,2.68485 6.040894,6.04089 z" /></svg>
