<?xml version="1.0" encoding="UTF-8" standalone="no"?>
<svg
   xmlns:dc="http://purl.org/dc/elements/1.1/"
   xmlns:cc="http://creativecommons.org/ns#"
   xmlns:rdf="http://www.w3.org/1999/02/22-rdf-syntax-ns#"
   xmlns:svg="http://www.w3.org/2000/svg"
   xmlns="http://www.w3.org/2000/svg"
   xmlns:sodipodi="http://sodipodi.sourceforge.net/DTD/sodipodi-0.dtd"
   xmlns:inkscape="http://www.inkscape.org/namespaces/inkscape"
   inkscape:version="1.0rc1 (09960d6f05, 2020-04-09)"
   sodipodi:docname="noun_volley ball_2004100.svg"
   id="svg24"
   version="1.1"
   y="0px"
   x="0px"
   viewBox="0 0 64 80"
   data-name="Layer 1">
  <metadata
     id="metadata30">
    <rdf:RDF>
      <cc:Work
         rdf:about="">
        <dc:format>image/svg+xml</dc:format>
        <dc:type
           rdf:resource="http://purl.org/dc/dcmitype/StillImage" />
      </cc:Work>
    </rdf:RDF>
  </metadata>
  <defs
     id="defs28" />
  <sodipodi:namedview
     inkscape:current-layer="svg24"
     inkscape:window-maximized="1"
     inkscape:window-y="-8"
     inkscape:window-x="-8"
     inkscape:cy="40"
     inkscape:cx="32"
     inkscape:zoom="3.1"
     showgrid="false"
     id="namedview26"
     inkscape:window-height="988"
     inkscape:window-width="1680"
     inkscape:pageshadow="2"
     inkscape:pageopacity="0"
     guidetolerance="10"
     gridtolerance="10"
     objecttolerance="10"
     borderopacity="1"
     bordercolor="#666666"
     pagecolor="#ffffff" />
  <title
     id="title2">vacation icon set [Recovered]</title>
  <path
     style="stroke-width:1.05948"
     inkscape:connector-curvature="0"
     id="path4"
     d="m 17.305158,36.229699 c 0.08476,-5.159679 1.75874,-20.49039 18.117149,-23.997277 a 2.1189649,2.1189649 0 0 0 1.642198,-1.790526 30.936888,30.936888 0 0 1 7.564705,2.267293 30.195249,30.195249 0 0 0 -7.914334,6.208567 l -0.296655,0.32844 a 23.711217,23.711217 0 0 0 -5.858939,16.167701 45.557744,45.557744 0 0 1 -13.254124,0.815802 z" />
  <path
     style="stroke-width:1.05948"
     inkscape:connector-curvature="0"
     id="path6"
     d="m 33.599997,73.258611 c -0.582715,0 -1.176025,0.05297 -1.769335,0.05297 A 31.657335,31.657335 0 0 1 3.3305841,55.459306 a 42.654762,42.654762 0 0 0 18.5091589,4.608748 30.121086,30.121086 0 0 0 8.655971,-1.229 15.70153,15.70153 0 0 0 -0.720448,7.617679 11.897988,11.897988 0 0 0 3.824731,6.801878 z" />
  <path
     style="stroke-width:1.05948"
     inkscape:connector-curvature="0"
     id="path8"
     d="M 13.109607,35.498656 C 6.413678,33.761105 4.0722218,30.116485 3.9238943,29.809235 A 2.0448012,2.0448012 0 0 0 2.8644119,28.89808 31.614956,31.614956 0 0 1 28.122473,10.23 C 15.451063,16.237265 13.395667,29.724477 13.109607,35.498656 Z" />
  <path
     style="stroke-width:1.05948"
     inkscape:connector-curvature="0"
     id="path10"
     d="M 34.638291,44.589015 C 30.209654,46.008722 16.84958,49.081221 1.1162659,41.368189 A 2.1189649,2.1189649 0 0 0 0.19451613,41.145698 30.587258,30.587258 0 0 1 1.2539986,33.347907 c 1.7587408,2.06599 5.7953688,5.541093 13.5401854,6.791282 a 0.82639631,0.82639631 0 0 0 0.233087,0 36.022403,36.022403 0 0 0 5.816557,0.444982 55.421527,55.421527 0 0 0 11.156351,-1.228999 v 0 a 15.892236,15.892236 0 0 1 2.638112,5.233843 z" />
  <path
     style="stroke-width:1.05948"
     inkscape:connector-curvature="0"
     id="path12"
     d="m 34.934946,48.943488 a 10.202816,10.202816 0 0 1 -1.525655,4.068413 c -1.970637,1.218405 -12.71379,6.89723 -30.3435775,-2.41562 A 2.1189649,2.1189649 0 0 0 1.4129209,50.447954 30.258818,30.258818 0 0 1 0.43819709,45.733257 51.734528,51.734528 0 0 0 22.305915,50.691634 45.080978,45.080978 0 0 0 34.934946,48.943488 Z" />
  <path
     style="stroke-width:1.05948"
     inkscape:connector-curvature="0"
     id="path14"
     d="m 39.840349,70.578119 a 2.1189649,2.1189649 0 0 0 -0.286061,1.779931 c -0.28606,0.07417 -0.561525,0.137733 -0.847585,0.190707 A 2.1189649,2.1189649 0 0 0 37.816738,71.192619 8.2851526,8.2851526 0 0 1 33.960221,65.72569 c -0.773422,-4.23793 1.960043,-8.793704 2.627517,-9.821402 l 0.201301,-0.296655 a 14.334798,14.334798 0 0 0 2.373241,-9.535342 v 0 A 5.7106103,5.7106103 0 0 0 39.07752,45.47898 v 0 a 19.070684,19.070684 0 0 0 -4.237929,-9.270471 18.4244,18.4244 0 0 1 3.994249,-13.26472 24.272742,24.272742 0 0 1 9.196308,12.046315 c 3.686998,10.213411 0.85818,22.514002 -8.1898,35.588015 z" />
  <path
     style="stroke-width:1.05948"
     inkscape:connector-curvature="0"
     id="path16"
     d="M 63.498592,41.664844 A 31.636146,31.636146 0 0 1 45.010623,70.440387 c 16.496142,-25.766613 5.996671,-41.59528 0.603905,-47.305891 a 25.692449,25.692449 0 0 0 -3.803542,-3.305585 29.082793,29.082793 0 0 1 6.134403,-4.079007 2.2037235,2.2037235 0 0 0 0.847587,-0.805207 31.593766,31.593766 0 0 1 14.705616,26.720147 z" />
  <path
     style="stroke-width:1.05948"
     inkscape:connector-curvature="0"
     id="path18"
     d="m 39.151685,46.008722 a 5.7106103,5.7106103 0 0 0 -0.08476,-0.59331 1.9600425,1.9600425 0 0 1 0.08476,0.59331 z" />
</svg>
