<?xml version="1.0" encoding="UTF-8" standalone="no"?>
<svg
   xmlns:dc="http://purl.org/dc/elements/1.1/"
   xmlns:cc="http://creativecommons.org/ns#"
   xmlns:rdf="http://www.w3.org/1999/02/22-rdf-syntax-ns#"
   xmlns:svg="http://www.w3.org/2000/svg"
   xmlns="http://www.w3.org/2000/svg"
   xmlns:sodipodi="http://sodipodi.sourceforge.net/DTD/sodipodi-0.dtd"
   xmlns:inkscape="http://www.inkscape.org/namespaces/inkscape"
   inkscape:version="1.0rc1 (09960d6f05, 2020-04-09)"
   sodipodi:docname="noun_warehouse_3117374.svg"
   id="svg14"
   xml:space="preserve"
   enable-background="new 0 0 48 48"
   viewBox="0 0 48 60"
   y="0px"
   x="0px"
   version="1.1"><metadata
     id="metadata20"><rdf:RDF><cc:Work
         rdf:about=""><dc:format>image/svg+xml</dc:format><dc:type
           rdf:resource="http://purl.org/dc/dcmitype/StillImage" /></cc:Work></rdf:RDF></metadata><defs
     id="defs18" /><sodipodi:namedview
     inkscape:current-layer="svg14"
     inkscape:window-maximized="1"
     inkscape:window-y="-8"
     inkscape:window-x="-8"
     inkscape:cy="30"
     inkscape:cx="24"
     inkscape:zoom="4.1333333"
     showgrid="false"
     id="namedview16"
     inkscape:window-height="988"
     inkscape:window-width="1680"
     inkscape:pageshadow="2"
     inkscape:pageopacity="0"
     guidetolerance="10"
     gridtolerance="10"
     objecttolerance="10"
     borderopacity="1"
     bordercolor="#666666"
     pagecolor="#ffffff" /><path
     style="stroke-width:1.06648"
     inkscape:connector-curvature="0"
     id="path2"
     d="m 34.62062,41.738327 h -6.779622 c -0.294349,0 -0.533241,0.241025 -0.533241,0.53324 v 6.779623 c 0,0.295415 0.238892,0.53324 0.533241,0.53324 h 6.779622 c 0.294348,0 0.53324,-0.237825 0.53324,-0.53324 v -6.779623 c 0,-0.294348 -0.237825,-0.53324 -0.53324,-0.53324 z" /><path
     style="stroke-width:1.06648"
     inkscape:connector-curvature="0"
     id="path4"
     d="M 46.927815,12.768427 32.408737,19.79334 v -6.546063 c 0,-0.183434 -0.09598,-0.353005 -0.249556,-0.452188 -0.15464,-0.09812 -0.349806,-0.108781 -0.515111,-0.02666 L 17.123927,19.79334 v -6.546063 c 0,-0.183434 -0.09492,-0.353005 -0.248491,-0.452188 -0.157839,-0.09812 -0.351938,-0.108781 -0.517243,-0.02666 L 1.0691163,20.162343 c -0.18450128,0.08958 -0.30074777,0.277285 -0.30074777,0.480983 V 49.05119 c 0,0.295415 0.23995827,0.53324 0.53324067,0.53324 H 11.709401 c 0.294348,0 0.53324,-0.237825 0.53324,-0.53324 V 29.75001 h 23.977701 v 19.30118 c 0,0.295415 0.239958,0.53324 0.533241,0.53324 h 10.406725 c 0.294349,0 0.53324,-0.237825 0.53324,-0.53324 V 13.247277 c 0,-0.183434 -0.09385,-0.353005 -0.24849,-0.452188 -0.155706,-0.09812 -0.350872,-0.108781 -0.517243,-0.02666 z" /><path
     style="stroke-width:1.06648"
     inkscape:connector-curvature="0"
     id="path6"
     d="M 25.705902,41.738327 H 18.92628 c -0.294349,0 -0.533241,0.241025 -0.533241,0.53324 v 6.779623 c 0,0.295415 0.238892,0.53324 0.533241,0.53324 h 6.779622 c 0.294349,0 0.53324,-0.237825 0.53324,-0.53324 v -6.779623 c 0,-0.294348 -0.237825,-0.53324 -0.53324,-0.53324 z" /><path
     style="stroke-width:1.06648"
     inkscape:connector-curvature="0"
     id="path8"
     d="m 34.62062,32.743623 h -6.779622 c -0.294349,0 -0.533241,0.239958 -0.533241,0.533241 v 6.781755 c 0,0.292215 0.238892,0.533241 0.533241,0.533241 h 6.779622 c 0.294348,0 0.53324,-0.241026 0.53324,-0.533241 v -6.781755 c 0,-0.293283 -0.237825,-0.533241 -0.53324,-0.533241 z" /></svg>
