<?xml version="1.0" encoding="UTF-8" standalone="no"?>
<svg
   xmlns:dc="http://purl.org/dc/elements/1.1/"
   xmlns:cc="http://creativecommons.org/ns#"
   xmlns:rdf="http://www.w3.org/1999/02/22-rdf-syntax-ns#"
   xmlns:svg="http://www.w3.org/2000/svg"
   xmlns="http://www.w3.org/2000/svg"
   xmlns:sodipodi="http://sodipodi.sourceforge.net/DTD/sodipodi-0.dtd"
   xmlns:inkscape="http://www.inkscape.org/namespaces/inkscape"
   inkscape:version="1.0rc1 (09960d6f05, 2020-04-09)"
   sodipodi:docname="noun_Research_1290352.svg"
   id="svg8"
   xml:space="preserve"
   enable-background="new 0 0 100 100"
   viewBox="0 0 100 125"
   y="0px"
   x="0px"
   version="1.1"><metadata
     id="metadata14"><rdf:RDF><cc:Work
         rdf:about=""><dc:format>image/svg+xml</dc:format><dc:type
           rdf:resource="http://purl.org/dc/dcmitype/StillImage" /></cc:Work></rdf:RDF></metadata><defs
     id="defs12" /><sodipodi:namedview
     inkscape:current-layer="svg8"
     inkscape:window-maximized="1"
     inkscape:window-y="-8"
     inkscape:window-x="-8"
     inkscape:cy="62.5"
     inkscape:cx="50"
     inkscape:zoom="1.984"
     showgrid="false"
     id="namedview10"
     inkscape:window-height="988"
     inkscape:window-width="1680"
     inkscape:pageshadow="2"
     inkscape:pageopacity="0"
     guidetolerance="10"
     gridtolerance="10"
     objecttolerance="10"
     borderopacity="1"
     bordercolor="#666666"
     pagecolor="#ffffff" /><path
     style="stroke-width:1.17358"
     inkscape:connector-curvature="0"
     id="path2"
     d="m 80.856059,15.107485 c 4.498366,2.54434 8.312531,5.927798 11.442492,10.151544 3.051331,4.068833 5.222471,8.607102 6.513418,13.613632 1.252221,4.930247 1.564401,9.936777 0.938871,15.023112 -0.665425,5.319879 -2.308449,10.287681 -4.929073,14.903405 -0.782783,1.368405 -2.033829,3.188642 -3.755485,5.457189 -1.877742,2.308449 -3.129961,3.951474 -3.755484,4.9279 -1.173589,1.83784 -1.995101,3.22737 -2.464537,4.167414 -0.821512,1.526839 -1.388355,2.912848 -1.701704,4.167415 v -0.05985 c -1.732217,7.323195 -0.812123,16.379784 2.757934,27.168574 H 63.78034 l 0.176039,-38.904464 c 0,-0.430707 -0.05868,-0.820338 -0.176039,-1.173588 4.42091,-0.940045 8.31253,-3.071282 11.67721,-6.394886 4.694356,-4.616899 7.061485,-10.250126 7.100213,-16.899681 0,-6.572098 -2.308449,-12.205325 -6.924175,-16.89968 -4.615725,-4.694356 -10.229001,-7.060311 -16.841001,-7.101387 -6.650729,0 -12.322684,2.30845 -17.01704,6.924174 -4.694355,4.615726 -7.041533,10.211398 -7.041533,16.783496 -0.03991,6.649555 2.24977,12.322684 6.865495,17.01704 3.129962,3.167516 6.728186,5.281149 10.797018,6.33738 -0.117358,0.389631 -0.176038,0.839116 -0.176038,1.34728 L 52.044451,114.62782 H 31.94674 c 0.03052,-3.0302 0.0012,-4.84808 -0.08802,-5.45718 -0.273447,-2.0749 -0.430708,-3.36468 -0.469436,-3.87401 l 0.05868,0.1197 c -0.117359,-0.6666 -0.313348,-1.13486 -0.586794,-1.40948 -0.390806,-0.11736 -0.821513,-0.15609 -1.290949,-0.11736 -0.66425,0.0774 -2.855341,0.37086 -6.572098,0.88019 -0.195989,0 -0.372027,0.0188 -0.528114,0.0599 -0.07863,0.0387 -0.176039,0.0575 -0.293397,0.0575 -0.860242,0.11736 -1.428258,0.17604 -1.701705,0.17604 -0.03873,0 -0.07745,0 -0.117358,0 -4.772987,0.23355 -8.000356,-0.91892 -9.682109,-3.46091 C 8.7190674,99.135284 8.6017079,95.67437 10.323363,91.213559 v -0.0575 C 10.558081,90.607992 10.67544,90.177285 10.67544,89.86511 V 89.80525 C 10.558082,89.571702 10.323364,89.33581 9.971288,89.101092 l 0.05868,0.05751 C 7.8001493,87.712744 7.115947,86.30209 7.9761875,84.933684 8.0149144,84.62151 8.1921282,84.289384 8.5043022,83.936134 8.0348673,83.505426 7.7015681,83.017214 7.5067525,82.469148 v 0.05986 C 6.919958,81.314341 7.0373165,79.691268 7.858829,77.658612 l 0.05868,-0.05985 c 0.038727,-0.07745 0.1173595,-0.09858 0.234718,-0.0575 C 7.9175088,77.3441 7.5654323,77.149284 7.0959974,76.954469 h -0.05868 C 3.6339101,75.544988 1.8148468,74.234089 1.580129,73.020599 0.9534325,71.84701 1.6000797,69.67587 3.5165507,66.508354 c 1.4083069,-2.22982 3.6768544,-5.732983 6.8068163,-10.504795 0,-0.03873 0.01995,-0.05751 0.05868,-0.05751 0.195989,-0.35325 0.352077,-0.568017 0.469435,-0.646647 0,-0.117359 0.01995,-0.194816 0.05868,-0.233544 -0.07745,0 -0.13731,-0.02112 -0.176038,-0.05986 l -0.05868,-0.05751 C 10.244736,54.439148 9.9126103,53.753773 9.6778923,52.894706 V 52.774999 C 9.5218048,52.032118 9.4619527,51.349089 9.5018541,50.721219 l 0.05868,-0.05751 C 11.124925,38.418482 15.624466,28.442977 23.056804,20.737191 h 0.05868 c 3.324777,-3.482038 7.296202,-6.182466 11.911927,-8.097763 3.950301,-1.643025 8.528471,-2.7180324 13.730991,-3.22737 1.976324,-0.211246 3.892794,-0.3462087 5.750585,-0.410756 h 0.792173 c 0.681855,-0.011736 1.356668,-0.011736 2.024441,0 h 0.234718 c 0.531635,0.014083 1.058577,0.031687 1.584344,0.057506 2.073732,0.079804 4.087611,0.2746197 6.043984,0.5867944 5.711857,0.9048366 10.934328,2.7250736 15.667412,5.4618826 z m -22.532907,21.24196 c 0.234717,-0.233544 0.333299,-0.467089 0.293397,-0.704153 0.0399,-0.194816 -0.03873,-0.449486 -0.234718,-0.762833 -0.195989,-0.156088 -0.449485,-0.213594 -0.762833,-0.173692 -1.017502,0 -2.151188,0.173692 -3.403408,0.526942 -0.234718,0.07745 -0.449484,0.21594 -0.645474,0.410756 -0.117358,0.314522 -0.137309,0.586795 -0.05868,0.822686 0.07745,0.194815 0.253495,0.389631 0.528115,0.586794 0.195989,0.117359 0.410756,0.134963 0.645473,0.0575 1.094959,-0.233543 2.09251,-0.370853 2.992653,-0.410756 0.273446,-0.07863 0.488213,-0.194815 0.645474,-0.35325 z m -7.569649,1.292122 c -0.313348,-0.548067 -0.782784,-0.625524 -1.408307,-0.235892 -2.543167,1.565567 -4.518318,3.736707 -5.926624,6.514592 -1.486937,2.659353 -2.19109,5.535819 -2.11246,8.625879 0.03991,0.233544 0.156087,0.449484 0.352077,0.646647 0.195989,0.233544 0.390804,0.350903 0.586794,0.350903 0.352077,-0.03873 0.625523,-0.134963 0.821513,-0.293397 0.156086,-0.272273 0.21594,-0.509337 0.176038,-0.704153 -0.0399,-2.739157 0.566843,-5.341004 1.819062,-7.804367 1.290949,-2.385906 3.09006,-4.302377 5.398509,-5.750585 0.313349,-0.272273 0.469436,-0.54572 0.469436,-0.820339 z m 22.122151,-0.586795 c 3.872843,3.949126 5.789314,8.664606 5.750586,14.140572 -0.0399,5.55577 -2.015052,10.268904 -5.926624,14.14292 -3.951474,3.9104 -8.664607,5.846821 -14.141747,5.808092 -5.554596,0 -10.268902,-1.976323 -14.141746,-5.92545 -3.872843,-3.912746 -5.809265,-8.64583 -5.809265,-14.202773 0,-5.553423 1.97515,-10.268904 5.926624,-14.140574 3.911571,-3.874017 8.64583,-5.790487 14.200426,-5.750585 5.593325,0.03991 10.307631,2.015052 14.141746,5.927798 z M 56.210692,75.313771 c 0.156086,-0.11736 0.782783,-0.176038 1.877742,-0.176038 1.017501,-0.03873 1.662976,0.03873 1.936422,0.233543 L 59.848817,114.629 h -3.902183 l 0.205378,-38.964326 c 0,-0.194815 0.01995,-0.312175 0.05868,-0.350903 z M 38.782896,15.460735 c -0.742882,0.272273 -1.486937,0.56567 -2.229819,0.880192 -4.107561,1.682927 -7.64828,4.068833 -10.62098,7.158893 -6.845544,7.11899 -10.993007,16.331663 -12.440042,27.639192 v -0.119706 c -0.03991,0.314522 -0.01995,0.646648 0.05868,0.999898 0.03873,0.117359 0.07863,0.21594 0.117359,0.293397 0.977599,1.053883 1.349628,2.17114 1.11491,3.344729 0.03873,0.586795 -0.3333,1.428258 -1.11491,2.523216 l -0.05868,0.0575 C 10.51818,62.932402 8.2883616,66.375712 6.919957,68.566803 5.9024545,70.209827 5.3743398,71.246107 5.3356118,71.676814 v 0.0575 c 0.273446,0.27462 1.212317,0.742882 2.8166129,1.40948 C 7.9562358,72.829272 7.858828,72.515924 7.858828,72.20375 c -0.038727,-0.940046 1.369578,-3.460914 4.22492,-7.568476 0.117358,-0.158434 0.254669,-0.314522 0.410756,-0.469435 0.352077,-0.586794 0.724104,-1.134861 1.11491,-1.643025 1.016328,-1.604296 2.209867,-3.422184 3.579445,-5.457188 0.508164,-0.704153 0.782785,-1.251045 0.821513,-1.643024 0.117359,-0.625524 -0.09741,-1.231096 -0.645473,-1.81789 -0.273448,-0.27462 -0.469436,-0.685376 -0.586795,-1.233441 -0.11736,-0.509339 -0.156088,-0.997551 -0.11736,-1.466987 1.525666,-11.774617 5.867946,-21.37927 13.026838,-28.810435 2.620624,-2.701601 5.653178,-4.911469 9.095314,-6.633125 z"
     clip-rule="evenodd"
     fill-rule="evenodd" /></svg>
