<?xml version="1.0" encoding="utf-8"?>
<!-- Generator: Adobe Illustrator 15.1.0, SVG Export Plug-In . SVG Version: 6.00 Build 0)  -->
<!DOCTYPE svg PUBLIC "-//W3C//DTD SVG 1.1//EN" "http://www.w3.org/Graphics/SVG/1.1/DTD/svg11.dtd">
<svg version="1.1" xmlns="http://www.w3.org/2000/svg" xmlns:xlink="http://www.w3.org/1999/xlink" x="0px" y="0px" width="300px"
	 height="300px" viewBox="0 0 300 300" enable-background="new 0 0 300 300" xml:space="preserve">
<g id="Calque_2">
</g>
<g id="Calque_1">
	<g>
		<path fill-rule="evenodd" clip-rule="evenodd" fill="#FFFFFF" d="M240.903,180.134c-11.631-6.325-22.111-13.802-31.018-22.854
			c7.966-0.555,16.262-1.766,13.061-4.896c4.837-8.057-15.499,8.445-17.957-1.633c2.372-0.893,8.439,1.909,8.162-1.633
			c-22.51,2.378-31.476-8.79-44.076-16.324c2.507-2.516,4.438-5.892,3.266-8.163c-5.58-1.38-24.982,12.97-31.016,1.632
			c-6.19,12.467-39.745,11.083-39.179-6.529c1.272-0.361,1.897-1.368,1.633-3.265c4.43,1.01,12.956-2.073,14.691,1.633
			c-1.379,3.52-10.407-0.613-11.427,3.264c4.354,0,8.706,0,13.06,0c2.818-0.988-0.126-7.741,3.265-8.162
			c47.569-25.523,110.287,5.598,164.875-8.162c-17.673-56.871-58.222-90.871-120.8-102.844c-11.969,0-23.942,0-35.913,0
			C69.035,14.254,28.465,48.232,10.73,105.042c28.332-4.391,49.765,3.083,75.092,1.633c23.673-1.355,41.436-17.597,60.4-19.589
			c13.929-1.464,41.635,2.519,45.708,13.059c-34.97-5.273-63.213,9.473-91.416,16.325c-0.528,31.469,41.458,18.588,63.665,16.324
			c9.481,6.529,23.951,14.268,40.811,26.118c17.118,12.033,55.104,30.466,26.119,44.076c-22.739-2.841-38.623-21.222-52.238-27.75
			c4.817,15.769,34.425,16.311,35.914,31.016c3.245,32.014-42.014-5.89-45.709-3.266c9.353,5.34,16.755,12.633,26.119,17.957
			c-14.204,23.523-31.683-14.612-50.604-6.53c11.464,2.14,21.884,5.325,26.118,14.693c-18.139,13.209-36.326-8.518-50.604-14.693
			c-7.55,7.5-28.863,5.259-21.222-9.794c7.995-0.325,11.974,11.902,17.957,8.162c-26.049-21.72-55.401-48.198-109.374-32.649
			c17.541,59.678,58.815,106.664,127.33,112.639c85.218,7.432,137.532-45.5,156.714-112.639
			C275.187,178.748,255.556,173.748,240.903,180.134z M77.66,188.297c7.579,0.584,10.764,5.561,13.059,11.427
			C82.532,199.749,76.754,197.365,77.66,188.297z M120.104,229.108c-0.215-4.024-0.248-7.867,1.632-9.796
			c6.54,3.256,13.05,6.54,19.589,9.796C137.194,233.878,124.341,233.22,120.104,229.108z"/>
	</g>
</g>
</svg>
