<svg xmlns="http://www.w3.org/2000/svg" width="33.035" height="25.42" viewBox="0 0 33.035 25.42">
    <defs>
        <style>
            .cls-1{fill:#fff}
        </style>
    </defs>
    <path id="Acteurs_EÌtatiques" d="M31.328 12.039a8.626 8.626 0 0 0-2.109 1.516l-2.209 2.318a2.247 2.247 0 0 0-2.912.089 1.715 1.715 0 0 0-.2 2.229v.089a1.989 1.989 0 0 0-2.209 0 1.371 1.371 0 0 0-.7 1.605l-.2.178a2.052 2.052 0 0 0-1.908.089 1.831 1.831 0 0 0-.8 1.516l-.6.357a1.67 1.67 0 0 0-1.305.268 1.4 1.4 0 0 0-.7 1.248l-.3.178a1.044 1.044 0 0 1-.7.178.93.93 0 0 1-.6-.357.782.782 0 0 1-.2-.624.825.825 0 0 1 .4-.535l3.213-2.14a.486.486 0 0 0 .3-.446.627.627 0 0 0-.6-.624.664.664 0 0 0-.4.089l-5.121 3.3a1.285 1.285 0 0 1-1 .178 1.089 1.089 0 0 1-.9-.446 1.063 1.063 0 0 1 .3-1.605l6.125-3.834a.644.644 0 0 0 .2-.446c0-.357-.3-.535-.6-.624a.82.82 0 0 0-.5.178l-6.056 3.747c-.1.089-.3.178-.4.268a1.993 1.993 0 0 1-2.211-.176 1.029 1.029 0 0 1 .2-1.516l.6-.357 6.627-4.013a.486.486 0 0 0 .3-.446.741.741 0 0 0-.3-.535.529.529 0 0 0-.7 0l-7.129 4.28c0 .089-.1.089-.2.178l-.6.446a1.391 1.391 0 0 1-1.807-.268 1.063 1.063 0 0 1 .3-1.605l13.353-8.83a6.571 6.571 0 0 1 1.908 1.694c1.305 3.656 2.912 3.656 3.916 3.21a1.031 1.031 0 0 0 .6-1.248 19.476 19.476 0 0 1-.8-4.191 6.585 6.585 0 0 0-2.912-2.051l4.318.089h1.4a4.568 4.568 0 0 0 1.908-.446l5.422-2.854V0l-6.121 3.121a3.639 3.639 0 0 1-1.607.446l-8.032-.089a2.37 2.37 0 0 1-.8-.268 12.845 12.845 0 0 0-5.824 0 4.372 4.372 0 0 1-3.016-.267L0 0v11.949l.8.357a6.417 6.417 0 0 1 2.611 2.408l-.4.268a2.067 2.067 0 0 0-.7 3.121 2.508 2.508 0 0 0 1.707.981h1a2.037 2.037 0 0 0 .5 1.338 2.746 2.746 0 0 0 2.008.892h.6a1.777 1.777 0 0 0 .5 1.516 2.8 2.8 0 0 0 1.707.892h.3a2.87 2.87 0 0 0 1.707-.446l.3-.178a1.492 1.492 0 0 0 .4.892 2.449 2.449 0 0 0 1.506.8h.2a2.521 2.521 0 0 0 1.406-.357l.3.357a1.9 1.9 0 0 0 2.41.357 1.546 1.546 0 0 0 .6-1.873l.1.089a2.153 2.153 0 0 0 2.309.624 1.506 1.506 0 0 0 1-1.962 2.025 2.025 0 0 0 2.41.268 1.554 1.554 0 0 0 .6-2.051 2.219 2.219 0 0 0 2.811-.089 1.715 1.715 0 0 0 .2-2.229l-.9-1.248 2.109-2.14a7.238 7.238 0 0 1 1.908-1.427l1-.535v-1.427z" class="cls-1"/>
</svg>
