<?xml version="1.0" encoding="utf-8"?>
<!-- Generator: Adobe Illustrator 23.1.1, SVG Export Plug-In . SVG Version: 6.00 Build 0)  -->
<svg version="1.1" id="Calque_1" xmlns="http://www.w3.org/2000/svg" xmlns:xlink="http://www.w3.org/1999/xlink" x="0px" y="0px"
	 viewBox="0 0 38.1 34.1" style="enable-background:new 0 0 38.1 34.1;" xml:space="preserve">
<style type="text/css">
	.st0{fill:#ffffff;}
</style>
<g>
	<polygon class="st0" points="15.1,15.1 11.1,15.1 11.1,13.1 15.1,13.1 15.1,7.1 9.1,7.1 9.1,9.1 13.1,9.1 13.1,11.1 9.1,11.1 
		9.1,17.1 15.1,17.1 	"/>
	<polygon class="st0" points="3.2,9.1 5.2,9.1 5.2,17.1 7.1,17.1 7.1,7.1 3.2,7.1 	"/>
	<polygon class="st0" points="33,25 29,25 29,27 33,27 33,29 29,29 29,31 35,31 35,21 29,21 29,23 33,23 	"/>
	<polygon class="st0" points="25,31 27,31 27,21 23,21 23,23 25,23 	"/>
	<path class="st0" d="M36.9,1.2L36.9,1.2L36.9,1.2C36.1,0.4,35.1,0,34,0H4.1C1.8,0,0,1.8,0,4.1V30c0,2.3,1.8,4.1,4.1,4.1H34
		c2.3,0,4.1-1.8,4.1-4.1V4.1C38.1,3,37.7,2,36.9,1.2z M2.3,4.1c0-1,0.8-1.7,1.7-1.7v0h29.3L10.1,25.6l-7.8-7.8V4.1z M4.1,31.8
		c-1,0-1.8-0.8-1.7-1.8c0,0,0,0,0,0l0,0v-7.4l9.2,9.2H4.1z M35.8,30c0,1-0.8,1.7-1.7,1.7l0,0H16.3l-4-4L35.8,4.7V30z"/>
</g>
</svg>
