<svg xmlns="http://www.w3.org/2000/svg" id="Divisions_Territoriales" width="36.475" height="38.6" viewBox="0 0 36.475 38.6">
    <defs>
        <style>
            .cls-1{fill:#fff}
        </style>
    </defs>
    <path id="Tracé_4065" d="M19.1 34.3v-1.9l-2.4.5v.3l.2.4V34.5a.864.864 0 0 0 .3.6.1.1 0 0 0 .1.1v.1l.2.2h.1v.1l.8 1.5v.4l-.1.1h-.1v.2c0 .1.1.1.1.2a1.205 1.205 0 0 0 .5.5l.1.1h.2c.1 0 .2 0 .2-.1h.8l.1-.1h1.6v-.1h.4v-.1l.1-.1 1.4-1.3.4-.4a.1.1 0 0 1 .1-.1c0-.1.1-.1.2-.2l.1-.1c.1-.1.2-.2.3-.2a1.205 1.205 0 0 0 .5-.5v-.8a.1.1 0 0 0-.1-.1v-.2a.1.1 0 0 1 .1-.1c.3-.1.5-.3.8-.3h.1L25 30.4z" class="cls-1" data-name="Tracé 4065" transform="translate(.1)"/>
    <path id="Tracé_4066" d="M27.7 16.6l.1-.3.7-3.7-1 .5-9.5.8L2.9 5.5h-.6a.367.367 0 0 0-.1.3v.1a.1.1 0 0 1-.1.1v.2l-.1.1-.2.1c-.1 0-.1.1-.1.2l-.2.1-.1.1c-.1.2-.2.3-.2.4s-.1.1-.1.2l-.1.1a.215.215 0 0 0-.2.2l-.1.1v.4l.1.1c0 .1 0 .1.1.1a.1.1 0 0 0 .1.1v.2L.8 9l-.1.1.1.2V9.9c0 .1-.1.1-.1.2l-.1.2v.2H.5l-.1.1c0 .1-.1.1-.1.2v.1q0 .15-.3.3l-.1.1v.1l.2.3-.1.5v.4a.1.1 0 0 0 .1.1v.1h.2a.215.215 0 0 0 .2.2c.1.1.1.1.2 0v.2a.1.1 0 0 0 .1.1l.1.1c.1.6.1.6.2.6a.1.1 0 0 1 .1.1v.1c0 .1 0 .1.1.1s.1 0 .1.1l.1.1.2.2c0 .1.1.1.1.2v.4c.1 0 .1.1.1.2a.215.215 0 0 0 .2.2l.1.1.4.3.4.3h.1l.1.1.2.2h.1l.1.1.1.2c.1.1.3.2.4.3l.1.1c0 .1.1.1.2.1s.1.1.2.1h.5c.1 0 .1-.1.2-.1h.5a.349.349 0 0 1 .2-.1h.1a.139.139 0 0 1 .2 0h1.1c.1 0 .1 0 .2.1s.1.1.2.1a.367.367 0 0 0 .3-.1.367.367 0 0 1 .3-.1.1.1 0 0 0 .1-.1.367.367 0 0 1 .3-.1c.1 0 .1-.1.2-.1h.3c.1 0 .2 0 .2-.1v-.1h1.9l.3.3c0 .1 0 .1.1.2a.1.1 0 0 0 .1.1v.1a.215.215 0 0 0 .2.2h.4c.1 0 .2 0 .2-.1h.5a.367.367 0 0 0 .3-.1.1.1 0 0 1 .1-.1.1.1 0 0 0 .1.1h.2v.2h.4v.1c0 .1 0 .2.1.2s.1.1.1.2v.5c0 .1.1.1.2.1h.3v.5h-.7a.215.215 0 0 0-.2.2v.2H14v.2h-.2c-.1 0-.1.1 0 .2v.2c0 .1 0 .1.1.2a.781.781 0 0 0 .4.4l14.2-3.1z" class="cls-1" data-name="Tracé 4066" transform="translate(.1)"/>
    <path id="Tracé_4067" d="M36.3 13.8v-.2c.1-.1.1-.2 0-.2a.139.139 0 0 0-.2 0h-.2l-.1.1a.1.1 0 0 0-.1.1c-.1 0-.1.1-.2.1h-.1a.764.764 0 0 0-.5.2h-.5l-.2.2-.2-.1h-.5l-.5.2h-.3l-.1-.1-.1-.1-.1-.1-.1-.1c0-.1-.1-.1-.2-.1 0-.1-.1-.1-.2-.1l.1-.1c.1 0 .1 0 .2-.1v-.3c0-.1-.1-.1-.2-.2v-.1l-.1-.1-.3-.3a.1.1 0 0 0-.1-.1h-.1c-.1-.1-.2-.3-.3-.4a.1.1 0 0 1-.1-.1.349.349 0 0 1-.2-.1h-.1l-1 4.7 1.5 3.2.6 1.2a.1.1 0 0 0 .1-.1.1.1 0 0 0 .1-.1l.2-.2.1-.1c.1 0 .1-.1.1-.2l.3-.2.1-.1.1-.1.4-.4.1-.1.1-.1a.349.349 0 0 1 .2-.1.215.215 0 0 0 .2-.2.1.1 0 0 0 .1-.1l.1-.1v-.1a.1.1 0 0 1 .1-.1.1.1 0 0 0 .1-.1l.3-.3.1-.1.5-.8.1-.1a.1.1 0 0 1 .1-.1 3.506 3.506 0 0 1 .6-1.4.1.1 0 0 1 .1-.1v-.2c.1 0 .1-.1.1-.2V14.4l.1-.1v-.2-.3z" class="cls-1" data-name="Tracé 4067" transform="translate(.1)"/>
    <path id="Tracé_4068" d="M30.7 25.9a.349.349 0 0 0-.1-.2l-.1-.1v-.4c0-.1 0-.1-.1-.2v-.3c0-.1.1-.2 0-.3v-.2a.1.1 0 0 1 .1-.1v-.2l-.1-.1-.1-.1-.1-.1v-.3a1.689 1.689 0 0 0 .2-.5v-.1c.1-.1.1-.1.1-.2L29.3 20l-13.6 3v.1a.349.349 0 0 0-.1.2.1.1 0 0 0 .1.1v.1c0 .1.1.1.1.2v.1c0 .1.1.1.1.2v.7a.187.187 0 0 0 0 .3v.1c0 .1 0 .1.1.2a.1.1 0 0 0 .1.1c0 .1 0 .1.1.1v1h-.1a.1.1 0 0 0-.1.1v.2l-.1.1a.349.349 0 0 0-.1.2l-.1.2v.1c0 .1 0 .1-.1.2v.6c-.1 0-.1.1-.1.2v.2c-.1.1-.1.2 0 .2v.1c0 .1-.1.1-.1.2a1.421 1.421 0 0 0 .2.6l.1.1c.2.3.4.7.6 1l4.7-.9v.9l5.8-3.5 1.1 3 .3-.2h.2a.1.1 0 0 0 .1-.1c0-.1.1-.1.1-.2l.1-.1.1-.1.7-.3h.3l.1-.1c.1-.1.2-.1.3-.2l.1-.1v-.1l.1-.1c.1 0 .1-.1.2-.1l.1-.1v-.2l.1-.1a.187.187 0 0 0 0-.3V26.6l.2-.3v-.1c-.2-.1-.2-.2-.3-.3z" class="cls-1" data-name="Tracé 4068" transform="translate(.1)"/>
    <path id="Tracé_4069" d="M27.1 11.4l1.9-.9v-.7c-.1-.1-.2-.1-.3-.2v-.7l-.1-.4v-.2c0-.1 0-.1-.1-.2l-.1-.1v-.2a1.024 1.024 0 0 0-.6-.5c-.1 0-.1-.1-.2-.1v-.5a1 1 0 0 1-.4-.5 5.582 5.582 0 0 0-.5-.8c-.1-.1-.1-.2-.2-.3v-.2c0-.1 0-.1-.1-.2-.2-.1-.3-.3-.4-.4v-.2c0-.1 0-.1-.1-.1v-.1a1 1 0 0 1 .4.5.1.1 0 0 0 .1.1l.1.1h.1l.1.1c0 .1.1.1.2 0s.1-.1.1-.2V3.9a.52.52 0 0 0-.2-.4c0-.1-.1-.1-.1-.2s0-.2-.1-.2V3a.349.349 0 0 0-.1-.2h-.8c-.1 0-.1-.1-.2-.1l-.1-.1a.187.187 0 0 0-.3 0h-.5l-.1.1c-.1.1-.2.1-.3.2h-.1c-.1 0-.1.1-.1 0h-1.6a.1.1 0 0 0-.1-.1c-.1 0-.1-.1-.2-.1h-.7l-.1-.2a.349.349 0 0 1-.2-.1h-.7l-.1.1-.2.1-.1.1a.1.1 0 0 0-.1.1V3c0 .1 0 .1.1.2v.2c-.1.1-.2.3-.3.3h-.2a.1.1 0 0 1-.1-.1l-.1-.1a.1.1 0 0 1-.1-.1h-.3a.349.349 0 0 1-.2-.1h-.2c-.1 0-.2-.1-.3-.1-.1-.1-.3-.2-.4-.3v-.2c0-.1 0-.1-.1-.1s-.1-.1-.2-.1l-.4-.1h-1v-.1l-.1-.1v-.1c0-.1 0-.2-.1-.2h-.3l-.1-.1v-.1l-.5-.2c.1-.1.2-.2.2-.3V.9c0-.1-.1-.1-.1-.2L15 .6V.5l.1-.1.1-.1V.1h-.1l-.1.1-.1-.1-.1-.1a.952.952 0 0 0-.7.2h-.2c-.1 0-.1-.1-.2-.1h-.4A.367.367 0 0 0 13 0h-1.5l-.5.3h-.4c-.1 0-.2 0-.2.1-.1 0-.1.1-.2.1l-.1.1h-.5l-.1.1a.215.215 0 0 1-.2.2h-.5a.139.139 0 0 0-.2 0h-.7c0-.1-.1-.2-.1-.3a.1.1 0 0 0-.1-.1c-.1 0-.1 0-.2.1-.1 0-.1.1-.2.2v.1c-.2 0-.3.2-.5.4v.1a.349.349 0 0 1-.2.1h-.1a.1.1 0 0 0-.1.1 1.934 1.934 0 0 0-.9.5v.2a.536.536 0 0 0-.3.4.1.1 0 0 1-.1.1V3.4c-.1.1-.1.1-.1.2a5.5 5.5 0 0 1-.9.7l14.2 7.9z" class="cls-1" data-name="Tracé 4069" transform="translate(.1)"/>
    <path id="Tracé_4070" d="M35.7 28.6v-1.3c-.1-.1-.1-.2-.2-.2 0-.1-.1-.1-.2-.1a.1.1 0 0 0-.1.1l-.1.1v.5H35c-.1 0 0 .1-.1.1h-.1l-.1.1v.1a.1.1 0 0 1-.1.1c-.1.1 0 .1 0 .2h-.3c0 .1-.1.1-.1.2v.1h-.1c-.1 0-.1 0-.1.1-.1.1-.1.1-.1.2l.1.1v-.1c-.1-.1-.2 0-.3 0h-.5v.2a1.756 1.756 0 0 1-.4.5c.1.1.1.2.2.3v1a5.937 5.937 0 0 1-.4.8l-.2.2c-.1 0 0 .2-.1.2V32.4c0 .1.1.1.1.2v.7c0 .1 0 .2.1.2 0 .1.1.1.2.2l.1.1.1.1a.1.1 0 0 1 .1.1h.2l.3-.2h.4c.2-.1.3-.2.3-.4v-.1l.1-.3a2.994 2.994 0 0 1 .4-.8c.1-.2.2-.3.2-.5l.1-.3.3-.7.1-.3v-.2a.1.1 0 0 1 .1-.1c0-.1 0-.1.1-.2v-.1c0-.1 0-.1.1-.2v-.2a.349.349 0 0 1 .1-.2.1.1 0 0 1 .1-.1v-.6a.1.1 0 0 0 .1.1h.1a.139.139 0 0 0 0-.2v-.1c-.4.5-.4.5-.4.3 0 .1-.1.1 0 0z" class="cls-1" data-name="Tracé 4070" transform="translate(.1)"/>
</svg>
