<?xml version="1.0" encoding="UTF-8" standalone="no"?>
<!-- Created with Inkscape (http://www.inkscape.org/) -->

<svg
   xmlns:dc="http://purl.org/dc/elements/1.1/"
   xmlns:cc="http://creativecommons.org/ns#"
   xmlns:rdf="http://www.w3.org/1999/02/22-rdf-syntax-ns#"
   xmlns:svg="http://www.w3.org/2000/svg"
   xmlns="http://www.w3.org/2000/svg"
   xmlns:sodipodi="http://sodipodi.sourceforge.net/DTD/sodipodi-0.dtd"
   xmlns:inkscape="http://www.inkscape.org/namespaces/inkscape"
   width="42.333mm"
   height="42.333mm"
   viewBox="0 0 42.333 42.333"
   version="1.1"
   id="svg8"
   inkscape:version="0.92.4 (5da689c313, 2019-01-14)">
  <defs
     id="defs2" />
  <sodipodi:namedview
     id="base"
     pagecolor="#ffffff"
     bordercolor="#666666"
     borderopacity="1.0"
     inkscape:pageopacity="0.0"
     inkscape:pageshadow="2"
     inkscape:zoom="0.98994949"
     inkscape:cx="559.56113"
     inkscape:cy="814.59185"
     inkscape:document-units="mm"
     inkscape:current-layer="layer1"
     showgrid="false"
     inkscape:window-width="3840"
     inkscape:window-height="2115"
     inkscape:window-x="-13"
     inkscape:window-y="-13"
     inkscape:window-maximized="1" />
  <metadata
     id="metadata5">
    <rdf:RDF>
      <cc:Work
         rdf:about="">
        <dc:format>image/svg+xml</dc:format>
        <dc:type
           rdf:resource="http://purl.org/dc/dcmitype/StillImage" />
        <dc:title></dc:title>
      </cc:Work>
    </rdf:RDF>
  </metadata>
  <g
     inkscape:label="Layer 1"
     inkscape:groupmode="layer"
     id="layer1"
     transform="translate(0,-254.667)">
    <g
       id="layer1-5"
       inkscape:label="Layer 1"
       transform="translate(-97.795199,176.70009)">
      <g
         transform="matrix(4.3865317,0,0,4.1450451,-296.36844,-348.97249)"
         inkscape:label="Layer 1"
         id="layer1-4">
        <g
           id="g831"
           transform="matrix(0.26458333,0,0,0.26458333,89.884156,102.99994)"
           style="fill:#ffffff">
          <path
             id="path817"
             d="m 19.1,34.3 v -1.9 l -2.4,0.5 c 0,0.1 0,0.1 0,0.2 0,0 0,0.1 0,0.1 l 0.2,0.4 c 0,0.1 0,0.2 0,0.2 0,0.1 0,0.2 0,0.2 0,0 0,0 0,0 0,0 0,0.1 0,0.1 0,0 0,0.1 0,0.1 0,0 0,0 0,0 0,0 0,0.1 0,0.1 0,0.1 0,0.1 0,0.2 0,0.2 0.1,0.4 0.3,0.6 0,0 0,0.1 0.1,0.1 0,0 0,0 0,0.1 v 0 l 0.2,0.2 c 0,0 0,0 0.1,0 0,0.1 0,0.1 0,0.1 l 0.8,1.5 v 0 c 0,0 0,0 0,0 0,0 0,0 0,0 0,0 0,0.1 0,0.1 0,0 0,0 0,0.1 0,0 0,0.1 0,0.1 0,0 0,0.1 0,0.1 0,0 -0.1,0.1 -0.1,0.1 0,0 -0.1,0 -0.1,0 0,0 0,0.1 0,0.1 0,0 0,0.1 0,0.1 0,0.1 0.1,0.1 0.1,0.2 0.1,0.2 0.3,0.4 0.5,0.5 0,0 0.1,0.1 0.1,0.1 0,0 0,0 0,0 H 19 c 0,0 0.1,0 0.1,0 0.1,0 0.2,0 0.2,-0.1 0,0 0,0 0,0 0,0 0,0 0.1,0 0,0 0.1,0 0.1,0 0.1,0 0.1,0 0.2,0 0.1,0 0.2,0 0.4,0 0,0 0,0 0,0 l 0.1,-0.1 c 0,0 0.1,0 0.1,0 0.1,0 0.1,0 0.2,0 v 0 0 c 0,0 0.1,0 0.1,0 0,0 0,0 0,0 0,0 0,0 0,0 0.1,0 0.1,0 0.2,0 0,0 0.1,0 0.1,0 H 21 c 0,0 0.1,0 0.1,0 h 0.1 c 0.1,0 0.1,0 0.2,0 v 0 0 c 0.1,0 0.1,0 0.2,0 v 0 c 0.1,0 0.1,0 0.2,0 v 0 -0.1 c 0.1,0 0.1,0 0.2,0 0.1,0 0.2,0 0.2,0 0,0 0,0 0,0 v -0.1 c 0,0 0.1,-0.1 0.1,-0.1 l 1.4,-1.3 0.4,-0.4 v 0 c 0,0 0,-0.1 0.1,-0.1 0,0 0,0 0,0 0,0 0,0 0,0 0,-0.1 0.1,-0.1 0.2,-0.2 0,0 0.1,-0.1 0.1,-0.1 0.1,-0.1 0.2,-0.2 0.3,-0.2 0.2,-0.1 0.4,-0.3 0.5,-0.5 0,0 0,0 0,0 0,-0.1 0,-0.1 0,-0.1 0,0 0,0 0,0 v -0.1 c 0,0 0,0 0,0 0,0 0,-0.1 0,-0.1 v 0 c 0,0 0,0 0,-0.1 0,0 0,-0.1 0,-0.1 0,0 0,-0.1 0,-0.1 v 0 c 0,0 0,0 0,0 0,0 0,-0.1 0,-0.1 0,0 0,0 0,-0.1 0,0 0,0 0,0 v 0 c 0,0 0,0 0,0 0,0 0,-0.1 -0.1,-0.1 0,0 0,0 0,0 0,0 0,0 0,0 0,0 0,0 0,-0.1 0,0 0,0 0,-0.1 0,0 0,-0.1 0.1,-0.1 0.3,-0.1 0.5,-0.3 0.8,-0.3 0,0 0,0 0.1,0 L 25,30.4 Z"
             class="st0"
             inkscape:connector-curvature="0"
             style="fill:#ffffff" />
          <path
             id="path819"
             d="m 27.7,16.6 0.1,-0.3 0.7,-3.7 -1,0.5 L 18,13.9 2.9,5.5 H 2.3 C 2.2,5.6 2.2,5.7 2.2,5.8 c 0,0 0,0.1 0,0.1 0,0 0,0.1 -0.1,0.1 0,0 0,0 0,0.1 0,0 0,0.1 0,0.1 0,0 0,0 0,0 0,0 0,0 0,0 C 2.1,6.2 2,6.3 2,6.3 L 1.8,6.4 v 0 C 1.7,6.4 1.7,6.5 1.7,6.6 L 1.5,6.7 c 0,0 -0.1,0.1 -0.1,0.1 v 0 C 1.3,7 1.2,7.1 1.2,7.2 1.2,7.3 1.1,7.3 1.1,7.4 1.1,7.4 1,7.5 1,7.5 0.9,7.5 0.8,7.6 0.8,7.7 c 0,0 -0.1,0.1 -0.1,0.1 v 0 c 0,0 0,0 0,0 0,0 0,0.1 0,0.1 0,0.1 0,0.1 0,0.2 v 0 c 0,0 0,0.1 0,0.1 l 0.1,0.1 c 0,0.1 0,0.1 0.1,0.1 v 0 c 0,0 0,0.1 0.1,0.1 v 0 c 0,0 0,0.1 0,0.1 0,0 0,0 0,0.1 v 0 L 0.8,9 v 0 c 0,0 -0.1,0.1 -0.1,0.1 0,0 0,0 0,0 l 0.1,0.2 c 0,0.1 0,0.2 0,0.2 0,0 0,0.1 0,0.1 0,0 0,0.1 0,0.1 0,0 0,0 0,0 0,0 0,0 0,0 0,0 0,0.1 0,0.1 V 9.9 C 0.8,10 0.7,10 0.7,10.1 l -0.1,0.2 c 0,0 0,0 0,0 0,0.1 0,0.1 0,0.2 0,0 0,0 -0.1,0 l -0.1,0.1 c 0,0.1 -0.1,0.1 -0.1,0.2 0,0 0,0.1 0,0.1 v 0 c 0,0.1 -0.1,0.2 -0.3,0.3 0,0 -0.1,0.1 -0.1,0.1 0,0 0,0 0,0 0,0 0,0 0,0 0,0 0,0 0,0 v 0.1 c 0,0 0,0 0,0 l 0.2,0.3 c 0,0 -0.1,0.5 -0.1,0.5 v 0.1 c 0,0.1 0,0.1 0,0.2 0,0 0,0.1 0,0.1 0,0 0,0 0,0 0,0 0,0.1 0.1,0.1 0,0 0,0.1 0,0.1 0,0 0,0 0,0 0,0 0,0 0.1,0 0.1,0 0.1,0 0.1,0 0,0.1 0.1,0.2 0.2,0.2 v 0 c 0.1,0.1 0.1,0.1 0.2,0 0,0 0,0 0,0 0,0 0,0 0,0 v 0 0 c 0,0 0,0.1 0,0.1 v 0.1 c 0,0 0,0 0,0 0,0 0,0 0,0 0,0 0,0.1 0.1,0.1 0,0 0.1,0.1 0.1,0.1 C 1,14 1,14 1.1,14 c 0,0 0,0 0,0 0,0 0,0 0,0 v 0 c 0,0 0,0 0,0 0,0 0.1,0 0.1,0.1 0,0 0,0.1 0,0.1 0,0 0,0 0,0 0,0 0,0 0,0 0,0.1 0,0.1 0.1,0.1 0.1,0 0.1,0 0.1,0.1 0,0 0,0 0.1,0.1 0.1,0.1 0.1,0.1 0.2,0.2 0,0.1 0.1,0.1 0.1,0.2 0,0 0,0 0,0 0,0.1 0,0.3 0,0.4 0,0 0,0 0,0 0.1,0 0.1,0.1 0.1,0.2 0,0.1 0.1,0.2 0.2,0.2 v 0 c 0,0 0.1,0.1 0.1,0.1 0,0 0,0 0,0 l 0.4,0.3 0.4,0.3 c 0,0 0,0 0.1,0 0,0 0.1,0.1 0.1,0.1 l 0.2,0.2 v 0 c 0,0 0,0 0.1,0 0,0 0.1,0.1 0.1,0.1 L 3.7,17 c 0.1,0.1 0.3,0.2 0.4,0.3 0,0 0,0 0.1,0.1 0,0.1 0.1,0.1 0.2,0.1 0.1,0 0.1,0.1 0.2,0.1 h 0.1 c 0,0 0,0 0.1,0 0,0 0.1,0 0.1,0 v 0 c 0,0 0,0 0,0 0,0 0.1,0 0.1,0 0,0 0,0 0.1,0 0,0 0,0 0,0 v 0 c 0,0 0,0 0,0 0.1,0 0.1,-0.1 0.2,-0.1 0,0 0,0 0.1,0 0,0 0.1,0 0.1,0 0,0 0.1,0 0.1,0 0,0 0,0 0.1,0 0,0 0.1,0 0.1,0 0,0 0,0 0,0 v 0 0 c 0,0 0.1,-0.1 0.2,-0.1 0,0 0,0 0,0 h 0.1 v 0 0 c 0,0 0.1,-0.1 0.2,0 0,0 0,0 0,0 v 0 c 0,0 0,0 0,0 0,0 0.1,0 0.1,0 0,0 0.1,0 0.1,0 h 0.1 c 0,0 0.1,0 0.1,0 0,0 0.1,0 0.1,0 0,0 0.1,0 0.1,0 0,0 0,0 0,0 H 7 c 0.1,0 0.1,0 0.2,0 h 0.1 v 0 0 c 0,0 0,0 0,0 h 0.1 c 0,0 0,0 0,0 0.1,0 0.1,0 0.2,0.1 0.1,0.1 0.1,0.1 0.2,0.1 0.1,0 0.2,0 0.3,-0.1 0.1,-0.1 0.2,-0.1 0.3,-0.1 0,0 0.1,0 0.1,-0.1 0.1,-0.1 0.2,-0.1 0.3,-0.1 0,0 0,0 0,0 0.1,0 0.1,-0.1 0.2,-0.1 h 0.1 c 0,0 0,0 0.1,0 0,0 0.1,0 0.1,0 0.1,0 0.2,0 0.2,-0.1 0,0 0,-0.1 0,-0.1 0,0 0.1,0 0.1,0 0,0 0.1,0 0.1,0 h 0.1 c 0,0 0.1,0 0.1,0 0,0 0,0 0,0 0,0 0,0 0.1,0 0.1,0 0.1,0 0.2,0 0.1,0 0.1,0 0.2,0 0,0 0,0 0,0 0,0 0,0 0,0 v 0 c 0.1,0 0.3,0 0.4,0 0.1,0 0.2,0 0.4,0 0,0 0,0 0,0 0,0 0,0 0.1,0 0,0 0.1,0 0.1,0 0.1,0.1 0.2,0.2 0.3,0.3 v 0 c 0,0.1 0,0.1 0.1,0.2 0,0 0,0.1 0.1,0.1 0,0 0,0 0,0.1 0,0.1 0.1,0.2 0.2,0.2 0,0 0,0 0.1,0 v 0 c 0.1,0 0.1,0 0.2,0 0,0 0.1,0 0.1,0 0.1,0 0.2,0 0.2,-0.1 0.1,0 0.1,0 0.2,0 v 0 c 0.1,0 0.1,0 0.2,0 0,0 0,0 0,0 0,0 0,0 0.1,0 0.1,0 0.2,0 0.3,-0.1 0,0 0,0 0,0 v 0 c 0,0 0,-0.1 0.1,-0.1 0,0 0,0 0,0 0,0 0,0.1 0.1,0.1 0,0 0,0 0,0 0,0 0.1,0 0.1,0 0,0 0.1,0 0.1,0 0,0 0,0.1 0,0.1 0,0 0,0.1 0,0.1 0,0 0,0 0.1,0 h 0.1 0.1 c 0,0 0.1,0 0.1,0 0,0 0,0 0,0.1 0,0.1 0,0.2 0.1,0.2 v 0 c 0.1,0 0.1,0.1 0.1,0.2 v 0 c 0,0.1 0,0.1 0,0.2 v 0.1 c 0,0.1 0,0.1 0,0.2 0,0.1 0.1,0.1 0.2,0.1 0,0 0.1,0 0.1,0 H 15 c 0,0 0,0.1 0,0.1 0,0 0,0 0,0.1 0,0 0,0.1 0,0.1 0,0.1 0,0.1 0,0.2 -0.1,0 -0.1,0 -0.2,0 0,0 -0.1,0 -0.1,0 h -0.2 c -0.1,0 -0.1,0 -0.2,0 -0.1,0 -0.2,0.1 -0.2,0.2 0,0 0,0 0,0 v 0.1 c 0,0 0,0.1 0,0.1 0,0 0,0 0,0 0,0 0,0 0,0 0,0 0,0 0,0 0,0 0,0 0,0 0,0 -0.1,0 -0.1,0 0,0 0,0.1 0,0.1 v 0 c 0,0 0,0.1 0,0.1 0,0 0,0 0,0 0,0 0,0 -0.1,0 0,0 0,0 -0.1,0 0,0 0,0 0,0 v 0 c -0.1,0 -0.1,0.1 0,0.2 0,0 0,0 0,0 0,0 0,0 0,0 0,0 0,0.1 0,0.1 0,0 0,0.1 0,0.1 0,0 0,0 0,0 v 0 c 0,0.1 0,0.1 0.1,0.2 0.1,0.2 0.2,0.3 0.4,0.4 l 14.2,-3.1 z"
             class="st0"
             inkscape:connector-curvature="0"
             style="fill:#ffffff" />
          <path
             id="path821"
             d="m 36.3,13.8 c 0,0 0,-0.1 0,-0.1 0,-0.1 0,-0.1 0,-0.1 0.1,-0.1 0.1,-0.2 0,-0.2 0,0 -0.1,-0.1 -0.2,0 -0.1,0 -0.2,0 -0.2,0 v 0 c 0,0 -0.1,0.1 -0.1,0.1 0,0 -0.1,0 -0.1,0.1 -0.1,0 -0.1,0.1 -0.2,0.1 h -0.1 c -0.2,0 -0.4,0.1 -0.5,0.2 0,0 0,0 0,0 0,0 0,0 -0.1,0 0,0 -0.1,0 -0.1,0 v 0 c 0,0 -0.1,0 -0.1,0 0,0 0,0 -0.1,0 v 0 c 0,0 0,0 0,0 v 0 c 0,0 -0.1,0 -0.1,0 -0.1,0.1 -0.1,0.1 -0.2,0.2 L 34,14 c 0,0 0,0 0,0 0,0 0,0 -0.1,0 -0.1,0 -0.1,0 -0.2,0 v 0 0 c 0,0 0,0 0,0 -0.1,0 -0.1,0 -0.2,0 L 33,14.2 c -0.1,0 -0.2,0 -0.3,0 0,0 -0.1,-0.1 -0.1,-0.1 v 0 0 c 0,0 -0.1,-0.1 -0.1,-0.1 0,0 -0.1,-0.1 -0.1,-0.1 l -0.1,-0.1 v 0 c 0,-0.1 -0.1,-0.1 -0.2,-0.1 v 0 c 0,-0.1 -0.1,-0.1 -0.2,-0.1 v 0 c 0,0 0,0 0,0 v 0 c 0,0 0,0 0.1,-0.1 0.1,0 0.1,0 0.2,-0.1 0,-0.1 0,-0.1 0,-0.2 0,0 0,-0.1 0,-0.1 0,0 0,0 0,0 0,-0.1 -0.1,-0.1 -0.2,-0.2 0,0 0,0 0,0 v 0 c 0,0 0,-0.1 0,-0.1 0,0 -0.1,-0.1 -0.1,-0.1 -0.1,-0.1 -0.2,-0.2 -0.3,-0.3 0,-0.1 -0.1,-0.1 -0.1,-0.1 0,0 0,0 -0.1,0 v 0 c -0.1,-0.1 -0.2,-0.3 -0.3,-0.4 0,0 -0.1,0 -0.1,-0.1 -0.1,0 -0.2,-0.1 -0.2,-0.1 0,0 -0.1,0 -0.1,0 l -1,4.7 1.5,3.2 0.6,1.2 c 0,0 0.1,0 0.1,-0.1 v 0 c 0.1,0 0.1,-0.1 0.1,-0.1 l 0.2,-0.2 0.1,-0.1 c 0.1,0 0.1,-0.1 0.1,-0.2 l 0.3,-0.2 c 0,0 0.1,-0.1 0.1,-0.1 0,0 0.1,-0.1 0.1,-0.1 l 0.4,-0.4 c 0,0 0.1,-0.1 0.1,-0.1 0,0 0.1,-0.1 0.1,-0.1 0,0 0.1,-0.1 0.2,-0.1 0.1,0 0.2,-0.1 0.2,-0.2 0.1,0 0.1,-0.1 0.1,-0.1 0,0 0.1,-0.1 0.1,-0.1 0,0 0,0 0,0 0,0 0,-0.1 0,-0.1 0,0 0,-0.1 0.1,-0.1 0,0 0.1,0 0.1,-0.1 0,0 0,0 0,0 v 0 L 34.6,18 c 0,0 0,0 0,0 0,0 0.1,-0.1 0.1,-0.1 l 0.5,-0.8 c 0,0 0,0 0,0 0,0 0.1,-0.1 0.1,-0.1 v 0 c 0,0 0,-0.1 0.1,-0.1 0.1,-0.5 0.3,-1 0.6,-1.4 0,0 0,-0.1 0.1,-0.1 0,0 0,-0.1 0,-0.1 0,0 0,0 0,-0.1 0.1,0 0.1,-0.1 0.1,-0.2 0,0 0,0 0,-0.1 0,0 0,-0.1 0,-0.1 0,0 0,0 0,0 0,-0.1 0,-0.1 0,-0.2 0,0 0,-0.1 0,-0.1 0,-0.1 0,-0.1 0,-0.1 l 0.1,-0.1 c 0,0 0,0 0,0 0,-0.1 0,-0.1 0,-0.2 0,-0.2 0,-0.3 0,-0.3 z"
             class="st0"
             inkscape:connector-curvature="0"
             style="fill:#ffffff" />
          <path
             id="path823"
             d="m 30.7,25.9 v 0 c 0,-0.1 -0.1,-0.2 -0.1,-0.2 v 0 l -0.1,-0.1 c 0,0 0,-0.1 0,-0.1 0,0 0,0 0,-0.1 0,0 0,0 0,0 0,0 0,-0.1 0,-0.1 0,0 0,-0.1 0,-0.1 0,-0.1 0,-0.1 -0.1,-0.2 0,0 0,0 0,0 0,0 0,-0.1 0,-0.1 0,-0.1 0,-0.1 0,-0.1 0,0 0,-0.1 0,-0.1 0,-0.1 0.1,-0.2 0,-0.3 0,0 0,-0.1 0,-0.1 v -0.1 0 c 0,0 0,-0.1 0.1,-0.1 0,0 0,0 0,-0.1 0,0 0,0 0,-0.1 0,0 -0.1,-0.1 -0.1,-0.1 0,0 0,0 0,0 0,0 -0.1,-0.1 -0.1,-0.1 0,0 -0.1,-0.1 -0.1,-0.1 v 0 c 0,0 0,-0.1 0,-0.2 0,0 0,0 0,-0.1 0.1,-0.2 0.2,-0.4 0.2,-0.5 0,0 0,-0.1 0,-0.1 0,0 0,0 0,0 0,0 0,0 0,0 0.1,-0.1 0.1,-0.1 0.1,-0.2 L 29.3,20 15.7,23 v 0 c 0,0 0,0.1 0,0.1 v 0 c 0,0 -0.1,0.1 -0.1,0.2 0,0 0,0.1 0.1,0.1 v 0 0 c 0,0 0,0.1 0,0.1 0,0 0,0 0,0 v 0 c 0,0.1 0.1,0.1 0.1,0.2 v 0.1 c 0,0.1 0.1,0.1 0.1,0.2 v 0 c 0,0 0,0.1 0,0.1 0,0 0,0 0,0.1 v 0 c 0,0 0,0.1 0,0.1 0,0 0,0.1 0,0.1 0,0 0,0 0,0 0,0 0,0 0,0 0,0 0,0.1 0,0.1 0,0.1 0,0.1 0,0.2 -0.1,0.1 -0.1,0.2 0,0.3 v 0 c 0,0 0,0.1 0,0.1 v 0 c 0,0.1 0,0.1 0.1,0.2 0,0 0,0.1 0.1,0.1 0,0.1 0,0.1 0.1,0.1 0,0 0,0 0,0 0,0 0,0.1 0,0.2 0,0 0,0.1 0,0.1 v 0.1 c 0,0.1 0,0.1 0,0.2 v 0 0 c 0,0 0,0.1 0,0.1 v 0.1 c 0,0 0,0.1 0,0.1 0,0 0,0.1 0,0.1 0,0 0,0 -0.1,0 0,0 -0.1,0 -0.1,0.1 0,0 0,0 0,0.1 0,0 0,0.1 0,0.1 0,0 0,0 0,0 0,0 -0.1,0.1 -0.1,0.1 0,0 -0.1,0.1 -0.1,0.2 l -0.1,0.2 c 0,0 0,0 0,0 0,0 0,0 0,0 0,0 0,0.1 0,0.1 v 0 c 0,0.1 0,0.1 -0.1,0.2 0,0 0,0.1 0,0.1 0,0 0,0.1 0,0.1 0,0 0,0 0,0.1 0,0 0,0 0,0 0,0 0,0 0,0.1 0,0 0,0.1 0,0.1 0,0 0,0.1 0,0.1 0,0 0,0 0,0 -0.1,0 -0.1,0.1 -0.1,0.2 v 0 c 0,0 0,0.1 0,0.1 0,0 0,0.1 0,0.1 -0.1,0.1 -0.1,0.2 0,0.2 v 0 c 0,0 0,0.1 0,0.1 0,0.1 -0.1,0.1 -0.1,0.2 0,0.2 0.1,0.4 0.2,0.6 0,0 0.1,0.1 0.1,0.1 0.2,0.3 0.4,0.7 0.6,1 L 21,29.9 v 0.9 l 5.8,-3.5 1.1,3 0.3,-0.2 v 0 c 0,0 0.1,0 0.1,0 v 0 0 0 c 0,0 0,0 0.1,0 0,0 0.1,0 0.1,-0.1 0,0 0,0 0,0 0,-0.1 0.1,-0.1 0.1,-0.2 0,0 0.1,-0.1 0.1,-0.1 0,0 0.1,-0.1 0.1,-0.1 l 0.7,-0.3 c 0,0 0.1,0 0.1,0 0.1,0 0.1,0 0.2,0 v 0 c 0,0 0.1,-0.1 0.1,-0.1 0.1,-0.1 0.2,-0.1 0.3,-0.2 v 0 c 0,0 0.1,-0.1 0.1,-0.1 0,0 0,0 0,-0.1 l 0.1,-0.1 c 0.1,0 0.1,-0.1 0.2,-0.1 0,0 0.1,-0.1 0.1,-0.1 0,0 0,0 0,0 0,0 0,0 0,0 0,0 0,-0.1 0,-0.1 0,0 0,-0.1 0,-0.1 0,0 0.1,-0.1 0.1,-0.1 0.1,-0.1 0.1,-0.2 0,-0.3 v -0.1 c 0,0 0,0 0,-0.1 0,0 0,-0.1 0,-0.1 0,0 0,0 0,-0.1 v 0 c 0,-0.1 0,-0.1 0,-0.1 0,0 0,0 0,0 0,0 0,0 0,0 0,0 0,-0.1 0,-0.1 v -0.1 c 0,0 0,0 0,0 0,-0.1 0,-0.2 0,-0.2 0,0 0,-0.1 0,-0.2 0,-0.1 0,-0.2 0,-0.2 0,0 0,0 0,0 L 31,26.3 c 0,0 0,-0.1 0,-0.1 0,0 0,0 0,0 -0.2,-0.1 -0.2,-0.2 -0.3,-0.3 0,0.1 0,0 0,0 z"
             class="st0"
             inkscape:connector-curvature="0"
             style="fill:#ffffff" />
          <path
             id="path825"
             d="M 27.1,11.4 29,10.5 V 9.8 C 28.9,9.7 28.8,9.7 28.7,9.6 c 0,0 0,-0.1 0,-0.1 0,0 0,0 0,-0.1 0,0 0,-0.1 0,-0.2 0,0 0,0 0,-0.1 0,0 0,-0.1 0,-0.2 0,0 0,0 0,0 L 28.6,8.5 c 0,0 0,0 0,-0.1 0,0 0,-0.1 0,-0.1 0,-0.1 0,-0.1 -0.1,-0.2 0,0 0,0 -0.1,-0.1 0,0 0,-0.1 0,-0.1 0,0 0,-0.1 0,-0.1 v 0 C 28.3,7.6 28.1,7.4 27.8,7.3 27.7,7.3 27.7,7.2 27.6,7.2 v 0 c 0,0 0,0 0,0 0,0 0,-0.1 0,-0.1 0,0 0,-0.1 0,-0.1 V 6.9 c 0,0 0,0 0,0 0,0 0,0 0,0 0,0 0,0 0,-0.1 0,0 0,-0.1 0,-0.1 C 27.4,6.6 27.3,6.4 27.2,6.2 27,5.9 26.9,5.6 26.7,5.4 26.6,5.3 26.6,5.2 26.5,5.1 c 0,0 0,-0.1 0,-0.1 v 0 c 0,0 0,0 0,-0.1 0,-0.1 0,-0.1 -0.1,-0.2 v 0 C 26.2,4.6 26.1,4.4 26,4.3 v 0 c 0,0 0,-0.1 0,-0.1 0,0 0,0 0,-0.1 C 26,4 26,4 25.9,4 v 0 c 0,0 0,-0.1 0,-0.1 0.2,0.1 0.3,0.3 0.4,0.5 0,0 0,0.1 0.1,0.1 0,0 0,0 0,0 l 0.1,0.1 v 0 c 0,0 0,0 0.1,0 0,0 0.1,0.1 0.1,0.1 0,0.1 0.1,0.1 0.2,0 0,0 0,0 0,0 C 27,4.6 27,4.6 27,4.5 v 0 c 0,0 0,-0.1 0,-0.1 0,0 0,-0.1 0,-0.1 0,0 0,0 0,0 0,0 0,0 0,-0.1 v 0 c 0,0 0,0 0,-0.1 v 0 c 0,0 0,0 0,-0.1 0,0 0,-0.1 0,-0.1 0,0 0,0 0,0 0,-0.2 -0.1,-0.3 -0.2,-0.4 0,-0.1 -0.1,-0.1 -0.1,-0.2 0,-0.1 0,-0.2 -0.1,-0.2 0,0 0,0 0,-0.1 0,-0.1 -0.1,-0.2 -0.1,-0.2 -0.1,0 -0.1,0 -0.2,0 -0.1,0 0,0 -0.1,0 0,0 0,0 -0.1,0 v 0 c 0,0 0,0 0,0 0,0 -0.1,0 -0.1,0 v 0 c -0.1,0 -0.1,0 -0.2,0 h -0.1 c -0.1,0 -0.1,-0.1 -0.2,-0.1 0,0 -0.1,-0.1 -0.1,-0.1 -0.1,-0.1 -0.2,-0.1 -0.3,0 v 0 c 0,0 -0.1,0 -0.1,0 0,0 0,0 0,0 v 0 0 c -0.1,0 -0.1,0 -0.2,0 -0.1,0 -0.2,0 -0.2,0 l -0.1,0.1 c -0.1,0.1 -0.2,0.1 -0.3,0.2 0,0 0,0 -0.1,0 -0.1,0 -0.1,0.1 -0.1,0 0,0 0,0 0,0 0,0 -0.1,0 -0.1,0 -0.1,0 -0.1,0 -0.2,0 h -0.1 c 0,0 -0.1,0 -0.2,0 0,0 0,0 -0.1,0 0,0 0,0 0,0 0,0 -0.1,0 -0.1,0 0,0 -0.1,0 -0.1,0 0,0 -0.1,0 -0.1,0 0,0 -0.1,0 -0.1,0 v 0 h -0.1 v 0 c -0.1,0 -0.1,0 -0.2,0 v 0 c -0.1,0 -0.2,0 -0.2,0 v 0 c 0,0 0,-0.1 -0.1,-0.1 -0.1,0 -0.1,-0.1 -0.2,-0.1 -0.1,0 -0.1,0 -0.2,0 -0.1,0 -0.1,0 -0.2,0 v 0 h -0.1 c 0,0 -0.1,0 -0.1,0 0,0 0,0 -0.1,0 L 21.3,2.5 c 0,0 0,0 0,0 -0.1,0 -0.2,-0.1 -0.2,-0.1 v 0 0 c 0,0 -0.1,0 -0.1,0 0,0 -0.1,0 -0.1,0 0,0 0,0 0,0 h -0.1 c 0,0 0,0 -0.1,0 0,0 -0.1,0 -0.1,0 0,0 0,0 -0.1,0 0,0 -0.1,0 -0.1,0 0,0 0,0 0,0 0,0 -0.1,0.1 -0.1,0.1 v 0 l -0.2,0.1 v 0 c 0,0 0,0 -0.1,0.1 -0.1,0 -0.1,0.1 -0.1,0.1 v 0 c 0,0.1 0,0.1 0,0.2 0,0.1 0,0.1 0.1,0.2 v 0 c 0,0.1 0,0.1 0,0.2 v 0 0 c -0.1,0.1 -0.2,0.3 -0.3,0.3 0,0 -0.1,0 -0.1,0 0,0 -0.1,0 -0.1,0 -0.1,0 -0.1,-0.1 -0.1,-0.1 0,0 -0.1,-0.1 -0.1,-0.1 0,0 -0.1,0 -0.1,-0.1 v 0 0 c 0,0 -0.1,0 -0.1,0 0,0 -0.1,0 -0.1,0 H 18.9 C 18.8,3.4 18.7,3.3 18.7,3.3 H 18.5 C 18.4,3.3 18.3,3.2 18.2,3.2 18.1,3.1 17.9,3 17.8,2.9 c 0,0 0,-0.1 0,-0.1 0,0 0,-0.1 0,-0.1 0,-0.1 0,-0.1 -0.1,-0.1 v 0 C 17.6,2.6 17.6,2.5 17.5,2.5 L 17.1,2.4 c 0,0 -0.1,0 -0.1,0 0,0 -0.1,0 -0.1,0 v 0 c -0.1,0 -0.1,0 -0.2,0 v 0 c -0.1,0 -0.1,0 -0.2,0 0,0 -0.1,0 -0.1,0 v 0 c 0,0 -0.1,0 -0.1,0 0,0 -0.1,0 -0.1,0 0,0 -0.1,0 -0.1,0 0,0 0,0 0,-0.1 0,0 -0.1,-0.1 -0.1,-0.1 0,0 0,0 0,0 0,0 0,-0.1 0,-0.1 v 0 C 16,2 16,1.9 15.9,1.9 c -0.1,0 -0.1,0 -0.2,0 0,0 -0.1,0 -0.1,0 0,0 0,0 -0.1,-0.1 0,-0.1 0,-0.1 0,-0.1 v 0 L 15,1.5 c 0.1,-0.1 0.2,-0.2 0.2,-0.3 0,-0.1 0,-0.2 0,-0.3 0,-0.1 -0.1,-0.1 -0.1,-0.2 L 15,0.6 c 0,0 0,0 0,-0.1 0,0 0,0 0,0 0,0 0.1,-0.1 0.1,-0.1 0,0 0.1,-0.1 0.1,-0.1 0,-0.1 0,-0.2 0,-0.2 0,0 0,0 0,0 v 0 c 0,0 -0.1,0 -0.1,0 0,0 -0.1,0.1 -0.1,0.1 0,0 0,0 -0.1,-0.1 0,0 0,0 -0.1,-0.1 v 0 c -0.2,0 -0.5,0 -0.7,0.2 v 0 c 0,0 -0.1,0 -0.1,0 0,0 0,0 0,0 h -0.1 c -0.1,0 -0.1,-0.1 -0.2,-0.1 -0.1,0 -0.1,0 -0.2,0 0,0 0,0 -0.1,0 0,0 0,0 -0.1,0 C 13.2,0 13.1,0 13,0 13,0 12.9,0 12.9,0 12.8,0 12.8,0 12.7,0 v 0 c 0,0 0,0 0,0 0,0 0,0 -0.1,0 -0.1,0 -0.2,0 -0.3,0 0,0 -0.1,0 -0.1,0 0,0 0,0 0,0 0,0 -0.1,0 -0.1,0 0,0 0,0 0,0 0,0 -0.1,0 -0.1,0 0,0 0,0 -0.1,0 0,0 -0.1,0 -0.1,0 0,0 0,0 0,0 0,0 0,0 0,0 0,0 0,0 -0.1,0 0,0 0,0 -0.1,0 0,0 -0.1,0 -0.1,0 L 11,0.3 c 0,0 -0.1,0 -0.1,0 -0.1,0 -0.1,0 -0.2,0 0,0 -0.1,0 -0.1,0 0,0 0,0 0,0 0,0 0,0 0,0 -0.1,0 -0.2,0 -0.2,0.1 -0.1,0 -0.1,0.1 -0.2,0.1 0,0 -0.1,0.1 -0.1,0.1 v 0 c 0,0 0,0 -0.1,0 0,0 -0.1,0 -0.1,0 0,0 0,0 -0.1,0 -0.1,0 -0.2,0 -0.2,0 0,0 -0.1,0.1 -0.1,0.1 0,0.1 -0.1,0.2 -0.2,0.2 0,0 0,0 -0.1,0 0,0 -0.1,0 -0.1,0 0,0 -0.1,0 -0.1,0 0,0 -0.1,0 -0.1,0 0,0 -0.1,0 -0.1,0 0,0 -0.1,-0.1 -0.2,0 0,0 0,0 0,0 0,0 -0.1,0 -0.1,0 H 8.2 c -0.1,0 -0.1,0 -0.2,0 0,0 0,0 -0.1,0 C 7.9,0.8 7.8,0.7 7.8,0.6 7.8,0.5 7.7,0.5 7.7,0.5 7.6,0.5 7.6,0.5 7.5,0.6 7.4,0.6 7.4,0.7 7.3,0.8 V 0.9 C 7.1,0.9 7,1.1 6.8,1.3 v 0.1 c 0,0 -0.1,0.1 -0.2,0.1 v 0 0 0 0 c 0,0 -0.1,0 -0.1,0 0,0 -0.1,0 -0.1,0.1 C 6,1.7 5.7,1.9 5.5,2.1 c 0,0 0,0.1 0,0.1 0,0 0,0.1 0,0.1 -0.2,0.1 -0.3,0.3 -0.3,0.4 0,0 0,0.1 -0.1,0.1 v 0 c 0,0.1 0,0.1 0,0.2 v 0 0 c 0,0.1 0,0.1 0,0.2 0,0 0,0.1 0,0.1 V 3.4 C 5,3.5 5,3.5 5,3.6 v 0 c 0,0 0,0 0,0 C 4.7,3.9 4.4,4.1 4.1,4.3 l 14.2,7.9 z"
             class="st0"
             inkscape:connector-curvature="0"
             style="fill:#ffffff" />
          <path
             id="path827"
             d="m 35.7,28.6 c 0,-0.1 0,-0.1 0,-0.2 v -0.1 -0.1 c 0,0 0,-0.1 0,-0.1 0,-0.1 0,-0.1 0,-0.2 0,0 0,0 0,0 v -0.1 c 0,-0.1 0,-0.1 0,-0.2 0,0 0,-0.1 0,-0.1 0,0 0,0 0,0 0,0 0,0 0,-0.1 0,0 0,-0.1 0,-0.1 -0.1,-0.1 -0.1,-0.2 -0.2,-0.2 0,-0.1 -0.1,-0.1 -0.2,-0.1 0,0 0,0 0,0 0,0 -0.1,0 -0.1,0.1 0,0 0,0 -0.1,0.1 0,0.1 0,0.1 0,0.2 0,0.1 0,0.1 0,0.2 0,0 0,0 0,0.1 0,0 0,0 0,0 v 0 c 0,0 0,0 -0.1,0 v 0 c -0.1,0 0,0.1 -0.1,0.1 0,0 0,0 0,0 0,0 0,0 0,0 0,0 0,0 0,0 0,0 0,0 0,0 0,0 -0.1,0 -0.1,0 0,0 0,0 0,0 0,0 0,0 -0.1,0.1 0,0 0,0.1 0,0.1 0,0 0,0 0,0 0,0.1 -0.1,0.1 -0.1,0.1 -0.1,0.1 0,0.1 0,0.2 0,0 0,0 0,0 0,0 0,0 0,0 h -0.1 c 0,0 0,0 0,0 0,0 -0.1,0 -0.2,0 0,0 0,0 0,0 0,0 0,0 0,0 0,0.1 -0.1,0.1 -0.1,0.2 0,0 0,0.1 0,0.1 0,0 -0.1,0 -0.1,0 v 0 c 0,0 0,0 0,0 -0.1,0 -0.1,0 -0.1,0.1 -0.1,0.1 -0.1,0.1 -0.1,0.2 0,0 0.1,0.1 0.1,0.1 0,0 0,0 0,-0.1 0,0 0,0 0,0 v 0 c 0,0 0,0 0,0 -0.1,-0.1 -0.2,0 -0.3,0 0,0 0,0 0,0 v 0 c 0,0 0,0 0,0 0,0 0,0 0,0 0,0 0,0 0,0 0,0 -0.1,0 -0.2,0 v 0 c 0,0 0,0 0,0 v 0 c 0,0 0,0 0,0 -0.1,0 -0.2,0 -0.2,0 0,0 0,0 -0.1,0 0,0.1 0,0.1 0,0.2 -0.1,0.2 -0.2,0.3 -0.4,0.5 0,0 -0.1,0 0,0 0.1,0.1 0.1,0.2 0.2,0.3 0,0.1 0,0.1 0,0.2 0,0.1 0,0.1 0,0.2 0,0.1 0,0.2 0,0.3 0,0 0,0 0,0 0,0 0,0.1 0,0.1 0,0.1 0,0.1 0,0.2 -0.1,0.3 -0.3,0.6 -0.4,0.8 v 0 c -0.1,0.1 -0.1,0.1 -0.2,0.2 0,0 0,0 0,0 -0.1,0 0,0.2 -0.1,0.2 0,0.1 0,0.1 0,0.1 v 0 c 0,0.1 0,0.2 0,0.2 0,0.1 0.1,0.1 0.1,0.2 0,0 0,0.1 0,0.1 v 0 c 0,0.1 0,0.2 0,0.3 0,0 0,0.1 0,0.1 0,0.1 0,0.2 0,0.2 0,0.1 0,0.2 0.1,0.2 0,0.1 0.1,0.1 0.2,0.2 0,0 0.1,0.1 0.1,0.1 l 0.1,0.1 c 0,0 0.1,0 0.1,0.1 v 0 c 0,0 0,0 0,0 0,0 0,0 0,0 0,0 0.1,0 0.1,0 0,0 0.1,0 0.1,0 l 0.3,-0.2 c 0,0 0.1,0 0.1,0 0,0 0.1,0 0.1,0 v 0 c 0,0 0.1,0 0.1,0 0,0 0,0 0.1,0 0,0 0,0 0,0 0.2,-0.1 0.3,-0.2 0.3,-0.4 0,0 0,0 0,-0.1 0,0 0,0 0,0 L 34.3,33 c 0.1,-0.3 0.2,-0.5 0.4,-0.8 0.1,-0.2 0.2,-0.3 0.2,-0.5 l 0.1,-0.3 0.3,-0.7 0.1,-0.3 c 0,0 0,-0.1 0,-0.1 0,0 0,0 0,-0.1 0,0 0,0 0,0 0,0 0,-0.1 0.1,-0.1 v 0 0 0 c 0,-0.1 0,-0.1 0.1,-0.2 0,0 0,0 0,-0.1 0,-0.1 0,-0.1 0.1,-0.2 0,0 0,-0.1 0,-0.1 0,0 0,-0.1 0,-0.1 0,0 0,0 0,0 0,-0.1 0.1,-0.2 0.1,-0.2 0,0 0,-0.1 0.1,-0.1 0,0 0,0 0,0 0,0 0,-0.1 0,-0.1 0,0 0,-0.1 0,-0.1 0,0 0,-0.1 0,-0.1 0,0 0,-0.1 0,-0.1 0,0 0,-0.1 0,-0.1 0,-0.1 0,-0.1 0,-0.1 0,0 0,0.1 0.1,0.1 0,0 0,0 0,0 0,0 0,0 0,0 0,0 0.1,0 0.1,0 0,0 0,0 0,0 0,0 0.1,-0.1 0,-0.2 0,0 0,0 0,-0.1 -0.4,0.5 -0.4,0.5 -0.4,0.3 0,0.1 -0.1,0.1 0,0 z"
             class="st0"
             inkscape:connector-curvature="0"
             style="fill:#ffffff" />
          <path
             id="path829"
             d="m 16.6,13 c 0,0 0,0 0,0 z"
             class="st0"
             inkscape:connector-curvature="0"
             style="fill:#ffffff" />
        </g>
      </g>
    </g>
  </g>
  <style
     id="style815"
     type="text/css">
	.st0{fill:#023F5F;}
</style>
  <style
     type="text/css"
     id="style815-3">
	.st0{fill:#023F5F;}
</style>
  <style
     type="text/css"
     id="style4518">
	.st0{fill:#ffffff;}
</style>
  <style
     type="text/css"
     id="style4550">
	.st0{fill:#ffffff;}
</style>
  <style
     type="text/css"
     id="style5176">
	.st0{fill:#ffffff;}
</style>
  <style
     type="text/css"
     id="style5212">
	.st0{fill:#023F5F;}
</style>
  <style
     type="text/css"
     id="style4518-5">
	.st0{fill:#ffffff;}
</style>
  <style
     type="text/css"
     id="style4550-1">
	.st0{fill:#ffffff;}
</style>
  <style
     type="text/css"
     id="style5176-5">
	.st0{fill:#ffffff;}
</style>
  <style
     type="text/css"
     id="style5212-5">
	.st0{fill:#023F5F;}
</style>
  <style
     type="text/css"
     id="style815-8">
	.st0{fill:#023F5F;}
</style>
  <style
     id="style815-3-5"
     type="text/css">
	.st0{fill:#023F5F;}
</style>
</svg>
