<svg width="640" height="480" xmlns="http://www.w3.org/2000/svg" xmlns:svg="http://www.w3.org/2000/svg" xmlns:xlink="http://www.w3.org/1999/xlink">
 <!-- Created with SVG-edit - https://github.com/SVG-Edit/svgedit-->
 <defs>
  <symbol id="svg_7" viewBox="0 0 100 125" y="0px" x="0px" xmlns="http://www.w3.org/2000/svg" xmlns:svg="http://www.w3.org/2000/svg">
   <metadata id="svg_6">image/svg+xml</metadata>

   <g transform="translate(0,14)" id="svg_2">
    <path id="svg_5" d="m99.602,43.375l-0.385,-3.375l-3.076,0c-18.868,0 -32.316,4.527 -40.972,13.182c-0.314,0.314 -0.592,0.741 -0.894,1.056c3.045,3.92 5.324,8.023 7.024,12.248c5.375,-8.327 14.422,-16.074 28.771,-20.354c-15.062,9.801 -22.191,24.253 -24.969,35.558c0.582,4.572 0.793,9.359 0.793,14.395c0,0.434 -0.038,0.864 -0.093,1.285c7.287,-2.433 13.967,-6.64 19.544,-12.221c10.991,-10.987 16.197,-26.313 14.257,-41.774z"/>
    <path id="svg_4" d="m59,96.088c0,-16.831 -2.322,-30.834 -14.393,-42.906c-8.654,-8.655 -21.879,-13.182 -40.748,-13.182l-3.075,0l-0.384,3.375c-1.942,15.461 3.246,30.789 14.234,41.773c9.433,9.435 21.983,14.714 35.339,14.714c2.092,0 4.05,-0.094 6.126,-0.353l2.9,-0.345l0,-3.076l0.001,0zm-37.074,-18.067c-7.287,-7.285 -11.34,-16.725 -11.603,-26.864c12.433,0.81 21.557,4.045 27.149,9.638c7.41,7.412 10.63,15.433 11.36,28.826c-10.165,-0.278 -19.683,-4.373 -26.906,-11.6z"/>
    <path id="svg_3" d="m96.563,27.797l-7.781,-18.135c-0.913,-2.119 -2.91,-2.236 -4.433,-0.256l-2.164,2.812c-8.72,-7.4 -19.984,-12.377 -32.29,-12.377c-21.845,0.001 -40.455,14.159 -47.246,33.159l1.21,0c3.713,0 7.232,0.65 10.577,0.963c6.089,-13.539 19.675,-22.765 35.459,-22.765c9.757,0 18.681,3.741 25.514,9.701l-0.036,0.108l-2.217,2.913c-1.527,1.982 -0.902,3.894 1.384,4.229l19.521,2.89c2.291,0.338 3.416,-1.118 2.502,-3.242z"/>
   </g>
  </symbol>
 </defs>
 <g class="layer">
  <title>Layer 1</title>
  <use fill="#ffffff" x="0" y="0" transform="matrix(1.2039925197003019,0,0,1.2039925197003019,-104.27733181688795,-53.87131514599032) " xlink:href="#svg_7" id="svg_8"/>
  <g id="svg_9"/>
 </g>
</svg>