<svg xmlns="http://www.w3.org/2000/svg" width="23.406" height="31.893" viewBox="0 0 23.406 31.893">
    <defs>
        <style>
            .cls-1{fill:#fff}
        </style>
    </defs>
    <path id="Eau_EÌnergie" d="M18.8 8.836A87.705 87.705 0 0 0 12.4.282a.991.991 0 0 0-1.4-.1.1.1 0 0 0-.1.1 69.52 69.52 0 0 0-6.4 8.554C1.6 13.684 0 17.676 0 20.622-.1 26.8 5.2 31.837 11.6 31.837c6.5.1 11.8-4.942 11.8-11.025v-.19c.1-2.946-1.5-6.938-4.6-11.786zM16.4 17.2l-5.7 10.74c-.1.1-.3.19-.4.1s-.2-.19-.2-.285l.8-8.554H7.7a.554.554 0 0 1-.7-.57v-.19l2.6-7.794a.75.75 0 0 1 .7-.475h3.2a.667.667 0 0 1 .7.665v.19l-1.8 5.223h3.2a.667.667 0 0 1 .7.665.338.338 0 0 1 .1.285z" class="cls-1" transform="translate(.001 .055)"/>
</svg>
