<?xml version="1.0" encoding="utf-8"?>
<!-- Generator: Adobe Illustrator 15.1.0, SVG Export Plug-In . SVG Version: 6.00 Build 0)  -->
<!DOCTYPE svg PUBLIC "-//W3C//DTD SVG 1.1//EN" "http://www.w3.org/Graphics/SVG/1.1/DTD/svg11.dtd">
<svg version="1.1" xmlns="http://www.w3.org/2000/svg" xmlns:xlink="http://www.w3.org/1999/xlink" x="0px" y="0px" width="300px"
	 height="300px" viewBox="0 0 300 300" enable-background="new 0 0 300 300" xml:space="preserve">
<g id="Calque_2">
</g>
<g id="Calque_1">
	<g>
		<path fill-rule="evenodd" clip-rule="evenodd" fill="#FFFFFF" d="M148.792,12.222c0.59-0.126,0.654,0.27,0.692,0.692
			c13.359,34.524,29.598,65.583,56.747,92.734c13.151,13.151,26.021,23.499,34.603,40.138c8.588,16.652,14.449,36.355,11.073,61.592
			c-4.063,30.396-21.279,50.771-40.138,67.819c-14.159,7.307-27.612,15.538-44.29,17.996c-25.571,3.765-50.905-2.41-67.82-12.456
			c-38.263-22.73-65.908-82.845-39.448-132.875c2.417-4.566,6.499-9.18,9.689-13.839c14.701-21.47,35.652-37.82,50.52-60.208
			C131.925,56.491,141.424,34.364,148.792,12.222z M136.336,127.793c-8.643,16.564-16.851,31.935-25.606,47.751
			c-4.428,8.005-12.175,17.533-5.536,25.607c12.29,0.521,22.352-4.867,32.527-4.155c-1.598,8.199-3.487,16.549-6.229,26.991
			c-2.706,10.313-12.634,32.047,2.77,31.143c7.045-0.414,12.369-14.388,16.607-21.455c10.467-17.44,18.854-29.769,29.067-47.059
			c5.384-9.118,17.986-24.369,9.689-32.524c-12.118,0.364-24.307,4.266-34.602,4.152c1.385-8.599,3.296-18.607,4.842-28.374
			c1.521-9.606,5.189-20.523-0.692-27.682C145.747,101.145,141.494,117.91,136.336,127.793z M216.613,158.934
			c2.644,6.898,5.05,17.093,5.537,24.916c2.231,35.947-13.777,56.613-32.525,69.205c-3.527,2.366-13.668,5.44-13.15,11.763
			c0.204,2.476,0.419,7.79,11.073,4.153c4.159-1.421,9.214-5.157,11.764-6.92c20.04-13.855,38.245-38.4,35.987-74.741
			c-0.691-11.137-2.289-20.085-6.229-31.142c-2.685-7.537-8.826-28.199-20.068-22.146
			C204.029,141.751,212.771,148.909,216.613,158.934z"/>
		<path fill-rule="evenodd" clip-rule="evenodd" fill="#FFFFFF" d="M109.347,193.537c11.229-0.559,27.763-5.434,38.754-6.228
			c-2.482,9.702-5.625,20.24-8.305,30.448c-2.728,10.393-6.34,20.908-5.536,30.452c16.394-29.512,35.025-56.786,51.209-86.506
			c-13.518,0.555-26.352,5.477-38.754,4.845c2.986-18.928,5.614-38.216,8.996-56.748c-0.689,0-1.385,0-2.075,0
			C139.408,138.245,123.817,165.333,109.347,193.537z"/>
		<path fill-rule="evenodd" clip-rule="evenodd" fill="#FFFFFF" d="M153.638,109.801c0.69,0,1.386,0,2.075,0
			c-3.382,18.531-6.01,37.82-8.996,56.748c12.402,0.632,25.236-4.29,38.754-4.845c-16.185,29.72-34.815,56.994-51.209,86.506
			c-0.805-9.544,2.808-20.06,5.536-30.452c2.68-10.208,5.822-20.746,8.305-30.448c-10.991,0.794-27.525,5.669-38.754,6.228
			C123.817,165.333,139.408,138.245,153.638,109.801z"/>
	</g>
</g>
</svg>
