<svg xmlns="http://www.w3.org/2000/svg" id="Economie_Finance" width="23.201" height="37" viewBox="0 0 23.201 37">
    <defs>
        <style>
            .cls-1{fill:#fff}
        </style>
    </defs>
    <path id="Tracé_4072" d="M22.3 20.6c-.4-.3-4.7-5.1-5.9-5.8V2.3A2.263 2.263 0 0 0 14.1 0H2.3A2.263 2.263 0 0 0 0 2.3v21.8a2.263 2.263 0 0 0 2.3 2.3h5.1l-.2-1.8-.2-.2H4.8a2.293 2.293 0 0 0-1.7-2.8 2.045 2.045 0 0 0-1.1 0v-17h.4a2.263 2.263 0 0 0 2.3-2.3v-.4h7v.4A2.263 2.263 0 0 0 14 4.6h.4V26a8.068 8.068 0 0 1-1.7-2.4s-.4-4.9-2.9-4.9h-.2s-1.9.2-.3 5.5l.7 6a13.3 13.3 0 0 0 2.9 5.5v.7a.576.576 0 0 0 .6.6h7a.576.576 0 0 0 .6-.6c.2-2.3 1.2-11 1.8-12.3a1.421 1.421 0 0 0 .2-.6 3.017 3.017 0 0 0-.8-2.9z" class="cls-1" data-name="Tracé 4072"/>
    <circle id="Ellipse_542" cx="1.4" cy="1.4" r="1.4" class="cls-1" data-name="Ellipse 542" transform="translate(7 4.7)"/>
    <path id="Tracé_4073" d="M3.2 13.4a5.024 5.024 0 0 0 3.9 4.9c.1-.1.1-.2.2-.4a2.956 2.956 0 0 1 2.1-1.3h.4a3.743 3.743 0 0 1 1.8.5 5.022 5.022 0 0 0-6.9-7.3 4.754 4.754 0 0 0-1.5 3.6zm2-.5c.3 0 .3 0 .4-.3a1.854 1.854 0 0 1 .2-.7c0-.1.1-.2.2-.1.2.1.4.1.6.2s.2.1.1.3a1.978 1.978 0 0 0-.2 1.1.367.367 0 0 0 .1.3.55.55 0 0 0 .5.3.215.215 0 0 0 .2-.2 2.186 2.186 0 0 0 .3-.5 2.01 2.01 0 0 1 .4-.8 1.63 1.63 0 0 1 2-.7c.1 0 .2.1.3.2a1.374 1.374 0 0 1 .5.8c0 .1.1.2.3.2h.4a.215.215 0 0 1 .2.2v.5a.215.215 0 0 1-.2.2h-.3c-.2 0-.2 0-.3.2a2.92 2.92 0 0 1-.2.9c-.1.2-.2.2-.4.2a3.933 3.933 0 0 0-.6-.2c-.2-.1-.2-.1-.1-.3a3.178 3.178 0 0 0 .3-.9 1.268 1.268 0 0 0-.1-.6c-.1-.2-.4-.4-.6-.3-.2 0-.2 0-.3.1a.52.52 0 0 0-.2.4c-.1.3-.3.7-.4 1a1.709 1.709 0 0 1-1.3.7 1.3 1.3 0 0 1-1.3-1c-.1-.3-.1-.3-.4-.3H5c-.2 0-.2 0-.2-.2v-.2c-.1-.5-.1-.5.4-.5z" class="cls-1" data-name="Tracé 4073"/>
</svg>
