<?xml version="1.0" encoding="utf-8"?>
<!-- Generator: Adobe Illustrator 23.1.1, SVG Export Plug-In . SVG Version: 6.00 Build 0)  -->
<svg version="1.1" id="Calque_1" xmlns="http://www.w3.org/2000/svg" xmlns:xlink="http://www.w3.org/1999/xlink" x="0px" y="0px"
	 viewBox="0 0 29.7 24.2" style="enable-background:new 0 0 29.7 24.2;" xml:space="preserve">
<style type="text/css">
	.st0{fill:#ffffff;}
</style>
<g>
	<path class="st0" d="M25.6,12.4l-8.9,5.4c-1.2,0.7-2.6,0.7-3.8,0l-8.6-5.3c0,0-0.8-0.5-0.8,0.6v5.3c0,2.8,5.1,5.8,11.3,5.8
		s11.3-3,11.3-5.8v-5.6C26.2,12,25.6,12.4,25.6,12.4z"/>
	<path class="st0" d="M16.1,16.4l13.1-8.1c0.4-0.2,0.6-0.6,0.4-1c-0.1-0.2-0.2-0.4-0.4-0.4L16.1,0.3c-0.8-0.4-1.7-0.4-2.4,0L0.5,6.9
		C0.1,7-0.1,7.5,0.1,7.9c0.1,0.2,0.2,0.4,0.4,0.4l13.1,8.1C14.4,16.8,15.3,16.8,16.1,16.4z"/>
	<path class="st0" d="M28.8,20.5c-0.1,0-0.1-0.1-0.1-0.2v-8.9c0,0,0-0.4-0.2-0.3c-0.3,0.2-0.6,0.3-0.9,0.5c-0.1,0.2-0.2,0.4-0.2,0.6
		v8.1c0,0.1-0.1,0.2-0.1,0.2c-0.7,0.4-1,1.4-0.6,2.1s1.4,1,2.1,0.6s1-1.4,0.6-2.1C29.2,20.8,29,20.6,28.8,20.5z"/>
</g>
</svg>
