<?xml version="1.0" encoding="utf-8"?>
<!-- Generator: Adobe Illustrator 15.1.0, SVG Export Plug-In . SVG Version: 6.00 Build 0)  -->
<!DOCTYPE svg PUBLIC "-//W3C//DTD SVG 1.1//EN" "http://www.w3.org/Graphics/SVG/1.1/DTD/svg11.dtd">
<svg version="1.1" xmlns="http://www.w3.org/2000/svg" xmlns:xlink="http://www.w3.org/1999/xlink" x="0px" y="0px" width="300px"
	 height="300px" viewBox="0 0 300 300" enable-background="new 0 0 300 300" xml:space="preserve">
<g id="Calque_2">
</g>
<g id="Calque_1">
	<g>
		<path fill-rule="evenodd" clip-rule="evenodd" fill="#FFFFFF" d="M297.685,185.465c0,2.455,0,4.907,0,7.36
			c-1.694,2.646-3.507,5.174-6.229,6.799c3.437,6,4.205,14.668,6.229,22.08c0,3.021,0,6.038,0,9.061
			c-2.332,8.936-18.012,10.684-21.518,1.131c-3.925-10.701,3.99-23.342,5.663-31.707c-7.713-4.194-7.713-17.889,0-22.084
			c0-20.383,0-40.769,0-61.151c-36.743,13.006-75.43,29.188-114.374,44.166c-5.968,2.295-12.667,5.615-16.991,5.66
			c-4.712,0.053-12.391-3.783-18.683-6.226C90.32,144.449,48.401,128.047,7.777,111.858c0-0.944,0-1.888,0-2.832
			c40.244-14.672,83.757-30.341,124.571-44.733c6.056-2.133,14.303-5.822,18.686-5.66c4.618,0.171,11.433,4.091,17.551,6.228
			c42.11,14.694,84.235,29.092,124.005,44.165c-1.215,19.747-0.27,46.534-0.567,69.078
			C293.503,180.964,296.306,182.504,297.685,185.465z"/>
		<path fill-rule="evenodd" clip-rule="evenodd" fill="#FFFFFF" d="M248.422,139.035c-2.043,16.426,3.411,34.197-1.698,48.128
			c-2.31,6.301-8.801,13.763-14.154,18.12c-20.817,16.954-61.213,27.752-97.39,23.782c-34.967-3.838-71.394-16.915-80.971-41.902
			c-4.632-12.088-1.137-31.727-2.267-46.43c-0.046-0.804-0.091-1.6,0.569-1.699c23.895,9.497,47.842,18.606,73.042,28.312
			c7.213,2.779,17.378,8.9,24.348,9.059c7.008,0.161,17.63-6.194,24.913-9.059C199.657,157.569,224.313,148.646,248.422,139.035z"/>
	</g>
</g>
</svg>
