<svg xmlns="http://www.w3.org/2000/svg" id="Education_Formation" width="29.657" height="24.2" viewBox="0 0 29.657 24.2">
    <defs>
        <style>
            .cls-1{fill:#fff}
        </style>
    </defs>
    <path id="Tracé_4074" d="M25.6 12.4l-8.9 5.4a3.7 3.7 0 0 1-3.8 0l-8.6-5.3s-.8-.5-.8.6v5.3c0 2.8 5.1 5.8 11.3 5.8s11.3-3 11.3-5.8v-5.6c.1-.8-.5-.4-.5-.4z" class="cls-1" data-name="Tracé 4074" transform="translate(-.022)"/>
    <path id="Tracé_4075" d="M16.1 16.4l13.1-8.1a.731.731 0 0 0 .4-1c-.1-.2-.2-.4-.4-.4L16.1.3a2.548 2.548 0 0 0-2.4 0L.5 6.9a.7.7 0 0 0-.4 1c.1.2.2.4.4.4l13.1 8.1a2.754 2.754 0 0 0 2.5 0z" class="cls-1" data-name="Tracé 4075" transform="translate(-.022)"/>
    <path id="Tracé_4076" d="M28.8 20.5c-.1 0-.1-.1-.1-.2v-8.9s0-.4-.2-.3c-.3.2-.6.3-.9.5a1.421 1.421 0 0 0-.2.6v8.1a.349.349 0 0 1-.1.2 1.544 1.544 0 1 0 2.1.6 1.7 1.7 0 0 0-.6-.6z" class="cls-1" data-name="Tracé 4076" transform="translate(-.022)"/>
</svg>
