<?xml version="1.0" encoding="utf-8"?>
<!-- Generator: Adobe Illustrator 23.1.1, SVG Export Plug-In . SVG Version: 6.00 Build 0)  -->
<svg version="1.1" id="Calque_1" xmlns="http://www.w3.org/2000/svg" xmlns:xlink="http://www.w3.org/1999/xlink" x="0px" y="0px"
	 viewBox="0 0 31.3 32" style="enable-background:new 0 0 31.3 32;" xml:space="preserve">
<style type="text/css">
	.st0{fill:#ffffff;}
</style>
<g>
	<path class="st0" d="M5.9,7.5L5.9,7.5C9.4,7.5,5.7,0,5.7,0C5.2,0.7,2.4,7.5,5.9,7.5z"/>
	<path class="st0" d="M3.9,11.2c1.5,0,2.7-2.5-0.8-4.1l0,0c-3.2-1.4-2.9-3.7-2.9-3.7C-0.3,4.2,0.5,11.2,3.9,11.2z"/>
	<path class="st0" d="M3.9,16c1.5,0,2.7-2.5-0.8-4.1h0c-3.2-1.4-2.9-3.7-2.9-3.7C-0.3,9,0.5,16,3.9,16z"/>
	<path class="st0" d="M3.9,20.9c1.5,0,2.7-2.5-0.8-4.1h0c-3.2-1.4-2.9-3.7-2.9-3.7C-0.3,13.9,0.5,20.9,3.9,20.9z"/>
	<path class="st0" d="M24.8,10.2L24.8,10.2c3.2,1.5,3-6.9,3-6.9C27.1,3.7,21.6,8.7,24.8,10.2z"/>
	<path class="st0" d="M19.4,17c1.3,0.6,3.5-1.1,0.9-4.1v0c-2.3-2.6-1.1-4.6-1.1-4.6C18.6,8.9,16.4,15.6,19.4,17z"/>
	<path class="st0" d="M3,21.9L3,21.9c-3.2-1.4-2.9-3.7-2.9-3.7c-0.4,0.8,0.5,7.8,3.8,7.8C5.3,25.9,6.6,23.5,3,21.9z"/>
	<path class="st0" d="M24.6,14.2L24.6,14.2c3,1.4,6.7-4.6,6.7-5.5c0,0-0.7,2.2-4.2,2.1C23.2,10.8,23.3,13.5,24.6,14.2z"/>
	<path class="st0" d="M21.4,12.7c1.3,0.6,3.5-1.1,0.9-4l0,0C20.1,6,21.3,4,21.3,4C20.6,4.6,18.4,11.3,21.4,12.7z"/>
	<path class="st0" d="M17.3,21.5c1.3,0.6,3.5-1.1,0.9-4l0,0c-2.3-2.6-1.1-4.6-1.1-4.6C16.5,13.4,14.3,20.1,17.3,21.5z"/>
	<path class="st0" d="M20.9,24.2c-3.9,0-3.8,2.7-2.5,3.3l0,0c3,1.4,6.7-4.6,6.7-5.5C25.1,22.1,24.4,24.2,20.9,24.2z"/>
	<path class="st0" d="M16.5,27.4c-0.6-0.3-0.9-0.8-1.1-0.4L14,31.1c-0.2,0.4,1,1.4,1.4,0.6l0,0l2.1-3.7
		C17.7,27.6,17.1,27.7,16.5,27.4z"/>
	<path class="st0" d="M23,19.6c-3.9,0-3.8,2.7-2.5,3.3l0,0c3,1.4,6.7-4.6,6.7-5.5C27.2,17.5,26.5,19.7,23,19.6z"/>
	<path class="st0" d="M15.2,26c1.4,0.6,3.5-1.1,1-4l0,0c-2.3-2.6-1.1-4.6-1.1-4.6C14.3,18,12.2,24.6,15.2,26z"/>
	<path class="st0" d="M25.1,15.2c-3.9,0-3.8,2.7-2.5,3.3l0,0c3,1.4,6.7-4.6,6.7-5.5C29.3,13,28.6,15.2,25.1,15.2z"/>
	<path class="st0" d="M8.3,7.1c-3.6,1.6-2.3,4.1-0.8,4.1l0,0c3.3,0,4.2-7,3.8-7.8C11.2,3.4,11.5,5.7,8.3,7.1z"/>
	<path class="st0" d="M8.3,16.8c-3.6,1.6-2.3,4.1-0.8,4.1l0,0c3.3,0,4.2-7,3.8-7.8C11.2,13.1,11.5,15.4,8.3,16.8z"/>
	<path class="st0" d="M8.3,21.9c-3.6,1.6-2.3,4.1-0.8,4.1l0,0c3.3,0,4.2-7,3.8-7.8C11.2,18.2,11.5,20.4,8.3,21.9z"/>
	<path class="st0" d="M8.3,11.9C4.7,13.5,5.9,16,7.4,16l0,0c3.3,0,4.2-7,3.8-7.8C11.2,8.2,11.5,10.5,8.3,11.9z"/>
	<path class="st0" d="M5.6,26.6c-0.6,0-1.2-0.4-1.2,0l0.4,4.4c0,0.4,1.5,0.8,1.5-0.1l0.4-4.3C6.8,26.3,6.2,26.6,5.6,26.6z"/>
</g>
</svg>
