<svg xmlns="http://www.w3.org/2000/svg" id="Environnement_Écologie" width="31.289" height="32.002" viewBox="0 0 31.289 32.002">
    <defs>
        <style>
            .cls-1{fill:#fff}
        </style>
    </defs>
    <path id="Tracé_4077" d="M5.9 7.5c3.5 0-.2-7.5-.2-7.5-.5.7-3.3 7.5.2 7.5z" class="cls-1" data-name="Tracé 4077" transform="translate(-.011)"/>
    <path id="Tracé_4078" d="M3.9 11.2c1.5 0 2.7-2.5-.8-4.1C-.1 5.7.2 3.4.2 3.4c-.5.8.3 7.8 3.7 7.8z" class="cls-1" data-name="Tracé 4078" transform="translate(-.011)"/>
    <path id="Tracé_4079" d="M3.9 16c1.5 0 2.7-2.5-.8-4.1C-.1 10.5.2 8.2.2 8.2-.3 9 .5 16 3.9 16z" class="cls-1" data-name="Tracé 4079" transform="translate(-.011)"/>
    <path id="Tracé_4080" d="M3.9 20.9c1.5 0 2.7-2.5-.8-4.1C-.1 15.4.2 13.1.2 13.1c-.5.8.3 7.8 3.7 7.8z" class="cls-1" data-name="Tracé 4080" transform="translate(-.011)"/>
    <path id="Tracé_4081" d="M24.8 10.2c3.2 1.5 3-6.9 3-6.9-.7.4-6.2 5.4-3 6.9z" class="cls-1" data-name="Tracé 4081" transform="translate(-.011)"/>
    <path id="Tracé_4082" d="M19.4 17c1.3.6 3.5-1.1.9-4.1-2.3-2.6-1.1-4.6-1.1-4.6-.6.6-2.8 7.3.2 8.7z" class="cls-1" data-name="Tracé 4082" transform="translate(-.011)"/>
    <path id="Tracé_4083" d="M3 21.9C-.2 20.5.1 18.2.1 18.2c-.4.8.5 7.8 3.8 7.8 1.4-.1 2.7-2.5-.9-4.1z" class="cls-1" data-name="Tracé 4083" transform="translate(-.011)"/>
    <path id="Tracé_4084" d="M24.6 14.2c3 1.4 6.7-4.6 6.7-5.5 0 0-.7 2.2-4.2 2.1-3.9 0-3.8 2.7-2.5 3.4z" class="cls-1" data-name="Tracé 4084" transform="translate(-.011)"/>
    <path id="Tracé_4085" d="M21.4 12.7c1.3.6 3.5-1.1.9-4-2.2-2.7-1-4.7-1-4.7-.7.6-2.9 7.3.1 8.7z" class="cls-1" data-name="Tracé 4085" transform="translate(-.011)"/>
    <path id="Tracé_4086" d="M17.3 21.5c1.3.6 3.5-1.1.9-4-2.3-2.6-1.1-4.6-1.1-4.6-.6.5-2.8 7.2.2 8.6z" class="cls-1" data-name="Tracé 4086" transform="translate(-.011)"/>
    <path id="Tracé_4087" d="M20.9 24.2c-3.9 0-3.8 2.7-2.5 3.3 3 1.4 6.7-4.6 6.7-5.5 0 .1-.7 2.2-4.2 2.2z" class="cls-1" data-name="Tracé 4087" transform="translate(-.011)"/>
    <path id="Tracé_4088" d="M16.5 27.4c-.6-.3-.9-.8-1.1-.4L14 31.1c-.2.4 1 1.4 1.4.6l2.1-3.7c.2-.4-.4-.3-1-.6z" class="cls-1" data-name="Tracé 4088" transform="translate(-.011)"/>
    <path id="Tracé_4089" d="M23 19.6c-3.9 0-3.8 2.7-2.5 3.3 3 1.4 6.7-4.6 6.7-5.5 0 .1-.7 2.3-4.2 2.2z" class="cls-1" data-name="Tracé 4089" transform="translate(-.011)"/>
    <path id="Tracé_4090" d="M15.2 26c1.4.6 3.5-1.1 1-4-2.3-2.6-1.1-4.6-1.1-4.6-.8.6-2.9 7.2.1 8.6z" class="cls-1" data-name="Tracé 4090" transform="translate(-.011)"/>
    <path id="Tracé_4091" d="M25.1 15.2c-3.9 0-3.8 2.7-2.5 3.3 3 1.4 6.7-4.6 6.7-5.5 0 0-.7 2.2-4.2 2.2z" class="cls-1" data-name="Tracé 4091" transform="translate(-.011)"/>
    <path id="Tracé_4092" d="M8.3 7.1c-3.6 1.6-2.3 4.1-.8 4.1 3.3 0 4.2-7 3.8-7.8-.1 0 .2 2.3-3 3.7z" class="cls-1" data-name="Tracé 4092" transform="translate(-.011)"/>
    <path id="Tracé_4093" d="M8.3 16.8c-3.6 1.6-2.3 4.1-.8 4.1 3.3 0 4.2-7 3.8-7.8-.1 0 .2 2.3-3 3.7z" class="cls-1" data-name="Tracé 4093" transform="translate(-.011)"/>
    <path id="Tracé_4094" d="M8.3 21.9C4.7 23.5 6 26 7.5 26c3.3 0 4.2-7 3.8-7.8-.1 0 .2 2.2-3 3.7z" class="cls-1" data-name="Tracé 4094" transform="translate(-.011)"/>
    <path id="Tracé_4095" d="M8.3 11.9C4.7 13.5 5.9 16 7.4 16c3.3 0 4.2-7 3.8-7.8 0 0 .3 2.3-2.9 3.7z" class="cls-1" data-name="Tracé 4095" transform="translate(-.011)"/>
    <path id="Tracé_4096" d="M5.6 26.6c-.6 0-1.2-.4-1.2 0l.4 4.4c0 .4 1.5.8 1.5-.1l.4-4.3c.1-.3-.5 0-1.1 0z" class="cls-1" data-name="Tracé 4096" transform="translate(-.011)"/>
</svg>
