<svg xmlns="http://www.w3.org/2000/svg" id="Projets_structurants" width="36.511" height="32.8" viewBox="0 0 36.511 32.8">
    <defs>
        <style>
            .cls-1{fill:#fff}
        </style>
    </defs>
    <path id="Tracé_4097" d="M35.3 30.1H9.5V14.5h.3a.9.9 0 0 0 .9-.9V13l13.5-8.2v8.9h-2.3a.645.645 0 0 0-.6.6v3.8a.645.645 0 0 0 .6.6h5.8a.645.645 0 0 0 .6-.6v-3.8a.645.645 0 0 0-.6-.6h-2.3V3.9l1.7-1.3a.55.55 0 0 0 .3-.5V.6a.645.645 0 0 0-.6-.6.367.367 0 0 0-.3.1L8 9.6H5.2a.9.9 0 0 0-.9.9v3.1a.9.9 0 0 0 .9.9h.6v15.6H1.3A1.347 1.347 0 0 0 0 31.5a1.324 1.324 0 0 0 1.3 1.3h33.8a1.415 1.415 0 0 0 1.4-1.3 1.215 1.215 0 0 0-1.2-1.4z" class="cls-1" data-name="Tracé 4097"/>
    <path id="Tracé_4098" d="M15 22.2a.789.789 0 0 0-.8.8v5a.789.789 0 0 0 .8.8h7.6a.789.789 0 0 0 .8-.8v-5a.789.789 0 0 0-.8-.8z" class="cls-1" data-name="Tracé 4098"/>
    <path id="Tracé_4099" d="M25.1 23.1v5a.789.789 0 0 0 .8.8h7.6a.789.789 0 0 0 .8-.8v-5a.789.789 0 0 0-.8-.8h-7.6c-.5-.1-.8.3-.8.8z" class="cls-1" data-name="Tracé 4099"/>
</svg>

