<?xml version="1.0" encoding="utf-8"?>
<!-- Generator: Adobe Illustrator 15.1.0, SVG Export Plug-In . SVG Version: 6.00 Build 0)  -->
<!DOCTYPE svg PUBLIC "-//W3C//DTD SVG 1.1//EN" "http://www.w3.org/Graphics/SVG/1.1/DTD/svg11.dtd">
<svg version="1.1" xmlns="http://www.w3.org/2000/svg" xmlns:xlink="http://www.w3.org/1999/xlink" x="0px" y="0px" width="300px"
	 height="300px" viewBox="0 0 300 300" enable-background="new 0 0 300 300" xml:space="preserve">
<g id="Calque_2">
</g>
<g id="Calque_1">
	<g>
		<path fill-rule="evenodd" clip-rule="evenodd" fill="#FFFFFF" d="M240.765,126.678c15.756-16.707,38.614,9.675,21.334,23.366
			c0,21.672,0,43.349,0,65.022c13.92,4.643,12.161,13.895,12.191,30.479c21.456-6.399,31.56,28.494,10.159,31.494
			c-24.867,3.486-58.766,0-98.549,0c-17.585,0-34.261,0-49.782,0c-23.72,0-59.92,5.949-60.958-14.222
			c-0.444-8.641,4.666-11.121,9.142-15.241c3.519-1.563,9.263-0.897,14.226-1.014c0-8.128,0-16.256,0-24.383
			c10.369-9.698,30.058-6.097,48.766-6.097c22.962,0,46.871-0.589,67.052,1.016c9.7-27.787,23.68-54.764,25.4-87.374
			c-62.182-33.319-124.98-66.021-187.955-98.547c4.252,11.34,13.609,19.717,21.336,28.447
			c22.831,25.786,48.369,50.998,70.103,79.246c-4.559,0.183-6.271,3.209-9.146,5.078c-6.893-6.313-12.018-14.397-19.301-20.319
			c-2.82,10.389-6.221,20.197-9.145,30.479c4.538,3.142,10.45-1.032,16.255,0c-3.256,6.227-5.443,13.523-15.238,13.209
			c6.095,7.708,1.603,14.364,1.014,25.398c-26.77-42.994-47.757-91.766-75.182-134.108c-2.371,32.172-0.339,68.747-1.017,102.614
			c1.733,1.991,7.128,0.321,8.127,3.047c3.123,7.575,4.839,26.64-8.127,24.383c-0.054,4.687,0.451,9.933-1.015,13.209
			c-7.511,5.016-10.422-0.705-12.192,7.111c-1.953,8.624,4.755,9.442,8.128,9.145c5.958-0.528,7.633-13.098,12.191-13.208
			c14.224-0.347,0.123,24.647-11.177,25.399c-10.968,0.729-21.334-7.613-21.334-19.304c0-10.092,6.736-12.807,13.206-20.32
			c-9.038-2.086-13.155-15.434-8.127-25.397c1.583-2.145,3.768-3.685,8.127-3.05c0-35.557,0-71.118,0-106.675
			C4.492,40.126,15.289,13.779,37.571,17.968c6.5,1.224,15.873,10.726,24.383,15.241C119.921,63.958,186.231,96.278,240.765,126.678
			z M20.298,41.336c2.664,14.178,27.718,11.654,24.383-6.096c-1.061-5.645-5.637-11.421-16.256-8.127
			C22.314,29.007,18.575,32.164,20.298,41.336z M52.809,67.752c0.905-2.484,2.369-4.406,2.032-8.128
			c-3.524,0.813-3.906-1.514-7.113-1.017C48.526,62.554,50.931,64.889,52.809,67.752z M62.969,78.926
			c4.028,0.375,9.736-0.931,12.192,1.017c-2.354-5.099-6.657-8.245-10.16-12.191C64.567,71.513,61.248,76.211,62.969,78.926z
			 M75.161,108.391c1.54-6.249,5.042-10.537,6.096-17.273C75.12,91.498,70.029,90.833,65,90.103
			C67.535,97.051,70.844,103.223,75.161,108.391z M85.32,113.469c6.119-0.652,9.893-3.653,16.256-4.064
			c-2.506-4.943-6.302-8.599-10.16-12.192C89.95,103.2,87.268,107.968,85.32,113.469z M84.303,125.661
			c2.782,8.056,7.134,14.542,11.177,21.336c3.029-8.485,5.718-17.311,8.127-26.415C96.839,121.938,91.273,124.501,84.303,125.661z
			 M243.811,138.87c2.593,13.14,23.318,8.033,19.303-6.096c-0.94-3.314-4.475-8.355-13.206-5.081
			C244.393,129.763,242.483,132.134,243.811,138.87z M230.603,190.683c8.467,0,16.933,0,25.4,0
			c2.317-11.228,0.377-26.716,1.017-39.621c-5.874,0.453-10.386-0.451-13.209-3.049C239.872,162.7,233.697,175.151,230.603,190.683z
			 M227.556,195.764c-1.206,7.601-4.467,13.143-6.096,20.319c9.55,2.302,23.317,0.388,34.543,1.016
			c2.21-5.242,0.456-14.446,1.017-21.335C247.196,195.764,237.376,195.764,227.556,195.764z M117.831,259.769
			c-3.732-21.283-34.673,12.039-4.063,10.16C116.319,266.091,118.8,265.29,117.831,259.769z M151.359,262.817
			c0.709-6.475-3.562-11.237-11.178-9.146C119.578,259.34,149.297,281.616,151.359,262.817z M237.715,256.722
			c-4.012-7.054-19.613-5.346-16.255,9.143C229.274,275.73,243.166,266.296,237.715,256.722z M271.24,262.817
			c0.819-7.549-4.747-10.386-10.157-9.146C240.637,258.369,269.078,282.812,271.24,262.817z"/>
		<path fill-rule="evenodd" clip-rule="evenodd" fill="#FFFFFF" d="M186.917,152.076c0,18.287,0,36.574,0,54.861
			c-20.658,0-41.317,0-61.975,0C119.18,163.378,147.308,140.458,186.917,152.076z"/>
	</g>
</g>
</svg>
