<svg xmlns="http://www.w3.org/2000/svg" id="Route_Transport" width="34.4" height="32.9" viewBox="0 0 34.4 32.9">
    <defs>
        <style>
            .cls-1{fill:#fff}
        </style>
    </defs>
    <path id="Tracé_4100" d="M25.5 11.6c-.9-3.9-1.7-7.7-2.6-11.6h-4.3c.2 3.9.4 7.7.6 11.6z" class="cls-1" data-name="Tracé 4100"/>
    <path id="Tracé_4101" d="M19.5 17.7c.3 5.1.5 10.1.8 15.2h9.9l-3.4-15.2z" class="cls-1" data-name="Tracé 4101"/>
    <path id="Tracé_4102" d="M15.8 0h-4.3L8.9 11.6h6.3c.2-3.9.4-7.7.6-11.6z" class="cls-1" data-name="Tracé 4102"/>
    <path id="Tracé_4103" d="M4.2 32.9h9.9c.3-5.1.5-10.1.8-15.2H7.6c-1.1 5.1-2.3 10.1-3.4 15.2z" class="cls-1" data-name="Tracé 4103"/>
    <path id="Tracé_4104" d="M34 13.2H.4a.43.43 0 0 0-.4.4v2.2a.43.43 0 0 0 .4.4h2.2v3.2a.43.43 0 0 0 .4.4h2.2c.2 0 .3-.1.4-.3l.8-3.3h21.7l.8 3.3c0 .2.2.3.4.3h2.2a.43.43 0 0 0 .4-.4v-3.2H34a.43.43 0 0 0 .4-.4v-2.2a.366.366 0 0 0-.4-.4z" class="cls-1" data-name="Tracé 4104"/>
</svg>
