<?xml version="1.0" encoding="utf-8"?>
<!-- Generator: Adobe Illustrator 15.1.0, SVG Export Plug-In . SVG Version: 6.00 Build 0)  -->
<!DOCTYPE svg PUBLIC "-//W3C//DTD SVG 1.1//EN" "http://www.w3.org/Graphics/SVG/1.1/DTD/svg11.dtd">
<svg version="1.1" xmlns="http://www.w3.org/2000/svg" xmlns:xlink="http://www.w3.org/1999/xlink" x="0px" y="0px" width="300px"
	 height="300px" viewBox="0 0 300 300" enable-background="new 0 0 300 300" xml:space="preserve">
<g id="Calque_2">
</g>
<g id="Calque_1">
	<g>
		<path fill-rule="evenodd" clip-rule="evenodd" fill="#FFFFFF" stroke="#FFFFFF" stroke-width="3" stroke-miterlimit="10" d="
			M212.199,286.948c3.253,3.601,8.729-1.746,11.578,3.617c6.495-4.356,11.484,2.814,17.367,3.62c1.205,1.438-0.065,0.918,0,2.895
			c5.042-3.127-1.942-7.565,0.724-13.751c0.966,0,1.93,0,2.895,0c-5.446-7.396-0.053-23.083-10.131-21.708
			c-4.91-9.32-14.637-13.825-18.089-24.603c0.723,0,1.446,0,2.169,0c-0.911-7.287-5.662-10.74-10.854-13.747
			c-1.837-7.409,1.863-14.146-5.065-16.643c1.865-3.798,3.474-11.327,2.172-15.922c-2.202,0.686-3.621-2.894-5.79-4.341
			c-12.278,2.203-23.598,1.337-38.352,1.447c1.719,5.838,9.875,14.447-0.724,16.645c4.248,5.08,11.043,10.103,9.408,18.813
			c-7.838,0.437-10.958,3.102-11.578,13.024c-2.728,0.891-4.165,3.07-7.235,3.617c-0.767,2.696,1.522,2.336,2.169,3.62
			c-5.09,8.195,4.06,12.039,2.172,18.813c5.141,3.166,19.219,7.058,22.433,1.445c2.188,5.442,2.443,12.776,1.446,19.537
			c8.522,2.91,18.597-1.175,25.326,0c3.38,0.592,4.802,5.034,7.236,2.171c1.648,4.181-6.207,0.439-7.236-1.446
			c-6.703,1.585-20.26,0.276-31.839,0.724c-0.622-0.584-0.431-1.981-1.447-2.171c-13.87,1.782-32.632-1.84-45.587-0.723
			c-1.273,0.176-1.649,1.244-1.447,2.894c-13.448-0.884-28.872,1.868-38.352-1.448c-1.834-7.382,0.322-16.385,2.895-21.708
			c-1.922-7.725-8.309-10.986-10.854-18.088c1.508-2.233,5.017-2.151,2.171-5.068c1.353,0.819,3.485,0.855,2.894,3.62
			c-0.962,1.772-2.693-0.796-2.894,0.723c-0.442,3.963,3.836,9.083,6.511,12.303c1.765-3.66,2.988-7.954,8.684-5.788
			c1.358-1.54,0.462-5.33,2.171-6.515c2.597-0.425,3.5,0.842,5.065,1.448c2.25-0.161,1.223-3.603,1.447-5.791
			c2.691-2.854,7.114-3.979,11.577-5.063c-4.147-1.4-3.571-7.523-6.511-10.131c-1.066,2.551-4.381,2.857-5.79,5.065
			c-2.706-0.432-3.74-2.531-5.789-3.62c-0.032-2.202,1.528-2.812,2.17-4.34c0.221-1.471-2.089,0.148-2.17,0.723
			c-1.096-0.677,1.247-4.011,2.17-5.065c0.003-2.415-2.354-2.469-2.17-5.064c-4.643-1.026-5.445,1.791-6.512,4.342
			c-3.468-2.563-4.112-7.948-7.96-10.131c-0.061,2.075,1.466,5.225,2.171,7.959c-3.006,7.125-8.753,11.51-10.855,19.537
			c0.851,2.288,3.149,3.124,4.341,5.065c2.4,0.654,3.14-4.02,4.343-2.171c-0.837,4.161-4.818,2.324-7.237,5.791
			c-4.677-0.871-7.601-3.495-11.578-5.066c-0.141-4.924-3.12-7.013-3.618-11.579c-2.615,0.406-3.728,1.899-8.683,1.449
			c0.215-12.255,8.382-15.443,10.131-27.5c-1.616-3.041-2.258-3.432-1.448-7.959c6.483-2.441,8.896-8.952,14.473-12.299
			c0.982-0.225,0.599-1.812,0.723-2.895c4.449,1.134,3.783-3.781,5.79-1.449c1.583-1.553,2.286-3.985,2.17-7.236
			c5.23,2.104,5.941-5.298,10.855-5.788c0,1.207,0,2.412,0,3.617c2.985,0.091,4.531-1.256,7.959-0.724
			c1.409-1.241,1.56-3.747,1.447-6.511c3.313,1.369-0.435,5.009-0.724,7.234c-3.622-0.485-5.602,0.671-8.683,0.726
			c-0.608-0.842-0.956-1.942-0.725-3.62c-3.516,1.222-4.991,7.823-9.406,5.791c-0.335,3.523-0.13,7.586-4.341,7.234
			c-0.667,4.768,3.559,4.643,2.894,9.408c-1.002,1.649-2.65,2.655-5.065,2.895c2.892,12.616,16.778,4.835,25.326,5.787
			c1.63-1.505,2.069-4.203,3.618-5.787c3.023-0.764,4.904,1.521,6.513,0c0.717-1.262,2.337-5.315,1.447-5.789
			c1.338-1.074,3.438-1.386,5.79-1.448c-0.322-4.261-4.061-5.105-3.619-10.131c-7.705,1.936-5.198-7.526-11.578-8.683
			c4.097-1.426,6.677,4.89,7.96,8.683c2.212,0.526,2.127-1.247,4.341-0.724c0,1.208,0,2.413,0,3.617
			c3.83,2.565,14.073-0.011,10.855-7.959c2.264-1.594,2.913-4.806,7.235-4.341c-0.438-1.734-1.041-3.302-0.723-5.787
			c5.311-8.133,11.571-17.754,10.854-29.67c3.638,0.262,5.441-1.313,5.789-4.342c8.079,1.678,12.159-12.757,9.406-19.538
			c2.865-1.476,5.521-3.164,9.407-3.618c1.521-6.695-0.265-8.609,1.448-13.749c8.348-2.506,5.668-16.039,10.13-22.433
			c4.195-1.11,5.658-4.955,7.234-8.683c7.049,3.657,9.632-4.467,16.645-5.065c0.949-3.602-2.227-3.079-2.172-5.789
			c3.479-2.058,0.614-7.26,2.896-9.406c-2.53-4.783-7.202-5.861-12.301-6.513c1.031-5.859-2.064-11.249-2.172-18.09
			c3.379,0,6.755,0,10.132,0c1.013,2.687,4.146,5.544,2.17,7.236c6.033,2.409,9.839,7.045,8.685,16.643
			c-0.122,1.569,2.565,0.328,3.618,0.725c2.445,5.487-0.759,9.287,2.894,13.748c-7.24,15.52,1.391,33.152,13.025,39.799
			c-7.117,5.247-15.911-2.502-22.432,2.894c-3.339-1.969-8.135-2.48-13.75-2.17c-1.616,2.727-3.811,4.872-5.065,7.96
			c8.306,6.753,10.178,19.503,21.71,20.985c0.438,3.659,4.81,3.39,7.234,5.065c3.609,7.005,3.539,17.687,10.131,21.708
			c0.291,7.526-4.502,9.973-8.684,13.026c-1.083,11.347-9.707,14.73-12.301,26.05c-3.731,0.609-6.294,2.387-7.959,5.064
			c0.094,2.317,1.641,3.185,4.341,2.895c1.082,6.491,0.421,11.379-1.447,16.643c5.091,1.664,3.544,9.964,4.343,15.919
			c4.78,3.903,9.669,7.699,11.576,14.474c0.222,1.67-2.089,0.803-2.17,2.169c5.697,11.43,14.99,19.262,24.602,26.776
			c-0.541,4.329,0.173,6.281,0,11.576c1.229,2.148,2.542,4.212,2.896,7.236c-1.072,0.839-1.825,0.839-2.896,0
			c-1.37,6.095,1.229,7.771,2.172,13.026c-2.214-0.525-2.129,1.247-4.341,0.723c0-0.964,0-1.931,0-2.895
			c-5.943-1.318-10.624-7.358-17.367-3.619c-0.215-1.473-1.45-1.925-2.171-2.892C219.149,290.05,212.381,290.829,212.199,286.948z
			 M209.306,161.04c-3.416-2.008-7.204-3.736-10.854-3.617c-0.303-2.82-1.864-4.933-2.895-8.685
			c-8.07-0.282-12.021-5.506-18.09-0.724c-4.231-5.871-23.987,3.893-23.879-9.405c-4.953,1.091-6.034-1.687-7.96-3.619
			c-0.194,5.874-6.966,8.085-4.343,14.472c-3.587-0.212-3.871,2.881-5.788,4.34c-0.427,3.082,0.52,4.788,0.725,7.237
			c-3.125-0.471-4.057,1.25-5.79,2.171c-0.113,6.722-3.576,13.677-10.854,10.854c1.428,5.423,0.533,8.686,2.169,13.749
			c7.488,0.008,9.795-5.163,15.92-6.512c2.171,2.202,5.296,1.111,8.684,0.723c11.463,9.277,38.471,4.354,54.271,3.619
			c1.846-3.461,6.468-4.146,9.408-6.513c0.839-10.018,10.997-14.564,10.129-23.879C216.21,156.847,213.602,159.787,209.306,161.04z
			 M181.086,81.442c1.789,4.632-6.209,5.044-8.685,2.171c-2.141,5.597,1.981,8.182-2.171,14.472
			c-2.933,0.926-6.426,1.293-7.96,3.619c2.34,5.921-2.928,12.015-2.171,16.642c-4.167,0.996-3.191,4.686-7.96,2.895
			c-0.599,3.259-3.349,4.368-6.511,5.065c1.36,5.015-0.488,8.749,2.894,11.578c1.688,0,3.376,0,5.066,0
			c1.204,0.965,0.24,4.099,1.446,5.065c5.639,6.017,18.566-1.08,22.433,4.341c6.3-5.002,10.287,0.758,18.813,0.723
			c0.64,4.294,2.682,6.418,2.895,9.409c4.714-2.188,6.787,2.917,11.579,2.894c6.318-5.74,17.939-6.182,18.813-17.367
			c-6.31-4.544-6.61-15.099-10.131-22.432c-15.008-3.565-21.105-16.039-28.944-26.773c0.735-3.366,4.396-3.806,4.341-7.96
			C190.291,84.297,188.655,79.902,181.086,81.442z M192.664,8.357c0.866,6.324,2.414,12.638,2.894,17.368
			c7.065-1.518,8.27,2.823,11.576,5.064c-0.255,5.414-0.339,8.266-2.894,12.303c2.884-0.472,2.073,2.751,2.171,5.065
			c-6.859,0.037-10.322,9.056-16.643,5.064c-1.672,3.635-3.154,7.459-7.236,8.684c-3.636,6.495-3.319,16.942-7.961,22.432
			c3.946,1.692,6.638-0.74,6.515-3.617c2.973,1.071,4.864-1.377,7.957,0c0.467,0.206,0.85,2.655,1.449,2.894
			c5.931,2.357,14.219,3.698,20.984,3.619c6.693-0.081,13.834-0.866,20.261-1.448c-12.466-6.468-19.665-23.944-13.748-39.074
			c-2.798-4.839-0.448-9.047-2.895-13.75c-4.195,1.285-2.771-9.279-4.341-13.025c-3.703-1.121-6.486-3.161-8.684-5.789
			C206.337,9.563,198.7,7.16,192.664,8.357z M145.628,182.747c-9.563-2.479-15.005,4.442-25.326,6.514
			c0.672,11.622-4.129,16.215-8.684,26.051c-0.535-1.153-3.542,0.165-2.895-2.172c-2.523,1.982-4.563,2.547-8.684,1.449
			c-2.108,4.389,0.779,5.901-2.17,10.128c1.874,0.779,2.69,2.616,5.064,2.895c1.162-2.214,4.243-2.51,5.065-5.063
			c4.888,1.38,3.237,9.303,7.96,10.854c-3.365,2.181-8.949,2.144-11.578,5.063c0.148,3.045,0.261,6.052-2.17,6.514
			c-1.565-0.606-2.469-1.873-5.065-1.445c-0.29,3.569-1.854,5.865-2.171,9.405c8.352-1.074,15.572,0.706,22.432-2.171
			c1.15,1.987,1.022,5.249,2.172,7.237c9.338,0.413,10.816-7.034,19.538-7.237c-0.204,1.65,0.173,2.721,1.446,2.894
			c1.125-5.152,7.239-10.538,11.577-7.96c0.587-3.48-3.175-2.613-2.17-6.511c8.979,0.296,7.332-10.034,10.854-15.196
			c2.049,1.113,3.345-1.548,6.513,0c1.256-2.12,1.706-5.049,1.447-8.683c-3.876-2.636-5.533-7.492-9.407-10.131
			c9.396-3.518,3.388-10.803,0.724-17.367C153.196,189.63,150.376,183.981,145.628,182.747z M106.553,187.813
			c-1.302,2.074-1.906,4.847-3.618,6.514c-4.609-3.963-6.507,2.153-12.301,0c-1.525,3.78-3.841,6.771-5.066,10.854
			c1.554,3.271,2.374,7.273,5.066,9.408c0.265-2.148,1.254-3.571,2.894-4.342c1.447,0,2.895,0,4.343,0
			c-0.037,2.205,0.656,3.685,2.17,4.342c4.521,0.746,8.237-3.896,11.578,0c5.543-10.8,9.8-21.266,8.684-34.013
			C112.194,180.1,116.553,192.051,106.553,187.813z M76.162,176.236c-0.129,2.73-0.509,4.085-2.895,2.895
			c-2.453,8.461-17.313,10.395-10.854,19.535c-2.427,7.465-4.265,15.515-9.407,20.263c1.412,2.563-0.697,3.753-0.723,6.511
			c1.271-0.413,4.251,0.876,4.341-0.723c-0.625-0.891-2.304-4.357-0.724-5.065c0.365,3.736,4.05,4.153,6.513,5.788
			c-2.389,4.369,2.902,5.239,2.171,10.132c5.128,1.763,6.021,3.753,10.854,5.065c0.124-1.083-0.258-2.671,0.725-2.895
			c1.6,1.043-0.911,1.766,0.723,2.171c1.859-2.954-3.002-4.446-3.617-7.236c2.106-7.784,7.288-12.489,10.854-18.813
			c-1.262-3.608-0.683-5.426-2.895-8.683c0.726,0.003,0.861-0.586,1.447-0.723c1.436-0.368,1.655,3.991,2.894,1.445
			c-2.171-3.409,4.782-7.727,2.895-10.854c-5.939,2.308-9.871-3.629-11.578-7.959c1.556-1.098,4.076-1.231,5.065-2.895
			C81.339,180.225,80.537,176.443,76.162,176.236z M140.563,254.384c-2.465,0.539-1.193-2.665-2.895-2.891
			c-1.654,1.721-4.403,2.35-7.959,2.168c-1.401,0.771-1.008,3.333-2.17,4.344c-2.984-0.091-4.531,1.258-7.959,0.723
			c-1.948-1.43-1.328-5.426-2.895-7.234c-6.261,2.956-13.673,1.065-21.709,2.168c-0.638-1.771-0.896-3.926-2.894-4.339
			c-3.73-0.114-3.351,3.886-5.065,5.788c4.969,8.215-3.216,15.315-1.447,26.773c8.799,4.466,25.384,1.147,37.627,2.17
			c-0.106-1.793-0.134-3.512,1.449-3.616c15.396-0.241,32.946,3.614,45.587,0.723c1.873-0.218,2.823,4.24,7.961,2.894
			c0.382-6.265,1.658-13.702-1.449-18.09c-4.67,3.042-17.248,0.227-22.431-2.895c2.997-7.333-6.847-9.078-2.895-17.368
			C146.594,244.86,142.189,249.721,140.563,254.384z"/>
	</g>
</g>
</svg>
