<?xml version="1.0" encoding="utf-8"?>
<!-- Generator: Adobe Illustrator 23.1.1, SVG Export Plug-In . SVG Version: 6.00 Build 0)  -->
<svg version="1.1" id="Calque_1" xmlns="http://www.w3.org/2000/svg" xmlns:xlink="http://www.w3.org/1999/xlink" x="0px" y="0px"
	 viewBox="0 0 28.6 24.9" style="enable-background:new 0 0 28.6 24.9;" xml:space="preserve">
<style type="text/css">
	.st0{fill:#ffffff;}
</style>
<g>
	<path class="st0" d="M21,0c-2.9,0.1-5.5,1.8-6.7,4.5C13.1,1.8,10.5,0.1,7.6,0C3.3,0,0,3.5,0,8.1c0,1.2,0.2,2.3,0.7,3.4h6.4l1.4-2.9
		c0.2-0.4,0.8-0.6,1.2-0.3C9.8,8.4,9.9,8.5,10,8.6l2.6,5.2l0.9-1.9c0.2-0.4,0.8-0.6,1.2-0.3c0.1,0.1,0.2,0.2,0.3,0.3l0.9,1.9
		l2.6-5.2c0.2-0.4,0.8-0.6,1.2-0.3c0.1,0.1,0.2,0.2,0.3,0.3l1.4,2.9h6.4c0.5-1.1,0.7-2.2,0.7-3.4C28.6,3.5,25.3,0,21,0z"/>
	<path class="st0" d="M20.2,12.7l-0.9-1.9l-2.6,5.2c-0.2,0.4-0.7,0.6-1.1,0.4c-0.2-0.1-0.3-0.2-0.4-0.4l-0.9-1.9l-0.9,1.9
		c-0.2,0.4-0.8,0.6-1.2,0.3c-0.1-0.1-0.2-0.2-0.3-0.3l-2.6-5.2l-0.9,1.9c-0.1,0.3-0.4,0.5-0.7,0.5h-6c1.7,2.7,4.8,5.3,8.7,8.6
		c1.1,0.9,2.2,1.9,3.5,3c0.3,0.3,0.8,0.3,1.1,0c1.2-1.1,2.4-2,3.5-3c3.9-3.3,7-5.9,8.7-8.6h-6C20.7,13.2,20.4,13,20.2,12.7z"/>
</g>
</svg>
