<svg xmlns="http://www.w3.org/2000/svg" id="Sante_Prevoyance" width="28.502" height="25.025" viewBox="0 0 28.502 25.025">
    <defs>
        <style>
            .cls-1{fill:#fff}
        </style>
    </defs>
    <path id="Tracé_4105" d="M21 0a7.573 7.573 0 0 0-6.7 4.5A7.573 7.573 0 0 0 7.6 0C3.3 0 0 3.5 0 8.1a7.973 7.973 0 0 0 .7 3.4h6.4l1.4-2.9a.837.837 0 0 1 1.2-.3l.3.3 2.6 5.2.9-1.9a.837.837 0 0 1 1.2-.3l.3.3.9 1.9 2.6-5.2a.837.837 0 0 1 1.2-.3l.3.3 1.4 2.9h6.4a7.973 7.973 0 0 0 .7-3.4C28.6 3.5 25.3 0 21 0z" class="cls-1" data-name="Tracé 4105"/>
    <path id="Tracé_4106" d="M20.2 12.7l-.9-1.9-2.6 5.2a.841.841 0 0 1-1.1.4.781.781 0 0 1-.4-.4l-.9-1.9-.9 1.9a.837.837 0 0 1-1.2.3l-.3-.3-2.6-5.2-.9 1.9a.752.752 0 0 1-.7.5h-6c1.7 2.7 4.8 5.3 8.7 8.6 1.1.9 2.2 1.9 3.5 3a.785.785 0 0 0 1.1 0c1.2-1.1 2.4-2 3.5-3 3.9-3.3 7-5.9 8.7-8.6h-6a1.1 1.1 0 0 1-1-.5z" class="cls-1" data-name="Tracé 4106"/>
</svg>
