<svg xmlns="http://www.w3.org/2000/svg" width="62.395" height="37.322" viewBox="0 0 62.395 37.322">
    <defs>
        <style>
            .cls-1{fill:#fff}
        </style>
    </defs>
    <g id="Service_Public" transform="translate(0 -.001)">
        <path id="Union_34" d="M20245.025-5261.984l-1.383-13.4h-2.018l-.881 13.4h-2.268v-22a7.653 7.653 0 0 1-5.922-.6 7.427 7.427 0 0 1-5.672.6v1.3l2.145 13h-2.145v7.6h-1.764v-7.6h-3.65v7.6h-1.764v-7.6h-2.521l2.521-12.7.254-1.9a7.038 7.038 0 0 1-6.176-.5 6.993 6.993 0 0 1-5.668.7l.5 21.9h-1.891l-1.383-13.4h-2.018l-.885 13.4h-2.268v-21.9c-.375.1-.625.1-1.006.2-3.273.5-6.426-1.2-7.057-3.8s1.516-5.1 4.789-5.6 6.426 1.2 7.057 3.9l.127-.2a5.977 5.977 0 0 1 1.133-1.9 7.106 7.106 0 0 1 8.438-.9 5.677 5.677 0 0 1 2.648-.9c3.275-.4 6.426 1.3 6.93 3.9v.1a3.652 3.652 0 0 1 1.133-2.1 7.122 7.122 0 0 1 8.439-1 6.74 6.74 0 0 1 2.775-.9c3.273-.3 6.3 1.5 6.8 4.1l.127-.1c.5-2.3 3.025-4 5.924-4a6.109 6.109 0 0 1 1.885.2c3.279.8 4.916 3.5 3.654 6.2-1.006 2.5-4.406 3.9-7.559 3.1l.5 21.8zm-17.889-29.5v6a5.233 5.233 0 0 0 4.412-.1 4.03 4.03 0 0 1 0-5.8 4.681 4.681 0 0 0-2.242-.534 5.5 5.5 0 0 0-2.169.435zm19.4-.1l.127 6.2a4.967 4.967 0 0 0 1.766.3 6.467 6.467 0 0 0 2.012-.4 3.21 3.21 0 0 0 1.891-4.6 4.4 4.4 0 0 0-3.807-1.891 5.232 5.232 0 0 0-1.986.39zm-12.475.2a4.03 4.03 0 0 1 0 5.8 5.24 5.24 0 0 0 2.268.5 4.95 4.95 0 0 0 2.395-.6v-5.7a5.266 5.266 0 0 0-2.328-.523 5.309 5.309 0 0 0-2.332.52zm-19.148 0a3.926 3.926 0 0 1 0 5.7 4.967 4.967 0 0 0 2.395.6 4.979 4.979 0 0 0 2.648-.7l.375-5.2a5.345 5.345 0 0 0-3.1-.966 4.849 4.849 0 0 0-2.315.563zm-21.168 2.9c0 1.9 1.893 3.4 4.285 3.4a5.011 5.011 0 0 0 2.141-.4v-6a7.075 7.075 0 0 0-2.141-.4c-2.389-.001-4.282 1.499-4.282 3.4zm13.984-3l.127 6a5.521 5.521 0 0 0 4.535-.2 4.157 4.157 0 0 1 0-5.7 4.838 4.838 0 0 0-2.41-.61 5.035 5.035 0 0 0-2.249.511zm25.072 4.9a2.884 2.884 0 0 0 0-3.9 2.9 2.9 0 0 0-.001 3.901zm-19.15-.1a2.912 2.912 0 0 0 0-3.7 2.927 2.927 0 0 0 .003 3.699zm7.193-8a2.606 2.606 0 0 1 0-3.8 2.606 2.606 0 0 1 3.8 0 2.606 2.606 0 0 1 0 3.8 2.5 2.5 0 0 1-1.863.824 2.755 2.755 0 0 1-1.933-.821zm-18.955 0a2.6 2.6 0 0 1 0-3.8 2.6 2.6 0 0 1 3.8 0 2.6 2.6 0 0 1 0 3.8 2.744 2.744 0 0 1-1.937.824 2.491 2.491 0 0 1-1.859-.821zm37.719-1.9a2.715 2.715 0 0 1 2.725-2.7 2.715 2.715 0 0 1 2.725 2.7 2.714 2.714 0 0 1-2.725 2.7 2.714 2.714 0 0 1-2.722-2.698z" class="cls-1" data-name="Union 34" transform="translate(-20192.002 5299.308)"/>
    </g>
</svg>
