<?xml version="1.0" encoding="utf-8"?>
<!-- Generator: Adobe Illustrator 15.1.0, SVG Export Plug-In . SVG Version: 6.00 Build 0)  -->
<!DOCTYPE svg PUBLIC "-//W3C//DTD SVG 1.1//EN" "http://www.w3.org/Graphics/SVG/1.1/DTD/svg11.dtd">
<svg version="1.1" xmlns="http://www.w3.org/2000/svg" xmlns:xlink="http://www.w3.org/1999/xlink" x="0px" y="0px" width="300px"
	 height="300px" viewBox="0 0 300 300" enable-background="new 0 0 300 300" xml:space="preserve">
<g id="Calque_2">
</g>
<g id="Calque_1">
	<g>
		<path fill="#FFFFFF" d="M269.34,47.011c6.07,6.116,1.834,8.257,1.834,8.257h1.835c8.257-6.881,9.175-11.926,9.175-11.926
			l-9.175-4.587C273.009,38.754,263.27,40.895,269.34,47.011z"/>
		<path fill="#FFFFFF" d="M16.554,43.662c3.732,4.424,5.356,10.956,12.955,11.514c-0.446-5.242,0.229-9.366,1.439-12.953
			C26.572,43.124,18.549,40.379,16.554,43.662z"/>
		<path fill="#FFFFFF" d="M292.917,27.829c-7.89,0.063-18.853,6.764-30.228,1.438c0.856-3.76,2.108-14.675,0-12.953l-2.878-2.88
			c-3.107,2.171-5.259,5.298-7.197,8.636c-4.938-2.262-10.21-10.238-17.273-5.756c3.006,12.644,14.848,14.066,2.88,24.468
			c-2.236-2.084-6.719-1.919-8.637-4.317c-10.028,9.164-18.009,20.374-25.91,31.666c-10.992-1.962-16.852-9.057-21.589-17.272
			c-10.938,0-21.875,0-32.813,0l72.205,132.169c18.883-29.966,27.378-72.104,22.501-120.653c0.341-4.457,4.006-5.591,5.757-8.638
			c-4.921-5.802-4.231-12.074,4.319-14.394c5.507,4.942,4.584,15.987,2.88,24.471C278.269,71.988,297.104,54.585,292.917,27.829z"/>
		<path fill="#FFFFFF" d="M76.169,181.723c4.884,7.747,10.46,14.587,16.673,20.272c-3.838,8.156-10.282,13.707-15.834,20.149
			c6.698,9.65-0.074,11.424-4.317,20.152c-9.144-5.248-15.978-12.81-21.591-21.591c-6.417,2.219-9.467,7.807-14.394,11.517
			c21.349,30.469,54.367,49.268,99.318,56.136c8.637,0,17.272,0,25.909,0c44.838-6.502,77.157-25.519,99.317-54.697
			c-9.878-24.578-19.983-1.298-33.105,8.636c-5.717-5.73-14.791-11.164-7.196-18.71c-4.233-7.766-10.666-13.327-15.833-20.152
			c5.645-5.508,10.754-11.772,15.291-18.718c0.363-0.556,0.715-1.125,1.07-1.689L149.272,50.858L76.169,181.723z M199.357,239.42
			c5.609,1.112,7.463-5.323,11.515-1.442c-25.996,26.564-95.784,25.212-123.788,1.442c1.123-5.392,6.962-0.926,10.075,0
			c6.729-4.787,8.77-14.263,17.272-17.275c10.636,8.557,21.382,17.004,34.546,23.031c13.583-6.568,25.627-14.674,35.984-24.47
			C189.69,227.014,196.105,231.636,199.357,239.42z M163.771,87.891c0,0.114,0,0.225,0,0.338c-3.231,1.94-6.242,4.103-9.276,6.242
			c1.014,3.597,2.417,6.805,3.375,10.456c-0.114,0-0.227,0-0.34,0c-2.813-2.301-5.955-4.276-8.938-6.408
			c-3.384,1.899-6.1,4.468-9.613,6.239c1.33-3.336,2.438-6.894,3.71-10.288c-2.973-2.313-6.217-4.354-9.276-6.58
			c0-0.056,0-0.111,0-0.168c3.944-0.064,7.707,0.052,11.47,0.168c1.355-3.367,2.456-6.989,3.71-10.457c0.057,0,0.112,0,0.169,0
			c1.127,3.483,2.368,6.854,3.373,10.457C156.013,87.891,159.895,87.891,163.771,87.891z"/>
		<path fill="#FFFFFF" d="M117.311,50.858c-4.86,7.134-10.937,13.052-18.712,17.272C86.718,60.341,79.34,48.047,71.25,36.465
			c-3.687,1.109-8.159,1.435-10.076,4.317c-2.217-3.059-5.195-5.359-7.197-8.635c0.459-7.216,9.281-6.073,8.636-14.394
			c-3.379-6.436-13.009,1.115-15.833,4.317c-4.208-1.07-2.785-7.77-8.636-7.197c-2.936,0.424-2.823,3.893-5.758,4.319
			c-0.778,5.097,5.098,3.538,4.318,8.636c-8.895,4.716-21.458,4.95-28.788-1.441c-2.074,0.328-0.502,4.296-2.879,4.321
			c0,4.317,0,8.634,0,12.954c4.413,14.31,17.118,26.345,35.985,21.591c0.293-10.264-1.778-22.89,4.318-27.35
			c11.793,7.85-0.976,16.402,10.076,25.91c-6.411,44.805,1.993,88.157,20.751,117.909l73.103-130.864
			C138.618,50.858,127.965,50.858,117.311,50.858z"/>
	</g>
</g>
</svg>
