<svg xmlns="http://www.w3.org/2000/svg" id="Tourisme_Loisirs" width="15.9" height="36.115" viewBox="0 0 15.9 36.115">
    <defs>
        <style>
            .cls-1{fill:#fff}
        </style>
    </defs>
    <path id="Tracé_4110" d="M11.4 8.4a4.717 4.717 0 0 0 3.2-1.2 3.991 3.991 0 0 0 1.3-3 4.335 4.335 0 0 0-1.3-3 4.867 4.867 0 0 0-6.4 0 4.335 4.335 0 0 0-1.3 3 4.335 4.335 0 0 0 1.3 3 4.9 4.9 0 0 0 3.2 1.2z" class="cls-1" data-name="Tracé 4110"/>
    <path id="Tracé_4111" d="M12.6 32.8a3.28 3.28 0 0 1-2.1-.5 2.016 2.016 0 0 1-.6-1.8 9.971 9.971 0 0 1 .2-1.6 11.627 11.627 0 0 1 .4-1.8l1.9-6.7a14.159 14.159 0 0 0 .4-2 9.888 9.888 0 0 0 .1-1.5 4.331 4.331 0 0 0-1.5-3.4 6.368 6.368 0 0 0-4.2-1.3 11.27 11.27 0 0 0-3.2.5c-1.1.4-2.3.8-3.5 1.3L0 16.1c.4-.1.8-.3 1.3-.4a7.719 7.719 0 0 1 1.5-.2 2.877 2.877 0 0 1 2 .5 2.273 2.273 0 0 1 .5 1.8 8.752 8.752 0 0 1-.2 1.6c-.1.6-.3 1.2-.4 1.8l-1.9 6.7a16.247 16.247 0 0 0-.4 1.9 8.6 8.6 0 0 0-.1 1.6 4.331 4.331 0 0 0 1.5 3.4 5.974 5.974 0 0 0 4.3 1.3 8.077 8.077 0 0 0 3.1-.5c.9-.3 2.1-.8 3.6-1.4l.5-2.1a4.951 4.951 0 0 1-1.3.4 2.649 2.649 0 0 1-1.4.3z" class="cls-1" data-name="Tracé 4111"/>
</svg>
