<?xml version="1.0" encoding="utf-8"?>
<!-- Generator: Adobe Illustrator 15.1.0, SVG Export Plug-In . SVG Version: 6.00 Build 0)  -->
<!DOCTYPE svg PUBLIC "-//W3C//DTD SVG 1.1//EN" "http://www.w3.org/Graphics/SVG/1.1/DTD/svg11.dtd">
<svg version="1.1" xmlns="http://www.w3.org/2000/svg" xmlns:xlink="http://www.w3.org/1999/xlink" x="0px" y="0px" width="300px"
	 height="300px" viewBox="0 0 300 300" enable-background="new 0 0 300 300" xml:space="preserve">
<g id="Calque_2">
</g>
<g id="Calque_1">
	<g>
		<g>
			<path fill-rule="evenodd" clip-rule="evenodd" fill="#FFFFFF" d="M167.777,36.57c17.119-3.631,35.631,9.959,27.889,31.874
				c-7.792,22.062-52.32,20.311-45.82-14.943C151.097,46.719,157.234,38.804,167.777,36.57z"/>
			<path fill-rule="evenodd" clip-rule="evenodd" fill="#FFFFFF" d="M182.719,109.285c-5.535,22.34-11.529,44.507-17.931,66.739
				c-6.099,21.17-16.51,42.551-14.942,64.747c7.621,0.526,11.893-6.084,15.937-10.957c3.71-4.467,6.718-12.854,10.958-10.955
				c5.441,5.454-4.933,15.88-10.958,22.908c-8.149,9.513-17.678,19.184-30.879,20.918c-47.045,6.182-21.796-52.128-14.943-75.705
				c5.752-19.771,14.179-36.572,12.951-57.773c-2.107-5.598-11.839-4.033-15.937-4.982c4.053-9.97,19.153-9.196,29.883-10.956
				C158.66,111.335,171.023,109.081,182.719,109.285z"/>
		</g>
		<path fill="none" stroke="#FFFFFF" stroke-width="10" stroke-miterlimit="10" d="M294.235,277.907
			c0,7.526-6.103,13.629-13.63,13.629H23.919c-7.527,0-13.629-6.103-13.629-13.629V21.22c0-7.528,6.102-13.629,13.629-13.629
			h256.686c7.527,0,13.63,6.102,13.63,13.629V277.907z"/>
	</g>
</g>
</svg>
